<?xml version="1.0" encoding="utf-8"?>
<!-- Generator: Adobe Illustrator 26.0.1, SVG Export Plug-In . SVG Version: 6.00 Build 0)  -->
<svg version="1.1" id="Calque_1" xmlns="http://www.w3.org/2000/svg" xmlns:xlink="http://www.w3.org/1999/xlink" x="0px" y="0px"
	 viewBox="0 0 400 400" style="enable-background:new 0 0 400 400;" xml:space="preserve">
<style type="text/css">
	.st0{fill:#E07E64;}
	.st1{fill:#FDF8F7;}
	.st2{fill:#FCF6F4;}
	.st3{fill:#DF7A5F;}
</style>
<g>
	<g>
		<g>
			<path class="st0" d="M71.484,131.511c-6.137-7.08-12.57-13.492-4.683-24.121c8.049-10.848,17.114-9.084,27.574-5.653
				c21.381,7,29.287-3.495,27.971-23.282c-0.696-10.532-3.717-20.511,9.682-25.898c12.526-5.035,18.611,2.62,26.43,10.019
				c14.884,14.079,27.565,12.358,35.691-7.816c3.479-8.629,6.253-18.109,18.902-16.726c12.485,1.361,16.736,9.011,19.259,20.502
				c5.207,23.755,19.612,24.099,36.619,11.59c7.871-5.789,14.301-11.568,24.317-3.505c8.948,7.192,9.132,15.183,5.767,24.884
				c-8.818,25.385,3.52,32.299,26.373,29.63c8.456-0.986,16.344-1.696,21.083,8.088c4.841,9.979,2.96,17.752-5.029,24.92
				c-19.519,17.51-17.975,31.398,7.413,40.789c8.521,3.154,14.598,7.857,13.018,18.215c-1.603,10.546-7.292,15.88-18.157,17.923
				c-25.214,4.729-27.146,18.97-13.49,37.891c4.836,6.704,11.046,11.952,4.473,21.659c-7.343,10.85-16.039,11.319-26.967,7.499
				c-22.955-8.009-31.088,2.591-29.221,24.318c0.803,9.412,3.072,18.395-8.463,23.708c-11.97,5.516-18.896-0.203-26.841-8.249
				c-15.955-16.161-29.016-13.48-37.271,8.166c-3.513,9.196-7.61,17.209-19.89,15.034c-10.784-1.901-15.166-8.364-17.314-18.816
				c-5.329-25.861-20.235-25.718-38.299-12.164c-6.979,5.24-12.627,10.048-21.729,3.446c-9.085-6.588-10.994-14.16-7.444-24.246
				c9.42-26.769-2.834-34.472-27.556-30.888c-8.938,1.299-16.094-0.086-20.174-9.758c-3.786-8.948-2.412-16.198,4.633-22.363
				c21.281-18.629,18.917-32.809-7.747-42.641c-7.423-2.739-12.639-7.038-11.688-15.955c1.101-10.322,5.396-17.202,16.721-19.085
				C79.387,164.645,85.061,152.157,71.484,131.511z"/>
			<path class="st1" d="M300.076,198.691c0.49,55.42-44.98,101.05-100.37,100.74c-54.01-0.3-98.69-44.85-99.16-98.84
				c-0.48-55.59,44.71-100.95,100.3-100.67C254.876,100.181,299.596,144.711,300.076,198.691z"/>
			<path class="st2" d="M201.566,174.821c13.89,2.81,23.26,10.52,22.99,24.77c-0.29,15.63-10.01,25.07-25.68,24.3
				c-13.94-0.68-23.04-9.88-22.84-24.11C176.256,184.041,186.426,176.281,201.566,174.821z"/>
			<g>
				<g>
					<g>
						<path class="st3" d="M219.515,154.478c-3.03,10.753-6.037,21.41-9.032,32.067c-5.466,19.455-10.952,38.902-16.366,58.373
							c-1.279,4.603-3.106,9.073-8.823,7.536c-5.452-1.467-5.505-5.764-4.08-10.748c8.373-29.276,16.537-58.614,24.701-87.949
							c1.216-4.371,2.982-8.18,8.312-7.261C218.417,147.217,220.012,150.383,219.515,154.478z"/>
						<path class="st3" d="M173.4,229.604c0.101,2.816-1.326,4.808-3.665,6.039c-2.407,1.268-4.913,1.035-6.974-0.799
							c-11.387-10.113-22.793-20.207-34.033-30.481c-2.869-2.623-2.942-6.2-0.09-8.862c11.13-10.391,22.397-20.643,33.749-30.795
							c2.885-2.578,6.227-2.278,8.885,0.61c3.04,3.303,2.304,6.699-0.699,9.526c-7.461,7.025-14.922,14.058-22.661,20.768
							c-3.682,3.194-3.624,5.315,0.068,8.422c7.199,6.064,14.091,12.493,21.066,18.818
							C171.076,224.693,173.349,226.451,173.4,229.604z"/>
						<path class="st3" d="M233.091,236.017c-2.805-0.071-4.721-1.598-5.793-4.022c-1.448-3.274-0.052-5.873,2.395-8.11
							c6.948-6.358,13.598-13.084,20.909-18.988c5.505-4.447,4.639-7.304-0.309-11.334c-7.077-5.768-13.661-12.143-20.456-18.253
							c-3.243-2.918-4.975-6.314-1.692-10.079c3.57-4.09,7.229-2.703,10.785,0.501c9.885,8.892,19.777,17.776,29.821,26.487
							c5.327,4.62,5.887,8.863,0.369,13.758c-10.153,9.006-20.14,18.2-30.196,27.318
							C237.258,234.805,235.548,236.206,233.091,236.017z"/>
					</g>
				</g>
			</g>
		</g>
	</g>
</g>
<g>
</g>
<g>
</g>
<g>
</g>
<g>
</g>
<g>
</g>
<g>
</g>
<g>
</g>
<g>
</g>
<g>
</g>
<g>
</g>
<g>
</g>
<g>
</g>
<g>
</g>
<g>
</g>
<g>
</g>
</svg>
