<?xml version="1.0" encoding="utf-8"?>
<!-- Generator: Adobe Illustrator 26.0.1, SVG Export Plug-In . SVG Version: 6.00 Build 0)  -->
<svg version="1.1" id="Calque_1" xmlns="http://www.w3.org/2000/svg" xmlns:xlink="http://www.w3.org/1999/xlink" x="0px" y="0px"
	 viewBox="0 0 400 400" style="enable-background:new 0 0 400 400;" xml:space="preserve">
<style type="text/css">
	.st0{fill:#E07E64;}
	.st1{fill:#FDF8F7;}
	.st2{fill:#FCF6F4;}
	.st3{fill:#DF7A5F;}
</style>
<g>
	<g>
		<g>
			<path class="st0" d="M65.064,145.358c-6.843-6.399-13.911-12.104-7.178-23.499c6.871-11.63,16.071-10.823,26.832-8.504
				c21.996,4.726,28.761-6.537,25.384-26.079c-1.794-10.402-5.84-20.01,6.922-26.768c11.931-6.317,18.783,0.66,27.333,7.201
				c16.275,12.446,28.706,9.409,34.678-11.504c2.558-8.945,4.325-18.664,17.051-18.61c12.559,0.049,17.587,7.212,21.296,18.376
				c7.662,23.081,22.024,21.917,37.63,7.699c7.223-6.58,13.014-12.999,23.817-6.028c9.651,6.218,10.669,14.145,8.336,24.145
				c-6.116,26.168,6.877,31.754,29.326,26.711c8.306-1.864,16.078-3.396,21.813,5.839c5.857,9.418,4.799,17.346-2.397,25.31
				c-17.582,19.454-14.594,33.105,11.636,39.791c8.804,2.246,15.339,6.288,14.85,16.755c-0.492,10.656-5.592,16.555-16.184,19.722
				c-24.581,7.339-25.015,21.704-9.456,39.094c5.511,6.162,12.235,10.732,6.712,21.073c-6.168,11.558-14.768,12.933-26.036,10.277
				c-23.667-5.566-30.647,5.826-26.519,27.239c1.783,9.277,4.978,17.973-5.939,24.463c-11.328,6.737-18.814,1.773-27.556-5.398
				c-17.557-14.405-30.266-10.374-36.213,12.018c-2.532,9.513-5.77,17.91-18.209,17.031c-10.923-0.763-15.957-6.733-19.186-16.903
				c-8.003-25.162-22.812-23.462-39.361-8.094c-6.393,5.941-11.507,11.312-21.25,5.699c-9.724-5.602-12.414-12.933-9.938-23.335
				c6.57-27.607-6.422-33.987-30.634-27.839c-8.754,2.226-16.015,1.596-21.084-7.596c-4.701-8.503-4.092-15.858,2.27-22.725
				c19.217-20.751,15.384-34.606-12.162-41.598c-7.669-1.949-13.305-5.678-13.292-14.646c0.016-10.381,3.568-17.672,14.635-20.728
				C76.388,177.484,80.725,164.471,65.064,145.358z"/>
			<path class="st1" d="M300.076,198.691c0.49,55.42-44.98,101.05-100.37,100.74c-54.01-0.3-98.69-44.85-99.16-98.84
				c-0.48-55.59,44.71-100.95,100.3-100.67C254.876,100.181,299.596,144.711,300.076,198.691z"/>
			<path class="st2" d="M201.566,174.821c13.89,2.81,23.26,10.52,22.99,24.77c-0.29,15.63-10.01,25.07-25.68,24.3
				c-13.94-0.68-23.04-9.88-22.84-24.11C176.256,184.041,186.426,176.281,201.566,174.821z"/>
			<g>
				<g>
					<g>
						<path class="st3" d="M219.515,154.478c-3.03,10.753-6.037,21.41-9.032,32.067c-5.466,19.455-10.952,38.902-16.366,58.373
							c-1.279,4.603-3.106,9.073-8.823,7.536c-5.452-1.467-5.505-5.764-4.08-10.748c8.373-29.276,16.537-58.614,24.701-87.949
							c1.216-4.371,2.982-8.18,8.312-7.261C218.417,147.217,220.012,150.383,219.515,154.478z"/>
						<path class="st3" d="M173.4,229.604c0.101,2.816-1.326,4.808-3.665,6.039c-2.407,1.268-4.913,1.035-6.974-0.799
							c-11.387-10.113-22.793-20.207-34.033-30.481c-2.869-2.623-2.942-6.2-0.09-8.862c11.13-10.391,22.397-20.643,33.749-30.795
							c2.885-2.578,6.227-2.278,8.885,0.61c3.04,3.303,2.304,6.699-0.699,9.526c-7.461,7.025-14.922,14.058-22.661,20.768
							c-3.682,3.194-3.624,5.315,0.068,8.422c7.199,6.064,14.091,12.493,21.066,18.818
							C171.076,224.693,173.349,226.451,173.4,229.604z"/>
						<path class="st3" d="M233.091,236.017c-2.805-0.071-4.721-1.598-5.793-4.022c-1.448-3.274-0.052-5.873,2.395-8.11
							c6.948-6.358,13.598-13.084,20.909-18.988c5.505-4.447,4.639-7.304-0.309-11.334c-7.077-5.768-13.661-12.143-20.456-18.253
							c-3.243-2.918-4.975-6.314-1.692-10.079c3.57-4.09,7.229-2.703,10.785,0.501c9.885,8.892,19.777,17.776,29.821,26.487
							c5.327,4.62,5.887,8.863,0.369,13.758c-10.153,9.006-20.14,18.2-30.196,27.318
							C237.258,234.805,235.548,236.206,233.091,236.017z"/>
					</g>
				</g>
			</g>
		</g>
	</g>
</g>
<g>
</g>
<g>
</g>
<g>
</g>
<g>
</g>
<g>
</g>
<g>
</g>
<g>
</g>
<g>
</g>
<g>
</g>
<g>
</g>
<g>
</g>
<g>
</g>
<g>
</g>
<g>
</g>
<g>
</g>
</svg>
