<?xml version="1.0" encoding="utf-8"?>
<!-- Generator: Adobe Illustrator 26.0.1, SVG Export Plug-In . SVG Version: 6.00 Build 0)  -->
<svg version="1.1" id="Calque_1" xmlns="http://www.w3.org/2000/svg" xmlns:xlink="http://www.w3.org/1999/xlink" x="0px" y="0px"
	 viewBox="0 0 400 400" style="enable-background:new 0 0 400 400;" xml:space="preserve">
<style type="text/css">
	.st0{fill:#E07E64;}
	.st1{fill:#FDF8F7;}
	.st2{fill:#FCF6F4;}
	.st3{fill:#DF7A5F;}
</style>
<g>
	<g>
		<g>
			<path class="st0" d="M318.46,285.068c5.092,7.865,10.57,15.11,1.28,24.538c-9.481,9.622-18.212,6.614-28.093,1.76
				c-20.199-9.907-29.488-0.615-30.939,19.163c-0.776,10.527,0.826,20.829-13.192,24.299c-13.104,3.243-18.065-5.185-24.779-13.6
				c-12.78-16.013-25.577-16.074-36.431,2.773c-4.646,8.061-8.712,17.063-21.046,13.932c-12.174-3.085-15.319-11.253-16.218-22.983
				c-1.85-24.249-16.068-26.594-34.65-16.574c-8.6,4.637-15.772,9.465-24.568,0.087c-7.86-8.368-6.93-16.306-2.248-25.445
				c12.265-23.911,1.01-32.474-21.993-33.012c-8.51-0.201-16.421-0.595-19.753-10.943c-3.405-10.556-0.46-17.992,8.449-23.978
				c21.766-14.623,22.169-28.591-1.664-41.424c-8-4.309-13.363-9.812-10.356-19.85c3.056-10.22,9.431-14.71,20.474-15.221
				c25.627-1.174,29.522-15.007,18.633-35.645c-3.856-7.312-9.275-13.373-1.415-22.071c8.781-9.722,17.458-8.977,27.748-3.673
				c21.617,11.126,31.146,1.761,32.321-20.014c0.515-9.433-0.482-18.644,11.681-22.299c12.622-3.796,18.684,2.831,25.432,11.905
				c13.55,18.225,26.857,17.387,38.045-2.9c4.758-8.618,9.931-15.982,21.789-12.12c10.414,3.383,13.854,10.394,14.527,21.042
				c1.678,26.351,16.459,28.284,36.233,17.376c7.641-4.218,13.902-8.193,21.998-0.388c8.08,7.788,8.917,15.553,3.997,25.046
				c-13.053,25.197-1.991,34.531,22.989,34.423c9.032-0.043,15.926,2.325,18.62,12.471c2.504,9.388,0.134,16.376-7.7,21.501
				c-23.666,15.486-23.299,29.857,1.737,43.304c6.97,3.746,11.536,8.729,9.354,17.427c-2.527,10.069-7.737,16.284-19.214,16.572
				C315.245,251.156,307.888,262.733,318.46,285.068z"/>
			<path class="st1" d="M300.076,198.691c0.49,55.42-44.98,101.05-100.37,100.74c-54.01-0.3-98.69-44.85-99.16-98.84
				c-0.48-55.59,44.71-100.95,100.3-100.67C254.876,100.181,299.596,144.711,300.076,198.691z"/>
			<path class="st2" d="M201.566,174.821c13.89,2.81,23.26,10.52,22.99,24.77c-0.29,15.63-10.01,25.07-25.68,24.3
				c-13.94-0.68-23.04-9.88-22.84-24.11C176.256,184.041,186.426,176.281,201.566,174.821z"/>
			<g>
				<g>
					<g>
						<path class="st3" d="M219.515,154.478c-3.03,10.753-6.037,21.41-9.032,32.067c-5.466,19.455-10.952,38.902-16.366,58.373
							c-1.279,4.603-3.106,9.073-8.823,7.536c-5.452-1.467-5.505-5.764-4.08-10.748c8.373-29.276,16.537-58.614,24.701-87.949
							c1.216-4.371,2.982-8.18,8.312-7.261C218.417,147.217,220.012,150.383,219.515,154.478z"/>
						<path class="st3" d="M173.4,229.604c0.101,2.816-1.326,4.808-3.665,6.039c-2.407,1.268-4.913,1.035-6.974-0.799
							c-11.387-10.113-22.793-20.207-34.033-30.481c-2.869-2.623-2.942-6.2-0.09-8.862c11.13-10.391,22.397-20.643,33.749-30.795
							c2.885-2.578,6.227-2.278,8.885,0.61c3.04,3.303,2.304,6.699-0.699,9.526c-7.461,7.025-14.922,14.058-22.661,20.768
							c-3.682,3.194-3.624,5.315,0.068,8.422c7.199,6.064,14.091,12.493,21.066,18.818
							C171.076,224.693,173.349,226.451,173.4,229.604z"/>
						<path class="st3" d="M233.091,236.017c-2.805-0.071-4.721-1.598-5.793-4.022c-1.448-3.274-0.052-5.873,2.395-8.11
							c6.948-6.358,13.598-13.084,20.909-18.988c5.505-4.447,4.639-7.304-0.309-11.334c-7.077-5.768-13.661-12.143-20.456-18.253
							c-3.243-2.918-4.975-6.314-1.692-10.079c3.57-4.09,7.229-2.703,10.785,0.501c9.885,8.892,19.777,17.776,29.821,26.487
							c5.327,4.62,5.887,8.863,0.369,13.758c-10.153,9.006-20.14,18.2-30.196,27.318
							C237.258,234.805,235.548,236.206,233.091,236.017z"/>
					</g>
				</g>
			</g>
		</g>
	</g>
</g>
<g>
</g>
<g>
</g>
<g>
</g>
<g>
</g>
<g>
</g>
<g>
</g>
<g>
</g>
<g>
</g>
<g>
</g>
<g>
</g>
<g>
</g>
<g>
</g>
<g>
</g>
<g>
</g>
<g>
</g>
</svg>
