<?xml version="1.0" encoding="utf-8"?>
<!-- Generator: Adobe Illustrator 26.0.1, SVG Export Plug-In . SVG Version: 6.00 Build 0)  -->
<svg version="1.1" id="Calque_1" xmlns="http://www.w3.org/2000/svg" xmlns:xlink="http://www.w3.org/1999/xlink" x="0px" y="0px"
	 viewBox="0 0 400 400" style="enable-background:new 0 0 400 400;" xml:space="preserve">
<style type="text/css">
	.st0{fill:#E07E64;}
	.st1{fill:#FDF8F7;}
	.st2{fill:#FCF6F4;}
	.st3{fill:#DF7A5F;}
</style>
<g>
	<g>
		<g>
			<path class="st0" d="M240.837,339.68c-0.83,9.333-0.974,18.414-14.098,20.124c-13.395,1.746-18.423-6.001-23.221-15.908
				c-9.818-20.243-22.858-18.64-36.178-3.947c-7.093,7.817-12.173,16.922-25.355,11.026c-12.323-5.512-11.044-15.208-11.153-25.972
				c-0.212-20.487-10.259-28.414-30.415-20.244c-8.624,3.491-17.37,8.082-25.162-1.979c-7.694-9.926-5.144-18.299,1.369-28.095
				c13.471-20.247,3.712-30.849-17.101-34.393c-9.632-1.641-18.256-2.252-19.413-15.057c-1.042-11.433,4.578-17.116,13.894-21.434
				c24.386-11.291,20.789-24.968,2.994-39.554c-6.583-5.398-12.574-10.579-8.828-20.784c3.816-10.414,10.714-14.461,21.42-13.693
				c26.154,1.878,35.072-8.881,24.192-33.667c-3.651-8.321-4.489-15.959,4.06-22.017c8.7-6.172,16.488-5.785,25.505,0.611
				c20.917,14.852,32.503,6.35,36.628-16.617c1.463-8.136,0.924-16.248,12.473-18.263c12.905-2.255,19.284,3.675,24.128,14.189
				c10.185,22.076,23.459,20.563,37.791,4.127c6.213-7.116,11.098-14.988,22.933-10.381c12.283,4.779,12.98,13.734,12.711,25.038
				c-0.542,22.704,10.459,30.236,31.765,21.137c9.055-3.861,17.665-6.48,24.631,3.864c6.124,9.077,4.518,16.72-1.508,25.525
				c-14.901,21.798-4.444,32.421,17.855,36c8.618,1.38,15.999,2.103,17.574,13.237c1.572,11.112-2.549,17.745-12.27,22.197
				c-25.799,11.819-22.828,25.985-3.077,41.279c7.144,5.527,11.118,11.637,6.995,21.291c-3.806,8.94-9.977,12.987-19.305,12.202
				c-28.184-2.367-36.741,9.183-25.292,35.194c3.186,7.243,3.717,13.98-3.358,19.491c-8.19,6.379-16.122,8.068-25.344,1.229
				C259.182,310.977,246.257,315.571,240.837,339.68z"/>
			<path class="st1" d="M300.076,198.691c0.49,55.42-44.98,101.05-100.37,100.74c-54.01-0.3-98.69-44.85-99.16-98.84
				c-0.48-55.59,44.71-100.95,100.3-100.67C254.876,100.181,299.596,144.711,300.076,198.691z"/>
			<path class="st2" d="M201.566,174.821c13.89,2.81,23.26,10.52,22.99,24.77c-0.29,15.63-10.01,25.07-25.68,24.3
				c-13.94-0.68-23.04-9.88-22.84-24.11C176.256,184.041,186.426,176.281,201.566,174.821z"/>
			<g>
				<g>
					<g>
						<path class="st3" d="M219.515,154.478c-3.03,10.753-6.037,21.41-9.032,32.067c-5.466,19.455-10.952,38.902-16.366,58.373
							c-1.279,4.603-3.106,9.073-8.823,7.536c-5.452-1.467-5.505-5.764-4.08-10.748c8.373-29.276,16.537-58.614,24.701-87.949
							c1.216-4.371,2.982-8.18,8.312-7.261C218.417,147.217,220.012,150.383,219.515,154.478z"/>
						<path class="st3" d="M173.4,229.604c0.101,2.816-1.326,4.808-3.665,6.039c-2.407,1.268-4.913,1.035-6.974-0.799
							c-11.387-10.113-22.793-20.207-34.033-30.481c-2.869-2.623-2.942-6.2-0.09-8.862c11.13-10.391,22.397-20.643,33.749-30.795
							c2.885-2.578,6.227-2.278,8.885,0.61c3.04,3.303,2.304,6.699-0.699,9.526c-7.461,7.025-14.922,14.058-22.661,20.768
							c-3.682,3.194-3.624,5.315,0.068,8.422c7.199,6.064,14.091,12.493,21.066,18.818
							C171.076,224.693,173.349,226.451,173.4,229.604z"/>
						<path class="st3" d="M233.091,236.017c-2.805-0.071-4.721-1.598-5.793-4.022c-1.448-3.274-0.052-5.873,2.395-8.11
							c6.948-6.358,13.598-13.084,20.909-18.988c5.505-4.447,4.639-7.304-0.309-11.334c-7.077-5.768-13.661-12.143-20.456-18.253
							c-3.243-2.918-4.975-6.314-1.692-10.079c3.57-4.09,7.229-2.703,10.785,0.501c9.885,8.892,19.777,17.776,29.821,26.487
							c5.327,4.62,5.887,8.863,0.369,13.758c-10.153,9.006-20.14,18.2-30.196,27.318
							C237.258,234.805,235.548,236.206,233.091,236.017z"/>
					</g>
				</g>
			</g>
		</g>
	</g>
</g>
<g>
</g>
<g>
</g>
<g>
</g>
<g>
</g>
<g>
</g>
<g>
</g>
<g>
</g>
<g>
</g>
<g>
</g>
<g>
</g>
<g>
</g>
<g>
</g>
<g>
</g>
<g>
</g>
<g>
</g>
</svg>
