<?xml version="1.0" encoding="utf-8"?>
<!-- Generator: Adobe Illustrator 26.0.1, SVG Export Plug-In . SVG Version: 6.00 Build 0)  -->
<svg version="1.1" id="Calque_1" xmlns="http://www.w3.org/2000/svg" xmlns:xlink="http://www.w3.org/1999/xlink" x="0px" y="0px"
	 viewBox="0 0 400 400" style="enable-background:new 0 0 400 400;" xml:space="preserve">
<style type="text/css">
	.st0{fill:#E07E64;}
	.st1{fill:#FDF8F7;}
	.st2{fill:#FCF6F4;}
	.st3{fill:#DF7A5F;}
</style>
<g>
	<g>
		<g>
			<path class="st0" d="M305.424,300.673c3.948,8.497,8.364,16.434-2.147,24.477c-10.728,8.209-18.955,4.015-28.064-2.166
				c-18.624-12.622-29.116-4.713-33.305,14.671c-2.234,10.316-2.081,20.741-16.446,22.226c-13.428,1.388-17.168-7.649-22.645-16.916
				c-10.427-17.636-23.091-19.478-36.463-2.325c-5.723,7.336-11.002,15.684-22.78,10.867c-11.626-4.75-13.604-13.275-12.862-25.016
				c1.542-24.27-12.21-28.572-32.006-21.235c-9.162,3.395-16.936,7.178-24.341-3.333c-6.619-9.38-4.593-17.112,1.316-25.51
				c15.473-21.971,5.519-32.018-17.184-35.752c-8.4-1.383-16.179-2.874-18.037-13.586c-1.903-10.927,2.048-17.881,11.704-22.569
				c23.589-11.451,25.933-25.227,4.117-41.252c-7.322-5.381-11.867-11.576-7.493-21.098c4.448-9.695,11.387-13.254,22.394-12.224
				c25.541,2.404,31.324-10.752,23.412-32.705c-2.801-7.778-7.324-14.533,1.671-22.053c10.049-8.405,18.538-6.459,27.99,0.224
				c19.859,14.026,30.598,6.078,34.792-15.321c1.822-9.269,2.117-18.529,14.67-20.457c13.027-2.003,18.108,5.404,23.528,15.328
				c10.882,19.933,24.176,20.956,38.078,2.423c5.911-7.872,12.059-14.444,23.263-8.97c9.842,4.799,12.273,12.221,11.457,22.859
				c-2.006,26.328,12.362,30.299,33.463,22.249c8.153-3.114,14.907-6.178,21.838,2.677c6.918,8.837,6.665,16.642,0.473,25.358
				c-16.433,23.136-6.778,33.918,17.974,37.287c8.95,1.215,15.447,4.519,16.703,14.941c1.173,9.645-2.147,16.236-10.618,20.22
				c-25.591,12.042-27.227,26.323-4.307,43.125c6.381,4.679,10.209,10.249,6.837,18.559c-3.903,9.619-9.928,15.048-21.334,13.736
				C306.96,266.644,298.063,277.085,305.424,300.673z"/>
			<path class="st1" d="M300.076,198.691c0.49,55.42-44.98,101.05-100.37,100.74c-54.01-0.3-98.69-44.85-99.16-98.84
				c-0.48-55.59,44.71-100.95,100.3-100.67C254.876,100.181,299.596,144.711,300.076,198.691z"/>
			<path class="st2" d="M201.566,174.821c13.89,2.81,23.26,10.52,22.99,24.77c-0.29,15.63-10.01,25.07-25.68,24.3
				c-13.94-0.68-23.04-9.88-22.84-24.11C176.256,184.041,186.426,176.281,201.566,174.821z"/>
			<g>
				<g>
					<g>
						<path class="st3" d="M219.515,154.478c-3.03,10.753-6.037,21.41-9.032,32.067c-5.466,19.455-10.952,38.902-16.366,58.373
							c-1.279,4.603-3.106,9.073-8.823,7.536c-5.452-1.467-5.505-5.764-4.08-10.748c8.373-29.276,16.537-58.614,24.701-87.949
							c1.216-4.371,2.982-8.18,8.312-7.261C218.417,147.217,220.012,150.383,219.515,154.478z"/>
						<path class="st3" d="M173.4,229.604c0.101,2.816-1.326,4.808-3.665,6.039c-2.407,1.268-4.913,1.035-6.974-0.799
							c-11.387-10.113-22.793-20.207-34.033-30.481c-2.869-2.623-2.942-6.2-0.09-8.862c11.13-10.391,22.397-20.643,33.749-30.795
							c2.885-2.578,6.227-2.278,8.885,0.61c3.04,3.303,2.304,6.699-0.699,9.526c-7.461,7.025-14.922,14.058-22.661,20.768
							c-3.682,3.194-3.624,5.315,0.068,8.422c7.199,6.064,14.091,12.493,21.066,18.818
							C171.076,224.693,173.349,226.451,173.4,229.604z"/>
						<path class="st3" d="M233.091,236.017c-2.805-0.071-4.721-1.598-5.793-4.022c-1.448-3.274-0.052-5.873,2.395-8.11
							c6.948-6.358,13.598-13.084,20.909-18.988c5.505-4.447,4.639-7.304-0.309-11.334c-7.077-5.768-13.661-12.143-20.456-18.253
							c-3.243-2.918-4.975-6.314-1.692-10.079c3.57-4.09,7.229-2.703,10.785,0.501c9.885,8.892,19.777,17.776,29.821,26.487
							c5.327,4.62,5.887,8.863,0.369,13.758c-10.153,9.006-20.14,18.2-30.196,27.318
							C237.258,234.805,235.548,236.206,233.091,236.017z"/>
					</g>
				</g>
			</g>
		</g>
	</g>
</g>
<g>
</g>
<g>
</g>
<g>
</g>
<g>
</g>
<g>
</g>
<g>
</g>
<g>
</g>
<g>
</g>
<g>
</g>
<g>
</g>
<g>
</g>
<g>
</g>
<g>
</g>
<g>
</g>
<g>
</g>
</svg>
