<?xml version="1.0" encoding="utf-8"?>
<!-- Generator: Adobe Illustrator 26.0.1, SVG Export Plug-In . SVG Version: 6.00 Build 0)  -->
<svg version="1.1" id="Calque_1" xmlns="http://www.w3.org/2000/svg" xmlns:xlink="http://www.w3.org/1999/xlink" x="0px" y="0px"
	 viewBox="0 0 400 400" style="enable-background:new 0 0 400 400;" xml:space="preserve">
<style type="text/css">
	.st0{fill:#E07E64;}
	.st1{fill:#FDF8F7;}
	.st2{fill:#FCF6F4;}
	.st3{fill:#DF7A5F;}
</style>
<g>
	<g>
		<g>
			<path class="st0" d="M345.895,191.686c8.907,2.908,17.723,5.091,16.437,18.264c-1.312,13.445-9.991,16.601-20.724,19.048
				c-21.933,5.012-23.304,18.079-11.984,34.363c6.022,8.669,13.75,15.667,5.039,27.186c-8.143,10.767-17.302,7.339-27.815,5.025
				c-20.009-4.402-29.993,3.604-26.568,25.082c1.462,9.188,3.967,18.743-7.588,24.072c-11.403,5.264-18.987,0.896-27.067-7.654
				c-16.698-17.68-29.223-10.556-37.358,8.926c-3.765,9.016-6.301,17.281-19.038,15.529c-11.374-1.556-15.648-8.311-17.76-18.36
				c-5.516-26.301-19.652-25.872-37.867-11.815c-6.74,5.2-13.136,9.872-22.237,3.926c-9.289-6.061-11.68-13.692-8.524-23.951
				c7.713-25.062-0.764-36.171-27.362-31.145c-8.929,1.685-16.56,0.784-20.54-8.909c-4.057-9.865-1.928-17.367,6.333-24.714
				c19.177-17.04,13.499-30.242-7.952-39.427c-7.599-3.256-15.624-4.555-14.989-16.262c0.706-13.082,7.919-17.963,19.253-20.317
				c23.802-4.958,25.313-18.232,12.523-35.894c-5.536-7.654-12.107-14.186-4.956-24.681c7.42-10.893,16.302-9.558,27.256-6.753
				c22,5.636,31.814-3.389,27.741-26.196c-1.725-9.692-2.34-18.67,9.306-23.131c10.222-3.925,17.308-0.641,24.532,7.211
				c17.887,19.423,30.59,11.623,39.093-9.299c3.283-8.087,5.648-15.116,16.851-14.145c11.18,0.967,16.717,6.475,18.868,16.949
				c5.713,27.797,20.184,28.089,39.529,12.284c6.993-5.717,13.84-8.215,22.319-2.026c7.854,5.72,10.41,12.643,7.547,21.555
				c-8.647,26.929,0.683,37.865,28.602,32.561c7.774-1.475,14.458-0.477,18.236,7.657c4.373,9.415,4.235,17.524-4.503,24.971
				C322.055,167.355,323.623,180.982,345.895,191.686z"/>
			<path class="st1" d="M300.076,198.691c0.49,55.42-44.98,101.05-100.37,100.74c-54.01-0.3-98.69-44.85-99.16-98.84
				c-0.48-55.59,44.71-100.95,100.3-100.67C254.876,100.181,299.596,144.711,300.076,198.691z"/>
			<path class="st2" d="M201.566,174.821c13.89,2.81,23.26,10.52,22.99,24.77c-0.29,15.63-10.01,25.07-25.68,24.3
				c-13.94-0.68-23.04-9.88-22.84-24.11C176.256,184.041,186.426,176.281,201.566,174.821z"/>
			<g>
				<g>
					<g>
						<path class="st3" d="M219.515,154.478c-3.03,10.753-6.037,21.41-9.032,32.067c-5.466,19.455-10.952,38.902-16.366,58.373
							c-1.279,4.603-3.106,9.073-8.823,7.536c-5.452-1.467-5.505-5.764-4.08-10.748c8.373-29.276,16.537-58.614,24.701-87.949
							c1.216-4.371,2.982-8.18,8.312-7.261C218.417,147.217,220.012,150.383,219.515,154.478z"/>
						<path class="st3" d="M173.4,229.604c0.101,2.816-1.326,4.808-3.665,6.039c-2.407,1.268-4.913,1.035-6.974-0.799
							c-11.387-10.113-22.793-20.207-34.033-30.481c-2.869-2.623-2.942-6.2-0.09-8.862c11.13-10.391,22.397-20.643,33.749-30.795
							c2.885-2.578,6.227-2.278,8.885,0.61c3.04,3.303,2.304,6.699-0.699,9.526c-7.461,7.025-14.922,14.058-22.661,20.768
							c-3.682,3.194-3.624,5.315,0.068,8.422c7.199,6.064,14.091,12.493,21.066,18.818
							C171.076,224.693,173.349,226.451,173.4,229.604z"/>
						<path class="st3" d="M233.091,236.017c-2.805-0.071-4.721-1.598-5.793-4.022c-1.448-3.274-0.052-5.873,2.395-8.11
							c6.948-6.358,13.598-13.084,20.909-18.988c5.505-4.447,4.639-7.304-0.309-11.334c-7.077-5.768-13.661-12.143-20.456-18.253
							c-3.243-2.918-4.975-6.314-1.692-10.079c3.57-4.09,7.229-2.703,10.785,0.501c9.885,8.892,19.777,17.776,29.821,26.487
							c5.327,4.62,5.887,8.863,0.369,13.758c-10.153,9.006-20.14,18.2-30.196,27.318
							C237.258,234.805,235.548,236.206,233.091,236.017z"/>
					</g>
				</g>
			</g>
		</g>
	</g>
</g>
<g>
</g>
<g>
</g>
<g>
</g>
<g>
</g>
<g>
</g>
<g>
</g>
<g>
</g>
<g>
</g>
<g>
</g>
<g>
</g>
<g>
</g>
<g>
</g>
<g>
</g>
<g>
</g>
<g>
</g>
</svg>
