<?xml version="1.0" encoding="utf-8"?>
<!-- Generator: Adobe Illustrator 26.0.1, SVG Export Plug-In . SVG Version: 6.00 Build 0)  -->
<svg version="1.1" id="Calque_1" xmlns="http://www.w3.org/2000/svg" xmlns:xlink="http://www.w3.org/1999/xlink" x="0px" y="0px"
	 viewBox="0 0 400 400" style="enable-background:new 0 0 400 400;" xml:space="preserve">
<style type="text/css">
	.st0{fill:#E07E64;}
	.st1{fill:#FDF8F7;}
	.st2{fill:#FCF6F4;}
	.st3{fill:#DF7A5F;}
</style>
<g>
	<g>
		<g>
			<path class="st0" d="M90.549,295.532c-8.809,3.192-17.1,6.9-24.197-4.272c-7.243-11.403-2.347-19.233,4.604-27.769
				c14.197-17.453,7.233-28.594-11.712-34.457c-10.083-3.124-20.481-3.881-20.708-18.32c-0.212-13.498,9.116-16.436,18.825-21.085
				c18.478-8.85,21.416-21.306,5.494-36.121c-6.809-6.34-14.666-12.327-8.841-23.641c5.745-11.168,14.41-12.395,26.042-10.632
				c24.043,3.652,29.527-9.673,23.943-30.033c-2.584-9.423-5.674-17.497,5.442-23.958c9.921-5.776,17.447-3.085,25.298,3.534
				c20.539,17.329,31.415,8.289,37.114-14.003c2.11-8.247,4.274-15.867,15.106-16.785c11.051-0.943,17.634,3.599,21.463,13.626
				c9.352,24.497,22.871,28.033,40.736,7.697c5.999-6.825,12.566-10.813,21.67-5.625c9.271,5.276,12.212,12.499,10.225,23.374
				c-4.621,25.234,7.982,32.142,30.54,26.173c7.992-2.113,15.116-6.029,21.823,3.586c7.498,10.743,4.819,19.03-2.663,27.864
				c-15.704,18.561-8.722,29.951,12.231,35.995c9.075,2.623,18.274,3.724,19.1,16.398c0.86,13.152-6.961,17.568-17.32,22.102
				c-20.806,9.104-22.983,22.257-5.733,37.722c7.327,6.575,13.338,13.272,6.908,23.956c-5.639,9.386-13.244,11.161-23.771,9.421
				c-26.053-4.293-31.261,9.674-25.081,31.396c2.391,8.394,4.855,15.389-4.57,21.521c-9.406,6.121-17.16,5.19-25.303-1.739
				c-21.615-18.387-33.198-9.708-38.712,14.656c-1.99,8.81-5.848,14.994-16.34,15.337c-9.711,0.328-15.987-3.553-19.218-12.34
				c-9.765-26.543-23.85-29.418-42.585-8.049c-5.218,5.948-11.1,9.277-19.084,5.194c-9.242-4.727-14.126-11.202-11.825-22.45
				C124.315,300.027,114.69,290.255,90.549,295.532z"/>
			<path class="st1" d="M300.076,198.691c0.49,55.42-44.98,101.05-100.37,100.74c-54.01-0.3-98.69-44.85-99.16-98.84
				c-0.48-55.59,44.71-100.95,100.3-100.67C254.876,100.181,299.596,144.711,300.076,198.691z"/>
			<path class="st2" d="M201.566,174.821c13.89,2.81,23.26,10.52,22.99,24.77c-0.29,15.63-10.01,25.07-25.68,24.3
				c-13.94-0.68-23.04-9.88-22.84-24.11C176.256,184.041,186.426,176.281,201.566,174.821z"/>
			<g>
				<g>
					<g>
						<path class="st3" d="M219.515,154.478c-3.03,10.753-6.037,21.41-9.032,32.067c-5.466,19.455-10.952,38.902-16.366,58.373
							c-1.279,4.603-3.106,9.073-8.823,7.536c-5.452-1.467-5.505-5.764-4.08-10.748c8.373-29.276,16.537-58.614,24.701-87.949
							c1.216-4.371,2.982-8.18,8.312-7.261C218.417,147.217,220.012,150.383,219.515,154.478z"/>
						<path class="st3" d="M173.4,229.604c0.101,2.816-1.326,4.808-3.665,6.039c-2.407,1.268-4.913,1.035-6.974-0.799
							c-11.387-10.113-22.793-20.207-34.033-30.481c-2.869-2.623-2.942-6.2-0.09-8.862c11.13-10.391,22.397-20.643,33.749-30.795
							c2.885-2.578,6.227-2.278,8.885,0.61c3.04,3.303,2.304,6.699-0.699,9.526c-7.461,7.025-14.922,14.058-22.661,20.768
							c-3.682,3.194-3.624,5.315,0.068,8.422c7.199,6.064,14.091,12.493,21.066,18.818
							C171.076,224.693,173.349,226.451,173.4,229.604z"/>
						<path class="st3" d="M233.091,236.017c-2.805-0.071-4.721-1.598-5.793-4.022c-1.448-3.274-0.052-5.873,2.395-8.11
							c6.948-6.358,13.598-13.084,20.909-18.988c5.505-4.447,4.639-7.304-0.309-11.334c-7.077-5.768-13.661-12.143-20.456-18.253
							c-3.243-2.918-4.975-6.314-1.692-10.079c3.57-4.09,7.229-2.703,10.785,0.501c9.885,8.892,19.777,17.776,29.821,26.487
							c5.327,4.62,5.887,8.863,0.369,13.758c-10.153,9.006-20.14,18.2-30.196,27.318
							C237.258,234.805,235.548,236.206,233.091,236.017z"/>
					</g>
				</g>
			</g>
		</g>
	</g>
</g>
<g>
</g>
<g>
</g>
<g>
</g>
<g>
</g>
<g>
</g>
<g>
</g>
<g>
</g>
<g>
</g>
<g>
</g>
<g>
</g>
<g>
</g>
<g>
</g>
<g>
</g>
<g>
</g>
<g>
</g>
</svg>
