<?xml version="1.0" encoding="utf-8"?>
<!-- Generator: Adobe Illustrator 26.0.1, SVG Export Plug-In . SVG Version: 6.00 Build 0)  -->
<svg version="1.1" id="Calque_1" xmlns="http://www.w3.org/2000/svg" xmlns:xlink="http://www.w3.org/1999/xlink" x="0px" y="0px"
	 viewBox="0 0 400 400" style="enable-background:new 0 0 400 400;" xml:space="preserve">
<style type="text/css">
	.st0{fill:#E07E64;}
	.st1{fill:#FDF8F7;}
	.st2{fill:#FCF6F4;}
	.st3{fill:#DF7A5F;}
</style>
<g>
	<g>
		<g>
			<path class="st0" d="M346.097,201.857c8.682,3.522,17.325,6.315,15.123,19.366c-2.247,13.32-11.125,15.864-22.003,17.555
				c-22.229,3.47-24.508,16.41-14.352,33.443c5.402,9.068,12.623,16.588,3.131,27.471c-8.874,10.173-17.772,6.115-28.098,3.072
				c-19.654-5.787-30.172,1.503-28.252,23.167c0.817,9.268,2.65,18.974-9.249,23.484c-11.742,4.455-19.003-0.431-26.467-9.524
				c-15.424-18.802-28.416-12.569-37.89,6.298c-4.385,8.731-7.491,16.8-20.075,14.163c-11.238-2.346-15.03-9.382-16.436-19.554
				c-3.668-26.622-17.799-27.18-36.951-14.428c-7.086,4.717-13.793,8.932-22.457,2.366c-8.844-6.694-10.697-14.474-6.832-24.487
				c9.442-24.463,1.761-36.136-25.122-32.978c-9.025,1.058-16.574-0.373-19.868-10.32c-3.359-10.124-0.712-17.459,8.041-24.212
				c20.319-15.66,15.575-29.226-5.182-39.886c-7.353-3.778-15.268-5.634-13.818-17.268c1.617-13.001,9.152-17.367,20.623-18.925
				c24.089-3.286,26.523-16.422,14.996-34.933c-4.989-8.022-11.088-14.996-3.222-24.966c8.162-10.349,16.929-8.398,27.661-4.835
				c21.553,7.156,31.973-1.162,29.501-24.197c-1.045-9.789-1.032-18.788,10.896-22.425c10.471-3.202,17.31,0.568,23.969,8.904
				c16.488,20.623,29.705,13.729,39.647-6.549c3.839-7.838,6.689-14.685,17.797-12.936c11.086,1.745,16.225,7.625,17.64,18.223
				c3.76,28.128,18.175,29.428,38.575,15.012c7.374-5.216,14.379-7.23,22.406-0.464c7.436,6.254,9.503,13.338,6.025,22.029
				c-10.504,26.26-1.96,37.821,26.261,34.477c7.858-0.929,14.456,0.533,17.658,8.91c3.705,9.697,3.002,17.777-6.234,24.596
				C324.012,175.922,324.626,189.625,346.097,201.857z"/>
			<path class="st1" d="M300.076,198.691c0.49,55.42-44.98,101.05-100.37,100.74c-54.01-0.3-98.69-44.85-99.16-98.84
				c-0.48-55.59,44.71-100.95,100.3-100.67C254.876,100.181,299.596,144.711,300.076,198.691z"/>
			<path class="st2" d="M201.566,174.821c13.89,2.81,23.26,10.52,22.99,24.77c-0.29,15.63-10.01,25.07-25.68,24.3
				c-13.94-0.68-23.04-9.88-22.84-24.11C176.256,184.041,186.426,176.281,201.566,174.821z"/>
			<g>
				<g>
					<g>
						<path class="st3" d="M219.515,154.478c-3.03,10.753-6.037,21.41-9.032,32.067c-5.466,19.455-10.952,38.902-16.366,58.373
							c-1.279,4.603-3.106,9.073-8.823,7.536c-5.452-1.467-5.505-5.764-4.08-10.748c8.373-29.276,16.537-58.614,24.701-87.949
							c1.216-4.371,2.982-8.18,8.312-7.261C218.417,147.217,220.012,150.383,219.515,154.478z"/>
						<path class="st3" d="M173.4,229.604c0.101,2.816-1.326,4.808-3.665,6.039c-2.407,1.268-4.913,1.035-6.974-0.799
							c-11.387-10.113-22.793-20.207-34.033-30.481c-2.869-2.623-2.942-6.2-0.09-8.862c11.13-10.391,22.397-20.643,33.749-30.795
							c2.885-2.578,6.227-2.278,8.885,0.61c3.04,3.303,2.304,6.699-0.699,9.526c-7.461,7.025-14.922,14.058-22.661,20.768
							c-3.682,3.194-3.624,5.315,0.068,8.422c7.199,6.064,14.091,12.493,21.066,18.818
							C171.076,224.693,173.349,226.451,173.4,229.604z"/>
						<path class="st3" d="M233.091,236.017c-2.805-0.071-4.721-1.598-5.793-4.022c-1.448-3.274-0.052-5.873,2.395-8.11
							c6.948-6.358,13.598-13.084,20.909-18.988c5.505-4.447,4.639-7.304-0.309-11.334c-7.077-5.768-13.661-12.143-20.456-18.253
							c-3.243-2.918-4.975-6.314-1.692-10.079c3.57-4.09,7.229-2.703,10.785,0.501c9.885,8.892,19.777,17.776,29.821,26.487
							c5.327,4.62,5.887,8.863,0.369,13.758c-10.153,9.006-20.14,18.2-30.196,27.318
							C237.258,234.805,235.548,236.206,233.091,236.017z"/>
					</g>
				</g>
			</g>
		</g>
	</g>
</g>
<g>
</g>
<g>
</g>
<g>
</g>
<g>
</g>
<g>
</g>
<g>
</g>
<g>
</g>
<g>
</g>
<g>
</g>
<g>
</g>
<g>
</g>
<g>
</g>
<g>
</g>
<g>
</g>
<g>
</g>
</svg>
