<?xml version="1.0" encoding="utf-8"?>
<!-- Generator: Adobe Illustrator 26.0.1, SVG Export Plug-In . SVG Version: 6.00 Build 0)  -->
<svg version="1.1" id="Calque_1" xmlns="http://www.w3.org/2000/svg" xmlns:xlink="http://www.w3.org/1999/xlink" x="0px" y="0px"
	 viewBox="0 0 400 400" style="enable-background:new 0 0 400 400;" xml:space="preserve">
<style type="text/css">
	.st0{fill:#E07E64;}
	.st1{fill:#FDF8F7;}
	.st2{fill:#FCF6F4;}
	.st3{fill:#DF7A5F;}
</style>
<g>
	<g>
		<g>
			<path class="st0" d="M56.728,174.678c-8.024-4.837-16.124-8.947-11.907-21.493c4.303-12.805,13.47-13.928,24.478-13.897
				c22.498,0.05,26.774-12.374,19.407-30.786c-3.917-9.802-9.873-18.359,1.205-27.623c10.356-8.659,18.51-3.259,28.233,1.361
				c18.506,8.79,30.035,3.235,31.529-18.462c0.643-9.282,0.351-19.155,12.809-21.748c12.295-2.564,18.702,3.398,24.652,13.547
				c12.293,20.983,26.1,16.859,38.408-0.293c5.697-7.938,10.027-15.421,22.044-10.848c10.733,4.075,13.377,11.618,13.174,21.884
				c-0.542,26.868,13.328,29.63,34.239,20.03c7.737-3.551,15.02-6.664,22.551,1.177c7.688,7.995,8.301,15.969,2.918,25.255
				c-13.153,22.684-7.392,35.416,19.654,36.502c9.079,0.367,16.311,2.961,18.009,13.301c1.734,10.525-2.028,17.356-11.73,22.656
				c-22.518,12.289-19.956,26.43-1.121,40.206c6.671,4.882,14.198,7.953,10.947,19.217c-3.631,12.588-11.756,15.721-23.33,15.466
				c-24.307-0.523-28.765,12.071-20.276,32.157c3.672,8.704,8.606,16.546-0.723,25.163c-9.68,8.945-18.034,5.646-28.077,0.449
				c-20.168-10.44-31.761-3.854-32.923,19.284c-0.499,9.832-1.92,18.718-14.27,20.445c-10.843,1.525-17.008-3.268-22.281-12.544
				c-13.059-22.949-27.192-18.206-40.183,0.267c-5.018,7.141-8.904,13.458-19.601,9.992c-10.676-3.458-14.832-10.07-14.572-20.759
				c0.686-28.37-13.348-31.909-35.752-20.861c-8.099,3.998-15.333,4.891-22.202-3.047c-6.366-7.34-7.299-14.66-2.504-22.7
				c14.483-24.293,7.853-37.048-20.544-38.16c-7.906-0.311-14.195-2.788-16.046-11.563c-2.143-10.157-0.184-18.027,10.005-23.318
				C74.484,203.748,76.021,190.118,56.728,174.678z"/>
			<path class="st1" d="M300.076,198.691c0.49,55.42-44.98,101.05-100.37,100.74c-54.01-0.3-98.69-44.85-99.16-98.84
				c-0.48-55.59,44.71-100.95,100.3-100.67C254.876,100.181,299.596,144.711,300.076,198.691z"/>
			<path class="st2" d="M201.566,174.821c13.89,2.81,23.26,10.52,22.99,24.77c-0.29,15.63-10.01,25.07-25.68,24.3
				c-13.94-0.68-23.04-9.88-22.84-24.11C176.256,184.041,186.426,176.281,201.566,174.821z"/>
			<g>
				<g>
					<g>
						<path class="st3" d="M219.515,154.478c-3.03,10.753-6.037,21.41-9.032,32.067c-5.466,19.455-10.952,38.902-16.366,58.373
							c-1.279,4.603-3.106,9.073-8.823,7.536c-5.452-1.467-5.505-5.764-4.08-10.748c8.373-29.276,16.537-58.614,24.701-87.949
							c1.216-4.371,2.982-8.18,8.312-7.261C218.417,147.217,220.012,150.383,219.515,154.478z"/>
						<path class="st3" d="M173.4,229.604c0.101,2.816-1.326,4.808-3.665,6.039c-2.407,1.268-4.913,1.035-6.974-0.799
							c-11.387-10.113-22.793-20.207-34.033-30.481c-2.869-2.623-2.942-6.2-0.09-8.862c11.13-10.391,22.397-20.643,33.749-30.795
							c2.885-2.578,6.227-2.278,8.885,0.61c3.04,3.303,2.304,6.699-0.699,9.526c-7.461,7.025-14.922,14.058-22.661,20.768
							c-3.682,3.194-3.624,5.315,0.068,8.422c7.199,6.064,14.091,12.493,21.066,18.818
							C171.076,224.693,173.349,226.451,173.4,229.604z"/>
						<path class="st3" d="M233.091,236.017c-2.805-0.071-4.721-1.598-5.793-4.022c-1.448-3.274-0.052-5.873,2.395-8.11
							c6.948-6.358,13.598-13.084,20.909-18.988c5.505-4.447,4.639-7.304-0.309-11.334c-7.077-5.768-13.661-12.143-20.456-18.253
							c-3.243-2.918-4.975-6.314-1.692-10.079c3.57-4.09,7.229-2.703,10.785,0.501c9.885,8.892,19.777,17.776,29.821,26.487
							c5.327,4.62,5.887,8.863,0.369,13.758c-10.153,9.006-20.14,18.2-30.196,27.318
							C237.258,234.805,235.548,236.206,233.091,236.017z"/>
					</g>
				</g>
			</g>
		</g>
	</g>
</g>
<g>
</g>
<g>
</g>
<g>
</g>
<g>
</g>
<g>
</g>
<g>
</g>
<g>
</g>
<g>
</g>
<g>
</g>
<g>
</g>
<g>
</g>
<g>
</g>
<g>
</g>
<g>
</g>
<g>
</g>
</svg>
