<?xml version="1.0" encoding="utf-8"?>
<!-- Generator: Adobe Illustrator 26.0.1, SVG Export Plug-In . SVG Version: 6.00 Build 0)  -->
<svg version="1.1" id="Calque_1" xmlns="http://www.w3.org/2000/svg" xmlns:xlink="http://www.w3.org/1999/xlink" x="0px" y="0px"
	 viewBox="0 0 400 400" style="enable-background:new 0 0 400 400;" xml:space="preserve">
<style type="text/css">
	.st0{fill:#E07E64;}
	.st1{fill:#FDF8F7;}
	.st2{fill:#FCF6F4;}
	.st3{fill:#DF7A5F;}
</style>
<g>
	<g>
		<g>
			<path class="st0" d="M70.618,266.121c-9.319,0.966-18.262,2.558-22.445-9.999c-4.269-12.816,2.375-19.23,11.185-25.83
				c17.998-13.5,13.936-25.995-3.028-36.267c-9.027-5.471-18.933-8.72-15.661-22.786c3.06-13.148,12.821-13.742,23.367-15.904
				c20.07-4.117,25.934-15.492,14.069-33.719c-5.073-7.799-11.248-15.509-2.859-25.077c8.276-9.446,16.981-8.541,27.84-4.017
				c22.446,9.36,30.99-2.243,30.498-23.349c-0.227-9.768-1.273-18.35,11.076-21.93c11.024-3.204,17.675,1.228,23.692,9.549
				c15.736,21.784,28.476,15.642,39.399-4.608c4.042-7.492,7.985-14.362,18.718-12.632c10.951,1.758,16.24,7.758,17.529,18.414
				c3.147,26.032,15.41,32.733,37.664,17.323c7.471-5.171,14.809-7.452,22.388-0.216c7.719,7.362,8.825,15.082,4.267,25.153
				c-10.588,23.366-0.031,33.118,23.301,32.784c8.266-0.116,16.126-2.193,20.307,8.759c4.676,12.238,0.072,19.631-9.325,26.392
				c-19.727,14.21-15.709,26.952,3.16,37.884c8.171,4.741,16.83,8.035,14.566,20.531c-2.348,12.969-11.005,15.362-22.153,17.255
				c-22.39,3.8-27.685,16.036-14.688,35.214c5.518,8.152,9.731,16.104,0.907,24.916c-7.742,7.743-15.55,7.626-25.344,3.391
				c-24.24-10.468-32.673,1.824-31.931,24.396c0.29,8.723,0.988,16.106-9.641,19.776c-10.607,3.664-17.906,0.884-24.131-7.809
				c-16.525-23.07-29.863-17.451-41.108,4.855c-4.063,8.067-9.302,13.134-19.565,10.929c-9.502-2.031-14.652-7.315-15.662-16.622
				c-3.054-28.117-16.025-34.314-39.373-18.112c-6.502,4.509-13.014,6.316-19.774,0.423c-7.824-6.822-10.996-14.287-6.042-24.644
				C102.293,278.652,95.318,266.841,70.618,266.121z"/>
			<path class="st1" d="M300.076,198.691c0.49,55.42-44.98,101.05-100.37,100.74c-54.01-0.3-98.69-44.85-99.16-98.84
				c-0.48-55.59,44.71-100.95,100.3-100.67C254.876,100.181,299.596,144.711,300.076,198.691z"/>
			<path class="st2" d="M201.566,174.821c13.89,2.81,23.26,10.52,22.99,24.77c-0.29,15.63-10.01,25.07-25.68,24.3
				c-13.94-0.68-23.04-9.88-22.84-24.11C176.256,184.041,186.426,176.281,201.566,174.821z"/>
			<g>
				<g>
					<g>
						<path class="st3" d="M219.515,154.478c-3.03,10.753-6.037,21.41-9.032,32.067c-5.466,19.455-10.952,38.902-16.366,58.373
							c-1.279,4.603-3.106,9.073-8.823,7.536c-5.452-1.467-5.505-5.764-4.08-10.748c8.373-29.276,16.537-58.614,24.701-87.949
							c1.216-4.371,2.982-8.18,8.312-7.261C218.417,147.217,220.012,150.383,219.515,154.478z"/>
						<path class="st3" d="M173.4,229.604c0.101,2.816-1.326,4.808-3.665,6.039c-2.407,1.268-4.913,1.035-6.974-0.799
							c-11.387-10.113-22.793-20.207-34.033-30.481c-2.869-2.623-2.942-6.2-0.09-8.862c11.13-10.391,22.397-20.643,33.749-30.795
							c2.885-2.578,6.227-2.278,8.885,0.61c3.04,3.303,2.304,6.699-0.699,9.526c-7.461,7.025-14.922,14.058-22.661,20.768
							c-3.682,3.194-3.624,5.315,0.068,8.422c7.199,6.064,14.091,12.493,21.066,18.818
							C171.076,224.693,173.349,226.451,173.4,229.604z"/>
						<path class="st3" d="M233.091,236.017c-2.805-0.071-4.721-1.598-5.793-4.022c-1.448-3.274-0.052-5.873,2.395-8.11
							c6.948-6.358,13.598-13.084,20.909-18.988c5.505-4.447,4.639-7.304-0.309-11.334c-7.077-5.768-13.661-12.143-20.456-18.253
							c-3.243-2.918-4.975-6.314-1.692-10.079c3.57-4.09,7.229-2.703,10.785,0.501c9.885,8.892,19.777,17.776,29.821,26.487
							c5.327,4.62,5.887,8.863,0.369,13.758c-10.153,9.006-20.14,18.2-30.196,27.318
							C237.258,234.805,235.548,236.206,233.091,236.017z"/>
					</g>
				</g>
			</g>
		</g>
	</g>
</g>
<g>
</g>
<g>
</g>
<g>
</g>
<g>
</g>
<g>
</g>
<g>
</g>
<g>
</g>
<g>
</g>
<g>
</g>
<g>
</g>
<g>
</g>
<g>
</g>
<g>
</g>
<g>
</g>
<g>
</g>
</svg>
