<?xml version="1.0" encoding="utf-8"?>
<!-- Generator: Adobe Illustrator 26.0.1, SVG Export Plug-In . SVG Version: 6.00 Build 0)  -->
<svg version="1.1" id="Calque_1" xmlns="http://www.w3.org/2000/svg" xmlns:xlink="http://www.w3.org/1999/xlink" x="0px" y="0px"
	 viewBox="0 0 400 400" style="enable-background:new 0 0 400 400;" xml:space="preserve">
<style type="text/css">
	.st0{fill:#E07E64;}
	.st1{fill:#FDF8F7;}
	.st2{fill:#FCF6F4;}
	.st3{fill:#DF7A5F;}
</style>
<g>
	<g>
		<g>
			<path class="st0" d="M282.125,320.311c2.095,9.132,4.764,17.814-7.19,23.496c-12.2,5.799-19.376-0.014-27.001-7.954
				c-15.593-16.218-27.5-10.664-35.627,7.426c-4.33,9.627-6.348,19.855-20.707,18.321c-13.423-1.435-15.202-11.051-18.633-21.254
				c-6.533-19.418-18.537-23.853-35.182-9.855c-7.123,5.985-14.022,13.054-24.542,5.894c-10.385-7.063-10.547-15.814-7.38-27.143
				c6.555-23.419-6.003-30.486-26.892-27.425c-9.667,1.416-18.058,3.5-23.116-8.321c-4.524-10.551-0.935-17.693,6.591-24.679
				c19.703-18.274,12.056-30.17-9.376-38.544c-7.929-3.099-15.228-6.175-14.819-17.039c0.411-11.084,5.721-17.064,16.14-19.642
				c25.454-6.296,30.611-19.284,12.604-39.494c-6.043-6.786-9.201-13.79-2.942-22.194c6.367-8.559,13.894-10.597,24.446-7.301
				c24.483,7.662,32.875-4.005,29.7-27.123c-1.123-8.19-4.142-15.738,6.219-21.224c11.577-6.133,19.476-2.464,27.331,6.039
				c16.509,17.848,28.665,12.307,37.217-7.753c3.71-8.688,5.924-17.684,18.603-16.96c13.159,0.75,16.589,9.051,19.826,19.885
				c6.5,21.76,19.291,25.525,36.742,10.287c7.419-6.471,14.798-11.621,24.62-3.937c8.629,6.741,9.464,14.505,6.454,24.742
				c-7.436,25.336,5.792,32.207,28.105,28.72c8.623-1.351,15.866-2.944,20.804,7.159c4.929,10.082,3.06,17.664-4.81,24.902
				c-20.884,19.213-13.681,31.768,9.829,40.21c8.502,3.049,14.17,7.632,13.232,18.087c-0.858,9.678-5.475,15.435-14.59,17.571
				c-27.536,6.458-32.105,20.087-13.179,41.287c5.268,5.904,7.855,12.148,2.829,19.575c-5.818,8.597-12.84,12.655-23.724,9.001
				C290.702,287.344,279.829,295.707,282.125,320.311z"/>
			<path class="st1" d="M300.076,198.691c0.49,55.42-44.98,101.05-100.37,100.74c-54.01-0.3-98.69-44.85-99.16-98.84
				c-0.48-55.59,44.71-100.95,100.3-100.67C254.876,100.181,299.596,144.711,300.076,198.691z"/>
			<path class="st2" d="M201.566,174.821c13.89,2.81,23.26,10.52,22.99,24.77c-0.29,15.63-10.01,25.07-25.68,24.3
				c-13.94-0.68-23.04-9.88-22.84-24.11C176.256,184.041,186.426,176.281,201.566,174.821z"/>
			<g>
				<g>
					<g>
						<path class="st3" d="M219.515,154.478c-3.03,10.753-6.037,21.41-9.032,32.067c-5.466,19.455-10.952,38.902-16.366,58.373
							c-1.279,4.603-3.106,9.073-8.823,7.536c-5.452-1.467-5.505-5.764-4.08-10.748c8.373-29.276,16.537-58.614,24.701-87.949
							c1.216-4.371,2.982-8.18,8.312-7.261C218.417,147.217,220.012,150.383,219.515,154.478z"/>
						<path class="st3" d="M173.4,229.604c0.101,2.816-1.326,4.808-3.665,6.039c-2.407,1.268-4.913,1.035-6.974-0.799
							c-11.387-10.113-22.793-20.207-34.033-30.481c-2.869-2.623-2.942-6.2-0.09-8.862c11.13-10.391,22.397-20.643,33.749-30.795
							c2.885-2.578,6.227-2.278,8.885,0.61c3.04,3.303,2.304,6.699-0.699,9.526c-7.461,7.025-14.922,14.058-22.661,20.768
							c-3.682,3.194-3.624,5.315,0.068,8.422c7.199,6.064,14.091,12.493,21.066,18.818
							C171.076,224.693,173.349,226.451,173.4,229.604z"/>
						<path class="st3" d="M233.091,236.017c-2.805-0.071-4.721-1.598-5.793-4.022c-1.448-3.274-0.052-5.873,2.395-8.11
							c6.948-6.358,13.598-13.084,20.909-18.988c5.505-4.447,4.639-7.304-0.309-11.334c-7.077-5.768-13.661-12.143-20.456-18.253
							c-3.243-2.918-4.975-6.314-1.692-10.079c3.57-4.09,7.229-2.703,10.785,0.501c9.885,8.892,19.777,17.776,29.821,26.487
							c5.327,4.62,5.887,8.863,0.369,13.758c-10.153,9.006-20.14,18.2-30.196,27.318
							C237.258,234.805,235.548,236.206,233.091,236.017z"/>
					</g>
				</g>
			</g>
		</g>
	</g>
</g>
<g>
</g>
<g>
</g>
<g>
</g>
<g>
</g>
<g>
</g>
<g>
</g>
<g>
</g>
<g>
</g>
<g>
</g>
<g>
</g>
<g>
</g>
<g>
</g>
<g>
</g>
<g>
</g>
<g>
</g>
</svg>
