<?xml version="1.0" encoding="utf-8"?>
<!-- Generator: Adobe Illustrator 26.0.1, SVG Export Plug-In . SVG Version: 6.00 Build 0)  -->
<svg version="1.1" id="Calque_1" xmlns="http://www.w3.org/2000/svg" xmlns:xlink="http://www.w3.org/1999/xlink" x="0px" y="0px"
	 viewBox="0 0 400 400" style="enable-background:new 0 0 400 400;" xml:space="preserve">
<style type="text/css">
	.st0{fill:#E07E64;}
	.st1{fill:#FDF8F7;}
	.st2{fill:#FCF6F4;}
	.st3{fill:#DF7A5F;}
</style>
<g>
	<g>
		<g>
			<path class="st0" d="M187.978,344.899c-4.119,8.415-7.508,16.842-20.374,13.735c-13.131-3.171-15.049-12.205-15.978-23.174
				c-1.911-22.417-14.66-25.593-32.361-16.65c-9.423,4.756-17.428,11.435-27.623,1.207c-9.529-9.562-4.86-18.155-1.105-28.244
				c7.144-19.202,0.605-30.203-21.14-29.8c-9.302,0.169-19.113,1.32-22.782-10.865c-3.625-12.024,1.755-18.927,11.347-25.738
				c19.832-14.075,14.52-27.47-3.64-38.237c-8.404-4.983-16.236-8.644-12.728-21.014c3.124-11.047,10.408-14.339,20.653-15.031
				c26.813-1.802,28.356-15.86,16.97-35.854c-4.211-7.398-7.948-14.382-0.793-22.567c7.294-8.355,15.185-9.661,24.904-5.108
				c23.744,11.126,35.925,4.277,34.65-22.761c-0.426-9.076,1.528-16.507,11.681-19.1c10.334-2.645,17.467,0.508,23.592,9.71
				c14.205,21.362,28.069,17.576,40.15-2.387c4.281-7.071,6.686-14.838,18.19-12.58c12.856,2.52,16.686,10.341,17.44,21.893
				c1.597,24.26,14.532,27.604,33.802,17.396c8.35-4.417,15.733-10.015,25.13-1.473c9.754,8.864,7.196,17.473,2.894,27.931
				c-8.642,21.001-1.072,31.976,22.08,31.117c9.838-0.36,18.814,0.281,21.611,12.434c2.464,10.669-1.774,17.228-10.555,23.29
				c-21.723,15.01-15.767,28.675,3.768,40.007c7.551,4.377,14.183,7.697,11.663,18.656c-2.514,10.937-8.739,15.653-19.41,16.326
				c-28.321,1.789-30.624,16.078-17.666,37.434c4.688,7.72,6.209,14.849-1.1,22.383c-6.757,6.982-13.968,8.549-22.396,4.473
				c-25.463-12.31-37.592-4.594-36.225,23.792c0.379,7.904-1.54,14.384-10.12,16.993c-9.932,3.02-17.943,1.755-24.101-7.935
				C215.39,324.677,201.677,324.334,187.978,344.899z"/>
			<path class="st1" d="M300.076,198.691c0.49,55.42-44.98,101.05-100.37,100.74c-54.01-0.3-98.69-44.85-99.16-98.84
				c-0.48-55.59,44.71-100.95,100.3-100.67C254.876,100.181,299.596,144.711,300.076,198.691z"/>
			<path class="st2" d="M201.566,174.821c13.89,2.81,23.26,10.52,22.99,24.77c-0.29,15.63-10.01,25.07-25.68,24.3
				c-13.94-0.68-23.04-9.88-22.84-24.11C176.256,184.041,186.426,176.281,201.566,174.821z"/>
			<g>
				<g>
					<g>
						<path class="st3" d="M219.515,154.478c-3.03,10.753-6.037,21.41-9.032,32.067c-5.466,19.455-10.952,38.902-16.366,58.373
							c-1.279,4.603-3.106,9.073-8.823,7.536c-5.452-1.467-5.505-5.764-4.08-10.748c8.373-29.276,16.537-58.614,24.701-87.949
							c1.216-4.371,2.982-8.18,8.312-7.261C218.417,147.217,220.012,150.383,219.515,154.478z"/>
						<path class="st3" d="M173.4,229.604c0.101,2.816-1.326,4.808-3.665,6.039c-2.407,1.268-4.913,1.035-6.974-0.799
							c-11.387-10.113-22.793-20.207-34.033-30.481c-2.869-2.623-2.942-6.2-0.09-8.862c11.13-10.391,22.397-20.643,33.749-30.795
							c2.885-2.578,6.227-2.278,8.885,0.61c3.04,3.303,2.304,6.699-0.699,9.526c-7.461,7.025-14.922,14.058-22.661,20.768
							c-3.682,3.194-3.624,5.315,0.068,8.422c7.199,6.064,14.091,12.493,21.066,18.818
							C171.076,224.693,173.349,226.451,173.4,229.604z"/>
						<path class="st3" d="M233.091,236.017c-2.805-0.071-4.721-1.598-5.793-4.022c-1.448-3.274-0.052-5.873,2.395-8.11
							c6.948-6.358,13.598-13.084,20.909-18.988c5.505-4.447,4.639-7.304-0.309-11.334c-7.077-5.768-13.661-12.143-20.456-18.253
							c-3.243-2.918-4.975-6.314-1.692-10.079c3.57-4.09,7.229-2.703,10.785,0.501c9.885,8.892,19.777,17.776,29.821,26.487
							c5.327,4.62,5.887,8.863,0.369,13.758c-10.153,9.006-20.14,18.2-30.196,27.318
							C237.258,234.805,235.548,236.206,233.091,236.017z"/>
					</g>
				</g>
			</g>
		</g>
	</g>
</g>
<g>
</g>
<g>
</g>
<g>
</g>
<g>
</g>
<g>
</g>
<g>
</g>
<g>
</g>
<g>
</g>
<g>
</g>
<g>
</g>
<g>
</g>
<g>
</g>
<g>
</g>
<g>
</g>
<g>
</g>
</svg>
