<?xml version="1.0" encoding="utf-8"?>
<!-- Generator: Adobe Illustrator 26.0.1, SVG Export Plug-In . SVG Version: 6.00 Build 0)  -->
<svg version="1.1" id="Calque_1" xmlns="http://www.w3.org/2000/svg" xmlns:xlink="http://www.w3.org/1999/xlink" x="0px" y="0px"
	 viewBox="0 0 400 400" style="enable-background:new 0 0 400 400;" xml:space="preserve">
<style type="text/css">
	.st0{fill:#E07E64;}
	.st1{fill:#FDF8F7;}
	.st2{fill:#FCF6F4;}
	.st3{fill:#DF7A5F;}
</style>
<g>
	<g>
		<g>
			<path class="st0" d="M225.318,56.039c4.837-8.024,8.947-16.124,21.493-11.907c12.805,4.303,13.928,13.47,13.897,24.478
				c-0.05,22.498,12.374,26.774,30.786,19.407c9.802-3.917,18.359-9.873,27.623,1.205c8.659,10.357,3.259,18.51-1.361,28.233
				c-8.79,18.506-3.235,30.035,18.462,31.529c9.282,0.643,19.155,0.351,21.748,12.809c2.564,12.295-3.398,18.702-13.547,24.652
				c-20.983,12.293-16.859,26.1,0.293,38.408c7.938,5.697,15.421,10.027,10.848,22.044c-4.075,10.733-11.618,13.377-21.884,13.174
				c-26.867-0.542-29.63,13.328-20.03,34.239c3.551,7.737,6.664,15.02-1.177,22.551c-7.995,7.688-15.969,8.301-25.255,2.918
				c-22.684-13.153-35.416-7.392-36.502,19.654c-0.367,9.079-2.961,16.311-13.301,18.009c-10.525,1.734-17.356-2.028-22.656-11.73
				c-12.289-22.518-26.43-19.956-40.206-1.121c-4.882,6.671-7.953,14.198-19.217,10.947c-12.588-3.631-15.721-11.756-15.466-23.33
				c0.523-24.307-12.071-28.765-32.157-20.276c-8.704,3.672-16.546,8.606-25.163-0.723c-8.945-9.68-5.646-18.034-0.449-28.077
				c10.44-20.168,3.854-31.761-19.284-32.923c-9.832-0.499-18.718-1.92-20.445-14.27c-1.525-10.843,3.268-17.008,12.544-22.281
				c22.949-13.059,18.206-27.192-0.267-40.183c-7.141-5.018-13.458-8.904-9.992-19.601c3.458-10.676,10.07-14.832,20.759-14.572
				c28.37,0.686,31.909-13.348,20.861-35.752c-3.998-8.099-4.891-15.333,3.047-22.202c7.34-6.366,14.66-7.299,22.7-2.504
				c24.293,14.483,37.048,7.853,38.16-20.544c0.311-7.906,2.788-14.195,11.563-16.046c10.157-2.143,18.027-0.184,23.318,10.005
				C196.248,73.795,209.878,75.333,225.318,56.039z"/>
			<path class="st1" d="M300.076,198.691c0.49,55.42-44.98,101.05-100.37,100.74c-54.01-0.3-98.69-44.85-99.16-98.84
				c-0.48-55.59,44.71-100.95,100.3-100.67C254.876,100.181,299.596,144.711,300.076,198.691z"/>
			<path class="st2" d="M201.566,174.821c13.89,2.81,23.26,10.52,22.99,24.77c-0.29,15.63-10.01,25.07-25.68,24.3
				c-13.94-0.68-23.04-9.88-22.84-24.11C176.256,184.041,186.426,176.281,201.566,174.821z"/>
			<g>
				<g>
					<g>
						<path class="st3" d="M219.515,154.478c-3.03,10.753-6.037,21.41-9.032,32.067c-5.466,19.455-10.952,38.902-16.366,58.373
							c-1.279,4.603-3.106,9.073-8.823,7.536c-5.452-1.467-5.505-5.764-4.08-10.748c8.373-29.276,16.537-58.614,24.701-87.949
							c1.216-4.371,2.982-8.18,8.312-7.261C218.417,147.217,220.012,150.383,219.515,154.478z"/>
						<path class="st3" d="M173.4,229.604c0.101,2.816-1.326,4.808-3.665,6.039c-2.407,1.268-4.913,1.035-6.974-0.799
							c-11.387-10.113-22.793-20.207-34.033-30.481c-2.869-2.623-2.942-6.2-0.09-8.862c11.13-10.391,22.397-20.643,33.749-30.795
							c2.885-2.578,6.227-2.278,8.885,0.61c3.04,3.303,2.304,6.699-0.699,9.526c-7.461,7.025-14.922,14.058-22.661,20.768
							c-3.682,3.194-3.624,5.315,0.068,8.422c7.199,6.064,14.091,12.493,21.066,18.818
							C171.076,224.693,173.349,226.451,173.4,229.604z"/>
						<path class="st3" d="M233.091,236.017c-2.805-0.071-4.721-1.598-5.793-4.022c-1.448-3.274-0.052-5.873,2.395-8.11
							c6.948-6.358,13.598-13.084,20.909-18.988c5.505-4.447,4.639-7.304-0.309-11.334c-7.077-5.768-13.661-12.143-20.456-18.253
							c-3.243-2.918-4.975-6.314-1.692-10.079c3.57-4.09,7.229-2.703,10.785,0.501c9.885,8.892,19.777,17.776,29.821,26.487
							c5.327,4.62,5.887,8.863,0.369,13.758c-10.153,9.006-20.14,18.2-30.196,27.318
							C237.258,234.805,235.548,236.206,233.091,236.017z"/>
					</g>
				</g>
			</g>
		</g>
	</g>
</g>
<g>
</g>
<g>
</g>
<g>
</g>
<g>
</g>
<g>
</g>
<g>
</g>
<g>
</g>
<g>
</g>
<g>
</g>
<g>
</g>
<g>
</g>
<g>
</g>
<g>
</g>
<g>
</g>
<g>
</g>
</svg>
