<?xml version="1.0" encoding="utf-8"?>
<!-- Generator: Adobe Illustrator 26.0.1, SVG Export Plug-In . SVG Version: 6.00 Build 0)  -->
<svg version="1.1" id="Calque_1" xmlns="http://www.w3.org/2000/svg" xmlns:xlink="http://www.w3.org/1999/xlink" x="0px" y="0px"
	 viewBox="0 0 400 400" style="enable-background:new 0 0 400 400;" xml:space="preserve">
<style type="text/css">
	.st0{fill:#E07E64;}
	.st1{fill:#FDF8F7;}
	.st2{fill:#FCF6F4;}
	.st3{fill:#DF7A5F;}
</style>
<g>
	<g>
		<g>
			<path class="st0" d="M346.036,204.4c8.619,3.673,17.212,6.616,14.783,19.627c-2.479,13.279-11.4,15.667-22.306,17.169
				c-22.286,3.082-24.791,15.98-14.934,33.188c5.243,9.161,12.332,16.806,2.651,27.522c-9.051,10.017-17.876,5.804-28.147,2.582
				c-19.55-6.129-30.193,0.976-28.652,22.671c0.656,9.281,2.319,19.017-9.657,23.319c-11.818,4.25-18.993-0.762-26.297-9.984
				c-15.094-19.068-28.192-13.063-37.994,5.636c-4.537,8.653-7.783,16.666-20.319,13.81c-11.195-2.542-14.864-9.643-16.092-19.838
				c-3.202-26.681-17.322-27.487-36.693-15.07c-7.168,4.593-13.947,8.69-22.495,1.973c-8.726-6.847-10.442-14.658-6.404-24.603
				c9.868-24.294,2.391-36.1-24.543-33.411c-9.042,0.901-16.565-0.662-19.685-10.665c-3.182-10.181-0.407-17.469,8.462-24.068
				c20.589-15.303,16.083-28.95-4.485-39.97c-7.286-3.906-15.167-5.9-13.515-17.506c1.843-12.97,9.454-17.204,20.95-18.562
				c24.143-2.865,26.806-15.957,15.603-34.666c-4.848-8.108-10.825-15.187-2.786-25.019c8.341-10.205,17.073-8.101,27.741-4.352
				c21.425,7.532,31.989-0.603,29.919-23.678c-0.874-9.805-0.704-18.803,11.286-22.232c10.525-3.019,17.298,0.87,23.81,9.321
				c16.126,20.908,29.461,14.245,39.755-5.856c3.976-7.77,6.944-14.566,18.02-12.623c11.054,1.938,16.089,7.907,17.319,18.529
				c3.269,28.189,17.659,29.741,38.308,15.683c7.464-5.086,14.503-6.978,22.41-0.073c7.326,6.383,9.269,13.502,5.639,22.131
				c-10.961,26.073-2.62,37.781,25.655,34.93c7.873-0.792,14.445,0.785,17.5,9.217c3.536,9.76,2.691,17.826-6.663,24.483
				C324.407,178.084,324.782,191.795,346.036,204.4z"/>
			<path class="st1" d="M300.076,198.691c0.49,55.42-44.98,101.05-100.37,100.74c-54.01-0.3-98.69-44.85-99.16-98.84
				c-0.48-55.59,44.71-100.95,100.3-100.67C254.876,100.181,299.596,144.711,300.076,198.691z"/>
			<path class="st2" d="M201.566,174.821c13.89,2.81,23.26,10.52,22.99,24.77c-0.29,15.63-10.01,25.07-25.68,24.3
				c-13.94-0.68-23.04-9.88-22.84-24.11C176.256,184.041,186.426,176.281,201.566,174.821z"/>
			<g>
				<g>
					<g>
						<path class="st3" d="M219.515,154.478c-3.03,10.753-6.037,21.41-9.032,32.067c-5.466,19.455-10.952,38.902-16.366,58.373
							c-1.279,4.603-3.106,9.073-8.823,7.536c-5.452-1.467-5.505-5.764-4.08-10.748c8.373-29.276,16.537-58.614,24.701-87.949
							c1.216-4.371,2.982-8.18,8.312-7.261C218.417,147.217,220.012,150.383,219.515,154.478z"/>
						<path class="st3" d="M173.4,229.604c0.101,2.816-1.326,4.808-3.665,6.039c-2.407,1.268-4.913,1.035-6.974-0.799
							c-11.387-10.113-22.793-20.207-34.033-30.481c-2.869-2.623-2.942-6.2-0.09-8.862c11.13-10.391,22.397-20.643,33.749-30.795
							c2.885-2.578,6.227-2.278,8.885,0.61c3.04,3.303,2.304,6.699-0.699,9.526c-7.461,7.025-14.922,14.058-22.661,20.768
							c-3.682,3.194-3.624,5.315,0.068,8.422c7.199,6.064,14.091,12.493,21.066,18.818
							C171.076,224.693,173.349,226.451,173.4,229.604z"/>
						<path class="st3" d="M233.091,236.017c-2.805-0.071-4.721-1.598-5.793-4.022c-1.448-3.274-0.052-5.873,2.395-8.11
							c6.948-6.358,13.598-13.084,20.909-18.988c5.505-4.447,4.639-7.304-0.309-11.334c-7.077-5.768-13.661-12.143-20.456-18.253
							c-3.243-2.918-4.975-6.314-1.692-10.079c3.57-4.09,7.229-2.703,10.785,0.501c9.885,8.892,19.777,17.776,29.821,26.487
							c5.327,4.62,5.887,8.863,0.369,13.758c-10.153,9.006-20.14,18.2-30.196,27.318
							C237.258,234.805,235.548,236.206,233.091,236.017z"/>
					</g>
				</g>
			</g>
		</g>
	</g>
</g>
<g>
</g>
<g>
</g>
<g>
</g>
<g>
</g>
<g>
</g>
<g>
</g>
<g>
</g>
<g>
</g>
<g>
</g>
<g>
</g>
<g>
</g>
<g>
</g>
<g>
</g>
<g>
</g>
<g>
</g>
</svg>
