<?xml version="1.0" encoding="utf-8"?>
<!-- Generator: Adobe Illustrator 26.0.1, SVG Export Plug-In . SVG Version: 6.00 Build 0)  -->
<svg version="1.1" id="Calque_1" xmlns="http://www.w3.org/2000/svg" xmlns:xlink="http://www.w3.org/1999/xlink" x="0px" y="0px"
	 viewBox="0 0 400 400" style="enable-background:new 0 0 400 400;" xml:space="preserve">
<style type="text/css">
	.st0{fill:#E07E64;}
	.st1{fill:#FDF8F7;}
	.st2{fill:#FCF6F4;}
	.st3{fill:#DF7A5F;}
</style>
<g>
	<g>
		<g>
			<path class="st0" d="M97.504,302.957c-8.565,3.799-16.577,8.076-24.436-2.574c-8.021-10.87-3.683-19.023,2.656-28.022
				c12.945-18.401,5.221-29.029-14.087-33.556c-10.276-2.413-20.701-2.443-21.936-16.831c-1.153-13.45,7.947-17.032,17.308-22.346
				c17.815-10.118,19.878-22.748,2.961-36.416c-7.235-5.85-15.49-11.274-10.468-22.967c4.952-11.541,13.511-13.37,25.237-12.423
				c24.239,1.966,28.78-11.709,21.79-31.63c-3.235-9.22-6.881-17.058,3.758-24.279c9.494-6.454,17.19-4.294,25.483,1.761
				c21.698,15.855,31.916,6.077,36.046-16.558c1.529-8.374,3.156-16.126,13.898-17.797c10.958-1.712,17.842,2.36,22.361,12.096
				c11.038,23.785,24.771,26.369,41.174,4.837c5.508-7.227,11.781-11.663,21.225-7.123c9.616,4.617,13.054,11.616,11.831,22.603
				c-2.85,25.495,10.204,31.506,32.292,23.979c7.825-2.665,14.659-7.069,22.02,2.055c8.229,10.194,6.135,18.648-0.713,27.981
				c-14.371,19.611-6.611,30.487,14.712,35.054c9.236,1.984,18.49,2.44,20.198,15.025c1.775,13.06-5.719,18.011-15.736,23.256
				c-20.12,10.533-21.375,23.807-3.087,38.03c7.767,6.048,14.232,12.309,8.562,23.416c-4.97,9.757-12.433,12.058-23.056,11.056
				c-26.289-2.465-30.51,11.831-22.83,33.069c2.971,8.206,5.917,15.013-3.057,21.788c-8.956,6.762-16.756,6.374-25.363,0.03
				c-22.845-16.834-33.794-7.368-37.595,17.321c-1.371,8.928-4.788,15.366-15.23,16.44c-9.664,1.005-16.196-2.43-20.032-10.969
				c-11.593-25.798-25.844-27.683-43.043-5.059c-4.79,6.298-10.426,10.029-18.675,6.512c-9.549-4.071-14.873-10.189-13.362-21.57
				C131.501,305.086,121.217,296.009,97.504,302.957z"/>
			<path class="st1" d="M300.076,198.691c0.49,55.42-44.98,101.05-100.37,100.74c-54.01-0.3-98.69-44.85-99.16-98.84
				c-0.48-55.59,44.71-100.95,100.3-100.67C254.876,100.181,299.596,144.711,300.076,198.691z"/>
			<path class="st2" d="M201.566,174.821c13.89,2.81,23.26,10.52,22.99,24.77c-0.29,15.63-10.01,25.07-25.68,24.3
				c-13.94-0.68-23.04-9.88-22.84-24.11C176.256,184.041,186.426,176.281,201.566,174.821z"/>
			<g>
				<g>
					<g>
						<path class="st3" d="M219.515,154.478c-3.03,10.753-6.037,21.41-9.032,32.067c-5.466,19.455-10.952,38.902-16.366,58.373
							c-1.279,4.603-3.106,9.073-8.823,7.536c-5.452-1.467-5.505-5.764-4.08-10.748c8.373-29.276,16.537-58.614,24.701-87.949
							c1.216-4.371,2.982-8.18,8.312-7.261C218.417,147.217,220.012,150.383,219.515,154.478z"/>
						<path class="st3" d="M173.4,229.604c0.101,2.816-1.326,4.808-3.665,6.039c-2.407,1.268-4.913,1.035-6.974-0.799
							c-11.387-10.113-22.793-20.207-34.033-30.481c-2.869-2.623-2.942-6.2-0.09-8.862c11.13-10.391,22.397-20.643,33.749-30.795
							c2.885-2.578,6.227-2.278,8.885,0.61c3.04,3.303,2.304,6.699-0.699,9.526c-7.461,7.025-14.922,14.058-22.661,20.768
							c-3.682,3.194-3.624,5.315,0.068,8.422c7.199,6.064,14.091,12.493,21.066,18.818
							C171.076,224.693,173.349,226.451,173.4,229.604z"/>
						<path class="st3" d="M233.091,236.017c-2.805-0.071-4.721-1.598-5.793-4.022c-1.448-3.274-0.052-5.873,2.395-8.11
							c6.948-6.358,13.598-13.084,20.909-18.988c5.505-4.447,4.639-7.304-0.309-11.334c-7.077-5.768-13.661-12.143-20.456-18.253
							c-3.243-2.918-4.975-6.314-1.692-10.079c3.57-4.09,7.229-2.703,10.785,0.501c9.885,8.892,19.777,17.776,29.821,26.487
							c5.327,4.62,5.887,8.863,0.369,13.758c-10.153,9.006-20.14,18.2-30.196,27.318
							C237.258,234.805,235.548,236.206,233.091,236.017z"/>
					</g>
				</g>
			</g>
		</g>
	</g>
</g>
<g>
</g>
<g>
</g>
<g>
</g>
<g>
</g>
<g>
</g>
<g>
</g>
<g>
</g>
<g>
</g>
<g>
</g>
<g>
</g>
<g>
</g>
<g>
</g>
<g>
</g>
<g>
</g>
<g>
</g>
</svg>
