<?xml version="1.0" encoding="utf-8"?>
<!-- Generator: Adobe Illustrator 26.0.1, SVG Export Plug-In . SVG Version: 6.00 Build 0)  -->
<svg version="1.1" id="Calque_1" xmlns="http://www.w3.org/2000/svg" xmlns:xlink="http://www.w3.org/1999/xlink" x="0px" y="0px"
	 viewBox="0 0 400 400" style="enable-background:new 0 0 400 400;" xml:space="preserve">
<style type="text/css">
	.st0{fill:#E07E64;}
	.st1{fill:#FDF8F7;}
	.st2{fill:#FCF6F4;}
	.st3{fill:#DF7A5F;}
</style>
<g>
	<g>
		<g>
			<path class="st0" d="M63.483,249.815c-9.368-0.177-18.437,0.313-21.059-12.66c-2.676-13.241,4.701-18.797,14.25-24.274
				c19.509-11.206,17-24.103,1.414-36.366c-8.293-6.53-17.73-10.963-12.768-24.524c4.639-12.678,14.4-12.077,25.131-12.938
				c20.422-1.641,27.629-12.216,18.073-31.753c-4.084-8.359-9.274-16.764,0.219-25.239c9.366-8.367,17.895-6.408,28.122-0.594
				c21.138,12.026,31.033,1.551,33.116-19.458c0.965-9.723,0.973-18.368,13.666-20.416c11.332-1.837,17.394,3.373,22.351,12.365
				c12.964,23.539,26.358,18.996,39.667,0.227c4.925-6.943,9.676-13.281,20.118-10.256c10.655,3.08,15.173,9.679,15.154,20.413
				c-0.049,26.222,11.306,34.367,35.272,21.784c8.046-4.222,15.607-5.591,22.247,2.514c6.764,8.248,6.921,16.045,1.17,25.486
				c-13.357,21.902-4.067,32.867,19.132,35.38c8.218,0.892,16.273-0.212,19.089,11.169c3.15,12.717-2.321,19.493-12.471,25.059
				c-21.312,11.7-18.876,24.836-1.481,37.987c7.532,5.701,15.726,10.026,11.955,22.153c-3.911,12.587-12.795,13.907-24.091,14.427
				c-22.686,1.043-29.433,12.543-18.87,33.162c4.484,8.764,7.696,17.17-2.136,24.841c-8.628,6.742-16.364,5.674-25.568,0.277
				c-22.784-13.344-32.652-2.171-34.666,20.323c-0.776,8.693-0.982,16.107-11.979,18.454c-10.975,2.344-17.88-1.305-22.999-10.691
				c-13.59-24.912-27.514-20.96-41.393-0.19c-5.015,7.512-10.833,11.903-20.751,8.463c-9.183-3.174-13.652-9.047-13.519-18.407
				c0.396-28.28-11.724-36.011-36.872-22.776c-7.003,3.683-13.687,4.683-19.678-1.99c-6.934-7.725-9.173-15.52-2.994-25.196
				C93.395,266.113,87.911,253.54,63.483,249.815z"/>
			<path class="st1" d="M300.076,198.691c0.49,55.42-44.98,101.05-100.37,100.74c-54.01-0.3-98.69-44.85-99.16-98.84
				c-0.48-55.59,44.71-100.95,100.3-100.67C254.876,100.181,299.596,144.711,300.076,198.691z"/>
			<path class="st2" d="M201.566,174.821c13.89,2.81,23.26,10.52,22.99,24.77c-0.29,15.63-10.01,25.07-25.68,24.3
				c-13.94-0.68-23.04-9.88-22.84-24.11C176.256,184.041,186.426,176.281,201.566,174.821z"/>
			<g>
				<g>
					<g>
						<path class="st3" d="M219.515,154.478c-3.03,10.753-6.037,21.41-9.032,32.067c-5.466,19.455-10.952,38.902-16.366,58.373
							c-1.279,4.603-3.106,9.073-8.823,7.536c-5.452-1.467-5.505-5.764-4.08-10.748c8.373-29.276,16.537-58.614,24.701-87.949
							c1.216-4.371,2.982-8.18,8.312-7.261C218.417,147.217,220.012,150.383,219.515,154.478z"/>
						<path class="st3" d="M173.4,229.604c0.101,2.816-1.326,4.808-3.665,6.039c-2.407,1.268-4.913,1.035-6.974-0.799
							c-11.387-10.113-22.793-20.207-34.033-30.481c-2.869-2.623-2.942-6.2-0.09-8.862c11.13-10.391,22.397-20.643,33.749-30.795
							c2.885-2.578,6.227-2.278,8.885,0.61c3.04,3.303,2.304,6.699-0.699,9.526c-7.461,7.025-14.922,14.058-22.661,20.768
							c-3.682,3.194-3.624,5.315,0.068,8.422c7.199,6.064,14.091,12.493,21.066,18.818
							C171.076,224.693,173.349,226.451,173.4,229.604z"/>
						<path class="st3" d="M233.091,236.017c-2.805-0.071-4.721-1.598-5.793-4.022c-1.448-3.274-0.052-5.873,2.395-8.11
							c6.948-6.358,13.598-13.084,20.909-18.988c5.505-4.447,4.639-7.304-0.309-11.334c-7.077-5.768-13.661-12.143-20.456-18.253
							c-3.243-2.918-4.975-6.314-1.692-10.079c3.57-4.09,7.229-2.703,10.785,0.501c9.885,8.892,19.777,17.776,29.821,26.487
							c5.327,4.62,5.887,8.863,0.369,13.758c-10.153,9.006-20.14,18.2-30.196,27.318
							C237.258,234.805,235.548,236.206,233.091,236.017z"/>
					</g>
				</g>
			</g>
		</g>
	</g>
</g>
<g>
</g>
<g>
</g>
<g>
</g>
<g>
</g>
<g>
</g>
<g>
</g>
<g>
</g>
<g>
</g>
<g>
</g>
<g>
</g>
<g>
</g>
<g>
</g>
<g>
</g>
<g>
</g>
<g>
</g>
</svg>
