<?xml version="1.0" encoding="utf-8"?>
<!-- Generator: Adobe Illustrator 26.0.1, SVG Export Plug-In . SVG Version: 6.00 Build 0)  -->
<svg version="1.1" id="Calque_1" xmlns="http://www.w3.org/2000/svg" xmlns:xlink="http://www.w3.org/1999/xlink" x="0px" y="0px"
	 viewBox="0 0 400 400" style="enable-background:new 0 0 400 400;" xml:space="preserve">
<style type="text/css">
	.st0{fill:#E07E64;}
	.st1{fill:#FDF8F7;}
	.st2{fill:#FCF6F4;}
	.st3{fill:#DF7A5F;}
</style>
<g>
	<g>
		<g>
			<path class="st0" d="M208.309,345.207c-2.908,8.907-5.091,17.723-18.264,16.437c-13.445-1.312-16.601-9.991-19.048-20.724
				c-5.012-21.933-18.079-23.304-34.363-11.985c-8.669,6.022-15.667,13.75-27.186,5.039c-10.767-8.143-7.34-17.302-5.025-27.815
				c4.402-20.009-3.604-29.993-25.082-26.568c-9.188,1.462-18.743,3.967-24.072-7.588c-5.264-11.403-0.896-18.987,7.654-27.067
				c17.68-16.698,10.556-29.223-8.926-37.358c-9.016-3.765-17.281-6.301-15.529-19.038c1.556-11.374,8.311-15.648,18.36-17.76
				c26.301-5.516,25.872-19.652,11.815-37.867c-5.2-6.74-9.872-13.136-3.926-22.237c6.061-9.289,13.692-11.68,23.951-8.524
				c25.062,7.713,36.171-0.764,31.145-27.362c-1.685-8.929-0.784-16.56,8.909-20.54c9.865-4.057,17.367-1.928,24.714,6.333
				c17.04,19.177,30.242,13.499,39.427-7.952c3.256-7.599,4.555-15.624,16.262-14.989c13.082,0.706,17.963,7.919,20.317,19.253
				c4.958,23.802,18.232,25.313,35.894,12.523c7.654-5.536,14.186-12.107,24.681-4.956c10.893,7.42,9.558,16.302,6.753,27.256
				c-5.636,22,3.389,31.814,26.196,27.741c9.692-1.725,18.67-2.34,23.131,9.306c3.925,10.222,0.641,17.308-7.211,24.532
				c-19.423,17.887-11.623,30.59,9.299,39.093c8.087,3.283,15.116,5.648,14.145,16.851c-0.967,11.18-6.475,16.717-16.949,18.868
				c-27.797,5.713-28.089,20.184-12.284,39.529c5.717,6.993,8.215,13.84,2.026,22.319c-5.72,7.854-12.643,10.41-21.555,7.547
				c-26.929-8.647-37.865,0.683-32.561,28.602c1.475,7.774,0.477,14.458-7.657,18.236c-9.415,4.373-17.524,4.235-24.971-4.503
				C232.64,321.367,219.013,322.935,208.309,345.207z"/>
			<path class="st1" d="M300.076,198.691c0.49,55.42-44.98,101.05-100.37,100.74c-54.01-0.3-98.69-44.85-99.16-98.84
				c-0.48-55.59,44.71-100.95,100.3-100.67C254.876,100.181,299.596,144.711,300.076,198.691z"/>
			<path class="st2" d="M201.566,174.821c13.89,2.81,23.26,10.52,22.99,24.77c-0.29,15.63-10.01,25.07-25.68,24.3
				c-13.94-0.68-23.04-9.88-22.84-24.11C176.256,184.041,186.426,176.281,201.566,174.821z"/>
			<g>
				<g>
					<g>
						<path class="st3" d="M219.515,154.478c-3.03,10.753-6.037,21.41-9.032,32.067c-5.466,19.455-10.952,38.902-16.366,58.373
							c-1.279,4.603-3.106,9.073-8.823,7.536c-5.452-1.467-5.505-5.764-4.08-10.748c8.373-29.276,16.537-58.614,24.701-87.949
							c1.216-4.371,2.982-8.18,8.312-7.261C218.417,147.217,220.012,150.383,219.515,154.478z"/>
						<path class="st3" d="M173.4,229.604c0.101,2.816-1.326,4.808-3.665,6.039c-2.407,1.268-4.913,1.035-6.974-0.799
							c-11.387-10.113-22.793-20.207-34.033-30.481c-2.869-2.623-2.942-6.2-0.09-8.862c11.13-10.391,22.397-20.643,33.749-30.795
							c2.885-2.578,6.227-2.278,8.885,0.61c3.04,3.303,2.304,6.699-0.699,9.526c-7.461,7.025-14.922,14.058-22.661,20.768
							c-3.682,3.194-3.624,5.315,0.068,8.422c7.199,6.064,14.091,12.493,21.066,18.818
							C171.076,224.693,173.349,226.451,173.4,229.604z"/>
						<path class="st3" d="M233.091,236.017c-2.805-0.071-4.721-1.598-5.793-4.022c-1.448-3.274-0.052-5.873,2.395-8.11
							c6.948-6.358,13.598-13.084,20.909-18.988c5.505-4.447,4.639-7.304-0.309-11.334c-7.077-5.768-13.661-12.143-20.456-18.253
							c-3.243-2.918-4.975-6.314-1.692-10.079c3.57-4.09,7.229-2.703,10.785,0.501c9.885,8.892,19.777,17.776,29.821,26.487
							c5.327,4.62,5.887,8.863,0.369,13.758c-10.153,9.006-20.14,18.2-30.196,27.318
							C237.258,234.805,235.548,236.206,233.091,236.017z"/>
					</g>
				</g>
			</g>
		</g>
	</g>
</g>
<g>
</g>
<g>
</g>
<g>
</g>
<g>
</g>
<g>
</g>
<g>
</g>
<g>
</g>
<g>
</g>
<g>
</g>
<g>
</g>
<g>
</g>
<g>
</g>
<g>
</g>
<g>
</g>
<g>
</g>
</svg>
