<?xml version="1.0" encoding="utf-8"?>
<!-- Generator: Adobe Illustrator 26.0.1, SVG Export Plug-In . SVG Version: 6.00 Build 0)  -->
<svg version="1.1" id="Calque_1" xmlns="http://www.w3.org/2000/svg" xmlns:xlink="http://www.w3.org/1999/xlink" x="0px" y="0px"
	 viewBox="0 0 400 400" style="enable-background:new 0 0 400 400;" xml:space="preserve">
<style type="text/css">
	.st0{fill:#E07E64;}
	.st1{fill:#FDF8F7;}
	.st2{fill:#FCF6F4;}
	.st3{fill:#DF7A5F;}
</style>
<g>
	<g>
		<g>
			<path class="st0" d="M76.552,122.687c-5.628-7.491-11.598-14.336-2.989-24.389c8.787-10.26,17.706-7.868,27.902-3.716
				c20.841,8.474,29.459-1.443,29.527-21.275c0.04-10.555-2.277-20.72,11.465-25.16c12.846-4.149,18.383,3.912,25.667,11.838
				c13.866,15.083,26.636,14.251,36.149-5.307c4.073-8.365,7.501-17.629,20.023-15.366c12.36,2.229,16.067,10.157,17.782,21.795
				c3.537,24.06,17.883,25.409,35.721,14.116c8.256-5.226,15.073-10.542,24.502-1.8c8.424,7.799,8.051,15.783,4.017,25.226
				c-10.567,24.708,1.258,32.465,24.242,31.398c8.504-0.394,16.423-0.552,20.468,9.539c4.133,10.292,1.714,17.916-6.755,24.509
				c-20.693,16.105-20.121,30.068,4.549,41.207c8.281,3.741,14.015,8.856,11.715,19.079c-2.335,10.408-8.382,15.332-19.363,16.612
				c-25.482,2.959-28.404,17.03-16.101,36.858c4.357,7.025,10.185,12.693,2.951,21.918c-8.082,10.311-16.79,10.173-27.425,5.6
				c-22.341-9.591-31.193,0.416-30.846,22.22c0.145,9.446,1.781,18.565-10.097,23.06c-12.326,4.667-18.836-1.521-26.2-10.102
				c-14.789-17.235-28.005-15.472-37.75,5.547c-4.146,8.929-8.792,16.636-20.89,13.61c-10.625-2.648-14.545-9.402-15.959-19.978
				c-3.512-26.17-18.391-27.067-37.357-14.806c-7.328,4.741-13.297,9.142-21.917,1.922c-8.604-7.205-9.98-14.893-5.735-24.706
				c11.264-26.047-0.422-34.586-25.334-32.735c-9.007,0.673-16.049-1.209-19.444-11.142c-3.153-9.19-1.276-16.327,6.182-21.986
				c22.529-17.099,21.159-31.409-4.753-43.078c-7.214-3.251-12.117-7.903-10.547-16.732c1.818-10.22,6.582-16.784,18.012-17.872
				C82.125,156.292,88.657,144.23,76.552,122.687z"/>
			<path class="st1" d="M300.076,198.691c0.49,55.42-44.98,101.05-100.37,100.74c-54.01-0.3-98.69-44.85-99.16-98.84
				c-0.48-55.59,44.71-100.95,100.3-100.67C254.876,100.181,299.596,144.711,300.076,198.691z"/>
			<path class="st2" d="M201.566,174.821c13.89,2.81,23.26,10.52,22.99,24.77c-0.29,15.63-10.01,25.07-25.68,24.3
				c-13.94-0.68-23.04-9.88-22.84-24.11C176.256,184.041,186.426,176.281,201.566,174.821z"/>
			<g>
				<g>
					<g>
						<path class="st3" d="M219.515,154.478c-3.03,10.753-6.037,21.41-9.032,32.067c-5.466,19.455-10.952,38.902-16.366,58.373
							c-1.279,4.603-3.106,9.073-8.823,7.536c-5.452-1.467-5.505-5.764-4.08-10.748c8.373-29.276,16.537-58.614,24.701-87.949
							c1.216-4.371,2.982-8.18,8.312-7.261C218.417,147.217,220.012,150.383,219.515,154.478z"/>
						<path class="st3" d="M173.4,229.604c0.101,2.816-1.326,4.808-3.665,6.039c-2.407,1.268-4.913,1.035-6.974-0.799
							c-11.387-10.113-22.793-20.207-34.033-30.481c-2.869-2.623-2.942-6.2-0.09-8.862c11.13-10.391,22.397-20.643,33.749-30.795
							c2.885-2.578,6.227-2.278,8.885,0.61c3.04,3.303,2.304,6.699-0.699,9.526c-7.461,7.025-14.922,14.058-22.661,20.768
							c-3.682,3.194-3.624,5.315,0.068,8.422c7.199,6.064,14.091,12.493,21.066,18.818
							C171.076,224.693,173.349,226.451,173.4,229.604z"/>
						<path class="st3" d="M233.091,236.017c-2.805-0.071-4.721-1.598-5.793-4.022c-1.448-3.274-0.052-5.873,2.395-8.11
							c6.948-6.358,13.598-13.084,20.909-18.988c5.505-4.447,4.639-7.304-0.309-11.334c-7.077-5.768-13.661-12.143-20.456-18.253
							c-3.243-2.918-4.975-6.314-1.692-10.079c3.57-4.09,7.229-2.703,10.785,0.501c9.885,8.892,19.777,17.776,29.821,26.487
							c5.327,4.62,5.887,8.863,0.369,13.758c-10.153,9.006-20.14,18.2-30.196,27.318
							C237.258,234.805,235.548,236.206,233.091,236.017z"/>
					</g>
				</g>
			</g>
		</g>
	</g>
</g>
<g>
</g>
<g>
</g>
<g>
</g>
<g>
</g>
<g>
</g>
<g>
</g>
<g>
</g>
<g>
</g>
<g>
</g>
<g>
</g>
<g>
</g>
<g>
</g>
<g>
</g>
<g>
</g>
<g>
</g>
</svg>
