<?xml version="1.0" encoding="utf-8"?>
<!-- Generator: Adobe Illustrator 26.0.1, SVG Export Plug-In . SVG Version: 6.00 Build 0)  -->
<svg version="1.1" id="Calque_1" xmlns="http://www.w3.org/2000/svg" xmlns:xlink="http://www.w3.org/1999/xlink" x="0px" y="0px"
	 viewBox="0 0 400 400" style="enable-background:new 0 0 400 400;" xml:space="preserve">
<style type="text/css">
	.st0{fill:#E07E64;}
	.st1{fill:#FDF8F7;}
	.st2{fill:#FCF6F4;}
	.st3{fill:#DF7A5F;}
</style>
<g>
	<g>
		<g>
			<path class="st0" d="M67.317,259.239c-9.357,0.477-18.37,1.599-21.891-11.16C41.833,235.057,48.804,229,57.948,222.87
				c18.68-12.539,15.277-25.23-1.126-36.376c-8.728-5.936-18.451-9.699-14.447-23.574c3.744-12.97,13.523-13.053,24.167-14.659
				c20.258-3.061,26.709-14.113,15.814-32.937c-4.658-8.054-10.421-16.076-1.542-25.193c8.759-9,17.405-7.641,28.012-2.554
				c21.925,10.522,31.065-0.618,31.678-21.721c0.284-9.766-0.311-18.391,12.209-21.32c11.176-2.623,17.587,2.151,23.16,10.776
				c14.575,22.577,27.619,17.111,39.586-2.54c4.429-7.27,8.726-13.924,19.353-11.635c10.844,2.329,15.811,8.597,16.541,19.306
				c1.781,26.161,13.676,33.495,36.706,19.271c7.732-4.773,15.179-6.666,22.368,0.956c7.323,7.756,8.024,15.523,2.945,25.342
				c-11.797,22.78-1.765,33.071,21.553,33.959c8.261,0.316,16.219-1.346,19.821,9.81c4.029,12.466-0.955,19.608-10.693,25.868
				c-20.444,13.158-17.098,26.093,1.172,37.998c7.912,5.162,16.387,8.904,13.472,21.265c-3.023,12.829-11.794,14.765-23.026,16.072
				c-22.558,2.623-28.487,14.565-16.511,34.397c5.084,8.43,8.875,16.592-0.398,24.929c-8.137,7.327-15.928,6.801-25.487,2.06
				c-23.659-11.723-32.724,0.112-33.164,22.691c-0.167,8.726,0.144,16.136-10.662,19.245c-10.785,3.104-17.927-0.054-23.689-9.061
				c-15.295-23.903-28.909-18.99-41.305,2.697c-4.479,7.843-9.977,12.629-20.11,9.89c-9.382-2.525-14.249-8.072-14.77-17.419
				c-1.578-28.239-14.207-35.106-38.371-20.148c-6.729,4.163-13.327,5.626-19.769-0.613c-7.456-7.222-10.233-14.842-4.744-24.926
				C98.293,273.411,91.945,261.251,67.317,259.239z"/>
			<path class="st1" d="M300.076,198.691c0.49,55.42-44.98,101.05-100.37,100.74c-54.01-0.3-98.69-44.85-99.16-98.84
				c-0.48-55.59,44.71-100.95,100.3-100.67C254.876,100.181,299.596,144.711,300.076,198.691z"/>
			<path class="st2" d="M201.566,174.821c13.89,2.81,23.26,10.52,22.99,24.77c-0.29,15.63-10.01,25.07-25.68,24.3
				c-13.94-0.68-23.04-9.88-22.84-24.11C176.256,184.041,186.426,176.281,201.566,174.821z"/>
			<g>
				<g>
					<g>
						<path class="st3" d="M219.515,154.478c-3.03,10.753-6.037,21.41-9.032,32.067c-5.466,19.455-10.952,38.902-16.366,58.373
							c-1.279,4.603-3.106,9.073-8.823,7.536c-5.452-1.467-5.505-5.764-4.08-10.748c8.373-29.276,16.537-58.614,24.701-87.949
							c1.216-4.371,2.982-8.18,8.312-7.261C218.417,147.217,220.012,150.383,219.515,154.478z"/>
						<path class="st3" d="M173.4,229.604c0.101,2.816-1.326,4.808-3.665,6.039c-2.407,1.268-4.913,1.035-6.974-0.799
							c-11.387-10.113-22.793-20.207-34.033-30.481c-2.869-2.623-2.942-6.2-0.09-8.862c11.13-10.391,22.397-20.643,33.749-30.795
							c2.885-2.578,6.227-2.278,8.885,0.61c3.04,3.303,2.304,6.699-0.699,9.526c-7.461,7.025-14.922,14.058-22.661,20.768
							c-3.682,3.194-3.624,5.315,0.068,8.422c7.199,6.064,14.091,12.493,21.066,18.818
							C171.076,224.693,173.349,226.451,173.4,229.604z"/>
						<path class="st3" d="M233.091,236.017c-2.805-0.071-4.721-1.598-5.793-4.022c-1.448-3.274-0.052-5.873,2.395-8.11
							c6.948-6.358,13.598-13.084,20.909-18.988c5.505-4.447,4.639-7.304-0.309-11.334c-7.077-5.768-13.661-12.143-20.456-18.253
							c-3.243-2.918-4.975-6.314-1.692-10.079c3.57-4.09,7.229-2.703,10.785,0.501c9.885,8.892,19.777,17.776,29.821,26.487
							c5.327,4.62,5.887,8.863,0.369,13.758c-10.153,9.006-20.14,18.2-30.196,27.318
							C237.258,234.805,235.548,236.206,233.091,236.017z"/>
					</g>
				</g>
			</g>
		</g>
	</g>
</g>
<g>
</g>
<g>
</g>
<g>
</g>
<g>
</g>
<g>
</g>
<g>
</g>
<g>
</g>
<g>
</g>
<g>
</g>
<g>
</g>
<g>
</g>
<g>
</g>
<g>
</g>
<g>
</g>
<g>
</g>
</svg>
