<?xml version="1.0" encoding="utf-8"?>
<!-- Generator: Adobe Illustrator 26.0.1, SVG Export Plug-In . SVG Version: 6.00 Build 0)  -->
<svg version="1.1" id="Calque_1" xmlns="http://www.w3.org/2000/svg" xmlns:xlink="http://www.w3.org/1999/xlink" x="0px" y="0px"
	 viewBox="0 0 400 400" style="enable-background:new 0 0 400 400;" xml:space="preserve">
<style type="text/css">
	.st0{fill:#E07E64;}
	.st1{fill:#FDF8F7;}
	.st2{fill:#FCF6F4;}
	.st3{fill:#DF7A5F;}
</style>
<g>
	<g>
		<g>
			<path class="st0" d="M85.277,110.169c-4.814-8.038-10.036-15.47-0.423-24.568c9.811-9.286,18.432-5.974,28.137-0.779
				c19.841,10.606,29.449,1.644,31.589-18.072c1.143-10.493-0.098-20.845,14.032-23.824c13.21-2.784,17.873,5.812,24.289,14.456
				c12.214,16.449,25.001,16.957,36.506-1.499c4.925-7.894,9.302-16.748,21.52-13.189c12.059,3.508,14.917,11.781,15.406,23.535
				c1.003,24.298,15.13,27.139,34.05,17.773c8.757-4.334,16.093-8.909,24.556,0.771c7.563,8.637,6.357,16.538,1.358,25.508
				c-13.092,23.468-2.142,32.419,20.827,33.76c8.498,0.497,16.391,1.168,19.359,11.626c3.035,10.668-0.168,17.997-9.28,23.668
				c-22.263,13.854-23.154,27.8,0.217,41.456c7.844,4.586,13.012,10.272,9.657,20.199c-3.41,10.107-9.939,14.372-20.993,14.497
				c-25.652,0.279-30.028,13.968-19.865,34.973c3.599,7.442,8.803,13.688,0.644,22.107c-9.115,9.41-17.761,8.362-27.86,2.703
				c-21.216-11.873-31.065-2.847-32.999,18.874c-0.844,9.409-0.169,18.649-12.452,21.878c-12.746,3.353-18.574-3.481-25.001-12.785
				c-12.906-18.686-26.234-18.314-38.123,1.57c-5.056,8.446-10.483,15.626-22.198,11.352c-10.29-3.744-13.483-10.871-13.784-21.536
				c-0.757-26.393-15.461-28.841-35.605-18.63c-7.783,3.949-14.18,7.702-21.998-0.379c-7.803-8.065-8.369-15.854-3.121-25.17
				c13.925-24.727,3.195-34.44-21.773-35.204c-9.028-0.273-15.835-2.88-18.173-13.113c-2.175-9.47,0.438-16.371,8.446-21.219
				c24.192-14.651,24.327-29.025-0.225-43.339c-6.835-3.987-11.224-9.126-8.74-17.743c2.876-9.974,8.301-16.004,19.781-15.891
				C87.307,144.172,95.063,132.859,85.277,110.169z"/>
			<path class="st1" d="M300.076,198.691c0.49,55.42-44.98,101.05-100.37,100.74c-54.01-0.3-98.69-44.85-99.16-98.84
				c-0.48-55.59,44.71-100.95,100.3-100.67C254.876,100.181,299.596,144.711,300.076,198.691z"/>
			<path class="st2" d="M201.566,174.821c13.89,2.81,23.26,10.52,22.99,24.77c-0.29,15.63-10.01,25.07-25.68,24.3
				c-13.94-0.68-23.04-9.88-22.84-24.11C176.256,184.041,186.426,176.281,201.566,174.821z"/>
			<g>
				<g>
					<g>
						<path class="st3" d="M219.515,154.478c-3.03,10.753-6.037,21.41-9.032,32.067c-5.466,19.455-10.952,38.902-16.366,58.373
							c-1.279,4.603-3.106,9.073-8.823,7.536c-5.452-1.467-5.505-5.764-4.08-10.748c8.373-29.276,16.537-58.614,24.701-87.949
							c1.216-4.371,2.982-8.18,8.312-7.261C218.417,147.217,220.012,150.383,219.515,154.478z"/>
						<path class="st3" d="M173.4,229.604c0.101,2.816-1.326,4.808-3.665,6.039c-2.407,1.268-4.913,1.035-6.974-0.799
							c-11.387-10.113-22.793-20.207-34.033-30.481c-2.869-2.623-2.942-6.2-0.09-8.862c11.13-10.391,22.397-20.643,33.749-30.795
							c2.885-2.578,6.227-2.278,8.885,0.61c3.04,3.303,2.304,6.699-0.699,9.526c-7.461,7.025-14.922,14.058-22.661,20.768
							c-3.682,3.194-3.624,5.315,0.068,8.422c7.199,6.064,14.091,12.493,21.066,18.818
							C171.076,224.693,173.349,226.451,173.4,229.604z"/>
						<path class="st3" d="M233.091,236.017c-2.805-0.071-4.721-1.598-5.793-4.022c-1.448-3.274-0.052-5.873,2.395-8.11
							c6.948-6.358,13.598-13.084,20.909-18.988c5.505-4.447,4.639-7.304-0.309-11.334c-7.077-5.768-13.661-12.143-20.456-18.253
							c-3.243-2.918-4.975-6.314-1.692-10.079c3.57-4.09,7.229-2.703,10.785,0.501c9.885,8.892,19.777,17.776,29.821,26.487
							c5.327,4.62,5.887,8.863,0.369,13.758c-10.153,9.006-20.14,18.2-30.196,27.318
							C237.258,234.805,235.548,236.206,233.091,236.017z"/>
					</g>
				</g>
			</g>
		</g>
	</g>
</g>
<g>
</g>
<g>
</g>
<g>
</g>
<g>
</g>
<g>
</g>
<g>
</g>
<g>
</g>
<g>
</g>
<g>
</g>
<g>
</g>
<g>
</g>
<g>
</g>
<g>
</g>
<g>
</g>
<g>
</g>
</svg>
