<?xml version="1.0" encoding="utf-8"?>
<!-- Generator: Adobe Illustrator 26.0.1, SVG Export Plug-In . SVG Version: 6.00 Build 0)  -->
<svg version="1.1" id="Calque_1" xmlns="http://www.w3.org/2000/svg" xmlns:xlink="http://www.w3.org/1999/xlink" x="0px" y="0px"
	 viewBox="0 0 400 400" style="enable-background:new 0 0 400 400;" xml:space="preserve">
<style type="text/css">
	.st0{fill:#E07E64;}
	.st1{fill:#FDF8F7;}
	.st2{fill:#FCF6F4;}
	.st3{fill:#DF7A5F;}
</style>
<g>
	<g>
		<g>
			<path class="st0" d="M77.915,120.538c-5.497-7.588-11.346-14.536-2.563-24.437c8.964-10.105,17.841-7.558,27.962-3.228
				c20.69,8.836,29.48-0.929,29.894-20.756c0.224-10.553-1.915-20.757,11.902-24.956c12.917-3.924,18.312,4.232,25.457,12.284
				c13.601,15.322,26.383,14.714,36.236-4.675c4.218-8.293,7.807-17.495,20.288-15.014c12.319,2.444,15.887,10.436,17.399,22.102
				c3.117,24.118,17.437,25.717,35.47,14.737c8.346-5.081,15.255-10.277,24.53-1.372c8.287,7.945,7.774,15.921,3.576,25.292
				c-10.997,24.52,0.691,32.482,23.69,31.816c8.509-0.245,16.43-0.265,20.298,9.894c3.953,10.363,1.401,17.943-7.182,24.387
				c-20.971,15.742-20.643,29.712,3.829,41.28c8.214,3.885,13.858,9.099,11.381,19.28c-2.516,10.366-8.648,15.184-19.65,16.272
				c-25.53,2.513-28.696,16.532-16.741,36.571c4.234,7.1,9.962,12.869,2.568,21.966c-8.26,10.168-16.965,9.878-27.518,5.121
				c-22.17-9.979-31.195-0.128-31.229,21.678c-0.02,9.447,1.457,18.593-10.498,22.88c-12.406,4.451-18.807-1.849-26.02-10.557
				c-14.486-17.49-27.73-15.958-37.841,4.887c-4.301,8.855-9.081,16.48-21.124,13.244c-10.577-2.833-14.379-9.654-15.608-20.253
				c-3.054-26.227-17.916-27.384-37.093-15.455c-7.409,4.612-13.454,8.909-21.947,1.539c-8.477-7.354-9.718-15.065-5.303-24.802
				c11.717-25.846,0.181-34.588-24.759-33.173c-9.018,0.515-16.026-1.489-19.247-11.479c-2.992-9.244-0.991-16.347,6.564-21.874
				c22.824-16.703,21.704-31.035-4.001-43.154c-7.156-3.376-11.977-8.113-10.253-16.913c1.996-10.187,6.874-16.666,18.321-17.555
				C82.9,154.235,89.641,142.289,77.915,120.538z"/>
			<path class="st1" d="M300.076,198.691c0.49,55.42-44.98,101.05-100.37,100.74c-54.01-0.3-98.69-44.85-99.16-98.84
				c-0.48-55.59,44.71-100.95,100.3-100.67C254.876,100.181,299.596,144.711,300.076,198.691z"/>
			<path class="st2" d="M201.566,174.821c13.89,2.81,23.26,10.52,22.99,24.77c-0.29,15.63-10.01,25.07-25.68,24.3
				c-13.94-0.68-23.04-9.88-22.84-24.11C176.256,184.041,186.426,176.281,201.566,174.821z"/>
			<g>
				<g>
					<g>
						<path class="st3" d="M219.515,154.478c-3.03,10.753-6.037,21.41-9.032,32.067c-5.466,19.455-10.952,38.902-16.366,58.373
							c-1.279,4.603-3.106,9.073-8.823,7.536c-5.452-1.467-5.505-5.764-4.08-10.748c8.373-29.276,16.537-58.614,24.701-87.949
							c1.216-4.371,2.982-8.18,8.312-7.261C218.417,147.217,220.012,150.383,219.515,154.478z"/>
						<path class="st3" d="M173.4,229.604c0.101,2.816-1.326,4.808-3.665,6.039c-2.407,1.268-4.913,1.035-6.974-0.799
							c-11.387-10.113-22.793-20.207-34.033-30.481c-2.869-2.623-2.942-6.2-0.09-8.862c11.13-10.391,22.397-20.643,33.749-30.795
							c2.885-2.578,6.227-2.278,8.885,0.61c3.04,3.303,2.304,6.699-0.699,9.526c-7.461,7.025-14.922,14.058-22.661,20.768
							c-3.682,3.194-3.624,5.315,0.068,8.422c7.199,6.064,14.091,12.493,21.066,18.818
							C171.076,224.693,173.349,226.451,173.4,229.604z"/>
						<path class="st3" d="M233.091,236.017c-2.805-0.071-4.721-1.598-5.793-4.022c-1.448-3.274-0.052-5.873,2.395-8.11
							c6.948-6.358,13.598-13.084,20.909-18.988c5.505-4.447,4.639-7.304-0.309-11.334c-7.077-5.768-13.661-12.143-20.456-18.253
							c-3.243-2.918-4.975-6.314-1.692-10.079c3.57-4.09,7.229-2.703,10.785,0.501c9.885,8.892,19.777,17.776,29.821,26.487
							c5.327,4.62,5.887,8.863,0.369,13.758c-10.153,9.006-20.14,18.2-30.196,27.318
							C237.258,234.805,235.548,236.206,233.091,236.017z"/>
					</g>
				</g>
			</g>
		</g>
	</g>
</g>
<g>
</g>
<g>
</g>
<g>
</g>
<g>
</g>
<g>
</g>
<g>
</g>
<g>
</g>
<g>
</g>
<g>
</g>
<g>
</g>
<g>
</g>
<g>
</g>
<g>
</g>
<g>
</g>
<g>
</g>
</svg>
