<?xml version="1.0" encoding="utf-8"?>
<!-- Generator: Adobe Illustrator 26.0.1, SVG Export Plug-In . SVG Version: 6.00 Build 0)  -->
<svg version="1.1" id="Calque_1" xmlns="http://www.w3.org/2000/svg" xmlns:xlink="http://www.w3.org/1999/xlink" x="0px" y="0px"
	 viewBox="0 0 400 400" style="enable-background:new 0 0 400 400;" xml:space="preserve">
<style type="text/css">
	.st0{fill:#E07E64;}
	.st1{fill:#FDF8F7;}
	.st2{fill:#FCF6F4;}
	.st3{fill:#DF7A5F;}
</style>
<g>
	<g>
		<g>
			<path class="st0" d="M133.875,69.929c-0.966-9.319-2.558-18.262,9.999-22.445c12.816-4.269,19.23,2.375,25.83,11.185
				c13.5,17.998,25.995,13.936,36.267-3.028c5.471-9.027,8.72-18.933,22.786-15.661c13.148,3.06,13.742,12.821,15.904,23.367
				c4.117,20.07,15.492,25.934,33.719,14.069c7.799-5.073,15.509-11.248,25.077-2.859c9.446,8.276,8.541,16.981,4.017,27.84
				c-9.36,22.446,2.243,30.99,23.349,30.498c9.768-0.227,18.35-1.273,21.93,11.076c3.204,11.024-1.228,17.675-9.549,23.692
				c-21.784,15.736-15.642,28.476,4.608,39.399c7.492,4.042,14.362,7.985,12.632,18.718c-1.758,10.951-7.758,16.24-18.414,17.529
				c-26.032,3.147-32.733,15.41-17.323,37.664c5.171,7.471,7.452,14.809,0.216,22.388c-7.362,7.719-15.082,8.825-25.153,4.267
				c-23.366-10.588-33.118-0.031-32.784,23.301c0.116,8.266,2.193,16.126-8.759,20.307c-12.238,4.676-19.631,0.072-26.392-9.325
				c-14.21-19.727-26.952-15.709-37.884,3.159c-4.741,8.171-8.035,16.831-20.531,14.566c-12.969-2.348-15.362-11.005-17.255-22.153
				c-3.8-22.39-16.036-27.685-35.214-14.688c-8.152,5.518-16.104,9.731-24.916,0.907c-7.743-7.742-7.626-15.55-3.391-25.344
				c10.468-24.24-1.824-32.673-24.396-31.931c-8.723,0.29-16.106,0.988-19.776-9.641c-3.664-10.607-0.884-17.906,7.809-24.131
				c23.07-16.525,17.451-29.863-4.856-41.108c-8.067-4.063-13.134-9.302-10.929-19.565c2.031-9.502,7.315-14.652,16.622-15.662
				c28.117-3.054,34.314-16.025,18.112-39.373c-4.509-6.502-6.316-13.014-0.423-19.774c6.822-7.824,14.287-10.996,24.644-6.042
				C121.344,101.605,133.155,94.63,133.875,69.929z"/>
			<path class="st1" d="M300.076,198.691c0.49,55.42-44.98,101.05-100.37,100.74c-54.01-0.3-98.69-44.85-99.16-98.84
				c-0.48-55.59,44.71-100.95,100.3-100.67C254.876,100.181,299.596,144.711,300.076,198.691z"/>
			<path class="st2" d="M201.566,174.821c13.89,2.81,23.26,10.52,22.99,24.77c-0.29,15.63-10.01,25.07-25.68,24.3
				c-13.94-0.68-23.04-9.88-22.84-24.11C176.256,184.041,186.426,176.281,201.566,174.821z"/>
			<g>
				<g>
					<g>
						<path class="st3" d="M219.515,154.478c-3.03,10.753-6.037,21.41-9.032,32.067c-5.466,19.455-10.952,38.902-16.366,58.373
							c-1.279,4.603-3.106,9.073-8.823,7.536c-5.452-1.467-5.505-5.764-4.08-10.748c8.373-29.276,16.537-58.614,24.701-87.949
							c1.216-4.371,2.982-8.18,8.312-7.261C218.417,147.217,220.012,150.383,219.515,154.478z"/>
						<path class="st3" d="M173.4,229.604c0.101,2.816-1.326,4.808-3.665,6.039c-2.407,1.268-4.913,1.035-6.974-0.799
							c-11.387-10.113-22.793-20.207-34.033-30.481c-2.869-2.623-2.942-6.2-0.09-8.862c11.13-10.391,22.397-20.643,33.749-30.795
							c2.885-2.578,6.227-2.278,8.885,0.61c3.04,3.303,2.304,6.699-0.699,9.526c-7.461,7.025-14.922,14.058-22.661,20.768
							c-3.682,3.194-3.624,5.315,0.068,8.422c7.199,6.064,14.091,12.493,21.066,18.818
							C171.076,224.693,173.349,226.451,173.4,229.604z"/>
						<path class="st3" d="M233.091,236.017c-2.805-0.071-4.721-1.598-5.793-4.022c-1.448-3.274-0.052-5.873,2.395-8.11
							c6.948-6.358,13.598-13.084,20.909-18.988c5.505-4.447,4.639-7.304-0.309-11.334c-7.077-5.768-13.661-12.143-20.456-18.253
							c-3.243-2.918-4.975-6.314-1.692-10.079c3.57-4.09,7.229-2.703,10.785,0.501c9.885,8.892,19.777,17.776,29.821,26.487
							c5.327,4.62,5.887,8.863,0.369,13.758c-10.153,9.006-20.14,18.2-30.196,27.318
							C237.258,234.805,235.548,236.206,233.091,236.017z"/>
					</g>
				</g>
			</g>
		</g>
	</g>
</g>
<g>
</g>
<g>
</g>
<g>
</g>
<g>
</g>
<g>
</g>
<g>
</g>
<g>
</g>
<g>
</g>
<g>
</g>
<g>
</g>
<g>
</g>
<g>
</g>
<g>
</g>
<g>
</g>
<g>
</g>
</svg>
