<?xml version="1.0" encoding="utf-8"?>
<!-- Generator: Adobe Illustrator 26.0.1, SVG Export Plug-In . SVG Version: 6.00 Build 0)  -->
<svg version="1.1" id="Calque_1" xmlns="http://www.w3.org/2000/svg" xmlns:xlink="http://www.w3.org/1999/xlink" x="0px" y="0px"
	 viewBox="0 0 400 400" style="enable-background:new 0 0 400 400;" xml:space="preserve">
<style type="text/css">
	.st0{fill:#E07E64;}
	.st1{fill:#FDF8F7;}
	.st2{fill:#FCF6F4;}
	.st3{fill:#DF7A5F;}
</style>
<g>
	<g>
		<g>
			<path class="st0" d="M275.136,74.539c7.391-5.758,14.131-11.846,24.333-3.414c10.412,8.606,8.176,17.566,4.202,27.832
				c-8.109,20.986,1.957,29.43,21.787,29.151c10.555-0.144,20.677-2.638,25.356,11.024c4.373,12.772-3.591,18.448-11.388,25.87
				c-14.838,14.127-13.784,26.881,5.937,36.051c8.435,3.926,17.757,7.192,15.713,19.752c-2.013,12.397-9.875,16.242-21.482,18.159
				c-23.995,3.957-25.093,18.324-13.491,35.962c5.369,8.163,10.803,14.887,2.228,24.467c-7.651,8.559-15.64,8.325-25.152,4.457
				c-24.889-10.134-32.439,1.825-30.97,24.786c0.542,8.496,0.839,16.411-9.18,20.631c-10.219,4.312-17.883,2.027-24.623-6.327
				c-16.464-20.409-30.414-19.593-41.121,5.268c-3.596,8.345-8.61,14.167-18.871,12.047c-10.447-2.153-15.476-8.113-16.948-19.07
				c-3.403-25.427-17.523-28.102-37.133-15.455c-6.948,4.479-12.513,10.405-21.863,3.333c-10.451-7.9-10.464-16.61-6.078-27.323
				c9.199-22.505-0.96-31.181-22.755-30.453c-9.442,0.309-18.531,2.105-23.233-9.693c-4.882-12.243,1.192-18.86,9.643-26.373
				c16.974-15.087,14.981-28.27-6.205-37.647c-9-3.989-16.787-8.501-13.973-20.649c2.462-10.669,9.147-14.707,19.696-16.306
				c26.104-3.968,26.742-18.861,14.152-37.61c-4.868-7.244-9.373-13.135-2.304-21.88c7.054-8.728,14.716-10.238,24.602-6.165
				c26.239,10.808,34.573-1.026,32.288-25.901c-0.83-8.994,0.928-16.068,10.801-19.636c9.134-3.313,16.302-1.561,22.09,5.797
				c17.49,22.227,31.774,20.608,42.988-5.504c3.124-7.27,7.69-12.253,16.545-10.837c10.251,1.639,16.896,6.289,18.183,17.697
				C241.633,80.698,253.807,87.018,275.136,74.539z"/>
			<path class="st1" d="M300.076,198.691c0.49,55.42-44.98,101.05-100.37,100.74c-54.01-0.3-98.69-44.85-99.16-98.84
				c-0.48-55.59,44.71-100.95,100.3-100.67C254.876,100.181,299.596,144.711,300.076,198.691z"/>
			<path class="st2" d="M201.566,174.821c13.89,2.81,23.26,10.52,22.99,24.77c-0.29,15.63-10.01,25.07-25.68,24.3
				c-13.94-0.68-23.04-9.88-22.84-24.11C176.256,184.041,186.426,176.281,201.566,174.821z"/>
			<g>
				<g>
					<g>
						<path class="st3" d="M219.515,154.478c-3.03,10.753-6.037,21.41-9.032,32.067c-5.466,19.455-10.952,38.902-16.366,58.373
							c-1.279,4.603-3.106,9.073-8.823,7.536c-5.452-1.467-5.505-5.764-4.08-10.748c8.373-29.276,16.537-58.614,24.701-87.949
							c1.216-4.371,2.982-8.18,8.312-7.261C218.417,147.217,220.012,150.383,219.515,154.478z"/>
						<path class="st3" d="M173.4,229.604c0.101,2.816-1.326,4.808-3.665,6.039c-2.407,1.268-4.913,1.035-6.974-0.799
							c-11.387-10.113-22.793-20.207-34.033-30.481c-2.869-2.623-2.942-6.2-0.09-8.862c11.13-10.391,22.397-20.643,33.749-30.795
							c2.885-2.578,6.227-2.278,8.885,0.61c3.04,3.303,2.304,6.699-0.699,9.526c-7.461,7.025-14.922,14.058-22.661,20.768
							c-3.682,3.194-3.624,5.315,0.068,8.422c7.199,6.064,14.091,12.493,21.066,18.818
							C171.076,224.693,173.349,226.451,173.4,229.604z"/>
						<path class="st3" d="M233.091,236.017c-2.805-0.071-4.721-1.598-5.793-4.022c-1.448-3.274-0.052-5.873,2.395-8.11
							c6.948-6.358,13.598-13.084,20.909-18.988c5.505-4.447,4.639-7.304-0.309-11.334c-7.077-5.768-13.661-12.143-20.456-18.253
							c-3.243-2.918-4.975-6.314-1.692-10.079c3.57-4.09,7.229-2.703,10.785,0.501c9.885,8.892,19.777,17.776,29.821,26.487
							c5.327,4.62,5.887,8.863,0.369,13.758c-10.153,9.006-20.14,18.2-30.196,27.318
							C237.258,234.805,235.548,236.206,233.091,236.017z"/>
					</g>
				</g>
			</g>
		</g>
	</g>
</g>
<g>
</g>
<g>
</g>
<g>
</g>
<g>
</g>
<g>
</g>
<g>
</g>
<g>
</g>
<g>
</g>
<g>
</g>
<g>
</g>
<g>
</g>
<g>
</g>
<g>
</g>
<g>
</g>
<g>
</g>
</svg>
