<?xml version="1.0" encoding="utf-8"?>
<!-- Generator: Adobe Illustrator 26.0.1, SVG Export Plug-In . SVG Version: 6.00 Build 0)  -->
<svg version="1.1" id="Calque_1" xmlns="http://www.w3.org/2000/svg" xmlns:xlink="http://www.w3.org/1999/xlink" x="0px" y="0px"
	 viewBox="0 0 400 400" style="enable-background:new 0 0 400 400;" xml:space="preserve">
<style type="text/css">
	.st0{fill:#E07E64;}
	.st1{fill:#FDF8F7;}
	.st2{fill:#FCF6F4;}
	.st3{fill:#DF7A5F;}
</style>
<g>
	<g>
		<g>
			<path class="st0" d="M98.849,95.028c-3.649-8.63-7.785-16.716,3-24.387c11.008-7.83,19.084-3.351,27.972,3.145
				c18.172,13.264,28.934,5.727,33.797-13.499c2.592-10.232,2.804-20.656,17.211-21.639c13.468-0.918,16.89,8.243,22.041,17.696
				c9.805,17.989,22.397,20.272,36.359,3.596c5.975-7.131,11.543-15.291,23.146-10.066c11.453,5.153,13.133,13.742,11.981,25.45
				c-2.388,24.201,11.205,28.98,31.245,22.339c9.275-3.073,17.176-6.582,24.21,4.181c6.287,9.605,3.993,17.262-2.205,25.448
				c-16.231,21.418-6.633,31.805,15.926,36.33c8.346,1.675,16.069,3.437,17.552,14.207c1.52,10.987-2.671,17.798-12.484,22.146
				c-23.974,10.621-26.797,24.307-5.555,41.083c7.13,5.633,11.456,11.983,6.752,21.346c-4.784,9.534-11.842,12.849-22.806,11.435
				c-25.441-3.294-31.68,9.653-24.539,31.868c2.528,7.871,6.812,14.78-2.439,21.981c-10.336,8.05-18.752,5.809-27.965-1.201
				c-19.357-14.711-30.367-7.142-35.305,14.098c-2.145,9.2-2.763,18.444-15.375,19.932c-13.089,1.547-17.909-6.032-22.978-16.14
				c-10.18-20.301-23.43-21.787-37.97-3.751c-6.183,7.661-12.556,14.015-23.562,8.152c-9.668-5.14-11.839-12.641-10.652-23.245
				c2.924-26.242-11.297-30.712-32.666-23.403c-8.257,2.827-15.114,5.654-21.731-3.437c-6.605-9.073-6.081-16.865,0.413-25.359
				c17.231-22.548,7.957-33.661-16.662-37.892c-8.902-1.526-15.28-5.056-16.171-15.515c-0.836-9.68,2.712-16.151,11.317-19.837
				c25.996-11.141,28.129-25.357,5.809-42.948c-6.213-4.899-9.845-10.599-6.186-18.786c4.237-9.477,10.447-14.693,21.8-12.984
				C96.127,128.983,105.382,118.86,98.849,95.028z"/>
			<path class="st1" d="M300.076,198.691c0.49,55.42-44.98,101.05-100.37,100.74c-54.01-0.3-98.69-44.85-99.16-98.84
				c-0.48-55.59,44.71-100.95,100.3-100.67C254.876,100.181,299.596,144.711,300.076,198.691z"/>
			<path class="st2" d="M201.566,174.821c13.89,2.81,23.26,10.52,22.99,24.77c-0.29,15.63-10.01,25.07-25.68,24.3
				c-13.94-0.68-23.04-9.88-22.84-24.11C176.256,184.041,186.426,176.281,201.566,174.821z"/>
			<g>
				<g>
					<g>
						<path class="st3" d="M219.515,154.478c-3.03,10.753-6.037,21.41-9.032,32.067c-5.466,19.455-10.952,38.902-16.366,58.373
							c-1.279,4.603-3.106,9.073-8.823,7.536c-5.452-1.467-5.505-5.764-4.08-10.748c8.373-29.276,16.537-58.614,24.701-87.949
							c1.216-4.371,2.982-8.18,8.312-7.261C218.417,147.217,220.012,150.383,219.515,154.478z"/>
						<path class="st3" d="M173.4,229.604c0.101,2.816-1.326,4.808-3.665,6.039c-2.407,1.268-4.913,1.035-6.974-0.799
							c-11.387-10.113-22.793-20.207-34.033-30.481c-2.869-2.623-2.942-6.2-0.09-8.862c11.13-10.391,22.397-20.643,33.749-30.795
							c2.885-2.578,6.227-2.278,8.885,0.61c3.04,3.303,2.304,6.699-0.699,9.526c-7.461,7.025-14.922,14.058-22.661,20.768
							c-3.682,3.194-3.624,5.315,0.068,8.422c7.199,6.064,14.091,12.493,21.066,18.818
							C171.076,224.693,173.349,226.451,173.4,229.604z"/>
						<path class="st3" d="M233.091,236.017c-2.805-0.071-4.721-1.598-5.793-4.022c-1.448-3.274-0.052-5.873,2.395-8.11
							c6.948-6.358,13.598-13.084,20.909-18.988c5.505-4.447,4.639-7.304-0.309-11.334c-7.077-5.768-13.661-12.143-20.456-18.253
							c-3.243-2.918-4.975-6.314-1.692-10.079c3.57-4.09,7.229-2.703,10.785,0.501c9.885,8.892,19.777,17.776,29.821,26.487
							c5.327,4.62,5.887,8.863,0.369,13.758c-10.153,9.006-20.14,18.2-30.196,27.318
							C237.258,234.805,235.548,236.206,233.091,236.017z"/>
					</g>
				</g>
			</g>
		</g>
	</g>
</g>
<g>
</g>
<g>
</g>
<g>
</g>
<g>
</g>
<g>
</g>
<g>
</g>
<g>
</g>
<g>
</g>
<g>
</g>
<g>
</g>
<g>
</g>
<g>
</g>
<g>
</g>
<g>
</g>
<g>
</g>
</svg>
