<?xml version="1.0" encoding="utf-8"?>
<!-- Generator: Adobe Illustrator 26.0.1, SVG Export Plug-In . SVG Version: 6.00 Build 0)  -->
<svg version="1.1" id="Calque_1" xmlns="http://www.w3.org/2000/svg" xmlns:xlink="http://www.w3.org/1999/xlink" x="0px" y="0px"
	 viewBox="0 0 400 400" style="enable-background:new 0 0 400 400;" xml:space="preserve">
<style type="text/css">
	.st0{fill:#E07E64;}
	.st1{fill:#FDF8F7;}
	.st2{fill:#FCF6F4;}
	.st3{fill:#DF7A5F;}
</style>
<g>
	<g>
		<g>
			<path class="st0" d="M284.218,318.865c2.254,9.094,5.074,17.728-6.778,23.618c-12.097,6.011-19.373,0.324-27.135-7.482
				c-15.873-15.944-27.682-10.182-35.492,8.046c-4.161,9.701-6,19.963-20.384,18.68c-13.446-1.2-15.393-10.784-19.001-20.926
				c-6.871-19.302-18.951-23.526-35.349-9.239c-7.017,6.109-13.792,13.297-24.435,6.321c-10.506-6.881-10.821-15.627-7.852-27.01
				c6.145-23.53-6.534-30.377-27.366-26.951c-9.641,1.585-17.994,3.814-23.258-7.917c-4.707-10.471-1.244-17.674,6.159-24.79
				c19.381-18.615,11.527-30.376-10.047-38.374c-7.982-2.96-15.333-5.909-15.114-16.778c0.217-11.089,5.422-17.161,15.795-19.921
				c25.341-6.74,30.27-19.816,11.913-39.708c-6.161-6.679-9.44-13.628-3.329-22.14c6.216-8.668,13.707-10.838,24.314-7.726
				c24.613,7.233,32.8-4.578,29.222-27.637c-1.266-8.169-4.416-15.664,5.848-21.329c11.468-6.334,19.43-2.804,27.433,5.561
				c16.818,17.558,28.876,11.805,37.076-8.401c3.558-8.751,5.614-17.785,18.304-17.282c13.17,0.52,16.745,8.76,20.171,19.536
				c6.879,21.643,19.733,25.184,36.916,9.644c7.305-6.599,14.593-11.878,24.547-4.366c8.745,6.589,9.716,14.338,6.885,24.625
				c-6.993,25.461,6.354,32.101,28.602,28.225c8.598-1.501,15.812-3.22,20.926,6.794c5.104,9.994,3.368,17.608-4.375,24.983
				c-20.546,19.575-13.125,32.001,10.529,40.032c8.554,2.9,14.301,7.384,13.545,17.854c-0.689,9.692-5.205,15.528-14.281,17.822
				c-27.419,6.937-31.75,20.645-12.456,41.511c5.37,5.811,8.066,12.009,3.171,19.523c-5.667,8.698-12.617,12.878-23.563,9.413
				C292.219,285.754,281.494,294.305,284.218,318.865z"/>
			<path class="st1" d="M300.076,198.691c0.49,55.42-44.98,101.05-100.37,100.74c-54.01-0.3-98.69-44.85-99.16-98.84
				c-0.48-55.59,44.71-100.95,100.3-100.67C254.876,100.181,299.596,144.711,300.076,198.691z"/>
			<path class="st2" d="M201.566,174.821c13.89,2.81,23.26,10.52,22.99,24.77c-0.29,15.63-10.01,25.07-25.68,24.3
				c-13.94-0.68-23.04-9.88-22.84-24.11C176.256,184.041,186.426,176.281,201.566,174.821z"/>
			<g>
				<g>
					<g>
						<path class="st3" d="M219.515,154.478c-3.03,10.753-6.037,21.41-9.032,32.067c-5.466,19.455-10.952,38.902-16.366,58.373
							c-1.279,4.603-3.106,9.073-8.823,7.536c-5.452-1.467-5.505-5.764-4.08-10.748c8.373-29.276,16.537-58.614,24.701-87.949
							c1.216-4.371,2.982-8.18,8.312-7.261C218.417,147.217,220.012,150.383,219.515,154.478z"/>
						<path class="st3" d="M173.4,229.604c0.101,2.816-1.326,4.808-3.665,6.039c-2.407,1.268-4.913,1.035-6.974-0.799
							c-11.387-10.113-22.793-20.207-34.033-30.481c-2.869-2.623-2.942-6.2-0.09-8.862c11.13-10.391,22.397-20.643,33.749-30.795
							c2.885-2.578,6.227-2.278,8.885,0.61c3.04,3.303,2.304,6.699-0.699,9.526c-7.461,7.025-14.922,14.058-22.661,20.768
							c-3.682,3.194-3.624,5.315,0.068,8.422c7.199,6.064,14.091,12.493,21.066,18.818
							C171.076,224.693,173.349,226.451,173.4,229.604z"/>
						<path class="st3" d="M233.091,236.017c-2.805-0.071-4.721-1.598-5.793-4.022c-1.448-3.274-0.052-5.873,2.395-8.11
							c6.948-6.358,13.598-13.084,20.909-18.988c5.505-4.447,4.639-7.304-0.309-11.334c-7.077-5.768-13.661-12.143-20.456-18.253
							c-3.243-2.918-4.975-6.314-1.692-10.079c3.57-4.09,7.229-2.703,10.785,0.501c9.885,8.892,19.777,17.776,29.821,26.487
							c5.327,4.62,5.887,8.863,0.369,13.758c-10.153,9.006-20.14,18.2-30.196,27.318
							C237.258,234.805,235.548,236.206,233.091,236.017z"/>
					</g>
				</g>
			</g>
		</g>
	</g>
</g>
<g>
</g>
<g>
</g>
<g>
</g>
<g>
</g>
<g>
</g>
<g>
</g>
<g>
</g>
<g>
</g>
<g>
</g>
<g>
</g>
<g>
</g>
<g>
</g>
<g>
</g>
<g>
</g>
<g>
</g>
</svg>
