<?xml version="1.0" encoding="utf-8"?>
<!-- Generator: Adobe Illustrator 26.0.1, SVG Export Plug-In . SVG Version: 6.00 Build 0)  -->
<svg version="1.1" id="Calque_1" xmlns="http://www.w3.org/2000/svg" xmlns:xlink="http://www.w3.org/1999/xlink" x="0px" y="0px"
	 viewBox="0 0 400 400" style="enable-background:new 0 0 400 400;" xml:space="preserve">
<style type="text/css">
	.st0{fill:#E07E64;}
	.st1{fill:#FDF8F7;}
	.st2{fill:#FCF6F4;}
	.st3{fill:#DF7A5F;}
</style>
<g>
	<g>
		<g>
			<path class="st0" d="M184.77,54.718c2.438-9.047,4.156-17.965,17.379-17.37c13.495,0.607,17.101,9.109,20.106,19.699
				c6.153,21.64,19.274,22.326,34.943,10.17c8.342-6.467,14.926-14.551,26.885-6.455c11.179,7.568,8.235,16.894,6.474,27.514
				c-3.348,20.212,5.169,29.763,26.438,25.218c9.099-1.941,18.51-4.943,24.436,6.318c5.853,11.112,1.888,18.914-6.227,27.431
				c-16.782,17.601-9.012,29.736,10.869,36.84c9.201,3.288,17.587,5.388,16.504,18.2c-0.959,11.44-7.481,16.061-17.405,18.696
				c-25.976,6.885-24.809,20.979-9.817,38.434c5.546,6.459,10.546,12.602,5.085,22.001c-5.566,9.594-13.062,12.381-23.472,9.766
				c-25.431-6.391-36.082,2.656-29.67,28.954c2.15,8.828,1.65,16.496-7.822,20.978c-9.639,4.568-17.243,2.834-25.012-5.03
				c-18.02-18.259-30.907-11.898-38.957,10.005c-2.854,7.759-3.732,15.841-15.455,15.82c-13.101-0.02-18.353-6.968-21.297-18.163
				c-6.197-23.509-19.532-24.324-36.5-10.627c-7.354,5.929-13.533,12.833-24.388,6.241c-11.267-6.84-10.398-15.779-8.17-26.865
				c4.476-22.265-5.05-31.593-27.612-26.332c-9.588,2.23-18.522,3.314-23.586-8.082c-4.454-10.003-1.546-17.25,5.917-24.876
				c18.46-18.879,10.006-31.157-11.332-38.553c-8.247-2.856-15.391-4.849-15.008-16.087c0.381-11.216,5.591-17.033,15.938-19.729
				c27.46-7.16,26.994-21.626,10.199-40.117c-6.075-6.684-8.928-13.391-3.191-22.182c5.301-8.143,12.08-11.057,21.131-8.664
				c27.344,7.225,37.778-2.664,31.019-30.267c-1.88-7.686-1.233-14.414,6.692-18.612c9.173-4.86,17.278-5.146,25.172,3.19
				C161.72,79.798,175.246,77.519,184.77,54.718z"/>
			<path class="st1" d="M300.076,198.691c0.49,55.42-44.98,101.05-100.37,100.74c-54.01-0.3-98.69-44.85-99.16-98.84
				c-0.48-55.59,44.71-100.95,100.3-100.67C254.876,100.181,299.596,144.711,300.076,198.691z"/>
			<path class="st2" d="M201.566,174.821c13.89,2.81,23.26,10.52,22.99,24.77c-0.29,15.63-10.01,25.07-25.68,24.3
				c-13.94-0.68-23.04-9.88-22.84-24.11C176.256,184.041,186.426,176.281,201.566,174.821z"/>
			<g>
				<g>
					<g>
						<path class="st3" d="M219.515,154.478c-3.03,10.753-6.037,21.41-9.032,32.067c-5.466,19.455-10.952,38.902-16.366,58.373
							c-1.279,4.603-3.106,9.073-8.823,7.536c-5.452-1.467-5.505-5.764-4.08-10.748c8.373-29.276,16.537-58.614,24.701-87.949
							c1.216-4.371,2.982-8.18,8.312-7.261C218.417,147.217,220.012,150.383,219.515,154.478z"/>
						<path class="st3" d="M173.4,229.604c0.101,2.816-1.326,4.808-3.665,6.039c-2.407,1.268-4.913,1.035-6.974-0.799
							c-11.387-10.113-22.793-20.207-34.033-30.481c-2.869-2.623-2.942-6.2-0.09-8.862c11.13-10.391,22.397-20.643,33.749-30.795
							c2.885-2.578,6.227-2.278,8.885,0.61c3.04,3.303,2.304,6.699-0.699,9.526c-7.461,7.025-14.922,14.058-22.661,20.768
							c-3.682,3.194-3.624,5.315,0.068,8.422c7.199,6.064,14.091,12.493,21.066,18.818
							C171.076,224.693,173.349,226.451,173.4,229.604z"/>
						<path class="st3" d="M233.091,236.017c-2.805-0.071-4.721-1.598-5.793-4.022c-1.448-3.274-0.052-5.873,2.395-8.11
							c6.948-6.358,13.598-13.084,20.909-18.988c5.505-4.447,4.639-7.304-0.309-11.334c-7.077-5.768-13.661-12.143-20.456-18.253
							c-3.243-2.918-4.975-6.314-1.692-10.079c3.57-4.09,7.229-2.703,10.785,0.501c9.885,8.892,19.777,17.776,29.821,26.487
							c5.327,4.62,5.887,8.863,0.369,13.758c-10.153,9.006-20.14,18.2-30.196,27.318
							C237.258,234.805,235.548,236.206,233.091,236.017z"/>
					</g>
				</g>
			</g>
		</g>
	</g>
</g>
<g>
</g>
<g>
</g>
<g>
</g>
<g>
</g>
<g>
</g>
<g>
</g>
<g>
</g>
<g>
</g>
<g>
</g>
<g>
</g>
<g>
</g>
<g>
</g>
<g>
</g>
<g>
</g>
<g>
</g>
</svg>
