<?xml version="1.0" encoding="utf-8"?>
<!-- Generator: Adobe Illustrator 26.0.1, SVG Export Plug-In . SVG Version: 6.00 Build 0)  -->
<svg version="1.1" id="Calque_1" xmlns="http://www.w3.org/2000/svg" xmlns:xlink="http://www.w3.org/1999/xlink" x="0px" y="0px"
	 viewBox="0 0 400 400" style="enable-background:new 0 0 400 400;" xml:space="preserve">
<style type="text/css">
	.st0{fill:#E07E64;}
	.st1{fill:#FDF8F7;}
	.st2{fill:#FCF6F4;}
	.st3{fill:#DF7A5F;}
</style>
<g>
	<g>
		<g>
			<path class="st0" d="M335.366,144.747c9.368-0.15,18.415-0.956,21.488,11.917c3.136,13.139-4.042,18.949-13.394,24.757
				c-19.106,11.88-16.148,24.682-0.144,36.393c8.516,6.237,18.101,10.337,13.616,24.064c-4.194,12.832-13.97,12.573-24.664,13.807
				c-20.352,2.353-27.186,13.173-16.954,32.365c4.374,8.212,9.853,16.43,0.662,25.231c-9.068,8.689-17.661,7.029-28.085,1.575
				c-21.544-11.28-31.068-0.467-32.417,20.602c-0.625,9.75-0.331,18.391-12.945,20.881c-11.261,2.231-17.501-2.764-22.769-11.578
				c-13.778-23.072-27.005-18.065-39.651,1.157c-4.68,7.111-9.206,13.611-19.748,10.952c-10.756-2.706-15.502-9.144-15.857-19.871
				c-0.867-26.207-12.499-33.952-36.011-20.54c-7.894,4.5-15.402,6.133-22.321-1.736c-7.048-8.007-7.477-15.793-2.059-25.429
				c12.585-22.355,2.918-32.989-20.355-34.69c-8.244-0.604-16.256,0.779-19.467-10.496c-3.592-12.599,1.639-19.562,11.589-25.479
				c20.891-12.437,17.998-25.48,0.154-38.015c-7.727-5.435-16.066-9.471-12.721-21.723c3.469-12.715,12.302-14.345,23.573-15.259
				c22.636-1.834,28.978-13.562,17.701-33.8c-4.787-8.602-8.291-16.891,1.268-24.9c8.388-7.039,16.156-6.241,25.543-1.169
				c23.236,12.541,32.708,1.031,33.936-21.52c0.472-8.715,0.419-16.131,11.328-18.861c10.886-2.725,17.914,0.68,23.358,9.882
				c14.451,24.422,28.229,19.987,41.374-1.254c4.75-7.682,10.411-12.274,20.443-9.182c9.289,2.851,13.959,8.565,14.153,17.924
				c0.592,28.277,12.973,35.58,37.645,21.475c6.87-3.926,13.515-5.158,19.735,1.302c7.2,7.478,9.709,15.191,3.872,25.077
				C304.904,129.504,310.823,141.877,335.366,144.747z"/>
			<path class="st1" d="M300.076,198.691c0.49,55.42-44.98,101.05-100.37,100.74c-54.01-0.3-98.69-44.85-99.16-98.84
				c-0.48-55.59,44.71-100.95,100.3-100.67C254.876,100.181,299.596,144.711,300.076,198.691z"/>
			<path class="st2" d="M201.566,174.821c13.89,2.81,23.26,10.52,22.99,24.77c-0.29,15.63-10.01,25.07-25.68,24.3
				c-13.94-0.68-23.04-9.88-22.84-24.11C176.256,184.041,186.426,176.281,201.566,174.821z"/>
			<g>
				<g>
					<g>
						<path class="st3" d="M219.515,154.478c-3.03,10.753-6.037,21.41-9.032,32.067c-5.466,19.455-10.952,38.902-16.366,58.373
							c-1.279,4.603-3.106,9.073-8.823,7.536c-5.452-1.467-5.505-5.764-4.08-10.748c8.373-29.276,16.537-58.614,24.701-87.949
							c1.216-4.371,2.982-8.18,8.312-7.261C218.417,147.217,220.012,150.383,219.515,154.478z"/>
						<path class="st3" d="M173.4,229.604c0.101,2.816-1.326,4.808-3.665,6.039c-2.407,1.268-4.913,1.035-6.974-0.799
							c-11.387-10.113-22.793-20.207-34.033-30.481c-2.869-2.623-2.942-6.2-0.09-8.862c11.13-10.391,22.397-20.643,33.749-30.795
							c2.885-2.578,6.227-2.278,8.885,0.61c3.04,3.303,2.304,6.699-0.699,9.526c-7.461,7.025-14.922,14.058-22.661,20.768
							c-3.682,3.194-3.624,5.315,0.068,8.422c7.199,6.064,14.091,12.493,21.066,18.818
							C171.076,224.693,173.349,226.451,173.4,229.604z"/>
						<path class="st3" d="M233.091,236.017c-2.805-0.071-4.721-1.598-5.793-4.022c-1.448-3.274-0.052-5.873,2.395-8.11
							c6.948-6.358,13.598-13.084,20.909-18.988c5.505-4.447,4.639-7.304-0.309-11.334c-7.077-5.768-13.661-12.143-20.456-18.253
							c-3.243-2.918-4.975-6.314-1.692-10.079c3.57-4.09,7.229-2.703,10.785,0.501c9.885,8.892,19.777,17.776,29.821,26.487
							c5.327,4.62,5.887,8.863,0.369,13.758c-10.153,9.006-20.14,18.2-30.196,27.318
							C237.258,234.805,235.548,236.206,233.091,236.017z"/>
					</g>
				</g>
			</g>
		</g>
	</g>
</g>
<g>
</g>
<g>
</g>
<g>
</g>
<g>
</g>
<g>
</g>
<g>
</g>
<g>
</g>
<g>
</g>
<g>
</g>
<g>
</g>
<g>
</g>
<g>
</g>
<g>
</g>
<g>
</g>
<g>
</g>
</svg>
