<?xml version="1.0" encoding="utf-8"?>
<!-- Generator: Adobe Illustrator 26.0.1, SVG Export Plug-In . SVG Version: 6.00 Build 0)  -->
<svg version="1.1" id="Calque_1" xmlns="http://www.w3.org/2000/svg" xmlns:xlink="http://www.w3.org/1999/xlink" x="0px" y="0px"
	 viewBox="0 0 400 400" style="enable-background:new 0 0 400 400;" xml:space="preserve">
<style type="text/css">
	.st0{fill:#E07E64;}
	.st1{fill:#FDF8F7;}
	.st2{fill:#FCF6F4;}
	.st3{fill:#DF7A5F;}
</style>
<g>
	<g>
		<g>
			<path class="st0" d="M333.641,258.639c6.616,6.634,13.48,12.582,6.354,23.736c-7.273,11.383-16.439,10.256-27.113,7.563
				c-21.818-5.491-28.972,5.529-26.279,25.177c1.429,10.458,5.138,20.202-7.852,26.511c-12.144,5.897-18.748-1.315-27.065-8.151
				c-15.83-13.006-28.36-10.405-35.059,10.287c-2.869,8.851-4.974,18.501-17.69,18.003c-12.55-0.487-17.324-7.822-20.642-19.108
				c-6.852-23.334-21.246-22.673-37.338-9.007c-7.448,6.324-13.459,12.537-24.013,5.193c-9.428-6.551-10.169-14.509-7.489-24.421
				c7.026-25.938-5.764-31.974-28.376-27.718c-8.366,1.573-16.186,2.832-21.596-6.597c-5.525-9.617-4.191-17.503,3.279-25.21
				c18.25-18.828,15.741-32.576-10.24-40.172c-8.721-2.552-15.111-6.819-14.257-17.263c0.864-10.632,6.167-16.35,16.862-19.145
				c24.823-6.476,25.757-20.817,10.814-38.74c-5.292-6.35-11.853-11.152-5.973-21.294c6.568-11.335,15.211-12.41,26.378-9.362
				c23.458,6.388,30.831-4.753,27.453-26.297c-1.458-9.334-4.348-18.136,6.789-24.241c11.557-6.337,18.864-1.116,27.351,6.357
				c17.043,15.009,29.885,11.424,36.61-10.746c2.863-9.419,6.391-17.698,18.793-16.385c10.89,1.144,15.712,7.286,18.584,17.562
				c7.12,25.426,21.979,24.244,39.054,9.463c6.597-5.715,11.895-10.904,21.436-4.954c9.523,5.938,11.955,13.359,9.117,23.667
				c-7.529,27.361,5.232,34.19,29.643,28.891c8.826-1.92,16.061-1.037,20.806,8.327c4.401,8.662,3.536,15.991-3.062,22.632
				c-19.93,20.068-16.582,34.048,10.702,41.997c7.596,2.215,13.099,6.139,12.773,15.101c-0.378,10.374-4.183,17.536-15.349,20.205
				C323.446,226.137,318.657,238.99,333.641,258.639z"/>
			<path class="st1" d="M300.076,198.691c0.49,55.42-44.98,101.05-100.37,100.74c-54.01-0.3-98.69-44.85-99.16-98.84
				c-0.48-55.59,44.71-100.95,100.3-100.67C254.876,100.181,299.596,144.711,300.076,198.691z"/>
			<path class="st2" d="M201.566,174.821c13.89,2.81,23.26,10.52,22.99,24.77c-0.29,15.63-10.01,25.07-25.68,24.3
				c-13.94-0.68-23.04-9.88-22.84-24.11C176.256,184.041,186.426,176.281,201.566,174.821z"/>
			<g>
				<g>
					<g>
						<path class="st3" d="M219.515,154.478c-3.03,10.753-6.037,21.41-9.032,32.067c-5.466,19.455-10.952,38.902-16.366,58.373
							c-1.279,4.603-3.106,9.073-8.823,7.536c-5.452-1.467-5.505-5.764-4.08-10.748c8.373-29.276,16.537-58.614,24.701-87.949
							c1.216-4.371,2.982-8.18,8.312-7.261C218.417,147.217,220.012,150.383,219.515,154.478z"/>
						<path class="st3" d="M173.4,229.604c0.101,2.816-1.326,4.808-3.665,6.039c-2.407,1.268-4.913,1.035-6.974-0.799
							c-11.387-10.113-22.793-20.207-34.033-30.481c-2.869-2.623-2.942-6.2-0.09-8.862c11.13-10.391,22.397-20.643,33.749-30.795
							c2.885-2.578,6.227-2.278,8.885,0.61c3.04,3.303,2.304,6.699-0.699,9.526c-7.461,7.025-14.922,14.058-22.661,20.768
							c-3.682,3.194-3.624,5.315,0.068,8.422c7.199,6.064,14.091,12.493,21.066,18.818
							C171.076,224.693,173.349,226.451,173.4,229.604z"/>
						<path class="st3" d="M233.091,236.017c-2.805-0.071-4.721-1.598-5.793-4.022c-1.448-3.274-0.052-5.873,2.395-8.11
							c6.948-6.358,13.598-13.084,20.909-18.988c5.505-4.447,4.639-7.304-0.309-11.334c-7.077-5.768-13.661-12.143-20.456-18.253
							c-3.243-2.918-4.975-6.314-1.692-10.079c3.57-4.09,7.229-2.703,10.785,0.501c9.885,8.892,19.777,17.776,29.821,26.487
							c5.327,4.62,5.887,8.863,0.369,13.758c-10.153,9.006-20.14,18.2-30.196,27.318
							C237.258,234.805,235.548,236.206,233.091,236.017z"/>
					</g>
				</g>
			</g>
		</g>
	</g>
</g>
<g>
</g>
<g>
</g>
<g>
</g>
<g>
</g>
<g>
</g>
<g>
</g>
<g>
</g>
<g>
</g>
<g>
</g>
<g>
</g>
<g>
</g>
<g>
</g>
<g>
</g>
<g>
</g>
<g>
</g>
</svg>
