<?xml version="1.0" encoding="utf-8"?>
<!-- Generator: Adobe Illustrator 26.0.1, SVG Export Plug-In . SVG Version: 6.00 Build 0)  -->
<svg version="1.1" id="Calque_1" xmlns="http://www.w3.org/2000/svg" xmlns:xlink="http://www.w3.org/1999/xlink" x="0px" y="0px"
	 viewBox="0 0 400 400" style="enable-background:new 0 0 400 400;" xml:space="preserve">
<style type="text/css">
	.st0{fill:#E07E64;}
	.st1{fill:#FDF8F7;}
	.st2{fill:#FCF6F4;}
	.st3{fill:#DF7A5F;}
</style>
<g>
	<g>
		<g>
			<path class="st0" d="M55.943,179.705c-8.188-4.554-16.426-8.379-12.65-21.065c3.854-12.947,12.975-14.39,23.978-14.743
				c22.486-0.735,26.326-13.301,18.321-31.445c-4.257-9.659-10.508-18.003,0.24-27.648c10.048-9.016,18.385-3.903,28.263,0.375
				c18.802,8.139,30.13,2.185,30.865-19.551c0.318-9.298-0.318-19.156,12.042-22.182c12.198-2.991,18.809,2.744,25.109,12.678
				c13.018,20.541,26.672,15.938,38.375-1.633c5.416-8.132,9.482-15.761,21.652-11.611c10.868,3.698,13.774,11.144,13.93,21.411
				c0.396,26.87,14.354,29.147,34.917,18.823c7.608-3.818,14.779-7.184,22.578,0.389c7.962,7.722,8.853,15.669,3.797,25.138
				c-12.353,23.129-6.152,35.652,20.916,35.794c9.086,0.049,16.405,2.39,18.463,12.664c2.1,10.458-1.421,17.416-10.932,23.052
				c-22.076,13.067-19.021,27.11,0.283,40.22c6.838,4.646,14.467,7.453,11.611,18.823c-3.189,12.707-11.201,16.122-22.776,16.271
				c-24.31,0.325-28.327,13.067-19.141,32.845c3.974,8.57,9.178,16.235,0.156,25.173c-9.362,9.277-17.826,6.272-28.044,1.428
				c-20.52-9.73-31.876-2.744-32.23,20.421c-0.156,9.843-1.266,18.774-13.548,20.93c-10.783,1.902-17.112-2.673-22.705-11.759
				c-13.852-22.479-27.811-17.246-40.15,1.669c-4.766,7.311-8.429,13.76-19.24,10.67c-10.79-3.083-15.175-9.546-15.288-20.237
				c-0.304-28.376-14.453-31.424-36.458-19.601c-7.955,4.278-15.153,5.423-22.295-2.27c-6.619-7.114-7.806-14.397-3.295-22.599
				c13.626-24.784,6.555-37.3-21.864-37.42c-7.913-0.035-14.284-2.291-16.44-10.996c-2.496-10.076-0.813-18.01,9.185-23.653
				C74.703,208.138,75.763,194.463,55.943,179.705z"/>
			<path class="st1" d="M300.076,198.691c0.49,55.42-44.98,101.05-100.37,100.74c-54.01-0.3-98.69-44.85-99.16-98.84
				c-0.48-55.59,44.71-100.95,100.3-100.67C254.876,100.181,299.596,144.711,300.076,198.691z"/>
			<path class="st2" d="M201.566,174.821c13.89,2.81,23.26,10.52,22.99,24.77c-0.29,15.63-10.01,25.07-25.68,24.3
				c-13.94-0.68-23.04-9.88-22.84-24.11C176.256,184.041,186.426,176.281,201.566,174.821z"/>
			<g>
				<g>
					<g>
						<path class="st3" d="M219.515,154.478c-3.03,10.753-6.037,21.41-9.032,32.067c-5.466,19.455-10.952,38.902-16.366,58.373
							c-1.279,4.603-3.106,9.073-8.823,7.536c-5.452-1.467-5.505-5.764-4.08-10.748c8.373-29.276,16.537-58.614,24.701-87.949
							c1.216-4.371,2.982-8.18,8.312-7.261C218.417,147.217,220.012,150.383,219.515,154.478z"/>
						<path class="st3" d="M173.4,229.604c0.101,2.816-1.326,4.808-3.665,6.039c-2.407,1.268-4.913,1.035-6.974-0.799
							c-11.387-10.113-22.793-20.207-34.033-30.481c-2.869-2.623-2.942-6.2-0.09-8.862c11.13-10.391,22.397-20.643,33.749-30.795
							c2.885-2.578,6.227-2.278,8.885,0.61c3.04,3.303,2.304,6.699-0.699,9.526c-7.461,7.025-14.922,14.058-22.661,20.768
							c-3.682,3.194-3.624,5.315,0.068,8.422c7.199,6.064,14.091,12.493,21.066,18.818
							C171.076,224.693,173.349,226.451,173.4,229.604z"/>
						<path class="st3" d="M233.091,236.017c-2.805-0.071-4.721-1.598-5.793-4.022c-1.448-3.274-0.052-5.873,2.395-8.11
							c6.948-6.358,13.598-13.084,20.909-18.988c5.505-4.447,4.639-7.304-0.309-11.334c-7.077-5.768-13.661-12.143-20.456-18.253
							c-3.243-2.918-4.975-6.314-1.692-10.079c3.57-4.09,7.229-2.703,10.785,0.501c9.885,8.892,19.777,17.776,29.821,26.487
							c5.327,4.62,5.887,8.863,0.369,13.758c-10.153,9.006-20.14,18.2-30.196,27.318
							C237.258,234.805,235.548,236.206,233.091,236.017z"/>
					</g>
				</g>
			</g>
		</g>
	</g>
</g>
<g>
</g>
<g>
</g>
<g>
</g>
<g>
</g>
<g>
</g>
<g>
</g>
<g>
</g>
<g>
</g>
<g>
</g>
<g>
</g>
<g>
</g>
<g>
</g>
<g>
</g>
<g>
</g>
<g>
</g>
</svg>
