<?xml version="1.0" encoding="utf-8"?>
<!-- Generator: Adobe Illustrator 26.0.1, SVG Export Plug-In . SVG Version: 6.00 Build 0)  -->
<svg version="1.1" id="Calque_1" xmlns="http://www.w3.org/2000/svg" xmlns:xlink="http://www.w3.org/1999/xlink" x="0px" y="0px"
	 viewBox="0 0 400 400" style="enable-background:new 0 0 400 400;" xml:space="preserve">
<style type="text/css">
	.st0{fill:#E07E64;}
	.st1{fill:#FDF8F7;}
	.st2{fill:#FCF6F4;}
	.st3{fill:#DF7A5F;}
</style>
<g>
	<g>
		<g>
			<path class="st0" d="M148.416,335.859c-6.279,6.954-11.86,14.12-23.37,7.587c-11.748-6.667-11.102-15.88-8.971-26.68
				c4.342-22.075-7.038-28.643-26.518-24.925c-10.369,1.975-19.905,6.189-26.885-6.454c-6.524-11.819,0.332-18.792,6.723-27.454
				c12.16-16.489,8.907-28.866-12.107-34.472c-8.989-2.402-18.736-3.999-18.905-16.723c-0.171-12.558,6.904-17.71,18.002-21.614
				c22.943-8.063,21.53-22.403,7.041-37.759c-6.705-7.107-13.224-12.785-6.443-23.709c6.048-9.758,13.957-10.915,23.996-8.757
				c26.27,5.659,31.629-7.43,26.195-29.788c-2.009-8.272-3.676-16.016,5.458-21.912c9.315-6.021,17.259-5.101,25.348,1.955
				c19.758,17.24,33.355,14.014,39.581-12.328c2.092-8.842,6.019-15.447,16.493-15.141c10.662,0.306,16.65,5.303,20.002,15.837
				c7.766,24.45,22.137,24.632,39.253,8.772c6.065-5.617,10.516-12.42,20.953-7.079c11.664,5.966,13.189,14.54,10.73,25.852
				c-5.152,23.76,6.36,30.54,27.697,26.039c9.244-1.944,17.884-5.291,24.563,5.511c6.933,11.209,2.101,18.78-4.917,27.646
				c-14.096,17.806-9.844,30.442,12.648,35.998c9.556,2.366,18.008,5.456,17.346,17.909c-0.572,10.935-6.454,16.072-16.565,19.478
				c-25.019,8.441-23.06,23.218-7.406,39.496c6.052,6.288,11.512,11.308,6.069,21.148c-5.431,9.82-12.715,12.638-23.158,10.343
				c-27.717-6.087-33.87,7.014-27.3,31.115c2.379,8.713,1.876,15.985-7.227,21.213c-8.42,4.849-15.784,4.368-22.761-1.873
				c-21.084-18.852-34.869-14.777-41.379,12.886c-1.814,7.702-5.445,13.402-14.412,13.545c-10.38,0.165-17.731-3.259-20.98-14.271
				C180.34,323.976,167.254,319.866,148.416,335.859z"/>
			<path class="st1" d="M300.076,198.691c0.49,55.42-44.98,101.05-100.37,100.74c-54.01-0.3-98.69-44.85-99.16-98.84
				c-0.48-55.59,44.71-100.95,100.3-100.67C254.876,100.181,299.596,144.711,300.076,198.691z"/>
			<path class="st2" d="M201.566,174.821c13.89,2.81,23.26,10.52,22.99,24.77c-0.29,15.63-10.01,25.07-25.68,24.3
				c-13.94-0.68-23.04-9.88-22.84-24.11C176.256,184.041,186.426,176.281,201.566,174.821z"/>
			<g>
				<g>
					<g>
						<path class="st3" d="M219.515,154.478c-3.03,10.753-6.037,21.41-9.032,32.067c-5.466,19.455-10.952,38.902-16.366,58.373
							c-1.279,4.603-3.106,9.073-8.823,7.536c-5.452-1.467-5.505-5.764-4.08-10.748c8.373-29.276,16.537-58.614,24.701-87.949
							c1.216-4.371,2.982-8.18,8.312-7.261C218.417,147.217,220.012,150.383,219.515,154.478z"/>
						<path class="st3" d="M173.4,229.604c0.101,2.816-1.326,4.808-3.665,6.039c-2.407,1.268-4.913,1.035-6.974-0.799
							c-11.387-10.113-22.793-20.207-34.033-30.481c-2.869-2.623-2.942-6.2-0.09-8.862c11.13-10.391,22.397-20.643,33.749-30.795
							c2.885-2.578,6.227-2.278,8.885,0.61c3.04,3.303,2.304,6.699-0.699,9.526c-7.461,7.025-14.922,14.058-22.661,20.768
							c-3.682,3.194-3.624,5.315,0.068,8.422c7.199,6.064,14.091,12.493,21.066,18.818
							C171.076,224.693,173.349,226.451,173.4,229.604z"/>
						<path class="st3" d="M233.091,236.017c-2.805-0.071-4.721-1.598-5.793-4.022c-1.448-3.274-0.052-5.873,2.395-8.11
							c6.948-6.358,13.598-13.084,20.909-18.988c5.505-4.447,4.639-7.304-0.309-11.334c-7.077-5.768-13.661-12.143-20.456-18.253
							c-3.243-2.918-4.975-6.314-1.692-10.079c3.57-4.09,7.229-2.703,10.785,0.501c9.885,8.892,19.777,17.776,29.821,26.487
							c5.327,4.62,5.887,8.863,0.369,13.758c-10.153,9.006-20.14,18.2-30.196,27.318
							C237.258,234.805,235.548,236.206,233.091,236.017z"/>
					</g>
				</g>
			</g>
		</g>
	</g>
</g>
<g>
</g>
<g>
</g>
<g>
</g>
<g>
</g>
<g>
</g>
<g>
</g>
<g>
</g>
<g>
</g>
<g>
</g>
<g>
</g>
<g>
</g>
<g>
</g>
<g>
</g>
<g>
</g>
<g>
</g>
</svg>
