<?xml version="1.0" encoding="utf-8"?>
<!-- Generator: Adobe Illustrator 26.0.1, SVG Export Plug-In . SVG Version: 6.00 Build 0)  -->
<svg version="1.1" id="Calque_1" xmlns="http://www.w3.org/2000/svg" xmlns:xlink="http://www.w3.org/1999/xlink" x="0px" y="0px"
	 viewBox="0 0 400 400" style="enable-background:new 0 0 400 400;" xml:space="preserve">
<style type="text/css">
	.st0{fill:#E07E64;}
	.st1{fill:#FDF8F7;}
	.st2{fill:#FCF6F4;}
	.st3{fill:#DF7A5F;}
</style>
<g>
	<g>
		<g>
			<path class="st0" d="M247.481,61.718c6.033-7.169,11.36-14.525,23.091-8.398c11.974,6.253,11.649,15.483,9.897,26.351
				c-3.569,22.213,8.033,28.38,27.371,23.985c10.294-2.336,19.677-6.879,27.094,5.511c6.933,11.584,0.324,18.792-5.761,27.672
				c-11.577,16.904-7.894,29.159,13.303,34.029c9.067,2.087,18.864,3.343,19.477,16.053c0.609,12.544-6.282,17.94-17.237,22.229
				c-22.648,8.859-20.735,23.141-5.719,37.981c6.949,6.869,13.663,12.316,7.266,23.469c-5.704,9.963-13.568,11.395-23.676,9.589
				c-26.452-4.738-31.35,8.529-25.14,30.684c2.296,8.197,4.232,15.878-4.69,22.089c-9.099,6.342-17.071,5.7-25.4-1.069
				c-20.347-16.539-33.823-12.842-39.127,13.702c-1.782,8.91-5.476,15.647-15.954,15.707c-10.667,0.066-16.825-4.718-20.542-15.129
				c-8.615-24.164-22.983-23.845-39.535-7.397c-5.865,5.826-10.076,12.78-20.693,7.806c-11.865-5.555-13.689-14.071-11.626-25.462
				c4.319-23.926-7.422-30.3-28.589-25.057c-9.171,2.266-17.688,5.912-24.74-4.651c-7.32-10.96-2.755-18.695,3.949-27.801
				c13.466-18.287,8.775-30.767-13.896-35.534c-9.632-2.031-18.187-4.825-17.961-17.293c0.19-10.948,5.889-16.288,15.875-20.044
				c24.709-9.309,22.236-24.009,6.023-39.73c-6.268-6.073-11.899-10.899-6.803-20.923c5.085-10.004,12.266-13.074,22.783-11.145
				c27.913,5.116,33.604-8.192,26.197-32.049c-2.682-8.625-2.432-15.91,6.482-21.452c8.246-5.14,15.622-4.916,22.813,1.078
				c21.729,18.105,35.364,13.552,40.904-14.322c1.544-7.76,4.974-13.584,13.93-14.04c10.367-0.528,17.834,2.638,21.466,13.53
				C215.991,74.708,229.213,78.358,247.481,61.718z"/>
			<path class="st1" d="M300.076,198.691c0.49,55.42-44.98,101.05-100.37,100.74c-54.01-0.3-98.69-44.85-99.16-98.84
				c-0.48-55.59,44.71-100.95,100.3-100.67C254.876,100.181,299.596,144.711,300.076,198.691z"/>
			<path class="st2" d="M201.566,174.821c13.89,2.81,23.26,10.52,22.99,24.77c-0.29,15.63-10.01,25.07-25.68,24.3
				c-13.94-0.68-23.04-9.88-22.84-24.11C176.256,184.041,186.426,176.281,201.566,174.821z"/>
			<g>
				<g>
					<g>
						<path class="st3" d="M219.515,154.478c-3.03,10.753-6.037,21.41-9.032,32.067c-5.466,19.455-10.952,38.902-16.366,58.373
							c-1.279,4.603-3.106,9.073-8.823,7.536c-5.452-1.467-5.505-5.764-4.08-10.748c8.373-29.276,16.537-58.614,24.701-87.949
							c1.216-4.371,2.982-8.18,8.312-7.261C218.417,147.217,220.012,150.383,219.515,154.478z"/>
						<path class="st3" d="M173.4,229.604c0.101,2.816-1.326,4.808-3.665,6.039c-2.407,1.268-4.913,1.035-6.974-0.799
							c-11.387-10.113-22.793-20.207-34.033-30.481c-2.869-2.623-2.942-6.2-0.09-8.862c11.13-10.391,22.397-20.643,33.749-30.795
							c2.885-2.578,6.227-2.278,8.885,0.61c3.04,3.303,2.304,6.699-0.699,9.526c-7.461,7.025-14.922,14.058-22.661,20.768
							c-3.682,3.194-3.624,5.315,0.068,8.422c7.199,6.064,14.091,12.493,21.066,18.818
							C171.076,224.693,173.349,226.451,173.4,229.604z"/>
						<path class="st3" d="M233.091,236.017c-2.805-0.071-4.721-1.598-5.793-4.022c-1.448-3.274-0.052-5.873,2.395-8.11
							c6.948-6.358,13.598-13.084,20.909-18.988c5.505-4.447,4.639-7.304-0.309-11.334c-7.077-5.768-13.661-12.143-20.456-18.253
							c-3.243-2.918-4.975-6.314-1.692-10.079c3.57-4.09,7.229-2.703,10.785,0.501c9.885,8.892,19.777,17.776,29.821,26.487
							c5.327,4.62,5.887,8.863,0.369,13.758c-10.153,9.006-20.14,18.2-30.196,27.318
							C237.258,234.805,235.548,236.206,233.091,236.017z"/>
					</g>
				</g>
			</g>
		</g>
	</g>
</g>
<g>
</g>
<g>
</g>
<g>
</g>
<g>
</g>
<g>
</g>
<g>
</g>
<g>
</g>
<g>
</g>
<g>
</g>
<g>
</g>
<g>
</g>
<g>
</g>
<g>
</g>
<g>
</g>
<g>
</g>
</svg>
