<?xml version="1.0" encoding="utf-8"?>
<!-- Generator: Adobe Illustrator 26.0.1, SVG Export Plug-In . SVG Version: 6.00 Build 0)  -->
<svg version="1.1" id="Calque_1" xmlns="http://www.w3.org/2000/svg" xmlns:xlink="http://www.w3.org/1999/xlink" x="0px" y="0px"
	 viewBox="0 0 400 400" style="enable-background:new 0 0 400 400;" xml:space="preserve">
<style type="text/css">
	.st0{fill:#E07E64;}
	.st1{fill:#FDF8F7;}
	.st2{fill:#FCF6F4;}
	.st3{fill:#DF7A5F;}
</style>
<g>
	<g>
		<g>
			<path class="st0" d="M60.127,159.8c-7.475-5.649-15.1-10.584-9.595-22.62c5.618-12.285,14.852-12.444,25.796-11.263
				c22.37,2.401,27.92-9.507,22.519-28.589c-2.871-10.158-7.9-19.29,4.086-27.345c11.205-7.529,18.749-1.307,27.936,4.305
				c17.486,10.676,29.533,6.357,33.286-15.066c1.609-9.164,2.351-19.013,15.012-20.29c12.495-1.264,18.244,5.335,23.101,16.05
				c10.032,22.153,24.194,19.495,38.229,3.723c6.495-7.299,11.584-14.288,23.057-8.484c10.248,5.175,12.089,12.953,10.815,23.142
				c-3.347,26.664,10.158,30.861,31.957,23.499c8.066-2.722,15.635-5.058,22.304,3.527c6.81,8.755,6.586,16.749,0.262,25.421
				c-15.452,21.185-11.054,34.449,15.731,38.356c8.991,1.314,15.913,4.65,16.52,15.111c0.624,10.649-3.831,17.049-14.034,21.306
				c-23.68,9.868-22.609,24.199-5.317,39.868c6.125,5.552,13.289,9.394,8.878,20.256c-4.926,12.139-13.335,14.406-24.819,12.942
				c-24.119-3.061-29.87,8.998-23.526,29.862c2.743,9.04,6.829,17.355-3.349,24.95c-10.562,7.884-18.526,3.73-27.97-2.488
				c-18.966-12.491-31.184-7.153-34.758,15.737c-1.524,9.725-3.866,18.415-16.329,18.841c-10.943,0.383-16.573-5.028-20.848-14.805
				c-10.589-24.188-25.14-20.949-39.991-3.935c-5.737,6.577-10.262,12.453-20.538,7.889c-10.256-4.555-13.698-11.565-12.322-22.168
				c3.648-28.142-9.939-33.13-33.376-24.484c-8.473,3.129-15.761,3.262-21.762-5.351c-5.564-7.965-5.727-15.343-0.118-22.838
				c16.943-22.647,11.682-36.025-16.443-40.099c-7.831-1.136-13.826-4.257-14.75-13.177c-1.069-10.326,1.701-17.948,12.388-22.144
				C74.747,190.567,77.701,177.173,60.127,159.8z"/>
			<path class="st1" d="M300.076,198.691c0.49,55.42-44.98,101.05-100.37,100.74c-54.01-0.3-98.69-44.85-99.16-98.84
				c-0.48-55.59,44.71-100.95,100.3-100.67C254.876,100.181,299.596,144.711,300.076,198.691z"/>
			<path class="st2" d="M201.566,174.821c13.89,2.81,23.26,10.52,22.99,24.77c-0.29,15.63-10.01,25.07-25.68,24.3
				c-13.94-0.68-23.04-9.88-22.84-24.11C176.256,184.041,186.426,176.281,201.566,174.821z"/>
			<g>
				<g>
					<g>
						<path class="st3" d="M219.515,154.478c-3.03,10.753-6.037,21.41-9.032,32.067c-5.466,19.455-10.952,38.902-16.366,58.373
							c-1.279,4.603-3.106,9.073-8.823,7.536c-5.452-1.467-5.505-5.764-4.08-10.748c8.373-29.276,16.537-58.614,24.701-87.949
							c1.216-4.371,2.982-8.18,8.312-7.261C218.417,147.217,220.012,150.383,219.515,154.478z"/>
						<path class="st3" d="M173.4,229.604c0.101,2.816-1.326,4.808-3.665,6.039c-2.407,1.268-4.913,1.035-6.974-0.799
							c-11.387-10.113-22.793-20.207-34.033-30.481c-2.869-2.623-2.942-6.2-0.09-8.862c11.13-10.391,22.397-20.643,33.749-30.795
							c2.885-2.578,6.227-2.278,8.885,0.61c3.04,3.303,2.304,6.699-0.699,9.526c-7.461,7.025-14.922,14.058-22.661,20.768
							c-3.682,3.194-3.624,5.315,0.068,8.422c7.199,6.064,14.091,12.493,21.066,18.818
							C171.076,224.693,173.349,226.451,173.4,229.604z"/>
						<path class="st3" d="M233.091,236.017c-2.805-0.071-4.721-1.598-5.793-4.022c-1.448-3.274-0.052-5.873,2.395-8.11
							c6.948-6.358,13.598-13.084,20.909-18.988c5.505-4.447,4.639-7.304-0.309-11.334c-7.077-5.768-13.661-12.143-20.456-18.253
							c-3.243-2.918-4.975-6.314-1.692-10.079c3.57-4.09,7.229-2.703,10.785,0.501c9.885,8.892,19.777,17.776,29.821,26.487
							c5.327,4.62,5.887,8.863,0.369,13.758c-10.153,9.006-20.14,18.2-30.196,27.318
							C237.258,234.805,235.548,236.206,233.091,236.017z"/>
					</g>
				</g>
			</g>
		</g>
	</g>
</g>
<g>
</g>
<g>
</g>
<g>
</g>
<g>
</g>
<g>
</g>
<g>
</g>
<g>
</g>
<g>
</g>
<g>
</g>
<g>
</g>
<g>
</g>
<g>
</g>
<g>
</g>
<g>
</g>
<g>
</g>
</svg>
