<?xml version="1.0" encoding="utf-8"?>
<!-- Generator: Adobe Illustrator 26.0.1, SVG Export Plug-In . SVG Version: 6.00 Build 0)  -->
<svg version="1.1" id="Calque_1" xmlns="http://www.w3.org/2000/svg" xmlns:xlink="http://www.w3.org/1999/xlink" x="0px" y="0px"
	 viewBox="0 0 400 400" style="enable-background:new 0 0 400 400;" xml:space="preserve">
<style type="text/css">
	.st0{fill:#E07E64;}
	.st1{fill:#FDF8F7;}
	.st2{fill:#FCF6F4;}
	.st3{fill:#DF7A5F;}
</style>
<g>
	<g>
		<g>
			<path class="st0" d="M301.362,94.571c8.497-3.948,16.434-8.364,24.477,2.147c8.209,10.728,4.015,18.955-2.166,28.064
				c-12.622,18.624-4.713,29.116,14.671,33.305c10.316,2.234,20.741,2.081,22.226,16.446c1.388,13.428-7.648,17.168-16.916,22.645
				c-17.636,10.427-19.478,23.091-2.325,36.463c7.336,5.723,15.684,11.002,10.867,22.78c-4.75,11.626-13.275,13.604-25.016,12.862
				c-24.27-1.542-28.572,12.21-21.235,32.006c3.395,9.162,7.178,16.936-3.333,24.341c-9.38,6.619-17.112,4.593-25.51-1.316
				c-21.971-15.473-32.018-5.519-35.752,17.184c-1.383,8.4-2.874,16.179-13.586,18.037c-10.927,1.903-17.881-2.048-22.569-11.704
				c-11.451-23.589-25.227-25.933-41.252-4.117c-5.381,7.322-11.576,11.867-21.098,7.493c-9.695-4.448-13.254-11.387-12.224-22.393
				c2.404-25.541-10.752-31.324-32.705-23.412c-7.778,2.801-14.533,7.324-22.053-1.671c-8.405-10.049-6.459-18.538,0.224-27.99
				c14.026-19.859,6.078-30.598-15.321-34.792c-9.269-1.822-18.529-2.117-20.457-14.67c-2.003-13.027,5.404-18.108,15.328-23.528
				c19.933-10.882,20.956-24.176,2.423-38.078c-7.872-5.911-14.444-12.059-8.97-23.263c4.799-9.842,12.221-12.273,22.859-11.457
				c26.328,2.006,30.299-12.362,22.249-33.463c-3.114-8.153-6.178-14.907,2.677-21.838c8.837-6.918,16.642-6.665,25.358-0.473
				c23.136,16.433,33.918,6.778,37.287-17.974c1.215-8.95,4.519-15.447,14.941-16.703c9.645-1.173,16.236,2.147,20.22,10.618
				c12.042,25.591,26.323,27.227,43.125,4.307c4.679-6.381,10.249-10.209,18.559-6.837c9.619,3.903,15.048,9.928,13.736,21.334
				C267.333,93.036,277.773,101.932,301.362,94.571z"/>
			<path class="st1" d="M300.076,198.691c0.49,55.42-44.98,101.05-100.37,100.74c-54.01-0.3-98.69-44.85-99.16-98.84
				c-0.48-55.59,44.71-100.95,100.3-100.67C254.876,100.181,299.596,144.711,300.076,198.691z"/>
			<path class="st2" d="M201.566,174.821c13.89,2.81,23.26,10.52,22.99,24.77c-0.29,15.63-10.01,25.07-25.68,24.3
				c-13.94-0.68-23.04-9.88-22.84-24.11C176.256,184.041,186.426,176.281,201.566,174.821z"/>
			<g>
				<g>
					<g>
						<path class="st3" d="M219.515,154.478c-3.03,10.753-6.037,21.41-9.032,32.067c-5.466,19.455-10.952,38.902-16.366,58.373
							c-1.279,4.603-3.106,9.073-8.823,7.536c-5.452-1.467-5.505-5.764-4.08-10.748c8.373-29.276,16.537-58.614,24.701-87.949
							c1.216-4.371,2.982-8.18,8.312-7.261C218.417,147.217,220.012,150.383,219.515,154.478z"/>
						<path class="st3" d="M173.4,229.604c0.101,2.816-1.326,4.808-3.665,6.039c-2.407,1.268-4.913,1.035-6.974-0.799
							c-11.387-10.113-22.793-20.207-34.033-30.481c-2.869-2.623-2.942-6.2-0.09-8.862c11.13-10.391,22.397-20.643,33.749-30.795
							c2.885-2.578,6.227-2.278,8.885,0.61c3.04,3.303,2.304,6.699-0.699,9.526c-7.461,7.025-14.922,14.058-22.661,20.768
							c-3.682,3.194-3.624,5.315,0.068,8.422c7.199,6.064,14.091,12.493,21.066,18.818
							C171.076,224.693,173.349,226.451,173.4,229.604z"/>
						<path class="st3" d="M233.091,236.017c-2.805-0.071-4.721-1.598-5.793-4.022c-1.448-3.274-0.052-5.873,2.395-8.11
							c6.948-6.358,13.598-13.084,20.909-18.988c5.505-4.447,4.639-7.304-0.309-11.334c-7.077-5.768-13.661-12.143-20.456-18.253
							c-3.243-2.918-4.975-6.314-1.692-10.079c3.57-4.09,7.229-2.703,10.785,0.501c9.885,8.892,19.777,17.776,29.821,26.487
							c5.327,4.62,5.887,8.863,0.369,13.758c-10.153,9.006-20.14,18.2-30.196,27.318
							C237.258,234.805,235.548,236.206,233.091,236.017z"/>
					</g>
				</g>
			</g>
		</g>
	</g>
</g>
<g>
</g>
<g>
</g>
<g>
</g>
<g>
</g>
<g>
</g>
<g>
</g>
<g>
</g>
<g>
</g>
<g>
</g>
<g>
</g>
<g>
</g>
<g>
</g>
<g>
</g>
<g>
</g>
<g>
</g>
</svg>
