<?xml version="1.0" encoding="utf-8"?>
<!-- Generator: Adobe Illustrator 26.0.1, SVG Export Plug-In . SVG Version: 6.00 Build 0)  -->
<svg version="1.1" id="Calque_1" xmlns="http://www.w3.org/2000/svg" xmlns:xlink="http://www.w3.org/1999/xlink" x="0px" y="0px"
	 viewBox="0 0 400 400" style="enable-background:new 0 0 400 400;" xml:space="preserve">
<style type="text/css">
	.st0{fill:#E07E64;}
	.st1{fill:#FDF8F7;}
	.st2{fill:#FCF6F4;}
	.st3{fill:#DF7A5F;}
</style>
<g>
	<g>
		<g>
			<path class="st0" d="M86.856,108.175c-4.673-8.121-9.764-15.642,0.006-24.571c9.972-9.113,18.533-5.651,28.146-0.288
				c19.653,10.951,29.416,2.158,31.9-17.518c1.326-10.472,0.265-20.843,14.446-23.575c13.256-2.553,17.769,6.123,24.033,14.878
				c11.925,16.66,24.701,17.391,36.526-0.862c5.062-7.806,9.593-16.583,21.747-12.812c11.996,3.718,14.709,12.039,14.993,23.8
				c0.579,24.312,14.654,27.399,33.735,18.364c8.831-4.181,16.246-8.626,24.539,1.199c7.411,8.767,6.067,16.647,0.913,25.527
				c-13.5,23.236-2.708,32.377,20.235,34.118c8.488,0.646,16.368,1.453,19.153,11.962c2.848,10.719-0.482,17.991-9.692,23.503
				c-22.501,13.463-23.635,27.392-0.506,41.454c7.763,4.722,12.831,10.498,9.303,20.364c-3.586,10.046-10.188,14.196-21.243,14.129
				c-25.653-0.169-30.267,13.442-20.473,34.621c3.468,7.504,8.562,13.84,0.258,22.115c-9.278,9.249-17.904,8.051-27.903,2.216
				c-21.006-12.242-31.011-3.388-33.324,18.295c-1.008,9.393-0.494,18.643-12.832,21.658c-12.803,3.13-18.51-3.805-24.774-13.219
				c-12.578-18.909-25.91-18.769-38.144,0.905c-5.203,8.357-10.754,15.44-22.393,10.963c-10.223-3.923-13.291-11.104-13.406-21.774
				c-0.296-26.403-14.956-29.106-35.274-19.248c-7.851,3.813-14.312,7.454-21.988-0.763c-7.661-8.2-8.091-15.998-2.681-25.221
				c14.354-24.48,3.796-34.379-21.156-35.579c-9.022-0.43-15.782-3.156-17.942-13.428c-2.009-9.506,0.723-16.361,8.815-21.068
				c24.444-14.226,24.829-28.596,0.532-43.336c-6.764-4.106-11.063-9.32-8.429-17.892c3.05-9.923,8.579-15.856,20.055-15.544
				C88.292,142.209,96.244,131.033,86.856,108.175z"/>
			<path class="st1" d="M300.076,198.691c0.49,55.42-44.98,101.05-100.37,100.74c-54.01-0.3-98.69-44.85-99.16-98.84
				c-0.48-55.59,44.71-100.95,100.3-100.67C254.876,100.181,299.596,144.711,300.076,198.691z"/>
			<path class="st2" d="M201.566,174.821c13.89,2.81,23.26,10.52,22.99,24.77c-0.29,15.63-10.01,25.07-25.68,24.3
				c-13.94-0.68-23.04-9.88-22.84-24.11C176.256,184.041,186.426,176.281,201.566,174.821z"/>
			<g>
				<g>
					<g>
						<path class="st3" d="M219.515,154.478c-3.03,10.753-6.037,21.41-9.032,32.067c-5.466,19.455-10.952,38.902-16.366,58.373
							c-1.279,4.603-3.106,9.073-8.823,7.536c-5.452-1.467-5.505-5.764-4.08-10.748c8.373-29.276,16.537-58.614,24.701-87.949
							c1.216-4.371,2.982-8.18,8.312-7.261C218.417,147.217,220.012,150.383,219.515,154.478z"/>
						<path class="st3" d="M173.4,229.604c0.101,2.816-1.326,4.808-3.665,6.039c-2.407,1.268-4.913,1.035-6.974-0.799
							c-11.387-10.113-22.793-20.207-34.033-30.481c-2.869-2.623-2.942-6.2-0.09-8.862c11.13-10.391,22.397-20.643,33.749-30.795
							c2.885-2.578,6.227-2.278,8.885,0.61c3.04,3.303,2.304,6.699-0.699,9.526c-7.461,7.025-14.922,14.058-22.661,20.768
							c-3.682,3.194-3.624,5.315,0.068,8.422c7.199,6.064,14.091,12.493,21.066,18.818
							C171.076,224.693,173.349,226.451,173.4,229.604z"/>
						<path class="st3" d="M233.091,236.017c-2.805-0.071-4.721-1.598-5.793-4.022c-1.448-3.274-0.052-5.873,2.395-8.11
							c6.948-6.358,13.598-13.084,20.909-18.988c5.505-4.447,4.639-7.304-0.309-11.334c-7.077-5.768-13.661-12.143-20.456-18.253
							c-3.243-2.918-4.975-6.314-1.692-10.079c3.57-4.09,7.229-2.703,10.785,0.501c9.885,8.892,19.777,17.776,29.821,26.487
							c5.327,4.62,5.887,8.863,0.369,13.758c-10.153,9.006-20.14,18.2-30.196,27.318
							C237.258,234.805,235.548,236.206,233.091,236.017z"/>
					</g>
				</g>
			</g>
		</g>
	</g>
</g>
<g>
</g>
<g>
</g>
<g>
</g>
<g>
</g>
<g>
</g>
<g>
</g>
<g>
</g>
<g>
</g>
<g>
</g>
<g>
</g>
<g>
</g>
<g>
</g>
<g>
</g>
<g>
</g>
<g>
</g>
</svg>
