<?xml version="1.0" encoding="utf-8"?>
<!-- Generator: Adobe Illustrator 26.0.1, SVG Export Plug-In . SVG Version: 6.00 Build 0)  -->
<svg version="1.1" id="Calque_1" xmlns="http://www.w3.org/2000/svg" xmlns:xlink="http://www.w3.org/1999/xlink" x="0px" y="0px"
	 viewBox="0 0 400 400" style="enable-background:new 0 0 400 400;" xml:space="preserve">
<style type="text/css">
	.st0{fill:#E07E64;}
	.st1{fill:#FDF8F7;}
	.st2{fill:#FCF6F4;}
	.st3{fill:#DF7A5F;}
</style>
<g>
	<g>
		<g>
			<path class="st0" d="M238.388,340.365c-0.992,9.317-1.295,18.394-14.447,19.875c-13.424,1.511-18.316-6.321-22.94-16.311
				c-9.463-20.411-22.53-19.036-36.104-4.578c-7.228,7.693-12.466,16.707-25.544,10.582c-12.225-5.727-10.776-15.398-10.698-26.163
				c0.145-20.487-9.761-28.588-30.057-20.772c-8.684,3.34-17.508,7.778-25.124-2.418c-7.519-10.059-4.824-18.386,1.86-28.067
				c13.822-20.009,4.25-30.779-16.498-34.686c-9.602-1.809-18.213-2.57-19.148-15.394c-0.842-11.449,4.876-17.034,14.266-21.189
				c24.579-10.863,21.221-24.602,3.684-39.496c-6.488-5.512-12.388-10.797-8.464-20.935c3.997-10.346,10.965-14.272,21.656-13.317
				c26.118,2.334,35.222-8.268,24.776-33.239c-3.505-8.383-4.21-16.035,4.444-21.943c8.806-6.019,16.587-5.497,25.491,1.056
				c20.654,15.215,32.387,6.916,36.912-15.976c1.605-8.109,1.208-16.229,12.79-18.042c12.943-2.029,19.217,4.011,23.876,14.608
				c9.798,22.251,23.097,20.969,37.713,4.786c6.336-7.007,11.358-14.792,23.111-9.979c12.198,4.993,12.739,13.958,12.272,25.256
				c-0.938,22.691,9.93,30.414,31.391,21.689c9.121-3.703,17.776-6.17,24.56,4.293c5.964,9.183,4.226,16.796-1.953,25.495
				c-15.279,21.534-5.009,32.338,17.224,36.306c8.592,1.53,15.96,2.382,17.34,13.542c1.378,11.137-2.858,17.698-12.655,21.98
				c-26.002,11.367-23.278,25.583-3.797,41.219c7.046,5.651,10.913,11.83,6.622,21.41c-3.962,8.872-10.202,12.811-19.515,11.863
				c-28.138-2.859-36.896,8.54-25.902,34.747c3.059,7.297,3.472,14.043-3.698,19.43c-8.3,6.235-16.261,7.786-25.361,0.787
				C257.231,311.988,244.228,316.355,238.388,340.365z"/>
			<path class="st1" d="M300.076,198.691c0.49,55.42-44.98,101.05-100.37,100.74c-54.01-0.3-98.69-44.85-99.16-98.84
				c-0.48-55.59,44.71-100.95,100.3-100.67C254.876,100.181,299.596,144.711,300.076,198.691z"/>
			<path class="st2" d="M201.566,174.821c13.89,2.81,23.26,10.52,22.99,24.77c-0.29,15.63-10.01,25.07-25.68,24.3
				c-13.94-0.68-23.04-9.88-22.84-24.11C176.256,184.041,186.426,176.281,201.566,174.821z"/>
			<g>
				<g>
					<g>
						<path class="st3" d="M219.515,154.478c-3.03,10.753-6.037,21.41-9.032,32.067c-5.466,19.455-10.952,38.902-16.366,58.373
							c-1.279,4.603-3.106,9.073-8.823,7.536c-5.452-1.467-5.505-5.764-4.08-10.748c8.373-29.276,16.537-58.614,24.701-87.949
							c1.216-4.371,2.982-8.18,8.312-7.261C218.417,147.217,220.012,150.383,219.515,154.478z"/>
						<path class="st3" d="M173.4,229.604c0.101,2.816-1.326,4.808-3.665,6.039c-2.407,1.268-4.913,1.035-6.974-0.799
							c-11.387-10.113-22.793-20.207-34.033-30.481c-2.869-2.623-2.942-6.2-0.09-8.862c11.13-10.391,22.397-20.643,33.749-30.795
							c2.885-2.578,6.227-2.278,8.885,0.61c3.04,3.303,2.304,6.699-0.699,9.526c-7.461,7.025-14.922,14.058-22.661,20.768
							c-3.682,3.194-3.624,5.315,0.068,8.422c7.199,6.064,14.091,12.493,21.066,18.818
							C171.076,224.693,173.349,226.451,173.4,229.604z"/>
						<path class="st3" d="M233.091,236.017c-2.805-0.071-4.721-1.598-5.793-4.022c-1.448-3.274-0.052-5.873,2.395-8.11
							c6.948-6.358,13.598-13.084,20.909-18.988c5.505-4.447,4.639-7.304-0.309-11.334c-7.077-5.768-13.661-12.143-20.456-18.253
							c-3.243-2.918-4.975-6.314-1.692-10.079c3.57-4.09,7.229-2.703,10.785,0.501c9.885,8.892,19.777,17.776,29.821,26.487
							c5.327,4.62,5.887,8.863,0.369,13.758c-10.153,9.006-20.14,18.2-30.196,27.318
							C237.258,234.805,235.548,236.206,233.091,236.017z"/>
					</g>
				</g>
			</g>
		</g>
	</g>
</g>
<g>
</g>
<g>
</g>
<g>
</g>
<g>
</g>
<g>
</g>
<g>
</g>
<g>
</g>
<g>
</g>
<g>
</g>
<g>
</g>
<g>
</g>
<g>
</g>
<g>
</g>
<g>
</g>
<g>
</g>
</svg>
