<?xml version="1.0" encoding="utf-8"?>
<!-- Generator: Adobe Illustrator 26.0.1, SVG Export Plug-In . SVG Version: 6.00 Build 0)  -->
<svg version="1.1" id="Calque_1" xmlns="http://www.w3.org/2000/svg" xmlns:xlink="http://www.w3.org/1999/xlink" x="0px" y="0px"
	 viewBox="0 0 400 400" style="enable-background:new 0 0 400 400;" xml:space="preserve">
<style type="text/css">
	.st0{fill:#E07E64;}
	.st1{fill:#FDF8F7;}
	.st2{fill:#FCF6F4;}
	.st3{fill:#DF7A5F;}
</style>
<g>
	<g>
		<g>
			<path class="st0" d="M319.554,115.777c9.094-2.254,17.728-5.074,23.618,6.778c6.012,12.097,0.324,19.373-7.482,27.135
				c-15.944,15.873-10.182,27.682,8.046,35.492c9.701,4.161,19.963,6,18.68,20.384c-1.2,13.446-10.784,15.393-20.926,19.001
				c-19.302,6.871-23.526,18.951-9.239,35.349c6.109,7.017,13.297,13.792,6.321,24.435c-6.881,10.506-15.627,10.821-27.01,7.852
				c-23.53-6.145-30.377,6.534-26.951,27.366c1.585,9.641,3.814,17.994-7.917,23.258c-10.471,4.707-17.674,1.244-24.79-6.159
				c-18.615-19.381-30.376-11.527-38.374,10.047c-2.96,7.982-5.909,15.333-16.778,15.114c-11.089-0.217-17.161-5.422-19.921-15.795
				c-6.74-25.341-19.816-30.27-39.708-11.913c-6.679,6.161-13.628,9.44-22.14,3.329c-8.668-6.216-10.838-13.707-7.726-24.314
				c7.233-24.613-4.578-32.8-27.637-29.222c-8.169,1.266-15.664,4.416-21.329-5.848c-6.334-11.468-2.804-19.43,5.561-27.433
				c17.558-16.817,11.805-28.876-8.401-37.076c-8.751-3.558-17.785-5.614-17.282-18.304c0.52-13.17,8.76-16.744,19.536-20.17
				c21.643-6.879,25.184-19.733,9.644-36.916c-6.599-7.305-11.878-14.593-4.366-24.547c6.589-8.745,14.338-9.716,24.625-6.885
				c25.461,6.993,32.101-6.354,28.225-28.602c-1.501-8.598-3.22-15.812,6.794-20.926c9.994-5.104,17.608-3.368,24.983,4.375
				c19.575,20.546,32.001,13.125,40.032-10.529c2.9-8.554,7.384-14.301,17.854-13.545c9.692,0.689,15.528,5.205,17.822,14.281
				c6.937,27.419,20.645,31.75,41.511,12.456c5.811-5.37,12.009-8.066,19.523-3.171c8.698,5.667,12.878,12.617,9.413,23.563
				C286.443,107.777,294.994,118.502,319.554,115.777z"/>
			<path class="st1" d="M300.076,198.691c0.49,55.42-44.98,101.05-100.37,100.74c-54.01-0.3-98.69-44.85-99.16-98.84
				c-0.48-55.59,44.71-100.95,100.3-100.67C254.876,100.181,299.596,144.711,300.076,198.691z"/>
			<path class="st2" d="M201.566,174.821c13.89,2.81,23.26,10.52,22.99,24.77c-0.29,15.63-10.01,25.07-25.68,24.3
				c-13.94-0.68-23.04-9.88-22.84-24.11C176.256,184.041,186.426,176.281,201.566,174.821z"/>
			<g>
				<g>
					<g>
						<path class="st3" d="M219.515,154.478c-3.03,10.753-6.037,21.41-9.032,32.067c-5.466,19.455-10.952,38.902-16.366,58.373
							c-1.279,4.603-3.106,9.073-8.823,7.536c-5.452-1.467-5.505-5.764-4.08-10.748c8.373-29.276,16.537-58.614,24.701-87.949
							c1.216-4.371,2.982-8.18,8.312-7.261C218.417,147.217,220.012,150.383,219.515,154.478z"/>
						<path class="st3" d="M173.4,229.604c0.101,2.816-1.326,4.808-3.665,6.039c-2.407,1.268-4.913,1.035-6.974-0.799
							c-11.387-10.113-22.793-20.207-34.033-30.481c-2.869-2.623-2.942-6.2-0.09-8.862c11.13-10.391,22.397-20.643,33.749-30.795
							c2.885-2.578,6.227-2.278,8.885,0.61c3.04,3.303,2.304,6.699-0.699,9.526c-7.461,7.025-14.922,14.058-22.661,20.768
							c-3.682,3.194-3.624,5.315,0.068,8.422c7.199,6.064,14.091,12.493,21.066,18.818
							C171.076,224.693,173.349,226.451,173.4,229.604z"/>
						<path class="st3" d="M233.091,236.017c-2.805-0.071-4.721-1.598-5.793-4.022c-1.448-3.274-0.052-5.873,2.395-8.11
							c6.948-6.358,13.598-13.084,20.909-18.988c5.505-4.447,4.639-7.304-0.309-11.334c-7.077-5.768-13.661-12.143-20.456-18.253
							c-3.243-2.918-4.975-6.314-1.692-10.079c3.57-4.09,7.229-2.703,10.785,0.501c9.885,8.892,19.777,17.776,29.821,26.487
							c5.327,4.62,5.887,8.863,0.369,13.758c-10.153,9.006-20.14,18.2-30.196,27.318
							C237.258,234.805,235.548,236.206,233.091,236.017z"/>
					</g>
				</g>
			</g>
		</g>
	</g>
</g>
<g>
</g>
<g>
</g>
<g>
</g>
<g>
</g>
<g>
</g>
<g>
</g>
<g>
</g>
<g>
</g>
<g>
</g>
<g>
</g>
<g>
</g>
<g>
</g>
<g>
</g>
<g>
</g>
<g>
</g>
</svg>
