<?xml version="1.0" encoding="utf-8"?>
<!-- Generator: Adobe Illustrator 26.0.1, SVG Export Plug-In . SVG Version: 6.00 Build 0)  -->
<svg version="1.1" id="Calque_1" xmlns="http://www.w3.org/2000/svg" xmlns:xlink="http://www.w3.org/1999/xlink" x="0px" y="0px"
	 viewBox="0 0 400 400" style="enable-background:new 0 0 400 400;" xml:space="preserve">
<style type="text/css">
	.st0{fill:#E07E64;}
	.st1{fill:#FDF8F7;}
	.st2{fill:#FCF6F4;}
	.st3{fill:#DF7A5F;}
</style>
<g>
	<g>
		<g>
			<path class="st0" d="M55.334,184.757c-8.342-4.265-16.709-7.801-13.378-20.61c3.4-13.074,12.465-14.834,23.449-15.571
				c22.447-1.52,25.845-14.211,17.213-32.065c-4.591-9.505-11.129-17.625-0.725-27.639c9.727-9.361,18.237-4.542,28.259-0.612
				c19.075,7.478,30.188,1.132,30.164-20.617c-0.007-9.304-0.987-19.133,11.261-22.589c12.086-3.415,18.893,2.085,25.537,11.794
				c13.727,20.075,27.212,14.998,38.294-2.972c5.129-8.316,8.926-16.083,21.233-12.359c10.991,3.317,14.155,10.657,14.669,20.912
				c1.333,26.84,15.363,28.628,35.553,17.593c7.471-4.082,14.519-7.696,22.578-0.399c8.227,7.439,9.394,15.351,4.672,24.99
				c-11.538,23.546-4.904,35.845,22.153,35.042c9.083-0.268,16.478,1.816,18.893,12.012c2.464,10.378-0.813,17.455-10.121,23.419
				c-21.606,13.83-18.063,27.758,1.686,40.186c6.996,4.404,14.719,6.943,12.261,18.406c-2.744,12.81-10.631,16.503-22.194,17.055
				c-24.284,1.174-27.853,14.048-17.983,33.493c4.271,8.426,9.739,15.905,1.034,25.152c-9.033,9.598-17.596,6.89-27.977,2.406
				c-20.847-9.008-31.953-1.629-31.498,21.534c0.188,9.842-0.61,18.806-12.809,21.39c-10.71,2.277-17.195-2.074-23.102-10.96
				c-14.628-21.982-28.395-16.265-40.067,3.069c-4.508,7.473-7.943,14.046-18.856,11.335c-10.891-2.704-15.498-9.011-15.985-19.692
				c-1.294-28.348-15.541-30.9-37.12-18.317c-7.801,4.553-14.955,5.949-22.361-1.49c-6.863-6.878-8.304-14.115-4.082-22.47
				c12.753-25.245,5.249-37.506-23.156-36.634c-7.909,0.241-14.355-1.791-16.814-10.415c-2.846-9.983-1.441-17.971,8.354-23.959
				C75.075,212.517,75.657,198.813,55.334,184.757z"/>
			<path class="st1" d="M300.076,198.691c0.49,55.42-44.98,101.05-100.37,100.74c-54.01-0.3-98.69-44.85-99.16-98.84
				c-0.48-55.59,44.71-100.95,100.3-100.67C254.876,100.181,299.596,144.711,300.076,198.691z"/>
			<path class="st2" d="M201.566,174.821c13.89,2.81,23.26,10.52,22.99,24.77c-0.29,15.63-10.01,25.07-25.68,24.3
				c-13.94-0.68-23.04-9.88-22.84-24.11C176.256,184.041,186.426,176.281,201.566,174.821z"/>
			<g>
				<g>
					<g>
						<path class="st3" d="M219.515,154.478c-3.03,10.753-6.037,21.41-9.032,32.067c-5.466,19.455-10.952,38.902-16.366,58.373
							c-1.279,4.603-3.106,9.073-8.823,7.536c-5.452-1.467-5.505-5.764-4.08-10.748c8.373-29.276,16.537-58.614,24.701-87.949
							c1.216-4.371,2.982-8.18,8.312-7.261C218.417,147.217,220.012,150.383,219.515,154.478z"/>
						<path class="st3" d="M173.4,229.604c0.101,2.816-1.326,4.808-3.665,6.039c-2.407,1.268-4.913,1.035-6.974-0.799
							c-11.387-10.113-22.793-20.207-34.033-30.481c-2.869-2.623-2.942-6.2-0.09-8.862c11.13-10.391,22.397-20.643,33.749-30.795
							c2.885-2.578,6.227-2.278,8.885,0.61c3.04,3.303,2.304,6.699-0.699,9.526c-7.461,7.025-14.922,14.058-22.661,20.768
							c-3.682,3.194-3.624,5.315,0.068,8.422c7.199,6.064,14.091,12.493,21.066,18.818
							C171.076,224.693,173.349,226.451,173.4,229.604z"/>
						<path class="st3" d="M233.091,236.017c-2.805-0.071-4.721-1.598-5.793-4.022c-1.448-3.274-0.052-5.873,2.395-8.11
							c6.948-6.358,13.598-13.084,20.909-18.988c5.505-4.447,4.639-7.304-0.309-11.334c-7.077-5.768-13.661-12.143-20.456-18.253
							c-3.243-2.918-4.975-6.314-1.692-10.079c3.57-4.09,7.229-2.703,10.785,0.501c9.885,8.892,19.777,17.776,29.821,26.487
							c5.327,4.62,5.887,8.863,0.369,13.758c-10.153,9.006-20.14,18.2-30.196,27.318
							C237.258,234.805,235.548,236.206,233.091,236.017z"/>
					</g>
				</g>
			</g>
		</g>
	</g>
</g>
<g>
</g>
<g>
</g>
<g>
</g>
<g>
</g>
<g>
</g>
<g>
</g>
<g>
</g>
<g>
</g>
<g>
</g>
<g>
</g>
<g>
</g>
<g>
</g>
<g>
</g>
<g>
</g>
<g>
</g>
</svg>
