<?xml version="1.0" encoding="utf-8"?>
<!-- Generator: Adobe Illustrator 26.0.1, SVG Export Plug-In . SVG Version: 6.00 Build 0)  -->
<svg version="1.1" id="Calque_1" xmlns="http://www.w3.org/2000/svg" xmlns:xlink="http://www.w3.org/1999/xlink" x="0px" y="0px"
	 viewBox="0 0 400 400" style="enable-background:new 0 0 400 400;" xml:space="preserve">
<style type="text/css">
	.st0{fill:#E07E64;}
	.st1{fill:#FDF8F7;}
	.st2{fill:#FCF6F4;}
	.st3{fill:#DF7A5F;}
</style>
<g>
	<g>
		<g>
			<path class="st0" d="M82.612,285.598c-9.053,2.412-17.637,5.383-23.733-6.365c-6.222-11.99-0.662-19.365,7.007-27.262
				c15.664-16.149,9.698-27.855-8.664-35.347c-9.772-3.991-20.064-5.651-19.033-20.055c0.965-13.465,10.513-15.579,20.591-19.364
				c19.179-7.206,23.191-19.358,8.621-35.505c-6.23-6.91-13.535-13.558-6.747-24.321c6.696-10.625,15.436-11.092,26.869-8.322
				c23.634,5.733,30.258-7.063,26.47-27.832c-1.753-9.612-4.128-17.925,7.509-23.392c10.387-4.889,17.65-1.552,24.894,5.725
				c18.95,19.054,30.573,10.995,38.193-10.715c2.821-8.032,5.64-15.434,16.511-15.404c11.091,0.024,17.253,5.122,20.194,15.445
				c7.181,25.219,20.341,29.92,39.91,11.218c6.571-6.276,13.461-9.677,22.078-3.715c8.776,6.064,11.076,13.515,8.149,24.176
				c-6.803,24.735,5.15,32.715,28.143,28.736c8.146-1.408,15.584-4.689,21.428,5.475c6.533,11.356,3.142,19.378-5.081,27.526
				c-17.261,17.121-11.299,29.077,9.047,36.924c8.812,3.404,17.88,5.303,17.599,18c-0.29,13.177-8.466,16.895-19.181,20.508
				c-21.52,7.256-24.836,20.17-8.998,37.079c6.726,7.188,12.131,14.384,4.794,24.467c-6.436,8.859-14.166,9.964-24.501,7.314
				c-25.58-6.547-31.986,6.913-27.722,29.091c1.651,8.57,3.496,15.753-6.428,21.041c-9.904,5.278-17.547,3.674-25.055-3.938
				c-19.93-20.201-32.226-12.564-39.842,11.226c-2.751,8.603-7.133,14.428-17.614,13.855c-9.702-0.519-15.616-4.933-18.069-13.967
				c-7.415-27.294-21.195-31.385-41.722-11.73c-5.716,5.471-11.866,8.274-19.464,3.511c-8.795-5.514-13.096-12.39-9.823-23.395
				C115.858,293.019,107.121,282.445,82.612,285.598z"/>
			<path class="st1" d="M300.076,198.691c0.49,55.42-44.98,101.05-100.37,100.74c-54.01-0.3-98.69-44.85-99.16-98.84
				c-0.48-55.59,44.71-100.95,100.3-100.67C254.876,100.181,299.596,144.711,300.076,198.691z"/>
			<path class="st2" d="M201.566,174.821c13.89,2.81,23.26,10.52,22.99,24.77c-0.29,15.63-10.01,25.07-25.68,24.3
				c-13.94-0.68-23.04-9.88-22.84-24.11C176.256,184.041,186.426,176.281,201.566,174.821z"/>
			<g>
				<g>
					<g>
						<path class="st3" d="M219.515,154.478c-3.03,10.753-6.037,21.41-9.032,32.067c-5.466,19.455-10.952,38.902-16.366,58.373
							c-1.279,4.603-3.106,9.073-8.823,7.536c-5.452-1.467-5.505-5.764-4.08-10.748c8.373-29.276,16.537-58.614,24.701-87.949
							c1.216-4.371,2.982-8.18,8.312-7.261C218.417,147.217,220.012,150.383,219.515,154.478z"/>
						<path class="st3" d="M173.4,229.604c0.101,2.816-1.326,4.808-3.665,6.039c-2.407,1.268-4.913,1.035-6.974-0.799
							c-11.387-10.113-22.793-20.207-34.033-30.481c-2.869-2.623-2.942-6.2-0.09-8.862c11.13-10.391,22.397-20.643,33.749-30.795
							c2.885-2.578,6.227-2.278,8.885,0.61c3.04,3.303,2.304,6.699-0.699,9.526c-7.461,7.025-14.922,14.058-22.661,20.768
							c-3.682,3.194-3.624,5.315,0.068,8.422c7.199,6.064,14.091,12.493,21.066,18.818
							C171.076,224.693,173.349,226.451,173.4,229.604z"/>
						<path class="st3" d="M233.091,236.017c-2.805-0.071-4.721-1.598-5.793-4.022c-1.448-3.274-0.052-5.873,2.395-8.11
							c6.948-6.358,13.598-13.084,20.909-18.988c5.505-4.447,4.639-7.304-0.309-11.334c-7.077-5.768-13.661-12.143-20.456-18.253
							c-3.243-2.918-4.975-6.314-1.692-10.079c3.57-4.09,7.229-2.703,10.785,0.501c9.885,8.892,19.777,17.776,29.821,26.487
							c5.327,4.62,5.887,8.863,0.369,13.758c-10.153,9.006-20.14,18.2-30.196,27.318
							C237.258,234.805,235.548,236.206,233.091,236.017z"/>
					</g>
				</g>
			</g>
		</g>
	</g>
</g>
<g>
</g>
<g>
</g>
<g>
</g>
<g>
</g>
<g>
</g>
<g>
</g>
<g>
</g>
<g>
</g>
<g>
</g>
<g>
</g>
<g>
</g>
<g>
</g>
<g>
</g>
<g>
</g>
<g>
</g>
</svg>
