<?xml version="1.0" encoding="utf-8"?>
<!-- Generator: Adobe Illustrator 26.0.1, SVG Export Plug-In . SVG Version: 6.00 Build 0)  -->
<svg version="1.1" id="Calque_1" xmlns="http://www.w3.org/2000/svg" xmlns:xlink="http://www.w3.org/1999/xlink" x="0px" y="0px"
	 viewBox="0 0 400 400" style="enable-background:new 0 0 400 400;" xml:space="preserve">
<style type="text/css">
	.st0{fill:#E07E64;}
	.st1{fill:#FDF8F7;}
	.st2{fill:#FCF6F4;}
	.st3{fill:#DF7A5F;}
</style>
<g>
	<g>
		<g>
			<path class="st0" d="M220.29,55.255c4.554-8.188,8.379-16.426,21.065-12.65c12.947,3.854,14.39,12.975,14.743,23.978
				c0.735,22.486,13.301,26.326,31.445,18.321c9.659-4.257,18.003-10.508,27.648,0.24c9.016,10.048,3.903,18.385-0.375,28.263
				c-8.139,18.802-2.185,30.13,19.552,30.865c9.298,0.318,19.156-0.318,22.182,12.042c2.991,12.198-2.744,18.809-12.678,25.109
				c-20.541,13.018-15.938,26.672,1.633,38.375c8.132,5.416,15.761,9.482,11.611,21.652c-3.698,10.868-11.144,13.774-21.411,13.93
				c-26.87,0.396-29.147,14.354-18.823,34.917c3.818,7.608,7.184,14.779-0.389,22.578c-7.722,7.962-15.669,8.853-25.138,3.797
				c-23.129-12.353-35.652-6.152-35.794,20.916c-0.049,9.086-2.39,16.405-12.664,18.463c-10.458,2.1-17.416-1.421-23.052-10.932
				c-13.067-22.076-27.11-19.021-40.22,0.283c-4.646,6.838-7.453,14.467-18.823,11.611c-12.707-3.189-16.122-11.201-16.271-22.776
				c-0.325-24.31-13.067-28.327-32.845-19.141c-8.57,3.974-16.235,9.178-25.173,0.156c-9.277-9.362-6.272-17.826-1.428-28.044
				c9.73-20.52,2.744-31.876-20.421-32.23c-9.843-0.156-18.774-1.266-20.93-13.548c-1.902-10.783,2.673-17.112,11.759-22.705
				c22.479-13.852,17.246-27.811-1.669-40.15c-7.311-4.766-13.76-8.429-10.67-19.24c3.083-10.79,9.546-15.175,20.237-15.288
				c28.376-0.304,31.424-14.453,19.601-36.458c-4.278-7.955-5.424-15.153,2.27-22.295c7.114-6.619,14.397-7.806,22.599-3.295
				c24.784,13.626,37.3,6.555,37.42-21.864c0.035-7.913,2.291-14.284,10.996-16.44c10.076-2.496,18.01-0.813,23.653,9.185
				C191.857,74.014,205.533,75.075,220.29,55.255z"/>
			<path class="st1" d="M300.076,198.691c0.49,55.42-44.98,101.05-100.37,100.74c-54.01-0.3-98.69-44.85-99.16-98.84
				c-0.48-55.59,44.71-100.95,100.3-100.67C254.876,100.181,299.596,144.711,300.076,198.691z"/>
			<path class="st2" d="M201.566,174.821c13.89,2.81,23.26,10.52,22.99,24.77c-0.29,15.63-10.01,25.07-25.68,24.3
				c-13.94-0.68-23.04-9.88-22.84-24.11C176.256,184.041,186.426,176.281,201.566,174.821z"/>
			<g>
				<g>
					<g>
						<path class="st3" d="M219.515,154.478c-3.03,10.753-6.037,21.41-9.032,32.067c-5.466,19.455-10.952,38.902-16.366,58.373
							c-1.279,4.603-3.106,9.073-8.823,7.536c-5.452-1.467-5.505-5.764-4.08-10.748c8.373-29.276,16.537-58.614,24.701-87.949
							c1.216-4.371,2.982-8.18,8.312-7.261C218.417,147.217,220.012,150.383,219.515,154.478z"/>
						<path class="st3" d="M173.4,229.604c0.101,2.816-1.326,4.808-3.665,6.039c-2.407,1.268-4.913,1.035-6.974-0.799
							c-11.387-10.113-22.793-20.207-34.033-30.481c-2.869-2.623-2.942-6.2-0.09-8.862c11.13-10.391,22.397-20.643,33.749-30.795
							c2.885-2.578,6.227-2.278,8.885,0.61c3.04,3.303,2.304,6.699-0.699,9.526c-7.461,7.025-14.922,14.058-22.661,20.768
							c-3.682,3.194-3.624,5.315,0.068,8.422c7.199,6.064,14.091,12.493,21.066,18.818
							C171.076,224.693,173.349,226.451,173.4,229.604z"/>
						<path class="st3" d="M233.091,236.017c-2.805-0.071-4.721-1.598-5.793-4.022c-1.448-3.274-0.052-5.873,2.395-8.11
							c6.948-6.358,13.598-13.084,20.909-18.988c5.505-4.447,4.639-7.304-0.309-11.334c-7.077-5.768-13.661-12.143-20.456-18.253
							c-3.243-2.918-4.975-6.314-1.692-10.079c3.57-4.09,7.229-2.703,10.785,0.501c9.885,8.892,19.777,17.776,29.821,26.487
							c5.327,4.62,5.887,8.863,0.369,13.758c-10.153,9.006-20.14,18.2-30.196,27.318
							C237.258,234.805,235.548,236.206,233.091,236.017z"/>
					</g>
				</g>
			</g>
		</g>
	</g>
</g>
<g>
</g>
<g>
</g>
<g>
</g>
<g>
</g>
<g>
</g>
<g>
</g>
<g>
</g>
<g>
</g>
<g>
</g>
<g>
</g>
<g>
</g>
<g>
</g>
<g>
</g>
<g>
</g>
<g>
</g>
</svg>
