<?xml version="1.0" encoding="utf-8"?>
<!-- Generator: Adobe Illustrator 26.0.1, SVG Export Plug-In . SVG Version: 6.00 Build 0)  -->
<svg version="1.1" id="Calque_1" xmlns="http://www.w3.org/2000/svg" xmlns:xlink="http://www.w3.org/1999/xlink" x="0px" y="0px"
	 viewBox="0 0 400 400" style="enable-background:new 0 0 400 400;" xml:space="preserve">
<style type="text/css">
	.st0{fill:#E07E64;}
	.st1{fill:#FDF8F7;}
	.st2{fill:#FCF6F4;}
	.st3{fill:#DF7A5F;}
</style>
<g>
	<g>
		<g>
			<path class="st0" d="M337.433,249.194c7.063,6.157,14.325,11.611,7.994,23.235c-6.461,11.863-15.684,11.377-26.519,9.436
				c-22.148-3.956-28.516,7.537-24.459,26.949c2.156,10.333,6.535,19.794-5.983,26.994c-11.703,6.73-18.795-0.004-27.568-6.243
				c-16.699-11.87-29.017-8.402-34.256,12.707c-2.244,9.029-3.671,18.803-16.391,19.194c-12.553,0.39-17.828-6.594-21.925-17.622
				c-8.463-22.799-22.775-21.135-37.876-6.381c-6.989,6.828-12.552,13.445-23.592,6.855c-9.862-5.877-11.156-13.764-9.174-23.84
				c5.199-26.365-7.981-31.494-30.24-25.671c-8.236,2.153-15.949,3.955-22.004-5.075c-6.183-9.208-5.402-17.168,1.512-25.378
				c16.892-20.056,13.43-33.594-13.017-39.36c-8.877-1.938-15.549-5.749-15.426-16.226c0.12-10.666,5.011-16.74,15.486-20.275
				c24.31-8.192,24.242-22.563,8.086-39.4c-5.722-5.966-12.602-10.298-7.443-20.826c5.761-11.766,14.308-13.441,25.661-11.18
				c23.847,4.736,30.425-6.892,25.552-28.148c-2.105-9.209-5.602-17.789,5.082-24.655c11.086-7.128,18.741-2.429,27.728,4.434
				c18.049,13.784,30.609,9.311,35.771-13.274c2.199-9.596,5.141-18.1,17.604-17.656c10.943,0.381,16.182,6.172,19.764,16.223
				c8.876,24.868,23.617,22.652,39.619,6.715c6.182-6.161,11.105-11.707,21.038-6.437c9.914,5.259,12.858,12.492,10.746,22.974
				c-5.602,27.819,7.604,33.742,31.586,26.753c8.671-2.531,15.95-2.154,21.336,6.856c4.995,8.334,4.643,15.705-1.475,22.79
				c-18.481,21.41-14.167,35.122,13.606,41.148c7.732,1.68,13.495,5.211,13.795,14.173c0.347,10.375-2.949,17.786-13.902,21.226
				C324.995,217.482,321.114,230.638,337.433,249.194z"/>
			<path class="st1" d="M300.076,198.691c0.49,55.42-44.98,101.05-100.37,100.74c-54.01-0.3-98.69-44.85-99.16-98.84
				c-0.48-55.59,44.71-100.95,100.3-100.67C254.876,100.181,299.596,144.711,300.076,198.691z"/>
			<path class="st2" d="M201.566,174.821c13.89,2.81,23.26,10.52,22.99,24.77c-0.29,15.63-10.01,25.07-25.68,24.3
				c-13.94-0.68-23.04-9.88-22.84-24.11C176.256,184.041,186.426,176.281,201.566,174.821z"/>
			<g>
				<g>
					<g>
						<path class="st3" d="M219.515,154.478c-3.03,10.753-6.037,21.41-9.032,32.067c-5.466,19.455-10.952,38.902-16.366,58.373
							c-1.279,4.603-3.106,9.073-8.823,7.536c-5.452-1.467-5.505-5.764-4.08-10.748c8.373-29.276,16.537-58.614,24.701-87.949
							c1.216-4.371,2.982-8.18,8.312-7.261C218.417,147.217,220.012,150.383,219.515,154.478z"/>
						<path class="st3" d="M173.4,229.604c0.101,2.816-1.326,4.808-3.665,6.039c-2.407,1.268-4.913,1.035-6.974-0.799
							c-11.387-10.113-22.793-20.207-34.033-30.481c-2.869-2.623-2.942-6.2-0.09-8.862c11.13-10.391,22.397-20.643,33.749-30.795
							c2.885-2.578,6.227-2.278,8.885,0.61c3.04,3.303,2.304,6.699-0.699,9.526c-7.461,7.025-14.922,14.058-22.661,20.768
							c-3.682,3.194-3.624,5.315,0.068,8.422c7.199,6.064,14.091,12.493,21.066,18.818
							C171.076,224.693,173.349,226.451,173.4,229.604z"/>
						<path class="st3" d="M233.091,236.017c-2.805-0.071-4.721-1.598-5.793-4.022c-1.448-3.274-0.052-5.873,2.395-8.11
							c6.948-6.358,13.598-13.084,20.909-18.988c5.505-4.447,4.639-7.304-0.309-11.334c-7.077-5.768-13.661-12.143-20.456-18.253
							c-3.243-2.918-4.975-6.314-1.692-10.079c3.57-4.09,7.229-2.703,10.785,0.501c9.885,8.892,19.777,17.776,29.821,26.487
							c5.327,4.62,5.887,8.863,0.369,13.758c-10.153,9.006-20.14,18.2-30.196,27.318
							C237.258,234.805,235.548,236.206,233.091,236.017z"/>
					</g>
				</g>
			</g>
		</g>
	</g>
</g>
<g>
</g>
<g>
</g>
<g>
</g>
<g>
</g>
<g>
</g>
<g>
</g>
<g>
</g>
<g>
</g>
<g>
</g>
<g>
</g>
<g>
</g>
<g>
</g>
<g>
</g>
<g>
</g>
<g>
</g>
</svg>
