<?xml version="1.0" encoding="utf-8"?>
<!-- Generator: Adobe Illustrator 26.0.1, SVG Export Plug-In . SVG Version: 6.00 Build 0)  -->
<svg version="1.1" id="Calque_1" xmlns="http://www.w3.org/2000/svg" xmlns:xlink="http://www.w3.org/1999/xlink" x="0px" y="0px"
	 viewBox="0 0 400 400" style="enable-background:new 0 0 400 400;" xml:space="preserve">
<style type="text/css">
	.st0{fill:#E07E64;}
	.st1{fill:#FDF8F7;}
	.st2{fill:#FCF6F4;}
	.st3{fill:#DF7A5F;}
</style>
<g>
	<g>
		<g>
			<path class="st0" d="M179.723,55.35c2.12-9.126,3.527-18.099,16.762-17.966c13.508,0.136,17.409,8.506,20.781,18.985
				c6.905,21.412,20.042,21.64,35.277,8.944c8.112-6.754,14.409-15.063,26.643-7.39c11.436,7.174,8.82,16.597,7.43,27.271
				c-2.641,20.317,6.205,29.565,27.302,24.28c9.026-2.257,18.326-5.586,24.642,5.461c6.237,10.901,2.547,18.837-5.266,27.631
				c-16.158,18.176-7.969,30.032,12.148,36.438c9.31,2.965,17.765,4.771,17.129,17.613c-0.559,11.467-6.916,16.313-16.742,19.292
				c-25.72,7.787-24.061,21.832-8.47,38.753c5.768,6.261,10.979,12.226,5.849,21.81c-5.228,9.782-12.622,12.829-23.117,10.579
				c-25.638-5.499-35.967,3.914-28.642,29.972c2.457,8.748,2.224,16.428-7.085,21.238c-9.474,4.901-17.133,3.434-25.172-4.154
				c-18.646-17.619-31.303-10.812-38.584,11.358c-2.581,7.853-3.176,15.961-14.894,16.349c-13.093,0.437-18.585-6.323-21.918-17.409
				c-7.014-23.279-20.369-23.628-36.849-9.347c-7.143,6.182-13.076,13.298-24.155,7.088c-11.498-6.442-10.943-15.407-9.103-26.564
				c3.697-22.407-6.149-31.398-28.514-25.353c-9.505,2.564-18.395,3.958-23.854-7.254c-4.801-9.841-2.147-17.186,5.045-25.067
				c17.79-19.512,8.913-31.487-12.671-38.134c-8.342-2.566-15.551-4.309-15.56-15.554c-0.011-11.222,4.993-17.218,15.24-20.274
				c27.193-8.114,26.223-22.555,8.792-40.449c-6.305-6.468-9.39-13.071-3.963-22.057c5.014-8.323,11.687-11.472,20.815-9.397
				c27.58,6.267,37.662-3.98,29.944-31.331c-2.147-7.616-1.735-14.362,6.038-18.834c8.998-5.177,17.088-5.746,25.268,2.31
				C157.562,81.22,171,78.47,179.723,55.35z"/>
			<path class="st1" d="M300.076,198.691c0.49,55.42-44.98,101.05-100.37,100.74c-54.01-0.3-98.69-44.85-99.16-98.84
				c-0.48-55.59,44.71-100.95,100.3-100.67C254.876,100.181,299.596,144.711,300.076,198.691z"/>
			<path class="st2" d="M201.566,174.821c13.89,2.81,23.26,10.52,22.99,24.77c-0.29,15.63-10.01,25.07-25.68,24.3
				c-13.94-0.68-23.04-9.88-22.84-24.11C176.256,184.041,186.426,176.281,201.566,174.821z"/>
			<g>
				<g>
					<g>
						<path class="st3" d="M219.515,154.478c-3.03,10.753-6.037,21.41-9.032,32.067c-5.466,19.455-10.952,38.902-16.366,58.373
							c-1.279,4.603-3.106,9.073-8.823,7.536c-5.452-1.467-5.505-5.764-4.08-10.748c8.373-29.276,16.537-58.614,24.701-87.949
							c1.216-4.371,2.982-8.18,8.312-7.261C218.417,147.217,220.012,150.383,219.515,154.478z"/>
						<path class="st3" d="M173.4,229.604c0.101,2.816-1.326,4.808-3.665,6.039c-2.407,1.268-4.913,1.035-6.974-0.799
							c-11.387-10.113-22.793-20.207-34.033-30.481c-2.869-2.623-2.942-6.2-0.09-8.862c11.13-10.391,22.397-20.643,33.749-30.795
							c2.885-2.578,6.227-2.278,8.885,0.61c3.04,3.303,2.304,6.699-0.699,9.526c-7.461,7.025-14.922,14.058-22.661,20.768
							c-3.682,3.194-3.624,5.315,0.068,8.422c7.199,6.064,14.091,12.493,21.066,18.818
							C171.076,224.693,173.349,226.451,173.4,229.604z"/>
						<path class="st3" d="M233.091,236.017c-2.805-0.071-4.721-1.598-5.793-4.022c-1.448-3.274-0.052-5.873,2.395-8.11
							c6.948-6.358,13.598-13.084,20.909-18.988c5.505-4.447,4.639-7.304-0.309-11.334c-7.077-5.768-13.661-12.143-20.456-18.253
							c-3.243-2.918-4.975-6.314-1.692-10.079c3.57-4.09,7.229-2.703,10.785,0.501c9.885,8.892,19.777,17.776,29.821,26.487
							c5.327,4.62,5.887,8.863,0.369,13.758c-10.153,9.006-20.14,18.2-30.196,27.318
							C237.258,234.805,235.548,236.206,233.091,236.017z"/>
					</g>
				</g>
			</g>
		</g>
	</g>
</g>
<g>
</g>
<g>
</g>
<g>
</g>
<g>
</g>
<g>
</g>
<g>
</g>
<g>
</g>
<g>
</g>
<g>
</g>
<g>
</g>
<g>
</g>
<g>
</g>
<g>
</g>
<g>
</g>
<g>
</g>
</svg>
