<?xml version="1.0" encoding="utf-8"?>
<!-- Generator: Adobe Illustrator 26.0.1, SVG Export Plug-In . SVG Version: 6.00 Build 0)  -->
<svg version="1.1" id="Calque_1" xmlns="http://www.w3.org/2000/svg" xmlns:xlink="http://www.w3.org/1999/xlink" x="0px" y="0px"
	 viewBox="0 0 400 400" style="enable-background:new 0 0 400 400;" xml:space="preserve">
<style type="text/css">
	.st0{fill:#E07E64;}
	.st1{fill:#FDF8F7;}
	.st2{fill:#FCF6F4;}
	.st3{fill:#DF7A5F;}
</style>
<g>
	<g>
		<g>
			<path class="st0" d="M249.882,62.562c6.157-7.063,11.611-14.325,23.235-7.994c11.863,6.461,11.377,15.684,9.436,26.519
				c-3.956,22.148,7.537,28.516,26.949,24.459c10.333-2.156,19.794-6.535,26.994,5.983c6.73,11.703-0.004,18.795-6.243,27.568
				c-11.87,16.699-8.402,29.017,12.707,34.256c9.029,2.244,18.803,3.671,19.194,16.391c0.39,12.553-6.594,17.828-17.622,21.925
				c-22.799,8.463-21.135,22.775-6.381,37.876c6.828,6.989,13.445,12.552,6.855,23.592c-5.877,9.862-13.764,11.156-23.84,9.174
				c-26.365-5.199-31.494,7.981-25.671,30.24c2.153,8.236,3.955,15.949-5.075,22.004c-9.208,6.183-17.168,5.402-25.378-1.512
				c-20.056-16.892-33.594-13.43-39.36,13.017c-1.938,8.878-5.749,15.549-16.226,15.426c-10.666-0.12-16.74-5.011-20.275-15.486
				c-8.192-24.31-22.563-24.242-39.4-8.086c-5.966,5.722-10.298,12.602-20.826,7.443c-11.766-5.761-13.441-14.308-11.18-25.661
				c4.736-23.847-6.892-30.425-28.148-25.552c-9.209,2.105-17.789,5.602-24.655-5.082c-7.128-11.086-2.429-18.741,4.434-27.728
				c13.784-18.049,9.311-30.609-13.274-35.771c-9.596-2.199-18.1-5.141-17.656-17.604c0.381-10.943,6.172-16.182,16.223-19.764
				c24.868-8.876,22.652-23.617,6.715-39.619c-6.161-6.182-11.707-11.105-6.437-21.038c5.259-9.914,12.492-12.858,22.974-10.746
				c27.819,5.602,33.742-7.604,26.753-31.586c-2.531-8.671-2.154-15.95,6.856-21.336c8.334-4.995,15.705-4.643,22.79,1.476
				c21.41,18.481,35.122,14.167,41.148-13.606c1.68-7.732,5.211-13.495,14.173-13.795c10.375-0.347,17.786,2.949,21.226,13.902
				C218.17,75,231.326,78.881,249.882,62.562z"/>
			<path class="st1" d="M300.076,198.691c0.49,55.42-44.98,101.05-100.37,100.74c-54.01-0.3-98.69-44.85-99.16-98.84
				c-0.48-55.59,44.71-100.95,100.3-100.67C254.876,100.181,299.596,144.711,300.076,198.691z"/>
			<path class="st2" d="M201.566,174.821c13.89,2.81,23.26,10.52,22.99,24.77c-0.29,15.63-10.01,25.07-25.68,24.3
				c-13.94-0.68-23.04-9.88-22.84-24.11C176.256,184.041,186.426,176.281,201.566,174.821z"/>
			<g>
				<g>
					<g>
						<path class="st3" d="M219.515,154.478c-3.03,10.753-6.037,21.41-9.032,32.067c-5.466,19.455-10.952,38.902-16.366,58.373
							c-1.279,4.603-3.106,9.073-8.823,7.536c-5.452-1.467-5.505-5.764-4.08-10.748c8.373-29.276,16.537-58.614,24.701-87.949
							c1.216-4.371,2.982-8.18,8.312-7.261C218.417,147.217,220.012,150.383,219.515,154.478z"/>
						<path class="st3" d="M173.4,229.604c0.101,2.816-1.326,4.808-3.665,6.039c-2.407,1.268-4.913,1.035-6.974-0.799
							c-11.387-10.113-22.793-20.207-34.033-30.481c-2.869-2.623-2.942-6.2-0.09-8.862c11.13-10.391,22.397-20.643,33.749-30.795
							c2.885-2.578,6.227-2.278,8.885,0.61c3.04,3.303,2.304,6.699-0.699,9.526c-7.461,7.025-14.922,14.058-22.661,20.768
							c-3.682,3.194-3.624,5.315,0.068,8.422c7.199,6.064,14.091,12.493,21.066,18.818
							C171.076,224.693,173.349,226.451,173.4,229.604z"/>
						<path class="st3" d="M233.091,236.017c-2.805-0.071-4.721-1.598-5.793-4.022c-1.448-3.274-0.052-5.873,2.395-8.11
							c6.948-6.358,13.598-13.084,20.909-18.988c5.505-4.447,4.639-7.304-0.309-11.334c-7.077-5.768-13.661-12.143-20.456-18.253
							c-3.243-2.918-4.975-6.314-1.692-10.079c3.57-4.09,7.229-2.703,10.785,0.501c9.885,8.892,19.777,17.776,29.821,26.487
							c5.327,4.62,5.887,8.863,0.369,13.758c-10.153,9.006-20.14,18.2-30.196,27.318
							C237.258,234.805,235.548,236.206,233.091,236.017z"/>
					</g>
				</g>
			</g>
		</g>
	</g>
</g>
<g>
</g>
<g>
</g>
<g>
</g>
<g>
</g>
<g>
</g>
<g>
</g>
<g>
</g>
<g>
</g>
<g>
</g>
<g>
</g>
<g>
</g>
<g>
</g>
<g>
</g>
<g>
</g>
<g>
</g>
</svg>
