<?xml version="1.0" encoding="utf-8"?>
<!-- Generator: Adobe Illustrator 26.0.1, SVG Export Plug-In . SVG Version: 6.00 Build 0)  -->
<svg version="1.1" id="Calque_1" xmlns="http://www.w3.org/2000/svg" xmlns:xlink="http://www.w3.org/1999/xlink" x="0px" y="0px"
	 viewBox="0 0 400 400" style="enable-background:new 0 0 400 400;" xml:space="preserve">
<style type="text/css">
	.st0{fill:#E07E64;}
	.st1{fill:#FDF8F7;}
	.st2{fill:#FCF6F4;}
	.st3{fill:#DF7A5F;}
</style>
<g>
	<g>
		<g>
			<path class="st0" d="M312.215,293.098c4.531,8.201,9.49,15.81-0.435,24.567c-10.129,8.938-18.629,5.327-28.147-0.203
				c-19.459-11.292-29.374-2.671-32.201,16.958c-1.509,10.447-0.629,20.836-14.855,23.319c-13.299,2.321-17.66-6.432-23.77-15.295
				c-11.632-16.866-24.394-17.819-36.536,0.225c-5.197,7.717-9.881,16.413-21.967,12.43c-11.929-3.927-14.497-12.294-14.575-24.058
				c-0.154-24.319-14.173-27.65-33.409-18.95c-8.903,4.026-16.394,8.342-24.514-1.627c-7.257-8.896-5.776-16.75-0.467-25.539
				c13.903-22.997,3.272-32.325-19.636-34.466c-8.476-0.794-16.34-1.739-18.941-12.294c-2.66-10.768,0.796-17.98,10.101-23.33
				c22.733-13.069,24.11-26.975,1.23-41.439c-7.679-4.857-12.646-10.72-8.946-20.524c3.761-9.982,10.434-14.016,21.486-13.756
				c25.646,0.617,30.497-12.911,21.074-34.259c-3.337-7.563-8.32-13.987,0.128-22.116c9.438-9.086,18.042-7.737,27.937-1.729
				c20.789,12.607,30.947,3.929,33.638-17.711c1.171-9.374,0.82-18.632,13.208-21.43c12.856-2.906,18.441,4.127,24.539,13.65
				c12.246,19.125,25.579,19.219,38.154-0.239c5.348-8.265,11.022-15.25,22.581-10.571c10.153,4.101,13.095,11.335,13.024,22.004
				c-0.165,26.404,14.445,29.363,34.933,19.861c7.916-3.675,14.44-7.203,21.971,1.147c7.517,8.333,7.81,16.137,2.24,25.264
				c-14.779,24.226-4.395,34.308,20.532,35.943c9.013,0.588,15.725,3.431,17.704,13.739c1.843,9.54-1.009,16.346-9.181,20.911
				c-24.689,13.797-25.325,28.159-1.288,43.32c6.691,4.223,10.899,9.512,8.115,18.037c-3.223,9.868-8.854,15.704-20.324,15.191
				C311.373,259.045,303.226,270.08,312.215,293.098z"/>
			<path class="st1" d="M300.076,198.691c0.49,55.42-44.98,101.05-100.37,100.74c-54.01-0.3-98.69-44.85-99.16-98.84
				c-0.48-55.59,44.71-100.95,100.3-100.67C254.876,100.181,299.596,144.711,300.076,198.691z"/>
			<path class="st2" d="M201.566,174.821c13.89,2.81,23.26,10.52,22.99,24.77c-0.29,15.63-10.01,25.07-25.68,24.3
				c-13.94-0.68-23.04-9.88-22.84-24.11C176.256,184.041,186.426,176.281,201.566,174.821z"/>
			<g>
				<g>
					<g>
						<path class="st3" d="M219.515,154.478c-3.03,10.753-6.037,21.41-9.032,32.067c-5.466,19.455-10.952,38.902-16.366,58.373
							c-1.279,4.603-3.106,9.073-8.823,7.536c-5.452-1.467-5.505-5.764-4.08-10.748c8.373-29.276,16.537-58.614,24.701-87.949
							c1.216-4.371,2.982-8.18,8.312-7.261C218.417,147.217,220.012,150.383,219.515,154.478z"/>
						<path class="st3" d="M173.4,229.604c0.101,2.816-1.326,4.808-3.665,6.039c-2.407,1.268-4.913,1.035-6.974-0.799
							c-11.387-10.113-22.793-20.207-34.033-30.481c-2.869-2.623-2.942-6.2-0.09-8.862c11.13-10.391,22.397-20.643,33.749-30.795
							c2.885-2.578,6.227-2.278,8.885,0.61c3.04,3.303,2.304,6.699-0.699,9.526c-7.461,7.025-14.922,14.058-22.661,20.768
							c-3.682,3.194-3.624,5.315,0.068,8.422c7.199,6.064,14.091,12.493,21.066,18.818
							C171.076,224.693,173.349,226.451,173.4,229.604z"/>
						<path class="st3" d="M233.091,236.017c-2.805-0.071-4.721-1.598-5.793-4.022c-1.448-3.274-0.052-5.873,2.395-8.11
							c6.948-6.358,13.598-13.084,20.909-18.988c5.505-4.447,4.639-7.304-0.309-11.334c-7.077-5.768-13.661-12.143-20.456-18.253
							c-3.243-2.918-4.975-6.314-1.692-10.079c3.57-4.09,7.229-2.703,10.785,0.501c9.885,8.892,19.777,17.776,29.821,26.487
							c5.327,4.62,5.887,8.863,0.369,13.758c-10.153,9.006-20.14,18.2-30.196,27.318
							C237.258,234.805,235.548,236.206,233.091,236.017z"/>
					</g>
				</g>
			</g>
		</g>
	</g>
</g>
<g>
</g>
<g>
</g>
<g>
</g>
<g>
</g>
<g>
</g>
<g>
</g>
<g>
</g>
<g>
</g>
<g>
</g>
<g>
</g>
<g>
</g>
<g>
</g>
<g>
</g>
<g>
</g>
<g>
</g>
</svg>
