<?xml version="1.0" encoding="utf-8"?>
<!-- Generator: Adobe Illustrator 26.0.1, SVG Export Plug-In . SVG Version: 6.00 Build 0)  -->
<svg version="1.1" id="Calque_1" xmlns="http://www.w3.org/2000/svg" xmlns:xlink="http://www.w3.org/1999/xlink" x="0px" y="0px"
	 viewBox="0 0 56.483 47.636" style="enable-background:new 0 0 56.483 47.636;" xml:space="preserve">
<style type="text/css">
	.st0{display:none;}
	.st1{display:inline;}
	.st2{fill:#FEFEFE;}
	.st3{fill:#DF7A5F;}
	.st4{fill:#FEFDFD;}
	.st5{fill:#DF7B61;}
	.st6{display:none;fill:#DF7A5F;}
</style>
<g class="st0">
	<g class="st1">
		<path class="st2" d="M-20.415,83.636c0-33.333,0-66.667,0-100c33.333,0,66.667,0,100,0c0,33.333,0,66.667,0,100
			C46.252,83.636,12.918,83.636-20.415,83.636z M-2.367,77.461c4.241,0,8.027,0,11.636,0c1.779-3.334,2.089-6.999,4.275-9.976
			c2.625-3.574,5.739-5.677,10.368-5.937c5.398-0.304,11.079-3.178,12.639-9.631c0.308-1.272,0.87-2.246,2.12-2.235
			c2.648,0.022,4.441-1.862,6.113-3.216c1.438-1.164,1.912-1.662,3.857-0.977c2.262,0.797,4.822,0.029,6.54-1.993
			c1.155-1.359,2.411-1.909,4.24-1.93c2.377-0.027,4.713-0.671,6.365-2.646c0.791-0.946,1.739-1.177,2.96-1.353
			c3.048-0.44,6.243-1.687,7.515-4.375c1.187-2.509,2.479-5.589,0.742-8.699c-0.704-1.259-0.387-2.585,0.122-4.083
			c0.578-1.697,0.475-3.862-0.021-5.629c-0.602-2.141-1.727-4.599-4.127-5.022c-2.211-0.389-2.393-2.065-3.005-3.334
			c-1.494-3.095-3.744-5.012-7.059-5.8c-2.075-0.494-4.041-1.496-5.064-3.327c-1.397-2.502-3.834-3.518-6.07-4.571
			c-3.583-1.686-6.468-1.372-11.653-0.199c-1.333,0.302-2.636-0.042-4.11-0.765c-5.453-2.677-11.21-3.44-16.734-0.075
			c-1.717,1.046-2.98,0.963-4.878,0.415C10.235-9.1,6.159-8.571,2.907-5.192c-0.923,0.96-1.88,1.888-2.824,2.828
			c-1.166,0-2.364-0.177-3.491,0.031C-8.088-1.468-13.643,4.563-14.374,9.605c-0.146,1.01-0.21,1.833-1.054,2.586
			c-3.631,3.236-3.989,7.114-1.668,11.183c0.933,1.634,0.977,2.873,0.049,4.468c-0.683,1.175-1.114,2.575-1.332,3.927
			c-0.585,3.624,1.395,6.138,3.964,8.315c0,0.688-0.004,1.35,0.001,2.013c0.033,4.686,1.964,8.413,6.307,10.213
			c2.786,1.155,5.283,2.569,7.753,4.249c1.407,0.957,1.606,1.384,1.088,3.09c-0.529,1.742-0.611,3.693-1.043,5.56
			c-0.421,1.819-0.309,3.71-1.007,5.593C-2.061,72.811-2.032,75.106-2.367,77.461z"/>
		<path class="st3" d="M-2.367,77.461c0.335-2.355,0.306-4.65,1.05-6.658c0.698-1.883,0.586-3.774,1.007-5.593
			c0.432-1.867,0.513-3.818,1.043-5.56c0.519-1.707,0.319-2.133-1.088-3.09c-2.469-1.68-4.967-3.094-7.753-4.249
			c-4.343-1.8-6.274-5.527-6.307-10.213c-0.005-0.663-0.001-1.325-0.001-2.013c-2.569-2.177-4.549-4.691-3.964-8.315
			c0.218-1.352,0.649-2.752,1.332-3.927c0.928-1.595,0.884-2.834-0.049-4.468c-2.322-4.069-1.963-7.947,1.668-11.183
			c0.844-0.753,0.908-1.576,1.054-2.586C-13.643,4.563-8.088-1.468-3.408-2.333c1.127-0.208,2.326-0.031,3.493-0.03
			c0.943-0.941,1.899-1.869,2.822-2.829C6.159-8.571,10.235-9.1,14.405-7.896c1.898,0.548,3.161,0.631,4.878-0.415
			c5.523-3.366,11.281-2.602,16.734,0.075c1.474,0.724,2.777,1.067,4.11,0.765c5.185-1.173,8.07-1.487,11.653,0.199
			c2.236,1.052,4.673,2.069,6.07,4.571c1.023,1.831,2.989,2.833,5.064,3.327c3.315,0.788,5.566,2.705,7.059,5.8
			c0.612,1.269,0.794,2.945,3.005,3.334c2.4,0.423,3.525,2.881,4.127,5.022c0.497,1.767,0.599,3.932,0.021,5.629
			c-0.51,1.498-0.826,2.824-0.122,4.083c1.737,3.109,0.445,6.19-0.742,8.699c-1.272,2.689-4.467,3.935-7.515,4.375
			c-1.221,0.176-2.169,0.407-2.96,1.353c-1.652,1.975-3.987,2.618-6.365,2.646c-1.829,0.021-3.085,0.57-4.24,1.93
			c-1.718,2.022-4.278,2.79-6.54,1.993c-1.945-0.686-2.419-0.188-3.857,0.977c-1.672,1.354-3.466,3.239-6.113,3.216
			c-1.25-0.011-1.812,0.964-2.12,2.235c-1.561,6.453-7.241,9.327-12.639,9.631c-4.629,0.26-7.743,2.363-10.368,5.937
			c-2.187,2.977-2.497,6.642-4.275,9.976C5.66,77.461,1.874,77.461-2.367,77.461z M35.599,3.732
			c-0.091,2.616-0.673,4.597-1.425,4.794c-2.11,0.552-3.856-0.016-5.023-1.956c-0.9,0.9-1.722,1.722-2.737,2.737
			c2.321,0.954,2.704,2.929,2.019,4.889c-0.75,2.145-3.109,1.171-4.758,1.55c0,1.342,0,2.457,0,3.785
			c1.683,0.35,4.034-0.578,4.774,1.564c0.672,1.946,0.05,3.84-1.897,4.956c0.908,0.931,1.718,1.76,2.88,2.95
			c1.001-1.033,1.986-2.05,2.983-3.08c0.882,0.597,2.266,1.089,2.861,2.062c0.593,0.972,0.396,2.426,0.523,3.488
			c1.394,0,2.506,0,3.916,0c-0.86-3.268,0.707-4.907,3.507-5.699c0.939,0.939,1.879,1.879,2.891,2.891
			c0.765-0.849,1.529-1.698,2.395-2.659c-1.783-1.064-2.479-2.941-1.822-4.869c0.727-2.133,3.056-1.298,4.661-1.569
			c0-1.457,0-2.682,0-3.892c-1.814-0.139-3.796,0.487-4.587-1.437c-0.847-2.057-0.045-3.832,1.909-5.042
			c-0.905-0.871-1.737-1.671-2.776-2.672c-0.899,2.303-2.928,2.611-4.836,1.979c-2.144-0.71-1.237-3.075-1.572-4.771
			C38.162,3.732,37.047,3.732,35.599,3.732z M15.411,47.636c0.057-0.745,0.07-1.521,0.182-2.282c0.326-2.228,0.98-2.632,3.132-2.766
			c1.418-0.089,2.045,0.793,2.873,1.548c0.178,0.162,0.45,0.222,0.126,0.07c1.102-0.778,1.998-1.411,3.113-2.199
			c-2.437-1.083-2.687-3.013-2.168-4.747c0.573-1.914,2.515-1.708,4.178-1.65c0.239,0.008,0.491-0.341,0.546-0.382
			c0-1.254,0-2.364,0-3.424c-1.675-0.462-3.689,0.531-4.566-1.461c-0.945-2.148,0.036-3.9,1.276-4.817
			c-0.845-1.057-1.518-1.899-2.229-2.788c-0.959,1.005-1.868,1.959-2.751,2.883c-1.09-0.728-2.462-1.212-3.082-2.179
			c-0.621-0.967-0.49-2.416-0.719-3.835c-1.317,0.076-2.538,0.147-4.019,0.232c1.34,3.573-1.046,4.604-3.778,5.851
			c-0.706-0.795-1.649-1.856-2.353-2.65c-0.882,0.676-1.767,1.355-2.827,2.168c2.235,1.114,2.659,2.891,2.19,4.736
			c-0.668,2.626-3.385,1.191-4.791,1.869c0,1.417,0,2.532,0,3.71c1.795,0.336,4.064-0.552,4.788,1.737
			c0.623,1.97-0.286,3.681-1.585,4.581c0.777,1.063,1.43,1.957,2.092,2.861c1.221-1.255,2.08-2.238,3.912-2.142
			c3.767,0.197,2.045,3.439,2.901,5.075C13.092,47.636,14.089,47.636,15.411,47.636z"/>
		<path class="st4" d="M35.599,3.732c1.448,0,2.563,0,3.885,0c0.335,1.696-0.573,4.061,1.572,4.771
			c1.909,0.632,3.937,0.324,4.836-1.979c1.039,1,1.871,1.801,2.776,2.672c-1.955,1.209-2.756,2.984-1.909,5.042
			c0.792,1.923,2.773,1.298,4.587,1.437c0,1.21,0,2.435,0,3.892c-1.605,0.272-3.934-0.564-4.661,1.569
			c-0.657,1.928,0.039,3.805,1.822,4.869c-0.866,0.961-1.631,1.811-2.395,2.659c-1.012-1.012-1.951-1.951-2.891-2.891
			c-2.799,0.792-4.367,2.432-3.507,5.699c-1.41,0-2.521,0-3.916,0c-0.127-1.062,0.07-2.516-0.523-3.488
			c-0.594-0.973-1.978-1.464-2.861-2.062c-0.997,1.03-1.982,2.047-2.983,3.08c-1.161-1.19-1.971-2.02-2.88-2.95
			c1.948-1.115,2.569-3.009,1.897-4.956c-0.739-2.142-3.091-1.214-4.774-1.564c0-1.329,0-2.444,0-3.785
			c1.649-0.379,4.008,0.595,4.758-1.55c0.685-1.961,0.301-3.935-2.019-4.889c1.015-1.015,1.837-1.837,2.737-2.737
			c1.167,1.939,2.913,2.508,5.023,1.956C34.926,8.329,35.508,6.347,35.599,3.732z M43.585,17.419
			c-0.464-3.342-2.692-5.906-6.214-5.721c-3.357,0.177-5.91,2.63-5.724,6.152c0.177,3.357,2.63,5.91,6.152,5.724
			C41.156,23.397,43.494,20.955,43.585,17.419z"/>
		<path class="st4" d="M15.411,47.636c-1.323,0-2.319,0-3.556,0c-0.856-1.636,0.866-4.878-2.901-5.075
			c-1.833-0.096-2.692,0.888-3.912,2.142c-0.661-0.905-1.314-1.798-2.092-2.861c1.3-0.901,2.209-2.612,1.585-4.581
			c-0.724-2.289-2.994-1.4-4.788-1.737c0-1.178,0-2.293,0-3.71c1.406-0.678,4.123,0.756,4.791-1.869
			c0.469-1.845,0.045-3.623-2.19-4.736c1.06-0.813,1.945-1.492,2.827-2.168c0.704,0.793,1.647,1.855,2.353,2.65
			c2.731-1.247,5.118-2.278,3.778-5.851c1.48-0.086,2.702-0.156,4.019-0.232c0.228,1.419,0.098,2.868,0.719,3.835
			c0.62,0.966,1.992,1.451,3.082,2.179c0.882-0.925,1.792-1.878,2.751-2.883c0.711,0.889,1.384,1.731,2.229,2.788
			c-1.24,0.917-2.22,2.669-1.276,4.817c0.876,1.993,2.891,1,4.566,1.461c0,1.059,0,2.17,0,3.424
			c-0.055,0.041-0.307,0.39-0.546,0.382c-1.663-0.058-3.606-0.264-4.178,1.65c-0.519,1.734-0.268,3.664,2.168,4.747
			c-1.115,0.788-2.011,1.42-3.113,2.199c0.325,0.151,0.052,0.092-0.126-0.07c-0.828-0.755-1.456-1.636-2.873-1.548
			c-2.153,0.135-2.806,0.538-3.132,2.766C15.482,46.115,15.468,46.891,15.411,47.636z M19.585,33.633
			c-0.04-3.107-2.762-5.982-6.003-5.988c-3.107-0.006-5.982,2.752-5.988,5.993c-0.006,3.107,2.752,5.982,5.993,5.988
			C16.695,39.632,19.534,36.874,19.585,33.633z"/>
		<path class="st5" d="M43.585,17.419c-0.091,3.537-2.429,5.978-5.786,6.155c-3.522,0.185-5.975-2.367-6.152-5.724
			c-0.185-3.522,2.367-5.975,5.724-6.152C40.893,11.512,43.121,14.076,43.585,17.419z"/>
		<path class="st5" d="M19.585,33.633c-0.051,3.241-2.891,5.998-5.997,5.993c-3.241-0.006-5.998-2.88-5.993-5.988
			c0.006-3.241,2.88-5.998,5.988-5.993C16.823,27.652,19.545,30.526,19.585,33.633z"/>
	</g>
</g>
<rect x="-2.415" y="16.636" class="st6" width="30" height="33"/>
<rect x="22.585" y="2.636" class="st6" width="30" height="31"/>
<g>
	<path class="st3" d="M24.029,43.189L23.5,42.054c-0.418-0.896,0.005-2.007,0.923-2.435c0.463-0.216,0.973-0.216,1.445-0.014
		l1.024,0.384c1.02,0.377,2.155-0.152,2.522-1.176l0.846-2.355c0.17-0.466,0.139-1.023-0.084-1.5
		c-0.222-0.477-0.626-0.851-1.095-1.028l-0.996-0.362c-0.513-0.157-0.91-0.499-1.129-0.968c-0.431-0.925-0.04-2.048,0.849-2.462
		l1.106-0.516c0.976-0.455,1.447-1.633,0.989-2.615l-1.021-2.189c-0.456-0.977-1.617-1.4-2.594-0.944l-1.117,0.521
		c-0.892,0.416-2.007-0.007-2.439-0.933c-0.216-0.463-0.219-0.981-0.024-1.451l0.369-1.026c0.178-0.471,0.14-1.025-0.083-1.503
		s-0.627-0.853-1.098-1.03l-2.354-0.884c-1.02-0.37-2.158,0.161-2.523,1.177l-0.364,0.998c-0.158,0.514-0.498,0.919-0.962,1.136
		c-0.928,0.433-2.048,0.039-2.466-0.859l-0.513-1.1c-0.462-0.991-1.626-1.462-2.612-1.002l-1.102,0.514l-1.102,0.514
		c-0.979,0.456-1.374,1.654-0.912,2.645l0.527,1.129c0.418,0.896-0.01,2.01-0.933,2.44c-0.465,0.217-0.996,0.218-1.491,0.009
		l-0.993-0.364c-1.021-0.368-2.163,0.164-2.53,1.18L0.7,28.345c-0.179,0.47-0.142,1.025,0.081,1.501s0.627,0.851,1.098,1.027
		l1.025,0.375C3.386,31.393,3.785,31.734,4,32.197c0.431,0.925,0.035,2.05-0.859,2.467l-1.105,0.515
		c-0.981,0.458-1.461,1.631-0.999,2.62l1.021,2.189c0.456,0.977,1.617,1.4,2.594,0.944l1.199-0.559
		c0.891-0.415,2.005,0.008,2.437,0.935c0.216,0.463,0.216,0.992,0.016,1.491l-0.363,0.998c-0.167,0.474-0.139,1.026,0.084,1.504
		c0.223,0.478,0.627,0.854,1.098,1.031l2.361,0.865c1.019,0.371,2.156-0.159,2.527-1.178l0.364-1.034
		c0.149-0.493,0.485-0.887,0.942-1.1c0.927-0.432,2.046-0.037,2.464,0.861l0.512,1.098c0.435,0.933,1.544,1.337,2.477,0.902
		l1.178-0.549l1.101-0.513C24.041,45.238,24.489,44.174,24.029,43.189z M18.205,38.164L18.205,38.164
		c-3.197,1.491-7.007,0.116-8.505-3.096s-0.102-7.014,3.096-8.505l0,0l0,0c3.197-1.491,7.007-0.116,8.505,3.096
		S21.403,36.673,18.205,38.164L18.205,38.164z"/>
	<path class="st3" d="M43.936,2.091l-0.529,1.135c-0.418,0.896-1.541,1.286-2.459,0.858c-0.463-0.216-0.791-0.606-0.94-1.098
		l-0.364-1.031c-0.367-1.024-1.502-1.553-2.522-1.176l-2.348,0.866c-0.466,0.17-0.873,0.551-1.095,1.028
		c-0.222,0.477-0.25,1.027-0.084,1.5l0.363,0.996c0.21,0.494,0.203,1.018-0.016,1.487c-0.431,0.925-1.543,1.347-2.432,0.932
		l-1.106-0.516c-0.976-0.455-2.181-0.059-2.639,0.924l-1.021,2.189c-0.456,0.977-0.033,2.138,0.944,2.594l1.117,0.521
		c0.892,0.416,1.285,1.542,0.853,2.468c-0.216,0.463-0.611,0.799-1.097,0.951l-1.023,0.377c-0.475,0.166-0.875,0.552-1.098,1.03
		s-0.25,1.029-0.083,1.503l0.836,2.372c0.372,1.019,1.51,1.55,2.523,1.177l0.999-0.362c0.495-0.21,1.024-0.209,1.489,0.007
		c0.928,0.433,1.346,1.544,0.927,2.441l-0.513,1.1c-0.462,0.991-0.075,2.185,0.912,2.645l1.102,0.514l1.102,0.514
		c0.979,0.456,2.15-0.011,2.612-1.002l0.527-1.129c0.418-0.896,1.546-1.284,2.469-0.854c0.465,0.217,0.807,0.623,0.966,1.136
		l0.359,0.994c0.375,1.019,1.516,1.551,2.53,1.18l2.365-0.858c0.475-0.165,0.876-0.55,1.098-1.027s0.249-1.027,0.081-1.501
		l-0.371-1.026c-0.2-0.463-0.194-0.988,0.021-1.45c0.431-0.925,1.548-1.345,2.442-0.928l1.105,0.515
		c0.981,0.458,2.188,0.071,2.65-0.919l1.021-2.189c0.456-0.977,0.033-2.138-0.944-2.594l-1.199-0.559
		c-0.891-0.415-1.282-1.541-0.85-2.468c0.216-0.463,0.621-0.803,1.132-0.971l0.998-0.363c0.471-0.177,0.875-0.553,1.098-1.031
		c0.223-0.478,0.251-1.029,0.084-1.504l-0.855-2.364c-0.371-1.019-1.508-1.549-2.527-1.178l-1.026,0.385
		c-0.473,0.202-0.992,0.199-1.448-0.014c-0.927-0.432-1.343-1.543-0.925-2.441l0.512-1.098c0.435-0.933,0.031-2.042-0.902-2.477
		l-1.178-0.549l-1.101-0.513C45.497,0.765,44.395,1.106,43.936,2.091z M43.829,9.783L43.829,9.783
		c3.197,1.491,4.593,5.293,3.096,8.505c-1.498,3.212-5.308,4.587-8.505,3.096l0,0l0,0c-3.197-1.491-4.593-5.293-3.096-8.505
		S40.632,8.292,43.829,9.783L43.829,9.783z"/>
</g>
<g>
</g>
<g>
</g>
<g>
</g>
<g>
</g>
<g>
</g>
<g>
</g>
<g>
</g>
<g>
</g>
<g>
</g>
<g>
</g>
<g>
</g>
<g>
</g>
<g>
</g>
<g>
</g>
<g>
</g>
</svg>
