<?xml version="1.0" encoding="utf-8"?>
<!-- Generator: Adobe Illustrator 26.0.1, SVG Export Plug-In . SVG Version: 6.00 Build 0)  -->
<svg version="1.1" id="Calque_1" xmlns="http://www.w3.org/2000/svg" xmlns:xlink="http://www.w3.org/1999/xlink" x="0px" y="0px"
	 viewBox="0 0 400 400" style="enable-background:new 0 0 400 400;" xml:space="preserve">
<style type="text/css">
	.st0{fill:#E07E64;}
	.st1{fill:#FDF8F7;}
	.st2{fill:#FCF6F4;}
	.st3{fill:#DF7A5F;}
</style>
<g>
	<g>
		<g>
			<path class="st0" d="M308.445,101.874c8.752-3.345,16.977-7.197,24.268,3.85c7.441,11.274,2.683,19.189-4.119,27.845
				c-13.89,17.698-6.733,28.716,12.312,34.247c10.135,2.948,20.545,3.523,21.025,17.956c0.448,13.492-8.827,16.592-18.454,21.41
				c-18.32,9.172-21.041,21.676-4.862,36.212c6.919,6.221,14.879,12.069,9.252,23.483c-5.549,11.267-14.192,12.645-25.852,11.085
				c-24.103-3.232-29.354,10.187-23.415,30.447c2.748,9.376,5.979,17.395-5.023,24.049c-9.819,5.948-17.391,3.389-25.356-3.092
				c-20.838-16.968-31.555-7.739-36.864,14.649c-1.966,8.283-3.996,15.939-14.811,17.046c-11.033,1.136-17.694-3.29-21.697-13.249
				c-9.778-24.33-23.357-27.629-40.864-6.985c-5.878,6.929-12.376,11.031-21.569,6.003c-9.361-5.114-12.428-12.284-10.632-23.192
				c4.18-25.311-8.541-31.997-30.992-25.636c-7.954,2.252-15.009,6.292-21.883-3.205c-7.684-10.611-5.151-18.943,2.176-27.906
				c15.377-18.832,8.198-30.099-12.857-35.776c-9.119-2.465-18.337-3.405-19.384-16.062c-1.089-13.135,6.654-17.687,16.932-22.401
				c20.644-9.465,22.591-22.655,5.073-37.816c-7.44-6.446-13.568-13.037-7.325-23.832c5.474-9.483,13.047-11.39,23.603-9.835
				c26.124,3.838,31.088-10.218,24.529-31.829c-2.537-8.351-5.123-15.302,4.194-21.598c9.298-6.284,17.067-5.488,25.329,1.297
				c21.933,18.007,33.362,9.127,38.45-15.33c1.836-8.844,5.586-15.094,16.07-15.62c9.704-0.498,16.046,3.274,19.43,12.002
				c10.227,26.369,24.36,28.997,42.719,7.305c5.113-6.039,10.936-9.469,18.991-5.526c9.323,4.565,14.319,10.954,12.215,22.24
				C274.606,97.968,284.4,107.571,308.445,101.874z"/>
			<path class="st1" d="M300.076,198.691c0.49,55.42-44.98,101.05-100.37,100.74c-54.01-0.3-98.69-44.85-99.16-98.84
				c-0.48-55.59,44.71-100.95,100.3-100.67C254.876,100.181,299.596,144.711,300.076,198.691z"/>
			<path class="st2" d="M201.566,174.821c13.89,2.81,23.26,10.52,22.99,24.77c-0.29,15.63-10.01,25.07-25.68,24.3
				c-13.94-0.68-23.04-9.88-22.84-24.11C176.256,184.041,186.426,176.281,201.566,174.821z"/>
			<g>
				<g>
					<g>
						<path class="st3" d="M219.515,154.478c-3.03,10.753-6.037,21.41-9.032,32.067c-5.466,19.455-10.952,38.902-16.366,58.373
							c-1.279,4.603-3.106,9.073-8.823,7.536c-5.452-1.467-5.505-5.764-4.08-10.748c8.373-29.276,16.537-58.614,24.701-87.949
							c1.216-4.371,2.982-8.18,8.312-7.261C218.417,147.217,220.012,150.383,219.515,154.478z"/>
						<path class="st3" d="M173.4,229.604c0.101,2.816-1.326,4.808-3.665,6.039c-2.407,1.268-4.913,1.035-6.974-0.799
							c-11.387-10.113-22.793-20.207-34.033-30.481c-2.869-2.623-2.942-6.2-0.09-8.862c11.13-10.391,22.397-20.643,33.749-30.795
							c2.885-2.578,6.227-2.278,8.885,0.61c3.04,3.303,2.304,6.699-0.699,9.526c-7.461,7.025-14.922,14.058-22.661,20.768
							c-3.682,3.194-3.624,5.315,0.068,8.422c7.199,6.064,14.091,12.493,21.066,18.818
							C171.076,224.693,173.349,226.451,173.4,229.604z"/>
						<path class="st3" d="M233.091,236.017c-2.805-0.071-4.721-1.598-5.793-4.022c-1.448-3.274-0.052-5.873,2.395-8.11
							c6.948-6.358,13.598-13.084,20.909-18.988c5.505-4.447,4.639-7.304-0.309-11.334c-7.077-5.768-13.661-12.143-20.456-18.253
							c-3.243-2.918-4.975-6.314-1.692-10.079c3.57-4.09,7.229-2.703,10.785,0.501c9.885,8.892,19.777,17.776,29.821,26.487
							c5.327,4.62,5.887,8.863,0.369,13.758c-10.153,9.006-20.14,18.2-30.196,27.318
							C237.258,234.805,235.548,236.206,233.091,236.017z"/>
					</g>
				</g>
			</g>
		</g>
	</g>
</g>
<g>
</g>
<g>
</g>
<g>
</g>
<g>
</g>
<g>
</g>
<g>
</g>
<g>
</g>
<g>
</g>
<g>
</g>
<g>
</g>
<g>
</g>
<g>
</g>
<g>
</g>
<g>
</g>
<g>
</g>
</svg>
