<?xml version="1.0" encoding="utf-8"?>
<!-- Generator: Adobe Illustrator 26.0.1, SVG Export Plug-In . SVG Version: 6.00 Build 0)  -->
<svg version="1.1" id="Calque_1" xmlns="http://www.w3.org/2000/svg" xmlns:xlink="http://www.w3.org/1999/xlink" x="0px" y="0px"
	 viewBox="0 0 400 400" style="enable-background:new 0 0 400 400;" xml:space="preserve">
<style type="text/css">
	.st0{fill:#E07E64;}
	.st1{fill:#FDF8F7;}
	.st2{fill:#FCF6F4;}
	.st3{fill:#DF7A5F;}
</style>
<g>
	<g>
		<g>
			<path class="st0" d="M304.967,98.161c8.63-3.649,16.716-7.785,24.387,3c7.83,11.008,3.351,19.084-3.145,27.972
				c-13.264,18.172-5.727,28.934,13.499,33.797c10.232,2.592,20.656,2.804,21.639,17.211c0.918,13.468-8.243,16.89-17.696,22.041
				c-17.989,9.805-20.272,22.397-3.596,36.359c7.131,5.975,15.291,11.543,10.066,23.146c-5.153,11.453-13.742,13.133-25.45,11.981
				c-24.201-2.388-28.98,11.205-22.339,31.245c3.073,9.275,6.582,17.176-4.181,24.21c-9.605,6.287-17.262,3.993-25.448-2.205
				c-21.418-16.231-31.805-6.633-36.33,15.926c-1.675,8.346-3.437,16.069-14.207,17.552c-10.987,1.52-17.798-2.671-22.146-12.484
				c-10.621-23.974-24.307-26.797-41.083-5.555c-5.633,7.13-11.983,11.456-21.346,6.752c-9.534-4.784-12.849-11.842-11.435-22.806
				c3.294-25.441-9.653-31.68-31.868-24.539c-7.871,2.528-14.78,6.812-21.981-2.439c-8.05-10.336-5.809-18.752,1.201-27.965
				c14.711-19.357,7.142-30.367-14.098-35.305c-9.2-2.145-18.444-2.763-19.932-15.375c-1.547-13.089,6.032-17.909,16.14-22.978
				c20.301-10.18,21.787-23.43,3.751-37.97c-7.661-6.183-14.015-12.556-8.152-23.562c5.14-9.668,12.641-11.839,23.245-10.652
				c26.242,2.924,30.712-11.297,23.403-32.666c-2.827-8.257-5.654-15.114,3.437-21.731c9.073-6.605,16.865-6.081,25.359,0.413
				c22.548,17.231,33.661,7.957,37.892-16.662c1.526-8.902,5.056-15.28,15.515-16.171c9.68-0.836,16.151,2.712,19.837,11.317
				c11.141,25.996,25.357,28.129,42.948,5.809c4.899-6.213,10.599-9.845,18.786-6.186c9.477,4.237,14.693,10.447,12.984,21.8
				C271.012,95.438,281.136,104.694,304.967,98.161z"/>
			<path class="st1" d="M300.076,198.691c0.49,55.42-44.98,101.05-100.37,100.74c-54.01-0.3-98.69-44.85-99.16-98.84
				c-0.48-55.59,44.71-100.95,100.3-100.67C254.876,100.181,299.596,144.711,300.076,198.691z"/>
			<path class="st2" d="M201.566,174.821c13.89,2.81,23.26,10.52,22.99,24.77c-0.29,15.63-10.01,25.07-25.68,24.3
				c-13.94-0.68-23.04-9.88-22.84-24.11C176.256,184.041,186.426,176.281,201.566,174.821z"/>
			<g>
				<g>
					<g>
						<path class="st3" d="M219.515,154.478c-3.03,10.753-6.037,21.41-9.032,32.067c-5.466,19.455-10.952,38.902-16.366,58.373
							c-1.279,4.603-3.106,9.073-8.823,7.536c-5.452-1.467-5.505-5.764-4.08-10.748c8.373-29.276,16.537-58.614,24.701-87.949
							c1.216-4.371,2.982-8.18,8.312-7.261C218.417,147.217,220.012,150.383,219.515,154.478z"/>
						<path class="st3" d="M173.4,229.604c0.101,2.816-1.326,4.808-3.665,6.039c-2.407,1.268-4.913,1.035-6.974-0.799
							c-11.387-10.113-22.793-20.207-34.033-30.481c-2.869-2.623-2.942-6.2-0.09-8.862c11.13-10.391,22.397-20.643,33.749-30.795
							c2.885-2.578,6.227-2.278,8.885,0.61c3.04,3.303,2.304,6.699-0.699,9.526c-7.461,7.025-14.922,14.058-22.661,20.768
							c-3.682,3.194-3.624,5.315,0.068,8.422c7.199,6.064,14.091,12.493,21.066,18.818
							C171.076,224.693,173.349,226.451,173.4,229.604z"/>
						<path class="st3" d="M233.091,236.017c-2.805-0.071-4.721-1.598-5.793-4.022c-1.448-3.274-0.052-5.873,2.395-8.11
							c6.948-6.358,13.598-13.084,20.909-18.988c5.505-4.447,4.639-7.304-0.309-11.334c-7.077-5.768-13.661-12.143-20.456-18.253
							c-3.243-2.918-4.975-6.314-1.692-10.079c3.57-4.09,7.229-2.703,10.785,0.501c9.885,8.892,19.777,17.776,29.821,26.487
							c5.327,4.62,5.887,8.863,0.369,13.758c-10.153,9.006-20.14,18.2-30.196,27.318
							C237.258,234.805,235.548,236.206,233.091,236.017z"/>
					</g>
				</g>
			</g>
		</g>
	</g>
</g>
<g>
</g>
<g>
</g>
<g>
</g>
<g>
</g>
<g>
</g>
<g>
</g>
<g>
</g>
<g>
</g>
<g>
</g>
<g>
</g>
<g>
</g>
<g>
</g>
<g>
</g>
<g>
</g>
<g>
</g>
</svg>
