<?xml version="1.0" encoding="utf-8"?>
<!-- Generator: Adobe Illustrator 26.0.1, SVG Export Plug-In . SVG Version: 6.00 Build 0)  -->
<svg version="1.1" id="Calque_1" xmlns="http://www.w3.org/2000/svg" xmlns:xlink="http://www.w3.org/1999/xlink" x="0px" y="0px"
	 viewBox="0 0 400 400" style="enable-background:new 0 0 400 400;" xml:space="preserve">
<style type="text/css">
	.st0{fill:#E07E64;}
	.st1{fill:#FDF8F7;}
	.st2{fill:#FCF6F4;}
	.st3{fill:#DF7A5F;}
</style>
<g>
	<g>
		<g>
			<path class="st0" d="M345.278,184.082c9.047,2.438,17.965,4.156,17.37,17.379c-0.607,13.495-9.109,17.101-19.699,20.106
				c-21.64,6.153-22.326,19.274-10.17,34.943c6.467,8.342,14.551,14.926,6.455,26.885c-7.568,11.179-16.894,8.235-27.514,6.474
				c-20.212-3.348-29.763,5.169-25.218,26.438c1.941,9.099,4.943,18.51-6.318,24.436c-11.112,5.853-18.914,1.888-27.431-6.227
				c-17.601-16.782-29.736-9.012-36.84,10.869c-3.288,9.201-5.388,17.587-18.2,16.504c-11.44-0.959-16.061-7.481-18.696-17.405
				c-6.885-25.976-20.979-24.809-38.434-9.817c-6.459,5.546-12.602,10.546-22.001,5.085c-9.594-5.566-12.381-13.062-9.766-23.472
				c6.391-25.431-2.656-36.082-28.954-29.67c-8.828,2.15-16.496,1.65-20.978-7.822c-4.568-9.639-2.834-17.243,5.03-25.012
				c18.259-18.02,11.898-30.907-10.005-38.957c-7.758-2.854-15.841-3.732-15.82-15.455c0.02-13.101,6.968-18.353,18.163-21.297
				c23.51-6.197,24.324-19.532,10.627-36.5c-5.929-7.354-12.833-13.533-6.241-24.388c6.84-11.267,15.779-10.398,26.865-8.17
				c22.265,4.476,31.593-5.05,26.332-27.612c-2.23-9.588-3.314-18.522,8.082-23.586c10.003-4.454,17.25-1.546,24.876,5.917
				c18.879,18.46,31.157,10.006,38.553-11.332c2.856-8.247,4.849-15.391,16.087-15.008c11.216,0.381,17.033,5.591,19.729,15.938
				c7.16,27.46,21.626,26.994,40.117,10.199c6.684-6.075,13.391-8.928,22.182-3.191c8.143,5.301,11.057,12.08,8.664,21.131
				c-7.225,27.344,2.663,37.778,30.267,31.019c7.686-1.88,14.414-1.233,18.612,6.692c4.86,9.173,5.146,17.278-3.19,25.172
				C320.197,161.032,322.476,174.558,345.278,184.082z"/>
			<path class="st1" d="M300.076,198.691c0.49,55.42-44.98,101.05-100.37,100.74c-54.01-0.3-98.69-44.85-99.16-98.84
				c-0.48-55.59,44.71-100.95,100.3-100.67C254.876,100.181,299.596,144.711,300.076,198.691z"/>
			<path class="st2" d="M201.566,174.821c13.89,2.81,23.26,10.52,22.99,24.77c-0.29,15.63-10.01,25.07-25.68,24.3
				c-13.94-0.68-23.04-9.88-22.84-24.11C176.256,184.041,186.426,176.281,201.566,174.821z"/>
			<g>
				<g>
					<g>
						<path class="st3" d="M219.515,154.478c-3.03,10.753-6.037,21.41-9.032,32.067c-5.466,19.455-10.952,38.902-16.366,58.373
							c-1.279,4.603-3.106,9.073-8.823,7.536c-5.452-1.467-5.505-5.764-4.08-10.748c8.373-29.276,16.537-58.614,24.701-87.949
							c1.216-4.371,2.982-8.18,8.312-7.261C218.417,147.217,220.012,150.383,219.515,154.478z"/>
						<path class="st3" d="M173.4,229.604c0.101,2.816-1.326,4.808-3.665,6.039c-2.407,1.268-4.913,1.035-6.974-0.799
							c-11.387-10.113-22.793-20.207-34.033-30.481c-2.869-2.623-2.942-6.2-0.09-8.862c11.13-10.391,22.397-20.643,33.749-30.795
							c2.885-2.578,6.227-2.278,8.885,0.61c3.04,3.303,2.304,6.699-0.699,9.526c-7.461,7.025-14.922,14.058-22.661,20.768
							c-3.682,3.194-3.624,5.315,0.068,8.422c7.199,6.064,14.091,12.493,21.066,18.818
							C171.076,224.693,173.349,226.451,173.4,229.604z"/>
						<path class="st3" d="M233.091,236.017c-2.805-0.071-4.721-1.598-5.793-4.022c-1.448-3.274-0.052-5.873,2.395-8.11
							c6.948-6.358,13.598-13.084,20.909-18.988c5.505-4.447,4.639-7.304-0.309-11.334c-7.077-5.768-13.661-12.143-20.456-18.253
							c-3.243-2.918-4.975-6.314-1.692-10.079c3.57-4.09,7.229-2.703,10.785,0.501c9.885,8.892,19.777,17.776,29.821,26.487
							c5.327,4.62,5.887,8.863,0.369,13.758c-10.153,9.006-20.14,18.2-30.196,27.318
							C237.258,234.805,235.548,236.206,233.091,236.017z"/>
					</g>
				</g>
			</g>
		</g>
	</g>
</g>
<g>
</g>
<g>
</g>
<g>
</g>
<g>
</g>
<g>
</g>
<g>
</g>
<g>
</g>
<g>
</g>
<g>
</g>
<g>
</g>
<g>
</g>
<g>
</g>
<g>
</g>
<g>
</g>
<g>
</g>
</svg>
