<?xml version="1.0" encoding="utf-8"?>
<!-- Generator: Adobe Illustrator 26.0.1, SVG Export Plug-In . SVG Version: 6.00 Build 0)  -->
<svg version="1.1" id="Calque_1" xmlns="http://www.w3.org/2000/svg" xmlns:xlink="http://www.w3.org/1999/xlink" x="0px" y="0px"
	 viewBox="0 0 400 400" style="enable-background:new 0 0 400 400;" xml:space="preserve">
<style type="text/css">
	.st0{fill:#E07E64;}
	.st1{fill:#FDF8F7;}
	.st2{fill:#FCF6F4;}
	.st3{fill:#DF7A5F;}
</style>
<g>
	<g>
		<g>
			<path class="st0" d="M315.001,109.653c8.964-2.727,17.438-5.995,23.94,5.533c6.636,11.766,1.338,19.33-6.051,27.49
				c-15.091,16.686-8.72,28.176,9.893,35.023c9.905,3.648,20.249,4.947,19.721,19.379c-0.495,13.491-9.963,15.936-19.903,20.07
				c-18.915,7.871-22.502,20.156-7.377,35.784c6.468,6.688,14,13.078,7.591,24.071c-6.322,10.852-15.039,11.624-26.563,9.255
				c-23.819-4.905-29.993,8.115-25.482,28.739c2.087,9.545,4.751,17.77-6.688,23.64c-10.21,5.249-17.585,2.167-25.078-4.853
				c-19.604-18.381-30.938-9.922-37.796,12.041c-2.539,8.126-5.098,15.621-15.964,15.971c-11.085,0.364-17.421-4.517-20.72-14.731
				c-8.057-24.953-21.373-29.191-40.277-9.819c-6.347,6.502-13.115,10.14-21.935,4.484c-8.982-5.754-11.541-13.121-8.988-23.877
				c5.935-24.957-6.288-32.515-29.128-27.736c-8.092,1.691-15.411,5.23-21.606-4.724c-6.925-11.121-3.817-19.256,4.117-27.686
				c16.653-17.713,10.278-29.454-10.33-36.585c-8.925-3.095-18.054-4.676-18.216-17.375c-0.17-13.179,7.871-17.18,18.453-21.165
				c21.254-8.002,24.117-21.024,7.699-37.37c-6.972-6.949-12.625-13.952-5.645-24.285c6.122-9.078,13.81-10.453,24.231-8.164
				c25.793,5.651,31.725-8.025,26.69-30.04c-1.949-8.507-4.043-15.622,5.69-21.253c9.713-5.62,17.408-4.284,25.177,3.061
				c20.623,19.493,32.645,11.432,39.426-12.61c2.449-8.694,6.625-14.668,17.12-14.461c9.715,0.18,15.779,4.385,18.545,13.328
				c8.363,27.018,22.278,30.626,42.106,10.267c5.522-5.667,11.57-8.683,19.33-4.188c8.982,5.204,13.52,11.926,10.634,23.038
				C281.517,103.396,290.618,113.659,315.001,109.653z"/>
			<path class="st1" d="M300.076,198.691c0.49,55.42-44.98,101.05-100.37,100.74c-54.01-0.3-98.69-44.85-99.16-98.84
				c-0.48-55.59,44.71-100.95,100.3-100.67C254.876,100.181,299.596,144.711,300.076,198.691z"/>
			<path class="st2" d="M201.566,174.821c13.89,2.81,23.26,10.52,22.99,24.77c-0.29,15.63-10.01,25.07-25.68,24.3
				c-13.94-0.68-23.04-9.88-22.84-24.11C176.256,184.041,186.426,176.281,201.566,174.821z"/>
			<g>
				<g>
					<g>
						<path class="st3" d="M219.515,154.478c-3.03,10.753-6.037,21.41-9.032,32.067c-5.466,19.455-10.952,38.902-16.366,58.373
							c-1.279,4.603-3.106,9.073-8.823,7.536c-5.452-1.467-5.505-5.764-4.08-10.748c8.373-29.276,16.537-58.614,24.701-87.949
							c1.216-4.371,2.982-8.18,8.312-7.261C218.417,147.217,220.012,150.383,219.515,154.478z"/>
						<path class="st3" d="M173.4,229.604c0.101,2.816-1.326,4.808-3.665,6.039c-2.407,1.268-4.913,1.035-6.974-0.799
							c-11.387-10.113-22.793-20.207-34.033-30.481c-2.869-2.623-2.942-6.2-0.09-8.862c11.13-10.391,22.397-20.643,33.749-30.795
							c2.885-2.578,6.227-2.278,8.885,0.61c3.04,3.303,2.304,6.699-0.699,9.526c-7.461,7.025-14.922,14.058-22.661,20.768
							c-3.682,3.194-3.624,5.315,0.068,8.422c7.199,6.064,14.091,12.493,21.066,18.818
							C171.076,224.693,173.349,226.451,173.4,229.604z"/>
						<path class="st3" d="M233.091,236.017c-2.805-0.071-4.721-1.598-5.793-4.022c-1.448-3.274-0.052-5.873,2.395-8.11
							c6.948-6.358,13.598-13.084,20.909-18.988c5.505-4.447,4.639-7.304-0.309-11.334c-7.077-5.768-13.661-12.143-20.456-18.253
							c-3.243-2.918-4.975-6.314-1.692-10.079c3.57-4.09,7.229-2.703,10.785,0.501c9.885,8.892,19.777,17.776,29.821,26.487
							c5.327,4.62,5.887,8.863,0.369,13.758c-10.153,9.006-20.14,18.2-30.196,27.318
							C237.258,234.805,235.548,236.206,233.091,236.017z"/>
					</g>
				</g>
			</g>
		</g>
	</g>
</g>
<g>
</g>
<g>
</g>
<g>
</g>
<g>
</g>
<g>
</g>
<g>
</g>
<g>
</g>
<g>
</g>
<g>
</g>
<g>
</g>
<g>
</g>
<g>
</g>
<g>
</g>
<g>
</g>
<g>
</g>
</svg>
