<?xml version="1.0" encoding="utf-8"?>
<!-- Generator: Adobe Illustrator 26.0.1, SVG Export Plug-In . SVG Version: 6.00 Build 0)  -->
<svg version="1.1" id="Calque_1" xmlns="http://www.w3.org/2000/svg" xmlns:xlink="http://www.w3.org/1999/xlink" x="0px" y="0px"
	 viewBox="0 0 400 400" style="enable-background:new 0 0 400 400;" xml:space="preserve">
<style type="text/css">
	.st0{fill:#E07E64;}
	.st1{fill:#FDF8F7;}
	.st2{fill:#FCF6F4;}
	.st3{fill:#DF7A5F;}
</style>
<g>
	<g>
		<g>
			<path class="st0" d="M60.844,157.359c-7.375-5.779-14.913-10.846-9.199-22.784c5.832-12.185,15.067-12.183,25.989-10.811
				c22.324,2.791,28.082-9.019,23.015-28.192c-2.693-10.206-7.562-19.425,4.563-27.27c11.335-7.333,18.769-0.979,27.856,4.791
				c17.297,10.98,29.417,6.871,33.544-14.482c1.769-9.134,2.682-18.969,15.364-20.025c12.515-1.046,18.148,5.652,22.817,16.45
				c9.644,22.325,23.85,19.914,38.158,4.39c6.622-7.184,11.831-14.084,23.201-8.081c10.156,5.353,11.862,13.162,10.409,23.327
				c-3.812,26.601,9.618,31.034,31.542,24.054c8.112-2.581,15.72-4.784,22.239,3.916c6.656,8.872,6.293,16.861-0.182,25.422
				c-15.819,20.912-11.653,34.251,15.059,38.625c8.967,1.47,15.829,4.927,16.254,15.397c0.438,10.658-4.128,16.979-14.403,21.058
				c-23.848,9.453-23.028,23.801-6.012,39.769c6.027,5.658,13.123,9.624,8.523,20.408c-5.138,12.051-13.585,14.171-25.041,12.507
				c-24.062-3.482-30.022,8.475-24.044,29.446c2.584,9.086,6.525,17.471-3.784,24.887c-10.698,7.698-18.588,3.406-27.922-2.976
				c-18.746-12.82-31.055-7.696-35.028,15.128c-1.693,9.697-4.187,18.345-16.656,18.553c-10.948,0.192-16.483-5.317-20.586-15.166
				c-10.165-24.369-24.77-21.385-39.916-4.633c-5.851,6.476-10.478,12.272-20.673,7.529c-10.175-4.733-13.494-11.802-11.934-22.38
				c4.139-28.074-9.36-33.298-32.943-25.063c-8.526,2.981-15.815,2.986-21.666-5.73c-5.424-8.061-5.458-15.441,0.281-22.836
				c17.335-22.347,12.309-35.815-15.741-40.38c-7.81-1.273-13.749-4.497-14.518-13.432c-0.889-10.343,2.014-17.915,12.772-21.925
				C74.925,188.376,78.112,175.035,60.844,157.359z"/>
			<path class="st1" d="M300.076,198.691c0.49,55.42-44.98,101.05-100.37,100.74c-54.01-0.3-98.69-44.85-99.16-98.84
				c-0.48-55.59,44.71-100.95,100.3-100.67C254.876,100.181,299.596,144.711,300.076,198.691z"/>
			<path class="st2" d="M201.566,174.821c13.89,2.81,23.26,10.52,22.99,24.77c-0.29,15.63-10.01,25.07-25.68,24.3
				c-13.94-0.68-23.04-9.88-22.84-24.11C176.256,184.041,186.426,176.281,201.566,174.821z"/>
			<g>
				<g>
					<g>
						<path class="st3" d="M219.515,154.478c-3.03,10.753-6.037,21.41-9.032,32.067c-5.466,19.455-10.952,38.902-16.366,58.373
							c-1.279,4.603-3.106,9.073-8.823,7.536c-5.452-1.467-5.505-5.764-4.08-10.748c8.373-29.276,16.537-58.614,24.701-87.949
							c1.216-4.371,2.982-8.18,8.312-7.261C218.417,147.217,220.012,150.383,219.515,154.478z"/>
						<path class="st3" d="M173.4,229.604c0.101,2.816-1.326,4.808-3.665,6.039c-2.407,1.268-4.913,1.035-6.974-0.799
							c-11.387-10.113-22.793-20.207-34.033-30.481c-2.869-2.623-2.942-6.2-0.09-8.862c11.13-10.391,22.397-20.643,33.749-30.795
							c2.885-2.578,6.227-2.278,8.885,0.61c3.04,3.303,2.304,6.699-0.699,9.526c-7.461,7.025-14.922,14.058-22.661,20.768
							c-3.682,3.194-3.624,5.315,0.068,8.422c7.199,6.064,14.091,12.493,21.066,18.818
							C171.076,224.693,173.349,226.451,173.4,229.604z"/>
						<path class="st3" d="M233.091,236.017c-2.805-0.071-4.721-1.598-5.793-4.022c-1.448-3.274-0.052-5.873,2.395-8.11
							c6.948-6.358,13.598-13.084,20.909-18.988c5.505-4.447,4.639-7.304-0.309-11.334c-7.077-5.768-13.661-12.143-20.456-18.253
							c-3.243-2.918-4.975-6.314-1.692-10.079c3.57-4.09,7.229-2.703,10.785,0.501c9.885,8.892,19.777,17.776,29.821,26.487
							c5.327,4.62,5.887,8.863,0.369,13.758c-10.153,9.006-20.14,18.2-30.196,27.318
							C237.258,234.805,235.548,236.206,233.091,236.017z"/>
					</g>
				</g>
			</g>
		</g>
	</g>
</g>
<g>
</g>
<g>
</g>
<g>
</g>
<g>
</g>
<g>
</g>
<g>
</g>
<g>
</g>
<g>
</g>
<g>
</g>
<g>
</g>
<g>
</g>
<g>
</g>
<g>
</g>
<g>
</g>
<g>
</g>
</svg>
