<?xml version="1.0" encoding="utf-8"?>
<!-- Generator: Adobe Illustrator 26.0.1, SVG Export Plug-In . SVG Version: 6.00 Build 0)  -->
<svg version="1.1" id="Calque_1" xmlns="http://www.w3.org/2000/svg" xmlns:xlink="http://www.w3.org/1999/xlink" x="0px" y="0px"
	 viewBox="0 0 400 400" style="enable-background:new 0 0 400 400;" xml:space="preserve">
<style type="text/css">
	.st0{fill:#E07E64;}
	.st1{fill:#FDF8F7;}
	.st2{fill:#FCF6F4;}
	.st3{fill:#DF7A5F;}
</style>
<g>
	<g>
		<g>
			<path class="st0" d="M75.57,275.009c-9.229,1.614-18.039,3.825-23.087-8.409c-5.153-12.487,1.028-19.349,9.356-26.547
				c17.012-14.722,12.088-26.904-5.551-35.967c-9.387-4.828-19.496-7.378-17.213-21.638c2.135-13.33,11.831-14.603,22.2-17.495
				c19.734-5.507,24.79-17.263,11.683-34.618c-5.604-7.426-12.302-14.686-4.601-24.817c7.597-10.001,16.344-9.705,27.492-5.949
				c23.044,7.771,30.758-4.399,28.795-25.419c-0.908-9.728-2.55-18.216,9.52-22.649c10.774-3.966,17.718-0.008,24.3,7.873
				c17.218,20.633,29.498,13.618,38.981-7.346c3.51-7.756,6.964-14.884,17.791-13.907c11.047,0.99,16.741,6.606,18.771,17.146
				c4.956,25.749,17.656,31.579,38.781,14.654c7.093-5.68,14.253-8.467,22.318-1.777c8.214,6.806,9.856,14.429,6.011,24.794
				c-8.933,24.048,2.279,33.039,25.531,31.079c8.238-0.693,15.934-3.313,20.869,7.322c5.518,11.882,1.441,19.578-7.461,26.978
				c-18.688,15.552-13.79,27.982,5.794,37.572c8.482,4.159,17.35,6.841,15.963,19.465c-1.437,13.102-9.906,16.093-20.895,18.759
				c-22.07,5.352-26.499,17.928-12.196,36.153c6.073,7.747,10.831,15.386,2.643,24.792c-7.183,8.264-14.981,8.692-25.046,5.15
				c-24.912-8.752-32.466,4.099-30.152,26.564c0.897,8.681,2.109,15.998-8.238,20.401c-10.326,4.395-17.8,2.131-24.617-6.107
				c-18.094-21.861-31.008-15.325-40.669,7.711c-3.49,8.331-8.363,13.751-18.755,12.267c-9.62-1.363-15.127-6.276-16.783-15.489
				c-5.008-27.836-18.379-33.113-40.541-15.322c-6.171,4.952-12.542,7.208-19.696,1.801c-8.281-6.26-11.966-13.485-7.747-24.162
				C108.043,285.3,100.261,274.004,75.57,275.009z"/>
			<path class="st1" d="M300.076,198.691c0.49,55.42-44.98,101.05-100.37,100.74c-54.01-0.3-98.69-44.85-99.16-98.84
				c-0.48-55.59,44.71-100.95,100.3-100.67C254.876,100.181,299.596,144.711,300.076,198.691z"/>
			<path class="st2" d="M201.566,174.821c13.89,2.81,23.26,10.52,22.99,24.77c-0.29,15.63-10.01,25.07-25.68,24.3
				c-13.94-0.68-23.04-9.88-22.84-24.11C176.256,184.041,186.426,176.281,201.566,174.821z"/>
			<g>
				<g>
					<g>
						<path class="st3" d="M219.515,154.478c-3.03,10.753-6.037,21.41-9.032,32.067c-5.466,19.455-10.952,38.902-16.366,58.373
							c-1.279,4.603-3.106,9.073-8.823,7.536c-5.452-1.467-5.505-5.764-4.08-10.748c8.373-29.276,16.537-58.614,24.701-87.949
							c1.216-4.371,2.982-8.18,8.312-7.261C218.417,147.217,220.012,150.383,219.515,154.478z"/>
						<path class="st3" d="M173.4,229.604c0.101,2.816-1.326,4.808-3.665,6.039c-2.407,1.268-4.913,1.035-6.974-0.799
							c-11.387-10.113-22.793-20.207-34.033-30.481c-2.869-2.623-2.942-6.2-0.09-8.862c11.13-10.391,22.397-20.643,33.749-30.795
							c2.885-2.578,6.227-2.278,8.885,0.61c3.04,3.303,2.304,6.699-0.699,9.526c-7.461,7.025-14.922,14.058-22.661,20.768
							c-3.682,3.194-3.624,5.315,0.068,8.422c7.199,6.064,14.091,12.493,21.066,18.818
							C171.076,224.693,173.349,226.451,173.4,229.604z"/>
						<path class="st3" d="M233.091,236.017c-2.805-0.071-4.721-1.598-5.793-4.022c-1.448-3.274-0.052-5.873,2.395-8.11
							c6.948-6.358,13.598-13.084,20.909-18.988c5.505-4.447,4.639-7.304-0.309-11.334c-7.077-5.768-13.661-12.143-20.456-18.253
							c-3.243-2.918-4.975-6.314-1.692-10.079c3.57-4.09,7.229-2.703,10.785,0.501c9.885,8.892,19.777,17.776,29.821,26.487
							c5.327,4.62,5.887,8.863,0.369,13.758c-10.153,9.006-20.14,18.2-30.196,27.318
							C237.258,234.805,235.548,236.206,233.091,236.017z"/>
					</g>
				</g>
			</g>
		</g>
	</g>
</g>
<g>
</g>
<g>
</g>
<g>
</g>
<g>
</g>
<g>
</g>
<g>
</g>
<g>
</g>
<g>
</g>
<g>
</g>
<g>
</g>
<g>
</g>
<g>
</g>
<g>
</g>
<g>
</g>
<g>
</g>
</svg>
