<?xml version="1.0" encoding="utf-8"?>
<!-- Generator: Adobe Illustrator 26.0.1, SVG Export Plug-In . SVG Version: 6.00 Build 0)  -->
<svg version="1.1" id="Calque_1" xmlns="http://www.w3.org/2000/svg" xmlns:xlink="http://www.w3.org/1999/xlink" x="0px" y="0px"
	 viewBox="0 0 400 400" style="enable-background:new 0 0 400 400;" xml:space="preserve">
<style type="text/css">
	.st0{fill:#E07E64;}
	.st1{fill:#FDF8F7;}
	.st2{fill:#FCF6F4;}
	.st3{fill:#DF7A5F;}
</style>
<g>
	<g>
		<g>
			<path class="st0" d="M323.779,122.132c9.2-1.775,17.969-4.14,23.231,8.005c5.37,12.395-0.69,19.364-8.891,26.707
				c-16.753,15.017-11.617,27.111,6.178,35.865c9.47,4.663,19.621,7.037,17.588,21.334c-1.902,13.365-11.575,14.808-21.892,17.88
				c-19.635,5.851-24.485,17.693-11.077,34.817c5.733,7.328,12.557,14.469,5.034,24.733c-7.421,10.132-16.172,9.989-27.384,6.428
				c-23.176-7.368-30.677,4.935-28.347,25.918c1.078,9.711,2.867,18.169-9.123,22.812c-10.703,4.153-17.715,0.317-24.434-7.448
				c-17.575-20.329-29.731-13.101-38.847,8.025c-3.374,7.816-6.703,15.003-17.546,14.215c-11.063-0.797-16.854-6.313-19.067-16.816
				c-5.404-25.659-18.204-31.266-39.031-13.975c-6.992,5.803-14.103,8.714-22.284,2.166c-8.331-6.661-10.106-14.255-6.443-24.685
				c8.512-24.2-2.855-32.994-26.07-30.629c-8.224,0.836-15.873,3.59-20.994-6.956c-5.725-11.784-1.783-19.55,6.989-27.104
				c18.414-15.876,13.3-28.218-6.449-37.465c-8.553-4.011-17.467-6.537-16.3-19.184c1.208-13.125,9.624-16.263,20.565-19.12
				c21.974-5.737,26.182-18.388,11.563-36.361c-6.208-7.64-11.098-15.195-3.075-24.742c7.038-8.389,14.827-8.952,24.952-5.587
				c25.061,8.316,32.39-4.665,29.684-27.086c-1.049-8.664-2.388-15.959,7.88-20.541c10.248-4.574,17.76-2.441,24.719,5.676
				c18.473,21.542,31.271,14.782,40.528-8.42c3.344-8.39,8.122-13.895,18.538-12.592c9.643,1.195,15.234,6.011,17.051,15.194
				c5.493,27.744,18.955,32.787,40.802,14.612c6.084-5.059,12.414-7.426,19.662-2.145c8.389,6.114,12.2,13.274,8.167,24.023
				C291.133,112.409,299.111,123.567,323.779,122.132z"/>
			<path class="st1" d="M300.076,198.691c0.49,55.42-44.98,101.05-100.37,100.74c-54.01-0.3-98.69-44.85-99.16-98.84
				c-0.48-55.59,44.71-100.95,100.3-100.67C254.876,100.181,299.596,144.711,300.076,198.691z"/>
			<path class="st2" d="M201.566,174.821c13.89,2.81,23.26,10.52,22.99,24.77c-0.29,15.63-10.01,25.07-25.68,24.3
				c-13.94-0.68-23.04-9.88-22.84-24.11C176.256,184.041,186.426,176.281,201.566,174.821z"/>
			<g>
				<g>
					<g>
						<path class="st3" d="M219.515,154.478c-3.03,10.753-6.037,21.41-9.032,32.067c-5.466,19.455-10.952,38.902-16.366,58.373
							c-1.279,4.603-3.106,9.073-8.823,7.536c-5.452-1.467-5.505-5.764-4.08-10.748c8.373-29.276,16.537-58.614,24.701-87.949
							c1.216-4.371,2.982-8.18,8.312-7.261C218.417,147.217,220.012,150.383,219.515,154.478z"/>
						<path class="st3" d="M173.4,229.604c0.101,2.816-1.326,4.808-3.665,6.039c-2.407,1.268-4.913,1.035-6.974-0.799
							c-11.387-10.113-22.793-20.207-34.033-30.481c-2.869-2.623-2.942-6.2-0.09-8.862c11.13-10.391,22.397-20.643,33.749-30.795
							c2.885-2.578,6.227-2.278,8.885,0.61c3.04,3.303,2.304,6.699-0.699,9.526c-7.461,7.025-14.922,14.058-22.661,20.768
							c-3.682,3.194-3.624,5.315,0.068,8.422c7.199,6.064,14.091,12.493,21.066,18.818
							C171.076,224.693,173.349,226.451,173.4,229.604z"/>
						<path class="st3" d="M233.091,236.017c-2.805-0.071-4.721-1.598-5.793-4.022c-1.448-3.274-0.052-5.873,2.395-8.11
							c6.948-6.358,13.598-13.084,20.909-18.988c5.505-4.447,4.639-7.304-0.309-11.334c-7.077-5.768-13.661-12.143-20.456-18.253
							c-3.243-2.918-4.975-6.314-1.692-10.079c3.57-4.09,7.229-2.703,10.785,0.501c9.885,8.892,19.777,17.776,29.821,26.487
							c5.327,4.62,5.887,8.863,0.369,13.758c-10.153,9.006-20.14,18.2-30.196,27.318
							C237.258,234.805,235.548,236.206,233.091,236.017z"/>
					</g>
				</g>
			</g>
		</g>
	</g>
</g>
<g>
</g>
<g>
</g>
<g>
</g>
<g>
</g>
<g>
</g>
<g>
</g>
<g>
</g>
<g>
</g>
<g>
</g>
<g>
</g>
<g>
</g>
<g>
</g>
<g>
</g>
<g>
</g>
<g>
</g>
</svg>
