<?xml version="1.0" encoding="utf-8"?>
<!-- Generator: Adobe Illustrator 26.0.1, SVG Export Plug-In . SVG Version: 6.00 Build 0)  -->
<svg version="1.1" id="Calque_1" xmlns="http://www.w3.org/2000/svg" xmlns:xlink="http://www.w3.org/1999/xlink" x="0px" y="0px"
	 viewBox="0 0 400 400" style="enable-background:new 0 0 400 400;" xml:space="preserve">
<style type="text/css">
	.st0{fill:#E07E64;}
	.st1{fill:#FDF8F7;}
	.st2{fill:#FCF6F4;}
	.st3{fill:#DF7A5F;}
</style>
<g>
	<g>
		<g>
			<path class="st0" d="M174.701,56.159c1.801-9.195,2.893-18.211,16.125-18.54c13.504-0.336,17.695,7.894,21.431,18.249
				c7.648,21.158,20.785,20.927,35.568,7.707c7.871-7.033,13.875-15.557,26.369-8.315c11.679,6.77,9.393,16.279,8.377,26.996
				c-1.93,20.397,7.233,29.33,28.132,23.313c8.942-2.571,18.12-6.222,24.818,4.598c6.614,10.676,3.203,18.736-4.299,27.798
				c-15.513,18.728-6.916,30.292,13.412,35.992c9.407,2.638,17.92,4.148,17.733,17.004c-0.159,11.479-6.342,16.544-16.059,19.865
				c-25.433,8.68-23.285,22.659-7.112,39.025c5.983,6.056,11.399,11.835,6.607,21.593c-4.883,9.958-12.167,13.262-22.734,11.379
				c-25.815-4.601-35.808,5.166-27.578,30.953c2.761,8.657,2.796,16.341-6.339,21.472c-9.297,5.229-17.003,4.03-25.302-3.273
				c-19.25-16.957-31.661-9.713-38.164,12.698c-2.305,7.939-2.617,16.062-14.314,16.859c-13.07,0.894-18.794-5.67-22.512-16.633
				c-7.822-23.02-21.181-22.902-37.153-8.055c-6.923,6.428-12.604,13.746-23.893,7.927c-11.716-6.037-11.474-15.016-10.024-26.23
				c2.912-22.523-7.241-31.164-29.381-24.342c-9.409,2.894-18.246,4.598-24.093-6.417c-5.141-9.668-2.746-17.1,4.167-25.228
				c17.098-20.121,7.808-31.779-13.994-37.669c-8.426-2.273-15.691-3.764-16.094-15.001c-0.402-11.215,4.39-17.382,14.523-20.793
				c26.893-9.058,25.42-23.456,7.375-40.731c-6.527-6.244-9.841-12.736-4.731-21.905c4.72-8.493,11.28-11.873,20.475-10.117
				c27.782,5.3,37.5-5.292,28.832-32.357c-2.411-7.536-2.235-14.292,5.377-19.033c8.812-5.488,16.877-6.339,25.333,1.427
				C153.457,82.786,166.79,79.569,174.701,56.159z"/>
			<path class="st1" d="M300.076,198.691c0.49,55.42-44.98,101.05-100.37,100.74c-54.01-0.3-98.69-44.85-99.16-98.84
				c-0.48-55.59,44.71-100.95,100.3-100.67C254.876,100.181,299.596,144.711,300.076,198.691z"/>
			<path class="st2" d="M201.566,174.821c13.89,2.81,23.26,10.52,22.99,24.77c-0.29,15.63-10.01,25.07-25.68,24.3
				c-13.94-0.68-23.04-9.88-22.84-24.11C176.256,184.041,186.426,176.281,201.566,174.821z"/>
			<g>
				<g>
					<g>
						<path class="st3" d="M219.515,154.478c-3.03,10.753-6.037,21.41-9.032,32.067c-5.466,19.455-10.952,38.902-16.366,58.373
							c-1.279,4.603-3.106,9.073-8.823,7.536c-5.452-1.467-5.505-5.764-4.08-10.748c8.373-29.276,16.537-58.614,24.701-87.949
							c1.216-4.371,2.982-8.18,8.312-7.261C218.417,147.217,220.012,150.383,219.515,154.478z"/>
						<path class="st3" d="M173.4,229.604c0.101,2.816-1.326,4.808-3.665,6.039c-2.407,1.268-4.913,1.035-6.974-0.799
							c-11.387-10.113-22.793-20.207-34.033-30.481c-2.869-2.623-2.942-6.2-0.09-8.862c11.13-10.391,22.397-20.643,33.749-30.795
							c2.885-2.578,6.227-2.278,8.885,0.61c3.04,3.303,2.304,6.699-0.699,9.526c-7.461,7.025-14.922,14.058-22.661,20.768
							c-3.682,3.194-3.624,5.315,0.068,8.422c7.199,6.064,14.091,12.493,21.066,18.818
							C171.076,224.693,173.349,226.451,173.4,229.604z"/>
						<path class="st3" d="M233.091,236.017c-2.805-0.071-4.721-1.598-5.793-4.022c-1.448-3.274-0.052-5.873,2.395-8.11
							c6.948-6.358,13.598-13.084,20.909-18.988c5.505-4.447,4.639-7.304-0.309-11.334c-7.077-5.768-13.661-12.143-20.456-18.253
							c-3.243-2.918-4.975-6.314-1.692-10.079c3.57-4.09,7.229-2.703,10.785,0.501c9.885,8.892,19.777,17.776,29.821,26.487
							c5.327,4.62,5.887,8.863,0.369,13.758c-10.153,9.006-20.14,18.2-30.196,27.318
							C237.258,234.805,235.548,236.206,233.091,236.017z"/>
					</g>
				</g>
			</g>
		</g>
	</g>
</g>
<g>
</g>
<g>
</g>
<g>
</g>
<g>
</g>
<g>
</g>
<g>
</g>
<g>
</g>
<g>
</g>
<g>
</g>
<g>
</g>
<g>
</g>
<g>
</g>
<g>
</g>
<g>
</g>
<g>
</g>
</svg>
