<?xml version="1.0" encoding="utf-8"?>
<!-- Generator: Adobe Illustrator 26.0.1, SVG Export Plug-In . SVG Version: 6.00 Build 0)  -->
<svg version="1.1" id="Calque_1" xmlns="http://www.w3.org/2000/svg" xmlns:xlink="http://www.w3.org/1999/xlink" x="0px" y="0px"
	 viewBox="0 0 400 400" style="enable-background:new 0 0 400 400;" xml:space="preserve">
<style type="text/css">
	.st0{fill:#E07E64;}
	.st1{fill:#FDF8F7;}
	.st2{fill:#FCF6F4;}
	.st3{fill:#DF7A5F;}
</style>
<g>
	<g>
		<g>
			<path class="st0" d="M338.056,151.887c9.363,0.34,18.44,0.009,20.835,13.026c2.444,13.286-5.028,18.712-14.671,24.022
				c-19.701,10.864-17.418,23.803-2.048,36.335c8.178,6.674,17.535,11.27,12.338,24.744c-4.86,12.595-14.609,11.824-25.353,12.497
				c-20.448,1.284-27.838,11.732-18.625,31.433c3.938,8.429,8.98,16.923-0.659,25.231c-9.51,8.203-18.005,6.095-28.128,0.103
				c-20.925-12.393-31.001-2.092-33.451,18.877c-1.134,9.704-1.293,18.348-14.021,20.175c-11.363,1.639-17.332-3.676-22.132-12.753
				c-12.552-23.762-26.022-19.453-39.657-0.92c-5.046,6.856-9.906,13.111-20.294,9.904c-10.6-3.265-15.002-9.942-14.796-20.674
				c0.506-26.217-10.705-34.559-34.887-22.397c-8.118,4.081-15.702,5.318-22.2-2.902c-6.619-8.365-6.64-16.163-0.725-25.502
				c13.737-21.665,4.64-32.791-18.512-35.708c-8.202-1.035-16.274-0.073-18.891-11.5c-2.927-12.77,2.661-19.45,12.907-24.837
				c21.513-11.326,19.307-24.503,2.144-37.955c-7.432-5.832-15.548-10.299-11.567-22.359c4.13-12.516,13.036-13.681,24.339-14.004
				c22.701-0.647,29.648-12.027,19.446-32.828c-4.33-8.841-7.395-17.302,2.569-24.8c8.745-6.59,16.46-5.387,25.569,0.17
				c22.548,13.74,32.609,2.741,35.016-19.714c0.927-8.678,1.263-16.087,12.299-18.242c11.014-2.152,17.854,1.616,22.809,11.091
				c13.153,25.145,27.144,21.437,41.383,0.913c5.146-7.423,11.039-11.712,20.896-8.099c9.127,3.333,13.492,9.283,13.196,18.64
				c-0.889,28.269,11.093,36.21,36.469,23.416c7.066-3.561,13.767-4.443,19.64,2.333c6.799,7.845,8.901,15.678,2.554,25.245
				C308.433,135.07,313.696,147.737,338.056,151.887z"/>
			<path class="st1" d="M300.076,198.691c0.49,55.42-44.98,101.05-100.37,100.74c-54.01-0.3-98.69-44.85-99.16-98.84
				c-0.48-55.59,44.71-100.95,100.3-100.67C254.876,100.181,299.596,144.711,300.076,198.691z"/>
			<path class="st2" d="M201.566,174.821c13.89,2.81,23.26,10.52,22.99,24.77c-0.29,15.63-10.01,25.07-25.68,24.3
				c-13.94-0.68-23.04-9.88-22.84-24.11C176.256,184.041,186.426,176.281,201.566,174.821z"/>
			<g>
				<g>
					<g>
						<path class="st3" d="M219.515,154.478c-3.03,10.753-6.037,21.41-9.032,32.067c-5.466,19.455-10.952,38.902-16.366,58.373
							c-1.279,4.603-3.106,9.073-8.823,7.536c-5.452-1.467-5.505-5.764-4.08-10.748c8.373-29.276,16.537-58.614,24.701-87.949
							c1.216-4.371,2.982-8.18,8.312-7.261C218.417,147.217,220.012,150.383,219.515,154.478z"/>
						<path class="st3" d="M173.4,229.604c0.101,2.816-1.326,4.808-3.665,6.039c-2.407,1.268-4.913,1.035-6.974-0.799
							c-11.387-10.113-22.793-20.207-34.033-30.481c-2.869-2.623-2.942-6.2-0.09-8.862c11.13-10.391,22.397-20.643,33.749-30.795
							c2.885-2.578,6.227-2.278,8.885,0.61c3.04,3.303,2.304,6.699-0.699,9.526c-7.461,7.025-14.922,14.058-22.661,20.768
							c-3.682,3.194-3.624,5.315,0.068,8.422c7.199,6.064,14.091,12.493,21.066,18.818
							C171.076,224.693,173.349,226.451,173.4,229.604z"/>
						<path class="st3" d="M233.091,236.017c-2.805-0.071-4.721-1.598-5.793-4.022c-1.448-3.274-0.052-5.873,2.395-8.11
							c6.948-6.358,13.598-13.084,20.909-18.988c5.505-4.447,4.639-7.304-0.309-11.334c-7.077-5.768-13.661-12.143-20.456-18.253
							c-3.243-2.918-4.975-6.314-1.692-10.079c3.57-4.09,7.229-2.703,10.785,0.501c9.885,8.892,19.777,17.776,29.821,26.487
							c5.327,4.62,5.887,8.863,0.369,13.758c-10.153,9.006-20.14,18.2-30.196,27.318
							C237.258,234.805,235.548,236.206,233.091,236.017z"/>
					</g>
				</g>
			</g>
		</g>
	</g>
</g>
<g>
</g>
<g>
</g>
<g>
</g>
<g>
</g>
<g>
</g>
<g>
</g>
<g>
</g>
<g>
</g>
<g>
</g>
<g>
</g>
<g>
</g>
<g>
</g>
<g>
</g>
<g>
</g>
<g>
</g>
</svg>
