<?xml version="1.0" encoding="utf-8"?>
<!-- Generator: Adobe Illustrator 26.0.1, SVG Export Plug-In . SVG Version: 6.00 Build 0)  -->
<svg version="1.1" id="Calque_1" xmlns="http://www.w3.org/2000/svg" xmlns:xlink="http://www.w3.org/1999/xlink" x="0px" y="0px"
	 viewBox="0 0 400 400" style="enable-background:new 0 0 400 400;" xml:space="preserve">
<style type="text/css">
	.st0{fill:#E07E64;}
	.st1{fill:#FDF8F7;}
	.st2{fill:#FCF6F4;}
	.st3{fill:#DF7A5F;}
</style>
<g>
	<g>
		<g>
			<path class="st0" d="M66.033,143.004c-6.731-6.518-13.698-12.345-6.767-23.621c7.073-11.509,16.258-10.541,26.977-8.035
				c21.91,5.109,28.871-6.034,25.835-25.632c-1.612-10.432-5.49-20.109,7.388-26.644c12.039-6.108,18.769,0.988,27.203,7.677
				c16.055,12.728,28.538,9.909,34.874-10.897c2.714-8.899,4.65-18.585,17.373-18.309c12.556,0.268,17.458,7.518,20.972,18.745
				c7.258,23.211,21.638,22.298,37.49,8.354c7.337-6.453,13.239-12.77,23.919-5.611c9.541,6.385,10.421,14.329,7.914,24.287
				c-6.572,26.057,6.321,31.869,28.855,27.219c8.337-1.719,16.134-3.114,21.708,6.219c5.692,9.519,4.496,17.427-2.838,25.264
				c-17.919,19.144-15.17,32.845,10.939,39.988c8.764,2.4,15.227,6.554,14.556,17.011c-0.678,10.645-5.88,16.455-16.526,19.437
				c-24.706,6.908-25.39,21.264-10.137,38.923c5.402,6.257,12.045,10.943,6.343,21.187c-6.369,11.448-14.992,12.674-26.211,9.821
				c-23.566-5.978-30.744,5.291-26.99,26.772c1.62,9.307,4.664,18.057-6.365,24.356c-11.444,6.538-18.842,1.445-27.458-5.879
				c-17.303-14.709-30.08-10.9-36.417,11.384c-2.698,9.467-6.082,17.806-18.504,16.711c-10.908-0.954-15.837-7.011-18.888-17.235
				c-7.562-25.298-22.399-23.857-39.213-8.78c-6.496,5.829-11.703,11.11-21.346,5.327c-9.625-5.771-12.187-13.148-9.529-23.505
				c7.051-27.488-5.828-34.094-30.143-28.369c-8.791,2.073-16.041,1.317-20.948-7.963c-4.552-8.584-3.814-15.927,2.666-22.682
				c19.576-20.413,15.985-34.332-11.434-41.804c-7.634-2.082-13.204-5.91-13.034-14.876c0.197-10.379,3.876-17.607,14.994-20.469
				C76.794,175.323,81.358,162.388,66.033,143.004z"/>
			<path class="st1" d="M300.076,198.691c0.49,55.42-44.98,101.05-100.37,100.74c-54.01-0.3-98.69-44.85-99.16-98.84
				c-0.48-55.59,44.71-100.95,100.3-100.67C254.876,100.181,299.596,144.711,300.076,198.691z"/>
			<path class="st2" d="M201.566,174.821c13.89,2.81,23.26,10.52,22.99,24.77c-0.29,15.63-10.01,25.07-25.68,24.3
				c-13.94-0.68-23.04-9.88-22.84-24.11C176.256,184.041,186.426,176.281,201.566,174.821z"/>
			<g>
				<g>
					<g>
						<path class="st3" d="M219.515,154.478c-3.03,10.753-6.037,21.41-9.032,32.067c-5.466,19.455-10.952,38.902-16.366,58.373
							c-1.279,4.603-3.106,9.073-8.823,7.536c-5.452-1.467-5.505-5.764-4.08-10.748c8.373-29.276,16.537-58.614,24.701-87.949
							c1.216-4.371,2.982-8.18,8.312-7.261C218.417,147.217,220.012,150.383,219.515,154.478z"/>
						<path class="st3" d="M173.4,229.604c0.101,2.816-1.326,4.808-3.665,6.039c-2.407,1.268-4.913,1.035-6.974-0.799
							c-11.387-10.113-22.793-20.207-34.033-30.481c-2.869-2.623-2.942-6.2-0.09-8.862c11.13-10.391,22.397-20.643,33.749-30.795
							c2.885-2.578,6.227-2.278,8.885,0.61c3.04,3.303,2.304,6.699-0.699,9.526c-7.461,7.025-14.922,14.058-22.661,20.768
							c-3.682,3.194-3.624,5.315,0.068,8.422c7.199,6.064,14.091,12.493,21.066,18.818
							C171.076,224.693,173.349,226.451,173.4,229.604z"/>
						<path class="st3" d="M233.091,236.017c-2.805-0.071-4.721-1.598-5.793-4.022c-1.448-3.274-0.052-5.873,2.395-8.11
							c6.948-6.358,13.598-13.084,20.909-18.988c5.505-4.447,4.639-7.304-0.309-11.334c-7.077-5.768-13.661-12.143-20.456-18.253
							c-3.243-2.918-4.975-6.314-1.692-10.079c3.57-4.09,7.229-2.703,10.785,0.501c9.885,8.892,19.777,17.776,29.821,26.487
							c5.327,4.62,5.887,8.863,0.369,13.758c-10.153,9.006-20.14,18.2-30.196,27.318
							C237.258,234.805,235.548,236.206,233.091,236.017z"/>
					</g>
				</g>
			</g>
		</g>
	</g>
</g>
<g>
</g>
<g>
</g>
<g>
</g>
<g>
</g>
<g>
</g>
<g>
</g>
<g>
</g>
<g>
</g>
<g>
</g>
<g>
</g>
<g>
</g>
<g>
</g>
<g>
</g>
<g>
</g>
<g>
</g>
</svg>
