<?xml version="1.0" encoding="utf-8"?>
<!-- Generator: Adobe Illustrator 26.0.1, SVG Export Plug-In . SVG Version: 6.00 Build 0)  -->
<svg version="1.1" id="Calque_1" xmlns="http://www.w3.org/2000/svg" xmlns:xlink="http://www.w3.org/1999/xlink" x="0px" y="0px"
	 viewBox="0 0 400 400" style="enable-background:new 0 0 400 400;" xml:space="preserve">
<style type="text/css">
	.st0{fill:#E07E64;}
	.st1{fill:#FDF8F7;}
	.st2{fill:#FCF6F4;}
	.st3{fill:#DF7A5F;}
</style>
<g>
	<g>
		<g>
			<path class="st0" d="M256.991,65.344c6.518-6.731,12.345-13.698,23.621-6.767c11.509,7.073,10.541,16.258,8.035,26.977
				c-5.109,21.91,6.034,28.871,25.632,25.835c10.432-1.612,20.109-5.49,26.644,7.388c6.108,12.039-0.988,18.769-7.677,27.203
				c-12.728,16.055-9.909,28.538,10.897,34.874c8.899,2.714,18.585,4.65,18.309,17.373c-0.268,12.556-7.518,17.458-18.745,20.972
				c-23.211,7.258-22.298,21.638-8.354,37.49c6.453,7.336,12.77,13.239,5.611,23.919c-6.385,9.541-14.329,10.421-24.287,7.914
				c-26.057-6.572-31.869,6.321-27.219,28.855c1.719,8.337,3.114,16.134-6.219,21.708c-9.519,5.692-17.427,4.496-25.264-2.838
				c-19.144-17.919-32.845-15.17-39.988,10.939c-2.4,8.764-6.554,15.227-17.011,14.556c-10.645-0.678-16.455-5.88-19.437-16.526
				c-6.908-24.706-21.264-25.39-38.923-10.137c-6.257,5.402-10.943,12.045-21.187,6.343c-11.448-6.369-12.674-14.992-9.821-26.211
				c5.978-23.566-5.291-30.744-26.772-26.99c-9.307,1.62-18.057,4.664-24.356-6.365c-6.538-11.444-1.445-18.842,5.879-27.458
				c14.709-17.303,10.9-30.08-11.384-36.417c-9.467-2.698-17.806-6.082-16.711-18.504c0.954-10.908,7.011-15.837,17.235-18.888
				c25.298-7.562,23.857-22.399,8.78-39.213c-5.829-6.496-11.11-11.703-5.327-21.346c5.771-9.625,13.148-12.187,23.505-9.529
				c27.488,7.051,34.094-5.828,28.369-30.143c-2.073-8.791-1.317-16.041,7.963-20.948c8.584-4.552,15.927-3.814,22.682,2.666
				c20.413,19.576,34.332,15.985,41.804-11.434c2.082-7.634,5.91-13.204,14.876-13.034c10.379,0.197,17.607,3.876,20.469,14.994
				C224.672,76.106,237.607,80.67,256.991,65.344z"/>
			<path class="st1" d="M300.076,198.691c0.49,55.42-44.98,101.05-100.37,100.74c-54.01-0.3-98.69-44.85-99.16-98.84
				c-0.48-55.59,44.71-100.95,100.3-100.67C254.876,100.181,299.596,144.711,300.076,198.691z"/>
			<path class="st2" d="M201.566,174.821c13.89,2.81,23.26,10.52,22.99,24.77c-0.29,15.63-10.01,25.07-25.68,24.3
				c-13.94-0.68-23.04-9.88-22.84-24.11C176.256,184.041,186.426,176.281,201.566,174.821z"/>
			<g>
				<g>
					<g>
						<path class="st3" d="M219.515,154.478c-3.03,10.753-6.037,21.41-9.032,32.067c-5.466,19.455-10.952,38.902-16.366,58.373
							c-1.279,4.603-3.106,9.073-8.823,7.536c-5.452-1.467-5.505-5.764-4.08-10.748c8.373-29.276,16.537-58.614,24.701-87.949
							c1.216-4.371,2.982-8.18,8.312-7.261C218.417,147.217,220.012,150.383,219.515,154.478z"/>
						<path class="st3" d="M173.4,229.604c0.101,2.816-1.326,4.808-3.665,6.039c-2.407,1.268-4.913,1.035-6.974-0.799
							c-11.387-10.113-22.793-20.207-34.033-30.481c-2.869-2.623-2.942-6.2-0.09-8.862c11.13-10.391,22.397-20.643,33.749-30.795
							c2.885-2.578,6.227-2.278,8.885,0.61c3.04,3.303,2.304,6.699-0.699,9.526c-7.461,7.025-14.922,14.058-22.661,20.768
							c-3.682,3.194-3.624,5.315,0.068,8.422c7.199,6.064,14.091,12.493,21.066,18.818
							C171.076,224.693,173.349,226.451,173.4,229.604z"/>
						<path class="st3" d="M233.091,236.017c-2.805-0.071-4.721-1.598-5.793-4.022c-1.448-3.274-0.052-5.873,2.395-8.11
							c6.948-6.358,13.598-13.084,20.909-18.988c5.505-4.447,4.639-7.304-0.309-11.334c-7.077-5.768-13.661-12.143-20.456-18.253
							c-3.243-2.918-4.975-6.314-1.692-10.079c3.57-4.09,7.229-2.703,10.785,0.501c9.885,8.892,19.777,17.776,29.821,26.487
							c5.327,4.62,5.887,8.863,0.369,13.758c-10.153,9.006-20.14,18.2-30.196,27.318
							C237.258,234.805,235.548,236.206,233.091,236.017z"/>
					</g>
				</g>
			</g>
		</g>
	</g>
</g>
<g>
</g>
<g>
</g>
<g>
</g>
<g>
</g>
<g>
</g>
<g>
</g>
<g>
</g>
<g>
</g>
<g>
</g>
<g>
</g>
<g>
</g>
<g>
</g>
<g>
</g>
<g>
</g>
<g>
</g>
</svg>
