<?xml version="1.0" encoding="utf-8"?>
<!-- Generator: Adobe Illustrator 26.0.1, SVG Export Plug-In . SVG Version: 6.00 Build 0)  -->
<svg version="1.1" id="Calque_1" xmlns="http://www.w3.org/2000/svg" xmlns:xlink="http://www.w3.org/1999/xlink" x="0px" y="0px"
	 viewBox="0 0 400 400" style="enable-background:new 0 0 400 400;" xml:space="preserve">
<style type="text/css">
	.st0{fill:#E07E64;}
	.st1{fill:#FDF8F7;}
	.st2{fill:#FCF6F4;}
	.st3{fill:#DF7A5F;}
</style>
<g>
	<g>
		<g>
			<path class="st0" d="M343.498,227.132c7.939,4.976,15.965,9.227,11.53,21.698c-4.526,12.728-13.711,13.691-24.717,13.468
				c-22.494-0.442-26.986,11.905-19.942,30.443c3.745,9.869,9.551,18.528-1.687,27.597c-10.506,8.477-18.564,2.936-28.205-1.853
				c-18.35-9.112-29.974-3.759-31.846,17.909c-0.804,9.269-0.685,19.146-13.186,21.521c-12.337,2.349-18.64-3.724-24.411-13.975
				c-11.925-21.195-25.801-17.312-38.408-0.377c-5.835,7.837-10.294,15.244-22.23,10.462c-10.66-4.262-13.172-11.85-12.79-22.111
				c1.011-26.854-12.809-29.858-33.884-20.625c-7.798,3.415-15.134,6.401-22.527-1.57c-7.547-8.128-8.021-16.111-2.476-25.302
				c13.547-22.451,8.009-35.281-19.014-36.839c-9.071-0.525-16.257-3.245-17.774-13.613c-1.55-10.554,2.331-17.318,12.123-22.448
				c22.73-11.894,20.414-26.078,1.823-40.18c-6.585-4.997-14.058-8.2-10.61-19.405c3.85-12.522,12.029-15.514,23.596-15.056
				c24.294,0.947,28.972-11.567,20.834-31.798c-3.52-8.766-8.316-16.693,1.162-25.147c9.835-8.775,18.13-5.33,28.08,0.041
				c19.983,10.79,31.689,4.408,33.255-18.706c0.67-9.821,2.247-18.682,14.625-20.193c10.868-1.335,16.949,3.565,22.059,12.931
				c12.657,23.173,26.87,18.678,40.182,0.435c5.142-7.052,9.137-13.3,19.772-9.649c10.614,3.643,14.654,10.327,14.208,21.01
				c-1.181,28.353,12.789,32.137,35.383,21.482c8.168-3.856,15.416-4.623,22.146,3.434c6.237,7.45,7.042,14.786,2.108,22.741
				c-14.904,24.037-8.498,36.906,19.875,38.513c7.9,0.449,14.144,3.035,15.842,11.841c1.965,10.193-0.13,18.028-10.411,23.14
				C326.252,197.757,324.477,211.358,343.498,227.132z"/>
			<path class="st1" d="M300.076,198.691c0.49,55.42-44.98,101.05-100.37,100.74c-54.01-0.3-98.69-44.85-99.16-98.84
				c-0.48-55.59,44.71-100.95,100.3-100.67C254.876,100.181,299.596,144.711,300.076,198.691z"/>
			<path class="st2" d="M201.566,174.821c13.89,2.81,23.26,10.52,22.99,24.77c-0.29,15.63-10.01,25.07-25.68,24.3
				c-13.94-0.68-23.04-9.88-22.84-24.11C176.256,184.041,186.426,176.281,201.566,174.821z"/>
			<g>
				<g>
					<g>
						<path class="st3" d="M219.515,154.478c-3.03,10.753-6.037,21.41-9.032,32.067c-5.466,19.455-10.952,38.902-16.366,58.373
							c-1.279,4.603-3.106,9.073-8.823,7.536c-5.452-1.467-5.505-5.764-4.08-10.748c8.373-29.276,16.537-58.614,24.701-87.949
							c1.216-4.371,2.982-8.18,8.312-7.261C218.417,147.217,220.012,150.383,219.515,154.478z"/>
						<path class="st3" d="M173.4,229.604c0.101,2.816-1.326,4.808-3.665,6.039c-2.407,1.268-4.913,1.035-6.974-0.799
							c-11.387-10.113-22.793-20.207-34.033-30.481c-2.869-2.623-2.942-6.2-0.09-8.862c11.13-10.391,22.397-20.643,33.749-30.795
							c2.885-2.578,6.227-2.278,8.885,0.61c3.04,3.303,2.304,6.699-0.699,9.526c-7.461,7.025-14.922,14.058-22.661,20.768
							c-3.682,3.194-3.624,5.315,0.068,8.422c7.199,6.064,14.091,12.493,21.066,18.818
							C171.076,224.693,173.349,226.451,173.4,229.604z"/>
						<path class="st3" d="M233.091,236.017c-2.805-0.071-4.721-1.598-5.793-4.022c-1.448-3.274-0.052-5.873,2.395-8.11
							c6.948-6.358,13.598-13.084,20.909-18.988c5.505-4.447,4.639-7.304-0.309-11.334c-7.077-5.768-13.661-12.143-20.456-18.253
							c-3.243-2.918-4.975-6.314-1.692-10.079c3.57-4.09,7.229-2.703,10.785,0.501c9.885,8.892,19.777,17.776,29.821,26.487
							c5.327,4.62,5.887,8.863,0.369,13.758c-10.153,9.006-20.14,18.2-30.196,27.318
							C237.258,234.805,235.548,236.206,233.091,236.017z"/>
					</g>
				</g>
			</g>
		</g>
	</g>
</g>
<g>
</g>
<g>
</g>
<g>
</g>
<g>
</g>
<g>
</g>
<g>
</g>
<g>
</g>
<g>
</g>
<g>
</g>
<g>
</g>
<g>
</g>
<g>
</g>
<g>
</g>
<g>
</g>
<g>
</g>
</svg>
