<?xml version="1.0" encoding="utf-8"?>
<!-- Generator: Adobe Illustrator 26.0.1, SVG Export Plug-In . SVG Version: 6.00 Build 0)  -->
<svg version="1.1" id="Calque_1" xmlns="http://www.w3.org/2000/svg" xmlns:xlink="http://www.w3.org/1999/xlink" x="0px" y="0px"
	 viewBox="0 0 400 400" style="enable-background:new 0 0 400 400;" xml:space="preserve">
<style type="text/css">
	.st0{fill:#E07E64;}
	.st1{fill:#FDF8F7;}
	.st2{fill:#FCF6F4;}
	.st3{fill:#DF7A5F;}
</style>
<g>
	<g>
		<g>
			<path class="st0" d="M273.508,325.721c1.453,9.256,3.51,18.103-8.811,22.937c-12.575,4.934-19.328-1.366-26.38-9.818
				c-14.423-17.266-26.689-12.556-36.059,4.922c-4.991,9.301-7.717,19.364-21.935,16.832c-13.291-2.367-14.395-12.084-17.105-22.502
				c-5.162-19.827-16.828-25.088-34.409-12.285c-7.523,5.474-14.899,12.044-24.893,4.167c-9.867-7.77-9.418-16.511-5.468-27.592
				c8.172-22.905-3.862-30.83-24.913-29.234c-9.743,0.738-18.258,2.232-22.479-9.913c-3.777-10.841,0.301-17.715,8.296-24.159
				c20.93-16.855,14.131-29.256-6.664-39.104c-7.693-3.645-14.76-7.223-13.594-18.031c1.183-11.028,6.897-16.623,17.471-18.468
				c25.832-4.505,31.882-17.102,15.329-38.519c-5.555-7.191-8.216-14.399-1.387-22.346c6.948-8.094,14.599-9.602,24.895-5.578
				c23.888,9.351,33.074-1.702,31.52-24.985c-0.549-8.248-3.034-15.989,7.685-20.738c11.976-5.31,19.6-1.1,26.844,7.931
				c15.223,18.957,27.737,14.277,37.667-5.138c4.307-8.408,7.143-17.228,19.741-15.621c13.074,1.666,15.917,10.186,18.391,21.219
				c4.966,22.16,17.463,26.808,35.935,12.825c7.852-5.937,15.573-10.561,24.834-2.21c8.138,7.326,8.429,15.13,4.712,25.132
				c-9.185,24.755,3.532,32.533,26.034,30.611c8.696-0.746,16.032-1.83,20.254,8.592c4.214,10.401,1.82,17.835-6.535,24.506
				c-22.174,17.71-15.864,30.736,7,40.797c8.269,3.635,13.603,8.602,11.938,18.966c-1.531,9.595-6.539,15.015-15.78,16.51
				c-27.919,4.521-33.428,17.799-16.027,40.267c4.844,6.257,6.988,12.666,1.457,19.725c-6.403,8.171-13.691,11.729-24.294,7.324
				C284.364,293.434,272.935,301.017,273.508,325.721z"/>
			<path class="st1" d="M300.076,198.691c0.49,55.42-44.98,101.05-100.37,100.74c-54.01-0.3-98.69-44.85-99.16-98.84
				c-0.48-55.59,44.71-100.95,100.3-100.67C254.876,100.181,299.596,144.711,300.076,198.691z"/>
			<path class="st2" d="M201.566,174.821c13.89,2.81,23.26,10.52,22.99,24.77c-0.29,15.63-10.01,25.07-25.68,24.3
				c-13.94-0.68-23.04-9.88-22.84-24.11C176.256,184.041,186.426,176.281,201.566,174.821z"/>
			<g>
				<g>
					<g>
						<path class="st3" d="M219.515,154.478c-3.03,10.753-6.037,21.41-9.032,32.067c-5.466,19.455-10.952,38.902-16.366,58.373
							c-1.279,4.603-3.106,9.073-8.823,7.536c-5.452-1.467-5.505-5.764-4.08-10.748c8.373-29.276,16.537-58.614,24.701-87.949
							c1.216-4.371,2.982-8.18,8.312-7.261C218.417,147.217,220.012,150.383,219.515,154.478z"/>
						<path class="st3" d="M173.4,229.604c0.101,2.816-1.326,4.808-3.665,6.039c-2.407,1.268-4.913,1.035-6.974-0.799
							c-11.387-10.113-22.793-20.207-34.033-30.481c-2.869-2.623-2.942-6.2-0.09-8.862c11.13-10.391,22.397-20.643,33.749-30.795
							c2.885-2.578,6.227-2.278,8.885,0.61c3.04,3.303,2.304,6.699-0.699,9.526c-7.461,7.025-14.922,14.058-22.661,20.768
							c-3.682,3.194-3.624,5.315,0.068,8.422c7.199,6.064,14.091,12.493,21.066,18.818
							C171.076,224.693,173.349,226.451,173.4,229.604z"/>
						<path class="st3" d="M233.091,236.017c-2.805-0.071-4.721-1.598-5.793-4.022c-1.448-3.274-0.052-5.873,2.395-8.11
							c6.948-6.358,13.598-13.084,20.909-18.988c5.505-4.447,4.639-7.304-0.309-11.334c-7.077-5.768-13.661-12.143-20.456-18.253
							c-3.243-2.918-4.975-6.314-1.692-10.079c3.57-4.09,7.229-2.703,10.785,0.501c9.885,8.892,19.777,17.776,29.821,26.487
							c5.327,4.62,5.887,8.863,0.369,13.758c-10.153,9.006-20.14,18.2-30.196,27.318
							C237.258,234.805,235.548,236.206,233.091,236.017z"/>
					</g>
				</g>
			</g>
		</g>
	</g>
</g>
<g>
</g>
<g>
</g>
<g>
</g>
<g>
</g>
<g>
</g>
<g>
</g>
<g>
</g>
<g>
</g>
<g>
</g>
<g>
</g>
<g>
</g>
<g>
</g>
<g>
</g>
<g>
</g>
<g>
</g>
</svg>
