<?xml version="1.0" encoding="utf-8"?>
<!-- Generator: Adobe Illustrator 26.0.1, SVG Export Plug-In . SVG Version: 6.00 Build 0)  -->
<svg version="1.1" id="Calque_1" xmlns="http://www.w3.org/2000/svg" xmlns:xlink="http://www.w3.org/1999/xlink" x="0px" y="0px"
	 viewBox="0 0 400 400" style="enable-background:new 0 0 400 400;" xml:space="preserve">
<style type="text/css">
	.st0{fill:#E07E64;}
	.st1{fill:#FDF8F7;}
	.st2{fill:#FCF6F4;}
	.st3{fill:#DF7A5F;}
</style>
<g>
	<g>
		<g>
			<path class="st0" d="M152.576,61.94c0.34-9.363,0.009-18.44,13.026-20.835c13.286-2.444,18.712,5.028,24.022,14.671
				c10.864,19.701,23.803,17.418,36.335,2.048c6.674-8.178,11.27-17.536,24.744-12.338c12.595,4.86,11.824,14.609,12.497,25.353
				c1.284,20.448,11.732,27.838,31.433,18.625c8.429-3.938,16.923-8.98,25.231,0.659c8.203,9.51,6.095,18.005,0.103,28.128
				c-12.393,20.925-2.092,31.001,18.877,33.451c9.704,1.134,18.348,1.293,20.175,14.021c1.639,11.363-3.676,17.332-12.753,22.132
				c-23.762,12.552-19.453,26.022-0.92,39.657c6.856,5.046,13.11,9.906,9.904,20.294c-3.265,10.6-9.942,15.002-20.674,14.796
				c-26.217-0.506-34.559,10.705-22.397,34.887c4.081,8.118,5.318,15.702-2.902,22.2c-8.365,6.619-16.163,6.64-25.502,0.725
				c-21.665-13.737-32.791-4.64-35.708,18.512c-1.035,8.202-0.073,16.274-11.5,18.891c-12.77,2.927-19.45-2.661-24.837-12.907
				c-11.326-21.513-24.503-19.307-37.955-2.144c-5.832,7.432-10.299,15.548-22.359,11.567c-12.516-4.13-13.681-13.036-14.004-24.339
				c-0.647-22.701-12.027-29.648-32.828-19.446c-8.841,4.33-17.302,7.395-24.8-2.569c-6.59-8.745-5.387-16.46,0.17-25.569
				c13.74-22.548,2.741-32.609-19.714-35.016c-8.678-0.927-16.087-1.263-18.242-12.299c-2.152-11.014,1.616-17.854,11.091-22.809
				c25.145-13.153,21.437-27.144,0.913-41.383c-7.423-5.146-11.712-11.039-8.099-20.896c3.333-9.127,9.283-13.492,18.64-13.196
				c28.269,0.889,36.21-11.093,23.416-36.469c-3.561-7.066-4.443-13.767,2.333-19.64c7.845-6.799,15.678-8.901,25.245-2.554
				C135.759,91.563,148.425,86.299,152.576,61.94z"/>
			<path class="st1" d="M300.076,198.691c0.49,55.42-44.98,101.05-100.37,100.74c-54.01-0.3-98.69-44.85-99.16-98.84
				c-0.48-55.59,44.71-100.95,100.3-100.67C254.876,100.181,299.596,144.711,300.076,198.691z"/>
			<path class="st2" d="M201.566,174.821c13.89,2.81,23.26,10.52,22.99,24.77c-0.29,15.63-10.01,25.07-25.68,24.3
				c-13.94-0.68-23.04-9.88-22.84-24.11C176.256,184.041,186.426,176.281,201.566,174.821z"/>
			<g>
				<g>
					<g>
						<path class="st3" d="M219.515,154.478c-3.03,10.753-6.037,21.41-9.032,32.067c-5.466,19.455-10.952,38.902-16.366,58.373
							c-1.279,4.603-3.106,9.073-8.823,7.536c-5.452-1.467-5.505-5.764-4.08-10.748c8.373-29.276,16.537-58.614,24.701-87.949
							c1.216-4.371,2.982-8.18,8.312-7.261C218.417,147.217,220.012,150.383,219.515,154.478z"/>
						<path class="st3" d="M173.4,229.604c0.101,2.816-1.326,4.808-3.665,6.039c-2.407,1.268-4.913,1.035-6.974-0.799
							c-11.387-10.113-22.793-20.207-34.033-30.481c-2.869-2.623-2.942-6.2-0.09-8.862c11.13-10.391,22.397-20.643,33.749-30.795
							c2.885-2.578,6.227-2.278,8.885,0.61c3.04,3.303,2.304,6.699-0.699,9.526c-7.461,7.025-14.922,14.058-22.661,20.768
							c-3.682,3.194-3.624,5.315,0.068,8.422c7.199,6.064,14.091,12.493,21.066,18.818
							C171.076,224.693,173.349,226.451,173.4,229.604z"/>
						<path class="st3" d="M233.091,236.017c-2.805-0.071-4.721-1.598-5.793-4.022c-1.448-3.274-0.052-5.873,2.395-8.11
							c6.948-6.358,13.598-13.084,20.909-18.988c5.505-4.447,4.639-7.304-0.309-11.334c-7.077-5.768-13.661-12.143-20.456-18.253
							c-3.243-2.918-4.975-6.314-1.692-10.079c3.57-4.09,7.229-2.703,10.785,0.501c9.885,8.892,19.777,17.776,29.821,26.487
							c5.327,4.62,5.887,8.863,0.369,13.758c-10.153,9.006-20.14,18.2-30.196,27.318
							C237.258,234.805,235.548,236.206,233.091,236.017z"/>
					</g>
				</g>
			</g>
		</g>
	</g>
</g>
<g>
</g>
<g>
</g>
<g>
</g>
<g>
</g>
<g>
</g>
<g>
</g>
<g>
</g>
<g>
</g>
<g>
</g>
<g>
</g>
<g>
</g>
<g>
</g>
<g>
</g>
<g>
</g>
<g>
</g>
</svg>
