<?xml version="1.0" encoding="utf-8"?>
<!-- Generator: Adobe Illustrator 26.0.1, SVG Export Plug-In . SVG Version: 6.00 Build 0)  -->
<svg version="1.1" id="Calque_1" xmlns="http://www.w3.org/2000/svg" xmlns:xlink="http://www.w3.org/1999/xlink" x="0px" y="0px"
	 viewBox="0 0 400 400" style="enable-background:new 0 0 400 400;" xml:space="preserve">
<style type="text/css">
	.st0{fill:#E07E64;}
	.st1{fill:#FDF8F7;}
	.st2{fill:#FCF6F4;}
	.st3{fill:#DF7A5F;}
</style>
<g>
	<g>
		<g>
			<path class="st0" d="M210.848,345.045c-2.752,8.956-4.781,17.809-17.974,16.753c-13.465-1.078-16.773-9.7-19.406-20.389
				c-5.394-21.842-18.483-22.985-34.567-11.383c-8.563,6.172-15.425,14.021-27.094,5.513c-10.908-7.954-7.64-17.171-5.51-27.723
				c4.052-20.083-4.127-29.926-25.541-26.126c-9.161,1.622-18.671,4.294-24.201-7.167c-5.462-11.309-1.227-18.968,7.181-27.197
				c17.386-17.004,10.044-29.403-9.576-37.197c-9.08-3.607-17.388-5.998-15.859-18.764c1.358-11.4,8.037-15.79,18.047-18.077
				c26.201-5.974,25.526-20.101,11.152-38.067c-5.317-6.648-10.1-12.962-4.314-22.165c5.897-9.393,13.486-11.917,23.799-8.941
				c25.192,7.274,36.152-1.395,30.663-27.901c-1.841-8.898-1.073-16.543,8.549-20.692c9.793-4.229,17.331-2.231,24.821,5.9
				c17.372,18.877,30.473,12.969,39.283-8.639c3.123-7.654,4.282-15.701,15.998-15.271c13.092,0.477,18.098,7.604,20.65,18.895
				c5.373,23.711,18.671,24.991,36.107,11.894c7.557-5.669,13.972-12.353,24.591-5.386c11.021,7.229,9.841,16.133,7.228,27.134
				c-5.251,22.095,3.944,31.75,26.676,27.28c9.66-1.894,18.627-2.665,23.29,8.9c4.103,10.152,0.943,17.294-6.782,24.654
				c-19.108,18.223-11.087,30.789,9.98,38.925c8.143,3.142,15.212,5.384,14.437,16.601c-0.772,11.196-6.182,16.828-16.617,19.161
				c-27.693,6.197-27.732,20.671-11.593,39.737c5.838,6.892,8.456,13.695,2.415,22.28c-5.582,7.953-12.459,10.629-21.42,7.922
				c-27.075-8.175-37.848,1.343-32.057,29.166c1.611,7.747,0.729,14.448-7.337,18.367c-9.337,4.536-17.447,4.54-25.046-4.067
				C234.759,320.784,221.162,322.59,210.848,345.045z"/>
			<path class="st1" d="M300.076,198.691c0.49,55.42-44.98,101.05-100.37,100.74c-54.01-0.3-98.69-44.85-99.16-98.84
				c-0.48-55.59,44.71-100.95,100.3-100.67C254.876,100.181,299.596,144.711,300.076,198.691z"/>
			<path class="st2" d="M201.566,174.821c13.89,2.81,23.26,10.52,22.99,24.77c-0.29,15.63-10.01,25.07-25.68,24.3
				c-13.94-0.68-23.04-9.88-22.84-24.11C176.256,184.041,186.426,176.281,201.566,174.821z"/>
			<g>
				<g>
					<g>
						<path class="st3" d="M219.515,154.478c-3.03,10.753-6.037,21.41-9.032,32.067c-5.466,19.455-10.952,38.902-16.366,58.373
							c-1.279,4.603-3.106,9.073-8.823,7.536c-5.452-1.467-5.505-5.764-4.08-10.748c8.373-29.276,16.537-58.614,24.701-87.949
							c1.216-4.371,2.982-8.18,8.312-7.261C218.417,147.217,220.012,150.383,219.515,154.478z"/>
						<path class="st3" d="M173.4,229.604c0.101,2.816-1.326,4.808-3.665,6.039c-2.407,1.268-4.913,1.035-6.974-0.799
							c-11.387-10.113-22.793-20.207-34.033-30.481c-2.869-2.623-2.942-6.2-0.09-8.862c11.13-10.391,22.397-20.643,33.749-30.795
							c2.885-2.578,6.227-2.278,8.885,0.61c3.04,3.303,2.304,6.699-0.699,9.526c-7.461,7.025-14.922,14.058-22.661,20.768
							c-3.682,3.194-3.624,5.315,0.068,8.422c7.199,6.064,14.091,12.493,21.066,18.818
							C171.076,224.693,173.349,226.451,173.4,229.604z"/>
						<path class="st3" d="M233.091,236.017c-2.805-0.071-4.721-1.598-5.793-4.022c-1.448-3.274-0.052-5.873,2.395-8.11
							c6.948-6.358,13.598-13.084,20.909-18.988c5.505-4.447,4.639-7.304-0.309-11.334c-7.077-5.768-13.661-12.143-20.456-18.253
							c-3.243-2.918-4.975-6.314-1.692-10.079c3.57-4.09,7.229-2.703,10.785,0.501c9.885,8.892,19.777,17.776,29.821,26.487
							c5.327,4.62,5.887,8.863,0.369,13.758c-10.153,9.006-20.14,18.2-30.196,27.318
							C237.258,234.805,235.548,236.206,233.091,236.017z"/>
					</g>
				</g>
			</g>
		</g>
	</g>
</g>
<g>
</g>
<g>
</g>
<g>
</g>
<g>
</g>
<g>
</g>
<g>
</g>
<g>
</g>
<g>
</g>
<g>
</g>
<g>
</g>
<g>
</g>
<g>
</g>
<g>
</g>
<g>
</g>
<g>
</g>
</svg>
