<?xml version="1.0" encoding="utf-8"?>
<!-- Generator: Adobe Illustrator 26.0.1, SVG Export Plug-In . SVG Version: 6.00 Build 0)  -->
<svg version="1.1" id="Calque_1" xmlns="http://www.w3.org/2000/svg" xmlns:xlink="http://www.w3.org/1999/xlink" x="0px" y="0px"
	 viewBox="0 0 400 400" style="enable-background:new 0 0 400 400;" xml:space="preserve">
<style type="text/css">
	.st0{fill:#E07E64;}
	.st1{fill:#FDF8F7;}
	.st2{fill:#FCF6F4;}
	.st3{fill:#DF7A5F;}
</style>
<g>
	<g>
		<g>
			<path class="st0" d="M167.228,57.699c1.317-9.276,1.936-18.338,15.132-19.359c13.468-1.042,18.084,6.957,22.357,17.102
				c8.745,20.729,21.852,19.811,35.922,5.835c7.492-7.436,13.042-16.261,25.898-9.684c12.018,6.15,10.232,15.765,9.779,26.52
				c-0.86,20.47,8.758,28.912,29.314,21.809c8.795-3.035,17.769-7.162,25.024,3.293c7.164,10.316,4.179,18.543-2.838,27.985
				c-14.512,19.515-5.321,30.612,15.277,35.24c9.533,2.143,18.113,3.204,18.599,16.053c0.442,11.472-5.468,16.853-14.997,20.678
				c-24.943,9.999-22.067,23.846-5.06,39.343c6.291,5.735,12.003,11.222,7.728,21.218c-4.355,10.2-11.456,13.88-22.107,12.553
				c-26.02-3.244-35.489,7.033-25.921,32.354c3.21,8.501,3.648,16.172-5.207,21.775c-9.011,5.708-16.769,4.914-25.438-1.945
				c-20.111-15.927-32.126-8.042-37.447,14.678c-1.887,8.048-1.773,16.177-13.412,17.585c-13.006,1.576-19.065-4.679-23.352-15.432
				c-9.016-22.579-22.351-21.762-37.523-6.099c-6.577,6.781-11.868,14.387-23.445,9.166c-12.016-5.416-12.244-14.394-11.384-25.669
				c1.73-22.644-8.862-30.742-30.615-22.771c-9.245,3.382-17.98,5.546-24.395-5.148c-5.64-9.385-3.637-16.933,2.841-25.411
				c16.022-20.988,6.134-32.144-15.946-36.885c-8.534-1.829-15.867-2.938-16.857-14.139c-0.989-11.179,3.474-17.588,13.415-21.525
				c26.382-10.453,24.157-24.755,5.234-41.061c-6.845-5.893-10.494-12.203-5.871-21.628c4.269-8.728,10.643-12.447,19.917-11.175
				c28.021,3.839,37.172-7.248,27.099-33.822c-2.803-7.4-2.98-14.156,4.374-19.289c8.512-5.941,16.522-7.213,25.373,0.099
				C147.407,85.402,160.554,81.491,167.228,57.699z"/>
			<path class="st1" d="M300.076,198.691c0.49,55.42-44.98,101.05-100.37,100.74c-54.01-0.3-98.69-44.85-99.16-98.84
				c-0.48-55.59,44.71-100.95,100.3-100.67C254.876,100.181,299.596,144.711,300.076,198.691z"/>
			<path class="st2" d="M201.566,174.821c13.89,2.81,23.26,10.52,22.99,24.77c-0.29,15.63-10.01,25.07-25.68,24.3
				c-13.94-0.68-23.04-9.88-22.84-24.11C176.256,184.041,186.426,176.281,201.566,174.821z"/>
			<g>
				<g>
					<g>
						<path class="st3" d="M219.515,154.478c-3.03,10.753-6.037,21.41-9.032,32.067c-5.466,19.455-10.952,38.902-16.366,58.373
							c-1.279,4.603-3.106,9.073-8.823,7.536c-5.452-1.467-5.505-5.764-4.08-10.748c8.373-29.276,16.537-58.614,24.701-87.949
							c1.216-4.371,2.982-8.18,8.312-7.261C218.417,147.217,220.012,150.383,219.515,154.478z"/>
						<path class="st3" d="M173.4,229.604c0.101,2.816-1.326,4.808-3.665,6.039c-2.407,1.268-4.913,1.035-6.974-0.799
							c-11.387-10.113-22.793-20.207-34.033-30.481c-2.869-2.623-2.942-6.2-0.09-8.862c11.13-10.391,22.397-20.643,33.749-30.795
							c2.885-2.578,6.227-2.278,8.885,0.61c3.04,3.303,2.304,6.699-0.699,9.526c-7.461,7.025-14.922,14.058-22.661,20.768
							c-3.682,3.194-3.624,5.315,0.068,8.422c7.199,6.064,14.091,12.493,21.066,18.818
							C171.076,224.693,173.349,226.451,173.4,229.604z"/>
						<path class="st3" d="M233.091,236.017c-2.805-0.071-4.721-1.598-5.793-4.022c-1.448-3.274-0.052-5.873,2.395-8.11
							c6.948-6.358,13.598-13.084,20.909-18.988c5.505-4.447,4.639-7.304-0.309-11.334c-7.077-5.768-13.661-12.143-20.456-18.253
							c-3.243-2.918-4.975-6.314-1.692-10.079c3.57-4.09,7.229-2.703,10.785,0.501c9.885,8.892,19.777,17.776,29.821,26.487
							c5.327,4.62,5.887,8.863,0.369,13.758c-10.153,9.006-20.14,18.2-30.196,27.318
							C237.258,234.805,235.548,236.206,233.091,236.017z"/>
					</g>
				</g>
			</g>
		</g>
	</g>
</g>
<g>
</g>
<g>
</g>
<g>
</g>
<g>
</g>
<g>
</g>
<g>
</g>
<g>
</g>
<g>
</g>
<g>
</g>
<g>
</g>
<g>
</g>
<g>
</g>
<g>
</g>
<g>
</g>
<g>
</g>
</svg>
