<?xml version="1.0" encoding="utf-8"?>
<!-- Generator: Adobe Illustrator 26.0.1, SVG Export Plug-In . SVG Version: 6.00 Build 0)  -->
<svg version="1.1" id="Calque_1" xmlns="http://www.w3.org/2000/svg" xmlns:xlink="http://www.w3.org/1999/xlink" x="0px" y="0px"
	 viewBox="0 0 400 400" style="enable-background:new 0 0 400 400;" xml:space="preserve">
<style type="text/css">
	.st0{fill:#E07E64;}
	.st1{fill:#FDF8F7;}
	.st2{fill:#FCF6F4;}
	.st3{fill:#DF7A5F;}
</style>
<g>
	<g>
		<g>
			<path class="st0" d="M345.734,189.148c8.956,2.752,17.809,4.781,16.753,17.974c-1.078,13.465-9.7,16.773-20.389,19.406
				c-21.842,5.394-22.985,18.483-11.383,34.567c6.172,8.563,14.021,15.425,5.513,27.094c-7.954,10.908-17.172,7.64-27.723,5.51
				c-20.083-4.052-29.926,4.127-26.126,25.542c1.622,9.161,4.294,18.671-7.167,24.201c-11.309,5.462-18.968,1.227-27.197-7.181
				c-17.004-17.386-29.403-10.044-37.197,9.576c-3.607,9.08-5.998,17.388-18.764,15.859c-11.4-1.358-15.79-8.037-18.077-18.047
				c-5.974-26.201-20.101-25.526-38.067-11.152c-6.648,5.317-12.962,10.1-22.165,4.314c-9.393-5.897-11.917-13.486-8.941-23.799
				c7.274-25.192-1.395-36.152-27.901-30.663c-8.898,1.841-16.543,1.073-20.692-8.549c-4.229-9.793-2.231-17.331,5.9-24.821
				c18.877-17.372,12.969-30.473-8.639-39.283c-7.654-3.123-15.701-4.282-15.271-15.998c0.477-13.092,7.604-18.098,18.895-20.65
				c23.711-5.373,24.991-18.671,11.894-36.107c-5.669-7.557-12.353-13.972-5.386-24.591c7.229-11.021,16.133-9.841,27.134-7.228
				c22.095,5.251,31.75-3.944,27.28-26.676c-1.894-9.66-2.665-18.627,8.9-23.29c10.152-4.103,17.294-0.943,24.654,6.782
				c18.223,19.108,30.789,11.087,38.925-9.98c3.142-8.143,5.384-15.212,16.601-14.437c11.196,0.772,16.828,6.182,19.161,16.617
				c6.197,27.693,20.671,27.732,39.737,11.593c6.892-5.838,13.695-8.456,22.28-2.415c7.953,5.582,10.629,12.459,7.922,21.42
				c-8.175,27.075,1.343,37.848,29.166,32.057c7.747-1.611,14.448-0.729,18.367,7.337c4.537,9.337,4.54,17.447-4.067,25.046
				C321.473,165.237,323.278,178.834,345.734,189.148z"/>
			<path class="st1" d="M300.076,198.691c0.49,55.42-44.98,101.05-100.37,100.74c-54.01-0.3-98.69-44.85-99.16-98.84
				c-0.48-55.59,44.71-100.95,100.3-100.67C254.876,100.181,299.596,144.711,300.076,198.691z"/>
			<path class="st2" d="M201.566,174.821c13.89,2.81,23.26,10.52,22.99,24.77c-0.29,15.63-10.01,25.07-25.68,24.3
				c-13.94-0.68-23.04-9.88-22.84-24.11C176.256,184.041,186.426,176.281,201.566,174.821z"/>
			<g>
				<g>
					<g>
						<path class="st3" d="M219.515,154.478c-3.03,10.753-6.037,21.41-9.032,32.067c-5.466,19.455-10.952,38.902-16.366,58.373
							c-1.279,4.603-3.106,9.073-8.823,7.536c-5.452-1.467-5.505-5.764-4.08-10.748c8.373-29.276,16.537-58.614,24.701-87.949
							c1.216-4.371,2.982-8.18,8.312-7.261C218.417,147.217,220.012,150.383,219.515,154.478z"/>
						<path class="st3" d="M173.4,229.604c0.101,2.816-1.326,4.808-3.665,6.039c-2.407,1.268-4.913,1.035-6.974-0.799
							c-11.387-10.113-22.793-20.207-34.033-30.481c-2.869-2.623-2.942-6.2-0.09-8.862c11.13-10.391,22.397-20.643,33.749-30.795
							c2.885-2.578,6.227-2.278,8.885,0.61c3.04,3.303,2.304,6.699-0.699,9.526c-7.461,7.025-14.922,14.058-22.661,20.768
							c-3.682,3.194-3.624,5.315,0.068,8.422c7.199,6.064,14.091,12.493,21.066,18.818
							C171.076,224.693,173.349,226.451,173.4,229.604z"/>
						<path class="st3" d="M233.091,236.017c-2.805-0.071-4.721-1.598-5.793-4.022c-1.448-3.274-0.052-5.873,2.395-8.11
							c6.948-6.358,13.598-13.084,20.909-18.988c5.505-4.447,4.639-7.304-0.309-11.334c-7.077-5.768-13.661-12.143-20.456-18.253
							c-3.243-2.918-4.975-6.314-1.692-10.079c3.57-4.09,7.229-2.703,10.785,0.501c9.885,8.892,19.777,17.776,29.821,26.487
							c5.327,4.62,5.887,8.863,0.369,13.758c-10.153,9.006-20.14,18.2-30.196,27.318
							C237.258,234.805,235.548,236.206,233.091,236.017z"/>
					</g>
				</g>
			</g>
		</g>
	</g>
</g>
<g>
</g>
<g>
</g>
<g>
</g>
<g>
</g>
<g>
</g>
<g>
</g>
<g>
</g>
<g>
</g>
<g>
</g>
<g>
</g>
<g>
</g>
<g>
</g>
<g>
</g>
<g>
</g>
<g>
</g>
</svg>
