<?xml version="1.0" encoding="utf-8"?>
<!-- Generator: Adobe Illustrator 26.0.1, SVG Export Plug-In . SVG Version: 6.00 Build 0)  -->
<svg version="1.1" id="Calque_1" xmlns="http://www.w3.org/2000/svg" xmlns:xlink="http://www.w3.org/1999/xlink" x="0px" y="0px"
	 viewBox="0 0 400 400" style="enable-background:new 0 0 400 400;" xml:space="preserve">
<style type="text/css">
	.st0{fill:#E07E64;}
	.st1{fill:#FDF8F7;}
	.st2{fill:#FCF6F4;}
	.st3{fill:#DF7A5F;}
</style>
<g>
	<g>
		<g>
			<path class="st0" d="M60.316,240.149c-9.333-0.83-18.414-0.974-20.124-14.098c-1.746-13.395,6.001-18.423,15.908-23.221
				c20.243-9.818,18.64-22.858,3.947-36.178c-7.817-7.093-16.922-12.173-11.026-25.355c5.512-12.323,15.208-11.044,25.972-11.153
				c20.487-0.212,28.414-10.259,20.244-30.415c-3.491-8.624-8.082-17.37,1.979-25.162c9.926-7.694,18.299-5.144,28.095,1.369
				c20.247,13.471,30.849,3.712,34.393-17.101c1.641-9.632,2.252-18.256,15.057-19.413c11.433-1.042,17.116,4.578,21.434,13.894
				c11.291,24.386,24.968,20.789,39.554,2.994c5.398-6.583,10.579-12.574,20.784-8.828c10.414,3.816,14.461,10.714,13.693,21.42
				c-1.878,26.154,8.881,35.072,33.667,24.192c8.321-3.651,15.959-4.489,22.017,4.06c6.172,8.7,5.785,16.488-0.611,25.505
				c-14.852,20.917-6.35,32.503,16.617,36.628c8.136,1.463,16.248,0.924,18.263,12.473c2.255,12.905-3.675,19.284-14.189,24.128
				c-22.076,10.185-20.563,23.459-4.127,37.791c7.116,6.213,14.988,11.098,10.381,22.933c-4.779,12.283-13.734,12.98-25.038,12.711
				c-22.704-0.542-30.236,10.459-21.137,31.765c3.861,9.055,6.48,17.665-3.864,24.631c-9.077,6.124-16.72,4.518-25.525-1.508
				c-21.798-14.901-32.421-4.444-36,17.855c-1.38,8.618-2.103,15.999-13.237,17.574c-11.112,1.572-17.745-2.549-22.197-12.27
				c-11.819-25.799-25.985-22.828-41.279-3.077c-5.527,7.144-11.637,11.118-21.291,6.995c-8.94-3.806-12.987-9.977-12.202-19.305
				c2.367-28.184-9.183-36.741-35.194-25.292c-7.243,3.186-13.981,3.717-19.491-3.358c-6.379-8.19-8.068-16.122-1.229-25.344
				C89.018,258.493,84.425,245.569,60.316,240.149z"/>
			<path class="st1" d="M300.076,198.691c0.49,55.42-44.98,101.05-100.37,100.74c-54.01-0.3-98.69-44.85-99.16-98.84
				c-0.48-55.59,44.71-100.95,100.3-100.67C254.876,100.181,299.596,144.711,300.076,198.691z"/>
			<path class="st2" d="M201.566,174.821c13.89,2.81,23.26,10.52,22.99,24.77c-0.29,15.63-10.01,25.07-25.68,24.3
				c-13.94-0.68-23.04-9.88-22.84-24.11C176.256,184.041,186.426,176.281,201.566,174.821z"/>
			<g>
				<g>
					<g>
						<path class="st3" d="M219.515,154.478c-3.03,10.753-6.037,21.41-9.032,32.067c-5.466,19.455-10.952,38.902-16.366,58.373
							c-1.279,4.603-3.106,9.073-8.823,7.536c-5.452-1.467-5.505-5.764-4.08-10.748c8.373-29.276,16.537-58.614,24.701-87.949
							c1.216-4.371,2.982-8.18,8.312-7.261C218.417,147.217,220.012,150.383,219.515,154.478z"/>
						<path class="st3" d="M173.4,229.604c0.101,2.816-1.326,4.808-3.665,6.039c-2.407,1.268-4.913,1.035-6.974-0.799
							c-11.387-10.113-22.793-20.207-34.033-30.481c-2.869-2.623-2.942-6.2-0.09-8.862c11.13-10.391,22.397-20.643,33.749-30.795
							c2.885-2.578,6.227-2.278,8.885,0.61c3.04,3.303,2.304,6.699-0.699,9.526c-7.461,7.025-14.922,14.058-22.661,20.768
							c-3.682,3.194-3.624,5.315,0.068,8.422c7.199,6.064,14.091,12.493,21.066,18.818
							C171.076,224.693,173.349,226.451,173.4,229.604z"/>
						<path class="st3" d="M233.091,236.017c-2.805-0.071-4.721-1.598-5.793-4.022c-1.448-3.274-0.052-5.873,2.395-8.11
							c6.948-6.358,13.598-13.084,20.909-18.988c5.505-4.447,4.639-7.304-0.309-11.334c-7.077-5.768-13.661-12.143-20.456-18.253
							c-3.243-2.918-4.975-6.314-1.692-10.079c3.57-4.09,7.229-2.703,10.785,0.501c9.885,8.892,19.777,17.776,29.821,26.487
							c5.327,4.62,5.887,8.863,0.369,13.758c-10.153,9.006-20.14,18.2-30.196,27.318
							C237.258,234.805,235.548,236.206,233.091,236.017z"/>
					</g>
				</g>
			</g>
		</g>
	</g>
</g>
<g>
</g>
<g>
</g>
<g>
</g>
<g>
</g>
<g>
</g>
<g>
</g>
<g>
</g>
<g>
</g>
<g>
</g>
<g>
</g>
<g>
</g>
<g>
</g>
<g>
</g>
<g>
</g>
<g>
</g>
</svg>
