<?xml version="1.0" encoding="utf-8"?>
<!-- Generator: Adobe Illustrator 26.0.1, SVG Export Plug-In . SVG Version: 6.00 Build 0)  -->
<svg version="1.1" id="Calque_1" xmlns="http://www.w3.org/2000/svg" xmlns:xlink="http://www.w3.org/1999/xlink" x="0px" y="0px"
	 viewBox="0 0 400 400" style="enable-background:new 0 0 400 400;" xml:space="preserve">
<style type="text/css">
	.st0{fill:#E07E64;}
	.st1{fill:#FDF8F7;}
	.st2{fill:#FCF6F4;}
	.st3{fill:#DF7A5F;}
</style>
<g>
	<g>
		<g>
			<path class="st0" d="M286.286,317.383c2.412,9.053,5.383,17.637-6.365,23.733c-11.99,6.222-19.365,0.662-27.262-7.007
				c-16.149-15.664-27.855-9.698-35.347,8.664c-3.991,9.772-5.651,20.064-20.055,19.033c-13.465-0.965-15.579-10.513-19.364-20.591
				c-7.206-19.179-19.358-23.191-35.505-8.621c-6.91,6.23-13.558,13.535-24.321,6.747c-10.625-6.696-11.092-15.436-8.322-26.869
				c5.733-23.634-7.063-30.258-27.832-26.47c-9.612,1.753-17.925,4.128-23.392-7.509c-4.889-10.387-1.552-17.65,5.725-24.894
				c19.054-18.95,10.995-30.573-10.715-38.193c-8.032-2.821-15.434-5.64-15.404-16.511c0.024-11.091,5.122-17.253,15.445-20.194
				c25.219-7.181,29.92-20.341,11.218-39.91c-6.276-6.571-9.677-13.461-3.715-22.078c6.064-8.776,13.515-11.076,24.176-8.149
				c24.735,6.803,32.715-5.15,28.736-28.143c-1.408-8.146-4.689-15.584,5.475-21.428c11.356-6.533,19.378-3.142,27.526,5.081
				c17.121,17.261,29.077,11.299,36.924-9.047c3.404-8.812,5.303-17.88,18-17.599c13.177,0.29,16.895,8.466,20.508,19.181
				c7.256,21.52,20.17,24.836,37.079,8.998c7.188-6.726,14.384-12.131,24.467-4.794c8.859,6.436,9.964,14.166,7.314,24.501
				c-6.547,25.58,6.913,31.986,29.091,27.722c8.57-1.651,15.753-3.496,21.041,6.428c5.278,9.904,3.674,17.547-3.938,25.055
				c-20.201,19.93-12.564,32.226,11.226,39.842c8.603,2.751,14.428,7.133,13.855,17.614c-0.519,9.702-4.933,15.616-13.967,18.069
				c-27.294,7.415-31.385,21.196-11.73,41.722c5.471,5.716,8.274,11.866,3.511,19.464c-5.514,8.795-12.39,13.096-23.395,9.823
				C293.707,284.138,283.133,292.875,286.286,317.383z"/>
			<path class="st1" d="M300.076,198.691c0.49,55.42-44.98,101.05-100.37,100.74c-54.01-0.3-98.69-44.85-99.16-98.84
				c-0.48-55.59,44.71-100.95,100.3-100.67C254.876,100.181,299.596,144.711,300.076,198.691z"/>
			<path class="st2" d="M201.566,174.821c13.89,2.81,23.26,10.52,22.99,24.77c-0.29,15.63-10.01,25.07-25.68,24.3
				c-13.94-0.68-23.04-9.88-22.84-24.11C176.256,184.041,186.426,176.281,201.566,174.821z"/>
			<g>
				<g>
					<g>
						<path class="st3" d="M219.515,154.478c-3.03,10.753-6.037,21.41-9.032,32.067c-5.466,19.455-10.952,38.902-16.366,58.373
							c-1.279,4.603-3.106,9.073-8.823,7.536c-5.452-1.467-5.505-5.764-4.08-10.748c8.373-29.276,16.537-58.614,24.701-87.949
							c1.216-4.371,2.982-8.18,8.312-7.261C218.417,147.217,220.012,150.383,219.515,154.478z"/>
						<path class="st3" d="M173.4,229.604c0.101,2.816-1.326,4.808-3.665,6.039c-2.407,1.268-4.913,1.035-6.974-0.799
							c-11.387-10.113-22.793-20.207-34.033-30.481c-2.869-2.623-2.942-6.2-0.09-8.862c11.13-10.391,22.397-20.643,33.749-30.795
							c2.885-2.578,6.227-2.278,8.885,0.61c3.04,3.303,2.304,6.699-0.699,9.526c-7.461,7.025-14.922,14.058-22.661,20.768
							c-3.682,3.194-3.624,5.315,0.068,8.422c7.199,6.064,14.091,12.493,21.066,18.818
							C171.076,224.693,173.349,226.451,173.4,229.604z"/>
						<path class="st3" d="M233.091,236.017c-2.805-0.071-4.721-1.598-5.793-4.022c-1.448-3.274-0.052-5.873,2.395-8.11
							c6.948-6.358,13.598-13.084,20.909-18.988c5.505-4.447,4.639-7.304-0.309-11.334c-7.077-5.768-13.661-12.143-20.456-18.253
							c-3.243-2.918-4.975-6.314-1.692-10.079c3.57-4.09,7.229-2.703,10.785,0.501c9.885,8.892,19.777,17.776,29.821,26.487
							c5.327,4.62,5.887,8.863,0.369,13.758c-10.153,9.006-20.14,18.2-30.196,27.318
							C237.258,234.805,235.548,236.206,233.091,236.017z"/>
					</g>
				</g>
			</g>
		</g>
	</g>
</g>
<g>
</g>
<g>
</g>
<g>
</g>
<g>
</g>
<g>
</g>
<g>
</g>
<g>
</g>
<g>
</g>
<g>
</g>
<g>
</g>
<g>
</g>
<g>
</g>
<g>
</g>
<g>
</g>
<g>
</g>
</svg>
