<?xml version="1.0" encoding="utf-8"?>
<!-- Generator: Adobe Illustrator 26.0.1, SVG Export Plug-In . SVG Version: 6.00 Build 0)  -->
<svg version="1.1" id="Calque_1" xmlns="http://www.w3.org/2000/svg" xmlns:xlink="http://www.w3.org/1999/xlink" x="0px" y="0px"
	 viewBox="0 0 400 400" style="enable-background:new 0 0 400 400;" xml:space="preserve">
<style type="text/css">
	.st0{fill:#E07E64;}
	.st1{fill:#FDF8F7;}
	.st2{fill:#FCF6F4;}
	.st3{fill:#DF7A5F;}
</style>
<g>
	<g>
		<g>
			<path class="st0" d="M332.591,260.957c6.499,6.749,13.259,12.816,5.939,23.843c-7.471,11.255-16.616,9.967-27.241,7.089
				c-21.718-5.871-29.064,5.023-26.714,24.714c1.247,10.482,4.785,20.288-8.313,26.369c-12.245,5.684-18.723-1.642-26.919-8.622
				c-15.601-13.28-28.174-10.899-35.233,9.673c-3.023,8.799-5.296,18.412-18.001,17.692c-12.539-0.706-17.185-8.123-20.305-19.466
				c-6.443-23.45-20.847-23.04-37.175-9.658c-7.557,6.193-13.676,12.3-24.1,4.773c-9.312-6.714-9.914-14.684-7.061-24.548
				c7.477-25.812-5.205-32.07-27.888-28.209c-8.392,1.427-16.233,2.549-21.478-6.973c-5.357-9.712-3.885-17.573,3.718-25.149
				c18.576-18.507,16.307-32.296-9.537-40.345c-8.675-2.704-14.989-7.082-13.953-17.509c1.049-10.615,6.451-16.24,17.194-18.848
				c24.932-6.042,26.116-20.365,11.489-38.545c-5.181-6.442-11.656-11.357-5.6-21.395c6.765-11.219,15.425-12.143,26.538-8.901
				c23.343,6.797,30.909-4.214,27.908-25.814c-1.295-9.358-4.03-18.209,7.211-24.119c11.665-6.135,18.881-0.786,27.236,6.833
				c16.779,15.304,29.681,11.943,36.792-10.106c3.027-9.367,6.699-17.583,19.076-16.055c10.868,1.334,15.583,7.559,18.275,17.884
				C231.122,81.113,246,80.19,263.33,65.709c6.695-5.599,12.084-10.695,21.519-4.579c9.418,6.103,11.72,13.565,8.703,23.823
				c-8.006,27.225,4.634,34.276,29.135,29.404c8.858-1.765,16.077-0.756,20.657,8.689c4.25,8.738,3.256,16.05-3.456,22.575
				c-20.277,19.717-17.174,33.754,9.968,42.177c7.556,2.347,12.99,6.367,12.507,15.322c-0.559,10.366-4.488,17.461-15.699,19.934
				C322.964,228.282,317.952,241.05,332.591,260.957z"/>
			<path class="st1" d="M300.076,198.691c0.49,55.42-44.98,101.05-100.37,100.74c-54.01-0.3-98.69-44.85-99.16-98.84
				c-0.48-55.59,44.71-100.95,100.3-100.67C254.876,100.181,299.596,144.711,300.076,198.691z"/>
			<path class="st2" d="M201.566,174.821c13.89,2.81,23.26,10.52,22.99,24.77c-0.29,15.63-10.01,25.07-25.68,24.3
				c-13.94-0.68-23.04-9.88-22.84-24.11C176.256,184.041,186.426,176.281,201.566,174.821z"/>
			<g>
				<g>
					<g>
						<path class="st3" d="M219.515,154.478c-3.03,10.753-6.037,21.41-9.032,32.067c-5.466,19.455-10.952,38.902-16.366,58.373
							c-1.279,4.603-3.106,9.073-8.823,7.536c-5.452-1.467-5.505-5.764-4.08-10.748c8.373-29.276,16.537-58.614,24.701-87.949
							c1.216-4.371,2.982-8.18,8.312-7.261C218.417,147.217,220.012,150.383,219.515,154.478z"/>
						<path class="st3" d="M173.4,229.604c0.101,2.816-1.326,4.808-3.665,6.039c-2.407,1.268-4.913,1.035-6.974-0.799
							c-11.387-10.113-22.793-20.207-34.033-30.481c-2.869-2.623-2.942-6.2-0.09-8.862c11.13-10.391,22.397-20.643,33.749-30.795
							c2.885-2.578,6.227-2.278,8.885,0.61c3.04,3.303,2.304,6.699-0.699,9.526c-7.461,7.025-14.922,14.058-22.661,20.768
							c-3.682,3.194-3.624,5.315,0.068,8.422c7.199,6.064,14.091,12.493,21.066,18.818
							C171.076,224.693,173.349,226.451,173.4,229.604z"/>
						<path class="st3" d="M233.091,236.017c-2.805-0.071-4.721-1.598-5.793-4.022c-1.448-3.274-0.052-5.873,2.395-8.11
							c6.948-6.358,13.598-13.084,20.909-18.988c5.505-4.447,4.639-7.304-0.309-11.334c-7.077-5.768-13.661-12.143-20.456-18.253
							c-3.243-2.918-4.975-6.314-1.692-10.079c3.57-4.09,7.229-2.703,10.785,0.501c9.885,8.892,19.777,17.776,29.821,26.487
							c5.327,4.62,5.887,8.863,0.369,13.758c-10.153,9.006-20.14,18.2-30.196,27.318
							C237.258,234.805,235.548,236.206,233.091,236.017z"/>
					</g>
				</g>
			</g>
		</g>
	</g>
</g>
<g>
</g>
<g>
</g>
<g>
</g>
<g>
</g>
<g>
</g>
<g>
</g>
<g>
</g>
<g>
</g>
<g>
</g>
<g>
</g>
<g>
</g>
<g>
</g>
<g>
</g>
<g>
</g>
<g>
</g>
</svg>
