<?xml version="1.0" encoding="utf-8"?>
<!-- Generator: Adobe Illustrator 26.0.1, SVG Export Plug-In . SVG Version: 6.00 Build 0)  -->
<svg version="1.1" id="Calque_1" xmlns="http://www.w3.org/2000/svg" xmlns:xlink="http://www.w3.org/1999/xlink" x="0px" y="0px"
	 viewBox="0 0 400 400" style="enable-background:new 0 0 400 400;" xml:space="preserve">
<style type="text/css">
	.st0{fill:#E07E64;}
	.st1{fill:#FDF8F7;}
	.st2{fill:#FCF6F4;}
	.st3{fill:#DF7A5F;}
</style>
<g>
	<g>
		<g>
			<path class="st0" d="M255.248,334.678c0.15,9.368,0.956,18.415-11.918,21.488c-13.139,3.136-18.949-4.042-24.757-13.394
				c-11.88-19.106-24.682-16.148-36.393-0.144c-6.237,8.516-10.337,18.101-24.064,13.616c-12.832-4.194-12.573-13.97-13.807-24.664
				c-2.353-20.352-13.173-27.186-32.365-16.954c-8.212,4.374-16.43,9.853-25.231,0.662c-8.689-9.068-7.029-17.661-1.575-28.085
				c11.281-21.545,0.467-31.068-20.602-32.417c-9.75-0.625-18.391-0.331-20.881-12.945c-2.231-11.261,2.764-17.501,11.578-22.769
				c23.072-13.778,18.065-27.005-1.157-39.651c-7.111-4.68-13.611-9.206-10.952-19.748c2.706-10.756,9.144-15.502,19.871-15.857
				c26.207-0.867,33.952-12.499,20.54-36.011c-4.5-7.894-6.133-15.402,1.736-22.321c8.007-7.048,15.793-7.477,25.429-2.059
				c22.355,12.585,32.989,2.918,34.69-20.355c0.604-8.244-0.779-16.256,10.496-19.467c12.599-3.592,19.562,1.639,25.479,11.589
				c12.437,20.891,25.48,17.998,38.015,0.154c5.435-7.727,9.471-16.066,21.723-12.721c12.715,3.469,14.345,12.302,15.259,23.573
				c1.834,22.636,13.562,28.978,33.8,17.701c8.602-4.787,16.891-8.291,24.9,1.268c7.039,8.388,6.241,16.156,1.169,25.543
				c-12.541,23.236-1.03,32.708,21.52,33.936c8.715,0.472,16.131,0.419,18.861,11.328c2.725,10.886-0.68,17.914-9.882,23.358
				c-24.422,14.451-19.987,28.229,1.254,41.374c7.682,4.75,12.274,10.411,9.182,20.443c-2.851,9.289-8.565,13.959-17.924,14.153
				c-28.277,0.592-35.58,12.973-21.475,37.645c3.926,6.87,5.158,13.515-1.302,19.735c-7.478,7.2-15.191,9.709-25.077,3.872
				C270.492,304.215,258.118,310.134,255.248,334.678z"/>
			<path class="st1" d="M300.076,198.691c0.49,55.42-44.98,101.05-100.37,100.74c-54.01-0.3-98.69-44.85-99.16-98.84
				c-0.48-55.59,44.71-100.95,100.3-100.67C254.876,100.181,299.596,144.711,300.076,198.691z"/>
			<path class="st2" d="M201.566,174.821c13.89,2.81,23.26,10.52,22.99,24.77c-0.29,15.63-10.01,25.07-25.68,24.3
				c-13.94-0.68-23.04-9.88-22.84-24.11C176.256,184.041,186.426,176.281,201.566,174.821z"/>
			<g>
				<g>
					<g>
						<path class="st3" d="M219.515,154.478c-3.03,10.753-6.037,21.41-9.032,32.067c-5.466,19.455-10.952,38.902-16.366,58.373
							c-1.279,4.603-3.106,9.073-8.823,7.536c-5.452-1.467-5.505-5.764-4.08-10.748c8.373-29.276,16.537-58.614,24.701-87.949
							c1.216-4.371,2.982-8.18,8.312-7.261C218.417,147.217,220.012,150.383,219.515,154.478z"/>
						<path class="st3" d="M173.4,229.604c0.101,2.816-1.326,4.808-3.665,6.039c-2.407,1.268-4.913,1.035-6.974-0.799
							c-11.387-10.113-22.793-20.207-34.033-30.481c-2.869-2.623-2.942-6.2-0.09-8.862c11.13-10.391,22.397-20.643,33.749-30.795
							c2.885-2.578,6.227-2.278,8.885,0.61c3.04,3.303,2.304,6.699-0.699,9.526c-7.461,7.025-14.922,14.058-22.661,20.768
							c-3.682,3.194-3.624,5.315,0.068,8.422c7.199,6.064,14.091,12.493,21.066,18.818
							C171.076,224.693,173.349,226.451,173.4,229.604z"/>
						<path class="st3" d="M233.091,236.017c-2.805-0.071-4.721-1.598-5.793-4.022c-1.448-3.274-0.052-5.873,2.395-8.11
							c6.948-6.358,13.598-13.084,20.909-18.988c5.505-4.447,4.639-7.304-0.309-11.334c-7.077-5.768-13.661-12.143-20.456-18.253
							c-3.243-2.918-4.975-6.314-1.692-10.079c3.57-4.09,7.229-2.703,10.785,0.501c9.885,8.892,19.777,17.776,29.821,26.487
							c5.327,4.62,5.887,8.863,0.369,13.758c-10.153,9.006-20.14,18.2-30.196,27.318
							C237.258,234.805,235.548,236.206,233.091,236.017z"/>
					</g>
				</g>
			</g>
		</g>
	</g>
</g>
<g>
</g>
<g>
</g>
<g>
</g>
<g>
</g>
<g>
</g>
<g>
</g>
<g>
</g>
<g>
</g>
<g>
</g>
<g>
</g>
<g>
</g>
<g>
</g>
<g>
</g>
<g>
</g>
<g>
</g>
</svg>
