<?xml version="1.0" encoding="utf-8"?>
<!-- Generator: Adobe Illustrator 26.0.1, SVG Export Plug-In . SVG Version: 6.00 Build 0)  -->
<svg version="1.1" id="Calque_1" xmlns="http://www.w3.org/2000/svg" xmlns:xlink="http://www.w3.org/1999/xlink" x="0px" y="0px"
	 viewBox="0 0 400 400" style="enable-background:new 0 0 400 400;" xml:space="preserve">
<style type="text/css">
	.st0{fill:#E07E64;}
	.st1{fill:#FDF8F7;}
	.st2{fill:#FCF6F4;}
	.st3{fill:#DF7A5F;}
</style>
<g>
	<g>
		<g>
			<path class="st0" d="M339.64,156.721c9.346,0.667,18.428,0.652,20.367,13.745c1.979,13.363-5.678,18.525-15.501,23.495
				c-20.068,10.169-18.238,23.18-3.315,36.242c7.94,6.955,17.132,11.876,11.467,25.159c-5.296,12.417-15.013,11.307-25.773,11.605
				c-20.48,0.57-28.23,10.753-19.711,30.764c3.641,8.562,8.384,17.226-1.539,25.193c-9.791,7.866-18.206,5.463-28.115-0.879
				c-20.479-13.115-30.909-3.173-34.089,17.698c-1.472,9.659-1.933,18.292-14.716,19.673c-11.413,1.241-17.194-4.279-21.674-13.518
				c-11.715-24.185-25.327-20.35-39.601-2.303c-5.282,6.676-10.358,12.757-20.627,9.189c-10.479-3.633-14.646-10.46-14.065-21.178
				c1.421-26.183-9.492-34.912-34.084-23.601c-8.256,3.795-15.878,4.767-22.085-3.675c-6.323-8.591-6.072-16.385,0.166-25.512
				c14.485-21.173,5.782-32.609-17.254-36.332c-8.16-1.321-16.262-0.64-18.478-12.153c-2.48-12.864,3.338-19.345,13.766-24.372
				c21.895-10.569,20.15-23.814,3.467-37.857c-7.224-6.088-15.18-10.835-10.78-22.749c4.564-12.365,13.505-13.218,24.813-13.146
				c22.71,0.146,30.049-10.985,20.58-32.129c-4.019-8.986-6.787-17.55,3.433-24.695c8.969-6.281,16.638-4.809,25.548,1.062
				c22.054,14.519,32.494,3.877,35.683-18.48c1.229-8.641,1.824-16.033,12.928-17.802c11.082-1.766,17.787,2.239,22.408,11.88
				c12.268,25.589,26.379,22.371,41.326,2.357c5.402-7.239,11.441-11.319,21.165-7.365c9.005,3.65,13.159,9.749,12.537,19.089
				c-1.875,28.221,9.823,36.575,35.63,24.674c7.186-3.312,13.914-3.96,19.547,3.017c6.521,8.077,8.348,15.979,1.671,25.319
				C310.621,138.88,315.44,151.723,339.64,156.721z"/>
			<path class="st1" d="M300.076,198.691c0.49,55.42-44.98,101.05-100.37,100.74c-54.01-0.3-98.69-44.85-99.16-98.84
				c-0.48-55.59,44.71-100.95,100.3-100.67C254.876,100.181,299.596,144.711,300.076,198.691z"/>
			<path class="st2" d="M201.566,174.821c13.89,2.81,23.26,10.52,22.99,24.77c-0.29,15.63-10.01,25.07-25.68,24.3
				c-13.94-0.68-23.04-9.88-22.84-24.11C176.256,184.041,186.426,176.281,201.566,174.821z"/>
			<g>
				<g>
					<g>
						<path class="st3" d="M219.515,154.478c-3.03,10.753-6.037,21.41-9.032,32.067c-5.466,19.455-10.952,38.902-16.366,58.373
							c-1.279,4.603-3.106,9.073-8.823,7.536c-5.452-1.467-5.505-5.764-4.08-10.748c8.373-29.276,16.537-58.614,24.701-87.949
							c1.216-4.371,2.982-8.18,8.312-7.261C218.417,147.217,220.012,150.383,219.515,154.478z"/>
						<path class="st3" d="M173.4,229.604c0.101,2.816-1.326,4.808-3.665,6.039c-2.407,1.268-4.913,1.035-6.974-0.799
							c-11.387-10.113-22.793-20.207-34.033-30.481c-2.869-2.623-2.942-6.2-0.09-8.862c11.13-10.391,22.397-20.643,33.749-30.795
							c2.885-2.578,6.227-2.278,8.885,0.61c3.04,3.303,2.304,6.699-0.699,9.526c-7.461,7.025-14.922,14.058-22.661,20.768
							c-3.682,3.194-3.624,5.315,0.068,8.422c7.199,6.064,14.091,12.493,21.066,18.818
							C171.076,224.693,173.349,226.451,173.4,229.604z"/>
						<path class="st3" d="M233.091,236.017c-2.805-0.071-4.721-1.598-5.793-4.022c-1.448-3.274-0.052-5.873,2.395-8.11
							c6.948-6.358,13.598-13.084,20.909-18.988c5.505-4.447,4.639-7.304-0.309-11.334c-7.077-5.768-13.661-12.143-20.456-18.253
							c-3.243-2.918-4.975-6.314-1.692-10.079c3.57-4.09,7.229-2.703,10.785,0.501c9.885,8.892,19.777,17.776,29.821,26.487
							c5.327,4.62,5.887,8.863,0.369,13.758c-10.153,9.006-20.14,18.2-30.196,27.318
							C237.258,234.805,235.548,236.206,233.091,236.017z"/>
					</g>
				</g>
			</g>
		</g>
	</g>
</g>
<g>
</g>
<g>
</g>
<g>
</g>
<g>
</g>
<g>
</g>
<g>
</g>
<g>
</g>
<g>
</g>
<g>
</g>
<g>
</g>
<g>
</g>
<g>
</g>
<g>
</g>
<g>
</g>
<g>
</g>
</svg>
