<?xml version="1.0" encoding="utf-8"?>
<!-- Generator: Adobe Illustrator 26.0.1, SVG Export Plug-In . SVG Version: 6.00 Build 0)  -->
<svg version="1.1" id="Calque_1" xmlns="http://www.w3.org/2000/svg" xmlns:xlink="http://www.w3.org/1999/xlink" x="0px" y="0px"
	 viewBox="0 0 400 400" style="enable-background:new 0 0 400 400;" xml:space="preserve">
<style type="text/css">
	.st0{fill:#E07E64;}
	.st1{fill:#FDF8F7;}
	.st2{fill:#FCF6F4;}
	.st3{fill:#DF7A5F;}
</style>
<g>
	<g>
		<g>
			<path class="st0" d="M162.943,340.543c-5.518,7.572-10.319,15.282-22.449,9.989c-12.381-5.403-12.701-14.632-11.711-25.596
				c2.01-22.408-9.993-27.75-28.978-22.017c-10.106,3.048-19.149,8.235-27.412-3.608c-7.724-11.072-1.634-18.723,3.816-28.007
				c10.37-17.67,5.841-29.639-15.644-33.018c-9.19-1.449-19.052-2.019-20.549-14.656c-1.482-12.471,5.015-18.334,15.644-23.377
				c21.975-10.417,19.07-24.531,3.055-38.288c-7.411-6.367-14.488-11.332-8.885-22.905c4.995-10.337,12.74-12.314,22.949-11.217
				c26.718,2.882,30.679-10.695,22.938-32.363c-2.863-8.017-5.33-15.544,3.138-22.362c8.634-6.962,16.632-6.877,25.413-0.705
				c21.452,15.08,34.637,10.451,38.076-16.398c1.156-9.013,4.371-15.991,14.82-16.782c10.636-0.81,17.113,3.533,21.548,13.66
				c10.28,23.504,24.59,22.183,39.955,4.621c5.444-6.221,9.16-13.451,20.098-9.23c12.223,4.714,14.637,13.082,13.374,24.589
				c-2.64,24.169,9.518,29.708,30.268,23.002c8.991-2.9,17.233-7.131,25.004,2.913c8.067,10.423,4.053,18.458-2,28.009
				c-12.158,19.182-6.608,31.304,16.341,34.478c9.751,1.354,18.479,3.544,19.123,15.998c0.574,10.935-4.738,16.659-14.439,21.103
				c-24,11.009-20.507,25.501-3.237,40.054c6.676,5.621,12.631,10.043,8.246,20.397c-4.375,10.334-11.324,13.898-21.95,12.707
				c-28.202-3.156-32.951,10.516-23.898,33.798c3.277,8.417,3.536,15.701-4.97,21.852c-7.867,5.702-15.241,5.994-22.832,0.516
				c-22.939-16.545-36.223-11.052-39.806,17.14c-0.999,7.849-4.015,13.898-12.917,14.978c-10.305,1.25-17.975-1.388-22.357-11.999
				C193.45,325.388,180.005,322.669,162.943,340.543z"/>
			<path class="st1" d="M300.076,198.691c0.49,55.42-44.98,101.05-100.37,100.74c-54.01-0.3-98.69-44.85-99.16-98.84
				c-0.48-55.59,44.71-100.95,100.3-100.67C254.876,100.181,299.596,144.711,300.076,198.691z"/>
			<path class="st2" d="M201.566,174.821c13.89,2.81,23.26,10.52,22.99,24.77c-0.29,15.63-10.01,25.07-25.68,24.3
				c-13.94-0.68-23.04-9.88-22.84-24.11C176.256,184.041,186.426,176.281,201.566,174.821z"/>
			<g>
				<g>
					<g>
						<path class="st3" d="M219.515,154.478c-3.03,10.753-6.037,21.41-9.032,32.067c-5.466,19.455-10.952,38.902-16.366,58.373
							c-1.279,4.603-3.106,9.073-8.823,7.536c-5.452-1.467-5.505-5.764-4.08-10.748c8.373-29.276,16.537-58.614,24.701-87.949
							c1.216-4.371,2.982-8.18,8.312-7.261C218.417,147.217,220.012,150.383,219.515,154.478z"/>
						<path class="st3" d="M173.4,229.604c0.101,2.816-1.326,4.808-3.665,6.039c-2.407,1.268-4.913,1.035-6.974-0.799
							c-11.387-10.113-22.793-20.207-34.033-30.481c-2.869-2.623-2.942-6.2-0.09-8.862c11.13-10.391,22.397-20.643,33.749-30.795
							c2.885-2.578,6.227-2.278,8.885,0.61c3.04,3.303,2.304,6.699-0.699,9.526c-7.461,7.025-14.922,14.058-22.661,20.768
							c-3.682,3.194-3.624,5.315,0.068,8.422c7.199,6.064,14.091,12.493,21.066,18.818
							C171.076,224.693,173.349,226.451,173.4,229.604z"/>
						<path class="st3" d="M233.091,236.017c-2.805-0.071-4.721-1.598-5.793-4.022c-1.448-3.274-0.052-5.873,2.395-8.11
							c6.948-6.358,13.598-13.084,20.909-18.988c5.505-4.447,4.639-7.304-0.309-11.334c-7.077-5.768-13.661-12.143-20.456-18.253
							c-3.243-2.918-4.975-6.314-1.692-10.079c3.57-4.09,7.229-2.703,10.785,0.501c9.885,8.892,19.777,17.776,29.821,26.487
							c5.327,4.62,5.887,8.863,0.369,13.758c-10.153,9.006-20.14,18.2-30.196,27.318
							C237.258,234.805,235.548,236.206,233.091,236.017z"/>
					</g>
				</g>
			</g>
		</g>
	</g>
</g>
<g>
</g>
<g>
</g>
<g>
</g>
<g>
</g>
<g>
</g>
<g>
</g>
<g>
</g>
<g>
</g>
<g>
</g>
<g>
</g>
<g>
</g>
<g>
</g>
<g>
</g>
<g>
</g>
<g>
</g>
</svg>
