<?xml version="1.0" encoding="utf-8"?>
<!-- Generator: Adobe Illustrator 26.0.1, SVG Export Plug-In . SVG Version: 6.00 Build 0)  -->
<svg version="1.1" id="Calque_1" xmlns="http://www.w3.org/2000/svg" xmlns:xlink="http://www.w3.org/1999/xlink" x="0px" y="0px"
	 viewBox="0 0 400 400" style="enable-background:new 0 0 400 400;" xml:space="preserve">
<style type="text/css">
	.st0{fill:#E07E64;}
	.st1{fill:#FDF8F7;}
	.st2{fill:#FCF6F4;}
	.st3{fill:#DF7A5F;}
</style>
<g>
	<g>
		<g>
			<path class="st0" d="M185.445,344.661c-4.265,8.342-7.801,16.708-20.61,13.378c-13.074-3.4-14.834-12.465-15.571-23.449
				c-1.52-22.447-14.211-25.845-32.065-17.213c-9.505,4.591-17.625,11.129-27.639,0.725c-9.361-9.727-4.542-18.237-0.612-28.259
				c7.478-19.075,1.132-30.188-20.617-30.164c-9.304,0.007-19.133,0.987-22.589-11.261c-3.415-12.086,2.085-18.893,11.794-25.537
				c20.075-13.727,14.998-27.212-2.972-38.294c-8.316-5.129-16.083-8.926-12.359-21.233c3.317-10.991,10.657-14.155,20.912-14.669
				c26.84-1.333,28.628-15.363,17.593-35.553c-4.082-7.471-7.696-14.519-0.399-22.578c7.439-8.227,15.351-9.394,24.99-4.672
				c23.546,11.538,35.845,4.904,35.042-22.153c-0.268-9.083,1.816-16.478,12.012-18.893c10.378-2.464,17.455,0.813,23.419,10.121
				c13.83,21.606,27.758,18.063,40.186-1.686c4.404-6.996,6.943-14.719,18.407-12.261c12.81,2.744,16.503,10.631,17.055,22.194
				c1.173,24.284,14.048,27.853,33.493,17.983c8.426-4.271,15.905-9.739,25.152-1.034c9.598,9.033,6.89,17.596,2.406,27.977
				c-9.008,20.847-1.629,31.953,21.534,31.498c9.842-0.188,18.806,0.61,21.39,12.809c2.277,10.71-2.074,17.195-10.96,23.102
				c-21.982,14.628-16.265,28.395,3.069,40.067c7.473,4.508,14.046,7.943,11.335,18.856c-2.705,10.891-9.011,15.498-19.692,15.985
				c-28.348,1.294-30.9,15.541-18.317,37.12c4.553,7.801,5.949,14.955-1.49,22.361c-6.878,6.863-14.115,8.304-22.47,4.082
				c-25.245-12.753-37.506-5.249-36.634,23.156c0.241,7.909-1.791,14.355-10.415,16.814c-9.983,2.846-17.971,1.441-23.959-8.354
				C213.206,324.921,199.502,324.338,185.445,344.661z"/>
			<path class="st1" d="M300.076,198.691c0.49,55.42-44.98,101.05-100.37,100.74c-54.01-0.3-98.69-44.85-99.16-98.84
				c-0.48-55.59,44.71-100.95,100.3-100.67C254.876,100.181,299.596,144.711,300.076,198.691z"/>
			<path class="st2" d="M201.566,174.821c13.89,2.81,23.26,10.52,22.99,24.77c-0.29,15.63-10.01,25.07-25.68,24.3
				c-13.94-0.68-23.04-9.88-22.84-24.11C176.256,184.041,186.426,176.281,201.566,174.821z"/>
			<g>
				<g>
					<g>
						<path class="st3" d="M219.515,154.478c-3.03,10.753-6.037,21.41-9.032,32.067c-5.466,19.455-10.952,38.902-16.366,58.373
							c-1.279,4.603-3.106,9.073-8.823,7.536c-5.452-1.467-5.505-5.764-4.08-10.748c8.373-29.276,16.537-58.614,24.701-87.949
							c1.216-4.371,2.982-8.18,8.312-7.261C218.417,147.217,220.012,150.383,219.515,154.478z"/>
						<path class="st3" d="M173.4,229.604c0.101,2.816-1.326,4.808-3.665,6.039c-2.407,1.268-4.913,1.035-6.974-0.799
							c-11.387-10.113-22.793-20.207-34.033-30.481c-2.869-2.623-2.942-6.2-0.09-8.862c11.13-10.391,22.397-20.643,33.749-30.795
							c2.885-2.578,6.227-2.278,8.885,0.61c3.04,3.303,2.304,6.699-0.699,9.526c-7.461,7.025-14.922,14.058-22.661,20.768
							c-3.682,3.194-3.624,5.315,0.068,8.422c7.199,6.064,14.091,12.493,21.066,18.818
							C171.076,224.693,173.349,226.451,173.4,229.604z"/>
						<path class="st3" d="M233.091,236.017c-2.805-0.071-4.721-1.598-5.793-4.022c-1.448-3.274-0.052-5.873,2.395-8.11
							c6.948-6.358,13.598-13.084,20.909-18.988c5.505-4.447,4.639-7.304-0.309-11.334c-7.077-5.768-13.661-12.143-20.456-18.253
							c-3.243-2.918-4.975-6.314-1.692-10.079c3.57-4.09,7.229-2.703,10.785,0.501c9.885,8.892,19.777,17.776,29.821,26.487
							c5.327,4.62,5.887,8.863,0.369,13.758c-10.153,9.006-20.14,18.2-30.196,27.318
							C237.258,234.805,235.548,236.206,233.091,236.017z"/>
					</g>
				</g>
			</g>
		</g>
	</g>
</g>
<g>
</g>
<g>
</g>
<g>
</g>
<g>
</g>
<g>
</g>
<g>
</g>
<g>
</g>
<g>
</g>
<g>
</g>
<g>
</g>
<g>
</g>
<g>
</g>
<g>
</g>
<g>
</g>
<g>
</g>
</svg>
