<?xml version="1.0" encoding="utf-8"?>
<!-- Generator: Adobe Illustrator 26.0.1, SVG Export Plug-In . SVG Version: 6.00 Build 0)  -->
<svg version="1.1" id="Calque_1" xmlns="http://www.w3.org/2000/svg" xmlns:xlink="http://www.w3.org/1999/xlink" x="0px" y="0px"
	 viewBox="0 0 400 400" style="enable-background:new 0 0 400 400;" xml:space="preserve">
<style type="text/css">
	.st0{fill:#E07E64;}
	.st1{fill:#FDF8F7;}
	.st2{fill:#FCF6F4;}
	.st3{fill:#DF7A5F;}
</style>
<g>
	<g>
		<g>
			<path class="st0" d="M266.225,69.625c6.972-6.26,13.271-12.803,24.036-5.103c10.987,7.859,9.381,16.953,6.133,27.472
				c-6.625,21.5,4.005,29.222,23.767,27.56c10.519-0.88,20.443-4.074,26.063,9.229c5.253,12.436-2.295,18.654-9.556,26.601
				c-13.817,15.128-11.875,27.777,8.438,35.549c8.688,3.328,18.215,5.936,17.053,18.608c-1.143,12.507-8.718,16.891-20.163,19.614
				c-23.661,5.621-23.753,20.03-10.949,36.816c5.925,7.769,11.816,14.097,3.929,24.252c-7.035,9.072-15.021,9.396-24.78,6.2
				c-25.535-8.374-32.232,4.083-29.165,26.886c1.133,8.437,1.981,16.312-7.718,21.221c-9.893,5.014-17.698,3.269-25.004-4.594
				c-17.848-19.21-31.707-17.424-40.653,8.123c-3.005,8.575-7.601,14.733-17.985,13.334c-10.572-1.419-16.004-7.014-18.237-17.841
				c-5.168-25.127-19.441-26.811-38.121-12.827c-6.619,4.953-11.757,11.253-21.578,4.85c-10.976-7.152-11.597-15.839-7.969-26.832
				c7.607-23.092-3.133-31.038-24.824-28.792c-9.397,0.967-18.339,3.393-23.852-8.048c-5.724-11.872-0.127-18.897,7.78-26.981
				c15.88-16.235,12.972-29.246-8.816-37.122c-9.256-3.352-17.339-7.309-15.379-19.624c1.712-10.815,8.098-15.309,18.511-17.64
				c25.764-5.779,25.361-20.681,11.494-38.505c-5.362-6.887-10.266-12.449-3.825-21.666c6.428-9.199,13.966-11.24,24.112-7.866
				c26.929,8.951,34.417-3.435,30.403-28.091c-1.455-8.914-0.195-16.093,9.405-20.341c8.881-3.942,16.154-2.694,22.441,4.242
				c18.998,20.952,33.134,18.341,42.5-8.49c2.609-7.47,6.816-12.759,15.749-11.965c10.34,0.92,17.294,5.095,19.374,16.385
				C233.233,78.106,245.819,83.561,266.225,69.625z"/>
			<path class="st1" d="M300.076,198.691c0.49,55.42-44.98,101.05-100.37,100.74c-54.01-0.3-98.69-44.85-99.16-98.84
				c-0.48-55.59,44.71-100.95,100.3-100.67C254.876,100.181,299.596,144.711,300.076,198.691z"/>
			<path class="st2" d="M201.566,174.821c13.89,2.81,23.26,10.52,22.99,24.77c-0.29,15.63-10.01,25.07-25.68,24.3
				c-13.94-0.68-23.04-9.88-22.84-24.11C176.256,184.041,186.426,176.281,201.566,174.821z"/>
			<g>
				<g>
					<g>
						<path class="st3" d="M219.515,154.478c-3.03,10.753-6.037,21.41-9.032,32.067c-5.466,19.455-10.952,38.902-16.366,58.373
							c-1.279,4.603-3.106,9.073-8.823,7.536c-5.452-1.467-5.505-5.764-4.08-10.748c8.373-29.276,16.537-58.614,24.701-87.949
							c1.216-4.371,2.982-8.18,8.312-7.261C218.417,147.217,220.012,150.383,219.515,154.478z"/>
						<path class="st3" d="M173.4,229.604c0.101,2.816-1.326,4.808-3.665,6.039c-2.407,1.268-4.913,1.035-6.974-0.799
							c-11.387-10.113-22.793-20.207-34.033-30.481c-2.869-2.623-2.942-6.2-0.09-8.862c11.13-10.391,22.397-20.643,33.749-30.795
							c2.885-2.578,6.227-2.278,8.885,0.61c3.04,3.303,2.304,6.699-0.699,9.526c-7.461,7.025-14.922,14.058-22.661,20.768
							c-3.682,3.194-3.624,5.315,0.068,8.422c7.199,6.064,14.091,12.493,21.066,18.818
							C171.076,224.693,173.349,226.451,173.4,229.604z"/>
						<path class="st3" d="M233.091,236.017c-2.805-0.071-4.721-1.598-5.793-4.022c-1.448-3.274-0.052-5.873,2.395-8.11
							c6.948-6.358,13.598-13.084,20.909-18.988c5.505-4.447,4.639-7.304-0.309-11.334c-7.077-5.768-13.661-12.143-20.456-18.253
							c-3.243-2.918-4.975-6.314-1.692-10.079c3.57-4.09,7.229-2.703,10.785,0.501c9.885,8.892,19.777,17.776,29.821,26.487
							c5.327,4.62,5.887,8.863,0.369,13.758c-10.153,9.006-20.14,18.2-30.196,27.318
							C237.258,234.805,235.548,236.206,233.091,236.017z"/>
					</g>
				</g>
			</g>
		</g>
	</g>
</g>
<g>
</g>
<g>
</g>
<g>
</g>
<g>
</g>
<g>
</g>
<g>
</g>
<g>
</g>
<g>
</g>
<g>
</g>
<g>
</g>
<g>
</g>
<g>
</g>
<g>
</g>
<g>
</g>
<g>
</g>
</svg>
