<?xml version="1.0" encoding="utf-8"?>
<!-- Generator: Adobe Illustrator 26.0.1, SVG Export Plug-In . SVG Version: 6.00 Build 0)  -->
<svg version="1.1" id="Calque_1" xmlns="http://www.w3.org/2000/svg" xmlns:xlink="http://www.w3.org/1999/xlink" x="0px" y="0px"
	 viewBox="0 0 400 400" style="enable-background:new 0 0 400 400;" xml:space="preserve">
<style type="text/css">
	.st0{fill:#E07E64;}
	.st1{fill:#FDF8F7;}
	.st2{fill:#FCF6F4;}
	.st3{fill:#DF7A5F;}
</style>
<g>
	<g>
		<g>
			<path class="st0" d="M277.864,323.091c1.775,9.2,4.14,17.969-8.005,23.231c-12.395,5.37-19.364-0.69-26.707-8.891
				c-15.017-16.753-27.111-11.617-35.865,6.178c-4.663,9.47-7.037,19.621-21.334,17.588c-13.365-1.902-14.808-11.575-17.88-21.892
				c-5.851-19.635-17.693-24.485-34.817-11.077c-7.328,5.733-14.469,12.557-24.733,5.034c-10.132-7.421-9.989-16.172-6.428-27.384
				c7.368-23.176-4.935-30.677-25.918-28.347c-9.711,1.078-18.169,2.867-22.812-9.123c-4.153-10.703-0.317-17.715,7.448-24.434
				c20.329-17.575,13.101-29.731-8.025-38.847c-7.816-3.374-15.003-6.703-14.215-17.546c0.797-11.063,6.313-16.854,16.816-19.067
				c25.659-5.404,31.266-18.204,13.975-39.031c-5.803-6.992-8.714-14.103-2.166-22.284c6.661-8.331,14.255-10.106,24.685-6.443
				c24.2,8.512,32.994-2.855,30.629-26.07c-0.836-8.224-3.59-15.873,6.956-20.994c11.784-5.725,19.55-1.783,27.104,6.989
				c15.876,18.414,28.218,13.3,37.465-6.449c4.011-8.553,6.537-17.467,19.184-16.3c13.125,1.208,16.263,9.624,19.12,20.565
				c5.737,21.974,18.388,26.182,36.361,11.563c7.64-6.208,15.195-11.098,24.742-3.075c8.389,7.038,8.952,14.827,5.587,24.952
				c-8.316,25.061,4.665,32.39,27.086,29.684c8.664-1.049,15.959-2.388,20.541,7.88c4.574,10.248,2.441,17.76-5.676,24.719
				c-21.542,18.473-14.782,31.271,8.42,40.528c8.391,3.344,13.895,8.122,12.592,18.538c-1.195,9.643-6.011,15.234-15.194,17.051
				c-27.744,5.493-32.787,18.955-14.612,40.802c5.059,6.084,7.426,12.414,2.145,19.662c-6.114,8.389-13.274,12.2-24.023,8.167
				C287.586,290.444,276.428,298.422,277.864,323.091z"/>
			<path class="st1" d="M300.076,198.691c0.49,55.42-44.98,101.05-100.37,100.74c-54.01-0.3-98.69-44.85-99.16-98.84
				c-0.48-55.59,44.71-100.95,100.3-100.67C254.876,100.181,299.596,144.711,300.076,198.691z"/>
			<path class="st2" d="M201.566,174.821c13.89,2.81,23.26,10.52,22.99,24.77c-0.29,15.63-10.01,25.07-25.68,24.3
				c-13.94-0.68-23.04-9.88-22.84-24.11C176.256,184.041,186.426,176.281,201.566,174.821z"/>
			<g>
				<g>
					<g>
						<path class="st3" d="M219.515,154.478c-3.03,10.753-6.037,21.41-9.032,32.067c-5.466,19.455-10.952,38.902-16.366,58.373
							c-1.279,4.603-3.106,9.073-8.823,7.536c-5.452-1.467-5.505-5.764-4.08-10.748c8.373-29.276,16.537-58.614,24.701-87.949
							c1.216-4.371,2.982-8.18,8.312-7.261C218.417,147.217,220.012,150.383,219.515,154.478z"/>
						<path class="st3" d="M173.4,229.604c0.101,2.816-1.326,4.808-3.665,6.039c-2.407,1.268-4.913,1.035-6.974-0.799
							c-11.387-10.113-22.793-20.207-34.033-30.481c-2.869-2.623-2.942-6.2-0.09-8.862c11.13-10.391,22.397-20.643,33.749-30.795
							c2.885-2.578,6.227-2.278,8.885,0.61c3.04,3.303,2.304,6.699-0.699,9.526c-7.461,7.025-14.922,14.058-22.661,20.768
							c-3.682,3.194-3.624,5.315,0.068,8.422c7.199,6.064,14.091,12.493,21.066,18.818
							C171.076,224.693,173.349,226.451,173.4,229.604z"/>
						<path class="st3" d="M233.091,236.017c-2.805-0.071-4.721-1.598-5.793-4.022c-1.448-3.274-0.052-5.873,2.395-8.11
							c6.948-6.358,13.598-13.084,20.909-18.988c5.505-4.447,4.639-7.304-0.309-11.334c-7.077-5.768-13.661-12.143-20.456-18.253
							c-3.243-2.918-4.975-6.314-1.692-10.079c3.57-4.09,7.229-2.703,10.785,0.501c9.885,8.892,19.777,17.776,29.821,26.487
							c5.327,4.62,5.887,8.863,0.369,13.758c-10.153,9.006-20.14,18.2-30.196,27.318
							C237.258,234.805,235.548,236.206,233.091,236.017z"/>
					</g>
				</g>
			</g>
		</g>
	</g>
</g>
<g>
</g>
<g>
</g>
<g>
</g>
<g>
</g>
<g>
</g>
<g>
</g>
<g>
</g>
<g>
</g>
<g>
</g>
<g>
</g>
<g>
</g>
<g>
</g>
<g>
</g>
<g>
</g>
<g>
</g>
</svg>
