<?xml version="1.0" encoding="utf-8"?>
<!-- Generator: Adobe Illustrator 26.0.1, SVG Export Plug-In . SVG Version: 6.00 Build 0)  -->
<svg version="1.1" id="Calque_1" xmlns="http://www.w3.org/2000/svg" xmlns:xlink="http://www.w3.org/1999/xlink" x="0px" y="0px"
	 viewBox="0 0 400 400" style="enable-background:new 0 0 400 400;" xml:space="preserve">
<style type="text/css">
	.st0{fill:#E07E64;}
	.st1{fill:#FDF8F7;}
	.st2{fill:#FCF6F4;}
	.st3{fill:#DF7A5F;}
</style>
<g>
	<g>
		<g>
			<path class="st0" d="M343.837,174.012c9.195,1.801,18.211,2.893,18.54,16.125c0.336,13.504-7.894,17.695-18.249,21.431
				c-21.158,7.648-20.927,20.785-7.707,35.568c7.033,7.871,15.557,13.875,8.315,26.369c-6.77,11.679-16.279,9.393-26.996,8.377
				c-20.397-1.93-29.33,7.233-23.313,28.132c2.571,8.942,6.222,18.12-4.598,24.817c-10.676,6.614-18.736,3.203-27.798-4.299
				c-18.728-15.513-30.292-6.916-35.992,13.412c-2.638,9.408-4.148,17.92-17.004,17.733c-11.479-0.159-16.544-6.342-19.865-16.059
				c-8.68-25.433-22.659-23.285-39.025-7.112c-6.056,5.983-11.835,11.399-21.593,6.607c-9.958-4.883-13.262-12.167-11.379-22.734
				c4.601-25.815-5.166-35.808-30.953-27.578c-8.657,2.761-16.341,2.796-21.472-6.339c-5.229-9.297-4.03-17.003,3.273-25.302
				c16.957-19.25,9.713-31.661-12.698-38.164c-7.939-2.305-16.062-2.617-16.859-14.314c-0.894-13.07,5.67-18.794,16.633-22.512
				c23.02-7.822,22.902-21.181,8.055-37.153c-6.428-6.923-13.746-12.604-7.927-23.893c6.037-11.716,15.016-11.474,26.23-10.024
				c22.523,2.912,31.164-7.241,24.342-29.381c-2.894-9.409-4.598-18.246,6.417-24.093c9.668-5.141,17.1-2.746,25.228,4.167
				c20.121,17.098,31.779,7.808,37.669-13.994c2.273-8.426,3.764-15.691,15.001-16.094c11.215-0.402,17.382,4.39,20.793,14.523
				c9.058,26.893,23.456,25.42,40.731,7.375c6.244-6.527,12.736-9.841,21.905-4.731c8.493,4.72,11.873,11.28,10.117,20.475
				c-5.3,27.782,5.292,37.5,32.357,28.832c7.536-2.411,14.292-2.235,19.033,5.377c5.488,8.812,6.339,16.877-1.427,25.333
				C317.209,152.768,320.426,166.102,343.837,174.012z"/>
			<path class="st1" d="M300.076,198.691c0.49,55.42-44.98,101.05-100.37,100.74c-54.01-0.3-98.69-44.85-99.16-98.84
				c-0.48-55.59,44.71-100.95,100.3-100.67C254.876,100.181,299.596,144.711,300.076,198.691z"/>
			<path class="st2" d="M201.566,174.821c13.89,2.81,23.26,10.52,22.99,24.77c-0.29,15.63-10.01,25.07-25.68,24.3
				c-13.94-0.68-23.04-9.88-22.84-24.11C176.256,184.041,186.426,176.281,201.566,174.821z"/>
			<g>
				<g>
					<g>
						<path class="st3" d="M219.515,154.478c-3.03,10.753-6.037,21.41-9.032,32.067c-5.466,19.455-10.952,38.902-16.366,58.373
							c-1.279,4.603-3.106,9.073-8.823,7.536c-5.452-1.467-5.505-5.764-4.08-10.748c8.373-29.276,16.537-58.614,24.701-87.949
							c1.216-4.371,2.982-8.18,8.312-7.261C218.417,147.217,220.012,150.383,219.515,154.478z"/>
						<path class="st3" d="M173.4,229.604c0.101,2.816-1.326,4.808-3.665,6.039c-2.407,1.268-4.913,1.035-6.974-0.799
							c-11.387-10.113-22.793-20.207-34.033-30.481c-2.869-2.623-2.942-6.2-0.09-8.862c11.13-10.391,22.397-20.643,33.749-30.795
							c2.885-2.578,6.227-2.278,8.885,0.61c3.04,3.303,2.304,6.699-0.699,9.526c-7.461,7.025-14.922,14.058-22.661,20.768
							c-3.682,3.194-3.624,5.315,0.068,8.422c7.199,6.064,14.091,12.493,21.066,18.818
							C171.076,224.693,173.349,226.451,173.4,229.604z"/>
						<path class="st3" d="M233.091,236.017c-2.805-0.071-4.721-1.598-5.793-4.022c-1.448-3.274-0.052-5.873,2.395-8.11
							c6.948-6.358,13.598-13.084,20.909-18.988c5.505-4.447,4.639-7.304-0.309-11.334c-7.077-5.768-13.661-12.143-20.456-18.253
							c-3.243-2.918-4.975-6.314-1.692-10.079c3.57-4.09,7.229-2.703,10.785,0.501c9.885,8.892,19.777,17.776,29.821,26.487
							c5.327,4.62,5.887,8.863,0.369,13.758c-10.153,9.006-20.14,18.2-30.196,27.318
							C237.258,234.805,235.548,236.206,233.091,236.017z"/>
					</g>
				</g>
			</g>
		</g>
	</g>
</g>
<g>
</g>
<g>
</g>
<g>
</g>
<g>
</g>
<g>
</g>
<g>
</g>
<g>
</g>
<g>
</g>
<g>
</g>
<g>
</g>
<g>
</g>
<g>
</g>
<g>
</g>
<g>
</g>
<g>
</g>
</svg>
