<?xml version="1.0" encoding="utf-8"?>
<!-- Generator: Adobe Illustrator 26.0.1, SVG Export Plug-In . SVG Version: 6.00 Build 0)  -->
<svg version="1.1" id="Calque_1" xmlns="http://www.w3.org/2000/svg" xmlns:xlink="http://www.w3.org/1999/xlink" x="0px" y="0px"
	 viewBox="0 0 400 400" style="enable-background:new 0 0 400 400;" xml:space="preserve">
<style type="text/css">
	.st0{fill:#E07E64;}
	.st1{fill:#FDF8F7;}
	.st2{fill:#FCF6F4;}
	.st3{fill:#DF7A5F;}
</style>
<g>
	<g>
		<g>
			<path class="st0" d="M182.917,344.379c-4.41,8.267-8.091,16.57-20.841,13.016c-13.012-3.627-14.614-12.722-15.159-23.717
				c-1.128-22.47-13.758-26.089-31.76-17.77c-9.583,4.425-17.817,10.82-27.648,0.242c-9.19-9.889-4.223-18.314-0.119-28.265
				c7.809-18.941,1.659-30.163-20.087-30.519c-9.303-0.156-19.147,0.652-22.389-11.653c-3.203-12.144,2.415-18.854,12.238-25.327
				c20.311-13.374,15.47-26.946-2.303-38.34c-8.225-5.274-15.925-9.206-11.987-21.446c3.508-10.931,10.902-13.967,21.165-14.302
				c26.859-0.865,28.892-14.861,18.211-35.24c-3.951-7.541-7.441-14.651-0.005-22.581c7.581-8.096,15.513-9.125,25.068-4.235
				c23.342,11.948,35.754,5.529,35.423-21.538c-0.109-9.086,2.103-16.444,12.34-18.681c10.42-2.282,17.438,1.117,23.239,10.528
				c13.451,21.844,27.438,18.545,40.209-0.985c4.526-6.918,7.199-14.595,18.618-11.937c12.76,2.967,16.315,10.917,16.666,22.488
				c0.749,24.301,13.56,28.094,33.174,18.565c8.499-4.123,16.073-9.46,25.166-0.595c9.439,9.199,6.582,17.714,1.918,28.015
				c-9.37,20.687-2.187,31.919,20.981,31.869c9.844-0.016,18.793,0.938,21.164,13.181c2.09,10.749-2.374,17.156-11.361,22.907
				c-22.234,14.242-16.758,28.107,2.369,40.114c7.394,4.638,13.905,8.187,11.004,19.051c-2.894,10.843-9.28,15.339-19.967,15.639
				c-28.367,0.799-31.167,14.999-18.962,36.795c4.416,7.879,5.687,15.056-1.88,22.331c-6.997,6.742-14.258,8.057-22.538,3.689
				c-25.018-13.191-37.409-5.903-37.033,22.513c0.103,7.912-2.041,14.321-10.707,16.63c-10.031,2.672-17.993,1.127-23.809-8.771
				C211.018,325.126,197.326,324.304,182.917,344.379z"/>
			<path class="st1" d="M300.076,198.691c0.49,55.42-44.98,101.05-100.37,100.74c-54.01-0.3-98.69-44.85-99.16-98.84
				c-0.48-55.59,44.71-100.95,100.3-100.67C254.876,100.181,299.596,144.711,300.076,198.691z"/>
			<path class="st2" d="M201.566,174.821c13.89,2.81,23.26,10.52,22.99,24.77c-0.29,15.63-10.01,25.07-25.68,24.3
				c-13.94-0.68-23.04-9.88-22.84-24.11C176.256,184.041,186.426,176.281,201.566,174.821z"/>
			<g>
				<g>
					<g>
						<path class="st3" d="M219.515,154.478c-3.03,10.753-6.037,21.41-9.032,32.067c-5.466,19.455-10.952,38.902-16.366,58.373
							c-1.279,4.603-3.106,9.073-8.823,7.536c-5.452-1.467-5.505-5.764-4.08-10.748c8.373-29.276,16.537-58.614,24.701-87.949
							c1.216-4.371,2.982-8.18,8.312-7.261C218.417,147.217,220.012,150.383,219.515,154.478z"/>
						<path class="st3" d="M173.4,229.604c0.101,2.816-1.326,4.808-3.665,6.039c-2.407,1.268-4.913,1.035-6.974-0.799
							c-11.387-10.113-22.793-20.207-34.033-30.481c-2.869-2.623-2.942-6.2-0.09-8.862c11.13-10.391,22.397-20.643,33.749-30.795
							c2.885-2.578,6.227-2.278,8.885,0.61c3.04,3.303,2.304,6.699-0.699,9.526c-7.461,7.025-14.922,14.058-22.661,20.768
							c-3.682,3.194-3.624,5.315,0.068,8.422c7.199,6.064,14.091,12.493,21.066,18.818
							C171.076,224.693,173.349,226.451,173.4,229.604z"/>
						<path class="st3" d="M233.091,236.017c-2.805-0.071-4.721-1.598-5.793-4.022c-1.448-3.274-0.052-5.873,2.395-8.11
							c6.948-6.358,13.598-13.084,20.909-18.988c5.505-4.447,4.639-7.304-0.309-11.334c-7.077-5.768-13.661-12.143-20.456-18.253
							c-3.243-2.918-4.975-6.314-1.692-10.079c3.57-4.09,7.229-2.703,10.785,0.501c9.885,8.892,19.777,17.776,29.821,26.487
							c5.327,4.62,5.887,8.863,0.369,13.758c-10.153,9.006-20.14,18.2-30.196,27.318
							C237.258,234.805,235.548,236.206,233.091,236.017z"/>
					</g>
				</g>
			</g>
		</g>
	</g>
</g>
<g>
</g>
<g>
</g>
<g>
</g>
<g>
</g>
<g>
</g>
<g>
</g>
<g>
</g>
<g>
</g>
<g>
</g>
<g>
</g>
<g>
</g>
<g>
</g>
<g>
</g>
<g>
</g>
<g>
</g>
</svg>
