<?xml version="1.0" encoding="utf-8"?>
<!-- Generator: Adobe Illustrator 26.0.1, SVG Export Plug-In . SVG Version: 6.00 Build 0)  -->
<svg version="1.1" id="Calque_1" xmlns="http://www.w3.org/2000/svg" xmlns:xlink="http://www.w3.org/1999/xlink" x="0px" y="0px"
	 viewBox="0 0 400 400" style="enable-background:new 0 0 400 400;" xml:space="preserve">
<style type="text/css">
	.st0{fill:#E07E64;}
	.st1{fill:#FDF8F7;}
	.st2{fill:#FCF6F4;}
	.st3{fill:#DF7A5F;}
</style>
<g>
	<g>
		<g>
			<path class="st0" d="M55.617,182.228c-8.267-4.41-16.57-8.091-13.016-20.841c3.627-13.012,12.722-14.614,23.717-15.159
				c22.47-1.128,26.089-13.758,17.77-31.76c-4.425-9.583-10.82-17.817-0.242-27.648c9.889-9.19,18.314-4.223,28.265-0.119
				c18.941,7.809,30.163,1.659,30.519-20.087c0.156-9.303-0.652-19.147,11.653-22.389c12.144-3.203,18.854,2.415,25.327,12.238
				c13.374,20.311,26.946,15.47,38.34-2.303c5.274-8.225,9.206-15.925,21.446-11.987c10.931,3.508,13.967,10.902,14.302,21.165
				c0.865,26.859,14.861,28.892,35.24,18.211c7.541-3.951,14.651-7.441,22.581-0.005c8.096,7.581,9.125,15.513,4.235,25.068
				c-11.948,23.342-5.529,35.754,21.538,35.423c9.086-0.109,16.444,2.103,18.681,12.34c2.282,10.42-1.117,17.438-10.528,23.239
				c-21.844,13.451-18.545,27.438,0.985,40.209c6.918,4.526,14.595,7.199,11.937,18.618c-2.967,12.76-10.918,16.315-22.488,16.666
				c-24.301,0.749-28.094,13.56-18.565,33.174c4.123,8.499,9.46,16.073,0.595,25.166c-9.199,9.439-17.714,6.582-28.015,1.918
				c-20.687-9.37-31.919-2.187-31.869,20.981c0.016,9.844-0.938,18.793-13.181,21.164c-10.749,2.09-17.156-2.374-22.907-11.361
				c-14.242-22.234-28.107-16.758-40.114,2.369c-4.638,7.394-8.187,13.905-19.051,11.004c-10.843-2.894-15.339-9.28-15.639-19.967
				c-0.799-28.367-14.999-31.167-36.795-18.962c-7.879,4.416-15.056,5.687-22.331-1.88c-6.742-6.997-8.057-14.258-3.689-22.538
				c13.191-25.018,5.903-37.409-22.513-37.033c-7.912,0.103-14.321-2.041-16.63-10.707c-2.672-10.031-1.127-17.993,8.771-23.809
				C74.87,210.329,75.691,196.637,55.617,182.228z"/>
			<path class="st1" d="M300.076,198.691c0.49,55.42-44.98,101.05-100.37,100.74c-54.01-0.3-98.69-44.85-99.16-98.84
				c-0.48-55.59,44.71-100.95,100.3-100.67C254.876,100.181,299.596,144.711,300.076,198.691z"/>
			<path class="st2" d="M201.566,174.821c13.89,2.81,23.26,10.52,22.99,24.77c-0.29,15.63-10.01,25.07-25.68,24.3
				c-13.94-0.68-23.04-9.88-22.84-24.11C176.256,184.041,186.426,176.281,201.566,174.821z"/>
			<g>
				<g>
					<g>
						<path class="st3" d="M219.515,154.478c-3.03,10.753-6.037,21.41-9.032,32.067c-5.466,19.455-10.952,38.902-16.366,58.373
							c-1.279,4.603-3.106,9.073-8.823,7.536c-5.452-1.467-5.505-5.764-4.08-10.748c8.373-29.276,16.537-58.614,24.701-87.949
							c1.216-4.371,2.982-8.18,8.312-7.261C218.417,147.217,220.012,150.383,219.515,154.478z"/>
						<path class="st3" d="M173.4,229.604c0.101,2.816-1.326,4.808-3.665,6.039c-2.407,1.268-4.913,1.035-6.974-0.799
							c-11.387-10.113-22.793-20.207-34.033-30.481c-2.869-2.623-2.942-6.2-0.09-8.862c11.13-10.391,22.397-20.643,33.749-30.795
							c2.885-2.578,6.227-2.278,8.885,0.61c3.04,3.303,2.304,6.699-0.699,9.526c-7.461,7.025-14.922,14.058-22.661,20.768
							c-3.682,3.194-3.624,5.315,0.068,8.422c7.199,6.064,14.091,12.493,21.066,18.818
							C171.076,224.693,173.349,226.451,173.4,229.604z"/>
						<path class="st3" d="M233.091,236.017c-2.805-0.071-4.721-1.598-5.793-4.022c-1.448-3.274-0.052-5.873,2.395-8.11
							c6.948-6.358,13.598-13.084,20.909-18.988c5.505-4.447,4.639-7.304-0.309-11.334c-7.077-5.768-13.661-12.143-20.456-18.253
							c-3.243-2.918-4.975-6.314-1.692-10.079c3.57-4.09,7.229-2.703,10.785,0.501c9.885,8.892,19.777,17.776,29.821,26.487
							c5.327,4.62,5.887,8.863,0.369,13.758c-10.153,9.006-20.14,18.2-30.196,27.318
							C237.258,234.805,235.548,236.206,233.091,236.017z"/>
					</g>
				</g>
			</g>
		</g>
	</g>
</g>
<g>
</g>
<g>
</g>
<g>
</g>
<g>
</g>
<g>
</g>
<g>
</g>
<g>
</g>
<g>
</g>
<g>
</g>
<g>
</g>
<g>
</g>
<g>
</g>
<g>
</g>
<g>
</g>
<g>
</g>
</svg>
