<?xml version="1.0" encoding="utf-8"?>
<!-- Generator: Adobe Illustrator 26.0.1, SVG Export Plug-In . SVG Version: 6.00 Build 0)  -->
<svg version="1.1" id="Calque_1" xmlns="http://www.w3.org/2000/svg" xmlns:xlink="http://www.w3.org/1999/xlink" x="0px" y="0px"
	 viewBox="0 0 400 400" style="enable-background:new 0 0 400 400;" xml:space="preserve">
<style type="text/css">
	.st0{fill:#E07E64;}
	.st1{fill:#FDF8F7;}
	.st2{fill:#FCF6F4;}
	.st3{fill:#DF7A5F;}
</style>
<g>
	<g>
		<g>
			<path class="st0" d="M254.638,64.376c6.399-6.843,12.104-13.911,23.499-7.178c11.63,6.871,10.823,16.071,8.504,26.832
				c-4.726,21.996,6.537,28.761,26.079,25.384c10.402-1.794,20.01-5.84,26.768,6.922c6.317,11.931-0.66,18.783-7.201,27.333
				c-12.446,16.275-9.409,28.706,11.504,34.678c8.945,2.558,18.663,4.325,18.61,17.051c-0.049,12.559-7.212,17.587-18.376,21.296
				c-23.081,7.662-21.917,22.024-7.699,37.63c6.58,7.223,12.999,13.014,6.028,23.817c-6.218,9.651-14.145,10.669-24.145,8.336
				c-26.168-6.116-31.754,6.877-26.711,29.326c1.864,8.306,3.396,16.078-5.839,21.813c-9.418,5.858-17.346,4.799-25.31-2.397
				c-19.454-17.582-33.105-14.594-39.791,11.636c-2.246,8.804-6.288,15.339-16.755,14.85c-10.656-0.492-16.555-5.592-19.722-16.184
				c-7.339-24.581-21.704-25.015-39.094-9.456c-6.162,5.511-10.732,12.235-21.073,6.712c-11.558-6.168-12.933-14.768-10.277-26.036
				c5.566-23.667-5.826-30.647-27.239-26.519c-9.277,1.783-17.973,4.978-24.463-5.939c-6.737-11.328-1.773-18.814,5.398-27.556
				c14.405-17.557,10.374-30.266-12.018-36.213c-9.513-2.532-17.91-5.77-17.031-18.209c0.763-10.923,6.733-15.957,16.903-19.186
				c25.162-8.003,23.462-22.812,8.094-39.361c-5.941-6.393-11.312-11.507-5.699-21.25c5.602-9.724,12.933-12.414,23.335-9.938
				c27.607,6.57,33.987-6.422,27.839-30.634c-2.226-8.754-1.596-16.015,7.596-21.084c8.503-4.701,15.858-4.092,22.725,2.27
				c20.751,19.217,34.606,15.384,41.598-12.162c1.949-7.669,5.678-13.305,14.646-13.292c10.381,0.016,17.672,3.568,20.728,14.635
				C222.511,75.7,235.524,80.037,254.638,64.376z"/>
			<path class="st1" d="M300.076,198.691c0.49,55.42-44.98,101.05-100.37,100.74c-54.01-0.3-98.69-44.85-99.16-98.84
				c-0.48-55.59,44.71-100.95,100.3-100.67C254.876,100.181,299.596,144.711,300.076,198.691z"/>
			<path class="st2" d="M201.566,174.821c13.89,2.81,23.26,10.52,22.99,24.77c-0.29,15.63-10.01,25.07-25.68,24.3
				c-13.94-0.68-23.04-9.88-22.84-24.11C176.256,184.041,186.426,176.281,201.566,174.821z"/>
			<g>
				<g>
					<g>
						<path class="st3" d="M219.515,154.478c-3.03,10.753-6.037,21.41-9.032,32.067c-5.466,19.455-10.952,38.902-16.366,58.373
							c-1.279,4.603-3.106,9.073-8.823,7.536c-5.452-1.467-5.505-5.764-4.08-10.748c8.373-29.276,16.537-58.614,24.701-87.949
							c1.216-4.371,2.982-8.18,8.312-7.261C218.417,147.217,220.012,150.383,219.515,154.478z"/>
						<path class="st3" d="M173.4,229.604c0.101,2.816-1.326,4.808-3.665,6.039c-2.407,1.268-4.913,1.035-6.974-0.799
							c-11.387-10.113-22.793-20.207-34.033-30.481c-2.869-2.623-2.942-6.2-0.09-8.862c11.13-10.391,22.397-20.643,33.749-30.795
							c2.885-2.578,6.227-2.278,8.885,0.61c3.04,3.303,2.304,6.699-0.699,9.526c-7.461,7.025-14.922,14.058-22.661,20.768
							c-3.682,3.194-3.624,5.315,0.068,8.422c7.199,6.064,14.091,12.493,21.066,18.818
							C171.076,224.693,173.349,226.451,173.4,229.604z"/>
						<path class="st3" d="M233.091,236.017c-2.805-0.071-4.721-1.598-5.793-4.022c-1.448-3.274-0.052-5.873,2.395-8.11
							c6.948-6.358,13.598-13.084,20.909-18.988c5.505-4.447,4.639-7.304-0.309-11.334c-7.077-5.768-13.661-12.143-20.456-18.253
							c-3.243-2.918-4.975-6.314-1.692-10.079c3.57-4.09,7.229-2.703,10.785,0.501c9.885,8.892,19.777,17.776,29.821,26.487
							c5.327,4.62,5.887,8.863,0.369,13.758c-10.153,9.006-20.14,18.2-30.196,27.318
							C237.258,234.805,235.548,236.206,233.091,236.017z"/>
					</g>
				</g>
			</g>
		</g>
	</g>
</g>
<g>
</g>
<g>
</g>
<g>
</g>
<g>
</g>
<g>
</g>
<g>
</g>
<g>
</g>
<g>
</g>
<g>
</g>
<g>
</g>
<g>
</g>
<g>
</g>
<g>
</g>
<g>
</g>
<g>
</g>
</svg>
