<?xml version="1.0" encoding="utf-8"?>
<!-- Generator: Adobe Illustrator 26.0.1, SVG Export Plug-In . SVG Version: 6.00 Build 0)  -->
<svg version="1.1" id="Calque_1" xmlns="http://www.w3.org/2000/svg" xmlns:xlink="http://www.w3.org/1999/xlink" x="0px" y="0px"
	 viewBox="0 0 400 400" style="enable-background:new 0 0 400 400;" xml:space="preserve">
<style type="text/css">
	.st0{fill:#E07E64;}
	.st1{fill:#FDF8F7;}
	.st2{fill:#FCF6F4;}
	.st3{fill:#DF7A5F;}
</style>
<g>
	<g>
		<g>
			<path class="st0" d="M306.722,100.002c8.692-3.498,16.849-7.492,24.331,3.425c7.637,11.143,3.017,19.139-3.632,27.913
				c-13.579,17.938-6.231,28.829,12.908,34.027c10.185,2.771,20.604,3.164,21.335,17.586c0.683,13.482-8.537,16.744-18.078,21.729
				c-18.158,9.49-20.659,22.04-4.23,36.291c7.026,6.099,15.087,11.808,9.66,23.318c-5.352,11.362-13.969,12.891-25.655,11.535
				c-24.156-2.81-29.172,10.698-22.881,30.851c2.911,9.327,6.282,17.288-4.603,24.133c-9.714,6.119-17.329,3.692-25.406-2.649
				c-21.131-16.602-31.685-7.187-36.602,15.29c-1.821,8.316-3.717,16.006-14.511,17.302c-11.011,1.328-17.749-2.981-21.925-12.869
				c-10.201-24.156-23.836-27.218-40.98-6.271c-5.757,7.03-12.181,11.245-21.461,6.378c-9.449-4.949-12.64-12.065-11.035-23.003
				c3.738-25.38-9.098-31.843-31.435-25.092c-7.913,2.39-14.897,6.553-21.935-2.823c-7.868-10.475-5.48-18.85,1.689-27.94
				c15.046-19.097,7.671-30.238-13.479-35.546c-9.161-2.305-18.393-3.084-19.661-15.721c-1.318-13.114,6.344-17.801,16.539-22.693
				c20.475-9.824,22.193-23.046,4.413-37.899c-7.551-6.315-13.793-12.798-7.74-23.701c5.308-9.577,12.846-11.616,23.427-10.245
				c26.187,3.381,30.905-10.759,23.97-32.252c-2.683-8.305-5.389-15.21,3.816-21.668c9.187-6.446,16.968-5.785,25.348,0.855
				c22.244,17.621,33.517,8.543,38.177-15.998c1.682-8.874,5.321-15.189,15.795-15.898c9.693-0.667,16.101,2.993,19.637,11.661
				c10.686,26.186,24.862,28.568,42.84,6.558c5.007-6.127,10.769-9.659,18.891-5.857c9.402,4.401,14.508,10.702,12.601,22.023
				C272.82,96.688,282.78,106.118,306.722,100.002z"/>
			<path class="st1" d="M300.076,198.691c0.49,55.42-44.98,101.05-100.37,100.74c-54.01-0.3-98.69-44.85-99.16-98.84
				c-0.48-55.59,44.71-100.95,100.3-100.67C254.876,100.181,299.596,144.711,300.076,198.691z"/>
			<path class="st2" d="M201.566,174.821c13.89,2.81,23.26,10.52,22.99,24.77c-0.29,15.63-10.01,25.07-25.68,24.3
				c-13.94-0.68-23.04-9.88-22.84-24.11C176.256,184.041,186.426,176.281,201.566,174.821z"/>
			<g>
				<g>
					<g>
						<path class="st3" d="M219.515,154.478c-3.03,10.753-6.037,21.41-9.032,32.067c-5.466,19.455-10.952,38.902-16.366,58.373
							c-1.279,4.603-3.106,9.073-8.823,7.536c-5.452-1.467-5.505-5.764-4.08-10.748c8.373-29.276,16.537-58.614,24.701-87.949
							c1.216-4.371,2.982-8.18,8.312-7.261C218.417,147.217,220.012,150.383,219.515,154.478z"/>
						<path class="st3" d="M173.4,229.604c0.101,2.816-1.326,4.808-3.665,6.039c-2.407,1.268-4.913,1.035-6.974-0.799
							c-11.387-10.113-22.793-20.207-34.033-30.481c-2.869-2.623-2.942-6.2-0.09-8.862c11.13-10.391,22.397-20.643,33.749-30.795
							c2.885-2.578,6.227-2.278,8.885,0.61c3.04,3.303,2.304,6.699-0.699,9.526c-7.461,7.025-14.922,14.058-22.661,20.768
							c-3.682,3.194-3.624,5.315,0.068,8.422c7.199,6.064,14.091,12.493,21.066,18.818
							C171.076,224.693,173.349,226.451,173.4,229.604z"/>
						<path class="st3" d="M233.091,236.017c-2.805-0.071-4.721-1.598-5.793-4.022c-1.448-3.274-0.052-5.873,2.395-8.11
							c6.948-6.358,13.598-13.084,20.909-18.988c5.505-4.447,4.639-7.304-0.309-11.334c-7.077-5.768-13.661-12.143-20.456-18.253
							c-3.243-2.918-4.975-6.314-1.692-10.079c3.57-4.09,7.229-2.703,10.785,0.501c9.885,8.892,19.777,17.776,29.821,26.487
							c5.327,4.62,5.887,8.863,0.369,13.758c-10.153,9.006-20.14,18.2-30.196,27.318
							C237.258,234.805,235.548,236.206,233.091,236.017z"/>
					</g>
				</g>
			</g>
		</g>
	</g>
</g>
<g>
</g>
<g>
</g>
<g>
</g>
<g>
</g>
<g>
</g>
<g>
</g>
<g>
</g>
<g>
</g>
<g>
</g>
<g>
</g>
<g>
</g>
<g>
</g>
<g>
</g>
<g>
</g>
<g>
</g>
</svg>
