<?xml version="1.0" encoding="utf-8"?>
<!-- Generator: Adobe Illustrator 26.0.1, SVG Export Plug-In . SVG Version: 6.00 Build 0)  -->
<svg version="1.1" id="Calque_1" xmlns="http://www.w3.org/2000/svg" xmlns:xlink="http://www.w3.org/1999/xlink" x="0px" y="0px"
	 viewBox="0 0 400 400" style="enable-background:new 0 0 400 400;" xml:space="preserve">
<style type="text/css">
	.st0{fill:#E07E64;}
	.st1{fill:#FDF8F7;}
	.st2{fill:#FCF6F4;}
	.st3{fill:#DF7A5F;}
</style>
<g>
	<g>
		<g>
			<path class="st0" d="M316.554,111.668c9.01-2.57,17.54-5.69,23.84,5.95c6.43,11.88,1,19.35-6.53,27.38
				c-15.38,16.42-9.21,28.02,9.28,35.19c9.84,3.82,20.16,5.3,19.38,19.72c-0.73,13.48-10.24,15.76-20.25,19.72
				c-19.05,7.54-22.85,19.76-8,35.65c6.35,6.8,13.77,13.32,7.17,24.2c-6.51,10.74-15.24,11.36-26.72,8.79
				c-23.73-5.32-30.13,7.59-25.98,28.29c1.92,9.58,4.44,17.85-7.1,23.52c-10.3,5.07-17.62,1.86-24.99-5.29
				c-19.28-18.72-30.76-10.46-38,11.38c-2.68,8.08-5.37,15.53-16.24,15.69c-11.09,0.17-17.34-4.82-20.46-15.09
				c-7.62-25.09-20.86-29.56-40.1-10.52c-6.46,6.39-13.29,9.91-22.01,4.1c-8.88-5.91-11.31-13.32-8.57-24.03
				c6.37-24.85-5.72-32.62-28.64-28.24c-8.12,1.55-15.5,4.96-21.52-5.1c-6.73-11.24-3.48-19.32,4.6-27.61
				c16.96-17.42,10.79-29.27-9.69-36.76c-8.87-3.25-17.97-4.99-17.91-17.69c0.06-13.18,8.17-17.04,18.82-20.84
				c21.39-7.63,24.48-20.6,8.35-37.23c-6.85-7.07-12.38-14.17-5.22-24.38c6.28-8.97,13.99-10.21,24.37-7.74
				c25.69,6.1,31.86-7.47,27.21-29.57c-1.8-8.54-3.77-15.69,6.06-21.15c9.81-5.45,17.48-3.98,25.12,3.5
				c20.28,19.85,32.44,12,39.64-11.92c2.6-8.65,6.88-14.55,17.37-14.16c9.71,0.35,15.7,4.66,18.31,13.65
				c7.89,27.16,21.74,31.01,41.92,11c5.62-5.57,11.72-8.48,19.4-3.85c8.89,5.36,13.31,12.16,10.23,23.22
				C283.184,104.828,292.104,115.248,316.554,111.668z"/>
			<path class="st1" d="M300.076,198.691c0.49,55.42-44.98,101.05-100.37,100.74c-54.01-0.3-98.69-44.85-99.16-98.84
				c-0.48-55.59,44.71-100.95,100.3-100.67C254.876,100.181,299.596,144.711,300.076,198.691z"/>
			<path class="st2" d="M201.566,174.821c13.89,2.81,23.26,10.52,22.99,24.77c-0.29,15.63-10.01,25.07-25.68,24.3
				c-13.94-0.68-23.04-9.88-22.84-24.11C176.256,184.041,186.426,176.281,201.566,174.821z"/>
			<g>
				<g>
					<g>
						<path class="st3" d="M219.515,154.478c-3.03,10.753-6.037,21.41-9.032,32.067c-5.466,19.455-10.952,38.902-16.366,58.373
							c-1.279,4.603-3.106,9.073-8.823,7.536c-5.452-1.467-5.505-5.764-4.08-10.748c8.373-29.276,16.537-58.614,24.701-87.949
							c1.216-4.371,2.982-8.18,8.312-7.261C218.417,147.217,220.012,150.383,219.515,154.478z"/>
						<path class="st3" d="M173.4,229.604c0.101,2.816-1.326,4.808-3.665,6.039c-2.407,1.268-4.913,1.035-6.974-0.799
							c-11.387-10.113-22.793-20.207-34.033-30.481c-2.869-2.623-2.942-6.2-0.09-8.862c11.13-10.391,22.397-20.643,33.749-30.795
							c2.885-2.578,6.227-2.278,8.885,0.61c3.04,3.303,2.304,6.699-0.699,9.526c-7.461,7.025-14.922,14.058-22.661,20.768
							c-3.682,3.194-3.624,5.315,0.068,8.422c7.199,6.064,14.091,12.493,21.066,18.818
							C171.076,224.693,173.349,226.451,173.4,229.604z"/>
						<path class="st3" d="M233.091,236.017c-2.805-0.071-4.721-1.598-5.793-4.022c-1.448-3.274-0.052-5.873,2.395-8.11
							c6.948-6.358,13.598-13.084,20.909-18.988c5.505-4.447,4.639-7.304-0.309-11.334c-7.077-5.768-13.661-12.143-20.456-18.253
							c-3.243-2.918-4.975-6.314-1.692-10.079c3.57-4.09,7.229-2.703,10.785,0.501c9.885,8.892,19.777,17.776,29.821,26.487
							c5.327,4.62,5.887,8.863,0.369,13.758c-10.153,9.006-20.14,18.2-30.196,27.318
							C237.258,234.805,235.548,236.206,233.091,236.017z"/>
					</g>
				</g>
			</g>
		</g>
	</g>
</g>
<g>
</g>
<g>
</g>
<g>
</g>
<g>
</g>
<g>
</g>
<g>
</g>
<g>
</g>
<g>
</g>
<g>
</g>
<g>
</g>
<g>
</g>
<g>
</g>
<g>
</g>
<g>
</g>
<g>
</g>
</svg>
