<?xml version="1.0" encoding="utf-8"?>
<!-- Generator: Adobe Illustrator 26.0.1, SVG Export Plug-In . SVG Version: 6.00 Build 0)  -->
<svg version="1.1" id="Calque_1" xmlns="http://www.w3.org/2000/svg" xmlns:xlink="http://www.w3.org/1999/xlink" x="0px" y="0px"
	 viewBox="0 0 400 400" style="enable-background:new 0 0 400 400;" xml:space="preserve">
<style type="text/css">
	.st0{fill:#E07E64;}
	.st1{fill:#FDF8F7;}
	.st2{fill:#FCF6F4;}
	.st3{fill:#DF7A5F;}
</style>
<g>
	<g>
		<g>
			<path class="st0" d="M311.791,105.706c8.863-3.038,17.218-6.6,24.119,4.694c7.043,11.527,2.011,19.271-5.088,27.684
				c-14.5,17.202-7.731,28.464,11.109,34.656c10.026,3.3,20.41,4.238,20.385,18.679c-0.023,13.5-9.401,16.274-19.19,20.753
				c-18.629,8.527-21.785,20.929-6.123,36.02c6.697,6.458,14.448,12.581,8.427,23.792c-5.939,11.066-14.625,12.142-26.223,10.176
				c-23.976-4.071-29.691,9.156-24.464,29.611c2.419,9.466,5.368,17.593-5.859,23.859c-10.021,5.602-17.499,2.78-25.233-3.975
				c-20.233-17.685-31.265-8.836-37.352,13.353c-2.253,8.209-4.55,15.79-15.397,16.518c-11.066,0.75-17.568-3.906-21.222-13.999
				c-8.923-24.657-22.378-28.428-40.596-8.407c-6.117,6.719-12.753,10.592-21.765,5.246c-9.177-5.437-11.992-12.71-9.816-23.549
				c5.061-25.149-7.419-32.276-30.079-26.702c-8.028,1.973-15.219,5.764-21.757-3.967c-7.309-10.872-4.486-19.111,3.149-27.813
				c16.025-18.284,9.243-29.795-11.601-36.202c-9.028-2.781-18.207-4.043-18.811-16.728c-0.63-13.165,7.267-17.444,17.704-21.796
				c20.961-8.739,23.368-21.853,6.39-37.616c-7.211-6.702-13.105-13.503-6.489-24.073c5.802-9.286,13.436-10.928,23.932-9.005
				c25.974,4.747,31.425-9.127,25.625-30.954c-2.244-8.434-4.586-15.471,4.945-21.438c9.511-5.956,17.248-4.889,25.269,2.181
				c21.291,18.761,33.024,10.286,38.962-13.978c2.144-8.774,6.109-14.89,16.605-15.05c9.715-0.159,15.922,3.832,18.999,12.673
				c9.301,26.71,23.333,29.83,42.438,8.791c5.321-5.856,11.26-9.082,19.172-4.86c9.158,4.887,13.928,11.447,11.431,22.653
				C278.109,100.622,287.562,110.561,311.791,105.706z"/>
			<path class="st1" d="M300.076,198.691c0.49,55.42-44.98,101.05-100.37,100.74c-54.01-0.3-98.69-44.85-99.16-98.84
				c-0.48-55.59,44.71-100.95,100.3-100.67C254.876,100.181,299.596,144.711,300.076,198.691z"/>
			<path class="st2" d="M201.566,174.821c13.89,2.81,23.26,10.52,22.99,24.77c-0.29,15.63-10.01,25.07-25.68,24.3
				c-13.94-0.68-23.04-9.88-22.84-24.11C176.256,184.041,186.426,176.281,201.566,174.821z"/>
			<g>
				<g>
					<g>
						<path class="st3" d="M219.515,154.478c-3.03,10.753-6.037,21.41-9.032,32.067c-5.466,19.455-10.952,38.902-16.366,58.373
							c-1.279,4.603-3.106,9.073-8.823,7.536c-5.452-1.467-5.505-5.764-4.08-10.748c8.373-29.276,16.537-58.614,24.701-87.949
							c1.216-4.371,2.982-8.18,8.312-7.261C218.417,147.217,220.012,150.383,219.515,154.478z"/>
						<path class="st3" d="M173.4,229.604c0.101,2.816-1.326,4.808-3.665,6.039c-2.407,1.268-4.913,1.035-6.974-0.799
							c-11.387-10.113-22.793-20.207-34.033-30.481c-2.869-2.623-2.942-6.2-0.09-8.862c11.13-10.391,22.397-20.643,33.749-30.795
							c2.885-2.578,6.227-2.278,8.885,0.61c3.04,3.303,2.304,6.699-0.699,9.526c-7.461,7.025-14.922,14.058-22.661,20.768
							c-3.682,3.194-3.624,5.315,0.068,8.422c7.199,6.064,14.091,12.493,21.066,18.818
							C171.076,224.693,173.349,226.451,173.4,229.604z"/>
						<path class="st3" d="M233.091,236.017c-2.805-0.071-4.721-1.598-5.793-4.022c-1.448-3.274-0.052-5.873,2.395-8.11
							c6.948-6.358,13.598-13.084,20.909-18.988c5.505-4.447,4.639-7.304-0.309-11.334c-7.077-5.768-13.661-12.143-20.456-18.253
							c-3.243-2.918-4.975-6.314-1.692-10.079c3.57-4.09,7.229-2.703,10.785,0.501c9.885,8.892,19.777,17.776,29.821,26.487
							c5.327,4.62,5.887,8.863,0.369,13.758c-10.153,9.006-20.14,18.2-30.196,27.318
							C237.258,234.805,235.548,236.206,233.091,236.017z"/>
					</g>
				</g>
			</g>
		</g>
	</g>
</g>
<g>
</g>
<g>
</g>
<g>
</g>
<g>
</g>
<g>
</g>
<g>
</g>
<g>
</g>
<g>
</g>
<g>
</g>
<g>
</g>
<g>
</g>
<g>
</g>
<g>
</g>
<g>
</g>
<g>
</g>
</svg>
