<?xml version="1.0" encoding="utf-8"?>
<!-- Generator: Adobe Illustrator 26.0.1, SVG Export Plug-In . SVG Version: 6.00 Build 0)  -->
<svg version="1.1" id="Calque_1" xmlns="http://www.w3.org/2000/svg" xmlns:xlink="http://www.w3.org/1999/xlink" x="0px" y="0px"
	 viewBox="0 0 400 400" style="enable-background:new 0 0 400 400;" xml:space="preserve">
<style type="text/css">
	.st0{fill:#E07E64;}
	.st1{fill:#FDF8F7;}
	.st2{fill:#FCF6F4;}
	.st3{fill:#DF7A5F;}
</style>
<g>
	<g>
		<g>
			<path class="st0" d="M61.815,245.01c-9.356-0.503-18.437-0.33-20.604-13.387c-2.212-13.326,5.354-18.621,15.088-23.762
				c19.888-10.518,17.831-23.495,2.682-36.294c-8.06-6.815-17.336-11.575-11.904-24.955c5.079-12.508,14.813-11.568,25.567-12.053
				c20.467-0.927,28.038-11.244,19.171-31.103c-3.79-8.497-8.683-17.077,1.099-25.216c9.652-8.035,18.108-5.779,28.126,0.388
				c20.705,12.756,30.96,2.633,33.775-18.29c1.304-9.683,1.613-18.323,14.371-19.927c11.389-1.44,17.266,3.978,21.906,13.138
				c12.135,23.977,25.679,19.905,39.635,1.612c5.165-6.767,10.133-12.936,20.463-9.548c10.541,3.45,14.826,10.203,14.432,20.929
				c-0.964,26.204,10.1,34.741,34.49,23.002c8.188-3.939,15.792-5.043,22.146,3.289c6.472,8.479,6.357,16.276,0.28,25.511
				c-14.113,21.422-5.212,32.705,17.886,36.026c8.182,1.178,16.27,0.357,18.687,11.828c2.704,12.819-3,19.4-13.338,24.608
				c-21.707,10.949-19.732,24.162-2.806,37.912c7.329,5.961,15.366,10.569,11.175,22.557c-4.348,12.442-13.273,13.452-24.579,13.577
				c-22.709,0.25-29.853,11.508-20.016,32.483c4.175,8.915,7.092,17.429-3.002,24.751c-8.858,6.437-16.552,5.099-25.562-0.616
				c-22.304-14.132-32.556-3.31-35.355,19.1c-1.078,8.661-1.544,16.063-12.616,18.025c-11.05,1.959-17.823-1.928-22.612-11.488
				c-12.713-25.371-26.766-21.908-41.361-1.635c-5.275,7.332-11.242,11.517-21.034,7.733c-9.067-3.492-13.327-9.518-12.868-18.867
				c1.382-28.249-10.46-36.398-36.055-24.049c-7.127,3.437-13.842,4.202-19.597-2.676c-6.661-7.962-8.626-15.831-2.113-25.285
				C91.14,262.341,86.099,249.585,61.815,245.01z"/>
			<path class="st1" d="M300.076,198.691c0.49,55.42-44.98,101.05-100.37,100.74c-54.01-0.3-98.69-44.85-99.16-98.84
				c-0.48-55.59,44.71-100.95,100.3-100.67C254.876,100.181,299.596,144.711,300.076,198.691z"/>
			<path class="st2" d="M201.566,174.821c13.89,2.81,23.26,10.52,22.99,24.77c-0.29,15.63-10.01,25.07-25.68,24.3
				c-13.94-0.68-23.04-9.88-22.84-24.11C176.256,184.041,186.426,176.281,201.566,174.821z"/>
			<g>
				<g>
					<g>
						<path class="st3" d="M219.515,154.478c-3.03,10.753-6.037,21.41-9.032,32.067c-5.466,19.455-10.952,38.902-16.366,58.373
							c-1.279,4.603-3.106,9.073-8.823,7.536c-5.452-1.467-5.505-5.764-4.08-10.748c8.373-29.276,16.537-58.614,24.701-87.949
							c1.216-4.371,2.982-8.18,8.312-7.261C218.417,147.217,220.012,150.383,219.515,154.478z"/>
						<path class="st3" d="M173.4,229.604c0.101,2.816-1.326,4.808-3.665,6.039c-2.407,1.268-4.913,1.035-6.974-0.799
							c-11.387-10.113-22.793-20.207-34.033-30.481c-2.869-2.623-2.942-6.2-0.09-8.862c11.13-10.391,22.397-20.643,33.749-30.795
							c2.885-2.578,6.227-2.278,8.885,0.61c3.04,3.303,2.304,6.699-0.699,9.526c-7.461,7.025-14.922,14.058-22.661,20.768
							c-3.682,3.194-3.624,5.315,0.068,8.422c7.199,6.064,14.091,12.493,21.066,18.818
							C171.076,224.693,173.349,226.451,173.4,229.604z"/>
						<path class="st3" d="M233.091,236.017c-2.805-0.071-4.721-1.598-5.793-4.022c-1.448-3.274-0.052-5.873,2.395-8.11
							c6.948-6.358,13.598-13.084,20.909-18.988c5.505-4.447,4.639-7.304-0.309-11.334c-7.077-5.768-13.661-12.143-20.456-18.253
							c-3.243-2.918-4.975-6.314-1.692-10.079c3.57-4.09,7.229-2.703,10.785,0.501c9.885,8.892,19.777,17.776,29.821,26.487
							c5.327,4.62,5.887,8.863,0.369,13.758c-10.153,9.006-20.14,18.2-30.196,27.318
							C237.258,234.805,235.548,236.206,233.091,236.017z"/>
					</g>
				</g>
			</g>
		</g>
	</g>
</g>
<g>
</g>
<g>
</g>
<g>
</g>
<g>
</g>
<g>
</g>
<g>
</g>
<g>
</g>
<g>
</g>
<g>
</g>
<g>
</g>
<g>
</g>
<g>
</g>
<g>
</g>
<g>
</g>
<g>
</g>
</svg>
