<?xml version="1.0" encoding="utf-8"?>
<!-- Generator: Adobe Illustrator 26.0.1, SVG Export Plug-In . SVG Version: 6.00 Build 0)  -->
<svg version="1.1" id="Calque_1" xmlns="http://www.w3.org/2000/svg" xmlns:xlink="http://www.w3.org/1999/xlink" x="0px" y="0px"
	 viewBox="0 0 400 400" style="enable-background:new 0 0 400 400;" xml:space="preserve">
<style type="text/css">
	.st0{fill:#E07E64;}
	.st1{fill:#FDF8F7;}
	.st2{fill:#FCF6F4;}
	.st3{fill:#DF7A5F;}
</style>
<g>
	<g>
		<g>
			<path class="st0" d="M73.017,270.608c-9.28,1.291-18.161,3.194-22.78-9.21c-4.714-12.659,1.703-19.301,10.277-26.205
				c17.516-14.12,13.02-26.466-4.292-36.139c-9.213-5.152-19.226-8.054-16.447-22.225c2.599-13.247,12.334-14.181,22.797-16.71
				c19.914-4.815,25.378-16.388,12.884-34.19c-5.342-7.618-11.782-15.107-3.732-24.962c7.941-9.729,16.673-9.128,27.683-4.986
				c22.759,8.571,30.893-3.323,29.664-24.399c-0.568-9.754-1.913-18.294,10.304-22.303c10.905-3.587,17.707,0.61,24.011,8.716
				c16.487,21.221,29.005,14.639,39.214-5.981c3.778-7.628,7.479-14.632,18.266-13.277c11.006,1.375,16.5,7.186,18.161,17.791
				c4.054,25.906,16.543,32.175,38.246,15.998c7.286-5.429,14.54-7.964,22.366-0.997c7.971,7.088,9.346,14.764,5.142,24.989
				c-9.766,23.722,1.125,33.099,24.431,31.951c8.257-0.405,16.039-2.755,20.601,8.045c5.1,12.067,0.757,19.616-8.398,26.701
				c-19.219,14.89-14.759,27.483,4.48,37.751c8.331,4.453,17.101,7.442,15.274,20.01c-1.894,13.043-10.462,15.737-21.537,18.018
				c-22.244,4.579-27.109,16.993-13.45,35.706c5.799,7.955,10.287,15.755,1.776,24.869c-7.467,8.009-15.275,8.164-25.21,4.273
				c-24.591-9.616-32.59,2.963-31.061,25.495c0.594,8.707,1.55,16.062-8.945,20.101c-10.473,4.032-17.864,1.509-24.388-6.962
				c-17.32-22.479-30.454-16.398-40.913,6.287c-3.779,8.204-8.838,13.451-19.172,11.605c-9.567-1.698-14.899-6.8-16.232-16.065
				c-4.033-27.994-17.213-33.734-39.981-16.727c-6.34,4.734-12.786,6.766-19.747,1.113c-8.058-6.545-11.488-13.894-6.899-24.418
				C105.11,282.026,97.727,270.466,73.017,270.608z"/>
			<path class="st1" d="M300.076,198.691c0.49,55.42-44.98,101.05-100.37,100.74c-54.01-0.3-98.69-44.85-99.16-98.84
				c-0.48-55.59,44.71-100.95,100.3-100.67C254.876,100.181,299.596,144.711,300.076,198.691z"/>
			<path class="st2" d="M201.566,174.821c13.89,2.81,23.26,10.52,22.99,24.77c-0.29,15.63-10.01,25.07-25.68,24.3
				c-13.94-0.68-23.04-9.88-22.84-24.11C176.256,184.041,186.426,176.281,201.566,174.821z"/>
			<g>
				<g>
					<g>
						<path class="st3" d="M219.515,154.478c-3.03,10.753-6.037,21.41-9.032,32.067c-5.466,19.455-10.952,38.902-16.366,58.373
							c-1.279,4.603-3.106,9.073-8.823,7.536c-5.452-1.467-5.505-5.764-4.08-10.748c8.373-29.276,16.537-58.614,24.701-87.949
							c1.216-4.371,2.982-8.18,8.312-7.261C218.417,147.217,220.012,150.383,219.515,154.478z"/>
						<path class="st3" d="M173.4,229.604c0.101,2.816-1.326,4.808-3.665,6.039c-2.407,1.268-4.913,1.035-6.974-0.799
							c-11.387-10.113-22.793-20.207-34.033-30.481c-2.869-2.623-2.942-6.2-0.09-8.862c11.13-10.391,22.397-20.643,33.749-30.795
							c2.885-2.578,6.227-2.278,8.885,0.61c3.04,3.303,2.304,6.699-0.699,9.526c-7.461,7.025-14.922,14.058-22.661,20.768
							c-3.682,3.194-3.624,5.315,0.068,8.422c7.199,6.064,14.091,12.493,21.066,18.818
							C171.076,224.693,173.349,226.451,173.4,229.604z"/>
						<path class="st3" d="M233.091,236.017c-2.805-0.071-4.721-1.598-5.793-4.022c-1.448-3.274-0.052-5.873,2.395-8.11
							c6.948-6.358,13.598-13.084,20.909-18.988c5.505-4.447,4.639-7.304-0.309-11.334c-7.077-5.768-13.661-12.143-20.456-18.253
							c-3.243-2.918-4.975-6.314-1.692-10.079c3.57-4.09,7.229-2.703,10.785,0.501c9.885,8.892,19.777,17.776,29.821,26.487
							c5.327,4.62,5.887,8.863,0.369,13.758c-10.153,9.006-20.14,18.2-30.196,27.318
							C237.258,234.805,235.548,236.206,233.091,236.017z"/>
					</g>
				</g>
			</g>
		</g>
	</g>
</g>
<g>
</g>
<g>
</g>
<g>
</g>
<g>
</g>
<g>
</g>
<g>
</g>
<g>
</g>
<g>
</g>
<g>
</g>
<g>
</g>
<g>
</g>
<g>
</g>
<g>
</g>
<g>
</g>
<g>
</g>
</svg>
