<?xml version="1.0" encoding="utf-8"?>
<!-- Generator: Adobe Illustrator 26.0.1, SVG Export Plug-In . SVG Version: 6.00 Build 0)  -->
<svg version="1.1" id="Calque_1" xmlns="http://www.w3.org/2000/svg" xmlns:xlink="http://www.w3.org/1999/xlink" x="0px" y="0px"
	 viewBox="0 0 400 400" style="enable-background:new 0 0 400 400;" xml:space="preserve">
<style type="text/css">
	.st0{fill:#E07E64;}
	.st1{fill:#FDF8F7;}
	.st2{fill:#FCF6F4;}
	.st3{fill:#DF7A5F;}
</style>
<g>
	<g>
		<g>
			<path class="st0" d="M124.986,74.882c-1.614-9.229-3.825-18.039,8.409-23.087c12.487-5.153,19.349,1.028,26.547,9.356
				c14.722,17.012,26.904,12.088,35.967-5.551c4.828-9.387,7.378-19.496,21.638-17.213c13.33,2.135,14.603,11.831,17.495,22.2
				c5.507,19.734,17.263,24.79,34.618,11.683c7.426-5.604,14.686-12.302,24.817-4.601c10.001,7.597,9.705,16.344,5.949,27.492
				c-7.771,23.044,4.399,30.758,25.419,28.795c9.728-0.908,18.216-2.55,22.649,9.52c3.966,10.774,0.008,17.718-7.873,24.3
				c-20.633,17.218-13.618,29.498,7.346,38.981c7.756,3.51,14.884,6.964,13.906,17.791c-0.99,11.047-6.606,16.741-17.146,18.771
				c-25.749,4.956-31.579,17.656-14.654,38.781c5.68,7.093,8.467,14.253,1.777,22.318c-6.806,8.214-14.429,9.856-24.794,6.011
				c-24.048-8.933-33.039,2.279-31.079,25.531c0.693,8.238,3.313,15.934-7.322,20.869c-11.882,5.518-19.578,1.441-26.978-7.461
				c-15.552-18.688-27.982-13.79-37.572,5.794c-4.159,8.482-6.841,17.35-19.465,15.963c-13.102-1.437-16.093-9.906-18.759-20.895
				c-5.352-22.07-17.928-26.499-36.153-12.196c-7.747,6.073-15.386,10.831-24.792,2.643c-8.264-7.183-8.692-14.981-5.15-25.046
				c8.752-24.912-4.099-32.466-26.564-30.152c-8.681,0.897-15.998,2.109-20.401-8.238c-4.395-10.326-2.131-17.8,6.107-24.617
				c21.861-18.094,15.325-31.008-7.711-40.669c-8.331-3.49-13.751-8.363-12.267-18.755c1.363-9.62,6.276-15.127,15.489-16.783
				c27.836-5.008,33.113-18.38,15.322-40.541c-4.952-6.171-7.208-12.542-1.801-19.696c6.26-8.281,13.485-11.966,24.162-7.747
				C114.696,107.354,125.991,99.572,124.986,74.882z"/>
			<path class="st1" d="M300.076,198.691c0.49,55.42-44.98,101.05-100.37,100.74c-54.01-0.3-98.69-44.85-99.16-98.84
				c-0.48-55.59,44.71-100.95,100.3-100.67C254.876,100.181,299.596,144.711,300.076,198.691z"/>
			<path class="st2" d="M201.566,174.821c13.89,2.81,23.26,10.52,22.99,24.77c-0.29,15.63-10.01,25.07-25.68,24.3
				c-13.94-0.68-23.04-9.88-22.84-24.11C176.256,184.041,186.426,176.281,201.566,174.821z"/>
			<g>
				<g>
					<g>
						<path class="st3" d="M219.515,154.478c-3.03,10.753-6.037,21.41-9.032,32.067c-5.466,19.455-10.952,38.902-16.366,58.373
							c-1.279,4.603-3.106,9.073-8.823,7.536c-5.452-1.467-5.505-5.764-4.08-10.748c8.373-29.276,16.537-58.614,24.701-87.949
							c1.216-4.371,2.982-8.18,8.312-7.261C218.417,147.217,220.012,150.383,219.515,154.478z"/>
						<path class="st3" d="M173.4,229.604c0.101,2.816-1.326,4.808-3.665,6.039c-2.407,1.268-4.913,1.035-6.974-0.799
							c-11.387-10.113-22.793-20.207-34.033-30.481c-2.869-2.623-2.942-6.2-0.09-8.862c11.13-10.391,22.397-20.643,33.749-30.795
							c2.885-2.578,6.227-2.278,8.885,0.61c3.04,3.303,2.304,6.699-0.699,9.526c-7.461,7.025-14.922,14.058-22.661,20.768
							c-3.682,3.194-3.624,5.315,0.068,8.422c7.199,6.064,14.091,12.493,21.066,18.818
							C171.076,224.693,173.349,226.451,173.4,229.604z"/>
						<path class="st3" d="M233.091,236.017c-2.805-0.071-4.721-1.598-5.793-4.022c-1.448-3.274-0.052-5.873,2.395-8.11
							c6.948-6.358,13.598-13.084,20.909-18.988c5.505-4.447,4.639-7.304-0.309-11.334c-7.077-5.768-13.661-12.143-20.456-18.253
							c-3.243-2.918-4.975-6.314-1.692-10.079c3.57-4.09,7.229-2.703,10.785,0.501c9.885,8.892,19.777,17.776,29.821,26.487
							c5.327,4.62,5.887,8.863,0.369,13.758c-10.153,9.006-20.14,18.2-30.196,27.318
							C237.258,234.805,235.548,236.206,233.091,236.017z"/>
					</g>
				</g>
			</g>
		</g>
	</g>
</g>
<g>
</g>
<g>
</g>
<g>
</g>
<g>
</g>
<g>
</g>
<g>
</g>
<g>
</g>
<g>
</g>
<g>
</g>
<g>
</g>
<g>
</g>
<g>
</g>
<g>
</g>
<g>
</g>
<g>
</g>
</svg>
