<?xml version="1.0" encoding="utf-8"?>
<!-- Generator: Adobe Illustrator 26.0.1, SVG Export Plug-In . SVG Version: 6.00 Build 0)  -->
<svg version="1.1" id="Calque_1" xmlns="http://www.w3.org/2000/svg" xmlns:xlink="http://www.w3.org/1999/xlink" x="0px" y="0px"
	 viewBox="0 0 400 400" style="enable-background:new 0 0 400 400;" xml:space="preserve">
<style type="text/css">
	.st0{fill:#E07E64;}
	.st1{fill:#FDF8F7;}
	.st2{fill:#FCF6F4;}
	.st3{fill:#DF7A5F;}
</style>
<g>
	<g>
		<g>
			<path class="st0" d="M287.805,83.044c7.953-4.954,15.292-10.304,24.557-0.852c9.456,9.647,6.295,18.325,1.27,28.119
				c-10.258,20.023-1.13,29.473,18.62,31.269c10.512,0.96,20.84-0.462,24.065,13.614c3.014,13.159-5.499,17.972-14.03,24.538
				c-16.234,12.499-16.518,25.293,2.136,36.474c7.978,4.786,16.908,9.008,13.563,21.286c-3.297,12.118-11.518,15.121-23.262,15.815
				c-24.277,1.427-26.871,15.601-17.176,34.355c4.486,8.68,9.188,15.935-0.342,24.566c-8.504,7.713-16.425,6.645-25.48,1.803
				c-23.693-12.681-32.452-1.576-33.391,21.413c-0.349,8.506-0.881,16.409-11.286,19.559c-10.614,3.22-17.997,0.146-23.827-8.866
				c-14.241-22.018-28.2-22.665-41.446,0.941c-4.448,7.923-10.044,13.189-20.027,10.008c-10.165-3.233-14.543-9.687-14.862-20.737
				c-0.726-25.643-14.49-29.78-35.315-19.252c-7.378,3.728-13.532,9.04-22.092,1.029c-9.567-8.95-8.671-17.612-3.189-27.808
				c11.501-21.42,2.304-31.11-19.447-32.665c-9.422-0.679-18.649,0.157-22.092-12.068c-3.575-12.686,3.157-18.632,12.347-25.22
				c18.458-13.23,17.854-26.55-2.235-38.089c-8.533-4.908-15.806-10.209-11.738-21.997c3.564-10.354,10.634-13.671,21.293-14.157
				c26.376-1.217,28.567-15.962,18.005-35.925c-4.084-7.713-7.949-14.043-0.004-22.001c7.928-7.943,15.706-8.644,25.112-3.56
				c24.966,13.491,34.491,2.593,34.819-22.385c0.115-9.032,2.603-15.883,12.794-18.399c9.43-2.34,16.376,0.152,21.363,8.074
				c15.071,23.933,29.445,23.816,43.328-0.981c3.867-6.903,8.929-11.382,17.587-9.048c10.023,2.702,16.146,8.02,16.234,19.501
				C253.842,85.667,265.289,93.225,287.805,83.044z"/>
			<path class="st1" d="M300.076,198.691c0.49,55.42-44.98,101.05-100.37,100.74c-54.01-0.3-98.69-44.85-99.16-98.84
				c-0.48-55.59,44.71-100.95,100.3-100.67C254.876,100.181,299.596,144.711,300.076,198.691z"/>
			<path class="st2" d="M201.566,174.821c13.89,2.81,23.26,10.52,22.99,24.77c-0.29,15.63-10.01,25.07-25.68,24.3
				c-13.94-0.68-23.04-9.88-22.84-24.11C176.256,184.041,186.426,176.281,201.566,174.821z"/>
			<g>
				<g>
					<g>
						<path class="st3" d="M219.515,154.478c-3.03,10.753-6.037,21.41-9.032,32.067c-5.466,19.455-10.952,38.902-16.366,58.373
							c-1.279,4.603-3.106,9.073-8.823,7.536c-5.452-1.467-5.505-5.764-4.08-10.748c8.373-29.276,16.537-58.614,24.701-87.949
							c1.216-4.371,2.982-8.18,8.312-7.261C218.417,147.217,220.012,150.383,219.515,154.478z"/>
						<path class="st3" d="M173.4,229.604c0.101,2.816-1.326,4.808-3.665,6.039c-2.407,1.268-4.913,1.035-6.974-0.799
							c-11.387-10.113-22.793-20.207-34.033-30.481c-2.869-2.623-2.942-6.2-0.09-8.862c11.13-10.391,22.397-20.643,33.749-30.795
							c2.885-2.578,6.227-2.278,8.885,0.61c3.04,3.303,2.304,6.699-0.699,9.526c-7.461,7.025-14.922,14.058-22.661,20.768
							c-3.682,3.194-3.624,5.315,0.068,8.422c7.199,6.064,14.091,12.493,21.066,18.818
							C171.076,224.693,173.349,226.451,173.4,229.604z"/>
						<path class="st3" d="M233.091,236.017c-2.805-0.071-4.721-1.598-5.793-4.022c-1.448-3.274-0.052-5.873,2.395-8.11
							c6.948-6.358,13.598-13.084,20.909-18.988c5.505-4.447,4.639-7.304-0.309-11.334c-7.077-5.768-13.661-12.143-20.456-18.253
							c-3.243-2.918-4.975-6.314-1.692-10.079c3.57-4.09,7.229-2.703,10.785,0.501c9.885,8.892,19.777,17.776,29.821,26.487
							c5.327,4.62,5.887,8.863,0.369,13.758c-10.153,9.006-20.14,18.2-30.196,27.318
							C237.258,234.805,235.548,236.206,233.091,236.017z"/>
					</g>
				</g>
			</g>
		</g>
	</g>
</g>
<g>
</g>
<g>
</g>
<g>
</g>
<g>
</g>
<g>
</g>
<g>
</g>
<g>
</g>
<g>
</g>
<g>
</g>
<g>
</g>
<g>
</g>
<g>
</g>
<g>
</g>
<g>
</g>
<g>
</g>
</svg>
