<?xml version="1.0" encoding="utf-8"?>
<!-- Generator: Adobe Illustrator 26.0.1, SVG Export Plug-In . SVG Version: 6.00 Build 0)  -->
<svg version="1.1" id="Calque_1" xmlns="http://www.w3.org/2000/svg" xmlns:xlink="http://www.w3.org/1999/xlink" x="0px" y="0px"
	 viewBox="0 0 400 400" style="enable-background:new 0 0 400 400;" xml:space="preserve">
<style type="text/css">
	.st0{fill:#E07E64;}
	.st1{fill:#FDF8F7;}
	.st2{fill:#FCF6F4;}
	.st3{fill:#DF7A5F;}
</style>
<g>
	<g>
		<g>
			<path class="st0" d="M292.33,312.725c2.883,8.915,6.299,17.331-5.114,24.033c-11.648,6.841-19.303,1.675-27.591-5.57
				c-16.947-14.798-28.324-8.227-34.845,10.502c-3.474,9.967-4.593,20.333-19.032,20.056c-13.497-0.259-16.108-9.684-20.415-19.549
				c-8.2-18.775-20.545-22.146-35.907-6.751c-6.574,6.583-12.831,14.227-23.935,8.01c-10.961-6.131-11.885-14.834-9.717-26.397
				c4.489-23.901-8.637-29.847-29.179-24.977c-9.507,2.253-17.684,5.06-23.753-6.275c-5.426-10.117-2.474-17.544,4.415-25.159
				c18.036-19.922,9.38-31.106-12.699-37.58c-8.169-2.396-15.708-4.825-16.247-15.683c-0.557-11.077,4.212-17.498,14.367-20.974
				c24.809-8.491,28.814-21.879,9.114-40.443c-6.612-6.233-10.368-12.936-4.866-21.854c5.596-9.081,12.917-11.768,23.716-9.403
				c25.057,5.499,32.4-6.855,27.223-29.608c-1.832-8.061-5.498-15.317,4.346-21.685c10.998-7.118,19.187-4.152,27.754,3.634
				c18.001,16.342,29.629,9.762,36.399-10.967c2.938-8.978,4.36-18.133,17.054-18.516c13.174-0.4,17.315,7.57,21.484,18.081
				c8.372,21.111,21.442,23.746,37.499,7.046c6.827-7.093,13.729-12.867,24.183-6.068c9.184,5.963,10.692,13.625,8.586,24.085
				c-5.2,25.887,8.577,31.58,30.502,26.161c8.472-2.097,15.549-4.315,21.349,5.318c5.789,9.614,4.588,17.33-2.621,25.227
				c-19.13,20.96-10.861,32.839,13.296,39.2c8.735,2.297,14.781,6.368,14.758,16.865c-0.011,9.716-4.109,15.853-13.003,18.775
				c-26.868,8.833-30.232,22.809-9.53,42.278c5.763,5.422,8.884,11.417,4.525,19.254c-5.046,9.072-11.688,13.726-22.849,11.034
				C298.001,279.137,287.899,288.415,292.33,312.725z"/>
			<path class="st1" d="M300.076,198.691c0.49,55.42-44.98,101.05-100.37,100.74c-54.01-0.3-98.69-44.85-99.16-98.84
				c-0.48-55.59,44.71-100.95,100.3-100.67C254.876,100.181,299.596,144.711,300.076,198.691z"/>
			<path class="st2" d="M201.566,174.821c13.89,2.81,23.26,10.52,22.99,24.77c-0.29,15.63-10.01,25.07-25.68,24.3
				c-13.94-0.68-23.04-9.88-22.84-24.11C176.256,184.041,186.426,176.281,201.566,174.821z"/>
			<g>
				<g>
					<g>
						<path class="st3" d="M219.515,154.478c-3.03,10.753-6.037,21.41-9.032,32.067c-5.466,19.455-10.952,38.902-16.366,58.373
							c-1.279,4.603-3.106,9.073-8.823,7.536c-5.452-1.467-5.505-5.764-4.08-10.748c8.373-29.276,16.537-58.614,24.701-87.949
							c1.216-4.371,2.982-8.18,8.312-7.261C218.417,147.217,220.012,150.383,219.515,154.478z"/>
						<path class="st3" d="M173.4,229.604c0.101,2.816-1.326,4.808-3.665,6.039c-2.407,1.268-4.913,1.035-6.974-0.799
							c-11.387-10.113-22.793-20.207-34.033-30.481c-2.869-2.623-2.942-6.2-0.09-8.862c11.13-10.391,22.397-20.643,33.749-30.795
							c2.885-2.578,6.227-2.278,8.885,0.61c3.04,3.303,2.304,6.699-0.699,9.526c-7.461,7.025-14.922,14.058-22.661,20.768
							c-3.682,3.194-3.624,5.315,0.068,8.422c7.199,6.064,14.091,12.493,21.066,18.818
							C171.076,224.693,173.349,226.451,173.4,229.604z"/>
						<path class="st3" d="M233.091,236.017c-2.805-0.071-4.721-1.598-5.793-4.022c-1.448-3.274-0.052-5.873,2.395-8.11
							c6.948-6.358,13.598-13.084,20.909-18.988c5.505-4.447,4.639-7.304-0.309-11.334c-7.077-5.768-13.661-12.143-20.456-18.253
							c-3.243-2.918-4.975-6.314-1.692-10.079c3.57-4.09,7.229-2.703,10.785,0.501c9.885,8.892,19.777,17.776,29.821,26.487
							c5.327,4.62,5.887,8.863,0.369,13.758c-10.153,9.006-20.14,18.2-30.196,27.318
							C237.258,234.805,235.548,236.206,233.091,236.017z"/>
					</g>
				</g>
			</g>
		</g>
	</g>
</g>
<g>
</g>
<g>
</g>
<g>
</g>
<g>
</g>
<g>
</g>
<g>
</g>
<g>
</g>
<g>
</g>
<g>
</g>
<g>
</g>
<g>
</g>
<g>
</g>
<g>
</g>
<g>
</g>
<g>
</g>
</svg>
