<?xml version="1.0" encoding="utf-8"?>
<!-- Generator: Adobe Illustrator 26.0.1, SVG Export Plug-In . SVG Version: 6.00 Build 0)  -->
<svg version="1.1" id="Calque_1" xmlns="http://www.w3.org/2000/svg" xmlns:xlink="http://www.w3.org/1999/xlink" x="0px" y="0px"
	 viewBox="0 0 400 400" style="enable-background:new 0 0 400 400;" xml:space="preserve">
<style type="text/css">
	.st0{fill:#E07E64;}
	.st1{fill:#FDF8F7;}
	.st2{fill:#FCF6F4;}
	.st3{fill:#DF7A5F;}
</style>
<g>
	<g>
		<g>
			<path class="st0" d="M308.885,296.945c4.242,8.354,8.932,16.132-1.292,24.537c-10.435,8.579-18.804,4.674-28.123-1.186
				c-19.053-11.964-29.263-3.694-32.773,15.824c-1.872,10.388-1.356,20.801-15.66,22.787c-13.372,1.856-17.424-7.045-23.222-16.115
				c-11.036-17.261-23.757-18.66-36.521-1.051c-5.463,7.531-10.448,16.059-22.387,11.656c-11.785-4.341-14.059-12.792-13.727-24.552
				c0.694-24.309-13.2-28.128-32.727-20.105c-9.038,3.713-16.675,7.764-24.443-2.482c-6.942-9.143-5.188-16.941,0.424-25.54
				c14.697-22.498,4.399-32.191-18.422-35.13c-8.443-1.089-16.269-2.308-18.5-12.948c-2.283-10.854,1.423-17.941,10.909-22.963
				c23.175-12.267,25.037-26.117,2.675-41.371c-7.505-5.122-12.264-11.155-8.224-20.823c4.107-9.845,10.917-13.644,21.953-12.998
				c25.609,1.511,30.929-11.839,22.256-33.502c-3.071-7.675-7.826-14.269,0.9-22.098c9.749-8.751,18.301-7.103,27.98-0.753
				c20.336,13.324,30.791,5.007,34.236-16.526c1.498-9.327,1.469-18.592,13.948-20.956c12.949-2.456,18.286,4.769,24.048,14.498
				c11.571,19.541,24.893,20.1,38.139,1.093c5.633-8.073,11.547-14.856,22.936-9.776c10.003,4.453,12.692,11.785,12.248,22.445
				c-1.086,26.382,13.412,29.849,34.219,21.068c8.04-3.396,14.682-6.695,21.918,1.913c7.222,8.59,7.242,16.399,1.357,25.326
				c-15.616,23.695-5.59,34.134,19.265,36.637c8.987,0.902,15.595,3.977,17.214,14.349c1.509,9.598-1.579,16.301-9.906,20.578
				c-25.155,12.927-26.292,27.258-2.799,43.249c6.54,4.454,10.56,9.887,7.481,18.309c-3.565,9.749-9.397,15.386-20.841,14.473
				C309.232,262.883,300.706,273.627,308.885,296.945z"/>
			<path class="st1" d="M300.076,198.691c0.49,55.42-44.98,101.05-100.37,100.74c-54.01-0.3-98.69-44.85-99.16-98.84
				c-0.48-55.59,44.71-100.95,100.3-100.67C254.876,100.181,299.596,144.711,300.076,198.691z"/>
			<path class="st2" d="M201.566,174.821c13.89,2.81,23.26,10.52,22.99,24.77c-0.29,15.63-10.01,25.07-25.68,24.3
				c-13.94-0.68-23.04-9.88-22.84-24.11C176.256,184.041,186.426,176.281,201.566,174.821z"/>
			<g>
				<g>
					<g>
						<path class="st3" d="M219.515,154.478c-3.03,10.753-6.037,21.41-9.032,32.067c-5.466,19.455-10.952,38.902-16.366,58.373
							c-1.279,4.603-3.106,9.073-8.823,7.536c-5.452-1.467-5.505-5.764-4.08-10.748c8.373-29.276,16.537-58.614,24.701-87.949
							c1.216-4.371,2.982-8.18,8.312-7.261C218.417,147.217,220.012,150.383,219.515,154.478z"/>
						<path class="st3" d="M173.4,229.604c0.101,2.816-1.326,4.808-3.665,6.039c-2.407,1.268-4.913,1.035-6.974-0.799
							c-11.387-10.113-22.793-20.207-34.033-30.481c-2.869-2.623-2.942-6.2-0.09-8.862c11.13-10.391,22.397-20.643,33.749-30.795
							c2.885-2.578,6.227-2.278,8.885,0.61c3.04,3.303,2.304,6.699-0.699,9.526c-7.461,7.025-14.922,14.058-22.661,20.768
							c-3.682,3.194-3.624,5.315,0.068,8.422c7.199,6.064,14.091,12.493,21.066,18.818
							C171.076,224.693,173.349,226.451,173.4,229.604z"/>
						<path class="st3" d="M233.091,236.017c-2.805-0.071-4.721-1.598-5.793-4.022c-1.448-3.274-0.052-5.873,2.395-8.11
							c6.948-6.358,13.598-13.084,20.909-18.988c5.505-4.447,4.639-7.304-0.309-11.334c-7.077-5.768-13.661-12.143-20.456-18.253
							c-3.243-2.918-4.975-6.314-1.692-10.079c3.57-4.09,7.229-2.703,10.785,0.501c9.885,8.892,19.777,17.776,29.821,26.487
							c5.327,4.62,5.887,8.863,0.369,13.758c-10.153,9.006-20.14,18.2-30.196,27.318
							C237.258,234.805,235.548,236.206,233.091,236.017z"/>
					</g>
				</g>
			</g>
		</g>
	</g>
</g>
<g>
</g>
<g>
</g>
<g>
</g>
<g>
</g>
<g>
</g>
<g>
</g>
<g>
</g>
<g>
</g>
<g>
</g>
<g>
</g>
<g>
</g>
<g>
</g>
<g>
</g>
<g>
</g>
<g>
</g>
</svg>
