<?xml version="1.0" encoding="utf-8"?>
<!-- Generator: Adobe Illustrator 26.0.1, SVG Export Plug-In . SVG Version: 6.00 Build 0)  -->
<svg version="1.1" id="Calque_1" xmlns="http://www.w3.org/2000/svg" xmlns:xlink="http://www.w3.org/1999/xlink" x="0px" y="0px"
	 viewBox="0 0 400 400" style="enable-background:new 0 0 400 400;" xml:space="preserve">
<style type="text/css">
	.st0{fill:#E07E64;}
	.st1{fill:#FDF8F7;}
	.st2{fill:#FCF6F4;}
	.st3{fill:#DF7A5F;}
</style>
<g>
	<g>
		<g>
			<path class="st0" d="M336.304,147.112c9.369,0.013,18.429-0.635,21.276,12.291c2.906,13.192-4.372,18.876-13.824,24.519
				c-19.31,11.545-16.577,24.396-0.779,36.385c8.406,6.384,17.918,10.652,13.194,24.298c-4.417,12.757-14.187,12.327-24.901,13.374
				c-20.39,1.997-27.411,12.696-17.517,32.064c4.23,8.287,9.565,16.6,0.222,25.239c-9.218,8.53-17.781,6.719-28.108,1.084
				c-21.344-11.655-31.055-1.009-32.771,20.033c-0.795,9.738-0.652,18.382-13.308,20.652c-11.298,2.035-17.45-3.069-22.564-11.973
				c-13.373-23.309-26.685-18.533-39.665,0.465c-4.803,7.028-9.443,13.448-19.936,10.606c-10.707-2.893-15.34-9.413-15.508-20.145
				c-0.409-26.218-11.904-34.165-35.647-21.165c-7.971,4.362-15.507,5.863-22.287-2.126c-6.907-8.129-7.2-15.921-1.614-25.461
				c12.973-22.132,3.493-32.933-19.747-35.04c-8.233-0.748-16.267,0.495-19.281-10.834c-3.371-12.66,1.98-19.531,12.032-25.273
				c21.105-12.07,18.44-25.162,0.818-38.007c-7.631-5.569-15.898-9.75-12.34-21.941c3.691-12.653,12.55-14.128,23.835-14.845
				c22.664-1.439,29.21-13.054,18.289-33.486c-4.636-8.684-7.995-17.033,1.702-24.874c8.509-6.892,16.262-5.958,25.559-0.723
				c23.013,12.945,32.685,1.601,34.307-20.924c0.624-8.705,0.701-16.121,11.655-18.66c10.932-2.535,17.9,0.992,23.182,10.288
				c14.023,24.671,27.876,20.477,41.39-0.532c4.884-7.598,10.624-12.09,20.6-8.824c9.237,3.013,13.807,8.807,13.838,18.168
				c0.098,28.283,12.35,35.801,37.264,22.129c6.938-3.805,13.603-4.921,19.71,1.646c7.068,7.603,9.443,15.358,3.433,25.14
				C306.112,131.339,311.814,143.814,336.304,147.112z"/>
			<path class="st1" d="M300.076,198.691c0.49,55.42-44.98,101.05-100.37,100.74c-54.01-0.3-98.69-44.85-99.16-98.84
				c-0.48-55.59,44.71-100.95,100.3-100.67C254.876,100.181,299.596,144.711,300.076,198.691z"/>
			<path class="st2" d="M201.566,174.821c13.89,2.81,23.26,10.52,22.99,24.77c-0.29,15.63-10.01,25.07-25.68,24.3
				c-13.94-0.68-23.04-9.88-22.84-24.11C176.256,184.041,186.426,176.281,201.566,174.821z"/>
			<g>
				<g>
					<g>
						<path class="st3" d="M219.515,154.478c-3.03,10.753-6.037,21.41-9.032,32.067c-5.466,19.455-10.952,38.902-16.366,58.373
							c-1.279,4.603-3.106,9.073-8.823,7.536c-5.452-1.467-5.505-5.764-4.08-10.748c8.373-29.276,16.537-58.614,24.701-87.949
							c1.216-4.371,2.982-8.18,8.312-7.261C218.417,147.217,220.012,150.383,219.515,154.478z"/>
						<path class="st3" d="M173.4,229.604c0.101,2.816-1.326,4.808-3.665,6.039c-2.407,1.268-4.913,1.035-6.974-0.799
							c-11.387-10.113-22.793-20.207-34.033-30.481c-2.869-2.623-2.942-6.2-0.09-8.862c11.13-10.391,22.397-20.643,33.749-30.795
							c2.885-2.578,6.227-2.278,8.885,0.61c3.04,3.303,2.304,6.699-0.699,9.526c-7.461,7.025-14.922,14.058-22.661,20.768
							c-3.682,3.194-3.624,5.315,0.068,8.422c7.199,6.064,14.091,12.493,21.066,18.818
							C171.076,224.693,173.349,226.451,173.4,229.604z"/>
						<path class="st3" d="M233.091,236.017c-2.805-0.071-4.721-1.598-5.793-4.022c-1.448-3.274-0.052-5.873,2.395-8.11
							c6.948-6.358,13.598-13.084,20.909-18.988c5.505-4.447,4.639-7.304-0.309-11.334c-7.077-5.768-13.661-12.143-20.456-18.253
							c-3.243-2.918-4.975-6.314-1.692-10.079c3.57-4.09,7.229-2.703,10.785,0.501c9.885,8.892,19.777,17.776,29.821,26.487
							c5.327,4.62,5.887,8.863,0.369,13.758c-10.153,9.006-20.14,18.2-30.196,27.318
							C237.258,234.805,235.548,236.206,233.091,236.017z"/>
					</g>
				</g>
			</g>
		</g>
	</g>
</g>
<g>
</g>
<g>
</g>
<g>
</g>
<g>
</g>
<g>
</g>
<g>
</g>
<g>
</g>
<g>
</g>
<g>
</g>
<g>
</g>
<g>
</g>
<g>
</g>
<g>
</g>
<g>
</g>
<g>
</g>
</svg>
