<?xml version="1.0" encoding="utf-8"?>
<!-- Generator: Adobe Illustrator 26.0.1, SVG Export Plug-In . SVG Version: 6.00 Build 0)  -->
<svg version="1.1" id="Calque_1" xmlns="http://www.w3.org/2000/svg" xmlns:xlink="http://www.w3.org/1999/xlink" x="0px" y="0px"
	 viewBox="0 0 400 400" style="enable-background:new 0 0 400 400;" xml:space="preserve">
<style type="text/css">
	.st0{fill:#E07E64;}
	.st1{fill:#FDF8F7;}
	.st2{fill:#FCF6F4;}
	.st3{fill:#DF7A5F;}
</style>
<g>
	<g>
		<g>
			<path class="st0" d="M341.231,237.053c7.572,5.518,15.283,10.319,9.989,22.449c-5.403,12.381-14.632,12.701-25.596,11.711
				c-22.408-2.01-27.75,9.993-22.017,28.978c3.048,10.106,8.235,19.149-3.608,27.413c-11.072,7.724-18.723,1.634-28.007-3.816
				c-17.67-10.37-29.639-5.841-33.018,15.644c-1.449,9.19-2.019,19.052-14.656,20.549c-12.471,1.482-18.334-5.015-23.377-15.644
				c-10.417-21.975-24.531-19.07-38.288-3.055c-6.367,7.411-11.332,14.488-22.905,8.885c-10.337-4.995-12.314-12.74-11.217-22.949
				c2.882-26.718-10.695-30.679-32.363-22.938c-8.017,2.863-15.544,5.33-22.362-3.138c-6.962-8.634-6.877-16.632-0.705-25.413
				c15.08-21.452,10.451-34.637-16.398-38.076c-9.013-1.156-15.991-4.371-16.782-14.82c-0.81-10.636,3.533-17.113,13.66-21.548
				c23.504-10.28,22.183-24.59,4.621-39.955c-6.221-5.444-13.451-9.16-9.23-20.098c4.714-12.223,13.082-14.637,24.589-13.374
				c24.169,2.64,29.708-9.518,23.002-30.268c-2.9-8.991-7.131-17.233,2.913-25.004c10.423-8.067,18.458-4.053,28.009,2
				c19.182,12.158,31.304,6.608,34.478-16.341c1.354-9.751,3.544-18.479,15.998-19.123c10.935-0.574,16.659,4.738,21.103,14.439
				c11.009,24,25.501,20.507,40.054,3.237c5.621-6.676,10.043-12.631,20.397-8.246c10.334,4.375,13.898,11.324,12.707,21.95
				c-3.156,28.202,10.516,32.951,33.798,23.898c8.417-3.277,15.701-3.536,21.852,4.97c5.702,7.867,5.994,15.241,0.516,22.832
				c-16.545,22.939-11.052,36.223,17.14,39.806c7.849,0.999,13.898,4.015,14.978,12.917c1.249,10.305-1.388,17.975-11.999,22.357
				C326.077,206.546,323.357,219.99,341.231,237.053z"/>
			<path class="st1" d="M300.076,198.691c0.49,55.42-44.98,101.05-100.37,100.74c-54.01-0.3-98.69-44.85-99.16-98.84
				c-0.48-55.59,44.71-100.95,100.3-100.67C254.876,100.181,299.596,144.711,300.076,198.691z"/>
			<path class="st2" d="M201.566,174.821c13.89,2.81,23.26,10.52,22.99,24.77c-0.29,15.63-10.01,25.07-25.68,24.3
				c-13.94-0.68-23.04-9.88-22.84-24.11C176.256,184.041,186.426,176.281,201.566,174.821z"/>
			<g>
				<g>
					<g>
						<path class="st3" d="M219.515,154.478c-3.03,10.753-6.037,21.41-9.032,32.067c-5.466,19.455-10.952,38.902-16.366,58.373
							c-1.279,4.603-3.106,9.073-8.823,7.536c-5.452-1.467-5.505-5.764-4.08-10.748c8.373-29.276,16.537-58.614,24.701-87.949
							c1.216-4.371,2.982-8.18,8.312-7.261C218.417,147.217,220.012,150.383,219.515,154.478z"/>
						<path class="st3" d="M173.4,229.604c0.101,2.816-1.326,4.808-3.665,6.039c-2.407,1.268-4.913,1.035-6.974-0.799
							c-11.387-10.113-22.793-20.207-34.033-30.481c-2.869-2.623-2.942-6.2-0.09-8.862c11.13-10.391,22.397-20.643,33.749-30.795
							c2.885-2.578,6.227-2.278,8.885,0.61c3.04,3.303,2.304,6.699-0.699,9.526c-7.461,7.025-14.922,14.058-22.661,20.768
							c-3.682,3.194-3.624,5.315,0.068,8.422c7.199,6.064,14.091,12.493,21.066,18.818
							C171.076,224.693,173.349,226.451,173.4,229.604z"/>
						<path class="st3" d="M233.091,236.017c-2.805-0.071-4.721-1.598-5.793-4.022c-1.448-3.274-0.052-5.873,2.395-8.11
							c6.948-6.358,13.598-13.084,20.909-18.988c5.505-4.447,4.639-7.304-0.309-11.334c-7.077-5.768-13.661-12.143-20.456-18.253
							c-3.243-2.918-4.975-6.314-1.692-10.079c3.57-4.09,7.229-2.703,10.785,0.501c9.885,8.892,19.777,17.776,29.821,26.487
							c5.327,4.62,5.887,8.863,0.369,13.758c-10.153,9.006-20.14,18.2-30.196,27.318
							C237.258,234.805,235.548,236.206,233.091,236.017z"/>
					</g>
				</g>
			</g>
		</g>
	</g>
</g>
<g>
</g>
<g>
</g>
<g>
</g>
<g>
</g>
<g>
</g>
<g>
</g>
<g>
</g>
<g>
</g>
<g>
</g>
<g>
</g>
<g>
</g>
<g>
</g>
<g>
</g>
<g>
</g>
<g>
</g>
</svg>
