<?xml version="1.0" encoding="utf-8"?>
<!-- Generator: Adobe Illustrator 26.0.1, SVG Export Plug-In . SVG Version: 6.00 Build 0)  -->
<svg version="1.1" id="Calque_1" xmlns="http://www.w3.org/2000/svg" xmlns:xlink="http://www.w3.org/1999/xlink" x="0px" y="0px"
	 viewBox="0 0 400 400" style="enable-background:new 0 0 400 400;" xml:space="preserve">
<style type="text/css">
	.st0{fill:#E07E64;}
	.st1{fill:#FDF8F7;}
	.st2{fill:#FCF6F4;}
	.st3{fill:#DF7A5F;}
</style>
<g>
	<g>
		<g>
			<path class="st0" d="M271.297,326.979c1.291,9.28,3.194,18.161-9.21,22.78c-12.659,4.714-19.301-1.703-26.205-10.277
				c-14.12-17.516-26.466-13.02-36.139,4.292c-5.152,9.213-8.054,19.226-22.225,16.447c-13.247-2.599-14.181-12.334-16.71-22.797
				c-4.815-19.914-16.388-25.378-34.19-12.884c-7.618,5.342-15.107,11.782-24.962,3.732c-9.729-7.941-9.128-16.673-4.986-27.683
				c8.571-22.759-3.323-30.893-24.399-29.664c-9.754,0.568-18.294,1.913-22.303-10.304c-3.587-10.905,0.61-17.707,8.716-24.011
				c21.221-16.487,14.639-29.005-5.981-39.214c-7.628-3.778-14.632-7.479-13.277-18.266c1.375-11.006,7.186-16.5,17.791-18.161
				c25.906-4.054,32.175-16.543,15.998-38.246c-5.429-7.286-7.964-14.54-0.997-22.366c7.088-7.971,14.764-9.346,24.989-5.142
				c23.722,9.766,33.099-1.125,31.951-24.431c-0.405-8.257-2.755-16.039,8.045-20.601c12.067-5.1,19.616-0.757,26.701,8.398
				c14.89,19.219,27.483,14.759,37.751-4.48c4.453-8.331,7.442-17.101,20.01-15.274c13.043,1.894,15.737,10.462,18.018,21.537
				c4.579,22.244,16.993,27.109,35.706,13.45c7.955-5.799,15.755-10.287,24.869-1.776c8.009,7.467,8.164,15.275,4.273,25.21
				c-9.616,24.591,2.963,32.59,25.495,31.061c8.707-0.594,16.062-1.55,20.101,8.945c4.032,10.473,1.509,17.864-6.962,24.388
				c-22.479,17.32-16.398,30.454,6.287,40.913c8.204,3.779,13.451,8.838,11.605,19.172c-1.698,9.567-6.8,14.899-16.065,16.232
				c-27.994,4.033-33.734,17.213-16.727,39.981c4.734,6.34,6.766,12.786,1.113,19.747c-6.545,8.058-13.894,11.488-24.418,6.899
				C282.714,294.886,271.154,302.269,271.297,326.979z"/>
			<path class="st1" d="M300.076,198.691c0.49,55.42-44.98,101.05-100.37,100.74c-54.01-0.3-98.69-44.85-99.16-98.84
				c-0.48-55.59,44.71-100.95,100.3-100.67C254.876,100.181,299.596,144.711,300.076,198.691z"/>
			<path class="st2" d="M201.566,174.821c13.89,2.81,23.26,10.52,22.99,24.77c-0.29,15.63-10.01,25.07-25.68,24.3
				c-13.94-0.68-23.04-9.88-22.84-24.11C176.256,184.041,186.426,176.281,201.566,174.821z"/>
			<g>
				<g>
					<g>
						<path class="st3" d="M219.515,154.478c-3.03,10.753-6.037,21.41-9.032,32.067c-5.466,19.455-10.952,38.902-16.366,58.373
							c-1.279,4.603-3.106,9.073-8.823,7.536c-5.452-1.467-5.505-5.764-4.08-10.748c8.373-29.276,16.537-58.614,24.701-87.949
							c1.216-4.371,2.982-8.18,8.312-7.261C218.417,147.217,220.012,150.383,219.515,154.478z"/>
						<path class="st3" d="M173.4,229.604c0.101,2.816-1.326,4.808-3.665,6.039c-2.407,1.268-4.913,1.035-6.974-0.799
							c-11.387-10.113-22.793-20.207-34.033-30.481c-2.869-2.623-2.942-6.2-0.09-8.862c11.13-10.391,22.397-20.643,33.749-30.795
							c2.885-2.578,6.227-2.278,8.885,0.61c3.04,3.303,2.304,6.699-0.699,9.526c-7.461,7.025-14.922,14.058-22.661,20.768
							c-3.682,3.194-3.624,5.315,0.068,8.422c7.199,6.064,14.091,12.493,21.066,18.818
							C171.076,224.693,173.349,226.451,173.4,229.604z"/>
						<path class="st3" d="M233.091,236.017c-2.805-0.071-4.721-1.598-5.793-4.022c-1.448-3.274-0.052-5.873,2.395-8.11
							c6.948-6.358,13.598-13.084,20.909-18.988c5.505-4.447,4.639-7.304-0.309-11.334c-7.077-5.768-13.661-12.143-20.456-18.253
							c-3.243-2.918-4.975-6.314-1.692-10.079c3.57-4.09,7.229-2.703,10.785,0.501c9.885,8.892,19.777,17.776,29.821,26.487
							c5.327,4.62,5.887,8.863,0.369,13.758c-10.153,9.006-20.14,18.2-30.196,27.318
							C237.258,234.805,235.548,236.206,233.091,236.017z"/>
					</g>
				</g>
			</g>
		</g>
	</g>
</g>
<g>
</g>
<g>
</g>
<g>
</g>
<g>
</g>
<g>
</g>
<g>
</g>
<g>
</g>
<g>
</g>
<g>
</g>
<g>
</g>
<g>
</g>
<g>
</g>
<g>
</g>
<g>
</g>
<g>
</g>
</svg>
