<?xml version="1.0" encoding="utf-8"?>
<!-- Generator: Adobe Illustrator 26.0.1, SVG Export Plug-In . SVG Version: 6.00 Build 0)  -->
<svg version="1.1" id="Calque_1" xmlns="http://www.w3.org/2000/svg" xmlns:xlink="http://www.w3.org/1999/xlink" x="0px" y="0px"
	 viewBox="0 0 400 400" style="enable-background:new 0 0 400 400;" xml:space="preserve">
<style type="text/css">
	.st0{fill:#E07E64;}
	.st1{fill:#FDF8F7;}
	.st2{fill:#FCF6F4;}
	.st3{fill:#DF7A5F;}
</style>
<g>
	<g>
		<g>
			<path class="st0" d="M104.464,89.861c-3.192-8.809-6.9-17.1,4.273-24.197c11.403-7.243,19.233-2.347,27.769,4.604
				c17.453,14.197,28.594,7.233,34.457-11.712c3.124-10.083,3.881-20.481,18.32-20.708c13.498-0.212,16.436,9.116,21.085,18.825
				c8.85,18.478,21.306,21.416,36.121,5.494c6.34-6.809,12.327-14.666,23.641-8.841c11.168,5.745,12.395,14.41,10.633,26.042
				c-3.652,24.043,9.673,29.527,30.033,23.943c9.423-2.584,17.497-5.674,23.958,5.442c5.776,9.921,3.085,17.447-3.534,25.298
				c-17.329,20.539-8.289,31.415,14.003,37.114c8.247,2.11,15.867,4.274,16.785,15.106c0.943,11.051-3.599,17.634-13.626,21.463
				c-24.497,9.352-28.033,22.871-7.697,40.736c6.825,5.999,10.813,12.566,5.625,21.67c-5.276,9.271-12.499,12.212-23.374,10.225
				c-25.234-4.621-32.142,7.982-26.173,30.54c2.113,7.992,6.029,15.116-3.586,21.823c-10.743,7.498-19.03,4.819-27.864-2.663
				c-18.561-15.703-29.951-8.722-35.995,12.231c-2.623,9.075-3.724,18.274-16.398,19.1c-13.152,0.86-17.568-6.961-22.102-17.32
				c-9.104-20.806-22.257-22.983-37.722-5.733c-6.575,7.326-13.272,13.338-23.956,6.908c-9.386-5.639-11.161-13.244-9.421-23.771
				c4.293-26.053-9.674-31.261-31.396-25.081c-8.394,2.391-15.389,4.855-21.521-4.57c-6.121-9.406-5.19-17.16,1.739-25.303
				c18.387-21.615,9.708-33.198-14.656-38.712c-8.81-1.99-14.994-5.848-15.337-16.34c-0.328-9.711,3.553-15.987,12.34-19.218
				c26.543-9.765,29.418-23.85,8.049-42.585c-5.948-5.218-9.277-11.1-5.194-19.084c4.727-9.242,11.202-14.126,22.45-11.825
				C99.968,123.627,109.741,114.001,104.464,89.861z"/>
			<path class="st1" d="M300.076,198.691c0.49,55.42-44.98,101.05-100.37,100.74c-54.01-0.3-98.69-44.85-99.16-98.84
				c-0.48-55.59,44.71-100.95,100.3-100.67C254.876,100.181,299.596,144.711,300.076,198.691z"/>
			<path class="st2" d="M201.566,174.821c13.89,2.81,23.26,10.52,22.99,24.77c-0.29,15.63-10.01,25.07-25.68,24.3
				c-13.94-0.68-23.04-9.88-22.84-24.11C176.256,184.041,186.426,176.281,201.566,174.821z"/>
			<g>
				<g>
					<g>
						<path class="st3" d="M219.515,154.478c-3.03,10.753-6.037,21.41-9.032,32.067c-5.466,19.455-10.952,38.902-16.366,58.373
							c-1.279,4.603-3.106,9.073-8.823,7.536c-5.452-1.467-5.505-5.764-4.08-10.748c8.373-29.276,16.537-58.614,24.701-87.949
							c1.216-4.371,2.982-8.18,8.312-7.261C218.417,147.217,220.012,150.383,219.515,154.478z"/>
						<path class="st3" d="M173.4,229.604c0.101,2.816-1.326,4.808-3.665,6.039c-2.407,1.268-4.913,1.035-6.974-0.799
							c-11.387-10.113-22.793-20.207-34.033-30.481c-2.869-2.623-2.942-6.2-0.09-8.862c11.13-10.391,22.397-20.643,33.749-30.795
							c2.885-2.578,6.227-2.278,8.885,0.61c3.04,3.303,2.304,6.699-0.699,9.526c-7.461,7.025-14.922,14.058-22.661,20.768
							c-3.682,3.194-3.624,5.315,0.068,8.422c7.199,6.064,14.091,12.493,21.066,18.818
							C171.076,224.693,173.349,226.451,173.4,229.604z"/>
						<path class="st3" d="M233.091,236.017c-2.805-0.071-4.721-1.598-5.793-4.022c-1.448-3.274-0.052-5.873,2.395-8.11
							c6.948-6.358,13.598-13.084,20.909-18.988c5.505-4.447,4.639-7.304-0.309-11.334c-7.077-5.768-13.661-12.143-20.456-18.253
							c-3.243-2.918-4.975-6.314-1.692-10.079c3.57-4.09,7.229-2.703,10.785,0.501c9.885,8.892,19.777,17.776,29.821,26.487
							c5.327,4.62,5.887,8.863,0.369,13.758c-10.153,9.006-20.14,18.2-30.196,27.318
							C237.258,234.805,235.548,236.206,233.091,236.017z"/>
					</g>
				</g>
			</g>
		</g>
	</g>
</g>
<g>
</g>
<g>
</g>
<g>
</g>
<g>
</g>
<g>
</g>
<g>
</g>
<g>
</g>
<g>
</g>
<g>
</g>
<g>
</g>
<g>
</g>
<g>
</g>
<g>
</g>
<g>
</g>
<g>
</g>
</svg>
