<?xml version="1.0" encoding="utf-8"?>
<!-- Generator: Adobe Illustrator 26.0.1, SVG Export Plug-In . SVG Version: 6.00 Build 0)  -->
<svg version="1.1" id="Calque_1" xmlns="http://www.w3.org/2000/svg" xmlns:xlink="http://www.w3.org/1999/xlink" x="0px" y="0px"
	 viewBox="0 0 400 400" style="enable-background:new 0 0 400 400;" xml:space="preserve">
<style type="text/css">
	.st0{fill:#E07E64;}
	.st1{fill:#FDF8F7;}
	.st2{fill:#FCF6F4;}
	.st3{fill:#DF7A5F;}
</style>
<g>
	<g>
		<g>
			<path class="st0" d="M232.801,57.544c5.25-7.76,9.779-15.633,22.087-10.766c12.562,4.967,13.204,14.18,12.597,25.172
				c-1.227,22.465,10.956,27.385,29.729,20.992c9.993-3.399,18.85-8.899,27.522,2.649c8.106,10.796,2.286,18.655-2.837,28.123
				c-9.747,18.021-4.803,29.825,16.787,32.452c9.235,1.127,19.11,1.353,21.048,13.93c1.917,12.412-4.372,18.498-14.819,23.909
				c-21.598,11.178-18.202,25.181-1.717,38.371c7.629,6.105,14.875,10.82,9.679,22.581c-4.631,10.505-12.302,12.751-22.544,12.011
				c-26.802-1.947-30.287,11.759-21.795,33.144c3.141,7.912,5.869,15.348-2.355,22.458c-8.386,7.259-16.381,7.454-25.373,1.592
				c-21.965-14.322-34.98-9.236-37.481,17.717c-0.841,9.047-3.811,16.134-14.225,17.289c-10.601,1.181-17.226-2.934-22.011-12.899
				c-11.094-23.131-25.35-21.312-40.092-3.224c-5.224,6.407-8.685,13.763-19.763,9.926c-12.38-4.284-15.085-12.563-14.224-24.107
				c1.795-24.246-10.549-29.358-31.052-21.931c-8.884,3.212-16.973,7.728-25.091-2.039c-8.426-10.135-4.695-18.305,1.021-28.062
				c11.481-19.594,5.511-31.516-17.535-33.887c-9.792-1.013-18.592-2.897-19.67-15.321c-0.955-10.908,4.154-16.814,13.693-21.594
				c23.601-11.84,19.605-26.202,1.837-40.142c-6.868-5.385-12.973-9.596-8.953-20.097c4.012-10.481,10.832-14.285,21.493-13.466
				c28.295,2.17,32.564-11.66,22.704-34.611c-3.568-8.298-4.082-15.568,4.204-22.012c7.663-5.973,15.022-6.522,22.8-1.313
				c23.502,15.734,36.587,9.781,39.183-18.519c0.725-7.879,3.527-14.03,12.387-15.419c10.255-1.608,18.012,0.76,22.762,11.212
				C202.841,73.754,216.372,76.003,232.801,57.544z"/>
			<path class="st1" d="M300.076,198.691c0.49,55.42-44.98,101.05-100.37,100.74c-54.01-0.3-98.69-44.85-99.16-98.84
				c-0.48-55.59,44.71-100.95,100.3-100.67C254.876,100.181,299.596,144.711,300.076,198.691z"/>
			<path class="st2" d="M201.566,174.821c13.89,2.81,23.26,10.52,22.99,24.77c-0.29,15.63-10.01,25.07-25.68,24.3
				c-13.94-0.68-23.04-9.88-22.84-24.11C176.256,184.041,186.426,176.281,201.566,174.821z"/>
			<g>
				<g>
					<g>
						<path class="st3" d="M219.515,154.478c-3.03,10.753-6.037,21.41-9.032,32.067c-5.466,19.455-10.952,38.902-16.366,58.373
							c-1.279,4.603-3.106,9.073-8.823,7.536c-5.452-1.467-5.505-5.764-4.08-10.748c8.373-29.276,16.537-58.614,24.701-87.949
							c1.216-4.371,2.982-8.18,8.312-7.261C218.417,147.217,220.012,150.383,219.515,154.478z"/>
						<path class="st3" d="M173.4,229.604c0.101,2.816-1.326,4.808-3.665,6.039c-2.407,1.268-4.913,1.035-6.974-0.799
							c-11.387-10.113-22.793-20.207-34.033-30.481c-2.869-2.623-2.942-6.2-0.09-8.862c11.13-10.391,22.397-20.643,33.749-30.795
							c2.885-2.578,6.227-2.278,8.885,0.61c3.04,3.303,2.304,6.699-0.699,9.526c-7.461,7.025-14.922,14.058-22.661,20.768
							c-3.682,3.194-3.624,5.315,0.068,8.422c7.199,6.064,14.091,12.493,21.066,18.818
							C171.076,224.693,173.349,226.451,173.4,229.604z"/>
						<path class="st3" d="M233.091,236.017c-2.805-0.071-4.721-1.598-5.793-4.022c-1.448-3.274-0.052-5.873,2.395-8.11
							c6.948-6.358,13.598-13.084,20.909-18.988c5.505-4.447,4.639-7.304-0.309-11.334c-7.077-5.768-13.661-12.143-20.456-18.253
							c-3.243-2.918-4.975-6.314-1.692-10.079c3.57-4.09,7.229-2.703,10.785,0.501c9.885,8.892,19.777,17.776,29.821,26.487
							c5.327,4.62,5.887,8.863,0.369,13.758c-10.153,9.006-20.14,18.2-30.196,27.318
							C237.258,234.805,235.548,236.206,233.091,236.017z"/>
					</g>
				</g>
			</g>
		</g>
	</g>
</g>
<g>
</g>
<g>
</g>
<g>
</g>
<g>
</g>
<g>
</g>
<g>
</g>
<g>
</g>
<g>
</g>
<g>
</g>
<g>
</g>
<g>
</g>
<g>
</g>
<g>
</g>
<g>
</g>
<g>
</g>
</svg>
