<?xml version="1.0" encoding="utf-8"?>
<!-- Generator: Adobe Illustrator 26.0.1, SVG Export Plug-In . SVG Version: 6.00 Build 0)  -->
<svg version="1.1" id="Calque_1" xmlns="http://www.w3.org/2000/svg" xmlns:xlink="http://www.w3.org/1999/xlink" x="0px" y="0px"
	 viewBox="0 0 400 400" style="enable-background:new 0 0 400 400;" xml:space="preserve">
<style type="text/css">
	.st0{fill:#E07E64;}
	.st1{fill:#FDF8F7;}
	.st2{fill:#FCF6F4;}
	.st3{fill:#DF7A5F;}
</style>
<g>
	<g>
		<g>
			<path class="st0" d="M190.514,345.093c-3.971,8.486-7.213,16.971-20.131,14.089c-13.184-2.941-15.26-11.94-16.38-22.891
				c-2.302-22.38-15.105-25.334-32.646-16.083c-9.339,4.92-17.226,11.738-27.597,1.689c-9.695-9.395-5.176-18.068-1.598-28.22
				c6.807-19.324,0.078-30.209-21.657-29.426c-9.298,0.331-19.087,1.654-22.968-10.465c-3.835-11.959,1.425-18.955,10.896-25.933
				c19.583-14.419,14.039-27.719-4.306-38.167c-8.49-4.836-16.384-8.36-13.093-20.789c2.931-11.1,10.156-14.518,20.387-15.39
				c26.777-2.269,28.075-16.352,16.342-36.145c-4.34-7.324-8.198-14.241-1.187-22.55c7.147-8.481,15.014-9.924,24.812-5.541
				c23.935,10.71,35.995,3.65,34.247-23.362c-0.584-9.068,1.24-16.532,11.346-19.301c10.286-2.825,17.473,0.203,23.758,9.297
				c14.575,21.111,28.371,17.084,40.103-3.088c4.157-7.145,6.426-14.952,17.967-12.895c12.898,2.295,16.864,10.049,17.82,21.585
				c2.02,24.228,15.011,27.346,34.1,16.804c8.272-4.562,15.555-10.288,25.101-1.911c9.908,8.692,7.5,17.345,3.381,27.876
				c-8.275,21.149-0.513,31.99,22.62,30.727c9.83-0.531,18.816-0.047,21.824,12.055c2.65,10.624-1.473,17.257-10.147,23.47
				c-21.458,15.387-15.264,28.946,4.465,39.935c7.626,4.244,14.315,7.448,11.986,18.449c-2.323,10.979-8.464,15.803-19.122,16.662
				c-28.286,2.283-30.339,16.61-17.01,37.737c4.822,7.637,6.467,14.738-0.709,22.399c-6.634,7.099-13.817,8.792-22.314,4.864
				c-25.674-11.864-37.666-3.937-35.804,24.421c0.517,7.896-1.289,14.409-9.822,17.167c-9.878,3.193-17.909,2.068-24.236-7.513
				C217.569,324.396,203.853,324.292,190.514,345.093z"/>
			<path class="st1" d="M300.076,198.691c0.49,55.42-44.98,101.05-100.37,100.74c-54.01-0.3-98.69-44.85-99.16-98.84
				c-0.48-55.59,44.71-100.95,100.3-100.67C254.876,100.181,299.596,144.711,300.076,198.691z"/>
			<path class="st2" d="M201.566,174.821c13.89,2.81,23.26,10.52,22.99,24.77c-0.29,15.63-10.01,25.07-25.68,24.3
				c-13.94-0.68-23.04-9.88-22.84-24.11C176.256,184.041,186.426,176.281,201.566,174.821z"/>
			<g>
				<g>
					<g>
						<path class="st3" d="M219.515,154.478c-3.03,10.753-6.037,21.41-9.032,32.067c-5.466,19.455-10.952,38.902-16.366,58.373
							c-1.279,4.603-3.106,9.073-8.823,7.536c-5.452-1.467-5.505-5.764-4.08-10.748c8.373-29.276,16.537-58.614,24.701-87.949
							c1.216-4.371,2.982-8.18,8.312-7.261C218.417,147.217,220.012,150.383,219.515,154.478z"/>
						<path class="st3" d="M173.4,229.604c0.101,2.816-1.326,4.808-3.665,6.039c-2.407,1.268-4.913,1.035-6.974-0.799
							c-11.387-10.113-22.793-20.207-34.033-30.481c-2.869-2.623-2.942-6.2-0.09-8.862c11.13-10.391,22.397-20.643,33.749-30.795
							c2.885-2.578,6.227-2.278,8.885,0.61c3.04,3.303,2.304,6.699-0.699,9.526c-7.461,7.025-14.922,14.058-22.661,20.768
							c-3.682,3.194-3.624,5.315,0.068,8.422c7.199,6.064,14.091,12.493,21.066,18.818
							C171.076,224.693,173.349,226.451,173.4,229.604z"/>
						<path class="st3" d="M233.091,236.017c-2.805-0.071-4.721-1.598-5.793-4.022c-1.448-3.274-0.052-5.873,2.395-8.11
							c6.948-6.358,13.598-13.084,20.909-18.988c5.505-4.447,4.639-7.304-0.309-11.334c-7.077-5.768-13.661-12.143-20.456-18.253
							c-3.243-2.918-4.975-6.314-1.692-10.079c3.57-4.09,7.229-2.703,10.785,0.501c9.885,8.892,19.777,17.776,29.821,26.487
							c5.327,4.62,5.887,8.863,0.369,13.758c-10.153,9.006-20.14,18.2-30.196,27.318
							C237.258,234.805,235.548,236.206,233.091,236.017z"/>
					</g>
				</g>
			</g>
		</g>
	</g>
</g>
<g>
</g>
<g>
</g>
<g>
</g>
<g>
</g>
<g>
</g>
<g>
</g>
<g>
</g>
<g>
</g>
<g>
</g>
<g>
</g>
<g>
</g>
<g>
</g>
<g>
</g>
<g>
</g>
<g>
</g>
</svg>
