<?xml version="1.0" encoding="utf-8"?>
<!-- Generator: Adobe Illustrator 26.0.1, SVG Export Plug-In . SVG Version: 6.00 Build 0)  -->
<svg version="1.1" id="Calque_1" xmlns="http://www.w3.org/2000/svg" xmlns:xlink="http://www.w3.org/1999/xlink" x="0px" y="0px"
	 viewBox="0 0 400 400" style="enable-background:new 0 0 400 400;" xml:space="preserve">
<style type="text/css">
	.st0{fill:#E07E64;}
	.st1{fill:#FDF8F7;}
	.st2{fill:#FCF6F4;}
	.st3{fill:#DF7A5F;}
</style>
<g>
	<g>
		<g>
			<path class="st0" d="M78.276,279.318c-9.167,1.935-17.894,4.453-23.367-7.598c-5.586-12.3,0.352-19.373,8.424-26.858
				c16.488-15.307,11.142-27.309-6.803-35.752c-9.55-4.497-19.741-6.693-17.957-21.024c1.669-13.396,11.314-15.007,21.576-18.259
				c19.53-6.193,24.173-18.118,10.467-35.005c-5.86-7.226-12.807-14.248-5.464-24.641c7.243-10.26,15.995-10.269,27.268-6.905
				c23.301,6.962,30.586-5.47,27.89-26.409c-1.247-9.691-3.184-18.116,8.723-22.967c10.629-4.339,17.707-0.626,24.56,7.02
				c17.927,20.019,29.955,12.58,38.701-8.702c3.237-7.873,6.44-15.118,17.295-14.519c11.075,0.604,16.962,6.018,19.358,16.48
				c5.851,25.56,18.747,30.943,39.268,13.292c6.89-5.924,13.949-8.959,22.242-2.555c8.446,6.515,10.353,14.077,6.873,24.569
				c-8.088,24.345,3.431,32.94,26.6,30.169c8.208-0.98,15.808-3.867,21.112,6.589c5.93,11.682,2.124,19.516-6.515,27.222
				c-18.134,16.194-12.805,28.446,7.102,37.346c8.622,3.861,17.578,6.231,16.632,18.896c-0.979,13.144-9.339,16.429-20.228,19.476
				c-21.87,6.119-25.857,18.842-10.927,36.557c6.34,7.531,11.361,14.999,3.507,24.685c-6.89,8.51-14.668,9.209-24.851,6.021
				c-25.202-7.877-32.303,5.229-29.206,27.6c1.2,8.645,2.666,15.915-7.521,20.676c-10.166,4.752-17.715,2.751-24.815-5.244
				c-18.846-21.216-31.524-14.234-40.375,9.126c-3.197,8.448-7.878,14.035-18.315,12.914c-9.662-1.026-15.337-5.744-17.313-14.894
				c-5.976-27.644-19.524-32.451-41.051-13.897c-5.995,5.164-12.283,7.642-19.621,2.487c-8.494-5.967-12.429-13.059-8.585-23.877
				C111.088,288.469,102.916,277.452,78.276,279.318z"/>
			<path class="st1" d="M300.076,198.691c0.49,55.42-44.98,101.05-100.37,100.74c-54.01-0.3-98.69-44.85-99.16-98.84
				c-0.48-55.59,44.71-100.95,100.3-100.67C254.876,100.181,299.596,144.711,300.076,198.691z"/>
			<path class="st2" d="M201.566,174.821c13.89,2.81,23.26,10.52,22.99,24.77c-0.29,15.63-10.01,25.07-25.68,24.3
				c-13.94-0.68-23.04-9.88-22.84-24.11C176.256,184.041,186.426,176.281,201.566,174.821z"/>
			<g>
				<g>
					<g>
						<path class="st3" d="M219.515,154.478c-3.03,10.753-6.037,21.41-9.032,32.067c-5.466,19.455-10.952,38.902-16.366,58.373
							c-1.279,4.603-3.106,9.073-8.823,7.536c-5.452-1.467-5.505-5.764-4.08-10.748c8.373-29.276,16.537-58.614,24.701-87.949
							c1.216-4.371,2.982-8.18,8.312-7.261C218.417,147.217,220.012,150.383,219.515,154.478z"/>
						<path class="st3" d="M173.4,229.604c0.101,2.816-1.326,4.808-3.665,6.039c-2.407,1.268-4.913,1.035-6.974-0.799
							c-11.387-10.113-22.793-20.207-34.033-30.481c-2.869-2.623-2.942-6.2-0.09-8.862c11.13-10.391,22.397-20.643,33.749-30.795
							c2.885-2.578,6.227-2.278,8.885,0.61c3.04,3.303,2.304,6.699-0.699,9.526c-7.461,7.025-14.922,14.058-22.661,20.768
							c-3.682,3.194-3.624,5.315,0.068,8.422c7.199,6.064,14.091,12.493,21.066,18.818
							C171.076,224.693,173.349,226.451,173.4,229.604z"/>
						<path class="st3" d="M233.091,236.017c-2.805-0.071-4.721-1.598-5.793-4.022c-1.448-3.274-0.052-5.873,2.395-8.11
							c6.948-6.358,13.598-13.084,20.909-18.988c5.505-4.447,4.639-7.304-0.309-11.334c-7.077-5.768-13.661-12.143-20.456-18.253
							c-3.243-2.918-4.975-6.314-1.692-10.079c3.57-4.09,7.229-2.703,10.785,0.501c9.885,8.892,19.777,17.776,29.821,26.487
							c5.327,4.62,5.887,8.863,0.369,13.758c-10.153,9.006-20.14,18.2-30.196,27.318
							C237.258,234.805,235.548,236.206,233.091,236.017z"/>
					</g>
				</g>
			</g>
		</g>
	</g>
</g>
<g>
</g>
<g>
</g>
<g>
</g>
<g>
</g>
<g>
</g>
<g>
</g>
<g>
</g>
<g>
</g>
<g>
</g>
<g>
</g>
<g>
</g>
<g>
</g>
<g>
</g>
<g>
</g>
<g>
</g>
</svg>
