<?xml version="1.0" encoding="utf-8"?>
<!-- Generator: Adobe Illustrator 26.0.1, SVG Export Plug-In . SVG Version: 6.00 Build 0)  -->
<svg version="1.1" id="Calque_1" xmlns="http://www.w3.org/2000/svg" xmlns:xlink="http://www.w3.org/1999/xlink" x="0px" y="0px"
	 viewBox="0 0 400 400" style="enable-background:new 0 0 400 400;" xml:space="preserve">
<style type="text/css">
	.st0{fill:#E07E64;}
	.st1{fill:#FDF8F7;}
	.st2{fill:#FCF6F4;}
	.st3{fill:#DF7A5F;}
</style>
<g>
	<g>
		<g>
			<path class="st0" d="M227.821,56.498c4.976-7.939,9.227-15.965,21.698-11.53c12.728,4.526,13.691,13.711,13.468,24.717
				c-0.442,22.494,11.905,26.986,30.443,19.942c9.869-3.745,18.528-9.551,27.597,1.687c8.477,10.506,2.936,18.564-1.853,28.205
				c-9.112,18.35-3.759,29.974,17.909,31.846c9.269,0.804,19.146,0.685,21.521,13.186c2.349,12.337-3.724,18.64-13.975,24.411
				c-21.195,11.925-17.312,25.801-0.377,38.408c7.837,5.835,15.244,10.294,10.462,22.23c-4.262,10.66-11.85,13.172-22.111,12.79
				c-26.854-1.011-29.858,12.809-20.625,33.884c3.415,7.798,6.401,15.134-1.57,22.527c-8.128,7.547-16.111,8.021-25.302,2.476
				c-22.451-13.547-35.282-8.009-36.839,19.014c-0.525,9.071-3.245,16.257-13.613,17.774c-10.554,1.55-17.318-2.331-22.448-12.123
				c-11.894-22.73-26.078-20.414-40.18-1.823c-4.997,6.585-8.2,14.058-19.405,10.61c-12.522-3.85-15.514-12.029-15.056-23.596
				c0.947-24.294-11.567-28.972-31.798-20.834c-8.766,3.52-16.693,8.316-25.147-1.162c-8.775-9.835-5.33-18.13,0.041-28.08
				c10.79-19.983,4.408-31.689-18.706-33.255c-9.821-0.671-18.682-2.247-20.193-14.625c-1.335-10.868,3.565-16.949,12.931-22.059
				c23.173-12.657,18.678-26.87,0.435-40.182c-7.052-5.142-13.3-9.137-9.649-19.772c3.643-10.614,10.327-14.654,21.01-14.208
				c28.353,1.181,32.137-12.789,21.482-35.383c-3.856-8.168-4.623-15.416,3.434-22.146c7.45-6.237,14.786-7.042,22.741-2.108
				c24.037,14.904,36.906,8.498,38.513-19.875c0.449-7.9,3.035-14.144,11.841-15.842c10.193-1.965,18.028,0.131,23.14,10.411
				C198.445,73.743,212.046,75.518,227.821,56.498z"/>
			<path class="st1" d="M300.076,198.691c0.49,55.42-44.98,101.05-100.37,100.74c-54.01-0.3-98.69-44.85-99.16-98.84
				c-0.48-55.59,44.71-100.95,100.3-100.67C254.876,100.181,299.596,144.711,300.076,198.691z"/>
			<path class="st2" d="M201.566,174.821c13.89,2.81,23.26,10.52,22.99,24.77c-0.29,15.63-10.01,25.07-25.68,24.3
				c-13.94-0.68-23.04-9.88-22.84-24.11C176.256,184.041,186.426,176.281,201.566,174.821z"/>
			<g>
				<g>
					<g>
						<path class="st3" d="M219.515,154.478c-3.03,10.753-6.037,21.41-9.032,32.067c-5.466,19.455-10.952,38.902-16.366,58.373
							c-1.279,4.603-3.106,9.073-8.823,7.536c-5.452-1.467-5.505-5.764-4.08-10.748c8.373-29.276,16.537-58.614,24.701-87.949
							c1.216-4.371,2.982-8.18,8.312-7.261C218.417,147.217,220.012,150.383,219.515,154.478z"/>
						<path class="st3" d="M173.4,229.604c0.101,2.816-1.326,4.808-3.665,6.039c-2.407,1.268-4.913,1.035-6.974-0.799
							c-11.387-10.113-22.793-20.207-34.033-30.481c-2.869-2.623-2.942-6.2-0.09-8.862c11.13-10.391,22.397-20.643,33.749-30.795
							c2.885-2.578,6.227-2.278,8.885,0.61c3.04,3.303,2.304,6.699-0.699,9.526c-7.461,7.025-14.922,14.058-22.661,20.768
							c-3.682,3.194-3.624,5.315,0.068,8.422c7.199,6.064,14.091,12.493,21.066,18.818
							C171.076,224.693,173.349,226.451,173.4,229.604z"/>
						<path class="st3" d="M233.091,236.017c-2.805-0.071-4.721-1.598-5.793-4.022c-1.448-3.274-0.052-5.873,2.395-8.11
							c6.948-6.358,13.598-13.084,20.909-18.988c5.505-4.447,4.639-7.304-0.309-11.334c-7.077-5.768-13.661-12.143-20.456-18.253
							c-3.243-2.918-4.975-6.314-1.692-10.079c3.57-4.09,7.229-2.703,10.785,0.501c9.885,8.892,19.777,17.776,29.821,26.487
							c5.327,4.62,5.887,8.863,0.369,13.758c-10.153,9.006-20.14,18.2-30.196,27.318
							C237.258,234.805,235.548,236.206,233.091,236.017z"/>
					</g>
				</g>
			</g>
		</g>
	</g>
</g>
<g>
</g>
<g>
</g>
<g>
</g>
<g>
</g>
<g>
</g>
<g>
</g>
<g>
</g>
<g>
</g>
<g>
</g>
<g>
</g>
<g>
</g>
<g>
</g>
<g>
</g>
<g>
</g>
<g>
</g>
</svg>
