<?xml version="1.0" encoding="utf-8"?>
<!-- Generator: Adobe Illustrator 26.0.1, SVG Export Plug-In . SVG Version: 6.00 Build 0)  -->
<svg version="1.1" id="Calque_1" xmlns="http://www.w3.org/2000/svg" xmlns:xlink="http://www.w3.org/1999/xlink" x="0px" y="0px"
	 viewBox="0 0 400 400" style="enable-background:new 0 0 400 400;" xml:space="preserve">
<style type="text/css">
	.st0{fill:#E07E64;}
	.st1{fill:#FDF8F7;}
	.st2{fill:#FCF6F4;}
	.st3{fill:#DF7A5F;}
</style>
<g>
	<g>
		<g>
			<path class="st0" d="M316.951,287.116c4.954,7.953,10.304,15.292,0.852,24.557c-9.647,9.456-18.325,6.295-28.119,1.27
				c-20.023-10.258-29.473-1.13-31.269,18.62c-0.96,10.512,0.462,20.84-13.614,24.065c-13.159,3.014-17.972-5.499-24.538-14.03
				c-12.499-16.234-25.293-16.518-36.474,2.136c-4.786,7.978-9.008,16.908-21.286,13.563c-12.118-3.297-15.121-11.518-15.815-23.262
				c-1.427-24.277-15.601-26.871-34.355-17.176c-8.68,4.486-15.935,9.188-24.566-0.342c-7.713-8.503-6.645-16.425-1.803-25.48
				c12.681-23.693,1.576-32.452-21.413-33.391c-8.506-0.349-16.409-0.881-19.559-11.286c-3.22-10.614-0.146-17.997,8.866-23.827
				c22.018-14.241,22.665-28.2-0.941-41.446c-7.923-4.448-13.189-10.044-10.008-20.027c3.233-10.165,9.687-14.543,20.737-14.862
				c25.643-0.726,29.78-14.49,19.252-35.315c-3.728-7.378-9.04-13.532-1.029-22.092c8.95-9.567,17.612-8.671,27.808-3.189
				c21.42,11.501,31.11,2.304,32.665-19.447c0.679-9.422-0.157-18.649,12.068-22.092c12.686-3.575,18.632,3.157,25.22,12.347
				c13.23,18.458,26.55,17.854,38.089-2.235c4.908-8.533,10.209-15.806,21.997-11.738c10.354,3.564,13.671,10.634,14.157,21.293
				c1.217,26.376,15.962,28.567,35.925,18.005c7.713-4.084,14.043-7.949,22.001-0.004c7.943,7.928,8.644,15.706,3.56,25.112
				c-13.491,24.966-2.593,34.491,22.385,34.819c9.032,0.115,15.883,2.603,18.399,12.794c2.34,9.43-0.152,16.376-8.074,21.363
				c-23.933,15.071-23.816,29.445,0.981,43.328c6.903,3.867,11.382,8.929,9.048,17.587c-2.702,10.023-8.02,16.146-19.501,16.234
				C314.328,253.154,306.771,264.6,316.951,287.116z"/>
			<path class="st1" d="M300.076,198.691c0.49,55.42-44.98,101.05-100.37,100.74c-54.01-0.3-98.69-44.85-99.16-98.84
				c-0.48-55.59,44.71-100.95,100.3-100.67C254.876,100.181,299.596,144.711,300.076,198.691z"/>
			<path class="st2" d="M201.566,174.821c13.89,2.81,23.26,10.52,22.99,24.77c-0.29,15.63-10.01,25.07-25.68,24.3
				c-13.94-0.68-23.04-9.88-22.84-24.11C176.256,184.041,186.426,176.281,201.566,174.821z"/>
			<g>
				<g>
					<g>
						<path class="st3" d="M219.515,154.478c-3.03,10.753-6.037,21.41-9.032,32.067c-5.466,19.455-10.952,38.902-16.366,58.373
							c-1.279,4.603-3.106,9.073-8.823,7.536c-5.452-1.467-5.505-5.764-4.08-10.748c8.373-29.276,16.537-58.614,24.701-87.949
							c1.216-4.371,2.982-8.18,8.312-7.261C218.417,147.217,220.012,150.383,219.515,154.478z"/>
						<path class="st3" d="M173.4,229.604c0.101,2.816-1.326,4.808-3.665,6.039c-2.407,1.268-4.913,1.035-6.974-0.799
							c-11.387-10.113-22.793-20.207-34.033-30.481c-2.869-2.623-2.942-6.2-0.09-8.862c11.13-10.391,22.397-20.643,33.749-30.795
							c2.885-2.578,6.227-2.278,8.885,0.61c3.04,3.303,2.304,6.699-0.699,9.526c-7.461,7.025-14.922,14.058-22.661,20.768
							c-3.682,3.194-3.624,5.315,0.068,8.422c7.199,6.064,14.091,12.493,21.066,18.818
							C171.076,224.693,173.349,226.451,173.4,229.604z"/>
						<path class="st3" d="M233.091,236.017c-2.805-0.071-4.721-1.598-5.793-4.022c-1.448-3.274-0.052-5.873,2.395-8.11
							c6.948-6.358,13.598-13.084,20.909-18.988c5.505-4.447,4.639-7.304-0.309-11.334c-7.077-5.768-13.661-12.143-20.456-18.253
							c-3.243-2.918-4.975-6.314-1.692-10.079c3.57-4.09,7.229-2.703,10.785,0.501c9.885,8.892,19.777,17.776,29.821,26.487
							c5.327,4.62,5.887,8.863,0.369,13.758c-10.153,9.006-20.14,18.2-30.196,27.318
							C237.258,234.805,235.548,236.206,233.091,236.017z"/>
					</g>
				</g>
			</g>
		</g>
	</g>
</g>
<g>
</g>
<g>
</g>
<g>
</g>
<g>
</g>
<g>
</g>
<g>
</g>
<g>
</g>
<g>
</g>
<g>
</g>
<g>
</g>
<g>
</g>
<g>
</g>
<g>
</g>
<g>
</g>
<g>
</g>
</svg>
