<?xml version="1.0" encoding="utf-8"?>
<!-- Generator: Adobe Illustrator 26.0.1, SVG Export Plug-In . SVG Version: 6.00 Build 0)  -->
<svg version="1.1" id="Calque_1" xmlns="http://www.w3.org/2000/svg" xmlns:xlink="http://www.w3.org/1999/xlink" x="0px" y="0px"
	 viewBox="0 0 400 400" style="enable-background:new 0 0 400 400;" xml:space="preserve">
<style type="text/css">
	.st0{fill:#E07E64;}
	.st1{fill:#FDF8F7;}
	.st2{fill:#FCF6F4;}
	.st3{fill:#DF7A5F;}
</style>
<g>
	<g>
		<g>
			<path class="st0" d="M58.821,164.719c-7.667-5.385-15.46-10.05-10.379-22.272c5.186-12.473,14.408-12.954,25.388-12.156
				c22.44,1.619,27.572-10.476,21.508-29.358c-3.224-10.051-8.568-19.003,3.129-27.471c10.935-7.916,18.692-1.96,28.069,3.327
				c17.848,10.06,29.736,5.322,32.74-16.218c1.288-9.214,1.686-19.084,14.295-20.802c12.443-1.7,18.419,4.695,23.647,15.234
				c10.799,21.79,24.86,18.639,38.335,2.387c6.237-7.521,11.078-14.684,22.747-9.284c10.422,4.814,12.534,12.523,11.616,22.75
				c-2.415,26.764,11.229,30.488,32.758,22.37c7.966-3.002,15.449-5.6,22.414,2.747c7.111,8.512,7.167,16.509,1.149,25.397
				c-14.703,21.711-9.845,34.814,17.06,37.784c9.031,0.999,16.065,4.092,17.038,14.525c0.995,10.62-3.234,17.172-13.282,21.783
				c-23.321,10.688-21.751,24.974-3.923,40.029c6.315,5.335,13.609,8.924,9.58,19.934c-4.5,12.304-12.824,14.863-24.352,13.801
				c-24.211-2.218-29.537,10.035-22.47,30.664c3.056,8.939,7.431,17.106-2.477,25.051c-10.281,8.248-18.384,4.374-28.04-1.511
				c-19.391-11.821-31.415-6.061-34.188,16.94c-1.184,9.773-3.221,18.539-15.662,19.4c-10.923,0.765-16.739-4.447-21.352-14.068
				c-11.427-23.804-25.855-20.059-40.104-2.537c-5.504,6.773-9.821,12.804-20.25,8.601c-10.409-4.194-14.094-11.08-13.089-21.725
				c2.664-28.253-11.089-32.762-34.21-23.305c-8.359,3.423-15.637,3.81-21.936-4.588c-5.839-7.766-6.259-15.134-0.915-22.82
				c16.142-23.224,10.418-36.41-17.833-39.5c-7.865-0.862-13.966-3.772-15.201-12.654c-1.429-10.282,1.074-17.996,11.607-22.563
				C74.506,194.957,76.99,181.467,58.821,164.719z"/>
			<path class="st1" d="M300.076,198.691c0.49,55.42-44.98,101.05-100.37,100.74c-54.01-0.3-98.69-44.85-99.16-98.84
				c-0.48-55.59,44.71-100.95,100.3-100.67C254.876,100.181,299.596,144.711,300.076,198.691z"/>
			<path class="st2" d="M201.566,174.821c13.89,2.81,23.26,10.52,22.99,24.77c-0.29,15.63-10.01,25.07-25.68,24.3
				c-13.94-0.68-23.04-9.88-22.84-24.11C176.256,184.041,186.426,176.281,201.566,174.821z"/>
			<g>
				<g>
					<g>
						<path class="st3" d="M219.515,154.478c-3.03,10.753-6.037,21.41-9.032,32.067c-5.466,19.455-10.952,38.902-16.366,58.373
							c-1.279,4.603-3.106,9.073-8.823,7.536c-5.452-1.467-5.505-5.764-4.08-10.748c8.373-29.276,16.537-58.614,24.701-87.949
							c1.216-4.371,2.982-8.18,8.312-7.261C218.417,147.217,220.012,150.383,219.515,154.478z"/>
						<path class="st3" d="M173.4,229.604c0.101,2.816-1.326,4.808-3.665,6.039c-2.407,1.268-4.913,1.035-6.974-0.799
							c-11.387-10.113-22.793-20.207-34.033-30.481c-2.869-2.623-2.942-6.2-0.09-8.862c11.13-10.391,22.397-20.643,33.749-30.795
							c2.885-2.578,6.227-2.278,8.885,0.61c3.04,3.303,2.304,6.699-0.699,9.526c-7.461,7.025-14.922,14.058-22.661,20.768
							c-3.682,3.194-3.624,5.315,0.068,8.422c7.199,6.064,14.091,12.493,21.066,18.818
							C171.076,224.693,173.349,226.451,173.4,229.604z"/>
						<path class="st3" d="M233.091,236.017c-2.805-0.071-4.721-1.598-5.793-4.022c-1.448-3.274-0.052-5.873,2.395-8.11
							c6.948-6.358,13.598-13.084,20.909-18.988c5.505-4.447,4.639-7.304-0.309-11.334c-7.077-5.768-13.661-12.143-20.456-18.253
							c-3.243-2.918-4.975-6.314-1.692-10.079c3.57-4.09,7.229-2.703,10.785,0.501c9.885,8.892,19.777,17.776,29.821,26.487
							c5.327,4.62,5.887,8.863,0.369,13.758c-10.153,9.006-20.14,18.2-30.196,27.318
							C237.258,234.805,235.548,236.206,233.091,236.017z"/>
					</g>
				</g>
			</g>
		</g>
	</g>
</g>
<g>
</g>
<g>
</g>
<g>
</g>
<g>
</g>
<g>
</g>
<g>
</g>
<g>
</g>
<g>
</g>
<g>
</g>
<g>
</g>
<g>
</g>
<g>
</g>
<g>
</g>
<g>
</g>
<g>
</g>
</svg>
