<?xml version="1.0" encoding="utf-8"?>
<!-- Generator: Adobe Illustrator 26.0.1, SVG Export Plug-In . SVG Version: 6.00 Build 0)  -->
<svg version="1.1" id="Calque_1" xmlns="http://www.w3.org/2000/svg" xmlns:xlink="http://www.w3.org/1999/xlink" x="0px" y="0px"
	 viewBox="0 0 400 400" style="enable-background:new 0 0 400 400;" xml:space="preserve">
<style type="text/css">
	.st0{fill:#E07E64;}
	.st1{fill:#FDF8F7;}
	.st2{fill:#FCF6F4;}
	.st3{fill:#DF7A5F;}
</style>
<g>
	<g>
		<g>
			<path class="st0" d="M272.941,73.253c7.29-5.886,13.922-12.091,24.27-3.838c10.561,8.423,8.481,17.421,4.687,27.755
				c-7.742,21.124,2.47,29.391,22.292,28.767c10.55-0.328,20.628-2.998,25.545,10.58c4.595,12.694-3.268,18.508-10.935,26.065
				c-14.59,14.384-13.313,27.117,6.566,35.942c8.502,3.778,17.88,6.881,16.056,19.475c-1.796,12.43-9.59,16.412-21.161,18.532
				c-23.922,4.375-24.769,18.759-12.861,36.192c5.511,8.068,11.062,14.696,2.654,24.424c-7.5,8.691-15.493,8.597-25.07,4.895
				c-25.062-9.699-32.402,2.39-30.533,25.323c0.69,8.485,1.125,16.394-8.818,20.788c-10.142,4.49-17.845,2.338-24.73-5.896
				c-16.818-20.118-30.752-19.059-41.023,5.985c-3.45,8.406-8.361,14.315-18.658,12.374c-10.483-1.97-15.615-7.842-17.278-18.771
				c-3.846-25.363-18.011-27.792-37.397-14.805c-6.869,4.6-12.33,10.622-21.802,3.714c-10.587-7.717-10.752-16.424-6.554-27.213
				c8.805-22.662-1.504-31.159-23.283-30.052c-9.435,0.474-18.491,2.428-23.398-9.286c-5.095-12.156,0.862-18.878,9.181-26.537
				c16.708-15.381,14.485-28.528-6.861-37.533c-9.068-3.831-16.933-8.206-14.331-20.402c2.276-10.711,8.888-14.865,19.408-16.647
				c26.031-4.423,26.409-19.325,13.493-37.851c-4.994-7.158-9.601-12.97-2.686-21.837c6.901-8.85,14.535-10.494,24.491-6.593
				c26.424,10.348,34.55-1.629,31.831-26.461c-0.987-8.978,0.648-16.082,10.456-19.821c9.075-3.472,16.273-1.845,22.188,5.411
				c17.875,21.918,32.128,20.05,42.886-6.254c2.997-7.323,7.475-12.385,16.353-11.124c10.278,1.46,17.003,5.993,18.49,17.377
				C239.551,79.995,251.833,86.101,272.941,73.253z"/>
			<path class="st1" d="M300.076,198.691c0.49,55.42-44.98,101.05-100.37,100.74c-54.01-0.3-98.69-44.85-99.16-98.84
				c-0.48-55.59,44.71-100.95,100.3-100.67C254.876,100.181,299.596,144.711,300.076,198.691z"/>
			<path class="st2" d="M201.566,174.821c13.89,2.81,23.26,10.52,22.99,24.77c-0.29,15.63-10.01,25.07-25.68,24.3
				c-13.94-0.68-23.04-9.88-22.84-24.11C176.256,184.041,186.426,176.281,201.566,174.821z"/>
			<g>
				<g>
					<g>
						<path class="st3" d="M219.515,154.478c-3.03,10.753-6.037,21.41-9.032,32.067c-5.466,19.455-10.952,38.902-16.366,58.373
							c-1.279,4.603-3.106,9.073-8.823,7.536c-5.452-1.467-5.505-5.764-4.08-10.748c8.373-29.276,16.537-58.614,24.701-87.949
							c1.216-4.371,2.982-8.18,8.312-7.261C218.417,147.217,220.012,150.383,219.515,154.478z"/>
						<path class="st3" d="M173.4,229.604c0.101,2.816-1.326,4.808-3.665,6.039c-2.407,1.268-4.913,1.035-6.974-0.799
							c-11.387-10.113-22.793-20.207-34.033-30.481c-2.869-2.623-2.942-6.2-0.09-8.862c11.13-10.391,22.397-20.643,33.749-30.795
							c2.885-2.578,6.227-2.278,8.885,0.61c3.04,3.303,2.304,6.699-0.699,9.526c-7.461,7.025-14.922,14.058-22.661,20.768
							c-3.682,3.194-3.624,5.315,0.068,8.422c7.199,6.064,14.091,12.493,21.066,18.818
							C171.076,224.693,173.349,226.451,173.4,229.604z"/>
						<path class="st3" d="M233.091,236.017c-2.805-0.071-4.721-1.598-5.793-4.022c-1.448-3.274-0.052-5.873,2.395-8.11
							c6.948-6.358,13.598-13.084,20.909-18.988c5.505-4.447,4.639-7.304-0.309-11.334c-7.077-5.768-13.661-12.143-20.456-18.253
							c-3.243-2.918-4.975-6.314-1.692-10.079c3.57-4.09,7.229-2.703,10.785,0.501c9.885,8.892,19.777,17.776,29.821,26.487
							c5.327,4.62,5.887,8.863,0.369,13.758c-10.153,9.006-20.14,18.2-30.196,27.318
							C237.258,234.805,235.548,236.206,233.091,236.017z"/>
					</g>
				</g>
			</g>
		</g>
	</g>
</g>
<g>
</g>
<g>
</g>
<g>
</g>
<g>
</g>
<g>
</g>
<g>
</g>
<g>
</g>
<g>
</g>
<g>
</g>
<g>
</g>
<g>
</g>
<g>
</g>
<g>
</g>
<g>
</g>
<g>
</g>
</svg>
