<?xml version="1.0" encoding="utf-8"?>
<!-- Generator: Adobe Illustrator 26.0.1, SVG Export Plug-In . SVG Version: 6.00 Build 0)  -->
<svg version="1.1" id="Calque_1" xmlns="http://www.w3.org/2000/svg" xmlns:xlink="http://www.w3.org/1999/xlink" x="0px" y="0px"
	 viewBox="0 0 400 400" style="enable-background:new 0 0 400 400;" xml:space="preserve">
<style type="text/css">
	.st0{fill:#E07E64;}
	.st1{fill:#FDF8F7;}
	.st2{fill:#FCF6F4;}
	.st3{fill:#DF7A5F;}
</style>
<g>
	<g>
		<g>
			<path class="st0" d="M344.263,176.52c9.162,1.961,18.158,3.211,18.256,16.446c0.1,13.508-8.201,17.555-18.62,21.109
				c-21.288,7.278-21.287,20.416-8.327,35.428c6.895,7.992,15.312,14.144,7.854,26.51c-6.973,11.559-16.44,9.108-27.138,7.905
				c-20.36-2.286-29.452,6.72-23.8,27.721c2.414,8.985,5.905,18.225-5.03,24.733c-10.79,6.427-18.789,2.876-27.719-4.783
				c-18.455-15.838-30.167-7.444-36.22,12.782c-2.802,9.36-4.46,17.845-17.311,17.434c-11.475-0.359-16.431-6.63-19.581-16.403
				c-8.235-25.58-22.249-23.677-38.895-7.792c-6.16,5.876-12.032,11.191-21.705,6.229c-9.872-5.056-13.047-12.396-10.981-22.929
				c5.051-25.73-4.541-35.893-30.467-28.114c-8.704,2.609-16.387,2.511-21.359-6.713c-5.066-9.387-3.733-17.071,3.715-25.241
				c17.291-18.951,10.264-31.487-12.03-38.38c-7.897-2.444-16.014-2.897-16.607-14.606c-0.665-13.084,5.998-18.692,17.024-22.219
				c23.153-7.419,23.268-20.778,8.702-37.006c-6.306-7.034-13.524-12.842-7.509-24.028c6.241-11.609,15.213-11.21,26.401-9.565
				c22.468,3.305,31.286-6.696,24.851-28.952c-2.729-9.458-4.278-18.323,6.837-23.977c9.756-4.972,17.146-2.447,25.151,4.607
				c19.819,17.447,31.638,8.362,37.907-13.334c2.42-8.385,4.037-15.623,15.28-15.829c11.22-0.207,17.302,4.692,20.536,14.883
				c8.587,27.047,23.009,25.825,40.596,8.085c6.357-6.417,12.905-9.617,21.985-4.348c8.409,4.868,11.675,11.485,9.758,20.648
				c-5.784,27.685,4.637,37.587,31.849,29.393c7.577-2.28,14.329-1.985,18.937,5.708c5.333,8.906,6.043,16.985-1.869,25.305
				C318.01,154.814,320.994,168.202,344.263,176.52z"/>
			<path class="st1" d="M300.076,198.691c0.49,55.42-44.98,101.05-100.37,100.74c-54.01-0.3-98.69-44.85-99.16-98.84
				c-0.48-55.59,44.71-100.95,100.3-100.67C254.876,100.181,299.596,144.711,300.076,198.691z"/>
			<path class="st2" d="M201.566,174.821c13.89,2.81,23.26,10.52,22.99,24.77c-0.29,15.63-10.01,25.07-25.68,24.3
				c-13.94-0.68-23.04-9.88-22.84-24.11C176.256,184.041,186.426,176.281,201.566,174.821z"/>
			<g>
				<g>
					<g>
						<path class="st3" d="M219.515,154.478c-3.03,10.753-6.037,21.41-9.032,32.067c-5.466,19.455-10.952,38.902-16.366,58.373
							c-1.279,4.603-3.106,9.073-8.823,7.536c-5.452-1.467-5.505-5.764-4.08-10.748c8.373-29.276,16.537-58.614,24.701-87.949
							c1.216-4.371,2.982-8.18,8.312-7.261C218.417,147.217,220.012,150.383,219.515,154.478z"/>
						<path class="st3" d="M173.4,229.604c0.101,2.816-1.326,4.808-3.665,6.039c-2.407,1.268-4.913,1.035-6.974-0.799
							c-11.387-10.113-22.793-20.207-34.033-30.481c-2.869-2.623-2.942-6.2-0.09-8.862c11.13-10.391,22.397-20.643,33.749-30.795
							c2.885-2.578,6.227-2.278,8.885,0.61c3.04,3.303,2.304,6.699-0.699,9.526c-7.461,7.025-14.922,14.058-22.661,20.768
							c-3.682,3.194-3.624,5.315,0.068,8.422c7.199,6.064,14.091,12.493,21.066,18.818
							C171.076,224.693,173.349,226.451,173.4,229.604z"/>
						<path class="st3" d="M233.091,236.017c-2.805-0.071-4.721-1.598-5.793-4.022c-1.448-3.274-0.052-5.873,2.395-8.11
							c6.948-6.358,13.598-13.084,20.909-18.988c5.505-4.447,4.639-7.304-0.309-11.334c-7.077-5.768-13.661-12.143-20.456-18.253
							c-3.243-2.918-4.975-6.314-1.692-10.079c3.57-4.09,7.229-2.703,10.785,0.501c9.885,8.892,19.777,17.776,29.821,26.487
							c5.327,4.62,5.887,8.863,0.369,13.758c-10.153,9.006-20.14,18.2-30.196,27.318
							C237.258,234.805,235.548,236.206,233.091,236.017z"/>
					</g>
				</g>
			</g>
		</g>
	</g>
</g>
<g>
</g>
<g>
</g>
<g>
</g>
<g>
</g>
<g>
</g>
<g>
</g>
<g>
</g>
<g>
</g>
<g>
</g>
<g>
</g>
<g>
</g>
<g>
</g>
<g>
</g>
<g>
</g>
<g>
</g>
</svg>
