<?xml version="1.0" encoding="utf-8"?>
<!-- Generator: Adobe Illustrator 26.0.1, SVG Export Plug-In . SVG Version: 6.00 Build 0)  -->
<svg version="1.1" id="Calque_1" xmlns="http://www.w3.org/2000/svg" xmlns:xlink="http://www.w3.org/1999/xlink" x="0px" y="0px"
	 viewBox="0 0 400 400" style="enable-background:new 0 0 400 400;" xml:space="preserve">
<style type="text/css">
	.st0{fill:#E07E64;}
	.st1{fill:#FDF8F7;}
	.st2{fill:#FCF6F4;}
	.st3{fill:#DF7A5F;}
</style>
<g>
	<g>
		<g>
			<path class="st0" d="M257.597,333.699c0.314,9.364,1.278,18.396-11.541,21.692c-13.083,3.365-19.017-3.711-24.987-12.96
				c-12.212-18.895-24.96-15.715-36.39,0.491c-6.087,8.624-10.02,18.279-23.823,14.034c-12.903-3.969-12.815-13.749-14.235-24.419
				c-2.707-20.308-13.645-26.952-32.656-16.387c-8.134,4.516-16.256,10.139-25.216,1.103c-8.846-8.915-7.336-17.536-2.065-28.053
				c10.903-21.738-0.075-31.071-21.165-32.052c-9.76-0.455-18.394-0.01-21.104-12.579c-2.428-11.221,2.458-17.547,11.178-22.968
				c22.828-14.179,17.591-27.316-1.849-39.624c-7.192-4.555-13.77-8.968-11.295-19.553c2.518-10.802,8.872-15.659,19.591-16.202
				c26.188-1.324,33.728-13.089,19.909-36.364c-4.637-7.814-6.4-15.293,1.346-22.348c7.883-7.186,15.66-7.752,25.389-2.502
				c22.571,12.193,33.035,2.341,34.33-20.957c0.46-8.254-1.063-16.24,10.155-19.647c12.534-3.811,19.588,1.297,25.677,11.143
				c12.8,20.67,25.79,17.551,38.012-0.509c5.299-7.82,9.189-16.229,21.497-13.098c12.774,3.247,14.557,12.05,15.668,23.303
				c2.229,22.6,14.066,28.736,34.104,17.109c8.517-4.936,16.744-8.584,24.919,0.833c7.184,8.263,6.522,16.044,1.614,25.519
				c-12.134,23.451-0.46,32.721,22.109,33.555c8.722,0.319,16.136,0.138,19.056,10.997c2.915,10.837-0.367,17.924-9.473,23.527
				c-24.167,14.875-19.491,28.573,1.976,41.346c7.764,4.615,12.453,10.196,9.537,20.28c-2.689,9.337-8.32,14.106-17.674,14.464
				c-28.262,1.085-35.348,13.592-20.815,38.014c4.045,6.801,5.393,13.423-0.958,19.755c-7.351,7.329-15.019,9.973-25.005,4.309
				C272.306,302.975,260.038,309.109,257.597,333.699z"/>
			<path class="st1" d="M300.076,198.691c0.49,55.42-44.98,101.05-100.37,100.74c-54.01-0.3-98.69-44.85-99.16-98.84
				c-0.48-55.59,44.71-100.95,100.3-100.67C254.876,100.181,299.596,144.711,300.076,198.691z"/>
			<path class="st2" d="M201.566,174.821c13.89,2.81,23.26,10.52,22.99,24.77c-0.29,15.63-10.01,25.07-25.68,24.3
				c-13.94-0.68-23.04-9.88-22.84-24.11C176.256,184.041,186.426,176.281,201.566,174.821z"/>
			<g>
				<g>
					<g>
						<path class="st3" d="M219.515,154.478c-3.03,10.753-6.037,21.41-9.032,32.067c-5.466,19.455-10.952,38.902-16.366,58.373
							c-1.279,4.603-3.106,9.073-8.823,7.536c-5.452-1.467-5.505-5.764-4.08-10.748c8.373-29.276,16.537-58.614,24.701-87.949
							c1.216-4.371,2.982-8.18,8.312-7.261C218.417,147.217,220.012,150.383,219.515,154.478z"/>
						<path class="st3" d="M173.4,229.604c0.101,2.816-1.326,4.808-3.665,6.039c-2.407,1.268-4.913,1.035-6.974-0.799
							c-11.387-10.113-22.793-20.207-34.033-30.481c-2.869-2.623-2.942-6.2-0.09-8.862c11.13-10.391,22.397-20.643,33.749-30.795
							c2.885-2.578,6.227-2.278,8.885,0.61c3.04,3.303,2.304,6.699-0.699,9.526c-7.461,7.025-14.922,14.058-22.661,20.768
							c-3.682,3.194-3.624,5.315,0.068,8.422c7.199,6.064,14.091,12.493,21.066,18.818
							C171.076,224.693,173.349,226.451,173.4,229.604z"/>
						<path class="st3" d="M233.091,236.017c-2.805-0.071-4.721-1.598-5.793-4.022c-1.448-3.274-0.052-5.873,2.395-8.11
							c6.948-6.358,13.598-13.084,20.909-18.988c5.505-4.447,4.639-7.304-0.309-11.334c-7.077-5.768-13.661-12.143-20.456-18.253
							c-3.243-2.918-4.975-6.314-1.692-10.079c3.57-4.09,7.229-2.703,10.785,0.501c9.885,8.892,19.777,17.776,29.821,26.487
							c5.327,4.62,5.887,8.863,0.369,13.758c-10.153,9.006-20.14,18.2-30.196,27.318
							C237.258,234.805,235.548,236.206,233.091,236.017z"/>
					</g>
				</g>
			</g>
		</g>
	</g>
</g>
<g>
</g>
<g>
</g>
<g>
</g>
<g>
</g>
<g>
</g>
<g>
</g>
<g>
</g>
<g>
</g>
<g>
</g>
<g>
</g>
<g>
</g>
<g>
</g>
<g>
</g>
<g>
</g>
<g>
</g>
</svg>
