<?xml version="1.0" encoding="utf-8"?>
<!-- Generator: Adobe Illustrator 26.0.1, SVG Export Plug-In . SVG Version: 6.00 Build 0)  -->
<svg version="1.1" id="Calque_1" xmlns="http://www.w3.org/2000/svg" xmlns:xlink="http://www.w3.org/1999/xlink" x="0px" y="0px"
	 viewBox="0 0 400 400" style="enable-background:new 0 0 400 400;" xml:space="preserve">
<style type="text/css">
	.st0{fill:#E07E64;}
	.st1{fill:#FDF8F7;}
	.st2{fill:#FCF6F4;}
	.st3{fill:#DF7A5F;}
</style>
<g>
	<g>
		<g>
			<path class="st0" d="M263.945,68.495c6.861-6.38,13.045-13.033,23.943-5.522c11.123,7.666,9.676,16.787,6.612,27.36
				c-6.249,21.613,4.515,29.147,24.244,27.141c10.502-1.064,20.369-4.43,26.22,8.772c5.469,12.342-1.969,18.691-9.09,26.764
				c-13.551,15.367-11.389,27.98,9.057,35.396c8.745,3.176,18.316,5.617,17.375,18.307c-0.925,12.525-8.422,17.041-19.817,19.963
				c-23.559,6.033-23.4,20.441-10.305,37.001c6.06,7.664,12.06,13.889,4.352,24.18c-6.876,9.194-14.855,9.657-24.668,6.632
				c-25.677-7.927-32.156,4.645-28.692,27.391c1.28,8.416,2.266,16.275-7.347,21.353c-9.804,5.186-17.638,3.578-25.081-4.157
				c-18.18-18.896-32.006-16.868-40.505,8.832c-2.855,8.626-7.342,14.863-17.75,13.645c-10.595-1.234-16.124-6.734-18.545-17.52
				c-5.606-25.033-19.906-26.468-38.339-12.16c-6.531,5.067-11.559,11.456-21.49,5.226c-11.099-6.96-11.872-15.634-8.436-26.689
				c7.203-23.221-3.674-30.978-25.323-28.354c-9.379,1.131-18.277,3.712-23.989-7.631c-5.93-11.771-0.456-18.892,7.308-27.113
				c15.595-16.509,12.46-29.468-9.462-36.963c-9.313-3.19-17.464-7.005-15.719-19.353c1.523-10.843,7.83-15.449,18.2-17.96
				c25.659-6.228,24.996-21.12,10.82-38.7c-5.481-6.792-10.482-12.268-4.202-21.596c6.267-9.31,13.768-11.482,23.971-8.286
				c27.081,8.48,34.352-4.035,29.908-28.617c-1.61-8.888-0.475-16.088,9.048-20.502c8.811-4.096,16.104-2.976,22.511,3.85
				c19.36,20.618,33.449,17.76,42.345-9.23c2.479-7.514,6.593-12.877,15.538-12.238c10.354,0.74,17.38,4.792,19.657,16.045
				C231.107,77.55,243.785,82.785,263.945,68.495z"/>
			<path class="st1" d="M300.076,198.691c0.49,55.42-44.98,101.05-100.37,100.74c-54.01-0.3-98.69-44.85-99.16-98.84
				c-0.48-55.59,44.71-100.95,100.3-100.67C254.876,100.181,299.596,144.711,300.076,198.691z"/>
			<path class="st2" d="M201.566,174.821c13.89,2.81,23.26,10.52,22.99,24.77c-0.29,15.63-10.01,25.07-25.68,24.3
				c-13.94-0.68-23.04-9.88-22.84-24.11C176.256,184.041,186.426,176.281,201.566,174.821z"/>
			<g>
				<g>
					<g>
						<path class="st3" d="M219.515,154.478c-3.03,10.753-6.037,21.41-9.032,32.067c-5.466,19.455-10.952,38.902-16.366,58.373
							c-1.279,4.603-3.106,9.073-8.823,7.536c-5.452-1.467-5.505-5.764-4.08-10.748c8.373-29.276,16.537-58.614,24.701-87.949
							c1.216-4.371,2.982-8.18,8.312-7.261C218.417,147.217,220.012,150.383,219.515,154.478z"/>
						<path class="st3" d="M173.4,229.604c0.101,2.816-1.326,4.808-3.665,6.039c-2.407,1.268-4.913,1.035-6.974-0.799
							c-11.387-10.113-22.793-20.207-34.033-30.481c-2.869-2.623-2.942-6.2-0.09-8.862c11.13-10.391,22.397-20.643,33.749-30.795
							c2.885-2.578,6.227-2.278,8.885,0.61c3.04,3.303,2.304,6.699-0.699,9.526c-7.461,7.025-14.922,14.058-22.661,20.768
							c-3.682,3.194-3.624,5.315,0.068,8.422c7.199,6.064,14.091,12.493,21.066,18.818
							C171.076,224.693,173.349,226.451,173.4,229.604z"/>
						<path class="st3" d="M233.091,236.017c-2.805-0.071-4.721-1.598-5.793-4.022c-1.448-3.274-0.052-5.873,2.395-8.11
							c6.948-6.358,13.598-13.084,20.909-18.988c5.505-4.447,4.639-7.304-0.309-11.334c-7.077-5.768-13.661-12.143-20.456-18.253
							c-3.243-2.918-4.975-6.314-1.692-10.079c3.57-4.09,7.229-2.703,10.785,0.501c9.885,8.892,19.777,17.776,29.821,26.487
							c5.327,4.62,5.887,8.863,0.369,13.758c-10.153,9.006-20.14,18.2-30.196,27.318
							C237.258,234.805,235.548,236.206,233.091,236.017z"/>
					</g>
				</g>
			</g>
		</g>
	</g>
</g>
<g>
</g>
<g>
</g>
<g>
</g>
<g>
</g>
<g>
</g>
<g>
</g>
<g>
</g>
<g>
</g>
<g>
</g>
<g>
</g>
<g>
</g>
<g>
</g>
<g>
</g>
<g>
</g>
<g>
</g>
</svg>
