<?xml version="1.0" encoding="utf-8"?>
<!-- Generator: Adobe Illustrator 26.0.1, SVG Export Plug-In . SVG Version: 6.00 Build 0)  -->
<svg version="1.1" id="Calque_1" xmlns="http://www.w3.org/2000/svg" xmlns:xlink="http://www.w3.org/1999/xlink" x="0px" y="0px"
	 viewBox="0 0 400 400" style="enable-background:new 0 0 400 400;" xml:space="preserve">
<style type="text/css">
	.st0{fill:#E07E64;}
	.st1{fill:#FDF8F7;}
	.st2{fill:#FCF6F4;}
	.st3{fill:#DF7A5F;}
</style>
<g>
	<g>
		<g>
			<path class="st0" d="M147.8,63.691c0.013-9.369-0.635-18.429,12.291-21.276c13.192-2.906,18.876,4.372,24.519,13.824
				c11.545,19.31,24.396,16.577,36.385,0.779c6.384-8.406,10.652-17.918,24.298-13.194c12.757,4.417,12.327,14.187,13.374,24.901
				c1.997,20.39,12.696,27.411,32.064,17.517c8.287-4.23,16.6-9.565,25.239-0.222c8.53,9.218,6.719,17.781,1.084,28.108
				c-11.655,21.344-1.009,31.055,20.033,32.771c9.738,0.795,18.382,0.652,20.652,13.308c2.035,11.298-3.069,17.45-11.973,22.564
				c-23.309,13.373-18.533,26.685,0.465,39.665c7.028,4.803,13.448,9.443,10.606,19.936c-2.893,10.707-9.413,15.34-20.145,15.508
				c-26.218,0.409-34.165,11.904-21.166,35.647c4.362,7.971,5.863,15.507-2.126,22.288c-8.129,6.907-15.921,7.2-25.461,1.614
				c-22.132-12.973-32.933-3.493-35.04,19.747c-0.748,8.233,0.495,16.267-10.834,19.281c-12.66,3.371-19.531-1.98-25.272-12.032
				c-12.07-21.105-25.162-18.44-38.007-0.818c-5.569,7.631-9.75,15.898-21.941,12.34c-12.653-3.691-14.128-12.55-14.845-23.835
				c-1.439-22.664-13.054-29.21-33.486-18.289c-8.684,4.636-17.033,7.995-24.874-1.702c-6.892-8.509-5.958-16.262-0.723-25.559
				c12.945-23.013,1.601-32.685-20.924-34.307c-8.705-0.624-16.121-0.701-18.66-11.655c-2.535-10.932,0.992-17.9,10.288-23.182
				c24.671-14.023,20.477-27.876-0.532-41.39c-7.598-4.884-12.09-10.624-8.824-20.6c3.013-9.237,8.807-13.807,18.168-13.838
				c28.283-0.098,35.801-12.35,22.129-37.264c-3.805-6.938-4.921-13.603,1.646-19.71c7.603-7.068,15.358-9.443,25.14-3.433
				C132.027,93.883,144.502,88.181,147.8,63.691z"/>
			<path class="st1" d="M300.076,198.691c0.49,55.42-44.98,101.05-100.37,100.74c-54.01-0.3-98.69-44.85-99.16-98.84
				c-0.48-55.59,44.71-100.95,100.3-100.67C254.876,100.181,299.596,144.711,300.076,198.691z"/>
			<path class="st2" d="M201.566,174.821c13.89,2.81,23.26,10.52,22.99,24.77c-0.29,15.63-10.01,25.07-25.68,24.3
				c-13.94-0.68-23.04-9.88-22.84-24.11C176.256,184.041,186.426,176.281,201.566,174.821z"/>
			<g>
				<g>
					<g>
						<path class="st3" d="M219.515,154.478c-3.03,10.753-6.037,21.41-9.032,32.067c-5.466,19.455-10.952,38.902-16.366,58.373
							c-1.279,4.603-3.106,9.073-8.823,7.536c-5.452-1.467-5.505-5.764-4.08-10.748c8.373-29.276,16.537-58.614,24.701-87.949
							c1.216-4.371,2.982-8.18,8.312-7.261C218.417,147.217,220.012,150.383,219.515,154.478z"/>
						<path class="st3" d="M173.4,229.604c0.101,2.816-1.326,4.808-3.665,6.039c-2.407,1.268-4.913,1.035-6.974-0.799
							c-11.387-10.113-22.793-20.207-34.033-30.481c-2.869-2.623-2.942-6.2-0.09-8.862c11.13-10.391,22.397-20.643,33.749-30.795
							c2.885-2.578,6.227-2.278,8.885,0.61c3.04,3.303,2.304,6.699-0.699,9.526c-7.461,7.025-14.922,14.058-22.661,20.768
							c-3.682,3.194-3.624,5.315,0.068,8.422c7.199,6.064,14.091,12.493,21.066,18.818
							C171.076,224.693,173.349,226.451,173.4,229.604z"/>
						<path class="st3" d="M233.091,236.017c-2.805-0.071-4.721-1.598-5.793-4.022c-1.448-3.274-0.052-5.873,2.395-8.11
							c6.948-6.358,13.598-13.084,20.909-18.988c5.505-4.447,4.639-7.304-0.309-11.334c-7.077-5.768-13.661-12.143-20.456-18.253
							c-3.243-2.918-4.975-6.314-1.692-10.079c3.57-4.09,7.229-2.703,10.785,0.501c9.885,8.892,19.777,17.776,29.821,26.487
							c5.327,4.62,5.887,8.863,0.369,13.758c-10.153,9.006-20.14,18.2-30.196,27.318
							C237.258,234.805,235.548,236.206,233.091,236.017z"/>
					</g>
				</g>
			</g>
		</g>
	</g>
</g>
<g>
</g>
<g>
</g>
<g>
</g>
<g>
</g>
<g>
</g>
<g>
</g>
<g>
</g>
<g>
</g>
<g>
</g>
<g>
</g>
<g>
</g>
<g>
</g>
<g>
</g>
<g>
</g>
<g>
</g>
</svg>
