<?xml version="1.0" encoding="utf-8"?>
<!-- Generator: Adobe Illustrator 26.0.1, SVG Export Plug-In . SVG Version: 6.00 Build 0)  -->
<svg version="1.1" id="Calque_1" xmlns="http://www.w3.org/2000/svg" xmlns:xlink="http://www.w3.org/1999/xlink" x="0px" y="0px"
	 viewBox="0 0 400 400" style="enable-background:new 0 0 400 400;" xml:space="preserve">
<style type="text/css">
	.st0{fill:#E07E64;}
	.st1{fill:#FDF8F7;}
	.st2{fill:#FCF6F4;}
	.st3{fill:#DF7A5F;}
</style>
<g>
	<g>
		<g>
			<path class="st0" d="M155.618,338.391c-5.906,7.273-11.104,14.722-22.941,8.8c-12.081-6.043-11.918-15.277-10.355-26.174
				c3.18-22.272-8.527-28.235-27.786-23.503c-10.252,2.515-19.554,7.222-27.186-5.038c-7.134-11.461-0.651-18.783,5.277-27.769
				c11.28-17.103,7.384-29.293-13.895-33.791c-9.102-1.928-18.92-3.013-19.754-15.711c-0.828-12.532,5.968-18.047,16.846-22.526
				c22.49-9.253,20.328-23.499,5.055-38.075c-7.068-6.746-13.875-12.075-7.675-23.339c5.529-10.061,13.367-11.63,23.505-10
				c26.531,4.276,31.197-9.075,24.6-31.118c-2.439-8.156-4.509-15.802,4.304-22.167c8.987-6.5,16.969-5.997,25.415,0.626
				c20.633,16.182,34.042,12.249,38.882-14.383c1.627-8.94,5.202-15.741,15.678-15.983c10.664-0.252,16.905,4.424,20.803,14.769
				c9.035,24.01,23.396,23.44,39.658,6.706c5.762-5.927,9.852-12.953,20.553-8.166c11.96,5.347,13.932,13.83,12.068,25.255
				c-3.901,23.997,7.95,30.165,29.022,24.554c9.13-2.425,17.582-6.22,24.818,4.218c7.511,10.831,3.081,18.644-3.463,27.866
				c-13.145,18.519-8.237,30.916,14.514,35.286c9.666,1.862,18.269,4.507,18.26,16.977c0.001,10.95-5.604,16.388-15.523,20.318
				c-24.543,9.738-21.814,24.393-5.328,39.829c6.373,5.963,12.088,10.69,7.167,20.801c-4.91,10.091-12.036,13.286-22.585,11.541
				c-27.998-4.628-33.456,8.777-25.634,32.501c2.832,8.577,2.71,15.865-6.107,21.562c-8.155,5.283-15.534,5.188-22.828-0.679
				c-22.041-17.723-35.595-12.932-40.648,15.034c-1.409,7.786-4.737,13.669-13.683,14.281c-10.357,0.708-17.878-2.327-21.698-13.153
				C186.877,324.854,173.593,321.435,155.618,338.391z"/>
			<path class="st1" d="M300.076,198.691c0.49,55.42-44.98,101.05-100.37,100.74c-54.01-0.3-98.69-44.85-99.16-98.84
				c-0.48-55.59,44.71-100.95,100.3-100.67C254.876,100.181,299.596,144.711,300.076,198.691z"/>
			<path class="st2" d="M201.566,174.821c13.89,2.81,23.26,10.52,22.99,24.77c-0.29,15.63-10.01,25.07-25.68,24.3
				c-13.94-0.68-23.04-9.88-22.84-24.11C176.256,184.041,186.426,176.281,201.566,174.821z"/>
			<g>
				<g>
					<g>
						<path class="st3" d="M219.515,154.478c-3.03,10.753-6.037,21.41-9.032,32.067c-5.466,19.455-10.952,38.902-16.366,58.373
							c-1.279,4.603-3.106,9.073-8.823,7.536c-5.452-1.467-5.505-5.764-4.08-10.748c8.373-29.276,16.537-58.614,24.701-87.949
							c1.216-4.371,2.982-8.18,8.312-7.261C218.417,147.217,220.012,150.383,219.515,154.478z"/>
						<path class="st3" d="M173.4,229.604c0.101,2.816-1.326,4.808-3.665,6.039c-2.407,1.268-4.913,1.035-6.974-0.799
							c-11.387-10.113-22.793-20.207-34.033-30.481c-2.869-2.623-2.942-6.2-0.09-8.862c11.13-10.391,22.397-20.643,33.749-30.795
							c2.885-2.578,6.227-2.278,8.885,0.61c3.04,3.303,2.304,6.699-0.699,9.526c-7.461,7.025-14.922,14.058-22.661,20.768
							c-3.682,3.194-3.624,5.315,0.068,8.422c7.199,6.064,14.091,12.493,21.066,18.818
							C171.076,224.693,173.349,226.451,173.4,229.604z"/>
						<path class="st3" d="M233.091,236.017c-2.805-0.071-4.721-1.598-5.793-4.022c-1.448-3.274-0.052-5.873,2.395-8.11
							c6.948-6.358,13.598-13.084,20.909-18.988c5.505-4.447,4.639-7.304-0.309-11.334c-7.077-5.768-13.661-12.143-20.456-18.253
							c-3.243-2.918-4.975-6.314-1.692-10.079c3.57-4.09,7.229-2.703,10.785,0.501c9.885,8.892,19.777,17.776,29.821,26.487
							c5.327,4.62,5.887,8.863,0.369,13.758c-10.153,9.006-20.14,18.2-30.196,27.318
							C237.258,234.805,235.548,236.206,233.091,236.017z"/>
					</g>
				</g>
			</g>
		</g>
	</g>
</g>
<g>
</g>
<g>
</g>
<g>
</g>
<g>
</g>
<g>
</g>
<g>
</g>
<g>
</g>
<g>
</g>
<g>
</g>
<g>
</g>
<g>
</g>
<g>
</g>
<g>
</g>
<g>
</g>
<g>
</g>
</svg>
