<?xml version="1.0" encoding="utf-8"?>
<!-- Generator: Adobe Illustrator 26.0.1, SVG Export Plug-In . SVG Version: 6.00 Build 0)  -->
<svg version="1.1" id="Calque_1" xmlns="http://www.w3.org/2000/svg" xmlns:xlink="http://www.w3.org/1999/xlink" x="0px" y="0px"
	 viewBox="0 0 400 400" style="enable-background:new 0 0 400 400;" xml:space="preserve">
<style type="text/css">
	.st0{fill:#E07E64;}
	.st1{fill:#FDF8F7;}
	.st2{fill:#FCF6F4;}
	.st3{fill:#DF7A5F;}
</style>
<g>
	<g>
		<g>
			<path class="st0" d="M242.637,60.156c5.779-7.375,10.846-14.913,22.784-9.199c12.185,5.832,12.183,15.067,10.811,25.989
				c-2.791,22.324,9.019,28.082,28.192,23.015c10.206-2.693,19.425-7.562,27.27,4.563c7.333,11.335,0.979,18.769-4.791,27.856
				c-10.98,17.297-6.871,29.417,14.482,33.544c9.134,1.769,18.969,2.682,20.025,15.364c1.046,12.515-5.652,18.148-16.45,22.817
				c-22.325,9.644-19.914,23.85-4.39,38.158c7.184,6.622,14.084,11.831,8.081,23.201c-5.353,10.156-13.162,11.862-23.327,10.409
				c-26.601-3.812-31.034,9.618-24.054,31.542c2.581,8.112,4.784,15.72-3.916,22.239c-8.872,6.656-16.861,6.293-25.422-0.182
				c-20.912-15.819-34.251-11.653-38.625,15.059c-1.47,8.967-4.927,15.829-15.397,16.254c-10.658,0.438-16.979-4.128-21.058-14.403
				c-9.453-23.848-23.801-23.028-39.769-6.012c-5.658,6.027-9.624,13.123-20.408,8.523c-12.051-5.138-14.171-13.585-12.507-25.041
				c3.482-24.062-8.475-30.022-29.446-24.044c-9.086,2.584-17.471,6.526-24.887-3.784c-7.698-10.698-3.406-18.588,2.976-27.922
				c12.82-18.746,7.696-31.055-15.128-35.028c-9.697-1.693-18.345-4.187-18.553-16.656c-0.192-10.948,5.317-16.483,15.166-20.586
				c24.369-10.165,21.385-24.77,4.633-39.916c-6.476-5.851-12.272-10.478-7.529-20.673c4.733-10.175,11.802-13.494,22.38-11.934
				c28.074,4.139,33.298-9.36,25.063-32.943c-2.981-8.526-2.986-15.815,5.73-21.666c8.061-5.424,15.441-5.458,22.836,0.281
				c22.347,17.335,35.815,12.309,40.38-15.741c1.273-7.81,4.497-13.749,13.432-14.518c10.343-0.889,17.915,2.014,21.925,12.772
				C211.619,74.237,224.961,77.424,242.637,60.156z"/>
			<path class="st1" d="M300.076,198.691c0.49,55.42-44.98,101.05-100.37,100.74c-54.01-0.3-98.69-44.85-99.16-98.84
				c-0.48-55.59,44.71-100.95,100.3-100.67C254.876,100.181,299.596,144.711,300.076,198.691z"/>
			<path class="st2" d="M201.566,174.821c13.89,2.81,23.26,10.52,22.99,24.77c-0.29,15.63-10.01,25.07-25.68,24.3
				c-13.94-0.68-23.04-9.88-22.84-24.11C176.256,184.041,186.426,176.281,201.566,174.821z"/>
			<g>
				<g>
					<g>
						<path class="st3" d="M219.515,154.478c-3.03,10.753-6.037,21.41-9.032,32.067c-5.466,19.455-10.952,38.902-16.366,58.373
							c-1.279,4.603-3.106,9.073-8.823,7.536c-5.452-1.467-5.505-5.764-4.08-10.748c8.373-29.276,16.537-58.614,24.701-87.949
							c1.216-4.371,2.982-8.18,8.312-7.261C218.417,147.217,220.012,150.383,219.515,154.478z"/>
						<path class="st3" d="M173.4,229.604c0.101,2.816-1.326,4.808-3.665,6.039c-2.407,1.268-4.913,1.035-6.974-0.799
							c-11.387-10.113-22.793-20.207-34.033-30.481c-2.869-2.623-2.942-6.2-0.09-8.862c11.13-10.391,22.397-20.643,33.749-30.795
							c2.885-2.578,6.227-2.278,8.885,0.61c3.04,3.303,2.304,6.699-0.699,9.526c-7.461,7.025-14.922,14.058-22.661,20.768
							c-3.682,3.194-3.624,5.315,0.068,8.422c7.199,6.064,14.091,12.493,21.066,18.818
							C171.076,224.693,173.349,226.451,173.4,229.604z"/>
						<path class="st3" d="M233.091,236.017c-2.805-0.071-4.721-1.598-5.793-4.022c-1.448-3.274-0.052-5.873,2.395-8.11
							c6.948-6.358,13.598-13.084,20.909-18.988c5.505-4.447,4.639-7.304-0.309-11.334c-7.077-5.768-13.661-12.143-20.456-18.253
							c-3.243-2.918-4.975-6.314-1.692-10.079c3.57-4.09,7.229-2.703,10.785,0.501c9.885,8.892,19.777,17.776,29.821,26.487
							c5.327,4.62,5.887,8.863,0.369,13.758c-10.153,9.006-20.14,18.2-30.196,27.318
							C237.258,234.805,235.548,236.206,233.091,236.017z"/>
					</g>
				</g>
			</g>
		</g>
	</g>
</g>
<g>
</g>
<g>
</g>
<g>
</g>
<g>
</g>
<g>
</g>
<g>
</g>
<g>
</g>
<g>
</g>
<g>
</g>
<g>
</g>
<g>
</g>
<g>
</g>
<g>
</g>
<g>
</g>
<g>
</g>
</svg>
