<?xml version="1.0" encoding="utf-8"?>
<!-- Generator: Adobe Illustrator 26.0.1, SVG Export Plug-In . SVG Version: 6.00 Build 0)  -->
<svg version="1.1" id="Calque_1" xmlns="http://www.w3.org/2000/svg" xmlns:xlink="http://www.w3.org/1999/xlink" x="0px" y="0px"
	 viewBox="0 0 400 400" style="enable-background:new 0 0 400 400;" xml:space="preserve">
<style type="text/css">
	.st0{fill:#E07E64;}
	.st1{fill:#FDF8F7;}
	.st2{fill:#FCF6F4;}
	.st3{fill:#DF7A5F;}
</style>
<g>
	<g>
		<g>
			<path class="st0" d="M281.582,78.626c7.682-5.363,14.732-11.09,24.478-2.136c9.947,9.139,7.245,17.97,2.74,28.014
				c-9.196,20.533,0.414,29.492,20.231,30.252c10.548,0.408,20.787-1.552,24.744,12.336c3.698,12.983-4.551,18.235-12.727,25.238
				c-15.557,13.331-15.172,26.123,4.042,36.312c8.218,4.362,17.356,8.111,14.658,20.547c-2.659,12.274-10.711,15.703-22.402,17.01
				c-24.169,2.696-26.017,16.986-15.354,35.207c4.934,8.433,10.01,15.432,0.944,24.55c-8.088,8.147-16.054,7.495-25.351,3.134
				c-24.324-11.423-32.49,0.124-32.225,23.132c0.097,8.512-0.021,16.432-10.247,20.122c-10.43,3.771-17.965,1.088-24.258-7.607
				c-15.373-21.242-29.347-21.158-41.34,3.108c-4.028,8.145-9.34,13.697-19.476,11.042c-10.32-2.697-15.03-8.912-15.926-19.931
				c-2.067-25.57-16.028-28.981-36.274-17.377c-7.173,4.109-13.041,9.736-22.008,2.184c-10.023-8.437-9.58-17.134-4.64-27.603
				c10.365-21.993,0.673-31.188-21.13-31.602c-9.445-0.185-18.616,1.132-22.694-10.895c-4.234-12.481,2.177-18.772,11.01-25.832
				c17.741-14.178,16.44-27.448-4.226-37.92c-8.779-4.455-16.319-9.367-12.873-21.352c3.018-10.526,9.904-14.208,20.522-15.252
				c26.276-2.596,27.692-17.436,16.1-36.818c-4.482-7.489-8.673-13.608-1.156-21.971c7.501-8.347,15.232-9.454,24.891-4.869
				c25.638,12.166,34.579,0.785,33.6-24.176c-0.358-9.025,1.768-15.997,11.814-19.044c9.295-2.83,16.362-0.705,21.756,6.945
				c16.303,23.112,30.651,22.243,43.217-3.247c3.5-7.096,8.321-11.834,17.09-9.956c10.151,2.174,16.544,7.164,17.232,18.624
				C247.803,83.023,259.629,89.971,281.582,78.626z"/>
			<path class="st1" d="M300.076,198.691c0.49,55.42-44.98,101.05-100.37,100.74c-54.01-0.3-98.69-44.85-99.16-98.84
				c-0.48-55.59,44.71-100.95,100.3-100.67C254.876,100.181,299.596,144.711,300.076,198.691z"/>
			<path class="st2" d="M201.566,174.821c13.89,2.81,23.26,10.52,22.99,24.77c-0.29,15.63-10.01,25.07-25.68,24.3
				c-13.94-0.68-23.04-9.88-22.84-24.11C176.256,184.041,186.426,176.281,201.566,174.821z"/>
			<g>
				<g>
					<g>
						<path class="st3" d="M219.515,154.478c-3.03,10.753-6.037,21.41-9.032,32.067c-5.466,19.455-10.952,38.902-16.366,58.373
							c-1.279,4.603-3.106,9.073-8.823,7.536c-5.452-1.467-5.505-5.764-4.08-10.748c8.373-29.276,16.537-58.614,24.701-87.949
							c1.216-4.371,2.982-8.18,8.312-7.261C218.417,147.217,220.012,150.383,219.515,154.478z"/>
						<path class="st3" d="M173.4,229.604c0.101,2.816-1.326,4.808-3.665,6.039c-2.407,1.268-4.913,1.035-6.974-0.799
							c-11.387-10.113-22.793-20.207-34.033-30.481c-2.869-2.623-2.942-6.2-0.09-8.862c11.13-10.391,22.397-20.643,33.749-30.795
							c2.885-2.578,6.227-2.278,8.885,0.61c3.04,3.303,2.304,6.699-0.699,9.526c-7.461,7.025-14.922,14.058-22.661,20.768
							c-3.682,3.194-3.624,5.315,0.068,8.422c7.199,6.064,14.091,12.493,21.066,18.818
							C171.076,224.693,173.349,226.451,173.4,229.604z"/>
						<path class="st3" d="M233.091,236.017c-2.805-0.071-4.721-1.598-5.793-4.022c-1.448-3.274-0.052-5.873,2.395-8.11
							c6.948-6.358,13.598-13.084,20.909-18.988c5.505-4.447,4.639-7.304-0.309-11.334c-7.077-5.768-13.661-12.143-20.456-18.253
							c-3.243-2.918-4.975-6.314-1.692-10.079c3.57-4.09,7.229-2.703,10.785,0.501c9.885,8.892,19.777,17.776,29.821,26.487
							c5.327,4.62,5.887,8.863,0.369,13.758c-10.153,9.006-20.14,18.2-30.196,27.318
							C237.258,234.805,235.548,236.206,233.091,236.017z"/>
					</g>
				</g>
			</g>
		</g>
	</g>
</g>
<g>
</g>
<g>
</g>
<g>
</g>
<g>
</g>
<g>
</g>
<g>
</g>
<g>
</g>
<g>
</g>
<g>
</g>
<g>
</g>
<g>
</g>
<g>
</g>
<g>
</g>
<g>
</g>
<g>
</g>
</svg>
