<?xml version="1.0" encoding="utf-8"?>
<!-- Generator: Adobe Illustrator 26.0.1, SVG Export Plug-In . SVG Version: 6.00 Build 0)  -->
<svg version="1.1" id="Calque_1" xmlns="http://www.w3.org/2000/svg" xmlns:xlink="http://www.w3.org/1999/xlink" x="0px" y="0px"
	 viewBox="0 0 400 400" style="enable-background:new 0 0 400 400;" xml:space="preserve">
<style type="text/css">
	.st0{fill:#E07E64;}
	.st1{fill:#FDF8F7;}
	.st2{fill:#FCF6F4;}
	.st3{fill:#DF7A5F;}
</style>
<g>
	<g>
		<g>
			<path class="st0" d="M131.62,71.109c-1.129-9.301-2.876-18.214,9.606-22.616c12.74-4.492,19.268,2.039,26.021,10.733
				c13.812,17.759,26.234,13.48,36.208-3.661c5.312-9.121,8.388-19.083,22.509-16.057c13.2,2.83,13.964,12.579,16.309,23.086
				c4.467,19.995,15.942,25.66,33.96,13.478c7.71-5.208,15.31-11.517,25.024-3.296c9.589,8.11,8.836,16.829,4.502,27.766
				c-8.967,22.606,2.783,30.946,23.878,30.086c9.762-0.398,18.325-1.593,22.12,10.692c3.396,10.966-0.919,17.694-9.134,23.855
				c-21.506,16.114-15.143,28.745,5.295,39.312c7.561,3.911,14.499,7.733,12.956,18.495c-1.567,10.98-7.473,16.372-18.105,17.848
				c-25.973,3.601-32.459,15.979-16.663,37.961c5.301,7.38,7.709,14.677,0.606,22.38c-7.226,7.846-14.925,9.087-25.075,4.705
				c-23.548-10.179-33.113,0.547-32.373,23.87c0.261,8.262,2.474,16.085-8.404,20.457c-12.154,4.889-19.627,0.415-26.55-8.863
				c-14.552-19.476-27.222-15.236-37.823,3.82c-4.598,8.252-7.74,16.968-20.274,14.922c-13.008-2.121-15.552-10.735-17.639-21.848
				c-4.19-22.32-16.517-27.401-35.465-14.071c-8.055,5.66-15.932,10.011-24.896,1.342c-7.877-7.606-7.896-15.415-3.832-25.281
				c10.044-24.419-2.394-32.636-24.949-31.501c-8.716,0.442-16.087,1.269-19.942-9.294c-3.848-10.542-1.197-17.887,7.387-24.263
				c22.778-16.925,16.927-30.163-5.572-41.017c-8.137-3.921-13.295-9.071-11.268-19.371c1.865-9.536,7.059-14.778,16.346-15.949
				c28.06-3.544,34.029-16.621,17.422-39.683c-4.622-6.422-6.542-12.902-0.768-19.763c6.685-7.942,14.092-11.244,24.534-6.472
				C119.644,102.998,131.332,95.818,131.62,71.109z"/>
			<path class="st1" d="M300.076,198.691c0.49,55.42-44.98,101.05-100.37,100.74c-54.01-0.3-98.69-44.85-99.16-98.84
				c-0.48-55.59,44.71-100.95,100.3-100.67C254.876,100.181,299.596,144.711,300.076,198.691z"/>
			<path class="st2" d="M201.566,174.821c13.89,2.81,23.26,10.52,22.99,24.77c-0.29,15.63-10.01,25.07-25.68,24.3
				c-13.94-0.68-23.04-9.88-22.84-24.11C176.256,184.041,186.426,176.281,201.566,174.821z"/>
			<g>
				<g>
					<g>
						<path class="st3" d="M219.515,154.478c-3.03,10.753-6.037,21.41-9.032,32.067c-5.466,19.455-10.952,38.902-16.366,58.373
							c-1.279,4.603-3.106,9.073-8.823,7.536c-5.452-1.467-5.505-5.764-4.08-10.748c8.373-29.276,16.537-58.614,24.701-87.949
							c1.216-4.371,2.982-8.18,8.312-7.261C218.417,147.217,220.012,150.383,219.515,154.478z"/>
						<path class="st3" d="M173.4,229.604c0.101,2.816-1.326,4.808-3.665,6.039c-2.407,1.268-4.913,1.035-6.974-0.799
							c-11.387-10.113-22.793-20.207-34.033-30.481c-2.869-2.623-2.942-6.2-0.09-8.862c11.13-10.391,22.397-20.643,33.749-30.795
							c2.885-2.578,6.227-2.278,8.885,0.61c3.04,3.303,2.304,6.699-0.699,9.526c-7.461,7.025-14.922,14.058-22.661,20.768
							c-3.682,3.194-3.624,5.315,0.068,8.422c7.199,6.064,14.091,12.493,21.066,18.818
							C171.076,224.693,173.349,226.451,173.4,229.604z"/>
						<path class="st3" d="M233.091,236.017c-2.805-0.071-4.721-1.598-5.793-4.022c-1.448-3.274-0.052-5.873,2.395-8.11
							c6.948-6.358,13.598-13.084,20.909-18.988c5.505-4.447,4.639-7.304-0.309-11.334c-7.077-5.768-13.661-12.143-20.456-18.253
							c-3.243-2.918-4.975-6.314-1.692-10.079c3.57-4.09,7.229-2.703,10.785,0.501c9.885,8.892,19.777,17.776,29.821,26.487
							c5.327,4.62,5.887,8.863,0.369,13.758c-10.153,9.006-20.14,18.2-30.196,27.318
							C237.258,234.805,235.548,236.206,233.091,236.017z"/>
					</g>
				</g>
			</g>
		</g>
	</g>
</g>
<g>
</g>
<g>
</g>
<g>
</g>
<g>
</g>
<g>
</g>
<g>
</g>
<g>
</g>
<g>
</g>
<g>
</g>
<g>
</g>
<g>
</g>
<g>
</g>
<g>
</g>
<g>
</g>
<g>
</g>
</svg>
