<?xml version="1.0" encoding="utf-8"?>
<!-- Generator: Adobe Illustrator 26.0.1, SVG Export Plug-In . SVG Version: 6.00 Build 0)  -->
<svg version="1.1" id="Calque_1" xmlns="http://www.w3.org/2000/svg" xmlns:xlink="http://www.w3.org/1999/xlink" x="0px" y="0px"
	 viewBox="0 0 400 400" style="enable-background:new 0 0 400 400;" xml:space="preserve">
<style type="text/css">
	.st0{fill:#E07E64;}
	.st1{fill:#FDF8F7;}
	.st2{fill:#FCF6F4;}
	.st3{fill:#DF7A5F;}
</style>
<g>
	<g>
		<g>
			<path class="st0" d="M103.05,308.197c-8.354,4.242-16.132,8.932-24.537-1.292c-8.579-10.435-4.674-18.804,1.186-28.123
				c11.964-19.053,3.694-29.263-15.824-32.773c-10.388-1.872-20.801-1.356-22.787-15.66c-1.856-13.372,7.045-17.424,16.115-23.222
				c17.261-11.036,18.66-23.757,1.051-36.521c-7.531-5.463-16.059-10.448-11.656-22.387c4.341-11.785,12.792-14.059,24.552-13.727
				c24.309,0.694,28.128-13.2,20.105-32.727c-3.713-9.038-7.764-16.675,2.482-24.443c9.143-6.942,16.941-5.188,25.54,0.424
				c22.498,14.697,32.191,4.399,35.13-18.422c1.089-8.443,2.308-16.269,12.948-18.5c10.854-2.283,17.941,1.423,22.963,10.909
				c12.267,23.175,26.117,25.037,41.371,2.675c5.122-7.505,11.155-12.264,20.823-8.224c9.845,4.107,13.644,10.917,12.998,21.953
				c-1.511,25.609,11.839,30.929,33.502,22.256c7.675-3.071,14.269-7.826,22.098,0.9c8.751,9.749,7.103,18.301,0.753,27.98
				c-13.324,20.336-5.007,30.791,16.526,34.236c9.327,1.498,18.592,1.469,20.956,13.948c2.456,12.949-4.769,18.286-14.498,24.048
				c-19.541,11.571-20.1,24.893-1.093,38.139c8.073,5.633,14.856,11.547,9.776,22.936c-4.453,10.003-11.785,12.692-22.445,12.248
				c-26.382-1.086-29.849,13.412-21.068,34.219c3.396,8.04,6.695,14.682-1.913,21.918c-8.59,7.222-16.399,7.242-25.326,1.357
				c-23.695-15.616-34.134-5.59-36.637,19.265c-0.902,8.987-3.977,15.595-14.349,17.214c-9.598,1.509-16.301-1.579-20.578-9.905
				c-12.927-25.155-27.258-26.292-43.249-2.799c-4.454,6.54-9.887,10.56-18.309,7.481c-9.749-3.565-15.386-9.397-14.473-20.841
				C137.112,308.544,126.368,300.018,103.05,308.197z"/>
			<path class="st1" d="M300.076,198.691c0.49,55.42-44.98,101.05-100.37,100.74c-54.01-0.3-98.69-44.85-99.16-98.84
				c-0.48-55.59,44.71-100.95,100.3-100.67C254.876,100.181,299.596,144.711,300.076,198.691z"/>
			<path class="st2" d="M201.566,174.821c13.89,2.81,23.26,10.52,22.99,24.77c-0.29,15.63-10.01,25.07-25.68,24.3
				c-13.94-0.68-23.04-9.88-22.84-24.11C176.256,184.041,186.426,176.281,201.566,174.821z"/>
			<g>
				<g>
					<g>
						<path class="st3" d="M219.515,154.478c-3.03,10.753-6.037,21.41-9.032,32.067c-5.466,19.455-10.952,38.902-16.366,58.373
							c-1.279,4.603-3.106,9.073-8.823,7.536c-5.452-1.467-5.505-5.764-4.08-10.748c8.373-29.276,16.537-58.614,24.701-87.949
							c1.216-4.371,2.982-8.18,8.312-7.261C218.417,147.217,220.012,150.383,219.515,154.478z"/>
						<path class="st3" d="M173.4,229.604c0.101,2.816-1.326,4.808-3.665,6.039c-2.407,1.268-4.913,1.035-6.974-0.799
							c-11.387-10.113-22.793-20.207-34.033-30.481c-2.869-2.623-2.942-6.2-0.09-8.862c11.13-10.391,22.397-20.643,33.749-30.795
							c2.885-2.578,6.227-2.278,8.885,0.61c3.04,3.303,2.304,6.699-0.699,9.526c-7.461,7.025-14.922,14.058-22.661,20.768
							c-3.682,3.194-3.624,5.315,0.068,8.422c7.199,6.064,14.091,12.493,21.066,18.818
							C171.076,224.693,173.349,226.451,173.4,229.604z"/>
						<path class="st3" d="M233.091,236.017c-2.805-0.071-4.721-1.598-5.793-4.022c-1.448-3.274-0.052-5.873,2.395-8.11
							c6.948-6.358,13.598-13.084,20.909-18.988c5.505-4.447,4.639-7.304-0.309-11.334c-7.077-5.768-13.661-12.143-20.456-18.253
							c-3.243-2.918-4.975-6.314-1.692-10.079c3.57-4.09,7.229-2.703,10.785,0.501c9.885,8.892,19.777,17.776,29.821,26.487
							c5.327,4.62,5.887,8.863,0.369,13.758c-10.153,9.006-20.14,18.2-30.196,27.318
							C237.258,234.805,235.548,236.206,233.091,236.017z"/>
					</g>
				</g>
			</g>
		</g>
	</g>
</g>
<g>
</g>
<g>
</g>
<g>
</g>
<g>
</g>
<g>
</g>
<g>
</g>
<g>
</g>
<g>
</g>
<g>
</g>
<g>
</g>
<g>
</g>
<g>
</g>
<g>
</g>
<g>
</g>
<g>
</g>
</svg>
