<?xml version="1.0" encoding="utf-8"?>
<!-- Generator: Adobe Illustrator 26.0.1, SVG Export Plug-In . SVG Version: 6.00 Build 0)  -->
<svg version="1.1" id="Calque_1" xmlns="http://www.w3.org/2000/svg" xmlns:xlink="http://www.w3.org/1999/xlink" x="0px" y="0px"
	 viewBox="0 0 400 400" style="enable-background:new 0 0 400 400;" xml:space="preserve">
<style type="text/css">
	.st0{fill:#E07E64;}
	.st1{fill:#FDF8F7;}
	.st2{fill:#FCF6F4;}
	.st3{fill:#DF7A5F;}
</style>
<g>
	<g>
		<g>
			<path class="st0" d="M344.984,181.555c9.088,2.279,18.035,3.842,17.671,17.073c-0.371,13.503-8.809,17.258-19.345,20.447
				c-21.529,6.53-21.986,19.661-9.558,35.115c6.612,8.228,14.809,14.67,6.924,26.768c-7.372,11.309-16.748,8.529-27.397,6.953
				c-20.268-2.995-29.669,5.688-24.753,26.874c2.099,9.064,5.265,18.42-5.891,24.543c-11.008,6.046-18.878,2.218-27.535-5.748
				c-17.891-16.472-29.888-8.492-36.644,11.51c-3.127,9.257-5.08,17.679-17.909,16.819c-11.455-0.759-16.189-7.199-18.997-17.076
				c-7.337-25.852-21.409-24.439-38.599-9.145c-6.361,5.657-12.416,10.764-21.909,5.468c-9.689-5.398-12.607-12.844-10.174-23.298
				c5.946-25.539-3.285-36.03-29.468-29.161c-8.79,2.304-16.464,1.937-21.111-7.454c-4.735-9.558-3.135-17.19,4.593-25.096
				c17.942-18.336,11.356-31.11-10.683-38.777c-7.807-2.718-15.903-3.455-16.087-15.177c-0.208-13.099,6.646-18.472,17.789-21.611
				c23.398-6.606,23.979-19.954,9.988-36.68c-6.057-7.25-13.067-13.306-6.666-24.275c6.642-11.384,15.595-10.672,26.719-8.638
				c22.339,4.087,31.5-5.6,25.846-28.067c-2.397-9.548-3.636-18.462,7.669-23.724c9.924-4.628,17.221-1.847,24.975,5.482
				c19.198,18.128,31.327,9.461,38.35-12.003c2.711-8.296,4.58-15.473,15.823-15.286c11.221,0.185,17.128,5.293,20.005,15.591
				c7.638,27.331,22.094,26.612,40.289,9.497c6.577-6.191,13.233-9.161,22.123-3.578c8.234,5.158,11.267,11.886,9.032,20.976
				c-6.747,27.466,3.322,37.725,30.804,30.486c7.652-2.014,14.39-1.484,18.726,6.366c5.019,9.087,5.447,17.186-2.751,25.224
				C319.504,158.947,322.019,172.431,344.984,181.555z"/>
			<path class="st1" d="M300.076,198.691c0.49,55.42-44.98,101.05-100.37,100.74c-54.01-0.3-98.69-44.85-99.16-98.84
				c-0.48-55.59,44.71-100.95,100.3-100.67C254.876,100.181,299.596,144.711,300.076,198.691z"/>
			<path class="st2" d="M201.566,174.821c13.89,2.81,23.26,10.52,22.99,24.77c-0.29,15.63-10.01,25.07-25.68,24.3
				c-13.94-0.68-23.04-9.88-22.84-24.11C176.256,184.041,186.426,176.281,201.566,174.821z"/>
			<g>
				<g>
					<g>
						<path class="st3" d="M219.515,154.478c-3.03,10.753-6.037,21.41-9.032,32.067c-5.466,19.455-10.952,38.902-16.366,58.373
							c-1.279,4.603-3.106,9.073-8.823,7.536c-5.452-1.467-5.505-5.764-4.08-10.748c8.373-29.276,16.537-58.614,24.701-87.949
							c1.216-4.371,2.982-8.18,8.312-7.261C218.417,147.217,220.012,150.383,219.515,154.478z"/>
						<path class="st3" d="M173.4,229.604c0.101,2.816-1.326,4.808-3.665,6.039c-2.407,1.268-4.913,1.035-6.974-0.799
							c-11.387-10.113-22.793-20.207-34.033-30.481c-2.869-2.623-2.942-6.2-0.09-8.862c11.13-10.391,22.397-20.643,33.749-30.795
							c2.885-2.578,6.227-2.278,8.885,0.61c3.04,3.303,2.304,6.699-0.699,9.526c-7.461,7.025-14.922,14.058-22.661,20.768
							c-3.682,3.194-3.624,5.315,0.068,8.422c7.199,6.064,14.091,12.493,21.066,18.818
							C171.076,224.693,173.349,226.451,173.4,229.604z"/>
						<path class="st3" d="M233.091,236.017c-2.805-0.071-4.721-1.598-5.793-4.022c-1.448-3.274-0.052-5.873,2.395-8.11
							c6.948-6.358,13.598-13.084,20.909-18.988c5.505-4.447,4.639-7.304-0.309-11.334c-7.077-5.768-13.661-12.143-20.456-18.253
							c-3.243-2.918-4.975-6.314-1.692-10.079c3.57-4.09,7.229-2.703,10.785,0.501c9.885,8.892,19.777,17.776,29.821,26.487
							c5.327,4.62,5.887,8.863,0.369,13.758c-10.153,9.006-20.14,18.2-30.196,27.318
							C237.258,234.805,235.548,236.206,233.091,236.017z"/>
					</g>
				</g>
			</g>
		</g>
	</g>
</g>
<g>
</g>
<g>
</g>
<g>
</g>
<g>
</g>
<g>
</g>
<g>
</g>
<g>
</g>
<g>
</g>
<g>
</g>
<g>
</g>
<g>
</g>
<g>
</g>
<g>
</g>
<g>
</g>
<g>
</g>
</svg>
