<?xml version="1.0" encoding="utf-8"?>
<!-- Generator: Adobe Illustrator 26.0.1, SVG Export Plug-In . SVG Version: 6.00 Build 0)  -->
<svg version="1.1" id="Calque_1" xmlns="http://www.w3.org/2000/svg" xmlns:xlink="http://www.w3.org/1999/xlink" x="0px" y="0px"
	 viewBox="0 0 56.483 47.636" style="enable-background:new 0 0 56.483 47.636;" xml:space="preserve">
<style type="text/css">
	.st0{display:none;}
	.st1{display:inline;}
	.st2{fill:#FEFEFE;}
	.st3{fill:#DF7A5F;}
	.st4{fill:#FEFDFD;}
	.st5{fill:#DF7B61;}
	.st6{display:none;fill:#DF7A5F;}
</style>
<g class="st0">
	<g class="st1">
		<path class="st2" d="M-20.415,83.636c0-33.333,0-66.667,0-100c33.333,0,66.667,0,100,0c0,33.333,0,66.667,0,100
			C46.252,83.636,12.918,83.636-20.415,83.636z M-2.367,77.461c4.241,0,8.027,0,11.636,0c1.779-3.334,2.089-6.999,4.275-9.976
			c2.625-3.574,5.739-5.677,10.368-5.937c5.398-0.304,11.079-3.178,12.639-9.631c0.308-1.272,0.87-2.246,2.12-2.235
			c2.648,0.022,4.441-1.862,6.113-3.216c1.438-1.164,1.912-1.662,3.857-0.977c2.262,0.797,4.822,0.029,6.54-1.993
			c1.155-1.359,2.411-1.909,4.24-1.93c2.377-0.027,4.713-0.671,6.365-2.646c0.791-0.946,1.739-1.177,2.96-1.353
			c3.048-0.44,6.243-1.687,7.515-4.375c1.187-2.509,2.479-5.589,0.742-8.699c-0.704-1.259-0.387-2.585,0.122-4.083
			c0.578-1.697,0.475-3.862-0.021-5.629c-0.602-2.141-1.727-4.599-4.127-5.022c-2.211-0.389-2.393-2.065-3.005-3.334
			c-1.494-3.095-3.744-5.012-7.059-5.8c-2.075-0.494-4.041-1.496-5.064-3.327c-1.397-2.502-3.834-3.518-6.07-4.571
			c-3.583-1.686-6.468-1.372-11.653-0.199c-1.333,0.302-2.636-0.042-4.11-0.765c-5.453-2.677-11.21-3.44-16.734-0.075
			c-1.717,1.046-2.98,0.963-4.878,0.415C10.235-9.1,6.159-8.571,2.907-5.192c-0.923,0.96-1.88,1.888-2.824,2.828
			c-1.166,0-2.364-0.177-3.491,0.031C-8.088-1.468-13.643,4.563-14.374,9.605c-0.146,1.01-0.21,1.833-1.054,2.586
			c-3.631,3.236-3.989,7.114-1.668,11.183c0.933,1.634,0.977,2.873,0.049,4.468c-0.683,1.175-1.114,2.575-1.332,3.927
			c-0.585,3.624,1.395,6.138,3.964,8.315c0,0.688-0.004,1.35,0.001,2.013c0.033,4.686,1.964,8.413,6.307,10.213
			c2.786,1.155,5.283,2.569,7.753,4.249c1.407,0.957,1.606,1.384,1.088,3.09c-0.529,1.742-0.611,3.693-1.043,5.56
			c-0.421,1.819-0.309,3.71-1.007,5.593C-2.061,72.811-2.032,75.106-2.367,77.461z"/>
		<path class="st3" d="M-2.367,77.461c0.335-2.355,0.306-4.65,1.05-6.658c0.698-1.883,0.586-3.774,1.007-5.593
			c0.432-1.867,0.513-3.818,1.043-5.56c0.519-1.707,0.319-2.133-1.088-3.09c-2.469-1.68-4.967-3.094-7.753-4.249
			c-4.343-1.8-6.274-5.527-6.307-10.213c-0.005-0.663-0.001-1.325-0.001-2.013c-2.569-2.177-4.549-4.691-3.964-8.315
			c0.218-1.352,0.649-2.752,1.332-3.927c0.928-1.595,0.884-2.834-0.049-4.468c-2.322-4.069-1.963-7.947,1.668-11.183
			c0.844-0.753,0.908-1.576,1.054-2.586C-13.643,4.563-8.088-1.468-3.408-2.333c1.127-0.208,2.326-0.031,3.493-0.03
			c0.943-0.941,1.899-1.869,2.822-2.829C6.159-8.571,10.235-9.1,14.405-7.896c1.898,0.548,3.161,0.631,4.878-0.415
			c5.523-3.366,11.281-2.602,16.734,0.075c1.474,0.724,2.777,1.067,4.11,0.765c5.185-1.173,8.07-1.487,11.653,0.199
			c2.236,1.052,4.673,2.069,6.07,4.571c1.023,1.831,2.989,2.833,5.064,3.327c3.315,0.788,5.566,2.705,7.059,5.8
			c0.612,1.269,0.794,2.945,3.005,3.334c2.4,0.423,3.525,2.881,4.127,5.022c0.497,1.767,0.599,3.932,0.021,5.629
			c-0.51,1.498-0.826,2.824-0.122,4.083c1.737,3.109,0.445,6.19-0.742,8.699c-1.272,2.689-4.467,3.935-7.515,4.375
			c-1.221,0.176-2.169,0.407-2.96,1.353c-1.652,1.975-3.987,2.618-6.365,2.646c-1.829,0.021-3.085,0.57-4.24,1.93
			c-1.718,2.022-4.278,2.79-6.54,1.993c-1.945-0.686-2.419-0.188-3.857,0.977c-1.672,1.354-3.466,3.239-6.113,3.216
			c-1.25-0.011-1.812,0.964-2.12,2.235c-1.561,6.453-7.241,9.327-12.639,9.631c-4.629,0.26-7.743,2.363-10.368,5.937
			c-2.187,2.977-2.497,6.642-4.275,9.976C5.66,77.461,1.874,77.461-2.367,77.461z M35.599,3.732
			c-0.091,2.616-0.673,4.597-1.425,4.794c-2.11,0.552-3.856-0.016-5.023-1.956c-0.9,0.9-1.722,1.722-2.737,2.737
			c2.321,0.954,2.704,2.929,2.019,4.889c-0.75,2.145-3.109,1.171-4.758,1.55c0,1.342,0,2.457,0,3.785
			c1.683,0.35,4.034-0.578,4.774,1.564c0.672,1.946,0.05,3.84-1.897,4.956c0.908,0.931,1.718,1.76,2.88,2.95
			c1.001-1.033,1.986-2.05,2.983-3.08c0.882,0.597,2.266,1.089,2.861,2.062c0.593,0.972,0.396,2.426,0.523,3.488
			c1.394,0,2.506,0,3.916,0c-0.86-3.268,0.707-4.907,3.507-5.699c0.939,0.939,1.879,1.879,2.891,2.891
			c0.765-0.849,1.529-1.698,2.395-2.659c-1.783-1.064-2.479-2.941-1.822-4.869c0.727-2.133,3.056-1.298,4.661-1.569
			c0-1.457,0-2.682,0-3.892c-1.814-0.139-3.796,0.487-4.587-1.437c-0.847-2.057-0.045-3.832,1.909-5.042
			c-0.905-0.871-1.737-1.671-2.776-2.672c-0.899,2.303-2.928,2.611-4.836,1.979c-2.144-0.71-1.237-3.075-1.572-4.771
			C38.162,3.732,37.047,3.732,35.599,3.732z M15.411,47.636c0.057-0.745,0.07-1.521,0.182-2.282c0.326-2.228,0.98-2.632,3.132-2.766
			c1.418-0.089,2.045,0.793,2.873,1.548c0.178,0.162,0.45,0.222,0.126,0.07c1.102-0.778,1.998-1.411,3.113-2.199
			c-2.437-1.083-2.687-3.013-2.168-4.747c0.573-1.914,2.515-1.708,4.178-1.65c0.239,0.008,0.491-0.341,0.546-0.382
			c0-1.254,0-2.364,0-3.424c-1.675-0.462-3.689,0.531-4.566-1.461c-0.945-2.148,0.036-3.9,1.276-4.817
			c-0.845-1.057-1.518-1.899-2.229-2.788c-0.959,1.005-1.868,1.959-2.751,2.883c-1.09-0.728-2.462-1.212-3.082-2.179
			c-0.621-0.967-0.49-2.416-0.719-3.835c-1.317,0.076-2.538,0.147-4.019,0.232c1.34,3.573-1.046,4.604-3.778,5.851
			c-0.706-0.795-1.649-1.856-2.353-2.65c-0.882,0.676-1.767,1.355-2.827,2.168c2.235,1.114,2.659,2.891,2.19,4.736
			c-0.668,2.626-3.385,1.191-4.791,1.869c0,1.417,0,2.532,0,3.71c1.795,0.336,4.064-0.552,4.788,1.737
			c0.623,1.97-0.286,3.681-1.585,4.581c0.777,1.063,1.43,1.957,2.092,2.861c1.221-1.255,2.08-2.238,3.912-2.142
			c3.767,0.197,2.045,3.439,2.901,5.075C13.092,47.636,14.089,47.636,15.411,47.636z"/>
		<path class="st4" d="M35.599,3.732c1.448,0,2.563,0,3.885,0c0.335,1.696-0.573,4.061,1.572,4.771
			c1.909,0.632,3.937,0.324,4.836-1.979c1.039,1,1.871,1.801,2.776,2.672c-1.955,1.209-2.756,2.984-1.909,5.042
			c0.792,1.923,2.773,1.298,4.587,1.437c0,1.21,0,2.435,0,3.892c-1.605,0.272-3.934-0.564-4.661,1.569
			c-0.657,1.928,0.039,3.805,1.822,4.869c-0.866,0.961-1.631,1.811-2.395,2.659c-1.012-1.012-1.951-1.951-2.891-2.891
			c-2.799,0.792-4.367,2.432-3.507,5.699c-1.41,0-2.521,0-3.916,0c-0.127-1.062,0.07-2.516-0.523-3.488
			c-0.594-0.973-1.978-1.464-2.861-2.062c-0.997,1.03-1.982,2.047-2.983,3.08c-1.161-1.19-1.971-2.02-2.88-2.95
			c1.948-1.115,2.569-3.009,1.897-4.956c-0.739-2.142-3.091-1.214-4.774-1.564c0-1.329,0-2.444,0-3.785
			c1.649-0.379,4.008,0.595,4.758-1.55c0.685-1.961,0.301-3.935-2.019-4.889c1.015-1.015,1.837-1.837,2.737-2.737
			c1.167,1.939,2.913,2.508,5.023,1.956C34.926,8.329,35.508,6.347,35.599,3.732z M43.585,17.419
			c-0.464-3.342-2.692-5.906-6.214-5.721c-3.357,0.177-5.91,2.63-5.724,6.152c0.177,3.357,2.63,5.91,6.152,5.724
			C41.156,23.397,43.494,20.955,43.585,17.419z"/>
		<path class="st4" d="M15.411,47.636c-1.323,0-2.319,0-3.556,0c-0.856-1.636,0.866-4.878-2.901-5.075
			c-1.833-0.096-2.692,0.888-3.912,2.142c-0.661-0.905-1.314-1.798-2.092-2.861c1.3-0.901,2.209-2.612,1.585-4.581
			c-0.724-2.289-2.994-1.4-4.788-1.737c0-1.178,0-2.293,0-3.71c1.406-0.678,4.123,0.756,4.791-1.869
			c0.469-1.845,0.045-3.623-2.19-4.736c1.06-0.813,1.945-1.492,2.827-2.168c0.704,0.793,1.647,1.855,2.353,2.65
			c2.731-1.247,5.118-2.278,3.778-5.851c1.48-0.086,2.702-0.156,4.019-0.232c0.228,1.419,0.098,2.868,0.719,3.835
			c0.62,0.966,1.992,1.451,3.082,2.179c0.882-0.925,1.792-1.878,2.751-2.883c0.711,0.889,1.384,1.731,2.229,2.788
			c-1.24,0.917-2.22,2.669-1.276,4.817c0.876,1.993,2.891,1,4.566,1.461c0,1.059,0,2.17,0,3.424
			c-0.055,0.041-0.307,0.39-0.546,0.382c-1.663-0.058-3.606-0.264-4.178,1.65c-0.519,1.734-0.268,3.664,2.168,4.747
			c-1.115,0.788-2.011,1.42-3.113,2.199c0.325,0.151,0.052,0.092-0.126-0.07c-0.828-0.755-1.456-1.636-2.873-1.548
			c-2.153,0.135-2.806,0.538-3.132,2.766C15.482,46.115,15.468,46.891,15.411,47.636z M19.585,33.633
			c-0.04-3.107-2.762-5.982-6.003-5.988c-3.107-0.006-5.982,2.752-5.988,5.993c-0.006,3.107,2.752,5.982,5.993,5.988
			C16.695,39.632,19.534,36.874,19.585,33.633z"/>
		<path class="st5" d="M43.585,17.419c-0.091,3.537-2.429,5.978-5.786,6.155c-3.522,0.185-5.975-2.367-6.152-5.724
			c-0.185-3.522,2.367-5.975,5.724-6.152C40.893,11.512,43.121,14.076,43.585,17.419z"/>
		<path class="st5" d="M19.585,33.633c-0.051,3.241-2.891,5.998-5.997,5.993c-3.241-0.006-5.998-2.88-5.993-5.988
			c0.006-3.241,2.88-5.998,5.988-5.993C16.823,27.652,19.545,30.526,19.585,33.633z"/>
	</g>
</g>
<rect x="-2.415" y="16.636" class="st6" width="30" height="33"/>
<rect x="22.585" y="2.636" class="st6" width="30" height="31"/>
<g>
	<path class="st3" d="M2.435,36.94l1.246-0.131c0.983-0.103,1.896,0.659,2.002,1.666c0.053,0.508-0.112,0.99-0.457,1.371
		l-0.697,0.843c-0.689,0.842-0.558,2.087,0.291,2.768l1.952,1.567c0.385,0.312,0.922,0.464,1.445,0.409
		c0.523-0.055,1.009-0.314,1.329-0.701l0.667-0.824c0.315-0.434,0.768-0.698,1.283-0.752c1.015-0.107,1.949,0.629,2.052,1.604
		l0.128,1.213c0.113,1.071,1.073,1.9,2.151,1.786l2.402-0.252c1.072-0.113,1.85-1.073,1.737-2.145l-0.129-1.225
		c-0.103-0.979,0.66-1.895,1.676-2.002c0.508-0.053,0.999,0.112,1.38,0.45l0.851,0.683c0.387,0.321,0.924,0.466,1.448,0.411
		c0.524-0.055,1.011-0.315,1.331-0.703l1.603-1.938c0.682-0.844,0.551-2.093-0.291-2.769l-0.825-0.669
		c-0.435-0.316-0.707-0.77-0.761-1.279c-0.107-1.018,0.63-1.949,1.615-2.052l1.207-0.127c1.088-0.114,1.912-1.062,1.798-2.144
		l-0.127-1.209l-0.127-1.209c-0.113-1.074-1.116-1.837-2.204-1.723l-1.239,0.13c-0.983,0.103-1.897-0.664-2.003-1.677
		c-0.054-0.511,0.118-1.012,0.477-1.413l0.667-0.82c0.68-0.846,0.549-2.098-0.292-2.776l-1.954-1.585
		c-0.386-0.322-0.923-0.468-1.446-0.413c-0.523,0.055-1.009,0.316-1.328,0.704l-0.688,0.847c-0.293,0.41-0.746,0.675-1.254,0.729
		c-1.015,0.107-1.95-0.634-2.053-1.615l-0.127-1.213c-0.113-1.077-1.066-1.912-2.152-1.798l-2.402,0.252
		c-1.072,0.113-1.85,1.073-1.737,2.145l0.138,1.316c0.103,0.977-0.661,1.893-1.678,2c-0.509,0.053-1.009-0.119-1.415-0.47
		l-0.825-0.668c-0.394-0.312-0.925-0.465-1.449-0.41c-0.524,0.055-1.011,0.315-1.332,0.702l-1.586,1.95
		c-0.683,0.843-0.551,2.091,0.291,2.773l0.859,0.681c0.417,0.302,0.681,0.748,0.734,1.248c0.107,1.017-0.631,1.946-1.616,2.05
		l-1.205,0.127c-1.024,0.108-1.767,1.025-1.659,2.049l0.136,1.293l0.127,1.208C0.494,36.284,1.355,37.053,2.435,36.94z
		 M9.083,33.069L9.083,33.069c-0.369-3.509,2.171-6.663,5.696-7.034s6.665,2.187,7.034,5.696l0,0l0,0
		c0.369,3.509-2.171,6.663-5.696,7.034C12.592,39.135,9.452,36.578,9.083,33.069L9.083,33.069z"/>
	<path class="st3" d="M27.442,17.371l1.246,0.131c0.983,0.103,1.718,1.038,1.612,2.046c-0.053,0.508-0.316,0.945-0.732,1.246
		l-0.857,0.68c-0.849,0.68-0.98,1.926-0.291,2.768l1.583,1.938c0.312,0.386,0.806,0.646,1.329,0.701
		c0.523,0.055,1.052-0.098,1.445-0.409l0.823-0.667c0.398-0.359,0.896-0.523,1.412-0.469c1.015,0.107,1.776,1.02,1.673,1.996
		l-0.128,1.213c-0.113,1.071,0.655,2.081,1.733,2.195l2.402,0.252c1.072,0.113,2.033-0.665,2.145-1.737l0.129-1.225
		c0.103-0.979,1.039-1.717,2.056-1.61c0.508,0.053,0.954,0.317,1.256,0.727l0.69,0.845c0.312,0.395,0.807,0.648,1.331,0.703
		c0.524,0.055,1.054-0.098,1.448-0.411l1.971-1.563c0.843-0.684,0.974-1.933,0.291-2.769l-0.668-0.826
		c-0.359-0.4-0.532-0.9-0.478-1.41c0.107-1.018,1.021-1.775,2.006-1.671l1.207,0.127c1.088,0.114,2.091-0.641,2.204-1.723
		l0.127-1.209l0.127-1.209c0.113-1.074-0.71-2.029-1.798-2.144l-1.239-0.13c-0.983-0.103-1.717-1.043-1.611-2.057
		c0.054-0.511,0.326-0.966,0.76-1.283l0.823-0.664c0.841-0.686,0.973-1.938,0.292-2.776l-1.581-1.957
		c-0.311-0.396-0.805-0.649-1.328-0.704c-0.523-0.055-1.052,0.099-1.446,0.413l-0.849,0.685c-0.372,0.34-0.871,0.505-1.378,0.452
		c-1.015-0.107-1.775-1.025-1.672-2.007l0.127-1.213c0.113-1.077-0.646-2.092-1.731-2.206l-2.402-0.252
		c-1.072-0.113-2.033,0.665-2.145,1.737L39.218,3.24c-0.103,0.977-1.04,1.714-2.057,1.608c-0.509-0.053-0.962-0.326-1.286-0.754
		l-0.668-0.825c-0.321-0.387-0.808-0.647-1.332-0.702s-1.055,0.098-1.449,0.41l-1.957,1.578c-0.843,0.683-0.974,1.93-0.291,2.773
		l0.698,0.845c0.345,0.382,0.511,0.873,0.458,1.374c-0.107,1.017-1.022,1.773-2.007,1.669l-1.205-0.127
		c-1.024-0.108-1.941,0.635-2.049,1.659l-0.136,1.293l-0.127,1.208C25.68,16.326,26.361,17.258,27.442,17.371z M34.749,14.967
		L34.749,14.967c0.369-3.509,3.509-6.066,7.034-5.696s6.065,3.525,5.696,7.034l0,0l0,0c-0.369,3.509-3.509,6.066-7.034,5.696
		S34.38,18.476,34.749,14.967L34.749,14.967z"/>
</g>
<g>
</g>
<g>
</g>
<g>
</g>
<g>
</g>
<g>
</g>
<g>
</g>
<g>
</g>
<g>
</g>
<g>
</g>
<g>
</g>
<g>
</g>
<g>
</g>
<g>
</g>
<g>
</g>
<g>
</g>
</svg>
