<?xml version="1.0" encoding="utf-8"?>
<!-- Generator: Adobe Illustrator 26.0.1, SVG Export Plug-In . SVG Version: 6.00 Build 0)  -->
<svg version="1.1" id="Calque_1" xmlns="http://www.w3.org/2000/svg" xmlns:xlink="http://www.w3.org/1999/xlink" x="0px" y="0px"
	 viewBox="0 0 400 400" style="enable-background:new 0 0 400 400;" xml:space="preserve">
<style type="text/css">
	.st0{fill:#E07E64;}
	.st1{fill:#FDF8F7;}
	.st2{fill:#FCF6F4;}
	.st3{fill:#DF7A5F;}
</style>
<g>
	<g>
		<g>
			<path class="st0" d="M207.63,54.064c3.823-8.554,6.916-17.094,19.882-14.438c13.234,2.711,15.466,11.672,16.777,22.602
				c2.692,22.336,15.544,25.066,32.922,15.511c9.251-5.082,17.019-12.037,27.564-2.17c9.857,9.224,5.491,17.975,2.09,28.188
				c-6.469,19.44,0.449,30.206,22.167,29.044c9.291-0.493,19.055-1.987,23.147,10.063c4.043,11.89-1.094,18.977-10.442,26.119
				c-19.329,14.759-13.553,27.96,4.972,38.086c8.573,4.687,16.528,8.073,13.454,20.557c-2.737,11.149-9.901,14.693-20.116,15.743
				c-26.733,2.736-27.785,16.84-15.708,36.425c4.467,7.247,8.445,14.096,1.58,22.526c-6.998,8.605-14.838,10.185-24.711,5.974
				c-24.118-10.29-36.053-3.021-33.835,23.956c0.743,9.056-0.951,16.551-11.007,19.496c-10.235,3.004-17.474,0.102-23.917-8.881
				c-14.942-20.853-28.665-16.586-40.043,3.787c-4.032,7.217-6.164,15.062-17.74,13.207c-12.936-2.069-17.037-9.753-18.194-21.271
				c-2.443-24.189-15.486-27.08-34.388-16.206c-8.191,4.706-15.373,10.558-25.064,2.349c-10.058-8.518-7.802-17.212-3.867-27.813
				c7.904-21.29-0.045-31.994-23.153-30.327c-9.819,0.703-18.813,0.375-22.032-11.672c-2.835-10.577,1.171-17.28,9.736-23.644
				c21.186-15.759,14.757-29.208-5.162-39.851c-7.699-4.111-14.443-7.197-12.307-18.237c2.131-11.018,8.187-15.949,18.828-16.993
				c28.242-2.776,30.045-17.137,16.349-38.028c-4.955-7.552-6.724-14.623,0.318-22.408c6.51-7.213,13.662-9.032,22.226-5.252
				c25.877,11.414,37.729,3.279,35.372-25.042c-0.654-7.885,1.037-14.429,9.521-17.336c9.82-3.365,17.871-2.38,24.363,7.089
				C180.941,75.231,194.656,75.095,207.63,54.064z"/>
			<path class="st1" d="M300.076,198.691c0.49,55.42-44.98,101.05-100.37,100.74c-54.01-0.3-98.69-44.85-99.16-98.84
				c-0.48-55.59,44.71-100.95,100.3-100.67C254.876,100.181,299.596,144.711,300.076,198.691z"/>
			<path class="st2" d="M201.566,174.821c13.89,2.81,23.26,10.52,22.99,24.77c-0.29,15.63-10.01,25.07-25.68,24.3
				c-13.94-0.68-23.04-9.88-22.84-24.11C176.256,184.041,186.426,176.281,201.566,174.821z"/>
			<g>
				<g>
					<g>
						<path class="st3" d="M219.515,154.478c-3.03,10.753-6.037,21.41-9.032,32.067c-5.466,19.455-10.952,38.902-16.366,58.373
							c-1.279,4.603-3.106,9.073-8.823,7.536c-5.452-1.467-5.505-5.764-4.08-10.748c8.373-29.276,16.537-58.614,24.701-87.949
							c1.216-4.371,2.982-8.18,8.312-7.261C218.417,147.217,220.012,150.383,219.515,154.478z"/>
						<path class="st3" d="M173.4,229.604c0.101,2.816-1.326,4.808-3.665,6.039c-2.407,1.268-4.913,1.035-6.974-0.799
							c-11.387-10.113-22.793-20.207-34.033-30.481c-2.869-2.623-2.942-6.2-0.09-8.862c11.13-10.391,22.397-20.643,33.749-30.795
							c2.885-2.578,6.227-2.278,8.885,0.61c3.04,3.303,2.304,6.699-0.699,9.526c-7.461,7.025-14.922,14.058-22.661,20.768
							c-3.682,3.194-3.624,5.315,0.068,8.422c7.199,6.064,14.091,12.493,21.066,18.818
							C171.076,224.693,173.349,226.451,173.4,229.604z"/>
						<path class="st3" d="M233.091,236.017c-2.805-0.071-4.721-1.598-5.793-4.022c-1.448-3.274-0.052-5.873,2.395-8.11
							c6.948-6.358,13.598-13.084,20.909-18.988c5.505-4.447,4.639-7.304-0.309-11.334c-7.077-5.768-13.661-12.143-20.456-18.253
							c-3.243-2.918-4.975-6.314-1.692-10.079c3.57-4.09,7.229-2.703,10.785,0.501c9.885,8.892,19.777,17.776,29.821,26.487
							c5.327,4.62,5.887,8.863,0.369,13.758c-10.153,9.006-20.14,18.2-30.196,27.318
							C237.258,234.805,235.548,236.206,233.091,236.017z"/>
					</g>
				</g>
			</g>
		</g>
	</g>
</g>
<g>
</g>
<g>
</g>
<g>
</g>
<g>
</g>
<g>
</g>
<g>
</g>
<g>
</g>
<g>
</g>
<g>
</g>
<g>
</g>
<g>
</g>
<g>
</g>
<g>
</g>
<g>
</g>
<g>
</g>
</svg>
