<?xml version="1.0" encoding="utf-8"?>
<!-- Generator: Adobe Illustrator 26.0.1, SVG Export Plug-In . SVG Version: 6.00 Build 0)  -->
<svg version="1.1" id="Calque_1" xmlns="http://www.w3.org/2000/svg" xmlns:xlink="http://www.w3.org/1999/xlink" x="0px" y="0px"
	 viewBox="0 0 400 400" style="enable-background:new 0 0 400 400;" xml:space="preserve">
<style type="text/css">
	.st0{fill:#E07E64;}
	.st1{fill:#FDF8F7;}
	.st2{fill:#FCF6F4;}
	.st3{fill:#DF7A5F;}
</style>
<g>
	<g>
		<g>
			<path class="st0" d="M154.986,61.127c0.503-9.356,0.33-18.437,13.387-20.604c13.326-2.212,18.621,5.354,23.762,15.088
				c10.518,19.888,23.495,17.831,36.294,2.682c6.815-8.06,11.575-17.336,24.955-11.904c12.508,5.079,11.568,14.813,12.053,25.567
				c0.927,20.467,11.244,28.038,31.103,19.171c8.497-3.79,17.077-8.683,25.216,1.099c8.035,9.652,5.779,18.108-0.388,28.126
				c-12.756,20.705-2.633,30.96,18.29,33.775c9.683,1.304,18.323,1.613,19.927,14.371c1.44,11.389-3.978,17.266-13.138,21.906
				c-23.977,12.135-19.905,25.679-1.612,39.635c6.767,5.165,12.936,10.133,9.548,20.463c-3.45,10.541-10.203,14.826-20.929,14.432
				c-26.204-0.964-34.741,10.1-23.002,34.49c3.939,8.188,5.043,15.792-3.289,22.146c-8.479,6.472-16.276,6.357-25.511,0.28
				c-21.422-14.113-32.705-5.212-36.026,17.886c-1.178,8.182-0.357,16.27-11.828,18.687c-12.819,2.704-19.4-3-24.608-13.338
				c-10.949-21.707-24.162-19.732-37.912-2.806c-5.961,7.329-10.569,15.366-22.557,11.175c-12.442-4.348-13.452-13.273-13.577-24.58
				c-0.25-22.709-11.508-29.853-32.483-20.016c-8.915,4.175-17.429,7.092-24.751-3.002c-6.437-8.858-5.099-16.552,0.616-25.562
				c14.132-22.304,3.31-32.556-19.1-35.355c-8.661-1.078-16.063-1.544-18.025-12.616c-1.959-11.05,1.928-17.823,11.488-22.612
				C78.26,197,74.796,182.947,54.524,168.351c-7.332-5.275-11.517-11.242-7.733-21.034c3.492-9.067,9.518-13.327,18.867-12.868
				c28.249,1.382,36.398-10.46,24.049-36.055c-3.437-7.127-4.202-13.842,2.676-19.596c7.962-6.661,15.831-8.626,25.286-2.113
				C137.654,90.452,150.411,85.41,154.986,61.127z"/>
			<path class="st1" d="M300.076,198.691c0.49,55.42-44.98,101.05-100.37,100.74c-54.01-0.3-98.69-44.85-99.16-98.84
				c-0.48-55.59,44.71-100.95,100.3-100.67C254.876,100.181,299.596,144.711,300.076,198.691z"/>
			<path class="st2" d="M201.566,174.821c13.89,2.81,23.26,10.52,22.99,24.77c-0.29,15.63-10.01,25.07-25.68,24.3
				c-13.94-0.68-23.04-9.88-22.84-24.11C176.256,184.041,186.426,176.281,201.566,174.821z"/>
			<g>
				<g>
					<g>
						<path class="st3" d="M219.515,154.478c-3.03,10.753-6.037,21.41-9.032,32.067c-5.466,19.455-10.952,38.902-16.366,58.373
							c-1.279,4.603-3.106,9.073-8.823,7.536c-5.452-1.467-5.505-5.764-4.08-10.748c8.373-29.276,16.537-58.614,24.701-87.949
							c1.216-4.371,2.982-8.18,8.312-7.261C218.417,147.217,220.012,150.383,219.515,154.478z"/>
						<path class="st3" d="M173.4,229.604c0.101,2.816-1.326,4.808-3.665,6.039c-2.407,1.268-4.913,1.035-6.974-0.799
							c-11.387-10.113-22.793-20.207-34.033-30.481c-2.869-2.623-2.942-6.2-0.09-8.862c11.13-10.391,22.397-20.643,33.749-30.795
							c2.885-2.578,6.227-2.278,8.885,0.61c3.04,3.303,2.304,6.699-0.699,9.526c-7.461,7.025-14.922,14.058-22.661,20.768
							c-3.682,3.194-3.624,5.315,0.068,8.422c7.199,6.064,14.091,12.493,21.066,18.818
							C171.076,224.693,173.349,226.451,173.4,229.604z"/>
						<path class="st3" d="M233.091,236.017c-2.805-0.071-4.721-1.598-5.793-4.022c-1.448-3.274-0.052-5.873,2.395-8.11
							c6.948-6.358,13.598-13.084,20.909-18.988c5.505-4.447,4.639-7.304-0.309-11.334c-7.077-5.768-13.661-12.143-20.456-18.253
							c-3.243-2.918-4.975-6.314-1.692-10.079c3.57-4.09,7.229-2.703,10.785,0.501c9.885,8.892,19.777,17.776,29.821,26.487
							c5.327,4.62,5.887,8.863,0.369,13.758c-10.153,9.006-20.14,18.2-30.196,27.318
							C237.258,234.805,235.548,236.206,233.091,236.017z"/>
					</g>
				</g>
			</g>
		</g>
	</g>
</g>
<g>
</g>
<g>
</g>
<g>
</g>
<g>
</g>
<g>
</g>
<g>
</g>
<g>
</g>
<g>
</g>
<g>
</g>
<g>
</g>
<g>
</g>
<g>
</g>
<g>
</g>
<g>
</g>
<g>
</g>
</svg>
