<?xml version="1.0" encoding="utf-8"?>
<!-- Generator: Adobe Illustrator 26.0.1, SVG Export Plug-In . SVG Version: 6.00 Build 0)  -->
<svg version="1.1" id="Calque_1" xmlns="http://www.w3.org/2000/svg" xmlns:xlink="http://www.w3.org/1999/xlink" x="0px" y="0px"
	 viewBox="0 0 400 400" style="enable-background:new 0 0 400 400;" xml:space="preserve">
<style type="text/css">
	.st0{fill:#E07E64;}
	.st1{fill:#FDF8F7;}
	.st2{fill:#FCF6F4;}
	.st3{fill:#DF7A5F;}
</style>
<g>
	<g>
		<g>
			<path class="st0" d="M262.241,331.619c0.641,9.347,1.919,18.34-10.777,22.082c-12.957,3.82-19.135-3.045-25.424-12.08
				c-12.863-18.458-25.493-14.834-36.35,1.761c-5.782,8.831-9.376,18.618-23.318,14.856c-13.034-3.517-13.287-13.293-15.079-23.908
				c-3.415-20.201-14.577-26.459-33.208-15.237c-7.972,4.797-15.892,10.7-25.162,1.982c-9.152-8.601-7.943-17.269-3.043-27.964
				c10.137-22.105-1.16-31.05-22.27-31.294c-9.77-0.114-18.383,0.632-21.53-11.835c-2.818-11.129,1.844-17.622,10.37-23.344
				c22.319-14.967,16.627-27.913-3.231-39.536c-7.346-4.301-14.074-8.482-11.971-19.147c2.139-10.883,8.32-15.959,19.014-16.876
				c26.126-2.237,33.251-14.258,18.627-37.036c-4.907-7.647-6.93-15.06,0.566-22.381c7.627-7.457,15.38-8.293,25.287-3.387
				c22.983,11.397,33.096,1.187,33.577-22.143c0.172-8.265-1.629-16.193,9.463-19.989c12.394-4.246,19.621,0.613,26.05,10.24
				c13.513,20.211,26.387,16.64,37.971-1.835c5.023-8,8.617-16.54,21.027-13.841c12.88,2.799,14.969,11.534,16.472,22.742
				c3.016,22.509,15.06,28.228,34.68,15.908c8.34-5.23,16.434-9.163,24.933-0.037c7.468,8.008,7.078,15.807,2.504,25.447
				c-11.308,23.86,0.683,32.717,23.267,32.763c8.728,0.015,16.131-0.425,19.428,10.325c3.291,10.729,0.259,17.926-8.646,23.843
				c-23.633,15.71-18.482,29.236,3.418,41.252c7.92,4.342,12.802,9.755,10.239,19.934c-2.361,9.425-7.822,14.388-17.159,15.072
				c-28.207,2.071-34.852,14.818-19.475,38.717c4.28,6.655,5.858,13.227-0.268,19.777c-7.091,7.581-14.662,10.491-24.84,5.179
				C275.869,300.4,263.822,306.958,262.241,331.619z"/>
			<path class="st1" d="M300.076,198.691c0.49,55.42-44.98,101.05-100.37,100.74c-54.01-0.3-98.69-44.85-99.16-98.84
				c-0.48-55.59,44.71-100.95,100.3-100.67C254.876,100.181,299.596,144.711,300.076,198.691z"/>
			<path class="st2" d="M201.566,174.821c13.89,2.81,23.26,10.52,22.99,24.77c-0.29,15.63-10.01,25.07-25.68,24.3
				c-13.94-0.68-23.04-9.88-22.84-24.11C176.256,184.041,186.426,176.281,201.566,174.821z"/>
			<g>
				<g>
					<g>
						<path class="st3" d="M219.515,154.478c-3.03,10.753-6.037,21.41-9.032,32.067c-5.466,19.455-10.952,38.902-16.366,58.373
							c-1.279,4.603-3.106,9.073-8.823,7.536c-5.452-1.467-5.505-5.764-4.08-10.748c8.373-29.276,16.537-58.614,24.701-87.949
							c1.216-4.371,2.982-8.18,8.312-7.261C218.417,147.217,220.012,150.383,219.515,154.478z"/>
						<path class="st3" d="M173.4,229.604c0.101,2.816-1.326,4.808-3.665,6.039c-2.407,1.268-4.913,1.035-6.974-0.799
							c-11.387-10.113-22.793-20.207-34.033-30.481c-2.869-2.623-2.942-6.2-0.09-8.862c11.13-10.391,22.397-20.643,33.749-30.795
							c2.885-2.578,6.227-2.278,8.885,0.61c3.04,3.303,2.304,6.699-0.699,9.526c-7.461,7.025-14.922,14.058-22.661,20.768
							c-3.682,3.194-3.624,5.315,0.068,8.422c7.199,6.064,14.091,12.493,21.066,18.818
							C171.076,224.693,173.349,226.451,173.4,229.604z"/>
						<path class="st3" d="M233.091,236.017c-2.805-0.071-4.721-1.598-5.793-4.022c-1.448-3.274-0.052-5.873,2.395-8.11
							c6.948-6.358,13.598-13.084,20.909-18.988c5.505-4.447,4.639-7.304-0.309-11.334c-7.077-5.768-13.661-12.143-20.456-18.253
							c-3.243-2.918-4.975-6.314-1.692-10.079c3.57-4.09,7.229-2.703,10.785,0.501c9.885,8.892,19.777,17.776,29.821,26.487
							c5.327,4.62,5.887,8.863,0.369,13.758c-10.153,9.006-20.14,18.2-30.196,27.318
							C237.258,234.805,235.548,236.206,233.091,236.017z"/>
					</g>
				</g>
			</g>
		</g>
	</g>
</g>
<g>
</g>
<g>
</g>
<g>
</g>
<g>
</g>
<g>
</g>
<g>
</g>
<g>
</g>
<g>
</g>
<g>
</g>
<g>
</g>
<g>
</g>
<g>
</g>
<g>
</g>
<g>
</g>
<g>
</g>
</svg>
