<?xml version="1.0" encoding="utf-8"?>
<!-- Generator: Adobe Illustrator 26.0.1, SVG Export Plug-In . SVG Version: 6.00 Build 0)  -->
<svg version="1.1" id="Calque_1" xmlns="http://www.w3.org/2000/svg" xmlns:xlink="http://www.w3.org/1999/xlink" x="0px" y="0px"
	 viewBox="0 0 400 400" style="enable-background:new 0 0 400 400;" xml:space="preserve">
<style type="text/css">
	.st0{fill:#E07E64;}
	.st1{fill:#FDF8F7;}
	.st2{fill:#FCF6F4;}
	.st3{fill:#DF7A5F;}
</style>
<g>
	<g>
		<g>
			<path class="st0" d="M187.301,54.468c2.595-9.003,4.469-17.89,17.679-17.064c13.482,0.842,16.94,9.406,19.759,20.047
				c5.775,21.744,18.882,22.659,34.76,10.778c8.454-6.321,15.178-14.288,26.993-5.985c11.045,7.762,7.939,17.036,5.993,27.623
				c-3.701,20.151,4.649,29.849,25.994,25.676c9.132-1.782,18.593-4.619,24.322,6.744c5.658,11.212,1.558,18.944-6.705,27.318
				c-17.087,17.305-9.53,29.574,10.224,37.024c9.142,3.448,17.491,5.694,16.184,18.485c-1.159,11.422-7.76,15.928-17.729,18.389
				c-26.092,6.43-25.171,20.543-10.486,38.256c5.432,6.555,10.325,12.784,4.7,22.087c-5.733,9.495-13.276,12.151-23.639,9.355
				c-25.316-6.834-36.122,2.026-30.171,28.432c1.996,8.865,1.362,16.522-8.187,20.838c-9.718,4.399-17.289,2.533-24.92-5.466
				c-17.698-18.571-30.694-12.435-39.126,9.323c-2.988,7.708-4.007,15.773-15.729,15.547c-13.098-0.249-18.228-7.287-20.977-18.532
				c-5.786-23.614-19.105-24.661-36.309-11.262c-7.457,5.8-13.754,12.595-24.493,5.814c-11.145-7.035-10.121-15.958-7.7-27.004
				c4.864-22.183-4.497-31.677-27.148-26.81c-9.626,2.063-18.577,2.99-23.442-8.493c-4.279-10.079-1.245-17.275,6.35-24.769
				c18.787-18.554,10.548-30.977-10.658-38.745c-8.196-2.999-15.304-5.117-14.725-16.347c0.577-11.207,5.888-16.933,16.28-19.448
				c27.581-6.68,27.367-21.152,10.897-39.933c-5.958-6.789-8.693-13.545-2.804-22.234c5.442-8.049,12.272-10.845,21.279-8.294
				c27.214,7.701,37.818-2.004,31.543-29.721c-1.745-7.718-0.981-14.433,7.015-18.492c9.257-4.699,17.365-4.844,25.113,3.629
				C163.817,79.142,177.381,77.099,187.301,54.468z"/>
			<path class="st1" d="M300.076,198.691c0.49,55.42-44.98,101.05-100.37,100.74c-54.01-0.3-98.69-44.85-99.16-98.84
				c-0.48-55.59,44.71-100.95,100.3-100.67C254.876,100.181,299.596,144.711,300.076,198.691z"/>
			<path class="st2" d="M201.566,174.821c13.89,2.81,23.26,10.52,22.99,24.77c-0.29,15.63-10.01,25.07-25.68,24.3
				c-13.94-0.68-23.04-9.88-22.84-24.11C176.256,184.041,186.426,176.281,201.566,174.821z"/>
			<g>
				<g>
					<g>
						<path class="st3" d="M219.515,154.478c-3.03,10.753-6.037,21.41-9.032,32.067c-5.466,19.455-10.952,38.902-16.366,58.373
							c-1.279,4.603-3.106,9.073-8.823,7.536c-5.452-1.467-5.505-5.764-4.08-10.748c8.373-29.276,16.537-58.614,24.701-87.949
							c1.216-4.371,2.982-8.18,8.312-7.261C218.417,147.217,220.012,150.383,219.515,154.478z"/>
						<path class="st3" d="M173.4,229.604c0.101,2.816-1.326,4.808-3.665,6.039c-2.407,1.268-4.913,1.035-6.974-0.799
							c-11.387-10.113-22.793-20.207-34.033-30.481c-2.869-2.623-2.942-6.2-0.09-8.862c11.13-10.391,22.397-20.643,33.749-30.795
							c2.885-2.578,6.227-2.278,8.885,0.61c3.04,3.303,2.304,6.699-0.699,9.526c-7.461,7.025-14.922,14.058-22.661,20.768
							c-3.682,3.194-3.624,5.315,0.068,8.422c7.199,6.064,14.091,12.493,21.066,18.818
							C171.076,224.693,173.349,226.451,173.4,229.604z"/>
						<path class="st3" d="M233.091,236.017c-2.805-0.071-4.721-1.598-5.793-4.022c-1.448-3.274-0.052-5.873,2.395-8.11
							c6.948-6.358,13.598-13.084,20.909-18.988c5.505-4.447,4.639-7.304-0.309-11.334c-7.077-5.768-13.661-12.143-20.456-18.253
							c-3.243-2.918-4.975-6.314-1.692-10.079c3.57-4.09,7.229-2.703,10.785,0.501c9.885,8.892,19.777,17.776,29.821,26.487
							c5.327,4.62,5.887,8.863,0.369,13.758c-10.153,9.006-20.14,18.2-30.196,27.318
							C237.258,234.805,235.548,236.206,233.091,236.017z"/>
					</g>
				</g>
			</g>
		</g>
	</g>
</g>
<g>
</g>
<g>
</g>
<g>
</g>
<g>
</g>
<g>
</g>
<g>
</g>
<g>
</g>
<g>
</g>
<g>
</g>
<g>
</g>
<g>
</g>
<g>
</g>
<g>
</g>
<g>
</g>
<g>
</g>
</svg>
