<?xml version="1.0" encoding="utf-8"?>
<!-- Generator: Adobe Illustrator 26.0.1, SVG Export Plug-In . SVG Version: 6.00 Build 0)  -->
<svg version="1.1" id="Calque_1" xmlns="http://www.w3.org/2000/svg" xmlns:xlink="http://www.w3.org/1999/xlink" x="0px" y="0px"
	 viewBox="0 0 400 400" style="enable-background:new 0 0 400 400;" xml:space="preserve">
<style type="text/css">
	.st0{fill:#E07E64;}
	.st1{fill:#FDF8F7;}
	.st2{fill:#FCF6F4;}
	.st3{fill:#DF7A5F;}
</style>
<g>
	<g>
		<g>
			<path class="st0" d="M66.297,256.908c-9.364,0.314-18.396,1.278-21.692-11.541c-3.365-13.083,3.711-19.017,12.96-24.987
				c18.896-12.212,15.715-24.96-0.491-36.39c-8.624-6.087-18.279-10.02-14.034-23.823c3.969-12.903,13.749-12.815,24.419-14.235
				c20.308-2.707,26.952-13.645,16.387-32.656c-4.516-8.134-10.139-16.256-1.103-25.216c8.915-8.846,17.536-7.336,28.053-2.065
				c21.738,10.903,31.071-0.075,32.052-21.165c0.455-9.76,0.01-18.394,12.579-21.104c11.221-2.428,17.547,2.458,22.968,11.178
				c14.179,22.828,27.316,17.591,39.624-1.849c4.555-7.192,8.968-13.77,19.553-11.295c10.802,2.518,15.659,8.872,16.202,19.591
				c1.324,26.188,13.089,33.728,36.364,19.909c7.814-4.637,15.293-6.4,22.348,1.346c7.186,7.883,7.752,15.66,2.502,25.389
				c-12.193,22.571-2.341,33.035,20.957,34.33c8.254,0.46,16.24-1.063,19.647,10.155c3.811,12.534-1.297,19.588-11.143,25.677
				c-20.671,12.8-17.551,25.79,0.509,38.012c7.82,5.299,16.229,9.189,13.098,21.497c-3.247,12.774-12.05,14.557-23.303,15.668
				c-22.6,2.229-28.736,14.066-17.109,34.104c4.936,8.517,8.584,16.744-0.833,24.919c-8.263,7.184-16.044,6.522-25.519,1.614
				c-23.451-12.134-32.721-0.46-33.555,22.109c-0.319,8.722-0.138,16.136-10.997,19.056c-10.837,2.915-17.924-0.367-23.527-9.473
				c-14.875-24.167-28.573-19.492-41.346,1.976c-4.615,7.764-10.196,12.453-20.28,9.537c-9.337-2.689-14.106-8.32-14.464-17.674
				c-1.085-28.262-13.592-35.348-38.014-20.815c-6.801,4.045-13.423,5.393-19.755-0.958c-7.329-7.351-9.973-15.019-4.309-25.005
				C97.021,271.618,90.887,259.35,66.297,256.908z"/>
			<path class="st1" d="M300.076,198.691c0.49,55.42-44.98,101.05-100.37,100.74c-54.01-0.3-98.69-44.85-99.16-98.84
				c-0.48-55.59,44.71-100.95,100.3-100.67C254.876,100.181,299.596,144.711,300.076,198.691z"/>
			<path class="st2" d="M201.566,174.821c13.89,2.81,23.26,10.52,22.99,24.77c-0.29,15.63-10.01,25.07-25.68,24.3
				c-13.94-0.68-23.04-9.88-22.84-24.11C176.256,184.041,186.426,176.281,201.566,174.821z"/>
			<g>
				<g>
					<g>
						<path class="st3" d="M219.515,154.478c-3.03,10.753-6.037,21.41-9.032,32.067c-5.466,19.455-10.952,38.902-16.366,58.373
							c-1.279,4.603-3.106,9.073-8.823,7.536c-5.452-1.467-5.505-5.764-4.08-10.748c8.373-29.276,16.537-58.614,24.701-87.949
							c1.216-4.371,2.982-8.18,8.312-7.261C218.417,147.217,220.012,150.383,219.515,154.478z"/>
						<path class="st3" d="M173.4,229.604c0.101,2.816-1.326,4.808-3.665,6.039c-2.407,1.268-4.913,1.035-6.974-0.799
							c-11.387-10.113-22.793-20.207-34.033-30.481c-2.869-2.623-2.942-6.2-0.09-8.862c11.13-10.391,22.397-20.643,33.749-30.795
							c2.885-2.578,6.227-2.278,8.885,0.61c3.04,3.303,2.304,6.699-0.699,9.526c-7.461,7.025-14.922,14.058-22.661,20.768
							c-3.682,3.194-3.624,5.315,0.068,8.422c7.199,6.064,14.091,12.493,21.066,18.818
							C171.076,224.693,173.349,226.451,173.4,229.604z"/>
						<path class="st3" d="M233.091,236.017c-2.805-0.071-4.721-1.598-5.793-4.022c-1.448-3.274-0.052-5.873,2.395-8.11
							c6.948-6.358,13.598-13.084,20.909-18.988c5.505-4.447,4.639-7.304-0.309-11.334c-7.077-5.768-13.661-12.143-20.456-18.253
							c-3.243-2.918-4.975-6.314-1.692-10.079c3.57-4.09,7.229-2.703,10.785,0.501c9.885,8.892,19.777,17.776,29.821,26.487
							c5.327,4.62,5.887,8.863,0.369,13.758c-10.153,9.006-20.14,18.2-30.196,27.318
							C237.258,234.805,235.548,236.206,233.091,236.017z"/>
					</g>
				</g>
			</g>
		</g>
	</g>
</g>
<g>
</g>
<g>
</g>
<g>
</g>
<g>
</g>
<g>
</g>
<g>
</g>
<g>
</g>
<g>
</g>
<g>
</g>
<g>
</g>
<g>
</g>
<g>
</g>
<g>
</g>
<g>
</g>
<g>
</g>
</svg>
