<?xml version="1.0" encoding="utf-8"?>
<!-- Generator: Adobe Illustrator 26.0.1, SVG Export Plug-In . SVG Version: 6.00 Build 0)  -->
<svg version="1.1" id="Calque_1" xmlns="http://www.w3.org/2000/svg" xmlns:xlink="http://www.w3.org/1999/xlink" x="0px" y="0px"
	 viewBox="0 0 400 400" style="enable-background:new 0 0 400 400;" xml:space="preserve">
<style type="text/css">
	.st0{fill:#E07E64;}
	.st1{fill:#FDF8F7;}
	.st2{fill:#FCF6F4;}
	.st3{fill:#DF7A5F;}
</style>
<g>
	<g>
		<g>
			<path class="st0" d="M104.959,309.878c-8.279,4.387-15.974,9.212-24.556-0.863c-8.759-10.284-5.001-18.719,0.695-28.139
				c11.63-19.259,3.183-29.323-16.394-32.492c-10.419-1.691-20.821-0.993-23.057-15.26c-2.089-13.337,6.74-17.545,15.707-23.499
				c17.066-11.336,18.242-24.079,0.413-36.534c-7.625-5.331-16.238-10.166-12.045-22.18c4.135-11.859,12.545-14.28,24.309-14.153
				c24.318,0.27,27.894-13.689,19.53-33.073c-3.87-8.971-8.054-16.537,2.055-24.482c9.021-7.101,16.848-5.483,25.544-0.021
				c22.751,14.302,32.263,3.836,34.804-19.032c0.942-8.461,2.024-16.307,12.623-18.724c10.812-2.472,17.963,1.109,23.15,10.506
				c12.67,22.957,26.55,24.577,41.411,1.953c4.99-7.593,10.939-12.457,20.677-8.587c9.915,3.935,13.832,10.677,13.379,21.723
				c-1.064,25.631,12.377,30.718,33.886,21.668c7.62-3.204,14.13-8.074,22.11,0.514c8.92,9.595,7.421,18.174,1.241,27.963
				c-12.968,20.566-4.469,30.874,17.121,33.942c9.352,1.335,18.615,1.145,21.197,13.58c2.682,12.904-4.449,18.366-14.076,24.297
				c-19.336,11.911-19.662,25.24-0.427,38.152c8.17,5.491,15.056,11.286,10.175,22.762c-4.278,10.08-11.561,12.896-22.228,12.638
				c-26.397-0.625-29.611,13.931-20.467,34.581c3.536,7.979,6.95,14.563-1.53,21.948c-8.462,7.371-16.271,7.527-25.299,1.799
				c-23.964-15.2-34.226-4.993-36.295,19.901c-0.745,9.002-3.705,15.662-14.046,17.462c-9.571,1.676-16.326-1.294-20.748-9.545
				c-13.364-24.926-27.712-25.812-43.291-2.044c-4.339,6.617-9.701,10.731-18.176,7.799c-9.81-3.395-15.547-9.127-14.834-20.586
				C139.022,309.631,128.131,301.293,104.959,309.878z"/>
			<path class="st1" d="M300.076,198.691c0.49,55.42-44.98,101.05-100.37,100.74c-54.01-0.3-98.69-44.85-99.16-98.84
				c-0.48-55.59,44.71-100.95,100.3-100.67C254.876,100.181,299.596,144.711,300.076,198.691z"/>
			<path class="st2" d="M201.566,174.821c13.89,2.81,23.26,10.52,22.99,24.77c-0.29,15.63-10.01,25.07-25.68,24.3
				c-13.94-0.68-23.04-9.88-22.84-24.11C176.256,184.041,186.426,176.281,201.566,174.821z"/>
			<g>
				<g>
					<g>
						<path class="st3" d="M219.515,154.478c-3.03,10.753-6.037,21.41-9.032,32.067c-5.466,19.455-10.952,38.902-16.366,58.373
							c-1.279,4.603-3.106,9.073-8.823,7.536c-5.452-1.467-5.505-5.764-4.08-10.748c8.373-29.276,16.537-58.614,24.701-87.949
							c1.216-4.371,2.982-8.18,8.312-7.261C218.417,147.217,220.012,150.383,219.515,154.478z"/>
						<path class="st3" d="M173.4,229.604c0.101,2.816-1.326,4.808-3.665,6.039c-2.407,1.268-4.913,1.035-6.974-0.799
							c-11.387-10.113-22.793-20.207-34.033-30.481c-2.869-2.623-2.942-6.2-0.09-8.862c11.13-10.391,22.397-20.643,33.749-30.795
							c2.885-2.578,6.227-2.278,8.885,0.61c3.04,3.303,2.304,6.699-0.699,9.526c-7.461,7.025-14.922,14.058-22.661,20.768
							c-3.682,3.194-3.624,5.315,0.068,8.422c7.199,6.064,14.091,12.493,21.066,18.818
							C171.076,224.693,173.349,226.451,173.4,229.604z"/>
						<path class="st3" d="M233.091,236.017c-2.805-0.071-4.721-1.598-5.793-4.022c-1.448-3.274-0.052-5.873,2.395-8.11
							c6.948-6.358,13.598-13.084,20.909-18.988c5.505-4.447,4.639-7.304-0.309-11.334c-7.077-5.768-13.661-12.143-20.456-18.253
							c-3.243-2.918-4.975-6.314-1.692-10.079c3.57-4.09,7.229-2.703,10.785,0.501c9.885,8.892,19.777,17.776,29.821,26.487
							c5.327,4.62,5.887,8.863,0.369,13.758c-10.153,9.006-20.14,18.2-30.196,27.318
							C237.258,234.805,235.548,236.206,233.091,236.017z"/>
					</g>
				</g>
			</g>
		</g>
	</g>
</g>
<g>
</g>
<g>
</g>
<g>
</g>
<g>
</g>
<g>
</g>
<g>
</g>
<g>
</g>
<g>
</g>
<g>
</g>
<g>
</g>
<g>
</g>
<g>
</g>
<g>
</g>
<g>
</g>
<g>
</g>
</svg>
