<?xml version="1.0" encoding="utf-8"?>
<!-- Generator: Adobe Illustrator 26.0.1, SVG Export Plug-In . SVG Version: 6.00 Build 0)  -->
<svg version="1.1" id="Calque_1" xmlns="http://www.w3.org/2000/svg" xmlns:xlink="http://www.w3.org/1999/xlink" x="0px" y="0px"
	 viewBox="0 0 400 400" style="enable-background:new 0 0 400 400;" xml:space="preserve">
<style type="text/css">
	.st0{fill:#E07E64;}
	.st1{fill:#FDF8F7;}
	.st2{fill:#FCF6F4;}
	.st3{fill:#DF7A5F;}
</style>
<g>
	<g>
		<g>
			<path class="st0" d="M70.314,133.771c-6.26-6.972-12.803-13.271-5.103-24.036c7.859-10.987,16.953-9.381,27.472-6.133
				c21.5,6.625,29.222-4.005,27.56-23.767c-0.88-10.519-4.074-20.443,9.229-26.063c12.436-5.253,18.654,2.295,26.601,9.556
				c15.128,13.817,27.777,11.875,35.549-8.438c3.328-8.688,5.936-18.216,18.608-17.053c12.507,1.143,16.891,8.718,19.614,20.162
				c5.621,23.661,20.03,23.753,36.816,10.949c7.769-5.925,14.097-11.816,24.252-3.929c9.072,7.035,9.396,15.021,6.2,24.78
				c-8.374,25.535,4.083,32.232,26.886,29.166c8.437-1.133,16.312-1.981,21.221,7.718c5.014,9.893,3.269,17.698-4.594,25.004
				c-19.21,17.848-17.424,31.707,8.123,40.653c8.575,3.005,14.733,7.601,13.334,17.985c-1.419,10.572-7.014,16.004-17.841,18.237
				c-25.127,5.168-26.811,19.441-12.827,38.121c4.953,6.619,11.253,11.757,4.85,21.578c-7.152,10.976-15.839,11.597-26.832,7.969
				c-23.092-7.607-31.038,3.133-28.792,24.824c0.967,9.397,3.393,18.339-8.048,23.852c-11.872,5.724-18.897,0.127-26.981-7.78
				c-16.235-15.88-29.246-12.972-37.122,8.816c-3.352,9.256-7.309,17.339-19.624,15.379c-10.815-1.712-15.309-8.098-17.64-18.511
				c-5.779-25.764-20.68-25.361-38.505-11.494c-6.887,5.362-12.449,10.266-21.666,3.825c-9.199-6.428-11.24-13.966-7.866-24.112
				c8.951-26.929-3.435-34.417-28.091-30.403c-8.914,1.455-16.093,0.195-20.341-9.405c-3.942-8.881-2.694-16.154,4.242-22.441
				c20.952-18.998,18.341-33.134-8.49-42.5c-7.47-2.609-12.759-6.816-11.965-15.749c0.92-10.34,5.095-17.294,16.385-19.374
				C78.794,166.762,84.25,154.177,70.314,133.771z"/>
			<path class="st1" d="M300.076,198.691c0.49,55.42-44.98,101.05-100.37,100.74c-54.01-0.3-98.69-44.85-99.16-98.84
				c-0.48-55.59,44.71-100.95,100.3-100.67C254.876,100.181,299.596,144.711,300.076,198.691z"/>
			<path class="st2" d="M201.566,174.821c13.89,2.81,23.26,10.52,22.99,24.77c-0.29,15.63-10.01,25.07-25.68,24.3
				c-13.94-0.68-23.04-9.88-22.84-24.11C176.256,184.041,186.426,176.281,201.566,174.821z"/>
			<g>
				<g>
					<g>
						<path class="st3" d="M219.515,154.478c-3.03,10.753-6.037,21.41-9.032,32.067c-5.466,19.455-10.952,38.902-16.366,58.373
							c-1.279,4.603-3.106,9.073-8.823,7.536c-5.452-1.467-5.505-5.764-4.08-10.748c8.373-29.276,16.537-58.614,24.701-87.949
							c1.216-4.371,2.982-8.18,8.312-7.261C218.417,147.217,220.012,150.383,219.515,154.478z"/>
						<path class="st3" d="M173.4,229.604c0.101,2.816-1.326,4.808-3.665,6.039c-2.407,1.268-4.913,1.035-6.974-0.799
							c-11.387-10.113-22.793-20.207-34.033-30.481c-2.869-2.623-2.942-6.2-0.09-8.862c11.13-10.391,22.397-20.643,33.749-30.795
							c2.885-2.578,6.227-2.278,8.885,0.61c3.04,3.303,2.304,6.699-0.699,9.526c-7.461,7.025-14.922,14.058-22.661,20.768
							c-3.682,3.194-3.624,5.315,0.068,8.422c7.199,6.064,14.091,12.493,21.066,18.818
							C171.076,224.693,173.349,226.451,173.4,229.604z"/>
						<path class="st3" d="M233.091,236.017c-2.805-0.071-4.721-1.598-5.793-4.022c-1.448-3.274-0.052-5.873,2.395-8.11
							c6.948-6.358,13.598-13.084,20.909-18.988c5.505-4.447,4.639-7.304-0.309-11.334c-7.077-5.768-13.661-12.143-20.456-18.253
							c-3.243-2.918-4.975-6.314-1.692-10.079c3.57-4.09,7.229-2.703,10.785,0.501c9.885,8.892,19.777,17.776,29.821,26.487
							c5.327,4.62,5.887,8.863,0.369,13.758c-10.153,9.006-20.14,18.2-30.196,27.318
							C237.258,234.805,235.548,236.206,233.091,236.017z"/>
					</g>
				</g>
			</g>
		</g>
	</g>
</g>
<g>
</g>
<g>
</g>
<g>
</g>
<g>
</g>
<g>
</g>
<g>
</g>
<g>
</g>
<g>
</g>
<g>
</g>
<g>
</g>
<g>
</g>
<g>
</g>
<g>
</g>
<g>
</g>
<g>
</g>
</svg>
