<?xml version="1.0" encoding="utf-8"?>
<!-- Generator: Adobe Illustrator 26.0.1, SVG Export Plug-In . SVG Version: 6.00 Build 0)  -->
<svg version="1.1" id="Calque_1" xmlns="http://www.w3.org/2000/svg" xmlns:xlink="http://www.w3.org/1999/xlink" x="0px" y="0px"
	 viewBox="0 0 400 400" style="enable-background:new 0 0 400 400;" xml:space="preserve">
<style type="text/css">
	.st0{fill:#E07E64;}
	.st1{fill:#FDF8F7;}
	.st2{fill:#FCF6F4;}
	.st3{fill:#DF7A5F;}
</style>
<g>
	<g>
		<g>
			<path class="st0" d="M93.513,100.483c-4.096-8.427-8.649-16.285,1.72-24.511c10.583-8.395,18.882-4.345,28.098,1.676
				c18.841,12.295,29.194,4.204,33.044-15.25c2.053-10.354,1.719-20.774,16.055-22.51c13.402-1.622,17.299,7.348,22.937,16.518
				c10.733,17.451,23.428,19.072,36.498,1.688c5.594-7.434,10.727-15.874,22.587-11.263c11.707,4.546,13.834,13.036,13.296,24.788
				c-1.119,24.293,12.707,28.354,32.372,20.673c9.101-3.554,16.808-7.472,24.396,2.908c6.782,9.263,4.891,17.029-0.87,25.529
				c-15.088,22.238-4.96,32.109,17.806,35.447c8.423,1.236,16.227,2.592,18.272,13.269c2.093,10.892-1.736,17.914-11.308,22.77
				c-23.386,11.861-25.489,25.676-3.397,41.318c7.415,5.252,12.067,11.367,7.86,20.964c-4.278,9.771-11.154,13.451-22.177,12.613
				c-25.579-1.958-31.131,11.297-22.838,33.109c2.936,7.727,7.576,14.403-1.286,22.079c-9.901,8.58-18.422,6.782-27.989,0.264
				c-20.1-13.677-30.699-5.543-34.519,15.926c-1.66,9.3-1.794,18.564-14.311,20.71c-12.99,2.23-18.2-5.087-23.791-14.915
				c-11.228-19.74-24.538-20.531-38.114-1.758c-5.773,7.974-11.805,14.653-23.103,9.374c-9.924-4.627-12.484-12.005-11.854-22.656
				c1.546-26.359-12.889-30.079-33.846-21.662c-8.098,3.256-14.797,6.437-21.881-2.295c-7.071-8.715-6.955-16.523-0.915-25.346
				c16.027-23.419,6.185-34.031-18.622-36.968c-8.97-1.058-15.524-4.249-16.961-14.647c-1.341-9.623,1.863-16.271,10.263-20.402
				c25.377-12.486,26.764-26.795,3.554-43.193c-6.461-4.567-10.386-10.069-7.16-18.437c3.735-9.686,9.664-15.219,21.091-14.107
				C92.571,134.533,101.284,123.94,93.513,100.483z"/>
			<path class="st1" d="M300.076,198.691c0.49,55.42-44.98,101.05-100.37,100.74c-54.01-0.3-98.69-44.85-99.16-98.84
				c-0.48-55.59,44.71-100.95,100.3-100.67C254.876,100.181,299.596,144.711,300.076,198.691z"/>
			<path class="st2" d="M201.566,174.821c13.89,2.81,23.26,10.52,22.99,24.77c-0.29,15.63-10.01,25.07-25.68,24.3
				c-13.94-0.68-23.04-9.88-22.84-24.11C176.256,184.041,186.426,176.281,201.566,174.821z"/>
			<g>
				<g>
					<g>
						<path class="st3" d="M219.515,154.478c-3.03,10.753-6.037,21.41-9.032,32.067c-5.466,19.455-10.952,38.902-16.366,58.373
							c-1.279,4.603-3.106,9.073-8.823,7.536c-5.452-1.467-5.505-5.764-4.08-10.748c8.373-29.276,16.537-58.614,24.701-87.949
							c1.216-4.371,2.982-8.18,8.312-7.261C218.417,147.217,220.012,150.383,219.515,154.478z"/>
						<path class="st3" d="M173.4,229.604c0.101,2.816-1.326,4.808-3.665,6.039c-2.407,1.268-4.913,1.035-6.974-0.799
							c-11.387-10.113-22.793-20.207-34.033-30.481c-2.869-2.623-2.942-6.2-0.09-8.862c11.13-10.391,22.397-20.643,33.749-30.795
							c2.885-2.578,6.227-2.278,8.885,0.61c3.04,3.303,2.304,6.699-0.699,9.526c-7.461,7.025-14.922,14.058-22.661,20.768
							c-3.682,3.194-3.624,5.315,0.068,8.422c7.199,6.064,14.091,12.493,21.066,18.818
							C171.076,224.693,173.349,226.451,173.4,229.604z"/>
						<path class="st3" d="M233.091,236.017c-2.805-0.071-4.721-1.598-5.793-4.022c-1.448-3.274-0.052-5.873,2.395-8.11
							c6.948-6.358,13.598-13.084,20.909-18.988c5.505-4.447,4.639-7.304-0.309-11.334c-7.077-5.768-13.661-12.143-20.456-18.253
							c-3.243-2.918-4.975-6.314-1.692-10.079c3.57-4.09,7.229-2.703,10.785,0.501c9.885,8.892,19.777,17.776,29.821,26.487
							c5.327,4.62,5.887,8.863,0.369,13.758c-10.153,9.006-20.14,18.2-30.196,27.318
							C237.258,234.805,235.548,236.206,233.091,236.017z"/>
					</g>
				</g>
			</g>
		</g>
	</g>
</g>
<g>
</g>
<g>
</g>
<g>
</g>
<g>
</g>
<g>
</g>
<g>
</g>
<g>
</g>
<g>
</g>
<g>
</g>
<g>
</g>
<g>
</g>
<g>
</g>
<g>
</g>
<g>
</g>
<g>
</g>
</svg>
