<?xml version="1.0" encoding="utf-8"?>
<!-- Generator: Adobe Illustrator 26.0.1, SVG Export Plug-In . SVG Version: 6.00 Build 0)  -->
<svg version="1.1" id="Calque_1" xmlns="http://www.w3.org/2000/svg" xmlns:xlink="http://www.w3.org/1999/xlink" x="0px" y="0px"
	 viewBox="0 0 400 400" style="enable-background:new 0 0 400 400;" xml:space="preserve">
<style type="text/css">
	.st0{fill:#E07E64;}
	.st1{fill:#FDF8F7;}
	.st2{fill:#FCF6F4;}
	.st3{fill:#DF7A5F;}
</style>
<g>
	<g>
		<g>
			<path class="st0" d="M139.038,331.903c-6.749,6.499-12.816,13.259-23.843,5.939c-11.255-7.471-9.967-16.616-7.088-27.241
				c5.871-21.718-5.023-29.064-24.714-26.714c-10.482,1.247-20.288,4.785-26.369-8.313c-5.684-12.245,1.643-18.723,8.622-26.919
				c13.28-15.601,10.899-28.174-9.673-35.233c-8.799-3.023-18.412-5.296-17.692-18.001c0.706-12.539,8.123-17.185,19.466-20.305
				c23.45-6.443,23.04-20.847,9.658-37.175c-6.193-7.557-12.3-13.676-4.773-24.1c6.714-9.312,14.684-9.914,24.548-7.061
				c25.812,7.477,32.07-5.205,28.209-27.888c-1.427-8.392-2.549-16.233,6.973-21.478c9.712-5.357,17.573-3.885,25.149,3.718
				c18.507,18.576,32.296,16.307,40.345-9.537c2.704-8.675,7.082-14.989,17.509-13.953c10.615,1.049,16.24,6.451,18.848,17.194
				c6.042,24.932,20.365,26.116,38.545,11.489c6.442-5.181,11.357-11.656,21.395-5.6c11.219,6.765,12.143,15.425,8.901,26.538
				c-6.797,23.343,4.214,30.909,25.814,27.908c9.358-1.295,18.209-4.03,24.119,7.211c6.135,11.665,0.786,18.881-6.833,27.236
				c-15.304,16.779-11.943,29.681,10.106,36.792c9.367,3.027,17.583,6.699,16.055,19.076c-1.334,10.868-7.559,15.583-17.884,18.275
				c-25.547,6.675-24.624,21.553-10.143,38.883c5.599,6.695,10.695,12.084,4.579,21.519c-6.103,9.418-13.565,11.72-23.823,8.703
				c-27.225-8.006-34.276,4.634-29.404,29.135c1.765,8.858,0.756,16.077-8.689,20.657c-8.738,4.25-16.05,3.256-22.575-3.456
				c-19.717-20.277-33.754-17.174-42.177,9.968c-2.347,7.556-6.367,12.99-15.322,12.507c-10.366-0.559-17.461-4.488-19.934-15.699
				C171.713,322.276,158.946,317.263,139.038,331.903z"/>
			<path class="st1" d="M300.076,198.691c0.49,55.42-44.98,101.05-100.37,100.74c-54.01-0.3-98.69-44.85-99.16-98.84
				c-0.48-55.59,44.71-100.95,100.3-100.67C254.876,100.181,299.596,144.711,300.076,198.691z"/>
			<path class="st2" d="M201.566,174.821c13.89,2.81,23.26,10.52,22.99,24.77c-0.29,15.63-10.01,25.07-25.68,24.3
				c-13.94-0.68-23.04-9.88-22.84-24.11C176.256,184.041,186.426,176.281,201.566,174.821z"/>
			<g>
				<g>
					<g>
						<path class="st3" d="M219.515,154.478c-3.03,10.753-6.037,21.41-9.032,32.067c-5.466,19.455-10.952,38.902-16.366,58.373
							c-1.279,4.603-3.106,9.073-8.823,7.536c-5.452-1.467-5.505-5.764-4.08-10.748c8.373-29.276,16.537-58.614,24.701-87.949
							c1.216-4.371,2.982-8.18,8.312-7.261C218.417,147.217,220.012,150.383,219.515,154.478z"/>
						<path class="st3" d="M173.4,229.604c0.101,2.816-1.326,4.808-3.665,6.039c-2.407,1.268-4.913,1.035-6.974-0.799
							c-11.387-10.113-22.793-20.207-34.033-30.481c-2.869-2.623-2.942-6.2-0.09-8.862c11.13-10.391,22.397-20.643,33.749-30.795
							c2.885-2.578,6.227-2.278,8.885,0.61c3.04,3.303,2.304,6.699-0.699,9.526c-7.461,7.025-14.922,14.058-22.661,20.768
							c-3.682,3.194-3.624,5.315,0.068,8.422c7.199,6.064,14.091,12.493,21.066,18.818
							C171.076,224.693,173.349,226.451,173.4,229.604z"/>
						<path class="st3" d="M233.091,236.017c-2.805-0.071-4.721-1.598-5.793-4.022c-1.448-3.274-0.052-5.873,2.395-8.11
							c6.948-6.358,13.598-13.084,20.909-18.988c5.505-4.447,4.639-7.304-0.309-11.334c-7.077-5.768-13.661-12.143-20.456-18.253
							c-3.243-2.918-4.975-6.314-1.692-10.079c3.57-4.09,7.229-2.703,10.785,0.501c9.885,8.892,19.777,17.776,29.821,26.487
							c5.327,4.62,5.887,8.863,0.369,13.758c-10.153,9.006-20.14,18.2-30.196,27.318
							C237.258,234.805,235.548,236.206,233.091,236.017z"/>
					</g>
				</g>
			</g>
		</g>
	</g>
</g>
<g>
</g>
<g>
</g>
<g>
</g>
<g>
</g>
<g>
</g>
<g>
</g>
<g>
</g>
<g>
</g>
<g>
</g>
<g>
</g>
<g>
</g>
<g>
</g>
<g>
</g>
<g>
</g>
<g>
</g>
</svg>
