<?xml version="1.0" encoding="utf-8"?>
<!-- Generator: Adobe Illustrator 26.0.1, SVG Export Plug-In . SVG Version: 6.00 Build 0)  -->
<svg version="1.1" id="Calque_1" xmlns="http://www.w3.org/2000/svg" xmlns:xlink="http://www.w3.org/1999/xlink" x="0px" y="0px"
	 viewBox="0 0 400 400" style="enable-background:new 0 0 400 400;" xml:space="preserve">
<style type="text/css">
	.st0{fill:#E07E64;}
	.st1{fill:#FDF8F7;}
	.st2{fill:#FCF6F4;}
	.st3{fill:#DF7A5F;}
</style>
<g>
	<g>
		<g>
			<path class="st0" d="M336.547,251.58c6.954,6.279,14.12,11.859,7.587,23.37c-6.667,11.748-15.88,11.102-26.68,8.971
				c-22.075-4.342-28.643,7.038-24.925,26.518c1.975,10.369,6.189,19.905-6.454,26.885c-11.819,6.524-18.792-0.332-27.454-6.723
				c-16.489-12.16-28.866-8.907-34.472,12.107c-2.402,8.989-3.999,18.736-16.723,18.905c-12.558,0.171-17.71-6.904-21.614-18.002
				c-8.063-22.943-22.403-21.53-37.759-7.041c-7.107,6.705-12.785,13.224-23.709,6.443c-9.758-6.048-10.915-13.957-8.757-23.996
				c5.659-26.27-7.43-31.629-29.788-26.195c-8.272,2.009-16.016,3.676-21.912-5.458c-6.021-9.315-5.101-17.259,1.955-25.348
				c17.24-19.758,14.014-33.355-12.328-39.581c-8.842-2.092-15.447-6.019-15.141-16.493c0.306-10.662,5.303-16.65,15.837-20.002
				c24.45-7.766,24.632-22.137,8.772-39.253c-5.617-6.065-12.42-10.516-7.079-20.953c5.966-11.664,14.54-13.189,25.852-10.73
				c23.76,5.152,30.54-6.36,26.039-27.697c-1.944-9.244-5.291-17.884,5.511-24.563c11.209-6.933,18.78-2.101,27.646,4.917
				c17.806,14.096,30.442,9.844,35.998-12.648c2.366-9.556,5.456-18.008,17.909-17.346c10.935,0.572,16.072,6.454,19.478,16.565
				c8.441,25.019,23.218,23.06,39.496,7.406c6.288-6.052,11.308-11.512,21.148-6.069c9.82,5.431,12.638,12.715,10.343,23.158
				c-6.087,27.717,7.014,33.87,31.115,27.3c8.713-2.379,15.985-1.876,21.213,7.227c4.849,8.42,4.368,15.784-1.873,22.761
				c-18.852,21.084-14.778,34.869,12.886,41.379c7.702,1.814,13.402,5.445,13.545,14.412c0.165,10.38-3.259,17.731-14.271,20.98
				C324.664,219.656,320.555,232.742,336.547,251.58z"/>
			<path class="st1" d="M300.076,198.691c0.49,55.42-44.98,101.05-100.37,100.74c-54.01-0.3-98.69-44.85-99.16-98.84
				c-0.48-55.59,44.71-100.95,100.3-100.67C254.876,100.181,299.596,144.711,300.076,198.691z"/>
			<path class="st2" d="M201.566,174.821c13.89,2.81,23.26,10.52,22.99,24.77c-0.29,15.63-10.01,25.07-25.68,24.3
				c-13.94-0.68-23.04-9.88-22.84-24.11C176.256,184.041,186.426,176.281,201.566,174.821z"/>
			<g>
				<g>
					<g>
						<path class="st3" d="M219.515,154.478c-3.03,10.753-6.037,21.41-9.032,32.067c-5.466,19.455-10.952,38.902-16.366,58.373
							c-1.279,4.603-3.106,9.073-8.823,7.536c-5.452-1.467-5.505-5.764-4.08-10.748c8.373-29.276,16.537-58.614,24.701-87.949
							c1.216-4.371,2.982-8.18,8.312-7.261C218.417,147.217,220.012,150.383,219.515,154.478z"/>
						<path class="st3" d="M173.4,229.604c0.101,2.816-1.326,4.808-3.665,6.039c-2.407,1.268-4.913,1.035-6.974-0.799
							c-11.387-10.113-22.793-20.207-34.033-30.481c-2.869-2.623-2.942-6.2-0.09-8.862c11.13-10.391,22.397-20.643,33.749-30.795
							c2.885-2.578,6.227-2.278,8.885,0.61c3.04,3.303,2.304,6.699-0.699,9.526c-7.461,7.025-14.922,14.058-22.661,20.768
							c-3.682,3.194-3.624,5.315,0.068,8.422c7.199,6.064,14.091,12.493,21.066,18.818
							C171.076,224.693,173.349,226.451,173.4,229.604z"/>
						<path class="st3" d="M233.091,236.017c-2.805-0.071-4.721-1.598-5.793-4.022c-1.448-3.274-0.052-5.873,2.395-8.11
							c6.948-6.358,13.598-13.084,20.909-18.988c5.505-4.447,4.639-7.304-0.309-11.334c-7.077-5.768-13.661-12.143-20.456-18.253
							c-3.243-2.918-4.975-6.314-1.692-10.079c3.57-4.09,7.229-2.703,10.785,0.501c9.885,8.892,19.777,17.776,29.821,26.487
							c5.327,4.62,5.887,8.863,0.369,13.758c-10.153,9.006-20.14,18.2-30.196,27.318
							C237.258,234.805,235.548,236.206,233.091,236.017z"/>
					</g>
				</g>
			</g>
		</g>
	</g>
</g>
<g>
</g>
<g>
</g>
<g>
</g>
<g>
</g>
<g>
</g>
<g>
</g>
<g>
</g>
<g>
</g>
<g>
</g>
<g>
</g>
<g>
</g>
<g>
</g>
<g>
</g>
<g>
</g>
<g>
</g>
</svg>
