<?xml version="1.0" encoding="utf-8"?>
<!-- Generator: Adobe Illustrator 26.0.1, SVG Export Plug-In . SVG Version: 6.00 Build 0)  -->
<svg version="1.1" id="Calque_1" xmlns="http://www.w3.org/2000/svg" xmlns:xlink="http://www.w3.org/1999/xlink" x="0px" y="0px"
	 viewBox="0 0 400 400" style="enable-background:new 0 0 400 400;" xml:space="preserve">
<style type="text/css">
	.st0{fill:#E07E64;}
	.st1{fill:#FDF8F7;}
	.st2{fill:#FCF6F4;}
	.st3{fill:#DF7A5F;}
</style>
<g>
	<g>
		<g>
			<path class="st0" d="M293.787,87.781c8.201-4.531,15.81-9.49,24.567,0.435c8.938,10.129,5.327,18.629-0.203,28.147
				c-11.292,19.459-2.671,29.374,16.958,32.201c10.447,1.509,20.836,0.629,23.319,14.855c2.321,13.299-6.432,17.66-15.295,23.77
				c-16.866,11.632-17.819,24.394,0.225,36.536c7.717,5.197,16.413,9.881,12.43,21.967c-3.927,11.929-12.294,14.497-24.058,14.575
				c-24.319,0.154-27.65,14.173-18.95,33.409c4.026,8.903,8.342,16.394-1.627,24.514c-8.896,7.257-16.75,5.776-25.539,0.467
				c-22.997-13.903-32.325-3.272-34.466,19.636c-0.794,8.476-1.739,16.34-12.294,18.941c-10.768,2.66-17.98-0.796-23.33-10.101
				c-13.069-22.733-26.975-24.11-41.439-1.23c-4.857,7.679-10.72,12.646-20.524,8.946c-9.982-3.761-14.016-10.434-13.756-21.486
				c0.617-25.646-12.911-30.497-34.259-21.074c-7.563,3.337-13.987,8.32-22.116-0.128c-9.086-9.438-7.737-18.042-1.729-27.937
				c12.607-20.789,3.929-30.947-17.711-33.638c-9.374-1.171-18.632-0.82-21.43-13.208c-2.906-12.856,4.127-18.441,13.65-24.539
				c19.125-12.246,19.219-25.579-0.239-38.154c-8.265-5.348-15.25-11.022-10.571-22.581c4.101-10.153,11.335-13.095,22.004-13.024
				c26.404,0.165,29.363-14.445,19.861-34.933c-3.675-7.916-7.203-14.44,1.147-21.971c8.333-7.517,16.137-7.81,25.264-2.24
				c24.226,14.779,34.308,4.395,35.943-20.532c0.588-9.013,3.431-15.725,13.739-17.704c9.54-1.843,16.346,1.009,20.911,9.181
				c13.797,24.689,28.159,25.325,43.32,1.288c4.223-6.691,9.512-10.899,18.037-8.115c9.868,3.223,15.704,8.854,15.191,20.324
				C259.733,88.623,270.769,96.769,293.787,87.781z"/>
			<path class="st1" d="M300.076,198.691c0.49,55.42-44.98,101.05-100.37,100.74c-54.01-0.3-98.69-44.85-99.16-98.84
				c-0.48-55.59,44.71-100.95,100.3-100.67C254.876,100.181,299.596,144.711,300.076,198.691z"/>
			<path class="st2" d="M201.566,174.821c13.89,2.81,23.26,10.52,22.99,24.77c-0.29,15.63-10.01,25.07-25.68,24.3
				c-13.94-0.68-23.04-9.88-22.84-24.11C176.256,184.041,186.426,176.281,201.566,174.821z"/>
			<g>
				<g>
					<g>
						<path class="st3" d="M219.515,154.478c-3.03,10.753-6.037,21.41-9.032,32.067c-5.466,19.455-10.952,38.902-16.366,58.373
							c-1.279,4.603-3.106,9.073-8.823,7.536c-5.452-1.467-5.505-5.764-4.08-10.748c8.373-29.276,16.537-58.614,24.701-87.949
							c1.216-4.371,2.982-8.18,8.312-7.261C218.417,147.217,220.012,150.383,219.515,154.478z"/>
						<path class="st3" d="M173.4,229.604c0.101,2.816-1.326,4.808-3.665,6.039c-2.407,1.268-4.913,1.035-6.974-0.799
							c-11.387-10.113-22.793-20.207-34.033-30.481c-2.869-2.623-2.942-6.2-0.09-8.862c11.13-10.391,22.397-20.643,33.749-30.795
							c2.885-2.578,6.227-2.278,8.885,0.61c3.04,3.303,2.304,6.699-0.699,9.526c-7.461,7.025-14.922,14.058-22.661,20.768
							c-3.682,3.194-3.624,5.315,0.068,8.422c7.199,6.064,14.091,12.493,21.066,18.818
							C171.076,224.693,173.349,226.451,173.4,229.604z"/>
						<path class="st3" d="M233.091,236.017c-2.805-0.071-4.721-1.598-5.793-4.022c-1.448-3.274-0.052-5.873,2.395-8.11
							c6.948-6.358,13.598-13.084,20.909-18.988c5.505-4.447,4.639-7.304-0.309-11.334c-7.077-5.768-13.661-12.143-20.456-18.253
							c-3.243-2.918-4.975-6.314-1.692-10.079c3.57-4.09,7.229-2.703,10.785,0.501c9.885,8.892,19.777,17.776,29.821,26.487
							c5.327,4.62,5.887,8.863,0.369,13.758c-10.153,9.006-20.14,18.2-30.196,27.318
							C237.258,234.805,235.548,236.206,233.091,236.017z"/>
					</g>
				</g>
			</g>
		</g>
	</g>
</g>
<g>
</g>
<g>
</g>
<g>
</g>
<g>
</g>
<g>
</g>
<g>
</g>
<g>
</g>
<g>
</g>
<g>
</g>
<g>
</g>
<g>
</g>
<g>
</g>
<g>
</g>
<g>
</g>
<g>
</g>
</svg>
