<?xml version="1.0" encoding="utf-8"?>
<!-- Generator: Adobe Illustrator 26.0.1, SVG Export Plug-In . SVG Version: 6.00 Build 0)  -->
<svg version="1.1" id="Calque_1" xmlns="http://www.w3.org/2000/svg" xmlns:xlink="http://www.w3.org/1999/xlink" x="0px" y="0px"
	 viewBox="0 0 400 400" style="enable-background:new 0 0 400 400;" xml:space="preserve">
<style type="text/css">
	.st0{fill:#E07E64;}
	.st1{fill:#FDF8F7;}
	.st2{fill:#FCF6F4;}
	.st3{fill:#DF7A5F;}
</style>
<g>
	<g>
		<g>
			<path class="st0" d="M344.37,222.119c8.108,4.696,16.277,8.665,12.281,21.282c-4.079,12.878-13.225,14.161-24.232,14.322
				c-22.495,0.343-26.554,12.839-18.867,31.121c4.088,9.732,10.192,18.184-0.723,27.639c-10.204,8.839-18.45,3.582-28.252-0.868
				c-18.657-8.466-30.087-2.71-31.202,19.01c-0.48,9.291-0.016,19.158-12.427,21.968c-12.248,2.778-18.758-3.071-24.884-13.115
				c-12.657-20.766-26.39-16.401-38.397,0.963c-5.558,8.036-9.756,15.594-21.851,11.231c-10.802-3.887-13.578-11.383-13.554-21.651
				c0.073-26.873-13.843-29.393-34.583-19.43c-7.674,3.685-14.902,6.925-22.568-0.783c-7.826-7.859-8.578-15.822-3.358-25.2
				c12.755-22.91,6.773-35.54-20.288-36.153c-9.084-0.208-16.361-2.676-18.239-12.985c-1.917-10.493,1.725-17.389,11.333-22.857
				c22.301-12.68,19.491-26.774,0.419-40.219c-6.756-4.764-14.335-7.704-11.28-19.023c3.41-12.649,11.48-15.924,23.056-15.871
				c24.312,0.099,28.55-12.571,19.712-32.506c-3.824-8.638-8.894-16.393,0.284-25.172c9.523-9.112,17.933-5.96,28.065-0.939
				c20.347,10.086,31.824,3.299,32.581-19.856c0.327-9.839,1.593-18.749,13.911-20.691c10.815-1.714,17.063,2.971,22.497,12.154
				c13.458,22.717,27.505,17.729,40.173-0.968c4.893-7.227,8.668-13.611,19.424-10.333c10.735,3.271,15.006,9.809,14.932,20.501
				c-0.191,28.377,13.903,31.671,36.111,20.234c8.028-4.139,15.246-5.158,22.252,2.659c6.493,7.228,7.554,14.531,2.9,22.653
				c-14.056,24.543-7.205,37.18,21.207,37.796c7.911,0.173,14.241,2.54,16.246,11.281c2.32,10.118,0.499,18.021-9.597,23.489
				C326.11,193.363,324.811,207.018,344.37,222.119z"/>
			<path class="st1" d="M300.076,198.691c0.49,55.42-44.98,101.05-100.37,100.74c-54.01-0.3-98.69-44.85-99.16-98.84
				c-0.48-55.59,44.71-100.95,100.3-100.67C254.876,100.181,299.596,144.711,300.076,198.691z"/>
			<path class="st2" d="M201.566,174.821c13.89,2.81,23.26,10.52,22.99,24.77c-0.29,15.63-10.01,25.07-25.68,24.3
				c-13.94-0.68-23.04-9.88-22.84-24.11C176.256,184.041,186.426,176.281,201.566,174.821z"/>
			<g>
				<g>
					<g>
						<path class="st3" d="M219.515,154.478c-3.03,10.753-6.037,21.41-9.032,32.067c-5.466,19.455-10.952,38.902-16.366,58.373
							c-1.279,4.603-3.106,9.073-8.823,7.536c-5.452-1.467-5.505-5.764-4.08-10.748c8.373-29.276,16.537-58.614,24.701-87.949
							c1.216-4.371,2.982-8.18,8.312-7.261C218.417,147.217,220.012,150.383,219.515,154.478z"/>
						<path class="st3" d="M173.4,229.604c0.101,2.816-1.326,4.808-3.665,6.039c-2.407,1.268-4.913,1.035-6.974-0.799
							c-11.387-10.113-22.793-20.207-34.033-30.481c-2.869-2.623-2.942-6.2-0.09-8.862c11.13-10.391,22.397-20.643,33.749-30.795
							c2.885-2.578,6.227-2.278,8.885,0.61c3.04,3.303,2.304,6.699-0.699,9.526c-7.461,7.025-14.922,14.058-22.661,20.768
							c-3.682,3.194-3.624,5.315,0.068,8.422c7.199,6.064,14.091,12.493,21.066,18.818
							C171.076,224.693,173.349,226.451,173.4,229.604z"/>
						<path class="st3" d="M233.091,236.017c-2.805-0.071-4.721-1.598-5.793-4.022c-1.448-3.274-0.052-5.873,2.395-8.11
							c6.948-6.358,13.598-13.084,20.909-18.988c5.505-4.447,4.639-7.304-0.309-11.334c-7.077-5.768-13.661-12.143-20.456-18.253
							c-3.243-2.918-4.975-6.314-1.692-10.079c3.57-4.09,7.229-2.703,10.785,0.501c9.885,8.892,19.777,17.776,29.821,26.487
							c5.327,4.62,5.887,8.863,0.369,13.758c-10.153,9.006-20.14,18.2-30.196,27.318
							C237.258,234.805,235.548,236.206,233.091,236.017z"/>
					</g>
				</g>
			</g>
		</g>
	</g>
</g>
<g>
</g>
<g>
</g>
<g>
</g>
<g>
</g>
<g>
</g>
<g>
</g>
<g>
</g>
<g>
</g>
<g>
</g>
<g>
</g>
<g>
</g>
<g>
</g>
<g>
</g>
<g>
</g>
<g>
</g>
</svg>
