<?xml version="1.0" encoding="utf-8"?>
<!-- Generator: Adobe Illustrator 26.0.1, SVG Export Plug-In . SVG Version: 6.00 Build 0)  -->
<svg version="1.1" id="Calque_1" xmlns="http://www.w3.org/2000/svg" xmlns:xlink="http://www.w3.org/1999/xlink" x="0px" y="0px"
	 viewBox="0 0 400 400" style="enable-background:new 0 0 400 400;" xml:space="preserve">
<style type="text/css">
	.st0{fill:#E07E64;}
	.st1{fill:#FDF8F7;}
	.st2{fill:#FCF6F4;}
	.st3{fill:#DF7A5F;}
</style>
<g>
	<g>
		<g>
			<path class="st0" d="M291.82,86.167c8.121-4.673,15.642-9.764,24.571,0.006c9.113,9.972,5.651,18.533,0.288,28.146
				c-10.951,19.653-2.158,29.416,17.518,31.9c10.472,1.326,20.843,0.265,23.575,14.446c2.553,13.256-6.123,17.769-14.878,24.033
				c-16.66,11.925-17.391,24.701,0.862,36.526c7.806,5.062,16.583,9.593,12.812,21.747c-3.718,11.996-12.039,14.709-23.8,14.993
				c-24.312,0.579-27.399,14.654-18.364,33.735c4.181,8.831,8.626,16.246-1.199,24.539c-8.767,7.411-16.647,6.067-25.527,0.913
				c-23.236-13.5-32.377-2.708-34.118,20.235c-0.646,8.488-1.453,16.368-11.962,19.153c-10.719,2.848-17.991-0.482-23.503-9.692
				c-13.463-22.501-27.392-23.635-41.454-0.506c-4.722,7.763-10.498,12.831-20.364,9.303c-10.046-3.586-14.196-10.188-14.129-21.243
				c0.169-25.653-13.442-30.267-34.621-20.472c-7.504,3.468-13.84,8.562-22.115,0.258c-9.249-9.278-8.051-17.904-2.216-27.903
				c12.242-21.006,3.388-31.011-18.295-33.324c-9.393-1.008-18.643-0.494-21.658-12.832c-3.13-12.803,3.805-18.51,13.219-24.774
				c18.909-12.578,18.769-25.91-0.905-38.144c-8.357-5.203-15.44-10.754-10.963-22.393c3.923-10.223,11.104-13.291,21.774-13.406
				c26.403-0.296,29.106-14.956,19.248-35.274c-3.813-7.851-7.454-14.312,0.763-21.988c8.2-7.661,15.998-8.091,25.221-2.681
				c24.48,14.354,34.379,3.796,35.579-21.156c0.43-9.022,3.156-15.782,13.428-17.942c9.506-2.009,16.361,0.723,21.068,8.815
				c14.226,24.444,28.596,24.829,43.336,0.532c4.106-6.764,9.32-11.063,17.892-8.429c9.923,3.05,15.856,8.579,15.544,20.055
				C257.787,87.603,268.963,95.556,291.82,86.167z"/>
			<path class="st1" d="M300.076,198.691c0.49,55.42-44.98,101.05-100.37,100.74c-54.01-0.3-98.69-44.85-99.16-98.84
				c-0.48-55.59,44.71-100.95,100.3-100.67C254.876,100.181,299.596,144.711,300.076,198.691z"/>
			<path class="st2" d="M201.566,174.821c13.89,2.81,23.26,10.52,22.99,24.77c-0.29,15.63-10.01,25.07-25.68,24.3
				c-13.94-0.68-23.04-9.88-22.84-24.11C176.256,184.041,186.426,176.281,201.566,174.821z"/>
			<g>
				<g>
					<g>
						<path class="st3" d="M219.515,154.478c-3.03,10.753-6.037,21.41-9.032,32.067c-5.466,19.455-10.952,38.902-16.366,58.373
							c-1.279,4.603-3.106,9.073-8.823,7.536c-5.452-1.467-5.505-5.764-4.08-10.748c8.373-29.276,16.537-58.614,24.701-87.949
							c1.216-4.371,2.982-8.18,8.312-7.261C218.417,147.217,220.012,150.383,219.515,154.478z"/>
						<path class="st3" d="M173.4,229.604c0.101,2.816-1.326,4.808-3.665,6.039c-2.407,1.268-4.913,1.035-6.974-0.799
							c-11.387-10.113-22.793-20.207-34.033-30.481c-2.869-2.623-2.942-6.2-0.09-8.862c11.13-10.391,22.397-20.643,33.749-30.795
							c2.885-2.578,6.227-2.278,8.885,0.61c3.04,3.303,2.304,6.699-0.699,9.526c-7.461,7.025-14.922,14.058-22.661,20.768
							c-3.682,3.194-3.624,5.315,0.068,8.422c7.199,6.064,14.091,12.493,21.066,18.818
							C171.076,224.693,173.349,226.451,173.4,229.604z"/>
						<path class="st3" d="M233.091,236.017c-2.805-0.071-4.721-1.598-5.793-4.022c-1.448-3.274-0.052-5.873,2.395-8.11
							c6.948-6.358,13.598-13.084,20.909-18.988c5.505-4.447,4.639-7.304-0.309-11.334c-7.077-5.768-13.661-12.143-20.456-18.253
							c-3.243-2.918-4.975-6.314-1.692-10.079c3.57-4.09,7.229-2.703,10.785,0.501c9.885,8.892,19.777,17.776,29.821,26.487
							c5.327,4.62,5.887,8.863,0.369,13.758c-10.153,9.006-20.14,18.2-30.196,27.318
							C237.258,234.805,235.548,236.206,233.091,236.017z"/>
					</g>
				</g>
			</g>
		</g>
	</g>
</g>
<g>
</g>
<g>
</g>
<g>
</g>
<g>
</g>
<g>
</g>
<g>
</g>
<g>
</g>
<g>
</g>
<g>
</g>
<g>
</g>
<g>
</g>
<g>
</g>
<g>
</g>
<g>
</g>
<g>
</g>
</svg>
