<?xml version="1.0" encoding="utf-8"?>
<!-- Generator: Adobe Illustrator 26.0.1, SVG Export Plug-In . SVG Version: 6.00 Build 0)  -->
<svg version="1.1" id="Calque_1" xmlns="http://www.w3.org/2000/svg" xmlns:xlink="http://www.w3.org/1999/xlink" x="0px" y="0px"
	 viewBox="0 0 400 400" style="enable-background:new 0 0 400 400;" xml:space="preserve">
<style type="text/css">
	.st0{fill:#E07E64;}
	.st1{fill:#FDF8F7;}
	.st2{fill:#FCF6F4;}
	.st3{fill:#DF7A5F;}
</style>
<g>
	<g>
		<g>
			<path class="st0" d="M341.054,161.607c9.317,0.992,18.394,1.295,19.875,14.447c1.511,13.424-6.321,18.316-16.311,22.94
				c-20.411,9.463-19.036,22.53-4.578,36.104c7.692,7.228,16.707,12.466,10.582,25.544c-5.727,12.225-15.398,10.776-26.163,10.698
				c-20.487-0.145-28.588,9.761-20.772,30.057c3.34,8.684,7.778,17.508-2.418,25.124c-10.059,7.519-18.386,4.824-28.067-1.86
				c-20.009-13.822-30.779-4.25-34.686,16.498c-1.809,9.602-2.57,18.213-15.394,19.148c-11.449,0.842-17.034-4.876-21.189-14.266
				c-10.863-24.579-24.602-21.221-39.496-3.684c-5.512,6.488-10.797,12.388-20.935,8.464c-10.346-3.997-14.272-10.965-13.317-21.656
				c2.334-26.118-8.268-35.222-33.239-24.776c-8.383,3.505-16.035,4.21-21.943-4.444c-6.019-8.806-5.497-16.587,1.056-25.491
				c15.215-20.654,6.916-32.387-15.976-36.912c-8.109-1.605-16.229-1.208-18.042-12.79c-2.029-12.943,4.011-19.217,14.608-23.876
				c22.251-9.798,20.969-23.097,4.786-37.713c-7.007-6.336-14.792-11.358-9.979-23.111c4.993-12.198,13.958-12.739,25.256-12.272
				c22.691,0.938,30.414-9.93,21.689-31.391c-3.703-9.121-6.17-17.776,4.293-24.56c9.183-5.964,16.796-4.226,25.495,1.953
				c21.534,15.279,32.338,5.009,36.306-17.224c1.53-8.592,2.382-15.96,13.542-17.34c11.137-1.378,17.698,2.858,21.98,12.655
				c11.367,26.002,25.583,23.278,41.219,3.797c5.651-7.046,11.83-10.913,21.41-6.622c8.872,3.962,12.811,10.202,11.863,19.515
				c-2.859,28.138,8.54,36.896,34.747,25.903c7.297-3.059,14.043-3.472,19.43,3.698c6.235,8.3,7.786,16.261,0.787,25.361
				C312.676,142.765,317.043,155.768,341.054,161.607z"/>
			<path class="st1" d="M300.076,198.691c0.49,55.42-44.98,101.05-100.37,100.74c-54.01-0.3-98.69-44.85-99.16-98.84
				c-0.48-55.59,44.71-100.95,100.3-100.67C254.876,100.181,299.596,144.711,300.076,198.691z"/>
			<path class="st2" d="M201.566,174.821c13.89,2.81,23.26,10.52,22.99,24.77c-0.29,15.63-10.01,25.07-25.68,24.3
				c-13.94-0.68-23.04-9.88-22.84-24.11C176.256,184.041,186.426,176.281,201.566,174.821z"/>
			<g>
				<g>
					<g>
						<path class="st3" d="M219.515,154.478c-3.03,10.753-6.037,21.41-9.032,32.067c-5.466,19.455-10.952,38.902-16.366,58.373
							c-1.279,4.603-3.106,9.073-8.823,7.536c-5.452-1.467-5.505-5.764-4.08-10.748c8.373-29.276,16.537-58.614,24.701-87.949
							c1.216-4.371,2.982-8.18,8.312-7.261C218.417,147.217,220.012,150.383,219.515,154.478z"/>
						<path class="st3" d="M173.4,229.604c0.101,2.816-1.326,4.808-3.665,6.039c-2.407,1.268-4.913,1.035-6.974-0.799
							c-11.387-10.113-22.793-20.207-34.033-30.481c-2.869-2.623-2.942-6.2-0.09-8.862c11.13-10.391,22.397-20.643,33.749-30.795
							c2.885-2.578,6.227-2.278,8.885,0.61c3.04,3.303,2.304,6.699-0.699,9.526c-7.461,7.025-14.922,14.058-22.661,20.768
							c-3.682,3.194-3.624,5.315,0.068,8.422c7.199,6.064,14.091,12.493,21.066,18.818
							C171.076,224.693,173.349,226.451,173.4,229.604z"/>
						<path class="st3" d="M233.091,236.017c-2.805-0.071-4.721-1.598-5.793-4.022c-1.448-3.274-0.052-5.873,2.395-8.11
							c6.948-6.358,13.598-13.084,20.909-18.988c5.505-4.447,4.639-7.304-0.309-11.334c-7.077-5.768-13.661-12.143-20.456-18.253
							c-3.243-2.918-4.975-6.314-1.692-10.079c3.57-4.09,7.229-2.703,10.785,0.501c9.885,8.892,19.777,17.776,29.821,26.487
							c5.327,4.62,5.887,8.863,0.369,13.758c-10.153,9.006-20.14,18.2-30.196,27.318
							C237.258,234.805,235.548,236.206,233.091,236.017z"/>
					</g>
				</g>
			</g>
		</g>
	</g>
</g>
<g>
</g>
<g>
</g>
<g>
</g>
<g>
</g>
<g>
</g>
<g>
</g>
<g>
</g>
<g>
</g>
<g>
</g>
<g>
</g>
<g>
</g>
<g>
</g>
<g>
</g>
<g>
</g>
<g>
</g>
</svg>
