<?xml version="1.0" encoding="utf-8"?>
<!-- Generator: Adobe Illustrator 26.0.1, SVG Export Plug-In . SVG Version: 6.00 Build 0)  -->
<svg version="1.1" id="Calque_1" xmlns="http://www.w3.org/2000/svg" xmlns:xlink="http://www.w3.org/1999/xlink" x="0px" y="0px"
	 viewBox="0 0 400 400" style="enable-background:new 0 0 400 400;" xml:space="preserve">
<style type="text/css">
	.st0{fill:#E07E64;}
	.st1{fill:#FDF8F7;}
	.st2{fill:#FCF6F4;}
	.st3{fill:#DF7A5F;}
</style>
<g>
	<g>
		<g>
			<path class="st0" d="M112.356,83.441c-2.57-9.01-5.69-17.54,5.95-23.84c11.88-6.43,19.35-1,27.38,6.53
				c16.42,15.38,28.02,9.21,35.19-9.28c3.82-9.84,5.3-20.16,19.72-19.38c13.48,0.73,15.76,10.24,19.72,20.25
				c7.54,19.05,19.76,22.85,35.65,8c6.8-6.35,13.32-13.77,24.2-7.17c10.74,6.51,11.36,15.24,8.79,26.72
				c-5.32,23.73,7.59,30.13,28.29,25.98c9.58-1.92,17.85-4.44,23.52,7.1c5.07,10.3,1.86,17.62-5.29,24.99
				c-18.72,19.28-10.46,30.76,11.38,38c8.08,2.68,15.53,5.37,15.69,16.24c0.17,11.09-4.82,17.34-15.09,20.46
				c-25.09,7.62-29.56,20.86-10.52,40.1c6.39,6.46,9.91,13.29,4.1,22.01c-5.91,8.88-13.32,11.31-24.03,8.57
				c-24.85-6.37-32.62,5.72-28.24,28.64c1.55,8.12,4.96,15.5-5.1,21.52c-11.24,6.73-19.32,3.48-27.61-4.6
				c-17.42-16.96-29.27-10.79-36.76,9.69c-3.25,8.87-4.99,17.97-17.69,17.91c-13.18-0.06-17.04-8.17-20.84-18.82
				c-7.63-21.39-20.6-24.48-37.23-8.35c-7.07,6.85-14.17,12.38-24.38,5.22c-8.97-6.28-10.21-13.99-7.74-24.37
				c6.1-25.69-7.47-31.86-29.57-27.21c-8.54,1.8-15.69,3.77-21.15-6.06c-5.45-9.81-3.98-17.48,3.5-25.12
				c19.85-20.28,12-32.44-11.92-39.64c-8.65-2.6-14.55-6.88-14.16-17.37c0.35-9.71,4.66-15.7,13.65-18.31
				c27.16-7.89,31.01-21.74,11-41.92c-5.57-5.62-8.48-11.72-3.85-19.4c5.36-8.89,12.16-13.31,23.22-10.23
				C105.516,116.811,115.936,107.891,112.356,83.441z"/>
			<path class="st1" d="M300.076,198.691c0.49,55.42-44.98,101.05-100.37,100.74c-54.01-0.3-98.69-44.85-99.16-98.84
				c-0.48-55.59,44.71-100.95,100.3-100.67C254.876,100.181,299.596,144.711,300.076,198.691z"/>
			<path class="st2" d="M201.566,174.821c13.89,2.81,23.26,10.52,22.99,24.77c-0.29,15.63-10.01,25.07-25.68,24.3
				c-13.94-0.68-23.04-9.88-22.84-24.11C176.256,184.041,186.426,176.281,201.566,174.821z"/>
			<g>
				<g>
					<g>
						<path class="st3" d="M219.515,154.478c-3.03,10.753-6.037,21.41-9.032,32.067c-5.466,19.455-10.952,38.902-16.366,58.373
							c-1.279,4.603-3.106,9.073-8.823,7.536c-5.452-1.467-5.505-5.764-4.08-10.748c8.373-29.276,16.537-58.614,24.701-87.949
							c1.216-4.371,2.982-8.18,8.312-7.261C218.417,147.217,220.012,150.383,219.515,154.478z"/>
						<path class="st3" d="M173.4,229.604c0.101,2.816-1.326,4.808-3.665,6.039c-2.407,1.268-4.913,1.035-6.974-0.799
							c-11.387-10.113-22.793-20.207-34.033-30.481c-2.869-2.623-2.942-6.2-0.09-8.862c11.13-10.391,22.397-20.643,33.749-30.795
							c2.885-2.578,6.227-2.278,8.885,0.61c3.04,3.303,2.304,6.699-0.699,9.526c-7.461,7.025-14.922,14.058-22.661,20.768
							c-3.682,3.194-3.624,5.315,0.068,8.422c7.199,6.064,14.091,12.493,21.066,18.818
							C171.076,224.693,173.349,226.451,173.4,229.604z"/>
						<path class="st3" d="M233.091,236.017c-2.805-0.071-4.721-1.598-5.793-4.022c-1.448-3.274-0.052-5.873,2.395-8.11
							c6.948-6.358,13.598-13.084,20.909-18.988c5.505-4.447,4.639-7.304-0.309-11.334c-7.077-5.768-13.661-12.143-20.456-18.253
							c-3.243-2.918-4.975-6.314-1.692-10.079c3.57-4.09,7.229-2.703,10.785,0.501c9.885,8.892,19.777,17.776,29.821,26.487
							c5.327,4.62,5.887,8.863,0.369,13.758c-10.153,9.006-20.14,18.2-30.196,27.318
							C237.258,234.805,235.548,236.206,233.091,236.017z"/>
					</g>
				</g>
			</g>
		</g>
	</g>
</g>
<g>
</g>
<g>
</g>
<g>
</g>
<g>
</g>
<g>
</g>
<g>
</g>
<g>
</g>
<g>
</g>
<g>
</g>
<g>
</g>
<g>
</g>
<g>
</g>
<g>
</g>
<g>
</g>
<g>
</g>
</svg>
