<?xml version="1.0" encoding="utf-8"?>
<!-- Generator: Adobe Illustrator 26.0.1, SVG Export Plug-In . SVG Version: 6.00 Build 0)  -->
<svg version="1.1" id="Calque_1" xmlns="http://www.w3.org/2000/svg" xmlns:xlink="http://www.w3.org/1999/xlink" x="0px" y="0px"
	 viewBox="0 0 400 400" style="enable-background:new 0 0 400 400;" xml:space="preserve">
<style type="text/css">
	.st0{fill:#E07E64;}
	.st1{fill:#FDF8F7;}
	.st2{fill:#FCF6F4;}
	.st3{fill:#DF7A5F;}
</style>
<g>
	<g>
		<g>
			<path class="st0" d="M121.227,322.081c-7.588,5.497-14.536,11.346-24.437,2.563c-10.105-8.964-7.558-17.841-3.228-27.962
				c8.836-20.69-0.929-29.48-20.756-29.894c-10.553-0.224-20.757,1.915-24.956-11.902c-3.924-12.917,4.232-18.312,12.284-25.457
				c15.322-13.601,14.714-26.383-4.675-36.236c-8.293-4.218-17.495-7.807-15.014-20.288c2.444-12.319,10.436-15.887,22.102-17.399
				c24.118-3.117,25.717-17.437,14.737-35.47c-5.081-8.346-10.277-15.255-1.372-24.53c7.945-8.287,15.921-7.774,25.292-3.576
				c24.52,10.997,32.482-0.691,31.816-23.69c-0.245-8.509-0.265-16.43,9.894-20.298c10.363-3.953,17.943-1.401,24.387,7.182
				c15.742,20.971,29.712,20.643,41.28-3.829c3.885-8.214,9.099-13.858,19.28-11.381c10.366,2.516,15.184,8.648,16.272,19.65
				c2.513,25.53,16.532,28.696,36.571,16.741c7.1-4.234,12.869-9.962,21.966-2.568c10.168,8.26,9.878,16.965,5.121,27.518
				c-9.979,22.17-0.128,31.195,21.678,31.229c9.447,0.02,18.593-1.457,22.88,10.498c4.451,12.406-1.849,18.807-10.557,26.02
				c-17.49,14.486-15.958,27.73,4.887,37.841c8.855,4.301,16.48,9.081,13.244,21.124c-2.833,10.577-9.654,14.379-20.253,15.608
				c-26.227,3.054-27.384,17.916-15.456,37.093c4.612,7.409,8.909,13.454,1.539,21.947c-7.354,8.477-15.065,9.719-24.802,5.303
				c-25.846-11.717-34.588-0.181-33.173,24.759c0.515,9.018-1.489,16.026-11.479,19.247c-9.244,2.992-16.347,0.991-21.874-6.564
				c-16.703-22.824-31.035-21.704-43.154,4.001c-3.376,7.156-8.113,11.977-16.913,10.253c-10.187-1.996-16.666-6.874-17.555-18.321
				C154.924,317.095,142.978,310.354,121.227,322.081z"/>
			<path class="st1" d="M300.076,198.691c0.49,55.42-44.98,101.05-100.37,100.74c-54.01-0.3-98.69-44.85-99.16-98.84
				c-0.48-55.59,44.71-100.95,100.3-100.67C254.876,100.181,299.596,144.711,300.076,198.691z"/>
			<path class="st2" d="M201.566,174.821c13.89,2.81,23.26,10.52,22.99,24.77c-0.29,15.63-10.01,25.07-25.68,24.3
				c-13.94-0.68-23.04-9.88-22.84-24.11C176.256,184.041,186.426,176.281,201.566,174.821z"/>
			<g>
				<g>
					<g>
						<path class="st3" d="M219.515,154.478c-3.03,10.753-6.037,21.41-9.032,32.067c-5.466,19.455-10.952,38.902-16.366,58.373
							c-1.279,4.603-3.106,9.073-8.823,7.536c-5.452-1.467-5.505-5.764-4.08-10.748c8.373-29.276,16.537-58.614,24.701-87.949
							c1.216-4.371,2.982-8.18,8.312-7.261C218.417,147.217,220.012,150.383,219.515,154.478z"/>
						<path class="st3" d="M173.4,229.604c0.101,2.816-1.326,4.808-3.665,6.039c-2.407,1.268-4.913,1.035-6.974-0.799
							c-11.387-10.113-22.793-20.207-34.033-30.481c-2.869-2.623-2.942-6.2-0.09-8.862c11.13-10.391,22.397-20.643,33.749-30.795
							c2.885-2.578,6.227-2.278,8.885,0.61c3.04,3.303,2.304,6.699-0.699,9.526c-7.461,7.025-14.922,14.058-22.661,20.768
							c-3.682,3.194-3.624,5.315,0.068,8.422c7.199,6.064,14.091,12.493,21.066,18.818
							C171.076,224.693,173.349,226.451,173.4,229.604z"/>
						<path class="st3" d="M233.091,236.017c-2.805-0.071-4.721-1.598-5.793-4.022c-1.448-3.274-0.052-5.873,2.395-8.11
							c6.948-6.358,13.598-13.084,20.909-18.988c5.505-4.447,4.639-7.304-0.309-11.334c-7.077-5.768-13.661-12.143-20.456-18.253
							c-3.243-2.918-4.975-6.314-1.692-10.079c3.57-4.09,7.229-2.703,10.785,0.501c9.885,8.892,19.777,17.776,29.821,26.487
							c5.327,4.62,5.887,8.863,0.369,13.758c-10.153,9.006-20.14,18.2-30.196,27.318
							C237.258,234.805,235.548,236.206,233.091,236.017z"/>
					</g>
				</g>
			</g>
		</g>
	</g>
</g>
<g>
</g>
<g>
</g>
<g>
</g>
<g>
</g>
<g>
</g>
<g>
</g>
<g>
</g>
<g>
</g>
<g>
</g>
<g>
</g>
<g>
</g>
<g>
</g>
<g>
</g>
<g>
</g>
<g>
</g>
</svg>
