<?xml version="1.0" encoding="utf-8"?>
<!-- Generator: Adobe Illustrator 26.0.1, SVG Export Plug-In . SVG Version: 6.00 Build 0)  -->
<svg version="1.1" id="Calque_1" xmlns="http://www.w3.org/2000/svg" xmlns:xlink="http://www.w3.org/1999/xlink" x="0px" y="0px"
	 viewBox="0 0 400 400" style="enable-background:new 0 0 400 400;" xml:space="preserve">
<style type="text/css">
	.st0{fill:#E07E64;}
	.st1{fill:#FDF8F7;}
	.st2{fill:#FCF6F4;}
	.st3{fill:#DF7A5F;}
</style>
<g>
	<g>
		<g>
			<path class="st0" d="M346.012,194.227c8.855,3.063,17.632,5.4,16.116,18.548c-1.547,13.42-10.28,16.424-21.054,18.683
				c-22.017,4.629-23.616,17.67-12.582,34.149c5.869,8.773,13.474,15.905,4.564,27.27c-8.33,10.623-17.428,7.036-27.899,4.539
				c-19.93-4.75-30.051,3.08-27.001,24.614c1.301,9.212,3.64,18.809-8.007,23.936c-11.493,5.064-19,0.564-26.929-8.126
				c-16.387-17.969-29.035-11.064-37.508,8.272c-3.922,8.949-6.601,17.169-19.306,15.194c-11.345-1.755-15.5-8.583-17.436-18.667
				c-5.056-26.393-19.198-26.212-37.655-12.474c-6.83,5.082-13.306,9.641-22.302,3.538c-9.182-6.222-11.439-13.894-8.105-24.096
				c8.149-24.923-0.133-36.179-26.814-31.618c-8.957,1.529-16.571,0.495-20.381-9.266c-3.884-9.935-1.625-17.398,6.763-24.6
				c19.471-16.702,14.025-30.002-7.263-39.56c-7.541-3.388-15.542-4.827-14.703-16.521c0.934-13.067,8.231-17.822,19.605-19.978
				c23.885-4.542,25.627-17.788,13.147-35.67c-5.402-7.75-11.858-14.395-4.524-24.764c7.609-10.762,16.466-9.272,27.37-6.276
				c21.898,6.019,31.869-2.833,28.194-25.708c-1.556-9.72-2.014-18.708,9.708-22.965c10.289-3.746,17.316-0.339,24.402,7.638
				c17.545,19.732,30.383,12.155,39.25-8.615c3.424-8.028,5.911-15.015,17.095-13.849c11.162,1.162,16.602,6.766,18.57,17.275
				c5.227,27.892,19.69,28.437,39.308,12.972c7.091-5.594,13.981-7.972,22.351-1.636c7.753,5.856,10.188,12.822,7.169,21.684
				c-9.115,26.774,0.022,37.871,28.03,33.055c7.798-1.339,14.464-0.224,18.1,7.974c4.208,9.49,3.928,17.595-4.939,24.888
				C322.6,169.484,323.931,183.136,346.012,194.227z"/>
			<path class="st1" d="M300.076,198.691c0.49,55.42-44.98,101.05-100.37,100.74c-54.01-0.3-98.69-44.85-99.16-98.84
				c-0.48-55.59,44.71-100.95,100.3-100.67C254.876,100.181,299.596,144.711,300.076,198.691z"/>
			<path class="st2" d="M201.566,174.821c13.89,2.81,23.26,10.52,22.99,24.77c-0.29,15.63-10.01,25.07-25.68,24.3
				c-13.94-0.68-23.04-9.88-22.84-24.11C176.256,184.041,186.426,176.281,201.566,174.821z"/>
			<g>
				<g>
					<g>
						<path class="st3" d="M219.515,154.478c-3.03,10.753-6.037,21.41-9.032,32.067c-5.466,19.455-10.952,38.902-16.366,58.373
							c-1.279,4.603-3.106,9.073-8.823,7.536c-5.452-1.467-5.505-5.764-4.08-10.748c8.373-29.276,16.537-58.614,24.701-87.949
							c1.216-4.371,2.982-8.18,8.312-7.261C218.417,147.217,220.012,150.383,219.515,154.478z"/>
						<path class="st3" d="M173.4,229.604c0.101,2.816-1.326,4.808-3.665,6.039c-2.407,1.268-4.913,1.035-6.974-0.799
							c-11.387-10.113-22.793-20.207-34.033-30.481c-2.869-2.623-2.942-6.2-0.09-8.862c11.13-10.391,22.397-20.643,33.749-30.795
							c2.885-2.578,6.227-2.278,8.885,0.61c3.04,3.303,2.304,6.699-0.699,9.526c-7.461,7.025-14.922,14.058-22.661,20.768
							c-3.682,3.194-3.624,5.315,0.068,8.422c7.199,6.064,14.091,12.493,21.066,18.818
							C171.076,224.693,173.349,226.451,173.4,229.604z"/>
						<path class="st3" d="M233.091,236.017c-2.805-0.071-4.721-1.598-5.793-4.022c-1.448-3.274-0.052-5.873,2.395-8.11
							c6.948-6.358,13.598-13.084,20.909-18.988c5.505-4.447,4.639-7.304-0.309-11.334c-7.077-5.768-13.661-12.143-20.456-18.253
							c-3.243-2.918-4.975-6.314-1.692-10.079c3.57-4.09,7.229-2.703,10.785,0.501c9.885,8.892,19.777,17.776,29.821,26.487
							c5.327,4.62,5.887,8.863,0.369,13.758c-10.153,9.006-20.14,18.2-30.196,27.318
							C237.258,234.805,235.548,236.206,233.091,236.017z"/>
					</g>
				</g>
			</g>
		</g>
	</g>
</g>
<g>
</g>
<g>
</g>
<g>
</g>
<g>
</g>
<g>
</g>
<g>
</g>
<g>
</g>
<g>
</g>
<g>
</g>
<g>
</g>
<g>
</g>
<g>
</g>
<g>
</g>
<g>
</g>
<g>
</g>
</svg>
