<?xml version="1.0" encoding="utf-8"?>
<!-- Generator: Adobe Illustrator 26.0.1, SVG Export Plug-In . SVG Version: 6.00 Build 0)  -->
<svg version="1.1" id="Calque_1" xmlns="http://www.w3.org/2000/svg" xmlns:xlink="http://www.w3.org/1999/xlink" x="0px" y="0px"
	 viewBox="0 0 400 400" style="enable-background:new 0 0 400 400;" xml:space="preserve">
<style type="text/css">
	.st0{fill:#E07E64;}
	.st1{fill:#FDF8F7;}
	.st2{fill:#FCF6F4;}
	.st3{fill:#DF7A5F;}
</style>
<g>
	<g>
		<g>
			<path class="st0" d="M345.588,212.018c8.415,4.119,16.842,7.508,13.735,20.374c-3.171,13.131-12.205,15.049-23.174,15.978
				c-22.417,1.911-25.593,14.66-16.65,32.361c4.756,9.423,11.435,17.428,1.207,27.623c-9.562,9.529-18.155,4.86-28.244,1.105
				c-19.202-7.144-30.203-0.605-29.8,21.14c0.169,9.302,1.32,19.113-10.865,22.782c-12.024,3.625-18.927-1.755-25.738-11.347
				c-14.075-19.832-27.47-14.52-38.237,3.64c-4.983,8.404-8.644,16.236-21.014,12.728c-11.047-3.124-14.339-10.408-15.031-20.653
				c-1.802-26.813-15.86-28.356-35.854-16.97c-7.398,4.211-14.382,7.948-22.567,0.793c-8.355-7.294-9.661-15.185-5.108-24.904
				c11.126-23.744,4.277-35.925-22.761-34.65c-9.076,0.426-16.507-1.528-19.1-11.681c-2.645-10.334,0.508-17.467,9.71-23.592
				c21.362-14.205,17.576-28.069-2.387-40.15c-7.071-4.281-14.838-6.686-12.58-18.19c2.52-12.856,10.341-16.686,21.893-17.44
				c24.26-1.597,27.604-14.532,17.396-33.802c-4.417-8.35-10.015-15.733-1.473-25.13c8.864-9.755,17.473-7.196,27.931-2.894
				c21.001,8.642,31.976,1.072,31.117-22.08c-0.36-9.838,0.281-18.814,12.434-21.611c10.669-2.464,17.228,1.774,23.29,10.555
				c15.01,21.723,28.675,15.767,40.007-3.768c4.377-7.551,7.697-14.183,18.656-11.663c10.937,2.514,15.653,8.739,16.326,19.41
				c1.789,28.321,16.078,30.624,37.434,17.666c7.72-4.688,14.849-6.209,22.383,1.1c6.982,6.757,8.549,13.968,4.473,22.396
				c-12.31,25.463-4.594,37.592,23.792,36.225c7.904-0.379,14.384,1.54,16.993,10.12c3.02,9.932,1.755,17.943-7.935,24.101
				C325.366,184.606,325.022,198.318,345.588,212.018z"/>
			<path class="st1" d="M300.076,198.691c0.49,55.42-44.98,101.05-100.37,100.74c-54.01-0.3-98.69-44.85-99.16-98.84
				c-0.48-55.59,44.71-100.95,100.3-100.67C254.876,100.181,299.596,144.711,300.076,198.691z"/>
			<path class="st2" d="M201.566,174.821c13.89,2.81,23.26,10.52,22.99,24.77c-0.29,15.63-10.01,25.07-25.68,24.3
				c-13.94-0.68-23.04-9.88-22.84-24.11C176.256,184.041,186.426,176.281,201.566,174.821z"/>
			<g>
				<g>
					<g>
						<path class="st3" d="M219.515,154.478c-3.03,10.753-6.037,21.41-9.032,32.067c-5.466,19.455-10.952,38.902-16.366,58.373
							c-1.279,4.603-3.106,9.073-8.823,7.536c-5.452-1.467-5.505-5.764-4.08-10.748c8.373-29.276,16.537-58.614,24.701-87.949
							c1.216-4.371,2.982-8.18,8.312-7.261C218.417,147.217,220.012,150.383,219.515,154.478z"/>
						<path class="st3" d="M173.4,229.604c0.101,2.816-1.326,4.808-3.665,6.039c-2.407,1.268-4.913,1.035-6.974-0.799
							c-11.387-10.113-22.793-20.207-34.033-30.481c-2.869-2.623-2.942-6.2-0.09-8.862c11.13-10.391,22.397-20.643,33.749-30.795
							c2.885-2.578,6.227-2.278,8.885,0.61c3.04,3.303,2.304,6.699-0.699,9.526c-7.461,7.025-14.922,14.058-22.661,20.768
							c-3.682,3.194-3.624,5.315,0.068,8.422c7.199,6.064,14.091,12.493,21.066,18.818
							C171.076,224.693,173.349,226.451,173.4,229.604z"/>
						<path class="st3" d="M233.091,236.017c-2.805-0.071-4.721-1.598-5.793-4.022c-1.448-3.274-0.052-5.873,2.395-8.11
							c6.948-6.358,13.598-13.084,20.909-18.988c5.505-4.447,4.639-7.304-0.309-11.334c-7.077-5.768-13.661-12.143-20.456-18.253
							c-3.243-2.918-4.975-6.314-1.692-10.079c3.57-4.09,7.229-2.703,10.785,0.501c9.885,8.892,19.777,17.776,29.821,26.487
							c5.327,4.62,5.887,8.863,0.369,13.758c-10.153,9.006-20.14,18.2-30.196,27.318
							C237.258,234.805,235.548,236.206,233.091,236.017z"/>
					</g>
				</g>
			</g>
		</g>
	</g>
</g>
<g>
</g>
<g>
</g>
<g>
</g>
<g>
</g>
<g>
</g>
<g>
</g>
<g>
</g>
<g>
</g>
<g>
</g>
<g>
</g>
<g>
</g>
<g>
</g>
<g>
</g>
<g>
</g>
<g>
</g>
</svg>
