<?xml version="1.0" encoding="utf-8"?>
<!-- Generator: Adobe Illustrator 26.0.1, SVG Export Plug-In . SVG Version: 6.00 Build 0)  -->
<svg version="1.1" id="Calque_1" xmlns="http://www.w3.org/2000/svg" xmlns:xlink="http://www.w3.org/1999/xlink" x="0px" y="0px"
	 viewBox="0 0 400 400" style="enable-background:new 0 0 400 400;" xml:space="preserve">
<style type="text/css">
	.st0{fill:#E07E64;}
	.st1{fill:#FDF8F7;}
	.st2{fill:#FCF6F4;}
	.st3{fill:#DF7A5F;}
</style>
<g>
	<g>
		<g>
			<path class="st0" d="M182.244,55.012c2.279-9.088,3.842-18.035,17.073-17.671c13.503,0.371,17.258,8.809,20.447,19.345
				c6.53,21.529,19.661,21.986,35.115,9.558c8.228-6.612,14.67-14.809,26.768-6.924c11.309,7.372,8.529,16.748,6.953,27.397
				c-2.995,20.268,5.688,29.669,26.874,24.753c9.064-2.099,18.42-5.265,24.543,5.891c6.046,11.008,2.218,18.878-5.748,27.535
				c-16.472,17.891-8.492,29.888,11.51,36.644c9.257,3.127,17.679,5.08,16.819,17.909c-0.759,11.455-7.199,16.189-17.076,18.997
				c-25.852,7.337-24.439,21.409-9.145,38.599c5.657,6.361,10.764,12.416,5.468,21.909c-5.398,9.689-12.844,12.607-23.298,10.174
				c-25.539-5.946-36.03,3.285-29.161,29.468c2.304,8.79,1.937,16.464-7.454,21.111c-9.558,4.735-17.19,3.135-25.096-4.593
				c-18.336-17.942-31.11-11.356-38.777,10.683c-2.718,7.807-3.455,15.903-15.177,16.087c-13.099,0.208-18.472-6.646-21.611-17.789
				c-6.606-23.398-19.954-23.979-36.68-9.988c-7.25,6.057-13.306,13.067-24.275,6.666c-11.384-6.642-10.672-15.595-8.638-26.719
				c4.087-22.339-5.6-31.5-28.067-25.846c-9.548,2.397-18.462,3.636-23.724-7.669c-4.628-9.924-1.847-17.221,5.482-24.975
				c18.128-19.198,9.461-31.327-12.003-38.35c-8.296-2.711-15.473-4.58-15.286-15.823c0.185-11.221,5.293-17.128,15.591-20.005
				c27.331-7.638,26.612-22.094,9.497-40.289c-6.191-6.577-9.161-13.233-3.578-22.123c5.158-8.234,11.886-11.267,20.976-9.032
				c27.466,6.747,37.725-3.322,30.486-30.804c-2.014-7.652-1.484-14.39,6.366-18.726c9.087-5.019,17.186-5.447,25.224,2.751
				C159.635,80.491,173.119,77.976,182.244,55.012z"/>
			<path class="st1" d="M300.076,198.691c0.49,55.42-44.98,101.05-100.37,100.74c-54.01-0.3-98.69-44.85-99.16-98.84
				c-0.48-55.59,44.71-100.95,100.3-100.67C254.876,100.181,299.596,144.711,300.076,198.691z"/>
			<path class="st2" d="M201.566,174.821c13.89,2.81,23.26,10.52,22.99,24.77c-0.29,15.63-10.01,25.07-25.68,24.3
				c-13.94-0.68-23.04-9.88-22.84-24.11C176.256,184.041,186.426,176.281,201.566,174.821z"/>
			<g>
				<g>
					<g>
						<path class="st3" d="M219.515,154.478c-3.03,10.753-6.037,21.41-9.032,32.067c-5.466,19.455-10.952,38.902-16.366,58.373
							c-1.279,4.603-3.106,9.073-8.823,7.536c-5.452-1.467-5.505-5.764-4.08-10.748c8.373-29.276,16.537-58.614,24.701-87.949
							c1.216-4.371,2.982-8.18,8.312-7.261C218.417,147.217,220.012,150.383,219.515,154.478z"/>
						<path class="st3" d="M173.4,229.604c0.101,2.816-1.326,4.808-3.665,6.039c-2.407,1.268-4.913,1.035-6.974-0.799
							c-11.387-10.113-22.793-20.207-34.033-30.481c-2.869-2.623-2.942-6.2-0.09-8.862c11.13-10.391,22.397-20.643,33.749-30.795
							c2.885-2.578,6.227-2.278,8.885,0.61c3.04,3.303,2.304,6.699-0.699,9.526c-7.461,7.025-14.922,14.058-22.661,20.768
							c-3.682,3.194-3.624,5.315,0.068,8.422c7.199,6.064,14.091,12.493,21.066,18.818
							C171.076,224.693,173.349,226.451,173.4,229.604z"/>
						<path class="st3" d="M233.091,236.017c-2.805-0.071-4.721-1.598-5.793-4.022c-1.448-3.274-0.052-5.873,2.395-8.11
							c6.948-6.358,13.598-13.084,20.909-18.988c5.505-4.447,4.639-7.304-0.309-11.334c-7.077-5.768-13.661-12.143-20.456-18.253
							c-3.243-2.918-4.975-6.314-1.692-10.079c3.57-4.09,7.229-2.703,10.785,0.501c9.885,8.892,19.777,17.776,29.821,26.487
							c5.327,4.62,5.887,8.863,0.369,13.758c-10.153,9.006-20.14,18.2-30.196,27.318
							C237.258,234.805,235.548,236.206,233.091,236.017z"/>
					</g>
				</g>
			</g>
		</g>
	</g>
</g>
<g>
</g>
<g>
</g>
<g>
</g>
<g>
</g>
<g>
</g>
<g>
</g>
<g>
</g>
<g>
</g>
<g>
</g>
<g>
</g>
<g>
</g>
<g>
</g>
<g>
</g>
<g>
</g>
<g>
</g>
</svg>
