<?xml version="1.0" encoding="utf-8"?>
<!-- Generator: Adobe Illustrator 26.0.1, SVG Export Plug-In . SVG Version: 6.00 Build 0)  -->
<svg version="1.1" id="Calque_1" xmlns="http://www.w3.org/2000/svg" xmlns:xlink="http://www.w3.org/1999/xlink" x="0px" y="0px"
	 viewBox="0 0 400 400" style="enable-background:new 0 0 400 400;" xml:space="preserve">
<style type="text/css">
	.st0{fill:#E07E64;}
	.st1{fill:#FDF8F7;}
	.st2{fill:#FCF6F4;}
	.st3{fill:#DF7A5F;}
</style>
<g>
	<g>
		<g>
			<path class="st0" d="M54.571,199.994c-8.742-3.37-17.432-6.012-15.459-19.099c2.014-13.357,10.846-16.055,21.693-17.937
				c22.165-3.858,24.218-16.835,13.767-33.689c-5.56-8.973-12.911-16.365-3.61-27.412c8.695-10.326,17.663-6.424,28.04-3.562
				c19.752,5.443,30.141-2.03,27.844-23.657c-0.979-9.252-2.981-18.925,8.838-23.642c11.663-4.66,19.008,0.099,26.63,9.06
				c15.75,18.53,28.631,12.071,37.774-6.958c4.232-8.806,7.196-16.928,19.825-14.511c11.277,2.15,15.191,9.119,16.774,19.264
				c4.132,26.553,18.271,26.866,37.197,13.78c7.003-4.84,13.635-9.171,22.412-2.757c8.959,6.538,10.948,14.285,7.259,24.365
				c-9.014,24.624-1.13,36.162,25.694,32.534c9.005-1.216,16.578,0.084,20.045,9.972c3.535,10.064,1.016,17.444-7.617,24.349
				c-20.042,16.013-15.063,29.494,5.878,39.789c7.418,3.649,15.364,5.367,14.117,17.024c-1.39,13.027-8.848,17.524-20.29,19.282
				c-24.028,3.705-26.232,16.882-14.384,35.189c5.128,7.934,11.348,14.8,3.657,24.906c-7.98,10.49-16.78,8.692-27.572,5.317
				c-21.675-6.779-31.948,1.719-29.074,24.708c1.216,9.769,1.359,18.767-10.503,22.612c-10.414,3.384-17.317-0.265-24.121-8.485
				c-16.846-20.332-29.94-13.208-39.527,7.24c-3.702,7.904-6.432,14.799-17.568,13.244c-11.115-1.551-16.355-7.341-17.955-17.913
				c-4.25-28.058-18.686-29.107-38.832-14.336c-7.282,5.343-14.251,7.48-22.394,0.855c-7.544-6.123-9.734-13.17-6.408-21.921
				c10.044-26.439,1.3-37.849-26.859-34.013c-7.84,1.066-14.463-0.281-17.811-8.6c-3.874-9.631-3.312-17.722,5.804-24.701
				C77.105,225.539,76.252,211.849,54.571,199.994z"/>
			<path class="st1" d="M300.076,198.691c0.49,55.42-44.98,101.05-100.37,100.74c-54.01-0.3-98.69-44.85-99.16-98.84
				c-0.48-55.59,44.71-100.95,100.3-100.67C254.876,100.181,299.596,144.711,300.076,198.691z"/>
			<path class="st2" d="M201.566,174.821c13.89,2.81,23.26,10.52,22.99,24.77c-0.29,15.63-10.01,25.07-25.68,24.3
				c-13.94-0.68-23.04-9.88-22.84-24.11C176.256,184.041,186.426,176.281,201.566,174.821z"/>
			<g>
				<g>
					<g>
						<path class="st3" d="M219.515,154.478c-3.03,10.753-6.037,21.41-9.032,32.067c-5.466,19.455-10.952,38.902-16.366,58.373
							c-1.279,4.603-3.106,9.073-8.823,7.536c-5.452-1.467-5.505-5.764-4.08-10.748c8.373-29.276,16.537-58.614,24.701-87.949
							c1.216-4.371,2.982-8.18,8.312-7.261C218.417,147.217,220.012,150.383,219.515,154.478z"/>
						<path class="st3" d="M173.4,229.604c0.101,2.816-1.326,4.808-3.665,6.039c-2.407,1.268-4.913,1.035-6.974-0.799
							c-11.387-10.113-22.793-20.207-34.033-30.481c-2.869-2.623-2.942-6.2-0.09-8.862c11.13-10.391,22.397-20.643,33.749-30.795
							c2.885-2.578,6.227-2.278,8.885,0.61c3.04,3.303,2.304,6.699-0.699,9.526c-7.461,7.025-14.922,14.058-22.661,20.768
							c-3.682,3.194-3.624,5.315,0.068,8.422c7.199,6.064,14.091,12.493,21.066,18.818
							C171.076,224.693,173.349,226.451,173.4,229.604z"/>
						<path class="st3" d="M233.091,236.017c-2.805-0.071-4.721-1.598-5.793-4.022c-1.448-3.274-0.052-5.873,2.395-8.11
							c6.948-6.358,13.598-13.084,20.909-18.988c5.505-4.447,4.639-7.304-0.309-11.334c-7.077-5.768-13.661-12.143-20.456-18.253
							c-3.243-2.918-4.975-6.314-1.692-10.079c3.57-4.09,7.229-2.703,10.785,0.501c9.885,8.892,19.777,17.776,29.821,26.487
							c5.327,4.62,5.887,8.863,0.369,13.758c-10.153,9.006-20.14,18.2-30.196,27.318
							C237.258,234.805,235.548,236.206,233.091,236.017z"/>
					</g>
				</g>
			</g>
		</g>
	</g>
</g>
<g>
</g>
<g>
</g>
<g>
</g>
<g>
</g>
<g>
</g>
<g>
</g>
<g>
</g>
<g>
</g>
<g>
</g>
<g>
</g>
<g>
</g>
<g>
</g>
<g>
</g>
<g>
</g>
<g>
</g>
</svg>
