<?xml version="1.0" encoding="utf-8"?>
<!-- Generator: Adobe Illustrator 26.0.1, SVG Export Plug-In . SVG Version: 6.00 Build 0)  -->
<svg version="1.1" id="Calque_1" xmlns="http://www.w3.org/2000/svg" xmlns:xlink="http://www.w3.org/1999/xlink" x="0px" y="0px"
	 viewBox="0 0 400 400" style="enable-background:new 0 0 400 400;" xml:space="preserve">
<style type="text/css">
	.st0{fill:#E07E64;}
	.st1{fill:#FDF8F7;}
	.st2{fill:#FCF6F4;}
	.st3{fill:#DF7A5F;}
</style>
<g>
	<g>
		<g>
			<path class="st0" d="M338.277,246.793c7.169,6.033,14.525,11.36,8.398,23.091c-6.253,11.974-15.483,11.649-26.351,9.897
				c-22.213-3.569-28.38,8.033-23.985,27.371c2.336,10.294,6.879,19.677-5.511,27.094c-11.584,6.933-18.792,0.324-27.672-5.761
				c-16.904-11.577-29.159-7.894-34.029,13.303c-2.087,9.067-3.343,18.864-16.053,19.477c-12.544,0.609-17.94-6.282-22.229-17.237
				c-8.859-22.648-23.141-20.735-37.981-5.719c-6.869,6.949-12.315,13.663-23.469,7.266c-9.963-5.704-11.395-13.568-9.589-23.676
				c4.738-26.452-8.529-31.35-30.684-25.14c-8.197,2.296-15.878,4.232-22.089-4.69c-6.342-9.099-5.7-17.071,1.069-25.4
				c16.539-20.347,12.842-33.823-13.702-39.127c-8.91-1.782-15.647-5.476-15.707-15.954c-0.066-10.667,4.718-16.825,15.129-20.542
				c24.164-8.615,23.845-22.983,7.397-39.535c-5.826-5.865-12.78-10.076-7.806-20.693c5.555-11.865,14.071-13.689,25.462-11.626
				c23.926,4.319,30.3-7.422,25.057-28.589c-2.266-9.171-5.912-17.688,4.651-24.74c10.96-7.32,18.695-2.755,27.801,3.949
				c18.287,13.466,30.767,8.775,35.534-13.896c2.031-9.632,4.825-18.187,17.293-17.961c10.948,0.19,16.288,5.889,20.044,15.875
				c9.309,24.709,24.009,22.236,39.73,6.023c6.073-6.268,10.899-11.899,20.923-6.803c10.004,5.085,13.074,12.266,11.145,22.783
				c-5.116,27.913,8.192,33.604,32.049,26.197c8.625-2.682,15.91-2.432,21.452,6.482c5.14,8.246,4.916,15.622-1.078,22.813
				c-18.105,21.729-13.552,35.364,14.322,40.904c7.76,1.544,13.584,4.974,14.04,13.93c0.528,10.367-2.638,17.834-13.53,21.466
				C325.288,215.303,321.637,228.525,338.277,246.793z"/>
			<path class="st1" d="M300.076,198.691c0.49,55.42-44.98,101.05-100.37,100.74c-54.01-0.3-98.69-44.85-99.16-98.84
				c-0.48-55.59,44.71-100.95,100.3-100.67C254.876,100.181,299.596,144.711,300.076,198.691z"/>
			<path class="st2" d="M201.566,174.821c13.89,2.81,23.26,10.52,22.99,24.77c-0.29,15.63-10.01,25.07-25.68,24.3
				c-13.94-0.68-23.04-9.88-22.84-24.11C176.256,184.041,186.426,176.281,201.566,174.821z"/>
			<g>
				<g>
					<g>
						<path class="st3" d="M219.515,154.478c-3.03,10.753-6.037,21.41-9.032,32.067c-5.466,19.455-10.952,38.902-16.366,58.373
							c-1.279,4.603-3.106,9.073-8.823,7.536c-5.452-1.467-5.505-5.764-4.08-10.748c8.373-29.276,16.537-58.614,24.701-87.949
							c1.216-4.371,2.982-8.18,8.312-7.261C218.417,147.217,220.012,150.383,219.515,154.478z"/>
						<path class="st3" d="M173.4,229.604c0.101,2.816-1.326,4.808-3.665,6.039c-2.407,1.268-4.913,1.035-6.974-0.799
							c-11.387-10.113-22.793-20.207-34.033-30.481c-2.869-2.623-2.942-6.2-0.09-8.862c11.13-10.391,22.397-20.643,33.749-30.795
							c2.885-2.578,6.227-2.278,8.885,0.61c3.04,3.303,2.304,6.699-0.699,9.526c-7.461,7.025-14.922,14.058-22.661,20.768
							c-3.682,3.194-3.624,5.315,0.068,8.422c7.199,6.064,14.091,12.493,21.066,18.818
							C171.076,224.693,173.349,226.451,173.4,229.604z"/>
						<path class="st3" d="M233.091,236.017c-2.805-0.071-4.721-1.598-5.793-4.022c-1.448-3.274-0.052-5.873,2.395-8.11
							c6.948-6.358,13.598-13.084,20.909-18.988c5.505-4.447,4.639-7.304-0.309-11.334c-7.077-5.768-13.661-12.143-20.456-18.253
							c-3.243-2.918-4.975-6.314-1.692-10.079c3.57-4.09,7.229-2.703,10.785,0.501c9.885,8.892,19.777,17.776,29.821,26.487
							c5.327,4.62,5.887,8.863,0.369,13.758c-10.153,9.006-20.14,18.2-30.196,27.318
							C237.258,234.805,235.548,236.206,233.091,236.017z"/>
					</g>
				</g>
			</g>
		</g>
	</g>
</g>
<g>
</g>
<g>
</g>
<g>
</g>
<g>
</g>
<g>
</g>
<g>
</g>
<g>
</g>
<g>
</g>
<g>
</g>
<g>
</g>
<g>
</g>
<g>
</g>
<g>
</g>
<g>
</g>
<g>
</g>
</svg>
