<?xml version="1.0" encoding="utf-8"?>
<!-- Generator: Adobe Illustrator 26.0.1, SVG Export Plug-In . SVG Version: 6.00 Build 0)  -->
<svg version="1.1" id="Calque_1" xmlns="http://www.w3.org/2000/svg" xmlns:xlink="http://www.w3.org/1999/xlink" x="0px" y="0px"
	 viewBox="0 0 400 400" style="enable-background:new 0 0 400 400;" xml:space="preserve">
<style type="text/css">
	.st0{fill:#E07E64;}
	.st1{fill:#FDF8F7;}
	.st2{fill:#FCF6F4;}
	.st3{fill:#DF7A5F;}
</style>
<g>
	<g>
		<g>
			<path class="st0" d="M290.343,314.313c2.727,8.964,5.995,17.438-5.533,23.94c-11.766,6.636-19.33,1.338-27.49-6.051
				c-16.686-15.091-28.176-8.72-35.023,9.893c-3.648,9.905-4.947,20.249-19.379,19.721c-13.491-0.495-15.936-9.963-20.07-19.903
				c-7.871-18.915-20.156-22.502-35.784-7.377c-6.688,6.468-13.078,14-24.071,7.591c-10.852-6.322-11.624-15.039-9.255-26.563
				c4.905-23.819-8.115-29.993-28.739-25.482c-9.545,2.087-17.77,4.751-23.64-6.688c-5.249-10.21-2.167-17.585,4.853-25.078
				c18.381-19.604,9.922-30.938-12.041-37.796c-8.126-2.539-15.621-5.098-15.971-15.964c-0.364-11.085,4.517-17.421,14.731-20.72
				c24.953-8.057,29.191-21.373,9.819-40.277c-6.502-6.347-10.14-13.115-4.484-21.935c5.754-8.982,13.121-11.541,23.877-8.988
				c24.957,5.935,32.515-6.288,27.736-29.128c-1.691-8.092-5.23-15.411,4.724-21.606c11.121-6.925,19.256-3.817,27.686,4.117
				C160,82.672,171.74,76.297,178.872,55.689c3.095-8.925,4.676-18.054,17.375-18.216c13.179-0.17,17.18,7.871,21.165,18.453
				c8.002,21.254,21.024,24.117,37.37,7.699c6.949-6.972,13.952-12.625,24.285-5.645c9.078,6.122,10.453,13.81,8.164,24.231
				c-5.651,25.793,8.025,31.725,30.04,26.69c8.507-1.949,15.622-4.043,21.253,5.69c5.62,9.713,4.284,17.408-3.061,25.177
				c-19.493,20.623-11.432,32.645,12.61,39.426c8.694,2.449,14.668,6.625,14.461,17.12c-0.18,9.715-4.385,15.779-13.328,18.545
				c-27.018,8.363-30.626,22.278-10.267,42.106c5.667,5.522,8.683,11.57,4.188,19.33c-5.204,8.982-11.926,13.52-23.038,10.634
				C296.599,280.829,286.336,289.929,290.343,314.313z"/>
			<path class="st1" d="M300.076,198.691c0.49,55.42-44.98,101.05-100.37,100.74c-54.01-0.3-98.69-44.85-99.16-98.84
				c-0.48-55.59,44.71-100.95,100.3-100.67C254.876,100.181,299.596,144.711,300.076,198.691z"/>
			<path class="st2" d="M201.566,174.821c13.89,2.81,23.26,10.52,22.99,24.77c-0.29,15.63-10.01,25.07-25.68,24.3
				c-13.94-0.68-23.04-9.88-22.84-24.11C176.256,184.041,186.426,176.281,201.566,174.821z"/>
			<g>
				<g>
					<g>
						<path class="st3" d="M219.515,154.478c-3.03,10.753-6.037,21.41-9.032,32.067c-5.466,19.455-10.952,38.902-16.366,58.373
							c-1.279,4.603-3.106,9.073-8.823,7.536c-5.452-1.467-5.505-5.764-4.08-10.748c8.373-29.276,16.537-58.614,24.701-87.949
							c1.216-4.371,2.982-8.18,8.312-7.261C218.417,147.217,220.012,150.383,219.515,154.478z"/>
						<path class="st3" d="M173.4,229.604c0.101,2.816-1.326,4.808-3.665,6.039c-2.407,1.268-4.913,1.035-6.974-0.799
							c-11.387-10.113-22.793-20.207-34.033-30.481c-2.869-2.623-2.942-6.2-0.09-8.862c11.13-10.391,22.397-20.643,33.749-30.795
							c2.885-2.578,6.227-2.278,8.885,0.61c3.04,3.303,2.304,6.699-0.699,9.526c-7.461,7.025-14.922,14.058-22.661,20.768
							c-3.682,3.194-3.624,5.315,0.068,8.422c7.199,6.064,14.091,12.493,21.066,18.818
							C171.076,224.693,173.349,226.451,173.4,229.604z"/>
						<path class="st3" d="M233.091,236.017c-2.805-0.071-4.721-1.598-5.793-4.022c-1.448-3.274-0.052-5.873,2.395-8.11
							c6.948-6.358,13.598-13.084,20.909-18.988c5.505-4.447,4.639-7.304-0.309-11.334c-7.077-5.768-13.661-12.143-20.456-18.253
							c-3.243-2.918-4.975-6.314-1.692-10.079c3.57-4.09,7.229-2.703,10.785,0.501c9.885,8.892,19.777,17.776,29.821,26.487
							c5.327,4.62,5.887,8.863,0.369,13.758c-10.153,9.006-20.14,18.2-30.196,27.318
							C237.258,234.805,235.548,236.206,233.091,236.017z"/>
					</g>
				</g>
			</g>
		</g>
	</g>
</g>
<g>
</g>
<g>
</g>
<g>
</g>
<g>
</g>
<g>
</g>
<g>
</g>
<g>
</g>
<g>
</g>
<g>
</g>
<g>
</g>
<g>
</g>
<g>
</g>
<g>
</g>
<g>
</g>
<g>
</g>
</svg>
