<?xml version="1.0" encoding="utf-8"?>
<!-- Generator: Adobe Illustrator 26.0.1, SVG Export Plug-In . SVG Version: 6.00 Build 0)  -->
<svg version="1.1" id="Calque_1" xmlns="http://www.w3.org/2000/svg" xmlns:xlink="http://www.w3.org/1999/xlink" x="0px" y="0px"
	 viewBox="0 0 400 400" style="enable-background:new 0 0 400 400;" xml:space="preserve">
<style type="text/css">
	.st0{fill:#E07E64;}
	.st1{fill:#FDF8F7;}
	.st2{fill:#FCF6F4;}
	.st3{fill:#DF7A5F;}
</style>
<g>
	<g>
		<g>
			<path class="st0" d="M320.999,117.871c9.132-2.095,17.814-4.764,23.496,7.19c5.799,12.2-0.014,19.376-7.954,27.001
				c-16.218,15.593-10.664,27.5,7.426,35.627c9.627,4.33,19.855,6.348,18.321,20.707c-1.434,13.423-11.051,15.202-21.254,18.633
				c-19.418,6.533-23.853,18.537-9.855,35.182c5.985,7.123,13.054,14.022,5.894,24.542c-7.063,10.385-15.814,10.547-27.143,7.38
				c-23.419-6.555-30.486,6.003-27.425,26.892c1.416,9.667,3.5,18.058-8.321,23.116c-10.551,4.524-17.693,0.935-24.679-6.591
				c-18.274-19.703-30.17-12.056-38.544,9.376c-3.099,7.929-6.175,15.228-17.039,14.819c-11.084-0.411-17.064-5.721-19.642-16.14
				c-6.296-25.454-19.284-30.611-39.494-12.604c-6.786,6.043-13.79,9.201-22.194,2.942c-8.559-6.367-10.597-13.894-7.301-24.446
				c7.662-24.483-4.005-32.875-27.123-29.7c-8.19,1.123-15.738,4.142-21.224-6.219c-6.133-11.577-2.464-19.476,6.039-27.331
				c17.848-16.508,12.307-28.665-7.753-37.217c-8.688-3.71-17.684-5.924-16.96-18.603c0.75-13.159,9.051-16.589,19.885-19.826
				c21.76-6.5,25.525-19.291,10.287-36.742c-6.471-7.419-11.621-14.798-3.937-24.62c6.741-8.629,14.505-9.464,24.742-6.454
				c25.336,7.436,32.207-5.792,28.72-28.105c-1.351-8.623-2.944-15.866,7.159-20.804c10.082-4.929,17.664-3.06,24.902,4.81
				c19.213,20.884,31.768,13.681,40.21-9.829c3.049-8.502,7.632-14.17,18.087-13.232c9.678,0.858,15.435,5.475,17.571,14.59
				c6.458,27.536,20.087,32.105,41.287,13.179c5.904-5.268,12.148-7.855,19.575-2.829c8.597,5.818,12.655,12.84,9.001,23.724
				C288.033,109.294,296.395,120.166,320.999,117.871z"/>
			<path class="st1" d="M300.076,198.691c0.49,55.42-44.98,101.05-100.37,100.74c-54.01-0.3-98.69-44.85-99.16-98.84
				c-0.48-55.59,44.71-100.95,100.3-100.67C254.876,100.181,299.596,144.711,300.076,198.691z"/>
			<path class="st2" d="M201.566,174.821c13.89,2.81,23.26,10.52,22.99,24.77c-0.29,15.63-10.01,25.07-25.68,24.3
				c-13.94-0.68-23.04-9.88-22.84-24.11C176.256,184.041,186.426,176.281,201.566,174.821z"/>
			<g>
				<g>
					<g>
						<path class="st3" d="M219.515,154.478c-3.03,10.753-6.037,21.41-9.032,32.067c-5.466,19.455-10.952,38.902-16.366,58.373
							c-1.279,4.603-3.106,9.073-8.823,7.536c-5.452-1.467-5.505-5.764-4.08-10.748c8.373-29.276,16.537-58.614,24.701-87.949
							c1.216-4.371,2.982-8.18,8.312-7.261C218.417,147.217,220.012,150.383,219.515,154.478z"/>
						<path class="st3" d="M173.4,229.604c0.101,2.816-1.326,4.808-3.665,6.039c-2.407,1.268-4.913,1.035-6.974-0.799
							c-11.387-10.113-22.793-20.207-34.033-30.481c-2.869-2.623-2.942-6.2-0.09-8.862c11.13-10.391,22.397-20.643,33.749-30.795
							c2.885-2.578,6.227-2.278,8.885,0.61c3.04,3.303,2.304,6.699-0.699,9.526c-7.461,7.025-14.922,14.058-22.661,20.768
							c-3.682,3.194-3.624,5.315,0.068,8.422c7.199,6.064,14.091,12.493,21.066,18.818
							C171.076,224.693,173.349,226.451,173.4,229.604z"/>
						<path class="st3" d="M233.091,236.017c-2.805-0.071-4.721-1.598-5.793-4.022c-1.448-3.274-0.052-5.873,2.395-8.11
							c6.948-6.358,13.598-13.084,20.909-18.988c5.505-4.447,4.639-7.304-0.309-11.334c-7.077-5.768-13.661-12.143-20.456-18.253
							c-3.243-2.918-4.975-6.314-1.692-10.079c3.57-4.09,7.229-2.703,10.785,0.501c9.885,8.892,19.777,17.776,29.821,26.487
							c5.327,4.62,5.887,8.863,0.369,13.758c-10.153,9.006-20.14,18.2-30.196,27.318
							C237.258,234.805,235.548,236.206,233.091,236.017z"/>
					</g>
				</g>
			</g>
		</g>
	</g>
</g>
<g>
</g>
<g>
</g>
<g>
</g>
<g>
</g>
<g>
</g>
<g>
</g>
<g>
</g>
<g>
</g>
<g>
</g>
<g>
</g>
<g>
</g>
<g>
</g>
<g>
</g>
<g>
</g>
<g>
</g>
</svg>
