<?xml version="1.0" encoding="utf-8"?>
<!-- Generator: Adobe Illustrator 26.0.1, SVG Export Plug-In . SVG Version: 6.00 Build 0)  -->
<svg version="1.1" id="Calque_1" xmlns="http://www.w3.org/2000/svg" xmlns:xlink="http://www.w3.org/1999/xlink" x="0px" y="0px"
	 viewBox="0 0 400 400" style="enable-background:new 0 0 400 400;" xml:space="preserve">
<style type="text/css">
	.st0{fill:#E07E64;}
	.st1{fill:#FDF8F7;}
	.st2{fill:#FCF6F4;}
	.st3{fill:#DF7A5F;}
</style>
<g>
	<g>
		<g>
			<path class="st0" d="M177.877,343.682c-4.696,8.108-8.665,16.277-21.282,12.281c-12.878-4.079-14.161-13.225-14.322-24.232
				c-0.343-22.495-12.839-26.554-31.121-18.867c-9.732,4.088-18.184,10.192-27.639-0.723c-8.839-10.204-3.582-18.45,0.868-28.252
				c8.466-18.657,2.71-30.087-19.01-31.202c-9.291-0.48-19.158-0.016-21.968-12.427c-2.778-12.248,3.071-18.758,13.115-24.884
				c20.766-12.657,16.401-26.39-0.963-38.397c-8.036-5.558-15.594-9.756-11.231-21.851c3.887-10.802,11.383-13.578,21.651-13.554
				c26.873,0.073,29.393-13.843,19.43-34.583c-3.685-7.674-6.925-14.902,0.783-22.568c7.859-7.826,15.822-8.578,25.2-3.358
				c22.91,12.755,35.54,6.773,36.153-20.288c0.208-9.084,2.676-16.361,12.985-18.239c10.493-1.917,17.389,1.725,22.857,11.333
				c12.68,22.301,26.774,19.491,40.219,0.419c4.764-6.756,7.704-14.335,19.023-11.28c12.649,3.41,15.924,11.48,15.871,23.056
				c-0.099,24.312,12.571,28.55,32.506,19.712c8.638-3.824,16.393-8.894,25.172,0.284c9.112,9.523,5.96,17.933,0.939,28.065
				c-10.086,20.347-3.299,31.824,19.856,32.581c9.839,0.327,18.749,1.593,20.691,13.911c1.714,10.815-2.971,17.063-12.154,22.497
				c-22.717,13.458-17.729,27.505,0.968,40.173c7.227,4.893,13.611,8.668,10.333,19.424c-3.271,10.735-9.809,15.006-20.501,14.932
				c-28.377-0.191-31.671,13.903-20.234,36.111c4.139,8.028,5.158,15.246-2.659,22.252c-7.228,6.493-14.531,7.554-22.653,2.9
				c-24.543-14.056-37.18-7.205-37.796,21.207c-0.173,7.911-2.54,14.241-11.281,16.246c-10.118,2.32-18.021,0.499-23.489-9.597
				C206.632,325.421,192.978,324.122,177.877,343.682z"/>
			<path class="st1" d="M300.076,198.691c0.49,55.42-44.98,101.05-100.37,100.74c-54.01-0.3-98.69-44.85-99.16-98.84
				c-0.48-55.59,44.71-100.95,100.3-100.67C254.876,100.181,299.596,144.711,300.076,198.691z"/>
			<path class="st2" d="M201.566,174.821c13.89,2.81,23.26,10.52,22.99,24.77c-0.29,15.63-10.01,25.07-25.68,24.3
				c-13.94-0.68-23.04-9.88-22.84-24.11C176.256,184.041,186.426,176.281,201.566,174.821z"/>
			<g>
				<g>
					<g>
						<path class="st3" d="M219.515,154.478c-3.03,10.753-6.037,21.41-9.032,32.067c-5.466,19.455-10.952,38.902-16.366,58.373
							c-1.279,4.603-3.106,9.073-8.823,7.536c-5.452-1.467-5.505-5.764-4.08-10.748c8.373-29.276,16.537-58.614,24.701-87.949
							c1.216-4.371,2.982-8.18,8.312-7.261C218.417,147.217,220.012,150.383,219.515,154.478z"/>
						<path class="st3" d="M173.4,229.604c0.101,2.816-1.326,4.808-3.665,6.039c-2.407,1.268-4.913,1.035-6.974-0.799
							c-11.387-10.113-22.793-20.207-34.033-30.481c-2.869-2.623-2.942-6.2-0.09-8.862c11.13-10.391,22.397-20.643,33.749-30.795
							c2.885-2.578,6.227-2.278,8.885,0.61c3.04,3.303,2.304,6.699-0.699,9.526c-7.461,7.025-14.922,14.058-22.661,20.768
							c-3.682,3.194-3.624,5.315,0.068,8.422c7.199,6.064,14.091,12.493,21.066,18.818
							C171.076,224.693,173.349,226.451,173.4,229.604z"/>
						<path class="st3" d="M233.091,236.017c-2.805-0.071-4.721-1.598-5.793-4.022c-1.448-3.274-0.052-5.873,2.395-8.11
							c6.948-6.358,13.598-13.084,20.909-18.988c5.505-4.447,4.639-7.304-0.309-11.334c-7.077-5.768-13.661-12.143-20.456-18.253
							c-3.243-2.918-4.975-6.314-1.692-10.079c3.57-4.09,7.229-2.703,10.785,0.501c9.885,8.892,19.777,17.776,29.821,26.487
							c5.327,4.62,5.887,8.863,0.369,13.758c-10.153,9.006-20.14,18.2-30.196,27.318
							C237.258,234.805,235.548,236.206,233.091,236.017z"/>
					</g>
				</g>
			</g>
		</g>
	</g>
</g>
<g>
</g>
<g>
</g>
<g>
</g>
<g>
</g>
<g>
</g>
<g>
</g>
<g>
</g>
<g>
</g>
<g>
</g>
<g>
</g>
<g>
</g>
<g>
</g>
<g>
</g>
<g>
</g>
<g>
</g>
</svg>
