<?xml version="1.0" encoding="utf-8"?>
<!-- Generator: Adobe Illustrator 26.0.1, SVG Export Plug-In . SVG Version: 6.00 Build 0)  -->
<svg version="1.1" id="Calque_1" xmlns="http://www.w3.org/2000/svg" xmlns:xlink="http://www.w3.org/1999/xlink" x="0px" y="0px"
	 viewBox="0 0 400 400" style="enable-background:new 0 0 400 400;" xml:space="preserve">
<style type="text/css">
	.st0{fill:#E07E64;}
	.st1{fill:#FDF8F7;}
	.st2{fill:#FCF6F4;}
	.st3{fill:#DF7A5F;}
</style>
<g>
	<g>
		<g>
			<path class="st0" d="M339.08,244.377c7.273,5.906,14.721,11.104,8.8,22.941c-6.043,12.081-15.277,11.918-26.174,10.355
				c-22.272-3.18-28.235,8.527-23.503,27.786c2.515,10.252,7.222,19.554-5.038,27.186c-11.461,7.134-18.783,0.651-27.769-5.277
				c-17.103-11.28-29.293-7.384-33.791,13.895c-1.928,9.102-3.013,18.92-15.711,19.754c-12.532,0.828-18.047-5.968-22.526-16.846
				c-9.253-22.49-23.499-20.328-38.075-5.055c-6.746,7.068-12.075,13.875-23.339,7.675c-10.061-5.529-11.63-13.367-10-23.505
				c4.276-26.531-9.075-31.197-31.118-24.6c-8.156,2.439-15.802,4.509-22.167-4.304c-6.5-8.987-5.998-16.969,0.626-25.415
				c16.182-20.633,12.249-34.042-14.383-38.882c-8.94-1.627-15.741-5.202-15.983-15.678c-0.252-10.664,4.424-16.905,14.769-20.803
				c24.01-9.035,23.44-23.396,6.706-39.658c-5.927-5.762-12.953-9.852-8.166-20.553c5.347-11.96,13.83-13.932,25.255-12.068
				c23.997,3.901,30.165-7.95,24.554-29.022c-2.425-9.13-6.22-17.582,4.218-24.818c10.831-7.511,18.644-3.081,27.866,3.463
				c18.519,13.145,30.916,8.237,35.286-14.514c1.862-9.666,4.507-18.269,16.977-18.26c10.95-0.001,16.388,5.604,20.318,15.523
				c9.738,24.543,24.393,21.814,39.829,5.328c5.963-6.373,10.69-12.088,20.801-7.167c10.091,4.91,13.286,12.036,11.541,22.585
				c-4.628,27.998,8.777,33.456,32.501,25.634c8.577-2.832,15.865-2.71,21.562,6.107c5.283,8.155,5.188,15.534-0.679,22.828
				c-17.723,22.041-12.932,35.595,15.034,40.648c7.786,1.409,13.669,4.737,14.281,13.683c0.708,10.357-2.327,17.878-13.153,21.698
				C325.542,213.119,322.123,226.402,339.08,244.377z"/>
			<path class="st1" d="M300.076,198.691c0.49,55.42-44.98,101.05-100.37,100.74c-54.01-0.3-98.69-44.85-99.16-98.84
				c-0.48-55.59,44.71-100.95,100.3-100.67C254.876,100.181,299.596,144.711,300.076,198.691z"/>
			<path class="st2" d="M201.566,174.821c13.89,2.81,23.26,10.52,22.99,24.77c-0.29,15.63-10.01,25.07-25.68,24.3
				c-13.94-0.68-23.04-9.88-22.84-24.11C176.256,184.041,186.426,176.281,201.566,174.821z"/>
			<g>
				<g>
					<g>
						<path class="st3" d="M219.515,154.478c-3.03,10.753-6.037,21.41-9.032,32.067c-5.466,19.455-10.952,38.902-16.366,58.373
							c-1.279,4.603-3.106,9.073-8.823,7.536c-5.452-1.467-5.505-5.764-4.08-10.748c8.373-29.276,16.537-58.614,24.701-87.949
							c1.216-4.371,2.982-8.18,8.312-7.261C218.417,147.217,220.012,150.383,219.515,154.478z"/>
						<path class="st3" d="M173.4,229.604c0.101,2.816-1.326,4.808-3.665,6.039c-2.407,1.268-4.913,1.035-6.974-0.799
							c-11.387-10.113-22.793-20.207-34.033-30.481c-2.869-2.623-2.942-6.2-0.09-8.862c11.13-10.391,22.397-20.643,33.749-30.795
							c2.885-2.578,6.227-2.278,8.885,0.61c3.04,3.303,2.304,6.699-0.699,9.526c-7.461,7.025-14.922,14.058-22.661,20.768
							c-3.682,3.194-3.624,5.315,0.068,8.422c7.199,6.064,14.091,12.493,21.066,18.818
							C171.076,224.693,173.349,226.451,173.4,229.604z"/>
						<path class="st3" d="M233.091,236.017c-2.805-0.071-4.721-1.598-5.793-4.022c-1.448-3.274-0.052-5.873,2.395-8.11
							c6.948-6.358,13.598-13.084,20.909-18.988c5.505-4.447,4.639-7.304-0.309-11.334c-7.077-5.768-13.661-12.143-20.456-18.253
							c-3.243-2.918-4.975-6.314-1.692-10.079c3.57-4.09,7.229-2.703,10.785,0.501c9.885,8.892,19.777,17.776,29.821,26.487
							c5.327,4.62,5.887,8.863,0.369,13.758c-10.153,9.006-20.14,18.2-30.196,27.318
							C237.258,234.805,235.548,236.206,233.091,236.017z"/>
					</g>
				</g>
			</g>
		</g>
	</g>
</g>
<g>
</g>
<g>
</g>
<g>
</g>
<g>
</g>
<g>
</g>
<g>
</g>
<g>
</g>
<g>
</g>
<g>
</g>
<g>
</g>
<g>
</g>
<g>
</g>
<g>
</g>
<g>
</g>
<g>
</g>
</svg>
