<?xml version="1.0" encoding="utf-8"?>
<!-- Generator: Adobe Illustrator 26.0.1, SVG Export Plug-In . SVG Version: 6.00 Build 0)  -->
<svg version="1.1" id="Calque_1" xmlns="http://www.w3.org/2000/svg" xmlns:xlink="http://www.w3.org/1999/xlink" x="0px" y="0px"
	 viewBox="0 0 400 400" style="enable-background:new 0 0 400 400;" xml:space="preserve">
<style type="text/css">
	.st0{fill:#E07E64;}
	.st1{fill:#FDF8F7;}
	.st2{fill:#FCF6F4;}
	.st3{fill:#DF7A5F;}
</style>
<g>
	<g>
		<g>
			<path class="st0" d="M259.327,66.354c6.634-6.616,12.582-13.48,23.736-6.354c11.383,7.273,10.256,16.439,7.563,27.113
				c-5.491,21.818,5.529,28.972,25.177,26.279c10.458-1.429,20.202-5.138,26.511,7.852c5.897,12.144-1.315,18.748-8.151,27.065
				c-13.006,15.83-10.405,28.36,10.287,35.059c8.851,2.869,18.501,4.974,18.003,17.69c-0.487,12.55-7.822,17.324-19.108,20.642
				c-23.334,6.852-22.673,21.246-9.007,37.338c6.324,7.448,12.537,13.459,5.193,24.013c-6.551,9.428-14.509,10.169-24.421,7.489
				c-25.938-7.026-31.974,5.764-27.718,28.376c1.573,8.366,2.832,16.186-6.597,21.596c-9.617,5.525-17.503,4.191-25.21-3.279
				c-18.828-18.25-32.576-15.741-40.172,10.24c-2.552,8.721-6.819,15.111-17.263,14.257c-10.632-0.864-16.35-6.167-19.145-16.862
				c-6.476-24.823-20.817-25.757-38.74-10.814c-6.35,5.292-11.152,11.853-21.294,5.973c-11.335-6.568-12.41-15.211-9.362-26.378
				c6.388-23.458-4.753-30.831-26.297-27.453c-9.334,1.458-18.136,4.348-24.241-6.789c-6.337-11.557-1.116-18.864,6.357-27.351
				c15.009-17.043,11.424-29.885-10.746-36.61c-9.419-2.863-17.698-6.391-16.385-18.793c1.144-10.89,7.286-15.712,17.562-18.584
				c25.426-7.12,24.244-21.979,9.463-39.054c-5.715-6.597-10.904-11.895-4.954-21.436c5.938-9.523,13.359-11.955,23.667-9.117
				c27.361,7.529,34.19-5.232,28.891-29.643c-1.92-8.826-1.037-16.061,8.327-20.806c8.662-4.401,15.991-3.536,22.632,3.062
				c20.068,19.93,34.048,16.582,41.997-10.702c2.215-7.596,6.139-13.099,15.101-12.773c10.374,0.378,17.536,4.183,20.205,15.349
				C226.825,76.55,239.679,81.339,259.327,66.354z"/>
			<path class="st1" d="M300.076,198.691c0.49,55.42-44.98,101.05-100.37,100.74c-54.01-0.3-98.69-44.85-99.16-98.84
				c-0.48-55.59,44.71-100.95,100.3-100.67C254.876,100.181,299.596,144.711,300.076,198.691z"/>
			<path class="st2" d="M201.566,174.821c13.89,2.81,23.26,10.52,22.99,24.77c-0.29,15.63-10.01,25.07-25.68,24.3
				c-13.94-0.68-23.04-9.88-22.84-24.11C176.256,184.041,186.426,176.281,201.566,174.821z"/>
			<g>
				<g>
					<g>
						<path class="st3" d="M219.515,154.478c-3.03,10.753-6.037,21.41-9.032,32.067c-5.466,19.455-10.952,38.902-16.366,58.373
							c-1.279,4.603-3.106,9.073-8.823,7.536c-5.452-1.467-5.505-5.764-4.08-10.748c8.373-29.276,16.537-58.614,24.701-87.949
							c1.216-4.371,2.982-8.18,8.312-7.261C218.417,147.217,220.012,150.383,219.515,154.478z"/>
						<path class="st3" d="M173.4,229.604c0.101,2.816-1.326,4.808-3.665,6.039c-2.407,1.268-4.913,1.035-6.974-0.799
							c-11.387-10.113-22.793-20.207-34.033-30.481c-2.869-2.623-2.942-6.2-0.09-8.862c11.13-10.391,22.397-20.643,33.749-30.795
							c2.885-2.578,6.227-2.278,8.885,0.61c3.04,3.303,2.304,6.699-0.699,9.526c-7.461,7.025-14.922,14.058-22.661,20.768
							c-3.682,3.194-3.624,5.315,0.068,8.422c7.199,6.064,14.091,12.493,21.066,18.818
							C171.076,224.693,173.349,226.451,173.4,229.604z"/>
						<path class="st3" d="M233.091,236.017c-2.805-0.071-4.721-1.598-5.793-4.022c-1.448-3.274-0.052-5.873,2.395-8.11
							c6.948-6.358,13.598-13.084,20.909-18.988c5.505-4.447,4.639-7.304-0.309-11.334c-7.077-5.768-13.661-12.143-20.456-18.253
							c-3.243-2.918-4.975-6.314-1.692-10.079c3.57-4.09,7.229-2.703,10.785,0.501c9.885,8.892,19.777,17.776,29.821,26.487
							c5.327,4.62,5.887,8.863,0.369,13.758c-10.153,9.006-20.14,18.2-30.196,27.318
							C237.258,234.805,235.548,236.206,233.091,236.017z"/>
					</g>
				</g>
			</g>
		</g>
	</g>
</g>
<g>
</g>
<g>
</g>
<g>
</g>
<g>
</g>
<g>
</g>
<g>
</g>
<g>
</g>
<g>
</g>
<g>
</g>
<g>
</g>
<g>
</g>
<g>
</g>
<g>
</g>
<g>
</g>
<g>
</g>
</svg>
