<?xml version="1.0" encoding="utf-8"?>
<!-- Generator: Adobe Illustrator 26.0.1, SVG Export Plug-In . SVG Version: 6.00 Build 0)  -->
<svg version="1.1" id="Calque_1" xmlns="http://www.w3.org/2000/svg" xmlns:xlink="http://www.w3.org/1999/xlink" x="0px" y="0px"
	 viewBox="0 0 400 400" style="enable-background:new 0 0 400 400;" xml:space="preserve">
<style type="text/css">
	.st0{fill:#E07E64;}
	.st1{fill:#FDF8F7;}
	.st2{fill:#FCF6F4;}
	.st3{fill:#DF7A5F;}
</style>
<g>
	<g>
		<g>
			<path class="st0" d="M243.274,338.951c-0.667,9.346-0.652,18.428-13.745,20.367c-13.363,1.979-18.525-5.678-23.495-15.501
				c-10.169-20.068-23.18-18.238-36.242-3.315c-6.955,7.94-11.876,17.132-25.159,11.467c-12.417-5.296-11.307-15.013-11.605-25.773
				c-0.57-20.48-10.753-28.23-30.764-19.711c-8.562,3.641-17.226,8.384-25.193-1.539c-7.866-9.791-5.463-18.206,0.879-28.115
				c13.115-20.479,3.173-30.909-17.698-34.089c-9.659-1.472-18.292-1.933-19.673-14.716c-1.241-11.413,4.279-17.194,13.518-21.674
				c24.185-11.715,20.35-25.327,2.303-39.601c-6.676-5.282-12.757-10.358-9.189-20.627c3.633-10.479,10.46-14.646,21.178-14.065
				c26.183,1.421,34.912-9.492,23.601-34.084c-3.795-8.256-4.767-15.878,3.675-22.085c8.591-6.323,16.385-6.072,25.512,0.166
				c21.173,14.485,32.609,5.782,36.332-17.254c1.321-8.16,0.64-16.262,12.153-18.478c12.864-2.48,19.345,3.338,24.372,13.766
				c10.569,21.895,23.814,20.15,37.857,3.467c6.088-7.224,10.835-15.18,22.749-10.78c12.365,4.564,13.218,13.505,13.146,24.813
				c-0.146,22.71,10.985,30.049,32.129,20.58c8.986-4.019,17.55-6.787,24.695,3.433c6.281,8.969,4.809,16.638-1.062,25.548
				c-14.519,22.054-3.877,32.494,18.48,35.683c8.641,1.229,16.033,1.824,17.802,12.928c1.766,11.082-2.239,17.787-11.88,22.408
				c-25.589,12.268-22.371,26.379-2.357,41.326c7.239,5.402,11.319,11.441,7.365,21.165c-3.65,9.005-9.749,13.159-19.089,12.537
				c-28.221-1.875-36.575,9.823-24.674,35.63c3.312,7.186,3.96,13.914-3.017,19.547c-8.077,6.521-15.979,8.348-25.319,1.671
				C261.115,309.933,248.273,314.751,243.274,338.951z"/>
			<path class="st1" d="M300.076,198.691c0.49,55.42-44.98,101.05-100.37,100.74c-54.01-0.3-98.69-44.85-99.16-98.84
				c-0.48-55.59,44.71-100.95,100.3-100.67C254.876,100.181,299.596,144.711,300.076,198.691z"/>
			<path class="st2" d="M201.566,174.821c13.89,2.81,23.26,10.52,22.99,24.77c-0.29,15.63-10.01,25.07-25.68,24.3
				c-13.94-0.68-23.04-9.88-22.84-24.11C176.256,184.041,186.426,176.281,201.566,174.821z"/>
			<g>
				<g>
					<g>
						<path class="st3" d="M219.515,154.478c-3.03,10.753-6.037,21.41-9.032,32.067c-5.466,19.455-10.952,38.902-16.366,58.373
							c-1.279,4.603-3.106,9.073-8.823,7.536c-5.452-1.467-5.505-5.764-4.08-10.748c8.373-29.276,16.537-58.614,24.701-87.949
							c1.216-4.371,2.982-8.18,8.312-7.261C218.417,147.217,220.012,150.383,219.515,154.478z"/>
						<path class="st3" d="M173.4,229.604c0.101,2.816-1.326,4.808-3.665,6.039c-2.407,1.268-4.913,1.035-6.974-0.799
							c-11.387-10.113-22.793-20.207-34.033-30.481c-2.869-2.623-2.942-6.2-0.09-8.862c11.13-10.391,22.397-20.643,33.749-30.795
							c2.885-2.578,6.227-2.278,8.885,0.61c3.04,3.303,2.304,6.699-0.699,9.526c-7.461,7.025-14.922,14.058-22.661,20.768
							c-3.682,3.194-3.624,5.315,0.068,8.422c7.199,6.064,14.091,12.493,21.066,18.818
							C171.076,224.693,173.349,226.451,173.4,229.604z"/>
						<path class="st3" d="M233.091,236.017c-2.805-0.071-4.721-1.598-5.793-4.022c-1.448-3.274-0.052-5.873,2.395-8.11
							c6.948-6.358,13.598-13.084,20.909-18.988c5.505-4.447,4.639-7.304-0.309-11.334c-7.077-5.768-13.661-12.143-20.456-18.253
							c-3.243-2.918-4.975-6.314-1.692-10.079c3.57-4.09,7.229-2.703,10.785,0.501c9.885,8.892,19.777,17.776,29.821,26.487
							c5.327,4.62,5.887,8.863,0.369,13.758c-10.153,9.006-20.14,18.2-30.196,27.318
							C237.258,234.805,235.548,236.206,233.091,236.017z"/>
					</g>
				</g>
			</g>
		</g>
	</g>
</g>
<g>
</g>
<g>
</g>
<g>
</g>
<g>
</g>
<g>
</g>
<g>
</g>
<g>
</g>
<g>
</g>
<g>
</g>
<g>
</g>
<g>
</g>
<g>
</g>
<g>
</g>
<g>
</g>
<g>
</g>
</svg>
