<?xml version="1.0" encoding="utf-8"?>
<!-- Generator: Adobe Illustrator 26.0.1, SVG Export Plug-In . SVG Version: 6.00 Build 0)  -->
<svg version="1.1" id="Calque_1" xmlns="http://www.w3.org/2000/svg" xmlns:xlink="http://www.w3.org/1999/xlink" x="0px" y="0px"
	 viewBox="0 0 400 400" style="enable-background:new 0 0 400 400;" xml:space="preserve">
<style type="text/css">
	.st0{fill:#E07E64;}
	.st1{fill:#FDF8F7;}
	.st2{fill:#FCF6F4;}
	.st3{fill:#DF7A5F;}
</style>
<g>
	<g>
		<g>
			<path class="st0" d="M80.751,116.314c-5.228-7.775-10.832-14.923-1.708-24.512c9.312-9.786,18.094-6.931,28.058-2.25
				c20.369,9.553,29.495,0.101,30.6-19.7c0.592-10.539-1.189-20.811,12.766-24.525c13.046-3.471,18.153,4.869,25.012,13.165
				c13.058,15.788,25.854,15.625,36.377-3.408c4.505-8.141,8.413-17.212,20.8-14.297c12.226,2.873,15.513,10.984,16.617,22.696
				c2.273,24.213,16.529,26.31,34.934,15.966c8.518-4.786,15.604-9.739,24.563-0.516c8.005,8.229,7.214,16.183,2.691,25.402
				c-11.846,24.121-0.443,32.487,22.566,32.624c8.513,0.052,16.429,0.308,19.941,10.597c3.589,10.495,0.774,17.981-8.029,24.122
				c-21.507,15-21.667,28.974,2.387,41.388c8.074,4.169,13.532,9.577,10.701,19.666c-2.877,10.272-9.173,14.873-20.206,15.576
				c-25.602,1.621-29.256,15.52-18.008,35.965c3.983,7.244,9.507,13.209,1.8,22.043c-8.61,9.874-17.299,9.28-27.68,4.157
				c-21.808-10.747-31.172-1.217-31.966,20.575c-0.35,9.44,0.807,18.632-11.29,22.5c-12.553,4.016-18.731-2.504-25.636-11.459
				c-13.866-17.985-27.157-16.916-37.988,3.563c-4.607,8.699-9.651,16.153-21.574,12.498c-10.472-3.201-14.033-10.15-14.892-20.785
				c-2.137-26.318-16.95-27.992-36.531-16.741c-7.566,4.351-13.757,8.434-21.987,0.772c-8.215-7.646-9.187-15.395-4.434-24.972
				c12.612-25.421,1.388-34.56-23.586-34.016c-9.03,0.2-15.964-2.047-18.835-12.144c-2.668-9.343-0.42-16.372,7.324-21.632
				c23.393-15.897,22.774-30.259-2.492-43.267c-7.034-3.624-11.687-8.526-9.656-17.261c2.351-10.111,7.452-16.416,18.922-16.905
				C84.557,150.164,91.711,138.461,80.751,116.314z"/>
			<path class="st1" d="M300.076,198.691c0.49,55.42-44.98,101.05-100.37,100.74c-54.01-0.3-98.69-44.85-99.16-98.84
				c-0.48-55.59,44.71-100.95,100.3-100.67C254.876,100.181,299.596,144.711,300.076,198.691z"/>
			<path class="st2" d="M201.566,174.821c13.89,2.81,23.26,10.52,22.99,24.77c-0.29,15.63-10.01,25.07-25.68,24.3
				c-13.94-0.68-23.04-9.88-22.84-24.11C176.256,184.041,186.426,176.281,201.566,174.821z"/>
			<g>
				<g>
					<g>
						<path class="st3" d="M219.515,154.478c-3.03,10.753-6.037,21.41-9.032,32.067c-5.466,19.455-10.952,38.902-16.366,58.373
							c-1.279,4.603-3.106,9.073-8.823,7.536c-5.452-1.467-5.505-5.764-4.08-10.748c8.373-29.276,16.537-58.614,24.701-87.949
							c1.216-4.371,2.982-8.18,8.312-7.261C218.417,147.217,220.012,150.383,219.515,154.478z"/>
						<path class="st3" d="M173.4,229.604c0.101,2.816-1.326,4.808-3.665,6.039c-2.407,1.268-4.913,1.035-6.974-0.799
							c-11.387-10.113-22.793-20.207-34.033-30.481c-2.869-2.623-2.942-6.2-0.09-8.862c11.13-10.391,22.397-20.643,33.749-30.795
							c2.885-2.578,6.227-2.278,8.885,0.61c3.04,3.303,2.304,6.699-0.699,9.526c-7.461,7.025-14.922,14.058-22.661,20.768
							c-3.682,3.194-3.624,5.315,0.068,8.422c7.199,6.064,14.091,12.493,21.066,18.818
							C171.076,224.693,173.349,226.451,173.4,229.604z"/>
						<path class="st3" d="M233.091,236.017c-2.805-0.071-4.721-1.598-5.793-4.022c-1.448-3.274-0.052-5.873,2.395-8.11
							c6.948-6.358,13.598-13.084,20.909-18.988c5.505-4.447,4.639-7.304-0.309-11.334c-7.077-5.768-13.661-12.143-20.456-18.253
							c-3.243-2.918-4.975-6.314-1.692-10.079c3.57-4.09,7.229-2.703,10.785,0.501c9.885,8.892,19.777,17.776,29.821,26.487
							c5.327,4.62,5.887,8.863,0.369,13.758c-10.153,9.006-20.14,18.2-30.196,27.318
							C237.258,234.805,235.548,236.206,233.091,236.017z"/>
					</g>
				</g>
			</g>
		</g>
	</g>
</g>
<g>
</g>
<g>
</g>
<g>
</g>
<g>
</g>
<g>
</g>
<g>
</g>
<g>
</g>
<g>
</g>
<g>
</g>
<g>
</g>
<g>
</g>
<g>
</g>
<g>
</g>
<g>
</g>
<g>
</g>
</svg>
