<?xml version="1.0" encoding="utf-8"?>
<!-- Generator: Adobe Illustrator 26.0.1, SVG Export Plug-In . SVG Version: 6.00 Build 0)  -->
<svg version="1.1" id="Calque_1" xmlns="http://www.w3.org/2000/svg" xmlns:xlink="http://www.w3.org/1999/xlink" x="0px" y="0px"
	 viewBox="0 0 400 400" style="enable-background:new 0 0 400 400;" xml:space="preserve">
<style type="text/css">
	.st0{fill:#E07E64;}
	.st1{fill:#FDF8F7;}
	.st2{fill:#FCF6F4;}
	.st3{fill:#DF7A5F;}
</style>
<g>
	<g>
		<g>
			<path class="st0" d="M132.199,328.512c-7.08,6.137-13.492,12.57-24.121,4.683c-10.848-8.049-9.084-17.114-5.653-27.574
				c7-21.381-3.495-29.287-23.282-27.971c-10.532,0.696-20.511,3.717-25.898-9.682c-5.035-12.526,2.62-18.611,10.019-26.43
				c14.079-14.884,12.358-27.565-7.816-35.691c-8.629-3.479-18.109-6.253-16.726-18.902c1.361-12.485,9.011-16.736,20.502-19.259
				c23.755-5.207,24.099-19.612,11.59-36.619c-5.789-7.871-11.568-14.301-3.505-24.317c7.192-8.948,15.183-9.132,24.884-5.767
				c25.385,8.818,32.299-3.52,29.63-26.373c-0.986-8.456-1.696-16.344,8.088-21.083c9.979-4.841,17.752-2.96,24.92,5.029
				c17.51,19.519,31.398,17.975,40.789-7.413c3.154-8.521,7.857-14.598,18.215-13.018c10.546,1.603,15.88,7.292,17.923,18.157
				c4.729,25.214,18.97,27.146,37.891,13.49c6.704-4.836,11.952-11.046,21.659-4.473c10.85,7.343,11.319,16.039,7.499,26.967
				c-8.009,22.955,2.591,31.088,24.318,29.221c9.412-0.803,18.395-3.072,23.708,8.463c5.516,11.97-0.203,18.896-8.249,26.841
				c-16.161,15.955-13.48,29.016,8.166,37.271c9.196,3.513,17.209,7.61,15.034,19.89c-1.901,10.784-8.364,15.166-18.816,17.314
				c-25.861,5.329-25.718,20.235-12.164,38.299c5.241,6.979,10.048,12.627,3.446,21.729c-6.588,9.085-14.16,10.995-24.246,7.444
				c-26.769-9.42-34.472,2.834-30.888,27.556c1.299,8.938-0.086,16.094-9.758,20.174c-8.948,3.786-16.198,2.412-22.363-4.633
				c-18.629-21.281-32.809-18.917-42.641,7.747c-2.739,7.423-7.038,12.639-15.955,11.688c-10.322-1.101-17.202-5.396-19.085-16.721
				C165.334,320.608,152.846,314.934,132.199,328.512z"/>
			<path class="st1" d="M300.076,198.691c0.49,55.42-44.98,101.05-100.37,100.74c-54.01-0.3-98.69-44.85-99.16-98.84
				c-0.48-55.59,44.71-100.95,100.3-100.67C254.876,100.181,299.596,144.711,300.076,198.691z"/>
			<path class="st2" d="M201.566,174.821c13.89,2.81,23.26,10.52,22.99,24.77c-0.29,15.63-10.01,25.07-25.68,24.3
				c-13.94-0.68-23.04-9.88-22.84-24.11C176.256,184.041,186.426,176.281,201.566,174.821z"/>
			<g>
				<g>
					<g>
						<path class="st3" d="M219.515,154.478c-3.03,10.753-6.037,21.41-9.032,32.067c-5.466,19.455-10.952,38.902-16.366,58.373
							c-1.279,4.603-3.106,9.073-8.823,7.536c-5.452-1.467-5.505-5.764-4.08-10.748c8.373-29.276,16.537-58.614,24.701-87.949
							c1.216-4.371,2.982-8.18,8.312-7.261C218.417,147.217,220.012,150.383,219.515,154.478z"/>
						<path class="st3" d="M173.4,229.604c0.101,2.816-1.326,4.808-3.665,6.039c-2.407,1.268-4.913,1.035-6.974-0.799
							c-11.387-10.113-22.793-20.207-34.033-30.481c-2.869-2.623-2.942-6.2-0.09-8.862c11.13-10.391,22.397-20.643,33.749-30.795
							c2.885-2.578,6.227-2.278,8.885,0.61c3.04,3.303,2.304,6.699-0.699,9.526c-7.461,7.025-14.922,14.058-22.661,20.768
							c-3.682,3.194-3.624,5.315,0.068,8.422c7.199,6.064,14.091,12.493,21.066,18.818
							C171.076,224.693,173.349,226.451,173.4,229.604z"/>
						<path class="st3" d="M233.091,236.017c-2.805-0.071-4.721-1.598-5.793-4.022c-1.448-3.274-0.052-5.873,2.395-8.11
							c6.948-6.358,13.598-13.084,20.909-18.988c5.505-4.447,4.639-7.304-0.309-11.334c-7.077-5.768-13.661-12.143-20.456-18.253
							c-3.243-2.918-4.975-6.314-1.692-10.079c3.57-4.09,7.229-2.703,10.785,0.501c9.885,8.892,19.777,17.776,29.821,26.487
							c5.327,4.62,5.887,8.863,0.369,13.758c-10.153,9.006-20.14,18.2-30.196,27.318
							C237.258,234.805,235.548,236.206,233.091,236.017z"/>
					</g>
				</g>
			</g>
		</g>
	</g>
</g>
<g>
</g>
<g>
</g>
<g>
</g>
<g>
</g>
<g>
</g>
<g>
</g>
<g>
</g>
<g>
</g>
<g>
</g>
<g>
</g>
<g>
</g>
<g>
</g>
<g>
</g>
<g>
</g>
<g>
</g>
</svg>
