<?xml version="1.0" encoding="utf-8"?>
<!-- Generator: Adobe Illustrator 26.0.1, SVG Export Plug-In . SVG Version: 6.00 Build 0)  -->
<svg version="1.1" id="Calque_1" xmlns="http://www.w3.org/2000/svg" xmlns:xlink="http://www.w3.org/1999/xlink" x="0px" y="0px"
	 viewBox="0 0 400 400" style="enable-background:new 0 0 400 400;" xml:space="preserve">
<style type="text/css">
	.st0{fill:#E07E64;}
	.st1{fill:#FDF8F7;}
	.st2{fill:#FCF6F4;}
	.st3{fill:#DF7A5F;}
</style>
<g>
	<g>
		<g>
			<path class="st0" d="M277.308,75.864c7.491-5.628,14.336-11.598,24.389-2.989c10.26,8.787,7.868,17.706,3.716,27.902
				c-8.474,20.841,1.443,29.46,21.275,29.527c10.555,0.04,20.72-2.277,25.16,11.465c4.149,12.846-3.912,18.383-11.838,25.667
				c-15.083,13.866-14.251,26.636,5.307,36.149c8.365,4.073,17.629,7.501,15.366,20.023c-2.229,12.36-10.157,16.067-21.795,17.782
				c-24.06,3.537-25.409,17.883-14.116,35.721c5.226,8.256,10.542,15.073,1.8,24.502c-7.799,8.424-15.783,8.051-25.226,4.017
				c-24.708-10.567-32.465,1.258-31.398,24.242c0.394,8.504,0.552,16.423-9.539,20.468c-10.292,4.133-17.916,1.714-24.509-6.756
				c-16.105-20.693-30.068-20.121-41.207,4.549c-3.741,8.281-8.856,14.014-19.079,11.715c-10.408-2.335-15.332-8.382-16.612-19.363
				c-2.959-25.482-17.03-28.404-36.858-16.101c-7.025,4.357-12.693,10.185-21.918,2.951c-10.311-8.082-10.173-16.79-5.6-27.425
				c9.591-22.341-0.416-31.193-22.22-30.846c-9.446,0.145-18.565,1.781-23.06-10.097c-4.667-12.326,1.521-18.836,10.102-26.2
				c17.235-14.789,15.472-28.005-5.547-37.75c-8.929-4.146-16.636-8.792-13.61-20.89c2.648-10.625,9.402-14.545,19.978-15.959
				c26.17-3.512,27.067-18.391,14.806-37.357c-4.741-7.328-9.142-13.297-1.922-21.917c7.205-8.604,14.893-9.98,24.706-5.735
				c26.047,11.264,34.586-0.423,32.735-25.334c-0.673-9.007,1.209-16.049,11.142-19.444c9.191-3.153,16.327-1.276,21.986,6.182
				c17.099,22.529,31.409,21.159,43.078-4.753c3.251-7.214,7.903-12.117,16.732-10.547c10.22,1.818,16.784,6.582,17.872,18.012
				C243.703,81.437,255.765,87.968,277.308,75.864z"/>
			<path class="st1" d="M300.076,198.691c0.49,55.42-44.98,101.05-100.37,100.74c-54.01-0.3-98.69-44.85-99.16-98.84
				c-0.48-55.59,44.71-100.95,100.3-100.67C254.876,100.181,299.596,144.711,300.076,198.691z"/>
			<path class="st2" d="M201.566,174.821c13.89,2.81,23.26,10.52,22.99,24.77c-0.29,15.63-10.01,25.07-25.68,24.3
				c-13.94-0.68-23.04-9.88-22.84-24.11C176.256,184.041,186.426,176.281,201.566,174.821z"/>
			<g>
				<g>
					<g>
						<path class="st3" d="M219.515,154.478c-3.03,10.753-6.037,21.41-9.032,32.067c-5.466,19.455-10.952,38.902-16.366,58.373
							c-1.279,4.603-3.106,9.073-8.823,7.536c-5.452-1.467-5.505-5.764-4.08-10.748c8.373-29.276,16.537-58.614,24.701-87.949
							c1.216-4.371,2.982-8.18,8.312-7.261C218.417,147.217,220.012,150.383,219.515,154.478z"/>
						<path class="st3" d="M173.4,229.604c0.101,2.816-1.326,4.808-3.665,6.039c-2.407,1.268-4.913,1.035-6.974-0.799
							c-11.387-10.113-22.793-20.207-34.033-30.481c-2.869-2.623-2.942-6.2-0.09-8.862c11.13-10.391,22.397-20.643,33.749-30.795
							c2.885-2.578,6.227-2.278,8.885,0.61c3.04,3.303,2.304,6.699-0.699,9.526c-7.461,7.025-14.922,14.058-22.661,20.768
							c-3.682,3.194-3.624,5.315,0.068,8.422c7.199,6.064,14.091,12.493,21.066,18.818
							C171.076,224.693,173.349,226.451,173.4,229.604z"/>
						<path class="st3" d="M233.091,236.017c-2.805-0.071-4.721-1.598-5.793-4.022c-1.448-3.274-0.052-5.873,2.395-8.11
							c6.948-6.358,13.598-13.084,20.909-18.988c5.505-4.447,4.639-7.304-0.309-11.334c-7.077-5.768-13.661-12.143-20.456-18.253
							c-3.243-2.918-4.975-6.314-1.692-10.079c3.57-4.09,7.229-2.703,10.785,0.501c9.885,8.892,19.777,17.776,29.821,26.487
							c5.327,4.62,5.887,8.863,0.369,13.758c-10.153,9.006-20.14,18.2-30.196,27.318
							C237.258,234.805,235.548,236.206,233.091,236.017z"/>
					</g>
				</g>
			</g>
		</g>
	</g>
</g>
<g>
</g>
<g>
</g>
<g>
</g>
<g>
</g>
<g>
</g>
<g>
</g>
<g>
</g>
<g>
</g>
<g>
</g>
<g>
</g>
<g>
</g>
<g>
</g>
<g>
</g>
<g>
</g>
<g>
</g>
</svg>
