<?xml version="1.0" encoding="utf-8"?>
<!-- Generator: Adobe Illustrator 26.0.1, SVG Export Plug-In . SVG Version: 6.00 Build 0)  -->
<svg version="1.1" id="Calque_1" xmlns="http://www.w3.org/2000/svg" xmlns:xlink="http://www.w3.org/1999/xlink" x="0px" y="0px"
	 viewBox="0 0 400 400" style="enable-background:new 0 0 400 400;" xml:space="preserve">
<style type="text/css">
	.st0{fill:#E07E64;}
	.st1{fill:#FDF8F7;}
	.st2{fill:#FCF6F4;}
	.st3{fill:#DF7A5F;}
</style>
<g>
	<g>
		<g>
			<path class="st0" d="M79.314,118.414c-5.363-7.682-11.09-14.732-2.136-24.478c9.139-9.947,17.97-7.245,28.014-2.74
				c20.533,9.196,29.492-0.414,30.252-20.231c0.408-10.548-1.552-20.787,12.336-24.744c12.983-3.698,18.235,4.551,25.238,12.727
				c13.331,15.557,26.123,15.172,36.312-4.042c4.362-8.218,8.111-17.356,20.547-14.658c12.274,2.659,15.703,10.711,17.01,22.403
				c2.696,24.169,16.986,26.017,35.207,15.354c8.433-4.934,15.432-10.009,24.55-0.944c8.147,8.088,7.495,16.054,3.134,25.351
				c-11.423,24.324,0.124,32.49,23.132,32.225c8.512-0.097,16.432,0.021,20.122,10.247c3.771,10.43,1.088,17.965-7.607,24.258
				c-21.242,15.373-21.158,29.347,3.108,41.34c8.145,4.028,13.697,9.34,11.042,19.476c-2.697,10.32-8.912,15.03-19.931,15.927
				c-25.57,2.067-28.981,16.028-17.377,36.274c4.109,7.173,9.736,13.041,2.184,22.008c-8.437,10.023-17.134,9.58-27.603,4.64
				c-21.993-10.365-31.188-0.673-31.603,21.13c-0.185,9.445,1.132,18.616-10.895,22.694c-12.481,4.234-18.772-2.177-25.832-11.01
				c-14.178-17.741-27.448-16.44-37.92,4.226c-4.455,8.779-9.367,16.319-21.352,12.873c-10.526-3.017-14.208-9.904-15.252-20.522
				c-2.596-26.276-17.436-27.692-36.818-16.1c-7.489,4.482-13.608,8.673-21.971,1.156c-8.347-7.501-9.454-15.232-4.869-24.891
				c12.166-25.638,0.785-34.579-24.176-33.6c-9.025,0.358-15.997-1.768-19.044-11.814c-2.83-9.295-0.705-16.362,6.945-21.756
				c23.112-16.303,22.243-30.651-3.247-43.217c-7.096-3.5-11.834-8.321-9.956-17.09c2.174-10.151,7.164-16.544,18.624-17.232
				C83.711,152.192,90.659,140.366,79.314,118.414z"/>
			<path class="st1" d="M300.076,198.691c0.49,55.42-44.98,101.05-100.37,100.74c-54.01-0.3-98.69-44.85-99.16-98.84
				c-0.48-55.59,44.71-100.95,100.3-100.67C254.876,100.181,299.596,144.711,300.076,198.691z"/>
			<path class="st2" d="M201.566,174.821c13.89,2.81,23.26,10.52,22.99,24.77c-0.29,15.63-10.01,25.07-25.68,24.3
				c-13.94-0.68-23.04-9.88-22.84-24.11C176.256,184.041,186.426,176.281,201.566,174.821z"/>
			<g>
				<g>
					<g>
						<path class="st3" d="M219.515,154.478c-3.03,10.753-6.037,21.41-9.032,32.067c-5.466,19.455-10.952,38.902-16.366,58.373
							c-1.279,4.603-3.106,9.073-8.823,7.536c-5.452-1.467-5.505-5.764-4.08-10.748c8.373-29.276,16.537-58.614,24.701-87.949
							c1.216-4.371,2.982-8.18,8.312-7.261C218.417,147.217,220.012,150.383,219.515,154.478z"/>
						<path class="st3" d="M173.4,229.604c0.101,2.816-1.326,4.808-3.665,6.039c-2.407,1.268-4.913,1.035-6.974-0.799
							c-11.387-10.113-22.793-20.207-34.033-30.481c-2.869-2.623-2.942-6.2-0.09-8.862c11.13-10.391,22.397-20.643,33.749-30.795
							c2.885-2.578,6.227-2.278,8.885,0.61c3.04,3.303,2.304,6.699-0.699,9.526c-7.461,7.025-14.922,14.058-22.661,20.768
							c-3.682,3.194-3.624,5.315,0.068,8.422c7.199,6.064,14.091,12.493,21.066,18.818
							C171.076,224.693,173.349,226.451,173.4,229.604z"/>
						<path class="st3" d="M233.091,236.017c-2.805-0.071-4.721-1.598-5.793-4.022c-1.448-3.274-0.052-5.873,2.395-8.11
							c6.948-6.358,13.598-13.084,20.909-18.988c5.505-4.447,4.639-7.304-0.309-11.334c-7.077-5.768-13.661-12.143-20.456-18.253
							c-3.243-2.918-4.975-6.314-1.692-10.079c3.57-4.09,7.229-2.703,10.785,0.501c9.885,8.892,19.777,17.776,29.821,26.487
							c5.327,4.62,5.887,8.863,0.369,13.758c-10.153,9.006-20.14,18.2-30.196,27.318
							C237.258,234.805,235.548,236.206,233.091,236.017z"/>
					</g>
				</g>
			</g>
		</g>
	</g>
</g>
<g>
</g>
<g>
</g>
<g>
</g>
<g>
</g>
<g>
</g>
<g>
</g>
<g>
</g>
<g>
</g>
<g>
</g>
<g>
</g>
<g>
</g>
<g>
</g>
<g>
</g>
<g>
</g>
<g>
</g>
</svg>
