<?xml version="1.0" encoding="utf-8"?>
<!-- Generator: Adobe Illustrator 26.0.1, SVG Export Plug-In . SVG Version: 6.00 Build 0)  -->
<svg version="1.1" id="Calque_1" xmlns="http://www.w3.org/2000/svg" xmlns:xlink="http://www.w3.org/1999/xlink" x="0px" y="0px"
	 viewBox="0 0 400 400" style="enable-background:new 0 0 400 400;" xml:space="preserve">
<style type="text/css">
	.st0{fill:#E07E64;}
	.st1{fill:#FDF8F7;}
	.st2{fill:#FCF6F4;}
	.st3{fill:#DF7A5F;}
</style>
<g>
	<g>
		<g>
			<path class="st0" d="M169.71,57.142c1.479-9.252,2.256-18.301,15.468-19.092c13.484-0.807,17.96,7.271,22.055,17.489
				c8.382,20.878,21.502,20.189,35.815,6.461c7.621-7.304,13.323-16.031,26.063-9.23c11.909,6.358,9.956,15.941,9.314,26.687
				c-1.217,20.452,8.252,29.06,28.929,22.317c8.847-2.881,17.891-6.851,24.963,3.729c6.983,10.439,3.855,18.613-3.326,27.931
				c-14.85,19.258-5.855,30.515,14.66,35.502c9.494,2.309,18.054,3.52,18.316,16.375c0.242,11.478-5.761,16.755-15.356,20.413
				c-25.114,9.562-22.48,23.457-5.746,39.249c6.19,5.844,11.805,11.43,7.357,21.349c-4.533,10.123-11.697,13.678-22.323,12.166
				c-25.96-3.697-35.606,6.413-26.481,31.897c3.061,8.555,3.365,16.233-5.586,21.681c-9.109,5.55-16.852,4.621-25.4-2.388
				c-19.83-16.275-31.981-8.602-37.698,14.022c-2.027,8.014-2.055,16.144-13.717,17.348c-13.031,1.349-18.981-5.011-23.079-15.837
				c-8.62-22.733-21.968-22.149-37.411-6.753c-6.694,6.665-12.117,14.177-23.602,8.756c-11.92-5.624-11.991-14.606-10.934-25.864
				c2.125-22.61-8.324-30.892-30.213-23.302c-9.303,3.22-18.074,5.232-24.302-5.573c-5.476-9.482-3.341-16.994,3.284-25.358
				c16.386-20.705,6.694-32.032-15.3-37.157c-8.501-1.978-15.813-3.214-16.607-14.431c-0.793-11.194,3.78-17.524,13.788-21.287
				c26.561-9.991,24.585-24.329,5.949-40.964c-6.741-6.012-10.279-12.384-5.492-21.727c4.421-8.652,10.858-12.26,20.109-10.826
				c27.95,4.328,37.292-6.598,27.686-33.344c-2.673-7.447-2.732-14.206,4.71-19.209c8.615-5.792,16.646-6.924,25.368,0.542
				C149.408,84.495,162.622,80.814,169.71,57.142z"/>
			<path class="st1" d="M300.076,198.691c0.49,55.42-44.98,101.05-100.37,100.74c-54.01-0.3-98.69-44.85-99.16-98.84
				c-0.48-55.59,44.71-100.95,100.3-100.67C254.876,100.181,299.596,144.711,300.076,198.691z"/>
			<path class="st2" d="M201.566,174.821c13.89,2.81,23.26,10.52,22.99,24.77c-0.29,15.63-10.01,25.07-25.68,24.3
				c-13.94-0.68-23.04-9.88-22.84-24.11C176.256,184.041,186.426,176.281,201.566,174.821z"/>
			<g>
				<g>
					<g>
						<path class="st3" d="M219.515,154.478c-3.03,10.753-6.037,21.41-9.032,32.067c-5.466,19.455-10.952,38.902-16.366,58.373
							c-1.279,4.603-3.106,9.073-8.823,7.536c-5.452-1.467-5.505-5.764-4.08-10.748c8.373-29.276,16.537-58.614,24.701-87.949
							c1.216-4.371,2.982-8.18,8.312-7.261C218.417,147.217,220.012,150.383,219.515,154.478z"/>
						<path class="st3" d="M173.4,229.604c0.101,2.816-1.326,4.808-3.665,6.039c-2.407,1.268-4.913,1.035-6.974-0.799
							c-11.387-10.113-22.793-20.207-34.033-30.481c-2.869-2.623-2.942-6.2-0.09-8.862c11.13-10.391,22.397-20.643,33.749-30.795
							c2.885-2.578,6.227-2.278,8.885,0.61c3.04,3.303,2.304,6.699-0.699,9.526c-7.461,7.025-14.922,14.058-22.661,20.768
							c-3.682,3.194-3.624,5.315,0.068,8.422c7.199,6.064,14.091,12.493,21.066,18.818
							C171.076,224.693,173.349,226.451,173.4,229.604z"/>
						<path class="st3" d="M233.091,236.017c-2.805-0.071-4.721-1.598-5.793-4.022c-1.448-3.274-0.052-5.873,2.395-8.11
							c6.948-6.358,13.598-13.084,20.909-18.988c5.505-4.447,4.639-7.304-0.309-11.334c-7.077-5.768-13.661-12.143-20.456-18.253
							c-3.243-2.918-4.975-6.314-1.692-10.079c3.57-4.09,7.229-2.703,10.785,0.501c9.885,8.892,19.777,17.776,29.821,26.487
							c5.327,4.62,5.887,8.863,0.369,13.758c-10.153,9.006-20.14,18.2-30.196,27.318
							C237.258,234.805,235.548,236.206,233.091,236.017z"/>
					</g>
				</g>
			</g>
		</g>
	</g>
</g>
<g>
</g>
<g>
</g>
<g>
</g>
<g>
</g>
<g>
</g>
<g>
</g>
<g>
</g>
<g>
</g>
<g>
</g>
<g>
</g>
<g>
</g>
<g>
</g>
<g>
</g>
<g>
</g>
<g>
</g>
</svg>
