<?xml version="1.0" encoding="utf-8"?>
<!-- Generator: Adobe Illustrator 26.0.1, SVG Export Plug-In . SVG Version: 6.00 Build 0)  -->
<svg version="1.1" id="Calque_1" xmlns="http://www.w3.org/2000/svg" xmlns:xlink="http://www.w3.org/1999/xlink" x="0px" y="0px"
	 viewBox="0 0 400 400" style="enable-background:new 0 0 400 400;" xml:space="preserve">
<style type="text/css">
	.st0{fill:#E07E64;}
	.st1{fill:#FDF8F7;}
	.st2{fill:#FCF6F4;}
	.st3{fill:#DF7A5F;}
</style>
<g>
	<g>
		<g>
			<path class="st0" d="M298.122,307.757c3.345,8.752,7.197,16.977-3.85,24.268c-11.274,7.441-19.189,2.683-27.845-4.119
				c-17.698-13.89-28.716-6.733-34.247,12.312c-2.948,10.135-3.523,20.545-17.956,21.025c-13.492,0.448-16.592-8.827-21.41-18.454
				c-9.172-18.32-21.676-21.041-36.212-4.862c-6.221,6.919-12.069,14.879-23.483,9.252c-11.267-5.549-12.645-14.192-11.085-25.852
				c3.232-24.103-10.187-29.354-30.447-23.415c-9.376,2.748-17.395,5.979-24.049-5.023c-5.948-9.819-3.389-17.391,3.092-25.356
				c16.968-20.838,7.739-31.555-14.649-36.864c-8.283-1.966-15.939-3.996-17.046-14.811c-1.136-11.033,3.29-17.694,13.249-21.697
				c24.33-9.778,27.629-23.357,6.985-40.864c-6.929-5.878-11.031-12.376-6.003-21.569c5.114-9.361,12.284-12.428,23.192-10.632
				c25.311,4.18,31.997-8.541,25.636-30.992c-2.252-7.954-6.292-15.009,3.205-21.883c10.611-7.684,18.943-5.151,27.906,2.176
				c18.832,15.377,30.099,8.198,35.776-12.857c2.465-9.119,3.405-18.337,16.062-19.384c13.135-1.089,17.687,6.654,22.401,16.932
				C216.81,75.73,230,77.678,245.161,60.16c6.446-7.44,13.037-13.568,23.832-7.325c9.483,5.474,11.39,13.047,9.835,23.603
				c-3.838,26.124,10.218,31.088,31.829,24.529c8.351-2.537,15.302-5.123,21.598,4.194c6.284,9.298,5.488,17.067-1.297,25.329
				c-18.007,21.933-9.127,33.362,15.329,38.45c8.844,1.836,15.094,5.586,15.62,16.07c0.498,9.704-3.274,16.046-12.002,19.43
				c-26.369,10.227-28.997,24.36-7.305,42.719c6.039,5.113,9.469,10.936,5.526,18.991c-4.565,9.323-10.954,14.319-22.24,12.215
				C302.027,273.917,292.424,283.712,298.122,307.757z"/>
			<path class="st1" d="M300.076,198.691c0.49,55.42-44.98,101.05-100.37,100.74c-54.01-0.3-98.69-44.85-99.16-98.84
				c-0.48-55.59,44.71-100.95,100.3-100.67C254.876,100.181,299.596,144.711,300.076,198.691z"/>
			<path class="st2" d="M201.566,174.821c13.89,2.81,23.26,10.52,22.99,24.77c-0.29,15.63-10.01,25.07-25.68,24.3
				c-13.94-0.68-23.04-9.88-22.84-24.11C176.256,184.041,186.426,176.281,201.566,174.821z"/>
			<g>
				<g>
					<g>
						<path class="st3" d="M219.515,154.478c-3.03,10.753-6.037,21.41-9.032,32.067c-5.466,19.455-10.952,38.902-16.366,58.373
							c-1.279,4.603-3.106,9.073-8.823,7.536c-5.452-1.467-5.505-5.764-4.08-10.748c8.373-29.276,16.537-58.614,24.701-87.949
							c1.216-4.371,2.982-8.18,8.312-7.261C218.417,147.217,220.012,150.383,219.515,154.478z"/>
						<path class="st3" d="M173.4,229.604c0.101,2.816-1.326,4.808-3.665,6.039c-2.407,1.268-4.913,1.035-6.974-0.799
							c-11.387-10.113-22.793-20.207-34.033-30.481c-2.869-2.623-2.942-6.2-0.09-8.862c11.13-10.391,22.397-20.643,33.749-30.795
							c2.885-2.578,6.227-2.278,8.885,0.61c3.04,3.303,2.304,6.699-0.699,9.526c-7.461,7.025-14.922,14.058-22.661,20.768
							c-3.682,3.194-3.624,5.315,0.068,8.422c7.199,6.064,14.091,12.493,21.066,18.818
							C171.076,224.693,173.349,226.451,173.4,229.604z"/>
						<path class="st3" d="M233.091,236.017c-2.805-0.071-4.721-1.598-5.793-4.022c-1.448-3.274-0.052-5.873,2.395-8.11
							c6.948-6.358,13.598-13.084,20.909-18.988c5.505-4.447,4.639-7.304-0.309-11.334c-7.077-5.768-13.661-12.143-20.456-18.253
							c-3.243-2.918-4.975-6.314-1.692-10.079c3.57-4.09,7.229-2.703,10.785,0.501c9.885,8.892,19.777,17.776,29.821,26.487
							c5.327,4.62,5.887,8.863,0.369,13.758c-10.153,9.006-20.14,18.2-30.196,27.318
							C237.258,234.805,235.548,236.206,233.091,236.017z"/>
					</g>
				</g>
			</g>
		</g>
	</g>
</g>
<g>
</g>
<g>
</g>
<g>
</g>
<g>
</g>
<g>
</g>
<g>
</g>
<g>
</g>
<g>
</g>
<g>
</g>
<g>
</g>
<g>
</g>
<g>
</g>
<g>
</g>
<g>
</g>
<g>
</g>
</svg>
