<?xml version="1.0" encoding="utf-8"?>
<!-- Generator: Adobe Illustrator 26.0.1, SVG Export Plug-In . SVG Version: 6.00 Build 0)  -->
<svg version="1.1" id="Calque_1" xmlns="http://www.w3.org/2000/svg" xmlns:xlink="http://www.w3.org/1999/xlink" x="0px" y="0px"
	 viewBox="0 0 400 400" style="enable-background:new 0 0 400 400;" xml:space="preserve">
<style type="text/css">
	.st0{fill:#E07E64;}
	.st1{fill:#FDF8F7;}
	.st2{fill:#FCF6F4;}
	.st3{fill:#DF7A5F;}
</style>
<g>
	<g>
		<g>
			<path class="st0" d="M172.201,56.628c1.64-9.225,2.575-18.259,15.799-18.819c13.496-0.571,17.83,7.584,21.746,17.872
				c8.016,21.022,21.147,20.561,35.697,7.085c7.747-7.17,13.601-15.796,26.22-8.774c11.796,6.565,9.676,16.112,8.847,26.845
				c-1.574,20.427,7.743,29.2,28.535,22.818c8.895-2.726,18.008-6.537,24.894,4.164c6.799,10.559,3.53,18.678-3.813,27.869
				c-15.184,18.996-6.386,30.408,14.038,35.752c9.452,2.474,17.99,3.834,18.027,16.692c0.042,11.48-6.052,16.652-15.71,20.142
				c-25.277,9.122-22.886,23.062-6.43,39.143c6.087,5.951,11.604,11.634,6.983,21.474c-4.709,10.042-11.934,13.472-22.532,11.774
				c-25.891-4.15-35.713,5.791-27.034,31.43c2.911,8.607,3.081,16.289-5.964,21.58c-9.205,5.391-16.93,4.326-25.355-2.831
				c-19.543-16.619-31.826-9.159-37.937,13.362c-2.166,7.978-2.337,16.106-14.018,17.106c-13.053,1.122-18.89-5.342-22.799-16.238
				c-8.222-22.88-21.578-22.529-37.287-7.405c-6.809,6.548-12.363,13.964-23.751,8.343c-11.82-5.832-11.734-14.813-10.481-26.051
				c2.519-22.57-7.784-31.033-29.802-23.825c-9.357,3.057-18.163,4.915-24.201-5.996c-5.309-9.577-3.044-17.05,3.726-25.297
				c16.744-20.416,7.253-31.91-14.649-37.419c-8.465-2.126-15.755-3.49-16.353-14.718c-0.598-11.206,4.086-17.456,14.158-21.043
				c26.731-9.526,25.006-23.896,6.663-40.854c-6.635-6.129-10.061-12.562-5.112-21.819c4.571-8.574,11.071-12.068,20.295-10.473
				c27.87,4.815,37.402-5.946,28.263-32.855c-2.543-7.493-2.484-14.251,5.044-19.124c8.715-5.641,16.764-6.632,25.355,0.984
				C151.425,83.623,164.701,80.173,172.201,56.628z"/>
			<path class="st1" d="M300.076,198.691c0.49,55.42-44.98,101.05-100.37,100.74c-54.01-0.3-98.69-44.85-99.16-98.84
				c-0.48-55.59,44.71-100.95,100.3-100.67C254.876,100.181,299.596,144.711,300.076,198.691z"/>
			<path class="st2" d="M201.566,174.821c13.89,2.81,23.26,10.52,22.99,24.77c-0.29,15.63-10.01,25.07-25.68,24.3
				c-13.94-0.68-23.04-9.88-22.84-24.11C176.256,184.041,186.426,176.281,201.566,174.821z"/>
			<g>
				<g>
					<g>
						<path class="st3" d="M219.515,154.478c-3.03,10.753-6.037,21.41-9.032,32.067c-5.466,19.455-10.952,38.902-16.366,58.373
							c-1.279,4.603-3.106,9.073-8.823,7.536c-5.452-1.467-5.505-5.764-4.08-10.748c8.373-29.276,16.537-58.614,24.701-87.949
							c1.216-4.371,2.982-8.18,8.312-7.261C218.417,147.217,220.012,150.383,219.515,154.478z"/>
						<path class="st3" d="M173.4,229.604c0.101,2.816-1.326,4.808-3.665,6.039c-2.407,1.268-4.913,1.035-6.974-0.799
							c-11.387-10.113-22.793-20.207-34.033-30.481c-2.869-2.623-2.942-6.2-0.09-8.862c11.13-10.391,22.397-20.643,33.749-30.795
							c2.885-2.578,6.227-2.278,8.885,0.61c3.04,3.303,2.304,6.699-0.699,9.526c-7.461,7.025-14.922,14.058-22.661,20.768
							c-3.682,3.194-3.624,5.315,0.068,8.422c7.199,6.064,14.091,12.493,21.066,18.818
							C171.076,224.693,173.349,226.451,173.4,229.604z"/>
						<path class="st3" d="M233.091,236.017c-2.805-0.071-4.721-1.598-5.793-4.022c-1.448-3.274-0.052-5.873,2.395-8.11
							c6.948-6.358,13.598-13.084,20.909-18.988c5.505-4.447,4.639-7.304-0.309-11.334c-7.077-5.768-13.661-12.143-20.456-18.253
							c-3.243-2.918-4.975-6.314-1.692-10.079c3.57-4.09,7.229-2.703,10.785,0.501c9.885,8.892,19.777,17.776,29.821,26.487
							c5.327,4.62,5.887,8.863,0.369,13.758c-10.153,9.006-20.14,18.2-30.196,27.318
							C237.258,234.805,235.548,236.206,233.091,236.017z"/>
					</g>
				</g>
			</g>
		</g>
	</g>
</g>
<g>
</g>
<g>
</g>
<g>
</g>
<g>
</g>
<g>
</g>
<g>
</g>
<g>
</g>
<g>
</g>
<g>
</g>
<g>
</g>
<g>
</g>
<g>
</g>
<g>
</g>
<g>
</g>
<g>
</g>
</svg>
