<?xml version="1.0" encoding="utf-8"?>
<!-- Generator: Adobe Illustrator 26.0.1, SVG Export Plug-In . SVG Version: 6.00 Build 0)  -->
<svg version="1.1" id="Calque_1" xmlns="http://www.w3.org/2000/svg" xmlns:xlink="http://www.w3.org/1999/xlink" x="0px" y="0px"
	 viewBox="0 0 400 400" style="enable-background:new 0 0 400 400;" xml:space="preserve">
<style type="text/css">
	.st0{fill:#E07E64;}
	.st1{fill:#FDF8F7;}
	.st2{fill:#FCF6F4;}
	.st3{fill:#DF7A5F;}
</style>
<g>
	<g>
		<g>
			<path class="st0" d="M58.387,232.767c-9.276-1.317-18.338-1.936-19.359-15.132c-1.042-13.468,6.957-18.084,17.102-22.357
				c20.729-8.745,19.811-21.852,5.835-35.922c-7.436-7.492-16.261-13.042-9.684-25.898c6.15-12.018,15.765-10.232,26.52-9.779
				c20.47,0.86,28.912-8.758,21.809-29.314c-3.035-8.795-7.162-17.769,3.293-25.024c10.316-7.164,18.543-4.179,27.985,2.838
				c19.515,14.512,30.612,5.321,35.24-15.277c2.143-9.533,3.204-18.113,16.053-18.599c11.472-0.442,16.853,5.468,20.678,14.997
				c9.999,24.943,23.846,22.067,39.343,5.06c5.735-6.291,11.222-12.003,21.218-7.728c10.2,4.355,13.88,11.456,12.553,22.107
				c-3.244,26.02,7.033,35.489,32.354,25.921c8.501-3.21,16.172-3.648,21.775,5.207c5.708,9.011,4.914,16.769-1.945,25.438
				c-15.927,20.111-8.042,32.126,14.678,37.447c8.048,1.887,16.177,1.773,17.585,13.412c1.576,13.006-4.679,19.065-15.432,23.352
				c-22.579,9.016-21.762,22.351-6.099,37.523c6.781,6.577,14.387,11.868,9.166,23.445c-5.416,12.016-14.394,12.244-25.669,11.384
				c-22.644-1.73-30.742,8.862-22.771,30.615c3.382,9.245,5.546,17.98-5.148,24.395c-9.385,5.64-16.933,3.637-25.411-2.841
				c-20.988-16.022-32.144-6.134-36.885,15.946c-1.829,8.534-2.938,15.867-14.139,16.857c-11.179,0.989-17.588-3.474-21.525-13.415
				c-10.453-26.383-24.755-24.157-41.061-5.234c-5.893,6.845-12.203,10.494-21.628,5.871c-8.728-4.269-12.447-10.643-11.175-19.917
				c3.839-28.021-7.248-37.172-33.822-27.099c-7.4,2.803-14.156,2.98-19.289-4.374c-5.941-8.512-7.213-16.522,0.099-25.373
				C86.09,252.589,82.179,239.441,58.387,232.767z"/>
			<path class="st1" d="M300.076,198.691c0.49,55.42-44.98,101.05-100.37,100.74c-54.01-0.3-98.69-44.85-99.16-98.84
				c-0.48-55.59,44.71-100.95,100.3-100.67C254.876,100.181,299.596,144.711,300.076,198.691z"/>
			<path class="st2" d="M201.566,174.821c13.89,2.81,23.26,10.52,22.99,24.77c-0.29,15.63-10.01,25.07-25.68,24.3
				c-13.94-0.68-23.04-9.88-22.84-24.11C176.256,184.041,186.426,176.281,201.566,174.821z"/>
			<g>
				<g>
					<g>
						<path class="st3" d="M219.515,154.478c-3.03,10.753-6.037,21.41-9.032,32.067c-5.466,19.455-10.952,38.902-16.366,58.373
							c-1.279,4.603-3.106,9.073-8.823,7.536c-5.452-1.467-5.505-5.764-4.08-10.748c8.373-29.276,16.537-58.614,24.701-87.949
							c1.216-4.371,2.982-8.18,8.312-7.261C218.417,147.217,220.012,150.383,219.515,154.478z"/>
						<path class="st3" d="M173.4,229.604c0.101,2.816-1.326,4.808-3.665,6.039c-2.407,1.268-4.913,1.035-6.974-0.799
							c-11.387-10.113-22.793-20.207-34.033-30.481c-2.869-2.623-2.942-6.2-0.09-8.862c11.13-10.391,22.397-20.643,33.749-30.795
							c2.885-2.578,6.227-2.278,8.885,0.61c3.04,3.303,2.304,6.699-0.699,9.526c-7.461,7.025-14.922,14.058-22.661,20.768
							c-3.682,3.194-3.624,5.315,0.068,8.422c7.199,6.064,14.091,12.493,21.066,18.818
							C171.076,224.693,173.349,226.451,173.4,229.604z"/>
						<path class="st3" d="M233.091,236.017c-2.805-0.071-4.721-1.598-5.793-4.022c-1.448-3.274-0.052-5.873,2.395-8.11
							c6.948-6.358,13.598-13.084,20.909-18.988c5.505-4.447,4.639-7.304-0.309-11.334c-7.077-5.768-13.661-12.143-20.456-18.253
							c-3.243-2.918-4.975-6.314-1.692-10.079c3.57-4.09,7.229-2.703,10.785,0.501c9.885,8.892,19.777,17.776,29.821,26.487
							c5.327,4.62,5.887,8.863,0.369,13.758c-10.153,9.006-20.14,18.2-30.196,27.318
							C237.258,234.805,235.548,236.206,233.091,236.017z"/>
					</g>
				</g>
			</g>
		</g>
	</g>
</g>
<g>
</g>
<g>
</g>
<g>
</g>
<g>
</g>
<g>
</g>
<g>
</g>
<g>
</g>
<g>
</g>
<g>
</g>
<g>
</g>
<g>
</g>
<g>
</g>
<g>
</g>
<g>
</g>
<g>
</g>
</svg>
