<?xml version="1.0" encoding="utf-8"?>
<!-- Generator: Adobe Illustrator 26.0.1, SVG Export Plug-In . SVG Version: 6.00 Build 0)  -->
<svg version="1.1" id="Calque_1" xmlns="http://www.w3.org/2000/svg" xmlns:xlink="http://www.w3.org/1999/xlink" x="0px" y="0px"
	 viewBox="0 0 400 400" style="enable-background:new 0 0 400 400;" xml:space="preserve">
<style type="text/css">
	.st0{fill:#E07E64;}
	.st1{fill:#FDF8F7;}
	.st2{fill:#FCF6F4;}
	.st3{fill:#DF7A5F;}
</style>
<g>
	<g>
		<g>
			<path class="st0" d="M344.645,179.034c9.126,2.12,18.099,3.527,17.966,16.762c-0.136,13.508-8.506,17.409-18.985,20.781
				c-21.412,6.905-21.64,20.042-8.944,35.277c6.754,8.112,15.063,14.409,7.39,26.643c-7.174,11.436-16.597,8.82-27.271,7.43
				c-20.317-2.641-29.565,6.205-24.28,27.302c2.257,9.026,5.586,18.326-5.461,24.642c-10.901,6.237-18.837,2.547-27.631-5.266
				c-18.176-16.158-30.032-7.969-36.438,12.148c-2.965,9.31-4.771,17.765-17.613,17.129c-11.467-0.559-16.313-6.916-19.292-16.742
				c-7.787-25.72-21.832-24.061-38.753-8.47c-6.261,5.768-12.226,10.979-21.81,5.849c-9.782-5.228-12.829-12.622-10.579-23.117
				c5.499-25.638-3.914-35.967-29.972-28.642c-8.748,2.457-16.428,2.224-21.238-7.085c-4.901-9.474-3.434-17.133,4.154-25.172
				c17.619-18.646,10.812-31.303-11.358-38.584c-7.853-2.581-15.961-3.176-16.349-14.894c-0.437-13.093,6.323-18.585,17.409-21.918
				c23.279-7.014,23.628-20.369,9.347-36.849c-6.182-7.143-13.298-13.076-7.088-24.155c6.442-11.498,15.407-10.943,26.564-9.103
				c22.407,3.697,31.398-6.149,25.353-28.514c-2.564-9.505-3.958-18.395,7.254-23.854c9.841-4.801,17.186-2.147,25.067,5.045
				c19.512,17.79,31.487,8.913,38.134-12.671c2.566-8.342,4.309-15.551,15.554-15.56c11.222-0.011,17.218,4.993,20.274,15.24
				c8.114,27.193,22.555,26.223,40.449,8.792c6.468-6.305,13.071-9.39,22.057-3.963c8.323,5.014,11.472,11.687,9.397,20.815
				c-6.267,27.58,3.98,37.662,31.331,29.944c7.616-2.147,14.362-1.735,18.834,6.038c5.177,8.998,5.746,17.088-2.31,25.268
				C318.775,156.874,321.525,170.312,344.645,179.034z"/>
			<path class="st1" d="M300.076,198.691c0.49,55.42-44.98,101.05-100.37,100.74c-54.01-0.3-98.69-44.85-99.16-98.84
				c-0.48-55.59,44.71-100.95,100.3-100.67C254.876,100.181,299.596,144.711,300.076,198.691z"/>
			<path class="st2" d="M201.566,174.821c13.89,2.81,23.26,10.52,22.99,24.77c-0.29,15.63-10.01,25.07-25.68,24.3
				c-13.94-0.68-23.04-9.88-22.84-24.11C176.256,184.041,186.426,176.281,201.566,174.821z"/>
			<g>
				<g>
					<g>
						<path class="st3" d="M219.515,154.478c-3.03,10.753-6.037,21.41-9.032,32.067c-5.466,19.455-10.952,38.902-16.366,58.373
							c-1.279,4.603-3.106,9.073-8.823,7.536c-5.452-1.467-5.505-5.764-4.08-10.748c8.373-29.276,16.537-58.614,24.701-87.949
							c1.216-4.371,2.982-8.18,8.312-7.261C218.417,147.217,220.012,150.383,219.515,154.478z"/>
						<path class="st3" d="M173.4,229.604c0.101,2.816-1.326,4.808-3.665,6.039c-2.407,1.268-4.913,1.035-6.974-0.799
							c-11.387-10.113-22.793-20.207-34.033-30.481c-2.869-2.623-2.942-6.2-0.09-8.862c11.13-10.391,22.397-20.643,33.749-30.795
							c2.885-2.578,6.227-2.278,8.885,0.61c3.04,3.303,2.304,6.699-0.699,9.526c-7.461,7.025-14.922,14.058-22.661,20.768
							c-3.682,3.194-3.624,5.315,0.068,8.422c7.199,6.064,14.091,12.493,21.066,18.818
							C171.076,224.693,173.349,226.451,173.4,229.604z"/>
						<path class="st3" d="M233.091,236.017c-2.805-0.071-4.721-1.598-5.793-4.022c-1.448-3.274-0.052-5.873,2.395-8.11
							c6.948-6.358,13.598-13.084,20.909-18.988c5.505-4.447,4.639-7.304-0.309-11.334c-7.077-5.768-13.661-12.143-20.456-18.253
							c-3.243-2.918-4.975-6.314-1.692-10.079c3.57-4.09,7.229-2.703,10.785,0.501c9.885,8.892,19.777,17.776,29.821,26.487
							c5.327,4.62,5.887,8.863,0.369,13.758c-10.153,9.006-20.14,18.2-30.196,27.318
							C237.258,234.805,235.548,236.206,233.091,236.017z"/>
					</g>
				</g>
			</g>
		</g>
	</g>
</g>
<g>
</g>
<g>
</g>
<g>
</g>
<g>
</g>
<g>
</g>
<g>
</g>
<g>
</g>
<g>
</g>
<g>
</g>
<g>
</g>
<g>
</g>
<g>
</g>
<g>
</g>
<g>
</g>
<g>
</g>
</svg>
