<?xml version="1.0" encoding="utf-8"?>
<!-- Generator: Adobe Illustrator 26.0.1, SVG Export Plug-In . SVG Version: 6.00 Build 0)  -->
<svg version="1.1" id="Calque_1" xmlns="http://www.w3.org/2000/svg" xmlns:xlink="http://www.w3.org/1999/xlink" x="0px" y="0px"
	 viewBox="0 0 400 400" style="enable-background:new 0 0 400 400;" xml:space="preserve">
<style type="text/css">
	.st0{fill:#E07E64;}
	.st1{fill:#FDF8F7;}
	.st2{fill:#FCF6F4;}
	.st3{fill:#DF7A5F;}
</style>
<g>
	<g>
		<g>
			<path class="st0" d="M87.27,291.642c-8.915,2.883-17.331,6.299-24.033-5.114c-6.841-11.648-1.675-19.303,5.57-27.591
				c14.798-16.947,8.226-28.324-10.502-34.845c-9.967-3.474-20.333-4.593-20.056-19.032c0.259-13.497,9.684-16.108,19.549-20.415
				c18.775-8.2,22.146-20.545,6.751-35.907c-6.583-6.574-14.226-12.831-8.01-23.935c6.131-10.961,14.834-11.885,26.397-9.717
				c23.901,4.489,29.847-8.637,24.977-29.179c-2.253-9.507-5.06-17.684,6.275-23.753c10.117-5.426,17.544-2.474,25.159,4.415
				c19.922,18.036,31.106,9.38,37.58-12.699c2.396-8.169,4.825-15.708,15.683-16.247c11.077-0.557,17.498,4.212,20.974,14.367
				c8.491,24.809,21.879,28.814,40.443,9.114c6.233-6.612,12.936-10.368,21.854-4.866c9.081,5.596,11.768,12.917,9.403,23.716
				c-5.499,25.057,6.855,32.4,29.608,27.223c8.061-1.832,15.317-5.498,21.685,4.346c7.118,10.998,4.152,19.187-3.634,27.754
				c-16.342,18.001-9.762,29.629,10.967,36.399c8.978,2.938,18.133,4.36,18.516,17.054c0.4,13.174-7.57,17.315-18.081,21.484
				c-21.111,8.372-23.746,21.442-7.046,37.499c7.093,6.827,12.867,13.729,6.068,24.183c-5.963,9.184-13.625,10.692-24.085,8.586
				c-25.887-5.2-31.58,8.577-26.161,30.502c2.097,8.472,4.315,15.549-5.318,21.349c-9.614,5.789-17.33,4.588-25.227-2.621
				c-20.96-19.13-32.839-10.861-39.2,13.296c-2.297,8.735-6.368,14.781-16.865,14.758c-9.716-0.011-15.853-4.109-18.775-13.003
				c-8.833-26.868-22.809-30.232-42.278-9.53c-5.422,5.763-11.417,8.884-19.254,4.525c-9.072-5.046-13.726-11.688-11.034-22.849
				C120.859,297.313,111.581,287.21,87.27,291.642z"/>
			<path class="st1" d="M300.076,198.691c0.49,55.42-44.98,101.05-100.37,100.74c-54.01-0.3-98.69-44.85-99.16-98.84
				c-0.48-55.59,44.71-100.95,100.3-100.67C254.876,100.181,299.596,144.711,300.076,198.691z"/>
			<path class="st2" d="M201.566,174.821c13.89,2.81,23.26,10.52,22.99,24.77c-0.29,15.63-10.01,25.07-25.68,24.3
				c-13.94-0.68-23.04-9.88-22.84-24.11C176.256,184.041,186.426,176.281,201.566,174.821z"/>
			<g>
				<g>
					<g>
						<path class="st3" d="M219.515,154.478c-3.03,10.753-6.037,21.41-9.032,32.067c-5.466,19.455-10.952,38.902-16.366,58.373
							c-1.279,4.603-3.106,9.073-8.823,7.536c-5.452-1.467-5.505-5.764-4.08-10.748c8.373-29.276,16.537-58.614,24.701-87.949
							c1.216-4.371,2.982-8.18,8.312-7.261C218.417,147.217,220.012,150.383,219.515,154.478z"/>
						<path class="st3" d="M173.4,229.604c0.101,2.816-1.326,4.808-3.665,6.039c-2.407,1.268-4.913,1.035-6.974-0.799
							c-11.387-10.113-22.793-20.207-34.033-30.481c-2.869-2.623-2.942-6.2-0.09-8.862c11.13-10.391,22.397-20.643,33.749-30.795
							c2.885-2.578,6.227-2.278,8.885,0.61c3.04,3.303,2.304,6.699-0.699,9.526c-7.461,7.025-14.922,14.058-22.661,20.768
							c-3.682,3.194-3.624,5.315,0.068,8.422c7.199,6.064,14.091,12.493,21.066,18.818
							C171.076,224.693,173.349,226.451,173.4,229.604z"/>
						<path class="st3" d="M233.091,236.017c-2.805-0.071-4.721-1.598-5.793-4.022c-1.448-3.274-0.052-5.873,2.395-8.11
							c6.948-6.358,13.598-13.084,20.909-18.988c5.505-4.447,4.639-7.304-0.309-11.334c-7.077-5.768-13.661-12.143-20.456-18.253
							c-3.243-2.918-4.975-6.314-1.692-10.079c3.57-4.09,7.229-2.703,10.785,0.501c9.885,8.892,19.777,17.776,29.821,26.487
							c5.327,4.62,5.887,8.863,0.369,13.758c-10.153,9.006-20.14,18.2-30.196,27.318
							C237.258,234.805,235.548,236.206,233.091,236.017z"/>
					</g>
				</g>
			</g>
		</g>
	</g>
</g>
<g>
</g>
<g>
</g>
<g>
</g>
<g>
</g>
<g>
</g>
<g>
</g>
<g>
</g>
<g>
</g>
<g>
</g>
<g>
</g>
<g>
</g>
<g>
</g>
<g>
</g>
<g>
</g>
<g>
</g>
</svg>
