<?xml version="1.0" encoding="utf-8"?>
<!-- Generator: Adobe Illustrator 26.0.1, SVG Export Plug-In . SVG Version: 6.00 Build 0)  -->
<svg version="1.1" id="Calque_1" xmlns="http://www.w3.org/2000/svg" xmlns:xlink="http://www.w3.org/1999/xlink" x="0px" y="0px"
	 viewBox="0 0 400 400" style="enable-background:new 0 0 400 400;" xml:space="preserve">
<style type="text/css">
	.st0{fill:#E07E64;}
	.st1{fill:#FDF8F7;}
	.st2{fill:#FCF6F4;}
	.st3{fill:#DF7A5F;}
</style>
<g>
	<g>
		<g>
			<path class="st0" d="M198.138,345.408c-3.522,8.682-6.315,17.325-19.366,15.123c-13.32-2.247-15.864-11.125-17.555-22.003
				c-3.47-22.229-16.41-24.508-33.443-14.352c-9.068,5.402-16.588,12.623-27.471,3.131c-10.173-8.874-6.115-17.772-3.072-28.098
				c5.787-19.654-1.503-30.172-23.167-28.252c-9.268,0.817-18.974,2.65-23.484-9.249c-4.455-11.742,0.431-19.003,9.524-26.467
				c18.802-15.424,12.569-28.416-6.298-37.89c-8.731-4.385-16.8-7.491-14.163-20.075c2.346-11.238,9.382-15.03,19.554-16.436
				c26.622-3.668,27.18-17.799,14.428-36.951c-4.717-7.086-8.932-13.793-2.366-22.457c6.694-8.844,14.474-10.697,24.488-6.832
				c24.463,9.442,36.136,1.761,32.978-25.122c-1.058-9.025,0.373-16.574,10.32-19.868c10.124-3.359,17.459-0.712,24.212,8.041
				c15.66,20.319,29.227,15.575,39.886-5.182c3.778-7.353,5.634-15.268,17.268-13.818c13.001,1.617,17.367,9.152,18.925,20.623
				c3.286,24.089,16.422,26.523,34.933,14.996c8.022-4.989,14.996-11.088,24.966-3.222c10.349,8.162,8.398,16.929,4.835,27.661
				c-7.156,21.553,1.162,31.973,24.197,29.501c9.789-1.045,18.788-1.032,22.425,10.896c3.202,10.471-0.568,17.31-8.904,23.969
				c-20.623,16.488-13.729,29.705,6.549,39.647c7.838,3.839,14.685,6.689,12.936,17.797c-1.745,11.086-7.625,16.225-18.223,17.64
				c-28.128,3.76-29.428,18.175-15.012,38.575c5.216,7.374,7.23,14.379,0.464,22.406c-6.254,7.436-13.338,9.503-22.029,6.025
				c-26.26-10.504-37.821-1.96-34.477,26.261c0.929,7.858-0.533,14.456-8.91,17.658c-9.697,3.705-17.777,3.002-24.596-6.234
				C224.073,323.324,210.37,323.938,198.138,345.408z"/>
			<path class="st1" d="M300.076,198.691c0.49,55.42-44.98,101.05-100.37,100.74c-54.01-0.3-98.69-44.85-99.16-98.84
				c-0.48-55.59,44.71-100.95,100.3-100.67C254.876,100.181,299.596,144.711,300.076,198.691z"/>
			<path class="st2" d="M201.566,174.821c13.89,2.81,23.26,10.52,22.99,24.77c-0.29,15.63-10.01,25.07-25.68,24.3
				c-13.94-0.68-23.04-9.88-22.84-24.11C176.256,184.041,186.426,176.281,201.566,174.821z"/>
			<g>
				<g>
					<g>
						<path class="st3" d="M219.515,154.478c-3.03,10.753-6.037,21.41-9.032,32.067c-5.466,19.455-10.952,38.902-16.366,58.373
							c-1.279,4.603-3.106,9.073-8.823,7.536c-5.452-1.467-5.505-5.764-4.08-10.748c8.373-29.276,16.537-58.614,24.701-87.949
							c1.216-4.371,2.982-8.18,8.312-7.261C218.417,147.217,220.012,150.383,219.515,154.478z"/>
						<path class="st3" d="M173.4,229.604c0.101,2.816-1.326,4.808-3.665,6.039c-2.407,1.268-4.913,1.035-6.974-0.799
							c-11.387-10.113-22.793-20.207-34.033-30.481c-2.869-2.623-2.942-6.2-0.09-8.862c11.13-10.391,22.397-20.643,33.749-30.795
							c2.885-2.578,6.227-2.278,8.885,0.61c3.04,3.303,2.304,6.699-0.699,9.526c-7.461,7.025-14.922,14.058-22.661,20.768
							c-3.682,3.194-3.624,5.315,0.068,8.422c7.199,6.064,14.091,12.493,21.066,18.818
							C171.076,224.693,173.349,226.451,173.4,229.604z"/>
						<path class="st3" d="M233.091,236.017c-2.805-0.071-4.721-1.598-5.793-4.022c-1.448-3.274-0.052-5.873,2.395-8.11
							c6.948-6.358,13.598-13.084,20.909-18.988c5.505-4.447,4.639-7.304-0.309-11.334c-7.077-5.768-13.661-12.143-20.456-18.253
							c-3.243-2.918-4.975-6.314-1.692-10.079c3.57-4.09,7.229-2.703,10.785,0.501c9.885,8.892,19.777,17.776,29.821,26.487
							c5.327,4.62,5.887,8.863,0.369,13.758c-10.153,9.006-20.14,18.2-30.196,27.318
							C237.258,234.805,235.548,236.206,233.091,236.017z"/>
					</g>
				</g>
			</g>
		</g>
	</g>
</g>
<g>
</g>
<g>
</g>
<g>
</g>
<g>
</g>
<g>
</g>
<g>
</g>
<g>
</g>
<g>
</g>
<g>
</g>
<g>
</g>
<g>
</g>
<g>
</g>
<g>
</g>
<g>
</g>
<g>
</g>
</svg>
