<?xml version="1.0" encoding="utf-8"?>
<!-- Generator: Adobe Illustrator 26.0.1, SVG Export Plug-In . SVG Version: 6.00 Build 0)  -->
<svg version="1.1" id="Calque_1" xmlns="http://www.w3.org/2000/svg" xmlns:xlink="http://www.w3.org/1999/xlink" x="0px" y="0px"
	 viewBox="0 0 400 400" style="enable-background:new 0 0 400 400;" xml:space="preserve">
<style type="text/css">
	.st0{fill:#E07E64;}
	.st1{fill:#FDF8F7;}
	.st2{fill:#FCF6F4;}
	.st3{fill:#DF7A5F;}
</style>
<g>
	<g>
		<g>
			<path class="st0" d="M331.501,263.256c6.38,6.861,13.033,13.045,5.522,23.943c-7.666,11.123-16.787,9.676-27.36,6.612
				c-21.613-6.249-29.147,4.515-27.141,24.244c1.064,10.502,4.43,20.369-8.772,26.22c-12.342,5.469-18.691-1.969-26.764-9.09
				c-15.367-13.551-27.98-11.389-35.396,9.057c-3.176,8.745-5.617,18.316-18.307,17.375c-12.525-0.925-17.041-8.422-19.963-19.817
				c-6.033-23.559-20.441-23.4-37.001-10.305c-7.664,6.06-13.889,12.06-24.18,4.352c-9.194-6.876-9.657-14.855-6.632-24.668
				c7.927-25.677-4.645-32.156-27.391-28.692c-8.416,1.28-16.275,2.266-21.353-7.347c-5.186-9.804-3.578-17.638,4.157-25.081
				c18.896-18.18,16.868-32.006-8.832-40.505c-8.626-2.855-14.863-7.342-13.645-17.75c1.234-10.595,6.734-16.124,17.52-18.545
				c25.033-5.606,26.468-19.906,12.16-38.339c-5.067-6.531-11.456-11.559-5.226-21.49c6.96-11.099,15.634-11.872,26.689-8.436
				c23.221,7.203,30.978-3.674,28.354-25.323c-1.131-9.379-3.712-18.277,7.631-23.989c11.771-5.93,18.892-0.456,27.113,7.308
				c16.509,15.595,29.468,12.46,36.963-9.462c3.19-9.313,7.005-17.464,19.353-15.719c10.843,1.523,15.449,7.83,17.96,18.2
				c6.228,25.659,21.12,24.996,38.7,10.82c6.792-5.481,12.268-10.482,21.596-4.202c9.31,6.267,11.482,13.768,8.286,23.971
				c-8.48,27.081,4.035,34.352,28.617,29.908c8.888-1.61,16.088-0.475,20.502,9.048c4.096,8.811,2.976,16.104-3.85,22.511
				c-20.618,19.36-17.76,33.449,9.23,42.345c7.514,2.479,12.877,6.593,12.238,15.538c-0.74,10.354-4.792,17.38-16.045,19.657
				C322.445,230.418,317.211,243.097,331.501,263.256z"/>
			<path class="st1" d="M300.076,198.691c0.49,55.42-44.98,101.05-100.37,100.74c-54.01-0.3-98.69-44.85-99.16-98.84
				c-0.48-55.59,44.71-100.95,100.3-100.67C254.876,100.181,299.596,144.711,300.076,198.691z"/>
			<path class="st2" d="M201.566,174.821c13.89,2.81,23.26,10.52,22.99,24.77c-0.29,15.63-10.01,25.07-25.68,24.3
				c-13.94-0.68-23.04-9.88-22.84-24.11C176.256,184.041,186.426,176.281,201.566,174.821z"/>
			<g>
				<g>
					<g>
						<path class="st3" d="M219.515,154.478c-3.03,10.753-6.037,21.41-9.032,32.067c-5.466,19.455-10.952,38.902-16.366,58.373
							c-1.279,4.603-3.106,9.073-8.823,7.536c-5.452-1.467-5.505-5.764-4.08-10.748c8.373-29.276,16.537-58.614,24.701-87.949
							c1.216-4.371,2.982-8.18,8.312-7.261C218.417,147.217,220.012,150.383,219.515,154.478z"/>
						<path class="st3" d="M173.4,229.604c0.101,2.816-1.326,4.808-3.665,6.039c-2.407,1.268-4.913,1.035-6.974-0.799
							c-11.387-10.113-22.793-20.207-34.033-30.481c-2.869-2.623-2.942-6.2-0.09-8.862c11.13-10.391,22.397-20.643,33.749-30.795
							c2.885-2.578,6.227-2.278,8.885,0.61c3.04,3.303,2.304,6.699-0.699,9.526c-7.461,7.025-14.922,14.058-22.661,20.768
							c-3.682,3.194-3.624,5.315,0.068,8.422c7.199,6.064,14.091,12.493,21.066,18.818
							C171.076,224.693,173.349,226.451,173.4,229.604z"/>
						<path class="st3" d="M233.091,236.017c-2.805-0.071-4.721-1.598-5.793-4.022c-1.448-3.274-0.052-5.873,2.395-8.11
							c6.948-6.358,13.598-13.084,20.909-18.988c5.505-4.447,4.639-7.304-0.309-11.334c-7.077-5.768-13.661-12.143-20.456-18.253
							c-3.243-2.918-4.975-6.314-1.692-10.079c3.57-4.09,7.229-2.703,10.785,0.501c9.885,8.892,19.777,17.776,29.821,26.487
							c5.327,4.62,5.887,8.863,0.369,13.758c-10.153,9.006-20.14,18.2-30.196,27.318
							C237.258,234.805,235.548,236.206,233.091,236.017z"/>
					</g>
				</g>
			</g>
		</g>
	</g>
</g>
<g>
</g>
<g>
</g>
<g>
</g>
<g>
</g>
<g>
</g>
<g>
</g>
<g>
</g>
<g>
</g>
<g>
</g>
<g>
</g>
<g>
</g>
<g>
</g>
<g>
</g>
<g>
</g>
<g>
</g>
</svg>
