<?xml version="1.0" encoding="utf-8"?>
<!-- Generator: Adobe Illustrator 26.0.1, SVG Export Plug-In . SVG Version: 6.00 Build 0)  -->
<svg version="1.1" id="Calque_1" xmlns="http://www.w3.org/2000/svg" xmlns:xlink="http://www.w3.org/1999/xlink" x="0px" y="0px"
	 viewBox="0 0 400 400" style="enable-background:new 0 0 400 400;" xml:space="preserve">
<style type="text/css">
	.st0{fill:#E07E64;}
	.st1{fill:#FDF8F7;}
	.st2{fill:#FCF6F4;}
	.st3{fill:#DF7A5F;}
</style>
<g>
	<g>
		<g>
			<path class="st0" d="M117.002,319.245c-7.775,5.228-14.923,10.832-24.512,1.708c-9.786-9.312-6.931-18.094-2.25-28.058
				c9.553-20.369,0.101-29.495-19.7-30.6c-10.539-0.592-20.811,1.189-24.525-12.766c-3.471-13.046,4.869-18.153,13.165-25.012
				c15.788-13.058,15.625-25.854-3.408-36.377c-8.141-4.505-17.212-8.413-14.297-20.8c2.873-12.226,10.984-15.513,22.696-16.617
				c24.213-2.273,26.31-16.529,15.966-34.934c-4.786-8.518-9.739-15.604-0.516-24.563c8.229-8.005,16.183-7.214,25.402-2.691
				c24.121,11.846,32.487,0.443,32.624-22.566c0.052-8.513,0.308-16.429,10.597-19.941c10.495-3.589,17.981-0.774,24.122,8.029
				c15,21.507,28.974,21.667,41.388-2.386c4.169-8.074,9.577-13.532,19.666-10.701c10.272,2.877,14.873,9.173,15.576,20.206
				c1.621,25.602,15.52,29.256,35.965,18.008c7.244-3.983,13.209-9.507,22.043-1.8c9.874,8.61,9.28,17.299,4.157,27.68
				c-10.747,21.808-1.217,31.172,20.575,31.966c9.44,0.35,18.633-0.807,22.5,11.29c4.016,12.553-2.504,18.731-11.459,25.636
				c-17.985,13.866-16.916,27.157,3.563,37.988c8.699,4.607,16.153,9.651,12.498,21.574c-3.201,10.472-10.15,14.033-20.785,14.892
				c-26.318,2.137-27.992,16.95-16.741,36.531c4.351,7.566,8.434,13.757,0.772,21.987c-7.646,8.215-15.395,9.187-24.972,4.434
				c-25.421-12.612-34.56-1.388-34.016,23.586c0.2,9.03-2.047,15.964-12.144,18.835c-9.343,2.668-16.372,0.42-21.632-7.324
				c-15.897-23.393-30.259-22.774-43.267,2.492c-3.624,7.034-8.526,11.687-17.261,9.656c-10.111-2.35-16.416-7.452-16.905-18.922
				C150.853,315.438,139.149,308.284,117.002,319.245z"/>
			<path class="st1" d="M300.076,198.691c0.49,55.42-44.98,101.05-100.37,100.74c-54.01-0.3-98.69-44.85-99.16-98.84
				c-0.48-55.59,44.71-100.95,100.3-100.67C254.876,100.181,299.596,144.711,300.076,198.691z"/>
			<path class="st2" d="M201.566,174.821c13.89,2.81,23.26,10.52,22.99,24.77c-0.29,15.63-10.01,25.07-25.68,24.3
				c-13.94-0.68-23.04-9.88-22.84-24.11C176.256,184.041,186.426,176.281,201.566,174.821z"/>
			<g>
				<g>
					<g>
						<path class="st3" d="M219.515,154.478c-3.03,10.753-6.037,21.41-9.032,32.067c-5.466,19.455-10.952,38.902-16.366,58.373
							c-1.279,4.603-3.106,9.073-8.823,7.536c-5.452-1.467-5.505-5.764-4.08-10.748c8.373-29.276,16.537-58.614,24.701-87.949
							c1.216-4.371,2.982-8.18,8.312-7.261C218.417,147.217,220.012,150.383,219.515,154.478z"/>
						<path class="st3" d="M173.4,229.604c0.101,2.816-1.326,4.808-3.665,6.039c-2.407,1.268-4.913,1.035-6.974-0.799
							c-11.387-10.113-22.793-20.207-34.033-30.481c-2.869-2.623-2.942-6.2-0.09-8.862c11.13-10.391,22.397-20.643,33.749-30.795
							c2.885-2.578,6.227-2.278,8.885,0.61c3.04,3.303,2.304,6.699-0.699,9.526c-7.461,7.025-14.922,14.058-22.661,20.768
							c-3.682,3.194-3.624,5.315,0.068,8.422c7.199,6.064,14.091,12.493,21.066,18.818
							C171.076,224.693,173.349,226.451,173.4,229.604z"/>
						<path class="st3" d="M233.091,236.017c-2.805-0.071-4.721-1.598-5.793-4.022c-1.448-3.274-0.052-5.873,2.395-8.11
							c6.948-6.358,13.598-13.084,20.909-18.988c5.505-4.447,4.639-7.304-0.309-11.334c-7.077-5.768-13.661-12.143-20.456-18.253
							c-3.243-2.918-4.975-6.314-1.692-10.079c3.57-4.09,7.229-2.703,10.785,0.501c9.885,8.892,19.777,17.776,29.821,26.487
							c5.327,4.62,5.887,8.863,0.369,13.758c-10.153,9.006-20.14,18.2-30.196,27.318
							C237.258,234.805,235.548,236.206,233.091,236.017z"/>
					</g>
				</g>
			</g>
		</g>
	</g>
</g>
<g>
</g>
<g>
</g>
<g>
</g>
<g>
</g>
<g>
</g>
<g>
</g>
<g>
</g>
<g>
</g>
<g>
</g>
<g>
</g>
<g>
</g>
<g>
</g>
<g>
</g>
<g>
</g>
<g>
</g>
</svg>
