<?xml version="1.0" encoding="utf-8"?>
<!-- Generator: Adobe Illustrator 26.0.1, SVG Export Plug-In . SVG Version: 6.00 Build 0)  -->
<svg version="1.1" id="Calque_1" xmlns="http://www.w3.org/2000/svg" xmlns:xlink="http://www.w3.org/1999/xlink" x="0px" y="0px"
	 viewBox="0 0 400 400" style="enable-background:new 0 0 400 400;" xml:space="preserve">
<style type="text/css">
	.st0{fill:#E07E64;}
	.st1{fill:#FDF8F7;}
	.st2{fill:#FCF6F4;}
	.st3{fill:#DF7A5F;}
</style>
<g>
	<g>
		<g>
			<path class="st0" d="M303.645,302.492c3.799,8.565,8.076,16.577-2.574,24.436c-10.869,8.021-19.022,3.683-28.022-2.656
				c-18.401-12.945-29.029-5.221-33.556,14.087c-2.413,10.276-2.443,20.701-16.831,21.936c-13.45,1.153-17.032-7.947-22.346-17.308
				c-10.118-17.815-22.748-19.878-36.416-2.961c-5.85,7.235-11.274,15.49-22.967,10.468c-11.541-4.952-13.37-13.511-12.423-25.237
				c1.966-24.239-11.709-28.78-31.63-21.79c-9.22,3.235-17.058,6.881-24.279-3.758c-6.454-9.494-4.294-17.19,1.761-25.483
				c15.855-21.698,6.077-31.916-16.558-36.046c-8.374-1.529-16.126-3.156-17.797-13.898c-1.712-10.958,2.36-17.842,12.096-22.361
				c23.785-11.038,26.369-24.771,4.837-41.174c-7.227-5.508-11.663-11.781-7.123-21.225c4.617-9.616,11.616-13.054,22.603-11.831
				c25.495,2.85,31.506-10.204,23.979-32.292c-2.665-7.825-7.069-14.659,2.055-22.02c10.194-8.229,18.648-6.135,27.981,0.713
				c19.611,14.371,30.487,6.611,35.054-14.712c1.984-9.236,2.441-18.49,15.025-20.198c13.06-1.775,18.011,5.719,23.256,15.736
				c10.533,20.12,23.806,21.375,38.03,3.087c6.048-7.767,12.309-14.232,23.416-8.562c9.757,4.97,12.058,12.433,11.056,23.056
				c-2.465,26.289,11.831,30.51,33.069,22.83c8.206-2.971,15.013-5.917,21.788,3.058c6.762,8.956,6.374,16.756,0.03,25.363
				c-16.834,22.845-7.368,33.794,17.321,37.595c8.928,1.371,15.366,4.788,16.44,15.23c1.005,9.664-2.43,16.196-10.969,20.032
				c-25.798,11.593-27.683,25.844-5.059,43.043c6.298,4.79,10.029,10.426,6.513,18.675c-4.071,9.549-10.189,14.873-21.57,13.362
				C305.774,268.495,296.697,278.778,303.645,302.492z"/>
			<path class="st1" d="M300.076,198.691c0.49,55.42-44.98,101.05-100.37,100.74c-54.01-0.3-98.69-44.85-99.16-98.84
				c-0.48-55.59,44.71-100.95,100.3-100.67C254.876,100.181,299.596,144.711,300.076,198.691z"/>
			<path class="st2" d="M201.566,174.821c13.89,2.81,23.26,10.52,22.99,24.77c-0.29,15.63-10.01,25.07-25.68,24.3
				c-13.94-0.68-23.04-9.88-22.84-24.11C176.256,184.041,186.426,176.281,201.566,174.821z"/>
			<g>
				<g>
					<g>
						<path class="st3" d="M219.515,154.478c-3.03,10.753-6.037,21.41-9.032,32.067c-5.466,19.455-10.952,38.902-16.366,58.373
							c-1.279,4.603-3.106,9.073-8.823,7.536c-5.452-1.467-5.505-5.764-4.08-10.748c8.373-29.276,16.537-58.614,24.701-87.949
							c1.216-4.371,2.982-8.18,8.312-7.261C218.417,147.217,220.012,150.383,219.515,154.478z"/>
						<path class="st3" d="M173.4,229.604c0.101,2.816-1.326,4.808-3.665,6.039c-2.407,1.268-4.913,1.035-6.974-0.799
							c-11.387-10.113-22.793-20.207-34.033-30.481c-2.869-2.623-2.942-6.2-0.09-8.862c11.13-10.391,22.397-20.643,33.749-30.795
							c2.885-2.578,6.227-2.278,8.885,0.61c3.04,3.303,2.304,6.699-0.699,9.526c-7.461,7.025-14.922,14.058-22.661,20.768
							c-3.682,3.194-3.624,5.315,0.068,8.422c7.199,6.064,14.091,12.493,21.066,18.818
							C171.076,224.693,173.349,226.451,173.4,229.604z"/>
						<path class="st3" d="M233.091,236.017c-2.805-0.071-4.721-1.598-5.793-4.022c-1.448-3.274-0.052-5.873,2.395-8.11
							c6.948-6.358,13.598-13.084,20.909-18.988c5.505-4.447,4.639-7.304-0.309-11.334c-7.077-5.768-13.661-12.143-20.456-18.253
							c-3.243-2.918-4.975-6.314-1.692-10.079c3.57-4.09,7.229-2.703,10.785,0.501c9.885,8.892,19.777,17.776,29.821,26.487
							c5.327,4.62,5.887,8.863,0.369,13.758c-10.153,9.006-20.14,18.2-30.196,27.318
							C237.258,234.805,235.548,236.206,233.091,236.017z"/>
					</g>
				</g>
			</g>
		</g>
	</g>
</g>
<g>
</g>
<g>
</g>
<g>
</g>
<g>
</g>
<g>
</g>
<g>
</g>
<g>
</g>
<g>
</g>
<g>
</g>
<g>
</g>
<g>
</g>
<g>
</g>
<g>
</g>
<g>
</g>
<g>
</g>
</svg>
