<?xml version="1.0" encoding="utf-8"?>
<!-- Generator: Adobe Illustrator 26.0.1, SVG Export Plug-In . SVG Version: 6.00 Build 0)  -->
<svg version="1.1" id="Calque_1" xmlns="http://www.w3.org/2000/svg" xmlns:xlink="http://www.w3.org/1999/xlink" x="0px" y="0px"
	 viewBox="0 0 400 400" style="enable-background:new 0 0 400 400;" xml:space="preserve">
<style type="text/css">
	.st0{fill:#E07E64;}
	.st1{fill:#FDF8F7;}
	.st2{fill:#FCF6F4;}
	.st3{fill:#DF7A5F;}
</style>
<g>
	<g>
		<g>
			<path class="st0" d="M342.854,169.022c9.252,1.479,18.301,2.256,19.092,15.468c0.807,13.484-7.271,17.96-17.489,22.055
				c-20.878,8.382-20.189,21.502-6.461,35.815c7.304,7.621,16.031,13.323,9.23,26.063c-6.359,11.909-15.941,9.956-26.687,9.314
				c-20.452-1.217-29.06,8.252-22.317,28.929c2.881,8.846,6.851,17.891-3.729,24.963c-10.439,6.982-18.613,3.855-27.931-3.326
				c-19.258-14.85-30.515-5.855-35.502,14.66c-2.309,9.494-3.52,18.054-16.375,18.316c-11.478,0.242-16.755-5.761-20.413-15.356
				c-9.562-25.114-23.457-22.48-39.249-5.746c-5.844,6.19-11.43,11.806-21.349,7.357c-10.123-4.533-13.678-11.697-12.166-22.323
				c3.697-25.96-6.413-35.606-31.897-26.481c-8.555,3.061-16.233,3.365-21.681-5.586c-5.55-9.109-4.621-16.852,2.388-25.4
				c16.275-19.83,8.602-31.981-14.022-37.698c-8.014-2.027-16.144-2.055-17.348-13.717c-1.349-13.031,5.011-18.981,15.838-23.079
				c22.733-8.62,22.149-21.968,6.753-37.411c-6.665-6.694-14.177-12.117-8.756-23.602c5.624-11.92,14.606-11.991,25.864-10.934
				c22.61,2.125,30.892-8.324,23.302-30.213c-3.22-9.303-5.232-18.074,5.573-24.302c9.482-5.476,16.994-3.341,25.358,3.284
				c20.705,16.386,32.032,6.695,37.157-15.3c1.978-8.501,3.214-15.813,14.431-16.607c11.194-0.793,17.524,3.78,21.287,13.788
				c9.991,26.561,24.329,24.585,40.964,5.949c6.012-6.741,12.384-10.279,21.727-5.492c8.652,4.421,12.26,10.858,10.826,20.109
				c-4.328,27.95,6.598,37.292,33.344,27.686c7.447-2.673,14.206-2.732,19.209,4.71c5.792,8.615,6.924,16.646-0.542,25.368
				C315.501,148.72,319.181,161.933,342.854,169.022z"/>
			<path class="st1" d="M300.076,198.691c0.49,55.42-44.98,101.05-100.37,100.74c-54.01-0.3-98.69-44.85-99.16-98.84
				c-0.48-55.59,44.71-100.95,100.3-100.67C254.876,100.181,299.596,144.711,300.076,198.691z"/>
			<path class="st2" d="M201.566,174.821c13.89,2.81,23.26,10.52,22.99,24.77c-0.29,15.63-10.01,25.07-25.68,24.3
				c-13.94-0.68-23.04-9.88-22.84-24.11C176.256,184.041,186.426,176.281,201.566,174.821z"/>
			<g>
				<g>
					<g>
						<path class="st3" d="M219.515,154.478c-3.03,10.753-6.037,21.41-9.032,32.067c-5.466,19.455-10.952,38.902-16.366,58.373
							c-1.279,4.603-3.106,9.073-8.823,7.536c-5.452-1.467-5.505-5.764-4.08-10.748c8.373-29.276,16.537-58.614,24.701-87.949
							c1.216-4.371,2.982-8.18,8.312-7.261C218.417,147.217,220.012,150.383,219.515,154.478z"/>
						<path class="st3" d="M173.4,229.604c0.101,2.816-1.326,4.808-3.665,6.039c-2.407,1.268-4.913,1.035-6.974-0.799
							c-11.387-10.113-22.793-20.207-34.033-30.481c-2.869-2.623-2.942-6.2-0.09-8.862c11.13-10.391,22.397-20.643,33.749-30.795
							c2.885-2.578,6.227-2.278,8.885,0.61c3.04,3.303,2.304,6.699-0.699,9.526c-7.461,7.025-14.922,14.058-22.661,20.768
							c-3.682,3.194-3.624,5.315,0.068,8.422c7.199,6.064,14.091,12.493,21.066,18.818
							C171.076,224.693,173.349,226.451,173.4,229.604z"/>
						<path class="st3" d="M233.091,236.017c-2.805-0.071-4.721-1.598-5.793-4.022c-1.448-3.274-0.052-5.873,2.395-8.11
							c6.948-6.358,13.598-13.084,20.909-18.988c5.505-4.447,4.639-7.304-0.309-11.334c-7.077-5.768-13.661-12.143-20.456-18.253
							c-3.243-2.918-4.975-6.314-1.692-10.079c3.57-4.09,7.229-2.703,10.785,0.501c9.885,8.892,19.777,17.776,29.821,26.487
							c5.327,4.62,5.887,8.863,0.369,13.758c-10.153,9.006-20.14,18.2-30.196,27.318
							C237.258,234.805,235.548,236.206,233.091,236.017z"/>
					</g>
				</g>
			</g>
		</g>
	</g>
</g>
<g>
</g>
<g>
</g>
<g>
</g>
<g>
</g>
<g>
</g>
<g>
</g>
<g>
</g>
<g>
</g>
<g>
</g>
<g>
</g>
<g>
</g>
<g>
</g>
<g>
</g>
<g>
</g>
<g>
</g>
</svg>
