<?xml version="1.0" encoding="utf-8"?>
<!-- Generator: Adobe Illustrator 26.0.1, SVG Export Plug-In . SVG Version: 6.00 Build 0)  -->
<svg version="1.1" id="Calque_1" xmlns="http://www.w3.org/2000/svg" xmlns:xlink="http://www.w3.org/1999/xlink" x="0px" y="0px"
	 viewBox="0 0 400 400" style="enable-background:new 0 0 400 400;" xml:space="preserve">
<style type="text/css">
	.st0{fill:#E07E64;}
	.st1{fill:#FDF8F7;}
	.st2{fill:#FCF6F4;}
	.st3{fill:#DF7A5F;}
</style>
<g>
	<g>
		<g>
			<path class="st0" d="M341.697,164.068c9.298,1.155,18.369,1.616,19.62,14.792c1.277,13.448-6.64,18.202-16.709,22.652
				c-20.573,9.105-19.426,22.194-5.208,36.019c7.565,7.361,16.487,12.756,10.134,25.725c-5.939,12.123-15.584,10.506-26.345,10.24
				c-20.482-0.503-28.754,9.261-21.294,29.69c3.188,8.741,7.471,17.641-2.856,25.078c-10.189,7.343-18.467,4.502-28.03-2.349
				c-19.765-14.169-30.7-4.786-34.968,15.89c-1.976,9.569-2.887,18.166-15.726,18.876c-11.462,0.642-16.946-5.173-20.936-14.634
				c-10.433-24.765-24.228-21.647-39.426-4.372c-5.624,6.391-11.011,12.197-21.08,8.097c-10.275-4.177-14.078-11.212-12.937-21.885
				c2.789-26.073-7.652-35.361-32.802-25.352c-8.443,3.358-16.106,3.929-21.862-4.826c-5.865-8.91-5.206-16.68,1.501-25.468
				c15.573-20.386,7.48-32.262-15.329-37.186c-8.08-1.746-16.206-1.491-17.817-13.103c-1.803-12.976,4.346-19.144,15.022-23.618
				c22.418-9.408,21.369-22.727,5.444-37.624c-6.895-6.457-14.592-11.615-9.574-23.282c5.205-12.109,14.179-12.493,25.467-11.83
				c22.671,1.334,30.583-9.397,22.233-31.008c-3.543-9.184-5.859-17.881,4.721-24.482c9.286-5.803,16.867-3.932,25.457,2.397
				c21.264,15.653,32.246,5.573,36.601-16.588c1.68-8.564,2.66-15.916,13.842-17.101c11.16-1.184,17.646,3.166,21.756,13.037
				c10.912,26.196,25.172,23.721,41.146,4.516c5.773-6.946,12.018-10.705,21.522-6.247c8.801,4.116,12.631,10.424,11.521,19.719
				c-3.349,28.084,7.895,37.039,34.29,26.505c7.35-2.931,14.102-3.227,19.362,4.036c6.089,8.408,7.501,16.394,0.344,25.371
				C313.652,144.733,317.792,157.81,341.697,164.068z"/>
			<path class="st1" d="M300.076,198.691c0.49,55.42-44.98,101.05-100.37,100.74c-54.01-0.3-98.69-44.85-99.16-98.84
				c-0.48-55.59,44.71-100.95,100.3-100.67C254.876,100.181,299.596,144.711,300.076,198.691z"/>
			<path class="st2" d="M201.566,174.821c13.89,2.81,23.26,10.52,22.99,24.77c-0.29,15.63-10.01,25.07-25.68,24.3
				c-13.94-0.68-23.04-9.88-22.84-24.11C176.256,184.041,186.426,176.281,201.566,174.821z"/>
			<g>
				<g>
					<g>
						<path class="st3" d="M219.515,154.478c-3.03,10.753-6.037,21.41-9.032,32.067c-5.466,19.455-10.952,38.902-16.366,58.373
							c-1.279,4.603-3.106,9.073-8.823,7.536c-5.452-1.467-5.505-5.764-4.08-10.748c8.373-29.276,16.537-58.614,24.701-87.949
							c1.216-4.371,2.982-8.18,8.312-7.261C218.417,147.217,220.012,150.383,219.515,154.478z"/>
						<path class="st3" d="M173.4,229.604c0.101,2.816-1.326,4.808-3.665,6.039c-2.407,1.268-4.913,1.035-6.974-0.799
							c-11.387-10.113-22.793-20.207-34.033-30.481c-2.869-2.623-2.942-6.2-0.09-8.862c11.13-10.391,22.397-20.643,33.749-30.795
							c2.885-2.578,6.227-2.278,8.885,0.61c3.04,3.303,2.304,6.699-0.699,9.526c-7.461,7.025-14.922,14.058-22.661,20.768
							c-3.682,3.194-3.624,5.315,0.068,8.422c7.199,6.064,14.091,12.493,21.066,18.818
							C171.076,224.693,173.349,226.451,173.4,229.604z"/>
						<path class="st3" d="M233.091,236.017c-2.805-0.071-4.721-1.598-5.793-4.022c-1.448-3.274-0.052-5.873,2.395-8.11
							c6.948-6.358,13.598-13.084,20.909-18.988c5.505-4.447,4.639-7.304-0.309-11.334c-7.077-5.768-13.661-12.143-20.456-18.253
							c-3.243-2.918-4.975-6.314-1.692-10.079c3.57-4.09,7.229-2.703,10.785,0.501c9.885,8.892,19.777,17.776,29.821,26.487
							c5.327,4.62,5.887,8.863,0.369,13.758c-10.153,9.006-20.14,18.2-30.196,27.318
							C237.258,234.805,235.548,236.206,233.091,236.017z"/>
					</g>
				</g>
			</g>
		</g>
	</g>
</g>
<g>
</g>
<g>
</g>
<g>
</g>
<g>
</g>
<g>
</g>
<g>
</g>
<g>
</g>
<g>
</g>
<g>
</g>
<g>
</g>
<g>
</g>
<g>
</g>
<g>
</g>
<g>
</g>
<g>
</g>
</svg>
