<?xml version="1.0" encoding="utf-8"?>
<!-- Generator: Adobe Illustrator 26.0.1, SVG Export Plug-In . SVG Version: 6.00 Build 0)  -->
<svg version="1.1" id="Calque_1" xmlns="http://www.w3.org/2000/svg" xmlns:xlink="http://www.w3.org/1999/xlink" x="0px" y="0px"
	 viewBox="0 0 400 400" style="enable-background:new 0 0 400 400;" xml:space="preserve">
<style type="text/css">
	.st0{fill:#E07E64;}
	.st1{fill:#FDF8F7;}
	.st2{fill:#FCF6F4;}
	.st3{fill:#DF7A5F;}
</style>
<g>
	<g>
		<g>
			<path class="st0" d="M55.156,212.694c-9.003-2.595-17.89-4.469-17.064-17.679c0.842-13.482,9.406-16.94,20.047-19.759
				c21.744-5.775,22.659-18.882,10.778-34.76c-6.32-8.454-14.288-15.178-5.985-26.993c7.762-11.045,17.036-7.939,27.623-5.993
				c20.151,3.701,29.849-4.649,25.676-25.994c-1.782-9.132-4.619-18.593,6.744-24.322c11.212-5.658,18.944-1.558,27.318,6.705
				c17.305,17.087,29.574,9.53,37.024-10.224c3.448-9.142,5.694-17.491,18.485-16.184c11.422,1.159,15.928,7.76,18.389,17.729
				c6.43,26.092,20.543,25.171,38.256,10.486c6.554-5.432,12.784-10.325,22.087-4.7c9.495,5.733,12.151,13.276,9.355,23.639
				c-6.834,25.316,2.026,36.122,28.432,30.171c8.865-1.996,16.522-1.362,20.838,8.187c4.399,9.718,2.533,17.289-5.466,24.92
				c-18.571,17.698-12.435,30.694,9.323,39.126c7.708,2.988,15.773,4.007,15.547,15.729c-0.249,13.098-7.287,18.228-18.532,20.977
				c-23.614,5.786-24.661,19.105-11.262,36.309c5.8,7.457,12.595,13.754,5.814,24.493c-7.035,11.145-15.958,10.121-27.004,7.7
				c-22.183-4.864-31.677,4.497-26.81,27.148c2.063,9.626,2.99,18.577-8.493,23.442c-10.079,4.279-17.275,1.245-24.769-6.35
				c-18.554-18.787-30.977-10.548-38.745,10.658c-2.999,8.196-5.117,15.304-16.347,14.725c-11.207-0.577-16.933-5.888-19.448-16.28
				c-6.68-27.581-21.152-27.367-39.933-10.897c-6.789,5.958-13.545,8.693-22.234,2.804c-8.049-5.442-10.845-12.272-8.294-21.279
				c7.701-27.214-2.004-37.818-29.721-31.543c-7.718,1.745-14.433,0.981-18.492-7.015c-4.699-9.257-4.844-17.365,3.629-25.113
				C79.831,236.178,77.788,222.615,55.156,212.694z"/>
			<path class="st1" d="M300.076,198.691c0.49,55.42-44.98,101.05-100.37,100.74c-54.01-0.3-98.69-44.85-99.16-98.84
				c-0.48-55.59,44.71-100.95,100.3-100.67C254.876,100.181,299.596,144.711,300.076,198.691z"/>
			<path class="st2" d="M201.566,174.821c13.89,2.81,23.26,10.52,22.99,24.77c-0.29,15.63-10.01,25.07-25.68,24.3
				c-13.94-0.68-23.04-9.88-22.84-24.11C176.256,184.041,186.426,176.281,201.566,174.821z"/>
			<g>
				<g>
					<g>
						<path class="st3" d="M219.515,154.478c-3.03,10.753-6.037,21.41-9.032,32.067c-5.466,19.455-10.952,38.902-16.366,58.373
							c-1.279,4.603-3.106,9.073-8.823,7.536c-5.452-1.467-5.505-5.764-4.08-10.748c8.373-29.276,16.537-58.614,24.701-87.949
							c1.216-4.371,2.982-8.18,8.312-7.261C218.417,147.217,220.012,150.383,219.515,154.478z"/>
						<path class="st3" d="M173.4,229.604c0.101,2.816-1.326,4.808-3.665,6.039c-2.407,1.268-4.913,1.035-6.974-0.799
							c-11.387-10.113-22.793-20.207-34.033-30.481c-2.869-2.623-2.942-6.2-0.09-8.862c11.13-10.391,22.397-20.643,33.749-30.795
							c2.885-2.578,6.227-2.278,8.885,0.61c3.04,3.303,2.304,6.699-0.699,9.526c-7.461,7.025-14.922,14.058-22.661,20.768
							c-3.682,3.194-3.624,5.315,0.068,8.422c7.199,6.064,14.091,12.493,21.066,18.818
							C171.076,224.693,173.349,226.451,173.4,229.604z"/>
						<path class="st3" d="M233.091,236.017c-2.805-0.071-4.721-1.598-5.793-4.022c-1.448-3.274-0.052-5.873,2.395-8.11
							c6.948-6.358,13.598-13.084,20.909-18.988c5.505-4.447,4.639-7.304-0.309-11.334c-7.077-5.768-13.661-12.143-20.456-18.253
							c-3.243-2.918-4.975-6.314-1.692-10.079c3.57-4.09,7.229-2.703,10.785,0.501c9.885,8.892,19.777,17.776,29.821,26.487
							c5.327,4.62,5.887,8.863,0.369,13.758c-10.153,9.006-20.14,18.2-30.196,27.318
							C237.258,234.805,235.548,236.206,233.091,236.017z"/>
					</g>
				</g>
			</g>
		</g>
	</g>
</g>
<g>
</g>
<g>
</g>
<g>
</g>
<g>
</g>
<g>
</g>
<g>
</g>
<g>
</g>
<g>
</g>
<g>
</g>
<g>
</g>
<g>
</g>
<g>
</g>
<g>
</g>
<g>
</g>
<g>
</g>
</svg>
