<?xml version="1.0" encoding="utf-8"?>
<!-- Generator: Adobe Illustrator 26.0.1, SVG Export Plug-In . SVG Version: 6.00 Build 0)  -->
<svg version="1.1" id="Calque_1" xmlns="http://www.w3.org/2000/svg" xmlns:xlink="http://www.w3.org/1999/xlink" x="0px" y="0px"
	 viewBox="0 0 400 400" style="enable-background:new 0 0 400 400;" xml:space="preserve">
<style type="text/css">
	.st0{fill:#E07E64;}
	.st1{fill:#FDF8F7;}
	.st2{fill:#FCF6F4;}
	.st3{fill:#DF7A5F;}
</style>
<g>
	<g>
		<g>
			<path class="st0" d="M150.18,62.795c0.177-9.368-0.313-18.437,12.66-21.059c13.241-2.676,18.797,4.701,24.274,14.25
				c11.206,19.509,24.103,17,36.366,1.414c6.53-8.293,10.963-17.73,24.524-12.768c12.678,4.639,12.077,14.4,12.938,25.131
				c1.641,20.422,12.216,27.629,31.753,18.073c8.359-4.084,16.764-9.274,25.239,0.219c8.367,9.366,6.408,17.895,0.594,28.122
				c-12.026,21.138-1.551,31.033,19.458,33.116c9.723,0.965,18.368,0.973,20.416,13.666c1.837,11.332-3.373,17.394-12.365,22.351
				c-23.539,12.964-18.996,26.358-0.227,39.667c6.943,4.925,13.281,9.676,10.256,20.118c-3.08,10.655-9.679,15.173-20.413,15.154
				c-26.222-0.049-34.367,11.306-21.784,35.272c4.222,8.046,5.591,15.607-2.514,22.247c-8.248,6.764-16.045,6.921-25.486,1.17
				c-21.902-13.357-32.867-4.067-35.38,19.132c-0.892,8.218,0.212,16.273-11.169,19.089c-12.717,3.15-19.493-2.321-25.059-12.471
				c-11.7-21.312-24.836-18.876-37.987-1.481c-5.701,7.532-10.026,15.726-22.153,11.955c-12.587-3.911-13.907-12.795-14.427-24.091
				c-1.043-22.686-12.543-29.433-33.162-18.87c-8.764,4.484-17.17,7.696-24.841-2.136c-6.742-8.628-5.674-16.364-0.277-25.568
				c13.344-22.784,2.171-32.652-20.323-34.666c-8.693-0.776-16.107-0.982-18.454-11.979c-2.344-10.975,1.305-17.88,10.691-22.999
				c24.912-13.59,20.96-27.514,0.19-41.393c-7.512-5.015-11.903-10.833-8.463-20.751c3.174-9.183,9.047-13.652,18.407-13.519
				c28.28,0.396,36.011-11.724,22.776-36.872c-3.683-7.003-4.683-13.687,1.99-19.678c7.725-6.934,15.52-9.173,25.196-2.994
				C133.883,92.707,146.455,87.223,150.18,62.795z"/>
			<path class="st1" d="M300.076,198.691c0.49,55.42-44.98,101.05-100.37,100.74c-54.01-0.3-98.69-44.85-99.16-98.84
				c-0.48-55.59,44.71-100.95,100.3-100.67C254.876,100.181,299.596,144.711,300.076,198.691z"/>
			<path class="st2" d="M201.566,174.821c13.89,2.81,23.26,10.52,22.99,24.77c-0.29,15.63-10.01,25.07-25.68,24.3
				c-13.94-0.68-23.04-9.88-22.84-24.11C176.256,184.041,186.426,176.281,201.566,174.821z"/>
			<g>
				<g>
					<g>
						<path class="st3" d="M219.515,154.478c-3.03,10.753-6.037,21.41-9.032,32.067c-5.466,19.455-10.952,38.902-16.366,58.373
							c-1.279,4.603-3.106,9.073-8.823,7.536c-5.452-1.467-5.505-5.764-4.08-10.748c8.373-29.276,16.537-58.614,24.701-87.949
							c1.216-4.371,2.982-8.18,8.312-7.261C218.417,147.217,220.012,150.383,219.515,154.478z"/>
						<path class="st3" d="M173.4,229.604c0.101,2.816-1.326,4.808-3.665,6.039c-2.407,1.268-4.913,1.035-6.974-0.799
							c-11.387-10.113-22.793-20.207-34.033-30.481c-2.869-2.623-2.942-6.2-0.09-8.862c11.13-10.391,22.397-20.643,33.749-30.795
							c2.885-2.578,6.227-2.278,8.885,0.61c3.04,3.303,2.304,6.699-0.699,9.526c-7.461,7.025-14.922,14.058-22.661,20.768
							c-3.682,3.194-3.624,5.315,0.068,8.422c7.199,6.064,14.091,12.493,21.066,18.818
							C171.076,224.693,173.349,226.451,173.4,229.604z"/>
						<path class="st3" d="M233.091,236.017c-2.805-0.071-4.721-1.598-5.793-4.022c-1.448-3.274-0.052-5.873,2.395-8.11
							c6.948-6.358,13.598-13.084,20.909-18.988c5.505-4.447,4.639-7.304-0.309-11.334c-7.077-5.768-13.661-12.143-20.456-18.253
							c-3.243-2.918-4.975-6.314-1.692-10.079c3.57-4.09,7.229-2.703,10.785,0.501c9.885,8.892,19.777,17.776,29.821,26.487
							c5.327,4.62,5.887,8.863,0.369,13.758c-10.153,9.006-20.14,18.2-30.196,27.318
							C237.258,234.805,235.548,236.206,233.091,236.017z"/>
					</g>
				</g>
			</g>
		</g>
	</g>
</g>
<g>
</g>
<g>
</g>
<g>
</g>
<g>
</g>
<g>
</g>
<g>
</g>
<g>
</g>
<g>
</g>
<g>
</g>
<g>
</g>
<g>
</g>
<g>
</g>
<g>
</g>
<g>
</g>
<g>
</g>
</svg>
