<?xml version="1.0" encoding="utf-8"?>
<!-- Generator: Adobe Illustrator 26.0.1, SVG Export Plug-In . SVG Version: 6.00 Build 0)  -->
<svg version="1.1" id="Calque_1" xmlns="http://www.w3.org/2000/svg" xmlns:xlink="http://www.w3.org/1999/xlink" x="0px" y="0px"
	 viewBox="0 0 400 400" style="enable-background:new 0 0 400 400;" xml:space="preserve">
<style type="text/css">
	.st0{fill:#E07E64;}
	.st1{fill:#FDF8F7;}
	.st2{fill:#FCF6F4;}
	.st3{fill:#DF7A5F;}
</style>
<g>
	<g>
		<g>
			<path class="st0" d="M69.477,263.846c-9.335,0.804-18.303,2.239-22.267-10.39c-4.045-12.889,2.711-19.185,11.634-25.631
				c18.23-13.184,14.387-25.748-2.395-36.314c-8.93-5.627-18.778-9.049-15.261-23.056c3.289-13.093,13.059-13.517,23.641-15.494
				c20.139-3.767,26.201-15.037,14.655-33.469c-4.936-7.887-10.975-15.703-2.421-25.123c8.44-9.3,17.128-8.243,27.906-3.53
				c22.279,9.75,31.025-1.701,30.901-22.813c-0.057-9.77-0.952-18.369,11.457-21.733c11.078-3.012,17.651,1.536,23.521,9.961
				c15.354,22.055,28.199,16.137,39.473-3.92c4.172-7.42,8.235-14.22,18.935-12.303c10.919,1.949,16.102,8.04,17.205,18.717
				c2.693,26.083,14.836,32.997,37.356,17.978c7.561-5.04,14.937-7.192,22.388,0.175c7.589,7.496,8.561,15.233,3.827,25.224
				c-10.995,23.178-0.609,33.112,22.725,33.186c8.267,0.028,16.162-1.911,20.151,9.113c4.462,12.318-0.27,19.629-9.784,26.225
				c-19.972,13.864-16.177,26.673,2.498,37.934c8.087,4.883,16.688,8.327,14.206,20.782c-2.574,12.926-11.271,15.168-22.451,16.866
				c-22.453,3.408-27.961,15.551-15.3,34.953c5.375,8.247,9.449,16.272,0.472,24.928c-7.876,7.607-15.681,7.353-25.399,2.948
				c-24.054-10.89-32.7,1.254-32.352,23.835c0.137,8.727,0.707,16.121-9.984,19.605c-10.67,3.478-17.918,0.572-23.991-8.229
				c-16.12-23.355-29.554-17.969-41.186,4.137c-4.203,7.995-9.53,12.97-19.753,10.586c-9.465-2.196-14.522-7.57-15.369-16.893
				c-2.563-28.166-15.424-34.588-39.051-18.797c-6.58,4.395-13.123,6.088-19.778,0.078c-7.704-6.958-10.745-14.476-5.611-24.745
				C100.929,276.928,94.161,264.997,69.477,263.846z"/>
			<path class="st1" d="M300.076,198.691c0.49,55.42-44.98,101.05-100.37,100.74c-54.01-0.3-98.69-44.85-99.16-98.84
				c-0.48-55.59,44.71-100.95,100.3-100.67C254.876,100.181,299.596,144.711,300.076,198.691z"/>
			<path class="st2" d="M201.566,174.821c13.89,2.81,23.26,10.52,22.99,24.77c-0.29,15.63-10.01,25.07-25.68,24.3
				c-13.94-0.68-23.04-9.88-22.84-24.11C176.256,184.041,186.426,176.281,201.566,174.821z"/>
			<g>
				<g>
					<g>
						<path class="st3" d="M219.515,154.478c-3.03,10.753-6.037,21.41-9.032,32.067c-5.466,19.455-10.952,38.902-16.366,58.373
							c-1.279,4.603-3.106,9.073-8.823,7.536c-5.452-1.467-5.505-5.764-4.08-10.748c8.373-29.276,16.537-58.614,24.701-87.949
							c1.216-4.371,2.982-8.18,8.312-7.261C218.417,147.217,220.012,150.383,219.515,154.478z"/>
						<path class="st3" d="M173.4,229.604c0.101,2.816-1.326,4.808-3.665,6.039c-2.407,1.268-4.913,1.035-6.974-0.799
							c-11.387-10.113-22.793-20.207-34.033-30.481c-2.869-2.623-2.942-6.2-0.09-8.862c11.13-10.391,22.397-20.643,33.749-30.795
							c2.885-2.578,6.227-2.278,8.885,0.61c3.04,3.303,2.304,6.699-0.699,9.526c-7.461,7.025-14.922,14.058-22.661,20.768
							c-3.682,3.194-3.624,5.315,0.068,8.422c7.199,6.064,14.091,12.493,21.066,18.818
							C171.076,224.693,173.349,226.451,173.4,229.604z"/>
						<path class="st3" d="M233.091,236.017c-2.805-0.071-4.721-1.598-5.793-4.022c-1.448-3.274-0.052-5.873,2.395-8.11
							c6.948-6.358,13.598-13.084,20.909-18.988c5.505-4.447,4.639-7.304-0.309-11.334c-7.077-5.768-13.661-12.143-20.456-18.253
							c-3.243-2.918-4.975-6.314-1.692-10.079c3.57-4.09,7.229-2.703,10.785,0.501c9.885,8.892,19.777,17.776,29.821,26.487
							c5.327,4.62,5.887,8.863,0.369,13.758c-10.153,9.006-20.14,18.2-30.196,27.318
							C237.258,234.805,235.548,236.206,233.091,236.017z"/>
					</g>
				</g>
			</g>
		</g>
	</g>
</g>
<g>
</g>
<g>
</g>
<g>
</g>
<g>
</g>
<g>
</g>
<g>
</g>
<g>
</g>
<g>
</g>
<g>
</g>
<g>
</g>
<g>
</g>
<g>
</g>
<g>
</g>
<g>
</g>
<g>
</g>
</svg>
