<?xml version="1.0" encoding="utf-8"?>
<!-- Generator: Adobe Illustrator 26.0.1, SVG Export Plug-In . SVG Version: 6.00 Build 0)  -->
<svg version="1.1" id="Calque_1" xmlns="http://www.w3.org/2000/svg" xmlns:xlink="http://www.w3.org/1999/xlink" x="0px" y="0px"
	 viewBox="0 0 400 400" style="enable-background:new 0 0 400 400;" xml:space="preserve">
<style type="text/css">
	.st0{fill:#E07E64;}
	.st1{fill:#FDF8F7;}
	.st2{fill:#FCF6F4;}
	.st3{fill:#DF7A5F;}
</style>
<g>
	<g>
		<g>
			<path class="st0" d="M57.688,169.68c-7.851-5.114-15.802-9.505-11.15-21.896c4.747-12.647,13.948-13.449,24.948-13.035
				c22.483,0.835,27.189-11.432,20.47-30.09c-3.573-9.932-9.226-18.692,2.168-27.564c10.652-8.293,18.612-2.611,28.168,2.345
				c18.188,9.431,29.904,4.281,32.154-17.351c0.966-9.254,1.019-19.131,13.56-21.288c12.377-2.133,18.572,4.049,24.164,14.399
				c11.553,21.399,25.495,17.76,38.395,1.047c5.97-7.734,10.559-15.062,22.409-10.072c10.584,4.447,12.964,12.078,12.402,22.331
				c-1.479,26.832,12.286,30.077,33.519,21.213c7.856-3.278,15.244-6.136,22.496,1.963c7.404,8.258,7.738,16.249,2.034,25.341
				c-13.936,22.211-8.624,35.136,18.368,37.166c9.061,0.683,16.198,3.529,17.534,13.921c1.365,10.579-2.633,17.274-12.513,22.233
				c-22.934,11.496-20.866,25.718-2.523,40.142c6.497,5.111,13.912,8.444,10.269,19.587c-4.068,12.453-12.298,15.301-23.855,14.642
				c-24.274-1.371-29.169,11.06-21.386,31.43c3.366,8.826,8.023,16.836-1.601,25.123c-9.986,8.602-18.22,5.013-28.075-0.531
				c-19.792-11.137-31.607-4.96-33.576,18.123c-0.842,9.808-2.572,18.64-14.975,19.934c-10.89,1.145-16.884-3.86-21.83-13.314
				c-12.25-23.39-26.54-19.144-40.168-1.136c-5.264,6.961-9.368,13.139-19.938,9.302c-10.549-3.828-14.472-10.581-13.839-21.255
				c1.676-28.328-12.226-32.355-35.002-22.096c-8.234,3.713-15.495,4.353-22.082-3.819c-6.106-7.558-6.783-14.906-1.711-22.774
				c15.322-23.773,9.141-36.752-19.2-38.854c-7.891-0.587-14.089-3.282-15.633-12.116c-1.787-10.226,0.445-18.023,10.813-22.954
				C74.418,199.353,76.43,185.784,57.688,169.68z"/>
			<path class="st1" d="M300.076,198.691c0.49,55.42-44.98,101.05-100.37,100.74c-54.01-0.3-98.69-44.85-99.16-98.84
				c-0.48-55.59,44.71-100.95,100.3-100.67C254.876,100.181,299.596,144.711,300.076,198.691z"/>
			<path class="st2" d="M201.566,174.821c13.89,2.81,23.26,10.52,22.99,24.77c-0.29,15.63-10.01,25.07-25.68,24.3
				c-13.94-0.68-23.04-9.88-22.84-24.11C176.256,184.041,186.426,176.281,201.566,174.821z"/>
			<g>
				<g>
					<g>
						<path class="st3" d="M219.515,154.478c-3.03,10.753-6.037,21.41-9.032,32.067c-5.466,19.455-10.952,38.902-16.366,58.373
							c-1.279,4.603-3.106,9.073-8.823,7.536c-5.452-1.467-5.505-5.764-4.08-10.748c8.373-29.276,16.537-58.614,24.701-87.949
							c1.216-4.371,2.982-8.18,8.312-7.261C218.417,147.217,220.012,150.383,219.515,154.478z"/>
						<path class="st3" d="M173.4,229.604c0.101,2.816-1.326,4.808-3.665,6.039c-2.407,1.268-4.913,1.035-6.974-0.799
							c-11.387-10.113-22.793-20.207-34.033-30.481c-2.869-2.623-2.942-6.2-0.09-8.862c11.13-10.391,22.397-20.643,33.749-30.795
							c2.885-2.578,6.227-2.278,8.885,0.61c3.04,3.303,2.304,6.699-0.699,9.526c-7.461,7.025-14.922,14.058-22.661,20.768
							c-3.682,3.194-3.624,5.315,0.068,8.422c7.199,6.064,14.091,12.493,21.066,18.818
							C171.076,224.693,173.349,226.451,173.4,229.604z"/>
						<path class="st3" d="M233.091,236.017c-2.805-0.071-4.721-1.598-5.793-4.022c-1.448-3.274-0.052-5.873,2.395-8.11
							c6.948-6.358,13.598-13.084,20.909-18.988c5.505-4.447,4.639-7.304-0.309-11.334c-7.077-5.768-13.661-12.143-20.456-18.253
							c-3.243-2.918-4.975-6.314-1.692-10.079c3.57-4.09,7.229-2.703,10.785,0.501c9.885,8.892,19.777,17.776,29.821,26.487
							c5.327,4.62,5.887,8.863,0.369,13.758c-10.153,9.006-20.14,18.2-30.196,27.318
							C237.258,234.805,235.548,236.206,233.091,236.017z"/>
					</g>
				</g>
			</g>
		</g>
	</g>
</g>
<g>
</g>
<g>
</g>
<g>
</g>
<g>
</g>
<g>
</g>
<g>
</g>
<g>
</g>
<g>
</g>
<g>
</g>
<g>
</g>
<g>
</g>
<g>
</g>
<g>
</g>
<g>
</g>
<g>
</g>
</svg>
