<?xml version="1.0" encoding="utf-8"?>
<!-- Generator: Adobe Illustrator 26.0.1, SVG Export Plug-In . SVG Version: 6.00 Build 0)  -->
<svg version="1.1" id="Calque_1" xmlns="http://www.w3.org/2000/svg" xmlns:xlink="http://www.w3.org/1999/xlink" x="0px" y="0px"
	 viewBox="0 0 56.483 47.636" style="enable-background:new 0 0 56.483 47.636;" xml:space="preserve">
<style type="text/css">
	.st0{display:none;}
	.st1{display:inline;}
	.st2{fill:#FEFEFE;}
	.st3{fill:#DF7A5F;}
	.st4{fill:#FEFDFD;}
	.st5{fill:#DF7B61;}
	.st6{display:none;fill:#DF7A5F;}
</style>
<g class="st0">
	<g class="st1">
		<path class="st2" d="M-20.415,83.636c0-33.333,0-66.667,0-100c33.333,0,66.667,0,100,0c0,33.333,0,66.667,0,100
			C46.252,83.636,12.918,83.636-20.415,83.636z M-2.367,77.461c4.241,0,8.027,0,11.636,0c1.779-3.334,2.089-6.999,4.275-9.976
			c2.625-3.574,5.739-5.677,10.368-5.937c5.398-0.304,11.079-3.178,12.639-9.631c0.308-1.272,0.87-2.246,2.12-2.235
			c2.648,0.022,4.441-1.862,6.113-3.216c1.438-1.164,1.912-1.662,3.857-0.977c2.262,0.797,4.822,0.029,6.54-1.993
			c1.155-1.359,2.411-1.909,4.24-1.93c2.377-0.027,4.713-0.671,6.365-2.646c0.791-0.946,1.739-1.177,2.96-1.353
			c3.048-0.44,6.243-1.687,7.515-4.375c1.187-2.509,2.479-5.589,0.742-8.699c-0.704-1.259-0.387-2.585,0.122-4.083
			c0.578-1.697,0.475-3.862-0.021-5.629c-0.602-2.141-1.727-4.599-4.127-5.022c-2.211-0.389-2.393-2.065-3.005-3.334
			c-1.494-3.095-3.744-5.012-7.059-5.8c-2.075-0.494-4.041-1.496-5.064-3.327c-1.397-2.502-3.834-3.518-6.07-4.571
			c-3.583-1.686-6.468-1.372-11.653-0.199c-1.333,0.302-2.636-0.042-4.11-0.765c-5.453-2.677-11.21-3.44-16.734-0.075
			c-1.717,1.046-2.98,0.963-4.878,0.415C10.235-9.1,6.159-8.571,2.907-5.192c-0.923,0.96-1.88,1.888-2.824,2.828
			c-1.166,0-2.364-0.177-3.491,0.031C-8.088-1.468-13.643,4.563-14.374,9.605c-0.146,1.01-0.21,1.833-1.054,2.586
			c-3.631,3.236-3.989,7.114-1.668,11.183c0.933,1.634,0.977,2.873,0.049,4.468c-0.683,1.175-1.114,2.575-1.332,3.927
			c-0.585,3.624,1.395,6.138,3.964,8.315c0,0.688-0.004,1.35,0.001,2.013c0.033,4.686,1.964,8.413,6.307,10.213
			c2.786,1.155,5.283,2.569,7.753,4.249c1.407,0.957,1.606,1.384,1.088,3.09c-0.529,1.742-0.611,3.693-1.043,5.56
			c-0.421,1.819-0.309,3.71-1.007,5.593C-2.061,72.811-2.032,75.106-2.367,77.461z"/>
		<path class="st3" d="M-2.367,77.461c0.335-2.355,0.306-4.65,1.05-6.658c0.698-1.883,0.586-3.774,1.007-5.593
			c0.432-1.867,0.513-3.818,1.043-5.56c0.519-1.707,0.319-2.133-1.088-3.09c-2.469-1.68-4.967-3.094-7.753-4.249
			c-4.343-1.8-6.274-5.527-6.307-10.213c-0.005-0.663-0.001-1.325-0.001-2.013c-2.569-2.177-4.549-4.691-3.964-8.315
			c0.218-1.352,0.649-2.752,1.332-3.927c0.928-1.595,0.884-2.834-0.049-4.468c-2.322-4.069-1.963-7.947,1.668-11.183
			c0.844-0.753,0.908-1.576,1.054-2.586C-13.643,4.563-8.088-1.468-3.408-2.333c1.127-0.208,2.326-0.031,3.493-0.03
			c0.943-0.941,1.899-1.869,2.822-2.829C6.159-8.571,10.235-9.1,14.405-7.896c1.898,0.548,3.161,0.631,4.878-0.415
			c5.523-3.366,11.281-2.602,16.734,0.075c1.474,0.724,2.777,1.067,4.11,0.765c5.185-1.173,8.07-1.487,11.653,0.199
			c2.236,1.052,4.673,2.069,6.07,4.571c1.023,1.831,2.989,2.833,5.064,3.327c3.315,0.788,5.566,2.705,7.059,5.8
			c0.612,1.269,0.794,2.945,3.005,3.334c2.4,0.423,3.525,2.881,4.127,5.022c0.497,1.767,0.599,3.932,0.021,5.629
			c-0.51,1.498-0.826,2.824-0.122,4.083c1.737,3.109,0.445,6.19-0.742,8.699c-1.272,2.689-4.467,3.935-7.515,4.375
			c-1.221,0.176-2.169,0.407-2.96,1.353c-1.652,1.975-3.987,2.618-6.365,2.646c-1.829,0.021-3.085,0.57-4.24,1.93
			c-1.718,2.022-4.278,2.79-6.54,1.993c-1.945-0.686-2.419-0.188-3.857,0.977c-1.672,1.354-3.466,3.239-6.113,3.216
			c-1.25-0.011-1.812,0.964-2.12,2.235c-1.561,6.453-7.241,9.327-12.639,9.631c-4.629,0.26-7.743,2.363-10.368,5.937
			c-2.187,2.977-2.497,6.642-4.275,9.976C5.66,77.461,1.874,77.461-2.367,77.461z M35.599,3.732
			c-0.091,2.616-0.673,4.597-1.425,4.794c-2.11,0.552-3.856-0.016-5.023-1.956c-0.9,0.9-1.722,1.722-2.737,2.737
			c2.321,0.954,2.704,2.929,2.019,4.889c-0.75,2.145-3.109,1.171-4.758,1.55c0,1.342,0,2.457,0,3.785
			c1.683,0.35,4.034-0.578,4.774,1.564c0.672,1.946,0.05,3.84-1.897,4.956c0.908,0.931,1.718,1.76,2.88,2.95
			c1.001-1.033,1.986-2.05,2.983-3.08c0.882,0.597,2.266,1.089,2.861,2.062c0.593,0.972,0.396,2.426,0.523,3.488
			c1.394,0,2.506,0,3.916,0c-0.86-3.268,0.707-4.907,3.507-5.699c0.939,0.939,1.879,1.879,2.891,2.891
			c0.765-0.849,1.529-1.698,2.395-2.659c-1.783-1.064-2.479-2.941-1.822-4.869c0.727-2.133,3.056-1.298,4.661-1.569
			c0-1.457,0-2.682,0-3.892c-1.814-0.139-3.796,0.487-4.587-1.437c-0.847-2.057-0.045-3.832,1.909-5.042
			c-0.905-0.871-1.737-1.671-2.776-2.672c-0.899,2.303-2.928,2.611-4.836,1.979c-2.144-0.71-1.237-3.075-1.572-4.771
			C38.162,3.732,37.047,3.732,35.599,3.732z M15.411,47.636c0.057-0.745,0.07-1.521,0.182-2.282c0.326-2.228,0.98-2.632,3.132-2.766
			c1.418-0.089,2.045,0.793,2.873,1.548c0.178,0.162,0.45,0.222,0.126,0.07c1.102-0.778,1.998-1.411,3.113-2.199
			c-2.437-1.083-2.687-3.013-2.168-4.747c0.573-1.914,2.515-1.708,4.178-1.65c0.239,0.008,0.491-0.341,0.546-0.382
			c0-1.254,0-2.364,0-3.424c-1.675-0.462-3.689,0.531-4.566-1.461c-0.945-2.148,0.036-3.9,1.276-4.817
			c-0.845-1.057-1.518-1.899-2.229-2.788c-0.959,1.005-1.868,1.959-2.751,2.883c-1.09-0.728-2.462-1.212-3.082-2.179
			c-0.621-0.967-0.49-2.416-0.719-3.835c-1.317,0.076-2.538,0.147-4.019,0.232c1.34,3.573-1.046,4.604-3.778,5.851
			c-0.706-0.795-1.649-1.856-2.353-2.65c-0.882,0.676-1.767,1.355-2.827,2.168c2.235,1.114,2.659,2.891,2.19,4.736
			c-0.668,2.626-3.385,1.191-4.791,1.869c0,1.417,0,2.532,0,3.71c1.795,0.336,4.064-0.552,4.788,1.737
			c0.623,1.97-0.286,3.681-1.585,4.581c0.777,1.063,1.43,1.957,2.092,2.861c1.221-1.255,2.08-2.238,3.912-2.142
			c3.767,0.197,2.045,3.439,2.901,5.075C13.092,47.636,14.089,47.636,15.411,47.636z"/>
		<path class="st4" d="M35.599,3.732c1.448,0,2.563,0,3.885,0c0.335,1.696-0.573,4.061,1.572,4.771
			c1.909,0.632,3.937,0.324,4.836-1.979c1.039,1,1.871,1.801,2.776,2.672c-1.955,1.209-2.756,2.984-1.909,5.042
			c0.792,1.923,2.773,1.298,4.587,1.437c0,1.21,0,2.435,0,3.892c-1.605,0.272-3.934-0.564-4.661,1.569
			c-0.657,1.928,0.039,3.805,1.822,4.869c-0.866,0.961-1.631,1.811-2.395,2.659c-1.012-1.012-1.951-1.951-2.891-2.891
			c-2.799,0.792-4.367,2.432-3.507,5.699c-1.41,0-2.521,0-3.916,0c-0.127-1.062,0.07-2.516-0.523-3.488
			c-0.594-0.973-1.978-1.464-2.861-2.062c-0.997,1.03-1.982,2.047-2.983,3.08c-1.161-1.19-1.971-2.02-2.88-2.95
			c1.948-1.115,2.569-3.009,1.897-4.956c-0.739-2.142-3.091-1.214-4.774-1.564c0-1.329,0-2.444,0-3.785
			c1.649-0.379,4.008,0.595,4.758-1.55c0.685-1.961,0.301-3.935-2.019-4.889c1.015-1.015,1.837-1.837,2.737-2.737
			c1.167,1.939,2.913,2.508,5.023,1.956C34.926,8.329,35.508,6.347,35.599,3.732z M43.585,17.419
			c-0.464-3.342-2.692-5.906-6.214-5.721c-3.357,0.177-5.91,2.63-5.724,6.152c0.177,3.357,2.63,5.91,6.152,5.724
			C41.156,23.397,43.494,20.955,43.585,17.419z"/>
		<path class="st4" d="M15.411,47.636c-1.323,0-2.319,0-3.556,0c-0.856-1.636,0.866-4.878-2.901-5.075
			c-1.833-0.096-2.692,0.888-3.912,2.142c-0.661-0.905-1.314-1.798-2.092-2.861c1.3-0.901,2.209-2.612,1.585-4.581
			c-0.724-2.289-2.994-1.4-4.788-1.737c0-1.178,0-2.293,0-3.71c1.406-0.678,4.123,0.756,4.791-1.869
			c0.469-1.845,0.045-3.623-2.19-4.736c1.06-0.813,1.945-1.492,2.827-2.168c0.704,0.793,1.647,1.855,2.353,2.65
			c2.731-1.247,5.118-2.278,3.778-5.851c1.48-0.086,2.702-0.156,4.019-0.232c0.228,1.419,0.098,2.868,0.719,3.835
			c0.62,0.966,1.992,1.451,3.082,2.179c0.882-0.925,1.792-1.878,2.751-2.883c0.711,0.889,1.384,1.731,2.229,2.788
			c-1.24,0.917-2.22,2.669-1.276,4.817c0.876,1.993,2.891,1,4.566,1.461c0,1.059,0,2.17,0,3.424
			c-0.055,0.041-0.307,0.39-0.546,0.382c-1.663-0.058-3.606-0.264-4.178,1.65c-0.519,1.734-0.268,3.664,2.168,4.747
			c-1.115,0.788-2.011,1.42-3.113,2.199c0.325,0.151,0.052,0.092-0.126-0.07c-0.828-0.755-1.456-1.636-2.873-1.548
			c-2.153,0.135-2.806,0.538-3.132,2.766C15.482,46.115,15.468,46.891,15.411,47.636z M19.585,33.633
			c-0.04-3.107-2.762-5.982-6.003-5.988c-3.107-0.006-5.982,2.752-5.988,5.993c-0.006,3.107,2.752,5.982,5.993,5.988
			C16.695,39.632,19.534,36.874,19.585,33.633z"/>
		<path class="st5" d="M43.585,17.419c-0.091,3.537-2.429,5.978-5.786,6.155c-3.522,0.185-5.975-2.367-6.152-5.724
			c-0.185-3.522,2.367-5.975,5.724-6.152C40.893,11.512,43.121,14.076,43.585,17.419z"/>
		<path class="st5" d="M19.585,33.633c-0.051,3.241-2.891,5.998-5.997,5.993c-3.241-0.006-5.998-2.88-5.993-5.988
			c0.006-3.241,2.88-5.998,5.988-5.993C16.823,27.652,19.545,30.526,19.585,33.633z"/>
	</g>
</g>
<rect x="-2.415" y="16.636" class="st6" width="30" height="33"/>
<rect x="22.585" y="2.636" class="st6" width="30" height="31"/>
<g>
	<path class="st3" d="M16.832,18.627l-0.408,1.184c-0.322,0.934-1.398,1.44-2.356,1.111c-0.483-0.166-0.85-0.52-1.049-0.994
		l-0.469-0.988c-0.472-0.98-1.656-1.388-2.631-0.906l-2.245,1.107c-0.446,0.217-0.811,0.64-0.982,1.137
		c-0.171,0.497-0.141,1.047,0.074,1.5l0.465,0.952c0.26,0.469,0.308,0.991,0.139,1.481c-0.332,0.965-1.394,1.501-2.321,1.182
		l-1.154-0.397c-1.018-0.35-2.175,0.17-2.528,1.195l-0.786,2.284c-0.351,1.019,0.191,2.13,1.21,2.481l1.165,0.401
		c0.93,0.32,1.439,1.399,1.106,2.365c-0.166,0.483-0.524,0.858-0.991,1.06l-0.978,0.482c-0.455,0.215-0.813,0.641-0.984,1.139
		c-0.172,0.498-0.141,1.049,0.075,1.503l1.079,2.272c0.477,0.975,1.664,1.384,2.632,0.906l0.955-0.465
		c0.47-0.26,0.997-0.315,1.481-0.149c0.968,0.333,1.5,1.395,1.177,2.331L8.113,43.95c-0.356,1.034,0.154,2.181,1.183,2.535
		l1.15,0.396l1.15,0.396c1.021,0.352,2.137-0.235,2.493-1.27l0.406-1.178c0.322-0.934,1.403-1.439,2.366-1.107
		c0.485,0.167,0.868,0.535,1.079,1.029l0.461,0.951c0.479,0.974,1.67,1.384,2.639,0.909l2.262-1.101
		c0.455-0.214,0.814-0.639,0.985-1.136c0.171-0.497,0.14-1.048-0.077-1.502l-0.476-0.982c-0.247-0.439-0.297-0.962-0.13-1.444
		c0.332-0.965,1.398-1.499,2.331-1.178l1.153,0.397c1.024,0.353,2.184-0.158,2.539-1.191l0.786-2.284
		c0.351-1.019-0.191-2.13-1.21-2.481l-1.251-0.431c-0.929-0.32-1.437-1.399-1.104-2.366c0.166-0.483,0.534-0.864,1.024-1.084
		l0.955-0.466c0.449-0.225,0.812-0.641,0.984-1.14c0.172-0.499,0.142-1.05-0.074-1.504l-1.097-2.262
		c-0.476-0.975-1.662-1.383-2.637-0.908l-0.98,0.491c-0.45,0.251-0.966,0.301-1.442,0.137c-0.967-0.333-1.497-1.394-1.175-2.331
		l0.395-1.146c0.335-0.973-0.182-2.034-1.156-2.369l-1.229-0.423l-1.148-0.395C18.247,17.145,17.186,17.599,16.832,18.627z
		 M17.531,26.287L17.531,26.287c3.336,1.149,5.121,4.784,3.968,8.135c-1.154,3.351-4.799,5.116-8.135,3.968l0,0l0,0
		c-3.336-1.149-5.121-4.784-3.968-8.135S14.195,25.139,17.531,26.287L17.531,26.287z"/>
	<path class="st3" d="M48.525,27.273l-0.408-1.184c-0.322-0.934,0.215-1.996,1.173-2.326c0.483-0.166,0.99-0.113,1.439,0.137
		l0.978,0.489c0.975,0.482,2.159,0.074,2.631-0.906l1.088-2.254c0.218-0.446,0.245-1.003,0.074-1.5
		c-0.171-0.497-0.533-0.912-0.982-1.137l-0.953-0.464c-0.494-0.209-0.853-0.591-1.022-1.081c-0.332-0.965,0.174-2.041,1.102-2.36
		l1.154-0.397c1.018-0.35,1.61-1.473,1.257-2.498l-0.786-2.284c-0.351-1.019-1.462-1.561-2.481-1.21l-1.165,0.401
		c-0.93,0.32-1.995-0.217-2.328-1.183c-0.166-0.483-0.116-0.999,0.128-1.446l0.474-0.982c0.226-0.449,0.246-1.005,0.075-1.503
		C49.8,3.086,49.437,2.67,48.987,2.445L46.738,1.32c-0.976-0.475-2.163-0.066-2.632,0.906L43.639,3.18
		c-0.21,0.495-0.591,0.862-1.076,1.029c-0.968,0.333-2.04-0.176-2.363-1.112L39.806,1.95c-0.356-1.034-1.464-1.624-2.493-1.27
		l-1.15,0.396l-1.15,0.396c-1.021,0.352-1.539,1.501-1.183,2.535l0.406,1.178c0.322,0.934-0.22,1.998-1.183,2.329
		c-0.485,0.167-1.013,0.113-1.484-0.146l-0.949-0.465C29.642,6.43,28.451,6.84,27.98,7.812l-1.105,2.26
		c-0.227,0.449-0.248,1.004-0.077,1.502c0.171,0.497,0.534,0.912,0.985,1.136l0.98,0.48c0.465,0.194,0.826,0.575,0.992,1.058
		c0.332,0.965-0.179,2.042-1.112,2.364l-1.153,0.397c-1.024,0.353-1.623,1.469-1.268,2.502l0.786,2.284
		c0.351,1.019,1.462,1.561,2.481,1.21l1.251-0.431c0.929-0.32,1.993,0.218,2.326,1.185c0.166,0.483,0.111,1.01-0.14,1.485
		l-0.466,0.955c-0.215,0.454-0.245,1.005-0.074,1.504c0.172,0.499,0.535,0.914,0.984,1.14l2.257,1.107
		c0.975,0.475,2.161,0.067,2.637-0.908l0.47-0.99c0.2-0.474,0.575-0.832,1.051-0.996c0.967-0.333,2.038,0.177,2.361,1.114
		l0.395,1.146c0.335,0.973,1.396,1.491,2.369,1.156l1.229-0.423l1.148-0.395C48.323,29.312,48.879,28.301,48.525,27.273z
		 M43.258,21.667L43.258,21.667c-3.336,1.149-6.981-0.617-8.135-3.968c-1.154-3.351,0.632-6.986,3.968-8.135l0,0l0,0
		c3.336-1.149,6.981,0.617,8.135,3.968S46.594,20.518,43.258,21.667L43.258,21.667z"/>
</g>
<g>
</g>
<g>
</g>
<g>
</g>
<g>
</g>
<g>
</g>
<g>
</g>
<g>
</g>
<g>
</g>
<g>
</g>
<g>
</g>
<g>
</g>
<g>
</g>
<g>
</g>
<g>
</g>
<g>
</g>
</svg>
