<?xml version="1.0" encoding="utf-8"?>
<!-- Generator: Adobe Illustrator 26.0.1, SVG Export Plug-In . SVG Version: 6.00 Build 0)  -->
<svg version="1.1" id="Calque_1" xmlns="http://www.w3.org/2000/svg" xmlns:xlink="http://www.w3.org/1999/xlink" x="0px" y="0px"
	 viewBox="0 0 400 400" style="enable-background:new 0 0 400 400;" xml:space="preserve">
<style type="text/css">
	.st0{fill:#E07E64;}
	.st1{fill:#FDF8F7;}
	.st2{fill:#FCF6F4;}
	.st3{fill:#DF7A5F;}
</style>
<g>
	<g>
		<g>
			<path class="st0" d="M328.886,130.932c9.301-1.129,18.214-2.876,22.616,9.606c4.492,12.74-2.039,19.268-10.733,26.021
				c-17.759,13.812-13.48,26.234,3.661,36.208c9.121,5.312,19.083,8.388,16.057,22.509c-2.83,13.2-12.579,13.964-23.086,16.309
				c-19.995,4.467-25.66,15.942-13.478,33.96c5.208,7.71,11.517,15.31,3.296,25.024c-8.11,9.589-16.829,8.836-27.766,4.502
				c-22.606-8.967-30.946,2.783-30.086,23.878c0.398,9.762,1.593,18.325-10.692,22.12c-10.966,3.396-17.694-0.919-23.855-9.134
				c-16.114-21.506-28.745-15.143-39.312,5.295c-3.911,7.561-7.733,14.499-18.495,12.956c-10.98-1.567-16.372-7.473-17.848-18.105
				c-3.601-25.973-15.979-32.459-37.961-16.663c-7.38,5.301-14.677,7.709-22.38,0.606c-7.846-7.226-9.087-14.925-4.705-25.075
				c10.179-23.548-0.547-33.113-23.87-32.373c-8.262,0.261-16.085,2.474-20.457-8.404c-4.889-12.154-0.415-19.627,8.863-26.55
				c19.476-14.552,15.236-27.222-3.82-37.823c-8.252-4.598-16.968-7.74-14.922-20.274c2.121-13.008,10.735-15.552,21.848-17.639
				c22.32-4.19,27.401-16.517,14.071-35.465c-5.66-8.055-10.011-15.932-1.342-24.896c7.606-7.877,15.415-7.896,25.281-3.832
				c24.419,10.044,32.636-2.394,31.501-24.949c-0.442-8.716-1.269-16.087,9.294-19.942c10.542-3.848,17.887-1.197,24.263,7.387
				c16.925,22.778,30.163,16.927,41.017-5.572c3.921-8.137,9.071-13.295,19.371-11.268c9.536,1.865,14.778,7.059,15.949,16.346
				c3.544,28.06,16.621,34.029,39.683,17.422c6.422-4.622,12.902-6.542,19.763-0.768c7.942,6.685,11.244,14.092,6.472,24.534
				C296.997,118.956,304.177,130.643,328.886,130.932z"/>
			<path class="st1" d="M300.076,198.691c0.49,55.42-44.98,101.05-100.37,100.74c-54.01-0.3-98.69-44.85-99.16-98.84
				c-0.48-55.59,44.71-100.95,100.3-100.67C254.876,100.181,299.596,144.711,300.076,198.691z"/>
			<path class="st2" d="M201.566,174.821c13.89,2.81,23.26,10.52,22.99,24.77c-0.29,15.63-10.01,25.07-25.68,24.3
				c-13.94-0.68-23.04-9.88-22.84-24.11C176.256,184.041,186.426,176.281,201.566,174.821z"/>
			<g>
				<g>
					<g>
						<path class="st3" d="M219.515,154.478c-3.03,10.753-6.037,21.41-9.032,32.067c-5.466,19.455-10.952,38.902-16.366,58.373
							c-1.279,4.603-3.106,9.073-8.823,7.536c-5.452-1.467-5.505-5.764-4.08-10.748c8.373-29.276,16.537-58.614,24.701-87.949
							c1.216-4.371,2.982-8.18,8.312-7.261C218.417,147.217,220.012,150.383,219.515,154.478z"/>
						<path class="st3" d="M173.4,229.604c0.101,2.816-1.326,4.808-3.665,6.039c-2.407,1.268-4.913,1.035-6.974-0.799
							c-11.387-10.113-22.793-20.207-34.033-30.481c-2.869-2.623-2.942-6.2-0.09-8.862c11.13-10.391,22.397-20.643,33.749-30.795
							c2.885-2.578,6.227-2.278,8.885,0.61c3.04,3.303,2.304,6.699-0.699,9.526c-7.461,7.025-14.922,14.058-22.661,20.768
							c-3.682,3.194-3.624,5.315,0.068,8.422c7.199,6.064,14.091,12.493,21.066,18.818
							C171.076,224.693,173.349,226.451,173.4,229.604z"/>
						<path class="st3" d="M233.091,236.017c-2.805-0.071-4.721-1.598-5.793-4.022c-1.448-3.274-0.052-5.873,2.395-8.11
							c6.948-6.358,13.598-13.084,20.909-18.988c5.505-4.447,4.639-7.304-0.309-11.334c-7.077-5.768-13.661-12.143-20.456-18.253
							c-3.243-2.918-4.975-6.314-1.692-10.079c3.57-4.09,7.229-2.703,10.785,0.501c9.885,8.892,19.777,17.776,29.821,26.487
							c5.327,4.62,5.887,8.863,0.369,13.758c-10.153,9.006-20.14,18.2-30.196,27.318
							C237.258,234.805,235.548,236.206,233.091,236.017z"/>
					</g>
				</g>
			</g>
		</g>
	</g>
</g>
<g>
</g>
<g>
</g>
<g>
</g>
<g>
</g>
<g>
</g>
<g>
</g>
<g>
</g>
<g>
</g>
<g>
</g>
<g>
</g>
<g>
</g>
<g>
</g>
<g>
</g>
<g>
</g>
<g>
</g>
</svg>
