<?xml version="1.0" encoding="utf-8"?>
<!-- Generator: Adobe Illustrator 26.0.1, SVG Export Plug-In . SVG Version: 6.00 Build 0)  -->
<svg version="1.1" id="Calque_1" xmlns="http://www.w3.org/2000/svg" xmlns:xlink="http://www.w3.org/1999/xlink" x="0px" y="0px"
	 viewBox="0 0 400 400" style="enable-background:new 0 0 400 400;" xml:space="preserve">
<style type="text/css">
	.st0{fill:#E07E64;}
	.st1{fill:#FDF8F7;}
	.st2{fill:#FCF6F4;}
	.st3{fill:#DF7A5F;}
</style>
<g>
	<g>
		<g>
			<path class="st0" d="M136.149,68.789c-0.804-9.335-2.239-18.303,10.39-22.267c12.889-4.045,19.185,2.711,25.631,11.634
				c13.184,18.231,25.748,14.387,36.314-2.395c5.627-8.93,9.049-18.778,23.056-15.261c13.093,3.289,13.517,13.059,15.494,23.641
				c3.767,20.139,15.037,26.201,33.469,14.655c7.887-4.936,15.703-10.975,25.124-2.421c9.3,8.44,8.243,17.128,3.53,27.906
				c-9.75,22.279,1.701,31.025,22.813,30.901c9.77-0.057,18.369-0.952,21.733,11.457c3.012,11.078-1.536,17.651-9.961,23.521
				c-22.055,15.354-16.137,28.199,3.92,39.473c7.42,4.172,14.22,8.235,12.303,18.935c-1.949,10.919-8.04,16.102-18.717,17.205
				c-26.083,2.693-32.997,14.836-17.978,37.356c5.04,7.561,7.192,14.937-0.175,22.388c-7.496,7.589-15.233,8.561-25.224,3.827
				c-23.178-10.995-33.112-0.609-33.186,22.725c-0.028,8.267,1.911,16.162-9.113,20.151c-12.318,4.462-19.629-0.27-26.225-9.784
				c-13.864-19.972-26.673-16.177-37.934,2.498c-4.883,8.087-8.327,16.688-20.782,14.206c-12.926-2.574-15.168-11.271-16.866-22.451
				c-3.408-22.453-15.551-27.961-34.953-15.3c-8.247,5.375-16.272,9.449-24.928,0.472c-7.607-7.876-7.353-15.681-2.948-25.399
				c10.89-24.054-1.254-32.7-23.835-32.352c-8.727,0.137-16.121,0.707-19.605-9.984c-3.478-10.67-0.572-17.918,8.229-23.991
				c23.355-16.12,17.969-29.554-4.137-41.186c-7.995-4.203-12.97-9.53-10.585-19.753c2.196-9.465,7.57-14.522,16.893-15.369
				c28.166-2.563,34.588-15.424,18.797-39.051c-4.395-6.58-6.088-13.123-0.078-19.778c6.958-7.704,14.476-10.745,24.745-5.611
				C123.068,100.241,134.998,93.473,136.149,68.789z"/>
			<path class="st1" d="M300.076,198.691c0.49,55.42-44.98,101.05-100.37,100.74c-54.01-0.3-98.69-44.85-99.16-98.84
				c-0.48-55.59,44.71-100.95,100.3-100.67C254.876,100.181,299.596,144.711,300.076,198.691z"/>
			<path class="st2" d="M201.566,174.821c13.89,2.81,23.26,10.52,22.99,24.77c-0.29,15.63-10.01,25.07-25.68,24.3
				c-13.94-0.68-23.04-9.88-22.84-24.11C176.256,184.041,186.426,176.281,201.566,174.821z"/>
			<g>
				<g>
					<g>
						<path class="st3" d="M219.515,154.478c-3.03,10.753-6.037,21.41-9.032,32.067c-5.466,19.455-10.952,38.902-16.366,58.373
							c-1.279,4.603-3.106,9.073-8.823,7.536c-5.452-1.467-5.505-5.764-4.08-10.748c8.373-29.276,16.537-58.614,24.701-87.949
							c1.216-4.371,2.982-8.18,8.312-7.261C218.417,147.217,220.012,150.383,219.515,154.478z"/>
						<path class="st3" d="M173.4,229.604c0.101,2.816-1.326,4.808-3.665,6.039c-2.407,1.268-4.913,1.035-6.974-0.799
							c-11.387-10.113-22.793-20.207-34.033-30.481c-2.869-2.623-2.942-6.2-0.09-8.862c11.13-10.391,22.397-20.643,33.749-30.795
							c2.885-2.578,6.227-2.278,8.885,0.61c3.04,3.303,2.304,6.699-0.699,9.526c-7.461,7.025-14.922,14.058-22.661,20.768
							c-3.682,3.194-3.624,5.315,0.068,8.422c7.199,6.064,14.091,12.493,21.066,18.818
							C171.076,224.693,173.349,226.451,173.4,229.604z"/>
						<path class="st3" d="M233.091,236.017c-2.805-0.071-4.721-1.598-5.793-4.022c-1.448-3.274-0.052-5.873,2.395-8.11
							c6.948-6.358,13.598-13.084,20.909-18.988c5.505-4.447,4.639-7.304-0.309-11.334c-7.077-5.768-13.661-12.143-20.456-18.253
							c-3.243-2.918-4.975-6.314-1.692-10.079c3.57-4.09,7.229-2.703,10.785,0.501c9.885,8.892,19.777,17.776,29.821,26.487
							c5.327,4.62,5.887,8.863,0.369,13.758c-10.153,9.006-20.14,18.2-30.196,27.318
							C237.258,234.805,235.548,236.206,233.091,236.017z"/>
					</g>
				</g>
			</g>
		</g>
	</g>
</g>
<g>
</g>
<g>
</g>
<g>
</g>
<g>
</g>
<g>
</g>
<g>
</g>
<g>
</g>
<g>
</g>
<g>
</g>
<g>
</g>
<g>
</g>
<g>
</g>
<g>
</g>
<g>
</g>
<g>
</g>
</svg>
