<?xml version="1.0" encoding="utf-8"?>
<!-- Generator: Adobe Illustrator 26.0.1, SVG Export Plug-In . SVG Version: 6.00 Build 0)  -->
<svg version="1.1" id="Calque_1" xmlns="http://www.w3.org/2000/svg" xmlns:xlink="http://www.w3.org/1999/xlink" x="0px" y="0px"
	 viewBox="0 0 400 400" style="enable-background:new 0 0 400 400;" xml:space="preserve">
<style type="text/css">
	.st0{fill:#E07E64;}
	.st1{fill:#FDF8F7;}
	.st2{fill:#FCF6F4;}
	.st3{fill:#DF7A5F;}
</style>
<g>
	<g>
		<g>
			<path class="st0" d="M194.916,53.983c3.063-8.855,5.4-17.632,18.548-16.116c13.42,1.547,16.424,10.28,18.683,21.054
				c4.629,22.017,17.67,23.616,34.149,12.582c8.773-5.869,15.905-13.474,27.27-4.564c10.623,8.33,7.036,17.428,4.539,27.899
				c-4.75,19.93,3.08,30.051,24.614,27.001c9.212-1.301,18.809-3.64,23.936,8.007c5.064,11.493,0.564,19-8.126,26.929
				c-17.969,16.387-11.064,29.034,8.272,37.508c8.949,3.922,17.169,6.601,15.194,19.306c-1.755,11.345-8.583,15.5-18.667,17.436
				c-26.393,5.056-26.212,19.198-12.474,37.655c5.082,6.83,9.641,13.306,3.538,22.302c-6.222,9.182-13.894,11.439-24.096,8.105
				c-24.923-8.149-36.179,0.133-31.618,26.814c1.529,8.957,0.495,16.571-9.266,20.381c-9.935,3.884-17.398,1.625-24.6-6.763
				c-16.702-19.471-30.002-14.025-39.56,7.263c-3.388,7.541-4.827,15.542-16.521,14.703c-13.067-0.934-17.822-8.231-19.978-19.605
				c-4.542-23.885-17.788-25.627-35.67-13.147c-7.75,5.402-14.395,11.858-24.764,4.524c-10.762-7.609-9.272-16.466-6.276-27.37
				c6.019-21.898-2.833-31.869-25.708-28.194c-9.72,1.556-18.708,2.014-22.965-9.708c-3.746-10.289-0.339-17.316,7.638-24.402
				c19.732-17.545,12.155-30.383-8.615-39.25c-8.028-3.424-15.015-5.911-13.849-17.095c1.162-11.162,6.766-16.602,17.275-18.57
				c27.892-5.227,28.437-19.69,12.972-39.308c-5.594-7.091-7.972-13.981-1.636-22.351c5.856-7.753,12.822-10.188,21.684-7.169
				c26.774,9.115,37.871-0.022,33.055-28.03c-1.339-7.798-0.224-14.464,7.974-18.1c9.49-4.208,17.595-3.928,24.888,4.939
				C170.172,77.395,183.824,76.065,194.916,53.983z"/>
			<path class="st1" d="M300.076,198.691c0.49,55.42-44.98,101.05-100.37,100.74c-54.01-0.3-98.69-44.85-99.16-98.84
				c-0.48-55.59,44.71-100.95,100.3-100.67C254.876,100.181,299.596,144.711,300.076,198.691z"/>
			<path class="st2" d="M201.566,174.821c13.89,2.81,23.26,10.52,22.99,24.77c-0.29,15.63-10.01,25.07-25.68,24.3
				c-13.94-0.68-23.04-9.88-22.84-24.11C176.256,184.041,186.426,176.281,201.566,174.821z"/>
			<g>
				<g>
					<g>
						<path class="st3" d="M219.515,154.478c-3.03,10.753-6.037,21.41-9.032,32.067c-5.466,19.455-10.952,38.902-16.366,58.373
							c-1.279,4.603-3.106,9.073-8.823,7.536c-5.452-1.467-5.505-5.764-4.08-10.748c8.373-29.276,16.537-58.614,24.701-87.949
							c1.216-4.371,2.982-8.18,8.312-7.261C218.417,147.217,220.012,150.383,219.515,154.478z"/>
						<path class="st3" d="M173.4,229.604c0.101,2.816-1.326,4.808-3.665,6.039c-2.407,1.268-4.913,1.035-6.974-0.799
							c-11.387-10.113-22.793-20.207-34.033-30.481c-2.869-2.623-2.942-6.2-0.09-8.862c11.13-10.391,22.397-20.643,33.749-30.795
							c2.885-2.578,6.227-2.278,8.885,0.61c3.04,3.303,2.304,6.699-0.699,9.526c-7.461,7.025-14.922,14.058-22.661,20.768
							c-3.682,3.194-3.624,5.315,0.068,8.422c7.199,6.064,14.091,12.493,21.066,18.818
							C171.076,224.693,173.349,226.451,173.4,229.604z"/>
						<path class="st3" d="M233.091,236.017c-2.805-0.071-4.721-1.598-5.793-4.022c-1.448-3.274-0.052-5.873,2.395-8.11
							c6.948-6.358,13.598-13.084,20.909-18.988c5.505-4.447,4.639-7.304-0.309-11.334c-7.077-5.768-13.661-12.143-20.456-18.253
							c-3.243-2.918-4.975-6.314-1.692-10.079c3.57-4.09,7.229-2.703,10.785,0.501c9.885,8.892,19.777,17.776,29.821,26.487
							c5.327,4.62,5.887,8.863,0.369,13.758c-10.153,9.006-20.14,18.2-30.196,27.318
							C237.258,234.805,235.548,236.206,233.091,236.017z"/>
					</g>
				</g>
			</g>
		</g>
	</g>
</g>
<g>
</g>
<g>
</g>
<g>
</g>
<g>
</g>
<g>
</g>
<g>
</g>
<g>
</g>
<g>
</g>
<g>
</g>
<g>
</g>
<g>
</g>
<g>
</g>
<g>
</g>
<g>
</g>
<g>
</g>
</svg>
