<?xml version="1.0" encoding="utf-8"?>
<!-- Generator: Adobe Illustrator 26.0.1, SVG Export Plug-In . SVG Version: 6.00 Build 0)  -->
<svg version="1.1" id="Calque_1" xmlns="http://www.w3.org/2000/svg" xmlns:xlink="http://www.w3.org/1999/xlink" x="0px" y="0px"
	 viewBox="0 0 400 400" style="enable-background:new 0 0 400 400;" xml:space="preserve">
<style type="text/css">
	.st0{fill:#E07E64;}
	.st1{fill:#FDF8F7;}
	.st2{fill:#FCF6F4;}
	.st3{fill:#DF7A5F;}
</style>
<g>
	<g>
		<g>
			<path class="st0" d="M223.476,343.575c-1.961,9.162-3.211,18.158-16.446,18.256c-13.508,0.1-17.555-8.201-21.109-18.62
				c-7.278-21.288-20.416-21.287-35.428-8.327c-7.992,6.895-14.144,15.312-26.51,7.854c-11.559-6.973-9.108-16.44-7.905-27.138
				c2.286-20.36-6.72-29.452-27.721-23.8c-8.985,2.414-18.225,5.905-24.733-5.03c-6.427-10.79-2.876-18.789,4.783-27.719
				c15.838-18.455,7.444-30.166-12.782-36.22c-9.36-2.802-17.845-4.46-17.434-17.311c0.359-11.475,6.63-16.431,16.403-19.581
				c25.58-8.235,23.677-22.249,7.792-38.895c-5.876-6.16-11.191-12.032-6.229-21.705c5.056-9.872,12.396-13.047,22.929-10.981
				c25.731,5.051,35.893-4.541,28.114-30.467c-2.609-8.704-2.511-16.387,6.713-21.359c9.387-5.066,17.071-3.733,25.241,3.715
				c18.951,17.291,31.487,10.264,38.38-12.03c2.444-7.897,2.897-16.014,14.606-16.607c13.084-0.665,18.692,5.998,22.219,17.024
				c7.419,23.153,20.778,23.268,37.006,8.702c7.034-6.306,12.842-13.524,24.028-7.509c11.609,6.241,11.21,15.213,9.565,26.401
				c-3.305,22.468,6.696,31.286,28.952,24.851c9.458-2.729,18.323-4.278,23.977,6.837c4.972,9.756,2.447,17.146-4.607,25.151
				c-17.447,19.819-8.362,31.638,13.334,37.907c8.385,2.42,15.623,4.037,15.829,15.28c0.207,11.22-4.692,17.302-14.883,20.536
				c-27.047,8.587-25.825,23.009-8.085,40.596c6.417,6.357,9.617,12.905,4.348,21.984c-4.868,8.409-11.485,11.675-20.648,9.758
				c-27.685-5.784-37.587,4.637-29.393,31.849c2.28,7.577,1.985,14.329-5.708,18.937c-8.906,5.333-16.985,6.043-25.305-1.869
				C245.181,317.322,231.793,320.306,223.476,343.575z"/>
			<path class="st1" d="M300.076,198.691c0.49,55.42-44.98,101.05-100.37,100.74c-54.01-0.3-98.69-44.85-99.16-98.84
				c-0.48-55.59,44.71-100.95,100.3-100.67C254.876,100.181,299.596,144.711,300.076,198.691z"/>
			<path class="st2" d="M201.566,174.821c13.89,2.81,23.26,10.52,22.99,24.77c-0.29,15.63-10.01,25.07-25.68,24.3
				c-13.94-0.68-23.04-9.88-22.84-24.11C176.256,184.041,186.426,176.281,201.566,174.821z"/>
			<g>
				<g>
					<g>
						<path class="st3" d="M219.515,154.478c-3.03,10.753-6.037,21.41-9.032,32.067c-5.466,19.455-10.952,38.902-16.366,58.373
							c-1.279,4.603-3.106,9.073-8.823,7.536c-5.452-1.467-5.505-5.764-4.08-10.748c8.373-29.276,16.537-58.614,24.701-87.949
							c1.216-4.371,2.982-8.18,8.312-7.261C218.417,147.217,220.012,150.383,219.515,154.478z"/>
						<path class="st3" d="M173.4,229.604c0.101,2.816-1.326,4.808-3.665,6.039c-2.407,1.268-4.913,1.035-6.974-0.799
							c-11.387-10.113-22.793-20.207-34.033-30.481c-2.869-2.623-2.942-6.2-0.09-8.862c11.13-10.391,22.397-20.643,33.749-30.795
							c2.885-2.578,6.227-2.278,8.885,0.61c3.04,3.303,2.304,6.699-0.699,9.526c-7.461,7.025-14.922,14.058-22.661,20.768
							c-3.682,3.194-3.624,5.315,0.068,8.422c7.199,6.064,14.091,12.493,21.066,18.818
							C171.076,224.693,173.349,226.451,173.4,229.604z"/>
						<path class="st3" d="M233.091,236.017c-2.805-0.071-4.721-1.598-5.793-4.022c-1.448-3.274-0.052-5.873,2.395-8.11
							c6.948-6.358,13.598-13.084,20.909-18.988c5.505-4.447,4.639-7.304-0.309-11.334c-7.077-5.768-13.661-12.143-20.456-18.253
							c-3.243-2.918-4.975-6.314-1.692-10.079c3.57-4.09,7.229-2.703,10.785,0.501c9.885,8.892,19.777,17.776,29.821,26.487
							c5.327,4.62,5.887,8.863,0.369,13.758c-10.153,9.006-20.14,18.2-30.196,27.318
							C237.258,234.805,235.548,236.206,233.091,236.017z"/>
					</g>
				</g>
			</g>
		</g>
	</g>
</g>
<g>
</g>
<g>
</g>
<g>
</g>
<g>
</g>
<g>
</g>
<g>
</g>
<g>
</g>
<g>
</g>
<g>
</g>
<g>
</g>
<g>
</g>
<g>
</g>
<g>
</g>
<g>
</g>
<g>
</g>
</svg>
