<?xml version="1.0" encoding="utf-8"?>
<!-- Generator: Adobe Illustrator 26.0.1, SVG Export Plug-In . SVG Version: 6.00 Build 0)  -->
<svg version="1.1" id="Calque_1" xmlns="http://www.w3.org/2000/svg" xmlns:xlink="http://www.w3.org/1999/xlink" x="0px" y="0px"
	 viewBox="0 0 400 400" style="enable-background:new 0 0 400 400;" xml:space="preserve">
<style type="text/css">
	.st0{fill:#E07E64;}
	.st1{fill:#FDF8F7;}
	.st2{fill:#FCF6F4;}
	.st3{fill:#DF7A5F;}
</style>
<g>
	<g>
		<g>
			<path class="st0" d="M342.451,232.112c7.76,5.25,15.633,9.779,10.766,22.087c-4.967,12.562-14.18,13.204-25.172,12.597
				c-22.465-1.227-27.385,10.956-20.992,29.729c3.399,9.993,8.899,18.85-2.649,27.522c-10.796,8.106-18.655,2.286-28.123-2.837
				c-18.021-9.747-29.825-4.803-32.452,16.787c-1.127,9.235-1.353,19.11-13.929,21.048c-12.412,1.917-18.498-4.372-23.909-14.819
				c-11.178-21.598-25.181-18.202-38.371-1.717c-6.105,7.629-10.82,14.875-22.581,9.679c-10.505-4.631-12.751-12.302-12.011-22.544
				c1.947-26.802-11.759-30.287-33.144-21.795c-7.912,3.141-15.348,5.869-22.458-2.355c-7.259-8.386-7.454-16.381-1.592-25.373
				c14.322-21.965,9.236-34.98-17.717-37.48c-9.047-0.841-16.134-3.811-17.289-14.225c-1.181-10.601,2.934-17.226,12.899-22.011
				c23.131-11.094,21.312-25.35,3.224-40.092c-6.407-5.224-13.763-8.685-9.926-19.763c4.284-12.38,12.563-15.085,24.107-14.224
				c24.246,1.795,29.358-10.549,21.931-31.052c-3.212-8.884-7.728-16.973,2.039-25.091c10.135-8.426,18.305-4.695,28.062,1.021
				c19.594,11.481,31.516,5.511,33.887-17.535c1.013-9.792,2.897-18.592,15.321-19.67c10.908-0.955,16.814,4.154,21.594,13.693
				c11.84,23.601,26.202,19.605,40.142,1.837c5.385-6.868,9.596-12.973,20.097-8.953c10.481,4.012,14.285,10.832,13.466,21.493
				c-2.17,28.295,11.659,32.564,34.611,22.704c8.298-3.568,15.568-4.082,22.012,4.204c5.973,7.663,6.522,15.022,1.313,22.8
				c-15.734,23.502-9.781,36.587,18.519,39.183c7.879,0.725,14.03,3.527,15.419,12.387c1.608,10.255-0.76,18.012-11.212,22.762
				C326.241,202.153,323.993,215.684,342.451,232.112z"/>
			<path class="st1" d="M300.076,198.691c0.49,55.42-44.98,101.05-100.37,100.74c-54.01-0.3-98.69-44.85-99.16-98.84
				c-0.48-55.59,44.71-100.95,100.3-100.67C254.876,100.181,299.596,144.711,300.076,198.691z"/>
			<path class="st2" d="M201.566,174.821c13.89,2.81,23.26,10.52,22.99,24.77c-0.29,15.63-10.01,25.07-25.68,24.3
				c-13.94-0.68-23.04-9.88-22.84-24.11C176.256,184.041,186.426,176.281,201.566,174.821z"/>
			<g>
				<g>
					<g>
						<path class="st3" d="M219.515,154.478c-3.03,10.753-6.037,21.41-9.032,32.067c-5.466,19.455-10.952,38.902-16.366,58.373
							c-1.279,4.603-3.106,9.073-8.823,7.536c-5.452-1.467-5.505-5.764-4.08-10.748c8.373-29.276,16.537-58.614,24.701-87.949
							c1.216-4.371,2.982-8.18,8.312-7.261C218.417,147.217,220.012,150.383,219.515,154.478z"/>
						<path class="st3" d="M173.4,229.604c0.101,2.816-1.326,4.808-3.665,6.039c-2.407,1.268-4.913,1.035-6.974-0.799
							c-11.387-10.113-22.793-20.207-34.033-30.481c-2.869-2.623-2.942-6.2-0.09-8.862c11.13-10.391,22.397-20.643,33.749-30.795
							c2.885-2.578,6.227-2.278,8.885,0.61c3.04,3.303,2.304,6.699-0.699,9.526c-7.461,7.025-14.922,14.058-22.661,20.768
							c-3.682,3.194-3.624,5.315,0.068,8.422c7.199,6.064,14.091,12.493,21.066,18.818
							C171.076,224.693,173.349,226.451,173.4,229.604z"/>
						<path class="st3" d="M233.091,236.017c-2.805-0.071-4.721-1.598-5.793-4.022c-1.448-3.274-0.052-5.873,2.395-8.11
							c6.948-6.358,13.598-13.084,20.909-18.988c5.505-4.447,4.639-7.304-0.309-11.334c-7.077-5.768-13.661-12.143-20.456-18.253
							c-3.243-2.918-4.975-6.314-1.692-10.079c3.57-4.09,7.229-2.703,10.785,0.501c9.885,8.892,19.777,17.776,29.821,26.487
							c5.327,4.62,5.887,8.863,0.369,13.758c-10.153,9.006-20.14,18.2-30.196,27.318
							C237.258,234.805,235.548,236.206,233.091,236.017z"/>
					</g>
				</g>
			</g>
		</g>
	</g>
</g>
<g>
</g>
<g>
</g>
<g>
</g>
<g>
</g>
<g>
</g>
<g>
</g>
<g>
</g>
<g>
</g>
<g>
</g>
<g>
</g>
<g>
</g>
<g>
</g>
<g>
</g>
<g>
</g>
<g>
</g>
</svg>
