<?xml version="1.0" encoding="utf-8"?>
<!-- Generator: Adobe Illustrator 26.0.1, SVG Export Plug-In . SVG Version: 6.00 Build 0)  -->
<svg version="1.1" id="Calque_1" xmlns="http://www.w3.org/2000/svg" xmlns:xlink="http://www.w3.org/1999/xlink" x="0px" y="0px"
	 viewBox="0 0 400 400" style="enable-background:new 0 0 400 400;" xml:space="preserve">
<style type="text/css">
	.st0{fill:#E07E64;}
	.st1{fill:#FDF8F7;}
	.st2{fill:#FCF6F4;}
	.st3{fill:#DF7A5F;}
</style>
<g>
	<g>
		<g>
			<path class="st0" d="M345.782,209.481c8.486,3.971,16.971,7.213,14.089,20.131c-2.941,13.184-11.94,15.26-22.891,16.38
				c-22.38,2.302-25.334,15.105-16.083,32.646c4.92,9.339,11.738,17.226,1.689,27.597c-9.395,9.695-18.068,5.176-28.22,1.598
				c-19.324-6.807-30.209-0.078-29.426,21.657c0.331,9.298,1.654,19.087-10.465,22.968c-11.959,3.835-18.955-1.425-25.933-10.896
				c-14.419-19.583-27.719-14.039-38.167,4.306c-4.836,8.49-8.36,16.384-20.789,13.093c-11.1-2.931-14.518-10.156-15.39-20.387
				c-2.269-26.777-16.352-28.075-36.145-16.342c-7.324,4.34-14.241,8.198-22.55,1.187c-8.481-7.147-9.924-15.014-5.541-24.812
				c10.71-23.935,3.65-35.995-23.362-34.247c-9.068,0.584-16.532-1.24-19.301-11.346c-2.825-10.286,0.203-17.473,9.297-23.758
				c21.111-14.575,17.084-28.371-3.088-40.103c-7.145-4.157-14.952-6.426-12.895-17.967c2.295-12.898,10.049-16.864,21.585-17.82
				c24.228-2.02,27.346-15.011,16.804-34.1c-4.562-8.272-10.288-15.555-1.911-25.101c8.692-9.908,17.345-7.5,27.876-3.381
				c21.149,8.275,31.99,0.513,30.727-22.62c-0.531-9.83-0.047-18.816,12.055-21.824c10.624-2.65,17.257,1.473,23.47,10.147
				c15.387,21.458,28.946,15.264,39.935-4.465c4.244-7.626,7.448-14.315,18.449-11.986c10.979,2.323,15.803,8.464,16.662,19.122
				c2.283,28.286,16.61,30.339,37.737,17.01c7.637-4.822,14.738-6.467,22.399,0.709c7.099,6.634,8.792,13.817,4.864,22.314
				c-11.864,25.674-3.937,37.666,24.421,35.804c7.896-0.517,14.409,1.289,17.167,9.822c3.193,9.878,2.068,17.909-7.513,24.236
				C325.084,182.426,324.98,196.142,345.782,209.481z"/>
			<path class="st1" d="M300.076,198.691c0.49,55.42-44.98,101.05-100.37,100.74c-54.01-0.3-98.69-44.85-99.16-98.84
				c-0.48-55.59,44.71-100.95,100.3-100.67C254.876,100.181,299.596,144.711,300.076,198.691z"/>
			<path class="st2" d="M201.566,174.821c13.89,2.81,23.26,10.52,22.99,24.77c-0.29,15.63-10.01,25.07-25.68,24.3
				c-13.94-0.68-23.04-9.88-22.84-24.11C176.256,184.041,186.426,176.281,201.566,174.821z"/>
			<g>
				<g>
					<g>
						<path class="st3" d="M219.515,154.478c-3.03,10.753-6.037,21.41-9.032,32.067c-5.466,19.455-10.952,38.902-16.366,58.373
							c-1.279,4.603-3.106,9.073-8.823,7.536c-5.452-1.467-5.505-5.764-4.08-10.748c8.373-29.276,16.537-58.614,24.701-87.949
							c1.216-4.371,2.982-8.18,8.312-7.261C218.417,147.217,220.012,150.383,219.515,154.478z"/>
						<path class="st3" d="M173.4,229.604c0.101,2.816-1.326,4.808-3.665,6.039c-2.407,1.268-4.913,1.035-6.974-0.799
							c-11.387-10.113-22.793-20.207-34.033-30.481c-2.869-2.623-2.942-6.2-0.09-8.862c11.13-10.391,22.397-20.643,33.749-30.795
							c2.885-2.578,6.227-2.278,8.885,0.61c3.04,3.303,2.304,6.699-0.699,9.526c-7.461,7.025-14.922,14.058-22.661,20.768
							c-3.682,3.194-3.624,5.315,0.068,8.422c7.199,6.064,14.091,12.493,21.066,18.818
							C171.076,224.693,173.349,226.451,173.4,229.604z"/>
						<path class="st3" d="M233.091,236.017c-2.805-0.071-4.721-1.598-5.793-4.022c-1.448-3.274-0.052-5.873,2.395-8.11
							c6.948-6.358,13.598-13.084,20.909-18.988c5.505-4.447,4.639-7.304-0.309-11.334c-7.077-5.768-13.661-12.143-20.456-18.253
							c-3.243-2.918-4.975-6.314-1.692-10.079c3.57-4.09,7.229-2.703,10.785,0.501c9.885,8.892,19.777,17.776,29.821,26.487
							c5.327,4.62,5.887,8.863,0.369,13.758c-10.153,9.006-20.14,18.2-30.196,27.318
							C237.258,234.805,235.548,236.206,233.091,236.017z"/>
					</g>
				</g>
			</g>
		</g>
	</g>
</g>
<g>
</g>
<g>
</g>
<g>
</g>
<g>
</g>
<g>
</g>
<g>
</g>
<g>
</g>
<g>
</g>
<g>
</g>
<g>
</g>
<g>
</g>
<g>
</g>
<g>
</g>
<g>
</g>
<g>
</g>
</svg>
