<?xml version="1.0" encoding="utf-8"?>
<!-- Generator: Adobe Illustrator 26.0.1, SVG Export Plug-In . SVG Version: 6.00 Build 0)  -->
<svg version="1.1" id="Calque_1" xmlns="http://www.w3.org/2000/svg" xmlns:xlink="http://www.w3.org/1999/xlink" x="0px" y="0px"
	 viewBox="0 0 400 400" style="enable-background:new 0 0 400 400;" xml:space="preserve">
<style type="text/css">
	.st0{fill:#E07E64;}
	.st1{fill:#FDF8F7;}
	.st2{fill:#FCF6F4;}
	.st3{fill:#DF7A5F;}
</style>
<g>
	<g>
		<g>
			<path class="st0" d="M54.753,192.365c-8.554-3.823-17.094-6.916-14.438-19.882c2.711-13.234,11.672-15.466,22.602-16.777
				c22.336-2.692,25.066-15.544,15.511-32.922c-5.082-9.251-12.037-17.019-2.17-27.564c9.224-9.857,17.975-5.491,28.188-2.09
				c19.44,6.469,30.206-0.449,29.044-22.167c-0.493-9.291-1.987-19.055,10.063-23.147c11.89-4.043,18.977,1.094,26.119,10.442
				c14.759,19.329,27.96,13.553,38.086-4.972c4.687-8.573,8.073-16.528,20.557-13.454c11.149,2.737,14.693,9.901,15.743,20.116
				c2.736,26.733,16.84,27.785,36.425,15.708c7.247-4.467,14.096-8.445,22.526-1.58c8.605,6.998,10.185,14.838,5.974,24.711
				c-10.29,24.118-3.021,36.053,23.956,33.835c9.056-0.743,16.551,0.951,19.496,11.007c3.004,10.235,0.102,17.474-8.881,23.917
				c-20.853,14.942-16.586,28.665,3.787,40.043c7.217,4.032,15.062,6.164,13.207,17.74c-2.069,12.936-9.753,17.037-21.271,18.194
				c-24.189,2.443-27.08,15.486-16.206,34.388c4.706,8.191,10.558,15.373,2.349,25.064c-8.518,10.058-17.212,7.802-27.813,3.867
				c-21.29-7.904-31.994,0.045-30.327,23.153c0.703,9.819,0.375,18.813-11.672,22.032c-10.577,2.835-17.28-1.171-23.644-9.736
				c-15.759-21.186-29.208-14.757-39.851,5.162c-4.111,7.699-7.197,14.443-18.237,12.307c-11.018-2.131-15.949-8.187-16.993-18.828
				c-2.776-28.242-17.137-30.045-38.028-16.349c-7.552,4.955-14.623,6.724-22.408-0.318c-7.213-6.51-9.032-13.662-5.252-22.226
				c11.414-25.877,3.279-37.729-25.042-35.372c-7.885,0.654-14.429-1.037-17.336-9.521c-3.365-9.82-2.38-17.871,7.089-24.363
				C75.919,219.055,75.784,205.339,54.753,192.365z"/>
			<path class="st1" d="M300.076,198.691c0.49,55.42-44.98,101.05-100.37,100.74c-54.01-0.3-98.69-44.85-99.16-98.84
				c-0.48-55.59,44.71-100.95,100.3-100.67C254.876,100.181,299.596,144.711,300.076,198.691z"/>
			<path class="st2" d="M201.566,174.821c13.89,2.81,23.26,10.52,22.99,24.77c-0.29,15.63-10.01,25.07-25.68,24.3
				c-13.94-0.68-23.04-9.88-22.84-24.11C176.256,184.041,186.426,176.281,201.566,174.821z"/>
			<g>
				<g>
					<g>
						<path class="st3" d="M219.515,154.478c-3.03,10.753-6.037,21.41-9.032,32.067c-5.466,19.455-10.952,38.902-16.366,58.373
							c-1.279,4.603-3.106,9.073-8.823,7.536c-5.452-1.467-5.505-5.764-4.08-10.748c8.373-29.276,16.537-58.614,24.701-87.949
							c1.216-4.371,2.982-8.18,8.312-7.261C218.417,147.217,220.012,150.383,219.515,154.478z"/>
						<path class="st3" d="M173.4,229.604c0.101,2.816-1.326,4.808-3.665,6.039c-2.407,1.268-4.913,1.035-6.974-0.799
							c-11.387-10.113-22.793-20.207-34.033-30.481c-2.869-2.623-2.942-6.2-0.09-8.862c11.13-10.391,22.397-20.643,33.749-30.795
							c2.885-2.578,6.227-2.278,8.885,0.61c3.04,3.303,2.304,6.699-0.699,9.526c-7.461,7.025-14.922,14.058-22.661,20.768
							c-3.682,3.194-3.624,5.315,0.068,8.422c7.199,6.064,14.091,12.493,21.066,18.818
							C171.076,224.693,173.349,226.451,173.4,229.604z"/>
						<path class="st3" d="M233.091,236.017c-2.805-0.071-4.721-1.598-5.793-4.022c-1.448-3.274-0.052-5.873,2.395-8.11
							c6.948-6.358,13.598-13.084,20.909-18.988c5.505-4.447,4.639-7.304-0.309-11.334c-7.077-5.768-13.661-12.143-20.456-18.253
							c-3.243-2.918-4.975-6.314-1.692-10.079c3.57-4.09,7.229-2.703,10.785,0.501c9.885,8.892,19.777,17.776,29.821,26.487
							c5.327,4.62,5.887,8.863,0.369,13.758c-10.153,9.006-20.14,18.2-30.196,27.318
							C237.258,234.805,235.548,236.206,233.091,236.017z"/>
					</g>
				</g>
			</g>
		</g>
	</g>
</g>
<g>
</g>
<g>
</g>
<g>
</g>
<g>
</g>
<g>
</g>
<g>
</g>
<g>
</g>
<g>
</g>
<g>
</g>
<g>
</g>
<g>
</g>
<g>
</g>
<g>
</g>
<g>
</g>
<g>
</g>
</svg>
