<?xml version="1.0" encoding="utf-8"?>
<!-- Generator: Adobe Illustrator 26.0.1, SVG Export Plug-In . SVG Version: 6.00 Build 0)  -->
<svg version="1.1" id="Calque_1" xmlns="http://www.w3.org/2000/svg" xmlns:xlink="http://www.w3.org/1999/xlink" x="0px" y="0px"
	 viewBox="0 0 400 400" style="enable-background:new 0 0 400 400;" xml:space="preserve">
<style type="text/css">
	.st0{fill:#E07E64;}
	.st1{fill:#FDF8F7;}
	.st2{fill:#FCF6F4;}
	.st3{fill:#DF7A5F;}
</style>
<g>
	<g>
		<g>
			<path class="st0" d="M200.002,53.882c3.37-8.742,6.012-17.432,19.099-15.459c13.357,2.014,16.055,10.846,17.937,21.693
				c3.858,22.165,16.835,24.218,33.689,13.767c8.973-5.56,16.365-12.911,27.412-3.61c10.326,8.695,6.424,17.663,3.562,28.04
				c-5.443,19.752,2.03,30.141,23.657,27.844c9.252-0.979,18.925-2.981,23.642,8.838c4.66,11.663-0.099,19.008-9.06,26.63
				c-18.53,15.75-12.071,28.631,6.958,37.774c8.806,4.232,16.928,7.196,14.511,19.825c-2.15,11.277-9.119,15.191-19.264,16.774
				c-26.553,4.132-26.866,18.271-13.78,37.197c4.84,7.003,9.171,13.635,2.757,22.412c-6.538,8.959-14.285,10.948-24.365,7.259
				c-24.624-9.014-36.162-1.13-32.534,25.694c1.216,9.005-0.084,16.578-9.972,20.045c-10.064,3.535-17.444,1.016-24.349-7.617
				c-16.013-20.042-29.494-15.063-39.789,5.878c-3.649,7.418-5.367,15.364-17.024,14.117c-13.027-1.39-17.524-8.848-19.282-20.29
				c-3.705-24.028-16.882-26.232-35.189-14.384c-7.934,5.128-14.8,11.348-24.906,3.657c-10.49-7.98-8.692-16.78-5.317-27.572
				c6.779-21.675-1.719-31.948-24.708-29.074c-9.769,1.216-18.767,1.359-22.612-10.503c-3.384-10.414,0.265-17.317,8.485-24.121
				c20.332-16.846,13.208-29.94-7.24-39.527c-7.904-3.702-14.799-6.432-13.244-17.568c1.551-11.115,7.341-16.355,17.913-17.955
				c28.058-4.25,29.107-18.686,14.336-38.832c-5.343-7.282-7.48-14.251-0.855-22.394c6.123-7.544,13.17-9.734,21.921-6.408
				c26.439,10.044,37.849,1.3,34.013-26.859c-1.066-7.84,0.281-14.463,8.6-17.811c9.631-3.874,17.722-3.312,24.701,5.804
				C174.457,76.416,188.147,75.564,200.002,53.882z"/>
			<path class="st1" d="M300.076,198.691c0.49,55.42-44.98,101.05-100.37,100.74c-54.01-0.3-98.69-44.85-99.16-98.84
				c-0.48-55.59,44.71-100.95,100.3-100.67C254.876,100.181,299.596,144.711,300.076,198.691z"/>
			<path class="st2" d="M201.566,174.821c13.89,2.81,23.26,10.52,22.99,24.77c-0.29,15.63-10.01,25.07-25.68,24.3
				c-13.94-0.68-23.04-9.88-22.84-24.11C176.256,184.041,186.426,176.281,201.566,174.821z"/>
			<g>
				<g>
					<g>
						<path class="st3" d="M219.515,154.478c-3.03,10.753-6.037,21.41-9.032,32.067c-5.466,19.455-10.952,38.902-16.366,58.373
							c-1.279,4.603-3.106,9.073-8.823,7.536c-5.452-1.467-5.505-5.764-4.08-10.748c8.373-29.276,16.537-58.614,24.701-87.949
							c1.216-4.371,2.982-8.18,8.312-7.261C218.417,147.217,220.012,150.383,219.515,154.478z"/>
						<path class="st3" d="M173.4,229.604c0.101,2.816-1.326,4.808-3.665,6.039c-2.407,1.268-4.913,1.035-6.974-0.799
							c-11.387-10.113-22.793-20.207-34.033-30.481c-2.869-2.623-2.942-6.2-0.09-8.862c11.13-10.391,22.397-20.643,33.749-30.795
							c2.885-2.578,6.227-2.278,8.885,0.61c3.04,3.303,2.304,6.699-0.699,9.526c-7.461,7.025-14.922,14.058-22.661,20.768
							c-3.682,3.194-3.624,5.315,0.068,8.422c7.199,6.064,14.091,12.493,21.066,18.818
							C171.076,224.693,173.349,226.451,173.4,229.604z"/>
						<path class="st3" d="M233.091,236.017c-2.805-0.071-4.721-1.598-5.793-4.022c-1.448-3.274-0.052-5.873,2.395-8.11
							c6.948-6.358,13.598-13.084,20.909-18.988c5.505-4.447,4.639-7.304-0.309-11.334c-7.077-5.768-13.661-12.143-20.456-18.253
							c-3.243-2.918-4.975-6.314-1.692-10.079c3.57-4.09,7.229-2.703,10.785,0.501c9.885,8.892,19.777,17.776,29.821,26.487
							c5.327,4.62,5.887,8.863,0.369,13.758c-10.153,9.006-20.14,18.2-30.196,27.318
							C237.258,234.805,235.548,236.206,233.091,236.017z"/>
					</g>
				</g>
			</g>
		</g>
	</g>
</g>
<g>
</g>
<g>
</g>
<g>
</g>
<g>
</g>
<g>
</g>
<g>
</g>
<g>
</g>
<g>
</g>
<g>
</g>
<g>
</g>
<g>
</g>
<g>
</g>
<g>
</g>
<g>
</g>
<g>
</g>
</svg>
