<?xml version="1.0" encoding="utf-8"?>
<!-- Generator: Adobe Illustrator 26.0.1, SVG Export Plug-In . SVG Version: 6.00 Build 0)  -->
<svg version="1.1" id="Calque_1" xmlns="http://www.w3.org/2000/svg" xmlns:xlink="http://www.w3.org/1999/xlink" x="0px" y="0px"
	 viewBox="0 0 400 400" style="enable-background:new 0 0 400 400;" xml:space="preserve">
<style type="text/css">
	.st0{fill:#E07E64;}
	.st1{fill:#FDF8F7;}
	.st2{fill:#FCF6F4;}
	.st3{fill:#DF7A5F;}
</style>
<g>
	<g>
		<g>
			<path class="st0" d="M120.677,77.588c-1.935-9.167-4.453-17.894,7.598-23.367c12.3-5.586,19.373,0.352,26.858,8.424
				c15.307,16.488,27.309,11.142,35.752-6.803c4.497-9.55,6.693-19.741,21.024-17.957c13.396,1.669,15.007,11.314,18.259,21.576
				c6.193,19.53,18.118,24.173,35.005,10.467c7.226-5.86,14.248-12.807,24.641-5.464c10.26,7.243,10.269,15.995,6.905,27.268
				c-6.962,23.301,5.47,30.586,26.409,27.89c9.691-1.247,18.116-3.184,22.967,8.723c4.339,10.629,0.626,17.707-7.02,24.56
				c-20.019,17.927-12.58,29.955,8.702,38.701c7.873,3.237,15.118,6.44,14.519,17.295c-0.604,11.075-6.018,16.962-16.48,19.358
				c-25.56,5.851-30.943,18.747-13.292,39.268c5.924,6.89,8.959,13.949,2.555,22.242c-6.515,8.446-14.077,10.353-24.569,6.873
				c-24.345-8.088-32.94,3.431-30.169,26.6c0.98,8.208,3.867,15.808-6.589,21.112c-11.682,5.93-19.516,2.124-27.222-6.515
				c-16.195-18.134-28.446-12.805-37.346,7.102c-3.861,8.622-6.231,17.578-18.896,16.632c-13.144-0.979-16.429-9.339-19.476-20.228
				c-6.119-21.87-18.842-25.857-36.557-10.927c-7.531,6.34-14.999,11.361-24.685,3.507c-8.51-6.89-9.209-14.668-6.021-24.851
				c7.877-25.202-5.229-32.303-27.6-29.206c-8.645,1.2-15.915,2.666-20.676-7.521c-4.752-10.166-2.751-17.715,5.244-24.815
				c21.216-18.846,14.234-31.524-9.126-40.375c-8.448-3.197-14.035-7.878-12.914-18.315c1.026-9.662,5.744-15.337,14.894-17.313
				c27.644-5.976,32.451-19.524,13.897-41.051c-5.164-5.995-7.642-12.283-2.487-19.621c5.967-8.494,13.059-12.429,23.877-8.585
				C111.526,110.399,122.543,102.228,120.677,77.588z"/>
			<path class="st1" d="M300.076,198.691c0.49,55.42-44.98,101.05-100.37,100.74c-54.01-0.3-98.69-44.85-99.16-98.84
				c-0.48-55.59,44.71-100.95,100.3-100.67C254.876,100.181,299.596,144.711,300.076,198.691z"/>
			<path class="st2" d="M201.566,174.821c13.89,2.81,23.26,10.52,22.99,24.77c-0.29,15.63-10.01,25.07-25.68,24.3
				c-13.94-0.68-23.04-9.88-22.84-24.11C176.256,184.041,186.426,176.281,201.566,174.821z"/>
			<g>
				<g>
					<g>
						<path class="st3" d="M219.515,154.478c-3.03,10.753-6.037,21.41-9.032,32.067c-5.466,19.455-10.952,38.902-16.366,58.373
							c-1.279,4.603-3.106,9.073-8.823,7.536c-5.452-1.467-5.505-5.764-4.08-10.748c8.373-29.276,16.537-58.614,24.701-87.949
							c1.216-4.371,2.982-8.18,8.312-7.261C218.417,147.217,220.012,150.383,219.515,154.478z"/>
						<path class="st3" d="M173.4,229.604c0.101,2.816-1.326,4.808-3.665,6.039c-2.407,1.268-4.913,1.035-6.974-0.799
							c-11.387-10.113-22.793-20.207-34.033-30.481c-2.869-2.623-2.942-6.2-0.09-8.862c11.13-10.391,22.397-20.643,33.749-30.795
							c2.885-2.578,6.227-2.278,8.885,0.61c3.04,3.303,2.304,6.699-0.699,9.526c-7.461,7.025-14.922,14.058-22.661,20.768
							c-3.682,3.194-3.624,5.315,0.068,8.422c7.199,6.064,14.091,12.493,21.066,18.818
							C171.076,224.693,173.349,226.451,173.4,229.604z"/>
						<path class="st3" d="M233.091,236.017c-2.805-0.071-4.721-1.598-5.793-4.022c-1.448-3.274-0.052-5.873,2.395-8.11
							c6.948-6.358,13.598-13.084,20.909-18.988c5.505-4.447,4.639-7.304-0.309-11.334c-7.077-5.768-13.661-12.143-20.456-18.253
							c-3.243-2.918-4.975-6.314-1.692-10.079c3.57-4.09,7.229-2.703,10.785,0.501c9.885,8.892,19.777,17.776,29.821,26.487
							c5.327,4.62,5.887,8.863,0.369,13.758c-10.153,9.006-20.14,18.2-30.196,27.318
							C237.258,234.805,235.548,236.206,233.091,236.017z"/>
					</g>
				</g>
			</g>
		</g>
	</g>
</g>
<g>
</g>
<g>
</g>
<g>
</g>
<g>
</g>
<g>
</g>
<g>
</g>
<g>
</g>
<g>
</g>
<g>
</g>
<g>
</g>
<g>
</g>
<g>
</g>
<g>
</g>
<g>
</g>
<g>
</g>
</svg>
