<?xml version="1.0" encoding="utf-8"?>
<!-- Generator: Adobe Illustrator 26.0.1, SVG Export Plug-In . SVG Version: 6.00 Build 0)  -->
<svg version="1.1" id="Calque_1" xmlns="http://www.w3.org/2000/svg" xmlns:xlink="http://www.w3.org/1999/xlink" x="0px" y="0px"
	 viewBox="0 0 400 400" style="enable-background:new 0 0 400 400;" xml:space="preserve">
<style type="text/css">
	.st0{fill:#E07E64;}
	.st1{fill:#FDF8F7;}
	.st2{fill:#FCF6F4;}
	.st3{fill:#DF7A5F;}
</style>
<g>
	<g>
		<g>
			<path class="st0" d="M230.315,56.999c5.114-7.851,9.505-15.802,21.896-11.15c12.647,4.747,13.449,13.948,13.035,24.948
				c-0.835,22.483,11.432,27.189,30.09,20.47c9.932-3.573,18.692-9.226,27.564,2.168c8.293,10.652,2.611,18.612-2.345,28.168
				c-9.431,18.188-4.281,29.904,17.351,32.154c9.254,0.966,19.131,1.019,21.288,13.56c2.133,12.377-4.049,18.572-14.399,24.164
				c-21.4,11.553-17.76,25.495-1.047,38.395c7.734,5.97,15.062,10.559,10.072,22.409c-4.447,10.584-12.078,12.964-22.331,12.403
				c-26.832-1.479-30.077,12.286-21.213,33.519c3.278,7.856,6.136,15.244-1.963,22.496c-8.258,7.404-16.249,7.738-25.341,2.034
				c-22.211-13.936-35.136-8.624-37.166,18.368c-0.683,9.061-3.529,16.198-13.921,17.534c-10.579,1.365-17.274-2.633-22.233-12.513
				c-11.496-22.934-25.718-20.866-40.142-2.523c-5.111,6.497-8.444,13.912-19.587,10.269c-12.453-4.068-15.301-12.298-14.642-23.855
				c1.371-24.274-11.06-29.169-31.43-21.386c-8.826,3.366-16.836,8.023-25.123-1.601c-8.602-9.986-5.013-18.22,0.531-28.075
				c11.137-19.792,4.96-31.607-18.123-33.576c-9.808-0.842-18.64-2.572-19.934-14.975c-1.145-10.89,3.86-16.884,13.314-21.83
				c23.39-12.25,19.144-26.54,1.136-40.168c-6.961-5.264-13.139-9.368-9.302-19.938c3.828-10.549,10.581-14.472,21.255-13.839
				c28.328,1.676,32.355-12.226,22.096-35.002c-3.713-8.234-4.353-15.495,3.82-22.082c7.558-6.106,14.906-6.783,22.774-1.711
				c23.773,15.322,36.752,9.141,38.854-19.2c0.587-7.891,3.282-14.089,12.116-15.633c10.226-1.787,18.023,0.445,22.954,10.813
				C200.643,73.73,214.211,75.742,230.315,56.999z"/>
			<path class="st1" d="M300.076,198.691c0.49,55.42-44.98,101.05-100.37,100.74c-54.01-0.3-98.69-44.85-99.16-98.84
				c-0.48-55.59,44.71-100.95,100.3-100.67C254.876,100.181,299.596,144.711,300.076,198.691z"/>
			<path class="st2" d="M201.566,174.821c13.89,2.81,23.26,10.52,22.99,24.77c-0.29,15.63-10.01,25.07-25.68,24.3
				c-13.94-0.68-23.04-9.88-22.84-24.11C176.256,184.041,186.426,176.281,201.566,174.821z"/>
			<g>
				<g>
					<g>
						<path class="st3" d="M219.515,154.478c-3.03,10.753-6.037,21.41-9.032,32.067c-5.466,19.455-10.952,38.902-16.366,58.373
							c-1.279,4.603-3.106,9.073-8.823,7.536c-5.452-1.467-5.505-5.764-4.08-10.748c8.373-29.276,16.537-58.614,24.701-87.949
							c1.216-4.371,2.982-8.18,8.312-7.261C218.417,147.217,220.012,150.383,219.515,154.478z"/>
						<path class="st3" d="M173.4,229.604c0.101,2.816-1.326,4.808-3.665,6.039c-2.407,1.268-4.913,1.035-6.974-0.799
							c-11.387-10.113-22.793-20.207-34.033-30.481c-2.869-2.623-2.942-6.2-0.09-8.862c11.13-10.391,22.397-20.643,33.749-30.795
							c2.885-2.578,6.227-2.278,8.885,0.61c3.04,3.303,2.304,6.699-0.699,9.526c-7.461,7.025-14.922,14.058-22.661,20.768
							c-3.682,3.194-3.624,5.315,0.068,8.422c7.199,6.064,14.091,12.493,21.066,18.818
							C171.076,224.693,173.349,226.451,173.4,229.604z"/>
						<path class="st3" d="M233.091,236.017c-2.805-0.071-4.721-1.598-5.793-4.022c-1.448-3.274-0.052-5.873,2.395-8.11
							c6.948-6.358,13.598-13.084,20.909-18.988c5.505-4.447,4.639-7.304-0.309-11.334c-7.077-5.768-13.661-12.143-20.456-18.253
							c-3.243-2.918-4.975-6.314-1.692-10.079c3.57-4.09,7.229-2.703,10.785,0.501c9.885,8.892,19.777,17.776,29.821,26.487
							c5.327,4.62,5.887,8.863,0.369,13.758c-10.153,9.006-20.14,18.2-30.196,27.318
							C237.258,234.805,235.548,236.206,233.091,236.017z"/>
					</g>
				</g>
			</g>
		</g>
	</g>
</g>
<g>
</g>
<g>
</g>
<g>
</g>
<g>
</g>
<g>
</g>
<g>
</g>
<g>
</g>
<g>
</g>
<g>
</g>
<g>
</g>
<g>
</g>
<g>
</g>
<g>
</g>
<g>
</g>
<g>
</g>
</svg>
