<?xml version="1.0" encoding="utf-8"?>
<!-- Generator: Adobe Illustrator 26.0.1, SVG Export Plug-In . SVG Version: 6.00 Build 0)  -->
<svg version="1.1" id="Calque_1" xmlns="http://www.w3.org/2000/svg" xmlns:xlink="http://www.w3.org/1999/xlink" x="0px" y="0px"
	 viewBox="0 0 400 400" style="enable-background:new 0 0 400 400;" xml:space="preserve">
<style type="text/css">
	.st0{fill:#E07E64;}
	.st1{fill:#FDF8F7;}
	.st2{fill:#FCF6F4;}
	.st3{fill:#DF7A5F;}
</style>
<g>
	<g>
		<g>
			<path class="st0" d="M289.826,84.588c8.038-4.814,15.47-10.036,24.568-0.423c9.286,9.811,5.974,18.432,0.779,28.137
				c-10.606,19.841-1.644,29.449,18.072,31.589c10.493,1.143,20.845-0.098,23.824,14.032c2.784,13.21-5.812,17.873-14.456,24.289
				c-16.449,12.214-16.957,25.001,1.5,36.506c7.894,4.925,16.748,9.302,13.189,21.52c-3.508,12.059-11.781,14.917-23.535,15.406
				c-24.298,1.003-27.139,15.13-17.773,34.05c4.334,8.757,8.909,16.093-0.771,24.556c-8.637,7.563-16.538,6.357-25.508,1.358
				c-23.468-13.092-32.419-2.142-33.76,20.827c-0.497,8.498-1.168,16.391-11.626,19.359c-10.668,3.035-17.997-0.168-23.668-9.28
				c-13.854-22.263-27.8-23.154-41.456,0.217c-4.586,7.844-10.272,13.012-20.199,9.657c-10.107-3.41-14.372-9.939-14.497-20.993
				c-0.279-25.652-13.968-30.028-34.973-19.865c-7.442,3.599-13.688,8.803-22.107,0.644c-9.41-9.115-8.362-17.761-2.703-27.86
				c11.873-21.216,2.847-31.065-18.874-32.999c-9.409-0.844-18.649-0.169-21.878-12.452c-3.353-12.746,3.481-18.574,12.785-25.001
				c18.686-12.906,18.314-26.234-1.57-38.123c-8.446-5.056-15.626-10.483-11.352-22.198c3.744-10.29,10.871-13.483,21.536-13.784
				c26.393-0.757,28.841-15.461,18.63-35.605c-3.949-7.783-7.702-14.18,0.379-21.998c8.065-7.803,15.854-8.369,25.17-3.121
				c24.727,13.925,34.44,3.195,35.204-21.773c0.273-9.028,2.88-15.835,13.113-18.173c9.47-2.175,16.371,0.438,21.219,8.446
				c14.651,24.192,29.025,24.327,43.339-0.225c3.987-6.835,9.126-11.224,17.743-8.74c9.974,2.876,16.004,8.301,15.891,19.781
				C255.823,86.618,267.136,94.374,289.826,84.588z"/>
			<path class="st1" d="M300.076,198.691c0.49,55.42-44.98,101.05-100.37,100.74c-54.01-0.3-98.69-44.85-99.16-98.84
				c-0.48-55.59,44.71-100.95,100.3-100.67C254.876,100.181,299.596,144.711,300.076,198.691z"/>
			<path class="st2" d="M201.566,174.821c13.89,2.81,23.26,10.52,22.99,24.77c-0.29,15.63-10.01,25.07-25.68,24.3
				c-13.94-0.68-23.04-9.88-22.84-24.11C176.256,184.041,186.426,176.281,201.566,174.821z"/>
			<g>
				<g>
					<g>
						<path class="st3" d="M219.515,154.478c-3.03,10.753-6.037,21.41-9.032,32.067c-5.466,19.455-10.952,38.902-16.366,58.373
							c-1.279,4.603-3.106,9.073-8.823,7.536c-5.452-1.467-5.505-5.764-4.08-10.748c8.373-29.276,16.537-58.614,24.701-87.949
							c1.216-4.371,2.982-8.18,8.312-7.261C218.417,147.217,220.012,150.383,219.515,154.478z"/>
						<path class="st3" d="M173.4,229.604c0.101,2.816-1.326,4.808-3.665,6.039c-2.407,1.268-4.913,1.035-6.974-0.799
							c-11.387-10.113-22.793-20.207-34.033-30.481c-2.869-2.623-2.942-6.2-0.09-8.862c11.13-10.391,22.397-20.643,33.749-30.795
							c2.885-2.578,6.227-2.278,8.885,0.61c3.04,3.303,2.304,6.699-0.699,9.526c-7.461,7.025-14.922,14.058-22.661,20.768
							c-3.682,3.194-3.624,5.315,0.068,8.422c7.199,6.064,14.091,12.493,21.066,18.818
							C171.076,224.693,173.349,226.451,173.4,229.604z"/>
						<path class="st3" d="M233.091,236.017c-2.805-0.071-4.721-1.598-5.793-4.022c-1.448-3.274-0.052-5.873,2.395-8.11
							c6.948-6.358,13.598-13.084,20.909-18.988c5.505-4.447,4.639-7.304-0.309-11.334c-7.077-5.768-13.661-12.143-20.456-18.253
							c-3.243-2.918-4.975-6.314-1.692-10.079c3.57-4.09,7.229-2.703,10.785,0.501c9.885,8.892,19.777,17.776,29.821,26.487
							c5.327,4.62,5.887,8.863,0.369,13.758c-10.153,9.006-20.14,18.2-30.196,27.318
							C237.258,234.805,235.548,236.206,233.091,236.017z"/>
					</g>
				</g>
			</g>
		</g>
	</g>
</g>
<g>
</g>
<g>
</g>
<g>
</g>
<g>
</g>
<g>
</g>
<g>
</g>
<g>
</g>
<g>
</g>
<g>
</g>
<g>
</g>
<g>
</g>
<g>
</g>
<g>
</g>
<g>
</g>
<g>
</g>
</svg>
