<?xml version="1.0" encoding="utf-8"?>
<!-- Generator: Adobe Illustrator 26.0.1, SVG Export Plug-In . SVG Version: 6.00 Build 0)  -->
<svg version="1.1" id="Calque_1" xmlns="http://www.w3.org/2000/svg" xmlns:xlink="http://www.w3.org/1999/xlink" x="0px" y="0px"
	 viewBox="0 0 400 400" style="enable-background:new 0 0 400 400;" xml:space="preserve">
<style type="text/css">
	.st0{fill:#E07E64;}
	.st1{fill:#FDF8F7;}
	.st2{fill:#FCF6F4;}
	.st3{fill:#DF7A5F;}
</style>
<g>
	<g>
		<g>
			<path class="st0" d="M327.991,270.035c6.013,7.186,12.332,13.709,4.261,24.199c-8.238,10.706-17.27,8.784-27.669,5.171
				c-21.256-7.372-29.344,2.983-28.373,22.791c0.513,10.543,3.358,20.573-10.133,25.725c-12.611,4.816-18.562-2.945-26.252-10.478
				c-14.636-14.336-27.346-12.837-35.822,7.192c-3.629,8.567-6.568,17.997-19.192,16.393c-12.459-1.579-16.577-9.302-18.898-20.835
				c-4.792-23.842-19.189-24.438-36.411-12.227c-7.971,5.651-14.501,11.316-24.374,3.08c-8.821-7.347-8.866-15.34-5.332-24.981
				c9.26-25.227-2.956-32.355-25.852-30.086c-8.471,0.838-16.372,1.411-20.939-8.454c-4.666-10.062-2.65-17.801,5.464-24.829
				c19.822-17.166,18.52-31.08-6.7-40.912c-8.465-3.302-14.459-8.11-12.698-18.44c1.787-10.516,7.568-15.75,18.467-17.603
				c25.293-4.288,27.473-18.493,14.15-37.65c-4.719-6.788-10.836-12.143-4.094-21.734c7.531-10.72,16.234-11.037,27.094-7.028
				c22.812,8.408,31.128-2.048,29.641-23.804c-0.639-9.425-2.75-18.446,8.876-23.557c12.065-5.306,18.89,0.533,26.693,8.717
				c15.67,16.437,28.776,13.985,37.408-7.515c3.673-9.133,7.91-17.073,20.149-14.685c10.749,2.089,15.018,8.628,16.983,19.115
				c4.876,25.95,19.783,26.067,38.081,12.83c7.07-5.118,12.8-9.826,21.786-3.066c8.969,6.745,10.746,14.35,7.02,24.372
				c-9.885,26.6,2.232,34.516,27.013,31.365c8.96-1.143,16.09,0.367,20.001,10.109c3.63,9.013,2.129,16.238-5.023,22.279
				c-21.603,18.255-19.487,32.473,7.001,42.77c7.374,2.869,12.514,7.258,11.408,16.157c-1.281,10.302-5.695,17.105-17.052,18.79
				C320.667,236.768,314.776,249.155,327.991,270.035z"/>
			<path class="st1" d="M300.076,198.691c0.49,55.42-44.98,101.05-100.37,100.74c-54.01-0.3-98.69-44.85-99.16-98.84
				c-0.48-55.59,44.71-100.95,100.3-100.67C254.876,100.181,299.596,144.711,300.076,198.691z"/>
			<path class="st2" d="M201.566,174.821c13.89,2.81,23.26,10.52,22.99,24.77c-0.29,15.63-10.01,25.07-25.68,24.3
				c-13.94-0.68-23.04-9.88-22.84-24.11C176.256,184.041,186.426,176.281,201.566,174.821z"/>
			<g>
				<g>
					<g>
						<path class="st3" d="M219.515,154.478c-3.03,10.753-6.037,21.41-9.032,32.067c-5.466,19.455-10.952,38.902-16.366,58.373
							c-1.279,4.603-3.106,9.073-8.823,7.536c-5.452-1.467-5.505-5.764-4.08-10.748c8.373-29.276,16.537-58.614,24.701-87.949
							c1.216-4.371,2.982-8.18,8.312-7.261C218.417,147.217,220.012,150.383,219.515,154.478z"/>
						<path class="st3" d="M173.4,229.604c0.101,2.816-1.326,4.808-3.665,6.039c-2.407,1.268-4.913,1.035-6.974-0.799
							c-11.387-10.113-22.793-20.207-34.033-30.481c-2.869-2.623-2.942-6.2-0.09-8.862c11.13-10.391,22.397-20.643,33.749-30.795
							c2.885-2.578,6.227-2.278,8.885,0.61c3.04,3.303,2.304,6.699-0.699,9.526c-7.461,7.025-14.922,14.058-22.661,20.768
							c-3.682,3.194-3.624,5.315,0.068,8.422c7.199,6.064,14.091,12.493,21.066,18.818
							C171.076,224.693,173.349,226.451,173.4,229.604z"/>
						<path class="st3" d="M233.091,236.017c-2.805-0.071-4.721-1.598-5.793-4.022c-1.448-3.274-0.052-5.873,2.395-8.11
							c6.948-6.358,13.598-13.084,20.909-18.988c5.505-4.447,4.639-7.304-0.309-11.334c-7.077-5.768-13.661-12.143-20.456-18.253
							c-3.243-2.918-4.975-6.314-1.692-10.079c3.57-4.09,7.229-2.703,10.785,0.501c9.885,8.892,19.777,17.776,29.821,26.487
							c5.327,4.62,5.887,8.863,0.369,13.758c-10.153,9.006-20.14,18.2-30.196,27.318
							C237.258,234.805,235.548,236.206,233.091,236.017z"/>
					</g>
				</g>
			</g>
		</g>
	</g>
</g>
<g>
</g>
<g>
</g>
<g>
</g>
<g>
</g>
<g>
</g>
<g>
</g>
<g>
</g>
<g>
</g>
<g>
</g>
<g>
</g>
<g>
</g>
<g>
</g>
<g>
</g>
<g>
</g>
<g>
</g>
</svg>
