<?xml version="1.0" encoding="utf-8"?>
<!-- Generator: Adobe Illustrator 26.0.1, SVG Export Plug-In . SVG Version: 6.00 Build 0)  -->
<svg version="1.1" id="Calque_1" xmlns="http://www.w3.org/2000/svg" xmlns:xlink="http://www.w3.org/1999/xlink" x="0px" y="0px"
	 viewBox="0 0 400 400" style="enable-background:new 0 0 400 400;" xml:space="preserve">
<style type="text/css">
	.st0{fill:#E07E64;}
	.st1{fill:#FDF8F7;}
	.st2{fill:#FCF6F4;}
	.st3{fill:#DF7A5F;}
</style>
<g>
	<g>
		<g>
			<path class="st0" d="M235.927,341.008c-1.155,9.298-1.616,18.369-14.792,19.62c-13.448,1.277-18.202-6.64-22.652-16.709
				c-9.105-20.573-22.194-19.426-36.019-5.208c-7.361,7.565-12.756,16.487-25.725,10.134c-12.123-5.939-10.506-15.584-10.24-26.345
				c0.503-20.482-9.261-28.754-29.69-21.294c-8.741,3.188-17.641,7.471-25.078-2.856c-7.343-10.189-4.502-18.467,2.349-28.03
				c14.169-19.765,4.786-30.7-15.89-34.969c-9.569-1.976-18.166-2.888-18.876-15.726c-0.642-11.462,5.173-16.946,14.634-20.936
				c24.765-10.433,21.647-24.228,4.372-39.426c-6.391-5.624-12.197-11.011-8.097-21.08c4.177-10.275,11.212-14.078,21.885-12.937
				c26.073,2.789,35.361-7.652,25.352-32.802c-3.358-8.443-3.929-16.106,4.826-21.862c8.91-5.865,16.68-5.206,25.468,1.501
				c20.386,15.573,32.262,7.48,37.186-15.329c1.746-8.08,1.491-16.206,13.103-17.817c12.976-1.803,19.144,4.346,23.618,15.022
				c9.408,22.418,22.727,21.369,37.624,5.444c6.457-6.895,11.615-14.592,23.282-9.574c12.109,5.205,12.493,14.179,11.83,25.467
				c-1.334,22.671,9.397,30.583,31.008,22.233c9.184-3.543,17.881-5.859,24.482,4.721c5.803,9.286,3.932,16.867-2.397,25.457
				c-15.653,21.264-5.573,32.246,16.588,36.601c8.564,1.68,15.916,2.66,17.101,13.842c1.184,11.16-3.166,17.646-13.037,21.756
				c-26.196,10.912-23.721,25.172-4.516,41.146c6.946,5.773,10.705,12.018,6.247,21.522c-4.116,8.801-10.424,12.631-19.719,11.521
				c-28.084-3.349-37.039,7.895-26.505,34.29c2.931,7.35,3.227,14.102-4.036,19.362c-8.408,6.089-16.394,7.501-25.371,0.344
				C255.262,312.964,242.185,317.103,235.927,341.008z"/>
			<path class="st1" d="M300.076,198.691c0.49,55.42-44.98,101.05-100.37,100.74c-54.01-0.3-98.69-44.85-99.16-98.84
				c-0.48-55.59,44.71-100.95,100.3-100.67C254.876,100.181,299.596,144.711,300.076,198.691z"/>
			<path class="st2" d="M201.566,174.821c13.89,2.81,23.26,10.52,22.99,24.77c-0.29,15.63-10.01,25.07-25.68,24.3
				c-13.94-0.68-23.04-9.88-22.84-24.11C176.256,184.041,186.426,176.281,201.566,174.821z"/>
			<g>
				<g>
					<g>
						<path class="st3" d="M219.515,154.478c-3.03,10.753-6.037,21.41-9.032,32.067c-5.466,19.455-10.952,38.902-16.366,58.373
							c-1.279,4.603-3.106,9.073-8.823,7.536c-5.452-1.467-5.505-5.764-4.08-10.748c8.373-29.276,16.537-58.614,24.701-87.949
							c1.216-4.371,2.982-8.18,8.312-7.261C218.417,147.217,220.012,150.383,219.515,154.478z"/>
						<path class="st3" d="M173.4,229.604c0.101,2.816-1.326,4.808-3.665,6.039c-2.407,1.268-4.913,1.035-6.974-0.799
							c-11.387-10.113-22.793-20.207-34.033-30.481c-2.869-2.623-2.942-6.2-0.09-8.862c11.13-10.391,22.397-20.643,33.749-30.795
							c2.885-2.578,6.227-2.278,8.885,0.61c3.04,3.303,2.304,6.699-0.699,9.526c-7.461,7.025-14.922,14.058-22.661,20.768
							c-3.682,3.194-3.624,5.315,0.068,8.422c7.199,6.064,14.091,12.493,21.066,18.818
							C171.076,224.693,173.349,226.451,173.4,229.604z"/>
						<path class="st3" d="M233.091,236.017c-2.805-0.071-4.721-1.598-5.793-4.022c-1.448-3.274-0.052-5.873,2.395-8.11
							c6.948-6.358,13.598-13.084,20.909-18.988c5.505-4.447,4.639-7.304-0.309-11.334c-7.077-5.768-13.661-12.143-20.456-18.253
							c-3.243-2.918-4.975-6.314-1.692-10.079c3.57-4.09,7.229-2.703,10.785,0.501c9.885,8.892,19.777,17.776,29.821,26.487
							c5.327,4.62,5.887,8.863,0.369,13.758c-10.153,9.006-20.14,18.2-30.196,27.318
							C237.258,234.805,235.548,236.206,233.091,236.017z"/>
					</g>
				</g>
			</g>
		</g>
	</g>
</g>
<g>
</g>
<g>
</g>
<g>
</g>
<g>
</g>
<g>
</g>
<g>
</g>
<g>
</g>
<g>
</g>
<g>
</g>
<g>
</g>
<g>
</g>
<g>
</g>
<g>
</g>
<g>
</g>
<g>
</g>
</svg>
