<?xml version="1.0" encoding="utf-8"?>
<!-- Generator: Adobe Illustrator 26.0.1, SVG Export Plug-In . SVG Version: 6.00 Build 0)  -->
<svg version="1.1" id="Calque_1" xmlns="http://www.w3.org/2000/svg" xmlns:xlink="http://www.w3.org/1999/xlink" x="0px" y="0px"
	 viewBox="0 0 400 400" style="enable-background:new 0 0 400 400;" xml:space="preserve">
<style type="text/css">
	.st0{fill:#E07E64;}
	.st1{fill:#FDF8F7;}
	.st2{fill:#FCF6F4;}
	.st3{fill:#DF7A5F;}
</style>
<g>
	<g>
		<g>
			<path class="st0" d="M54.599,202.537c-8.8-3.217-17.535-5.706-15.79-18.826c1.781-13.391,10.565-16.242,21.376-18.313
				c22.094-4.244,23.921-17.255,13.176-33.924c-5.715-8.874-13.195-16.138-4.088-27.345c8.514-10.476,17.548-6.731,27.974-4.051
				c19.844,5.097,30.101-2.555,27.427-24.139c-1.14-9.234-3.311-18.87,8.424-23.793c11.58-4.862,19.007-0.233,26.784,8.594
				c16.071,18.252,28.837,11.57,37.647-7.616c4.078-8.879,6.9-17.051,19.569-14.855c11.313,1.952,15.348,8.852,17.108,18.968
				c4.595,26.477,18.737,26.543,37.432,13.129c6.917-4.962,13.473-9.408,22.361-3.148c9.072,6.381,11.195,14.092,7.683,24.234
				c-8.583,24.777-0.499,36.176,26.258,32.081c8.982-1.373,16.577-0.206,20.216,9.62c3.71,10.001,1.321,17.424-7.191,24.478
				c-19.76,16.36-14.546,29.752,6.571,39.681c7.48,3.519,15.455,5.098,14.412,16.775c-1.162,13.049-8.541,17.676-19.95,19.633
				c-23.96,4.124-25.934,17.338-13.768,35.435c5.266,7.843,11.605,14.599,4.092,24.839c-7.796,10.628-16.626,8.983-27.475,5.798
				c-21.79-6.4-31.913,2.277-28.639,25.212c1.386,9.746,1.687,18.741-10.107,22.792c-10.353,3.566-17.319,0.037-24.265-8.063
				c-17.198-20.035-30.166-12.683-39.394,7.929c-3.563,7.967-6.172,14.909-17.334,13.549c-11.14-1.357-16.481-7.055-18.265-17.597
				c-4.739-27.979-19.191-28.776-39.076-13.656c-7.188,5.47-14.118,7.727-22.376,1.246c-7.65-5.991-9.962-12.998-6.79-21.805
				c9.581-26.611,0.639-37.866-27.448-33.539c-7.821,1.203-14.466-0.028-17.958-8.288c-4.042-9.562-3.621-17.661,5.372-24.798
				C77.575,227.685,76.484,214.012,54.599,202.537z"/>
			<path class="st1" d="M300.076,198.691c0.49,55.42-44.98,101.05-100.37,100.74c-54.01-0.3-98.69-44.85-99.16-98.84
				c-0.48-55.59,44.71-100.95,100.3-100.67C254.876,100.181,299.596,144.711,300.076,198.691z"/>
			<path class="st2" d="M201.566,174.821c13.89,2.81,23.26,10.52,22.99,24.77c-0.29,15.63-10.01,25.07-25.68,24.3
				c-13.94-0.68-23.04-9.88-22.84-24.11C176.256,184.041,186.426,176.281,201.566,174.821z"/>
			<g>
				<g>
					<g>
						<path class="st3" d="M219.515,154.478c-3.03,10.753-6.037,21.41-9.032,32.067c-5.466,19.455-10.952,38.902-16.366,58.373
							c-1.279,4.603-3.106,9.073-8.823,7.536c-5.452-1.467-5.505-5.764-4.08-10.748c8.373-29.276,16.537-58.614,24.701-87.949
							c1.216-4.371,2.982-8.18,8.312-7.261C218.417,147.217,220.012,150.383,219.515,154.478z"/>
						<path class="st3" d="M173.4,229.604c0.101,2.816-1.326,4.808-3.665,6.039c-2.407,1.268-4.913,1.035-6.974-0.799
							c-11.387-10.113-22.793-20.207-34.033-30.481c-2.869-2.623-2.942-6.2-0.09-8.862c11.13-10.391,22.397-20.643,33.749-30.795
							c2.885-2.578,6.227-2.278,8.885,0.61c3.04,3.303,2.304,6.699-0.699,9.526c-7.461,7.025-14.922,14.058-22.661,20.768
							c-3.682,3.194-3.624,5.315,0.068,8.422c7.199,6.064,14.091,12.493,21.066,18.818
							C171.076,224.693,173.349,226.451,173.4,229.604z"/>
						<path class="st3" d="M233.091,236.017c-2.805-0.071-4.721-1.598-5.793-4.022c-1.448-3.274-0.052-5.873,2.395-8.11
							c6.948-6.358,13.598-13.084,20.909-18.988c5.505-4.447,4.639-7.304-0.309-11.334c-7.077-5.768-13.661-12.143-20.456-18.253
							c-3.243-2.918-4.975-6.314-1.692-10.079c3.57-4.09,7.229-2.703,10.785,0.501c9.885,8.892,19.777,17.776,29.821,26.487
							c5.327,4.62,5.887,8.863,0.369,13.758c-10.153,9.006-20.14,18.2-30.196,27.318
							C237.258,234.805,235.548,236.206,233.091,236.017z"/>
					</g>
				</g>
			</g>
		</g>
	</g>
</g>
<g>
</g>
<g>
</g>
<g>
</g>
<g>
</g>
<g>
</g>
<g>
</g>
<g>
</g>
<g>
</g>
<g>
</g>
<g>
</g>
<g>
</g>
<g>
</g>
<g>
</g>
<g>
</g>
<g>
</g>
</svg>
