<?xml version="1.0" encoding="utf-8"?>
<!-- Generator: Adobe Illustrator 26.0.1, SVG Export Plug-In . SVG Version: 6.00 Build 0)  -->
<svg version="1.1" id="Calque_1" xmlns="http://www.w3.org/2000/svg" xmlns:xlink="http://www.w3.org/1999/xlink" x="0px" y="0px"
	 viewBox="0 0 400 400" style="enable-background:new 0 0 400 400;" xml:space="preserve">
<style type="text/css">
	.st0{fill:#E07E64;}
	.st1{fill:#FDF8F7;}
	.st2{fill:#FCF6F4;}
	.st3{fill:#DF7A5F;}
</style>
<g>
	<g>
		<g>
			<path class="st0" d="M57.317,227.794c-9.225-1.64-18.259-2.575-18.819-15.799c-0.571-13.496,7.584-17.83,17.872-21.746
				c21.021-8.016,20.561-21.147,7.085-35.697c-7.17-7.747-15.796-13.601-8.774-26.22c6.565-11.796,16.112-9.676,26.845-8.847
				c20.427,1.574,29.2-7.743,22.818-28.535c-2.726-8.895-6.537-18.008,4.164-24.894c10.559-6.799,18.678-3.53,27.869,3.813
				c18.996,15.184,30.408,6.386,35.752-14.038c2.474-9.452,3.834-17.99,16.692-18.027c11.48-0.042,16.652,6.052,20.142,15.71
				c9.122,25.277,23.062,22.886,39.143,6.43c5.951-6.087,11.634-11.604,21.474-6.983c10.042,4.709,13.472,11.934,11.774,22.532
				c-4.15,25.891,5.791,35.713,31.43,27.034c8.607-2.911,16.289-3.081,21.58,5.963c5.391,9.205,4.326,16.93-2.831,25.355
				c-16.619,19.543-9.159,31.826,13.362,37.937c7.978,2.166,16.106,2.337,17.106,14.018c1.122,13.053-5.342,18.89-16.238,22.799
				c-22.88,8.222-22.529,21.578-7.405,37.287c6.548,6.809,13.964,12.363,8.343,23.751c-5.832,11.82-14.813,11.734-26.051,10.481
				c-22.57-2.519-31.033,7.784-23.825,29.802c3.057,9.357,4.915,18.163-5.996,24.201c-9.577,5.309-17.05,3.044-25.297-3.726
				c-20.416-16.744-31.91-7.253-37.419,14.649c-2.126,8.465-3.49,15.755-14.718,16.353c-11.206,0.598-17.456-4.086-21.043-14.158
				c-9.526-26.731-23.896-25.006-40.854-6.663c-6.129,6.635-12.562,10.061-21.819,5.112c-8.574-4.571-12.068-11.071-10.473-20.295
				c4.815-27.87-5.946-37.402-32.855-28.263c-7.493,2.543-14.251,2.484-19.124-5.044c-5.641-8.715-6.632-16.764,0.984-25.355
				C84.311,248.571,80.862,235.295,57.317,227.794z"/>
			<path class="st1" d="M300.076,198.691c0.49,55.42-44.98,101.05-100.37,100.74c-54.01-0.3-98.69-44.85-99.16-98.84
				c-0.48-55.59,44.71-100.95,100.3-100.67C254.876,100.181,299.596,144.711,300.076,198.691z"/>
			<path class="st2" d="M201.566,174.821c13.89,2.81,23.26,10.52,22.99,24.77c-0.29,15.63-10.01,25.07-25.68,24.3
				c-13.94-0.68-23.04-9.88-22.84-24.11C176.256,184.041,186.426,176.281,201.566,174.821z"/>
			<g>
				<g>
					<g>
						<path class="st3" d="M219.515,154.478c-3.03,10.753-6.037,21.41-9.032,32.067c-5.466,19.455-10.952,38.902-16.366,58.373
							c-1.279,4.603-3.106,9.073-8.823,7.536c-5.452-1.467-5.505-5.764-4.08-10.748c8.373-29.276,16.537-58.614,24.701-87.949
							c1.216-4.371,2.982-8.18,8.312-7.261C218.417,147.217,220.012,150.383,219.515,154.478z"/>
						<path class="st3" d="M173.4,229.604c0.101,2.816-1.326,4.808-3.665,6.039c-2.407,1.268-4.913,1.035-6.974-0.799
							c-11.387-10.113-22.793-20.207-34.033-30.481c-2.869-2.623-2.942-6.2-0.09-8.862c11.13-10.391,22.397-20.643,33.749-30.795
							c2.885-2.578,6.227-2.278,8.885,0.61c3.04,3.303,2.304,6.699-0.699,9.526c-7.461,7.025-14.922,14.058-22.661,20.768
							c-3.682,3.194-3.624,5.315,0.068,8.422c7.199,6.064,14.091,12.493,21.066,18.818
							C171.076,224.693,173.349,226.451,173.4,229.604z"/>
						<path class="st3" d="M233.091,236.017c-2.805-0.071-4.721-1.598-5.793-4.022c-1.448-3.274-0.052-5.873,2.395-8.11
							c6.948-6.358,13.598-13.084,20.909-18.988c5.505-4.447,4.639-7.304-0.309-11.334c-7.077-5.768-13.661-12.143-20.456-18.253
							c-3.243-2.918-4.975-6.314-1.692-10.079c3.57-4.09,7.229-2.703,10.785,0.501c9.885,8.892,19.777,17.776,29.821,26.487
							c5.327,4.62,5.887,8.863,0.369,13.758c-10.153,9.006-20.14,18.2-30.196,27.318
							C237.258,234.805,235.548,236.206,233.091,236.017z"/>
					</g>
				</g>
			</g>
		</g>
	</g>
</g>
<g>
</g>
<g>
</g>
<g>
</g>
<g>
</g>
<g>
</g>
<g>
</g>
<g>
</g>
<g>
</g>
<g>
</g>
<g>
</g>
<g>
</g>
<g>
</g>
<g>
</g>
<g>
</g>
<g>
</g>
</svg>
