<?xml version="1.0" encoding="utf-8"?>
<!-- Generator: Adobe Illustrator 26.0.1, SVG Export Plug-In . SVG Version: 6.00 Build 0)  -->
<svg version="1.1" id="Calque_1" xmlns="http://www.w3.org/2000/svg" xmlns:xlink="http://www.w3.org/1999/xlink" x="0px" y="0px"
	 viewBox="0 0 56.483 47.636" style="enable-background:new 0 0 56.483 47.636;" xml:space="preserve">
<style type="text/css">
	.st0{display:none;}
	.st1{display:inline;}
	.st2{fill:#FEFEFE;}
	.st3{fill:#DF7A5F;}
	.st4{fill:#FEFDFD;}
	.st5{fill:#DF7B61;}
	.st6{display:none;fill:#DF7A5F;}
</style>
<g class="st0">
	<g class="st1">
		<path class="st2" d="M-20.415,83.636c0-33.333,0-66.667,0-100c33.333,0,66.667,0,100,0c0,33.333,0,66.667,0,100
			C46.252,83.636,12.918,83.636-20.415,83.636z M-2.367,77.461c4.241,0,8.027,0,11.636,0c1.779-3.334,2.089-6.999,4.275-9.976
			c2.625-3.574,5.739-5.677,10.368-5.937c5.398-0.304,11.079-3.178,12.639-9.631c0.308-1.272,0.87-2.246,2.12-2.235
			c2.648,0.022,4.441-1.862,6.113-3.216c1.438-1.164,1.912-1.662,3.857-0.977c2.262,0.797,4.822,0.029,6.54-1.993
			c1.155-1.359,2.411-1.909,4.24-1.93c2.377-0.027,4.713-0.671,6.365-2.646c0.791-0.946,1.739-1.177,2.96-1.353
			c3.048-0.44,6.243-1.687,7.515-4.375c1.187-2.509,2.479-5.589,0.742-8.699c-0.704-1.259-0.387-2.585,0.122-4.083
			c0.578-1.697,0.475-3.862-0.021-5.629c-0.602-2.141-1.727-4.599-4.127-5.022c-2.211-0.389-2.393-2.065-3.005-3.334
			c-1.494-3.095-3.744-5.012-7.059-5.8c-2.075-0.494-4.041-1.496-5.064-3.327c-1.397-2.502-3.834-3.518-6.07-4.571
			c-3.583-1.686-6.468-1.372-11.653-0.199c-1.333,0.302-2.636-0.042-4.11-0.765c-5.453-2.677-11.21-3.44-16.734-0.075
			c-1.717,1.046-2.98,0.963-4.878,0.415C10.235-9.1,6.159-8.571,2.907-5.192c-0.923,0.96-1.88,1.888-2.824,2.828
			c-1.166,0-2.364-0.177-3.491,0.031C-8.088-1.468-13.643,4.563-14.374,9.605c-0.146,1.01-0.21,1.833-1.054,2.586
			c-3.631,3.236-3.989,7.114-1.668,11.183c0.933,1.634,0.977,2.873,0.049,4.468c-0.683,1.175-1.114,2.575-1.332,3.927
			c-0.585,3.624,1.395,6.138,3.964,8.315c0,0.688-0.004,1.35,0.001,2.013c0.033,4.686,1.964,8.413,6.307,10.213
			c2.786,1.155,5.283,2.569,7.753,4.249c1.407,0.957,1.606,1.384,1.088,3.09c-0.529,1.742-0.611,3.693-1.043,5.56
			c-0.421,1.819-0.309,3.71-1.007,5.593C-2.061,72.811-2.032,75.106-2.367,77.461z"/>
		<path class="st3" d="M-2.367,77.461c0.335-2.355,0.306-4.65,1.05-6.658c0.698-1.883,0.586-3.774,1.007-5.593
			c0.432-1.867,0.513-3.818,1.043-5.56c0.519-1.707,0.319-2.133-1.088-3.09c-2.469-1.68-4.967-3.094-7.753-4.249
			c-4.343-1.8-6.274-5.527-6.307-10.213c-0.005-0.663-0.001-1.325-0.001-2.013c-2.569-2.177-4.549-4.691-3.964-8.315
			c0.218-1.352,0.649-2.752,1.332-3.927c0.928-1.595,0.884-2.834-0.049-4.468c-2.322-4.069-1.963-7.947,1.668-11.183
			c0.844-0.753,0.908-1.576,1.054-2.586C-13.643,4.563-8.088-1.468-3.408-2.333c1.127-0.208,2.326-0.031,3.493-0.03
			c0.943-0.941,1.899-1.869,2.822-2.829C6.159-8.571,10.235-9.1,14.405-7.896c1.898,0.548,3.161,0.631,4.878-0.415
			c5.523-3.366,11.281-2.602,16.734,0.075c1.474,0.724,2.777,1.067,4.11,0.765c5.185-1.173,8.07-1.487,11.653,0.199
			c2.236,1.052,4.673,2.069,6.07,4.571c1.023,1.831,2.989,2.833,5.064,3.327c3.315,0.788,5.566,2.705,7.059,5.8
			c0.612,1.269,0.794,2.945,3.005,3.334c2.4,0.423,3.525,2.881,4.127,5.022c0.497,1.767,0.599,3.932,0.021,5.629
			c-0.51,1.498-0.826,2.824-0.122,4.083c1.737,3.109,0.445,6.19-0.742,8.699c-1.272,2.689-4.467,3.935-7.515,4.375
			c-1.221,0.176-2.169,0.407-2.96,1.353c-1.652,1.975-3.987,2.618-6.365,2.646c-1.829,0.021-3.085,0.57-4.24,1.93
			c-1.718,2.022-4.278,2.79-6.54,1.993c-1.945-0.686-2.419-0.188-3.857,0.977c-1.672,1.354-3.466,3.239-6.113,3.216
			c-1.25-0.011-1.812,0.964-2.12,2.235c-1.561,6.453-7.241,9.327-12.639,9.631c-4.629,0.26-7.743,2.363-10.368,5.937
			c-2.187,2.977-2.497,6.642-4.275,9.976C5.66,77.461,1.874,77.461-2.367,77.461z M35.599,3.732
			c-0.091,2.616-0.673,4.597-1.425,4.794c-2.11,0.552-3.856-0.016-5.023-1.956c-0.9,0.9-1.722,1.722-2.737,2.737
			c2.321,0.954,2.704,2.929,2.019,4.889c-0.75,2.145-3.109,1.171-4.758,1.55c0,1.342,0,2.457,0,3.785
			c1.683,0.35,4.034-0.578,4.774,1.564c0.672,1.946,0.05,3.84-1.897,4.956c0.908,0.931,1.718,1.76,2.88,2.95
			c1.001-1.033,1.986-2.05,2.983-3.08c0.882,0.597,2.266,1.089,2.861,2.062c0.593,0.972,0.396,2.426,0.523,3.488
			c1.394,0,2.506,0,3.916,0c-0.86-3.268,0.707-4.907,3.507-5.699c0.939,0.939,1.879,1.879,2.891,2.891
			c0.765-0.849,1.529-1.698,2.395-2.659c-1.783-1.064-2.479-2.941-1.822-4.869c0.727-2.133,3.056-1.298,4.661-1.569
			c0-1.457,0-2.682,0-3.892c-1.814-0.139-3.796,0.487-4.587-1.437c-0.847-2.057-0.045-3.832,1.909-5.042
			c-0.905-0.871-1.737-1.671-2.776-2.672c-0.899,2.303-2.928,2.611-4.836,1.979c-2.144-0.71-1.237-3.075-1.572-4.771
			C38.162,3.732,37.047,3.732,35.599,3.732z M15.411,47.636c0.057-0.745,0.07-1.521,0.182-2.282c0.326-2.228,0.98-2.632,3.132-2.766
			c1.418-0.089,2.045,0.793,2.873,1.548c0.178,0.162,0.45,0.222,0.126,0.07c1.102-0.778,1.998-1.411,3.113-2.199
			c-2.437-1.083-2.687-3.013-2.168-4.747c0.573-1.914,2.515-1.708,4.178-1.65c0.239,0.008,0.491-0.341,0.546-0.382
			c0-1.254,0-2.364,0-3.424c-1.675-0.462-3.689,0.531-4.566-1.461c-0.945-2.148,0.036-3.9,1.276-4.817
			c-0.845-1.057-1.518-1.899-2.229-2.788c-0.959,1.005-1.868,1.959-2.751,2.883c-1.09-0.728-2.462-1.212-3.082-2.179
			c-0.621-0.967-0.49-2.416-0.719-3.835c-1.317,0.076-2.538,0.147-4.019,0.232c1.34,3.573-1.046,4.604-3.778,5.851
			c-0.706-0.795-1.649-1.856-2.353-2.65c-0.882,0.676-1.767,1.355-2.827,2.168c2.235,1.114,2.659,2.891,2.19,4.736
			c-0.668,2.626-3.385,1.191-4.791,1.869c0,1.417,0,2.532,0,3.71c1.795,0.336,4.064-0.552,4.788,1.737
			c0.623,1.97-0.286,3.681-1.585,4.581c0.777,1.063,1.43,1.957,2.092,2.861c1.221-1.255,2.08-2.238,3.912-2.142
			c3.767,0.197,2.045,3.439,2.901,5.075C13.092,47.636,14.089,47.636,15.411,47.636z"/>
		<path class="st4" d="M35.599,3.732c1.448,0,2.563,0,3.885,0c0.335,1.696-0.573,4.061,1.572,4.771
			c1.909,0.632,3.937,0.324,4.836-1.979c1.039,1,1.871,1.801,2.776,2.672c-1.955,1.209-2.756,2.984-1.909,5.042
			c0.792,1.923,2.773,1.298,4.587,1.437c0,1.21,0,2.435,0,3.892c-1.605,0.272-3.934-0.564-4.661,1.569
			c-0.657,1.928,0.039,3.805,1.822,4.869c-0.866,0.961-1.631,1.811-2.395,2.659c-1.012-1.012-1.951-1.951-2.891-2.891
			c-2.799,0.792-4.367,2.432-3.507,5.699c-1.41,0-2.521,0-3.916,0c-0.127-1.062,0.07-2.516-0.523-3.488
			c-0.594-0.973-1.978-1.464-2.861-2.062c-0.997,1.03-1.982,2.047-2.983,3.08c-1.161-1.19-1.971-2.02-2.88-2.95
			c1.948-1.115,2.569-3.009,1.897-4.956c-0.739-2.142-3.091-1.214-4.774-1.564c0-1.329,0-2.444,0-3.785
			c1.649-0.379,4.008,0.595,4.758-1.55c0.685-1.961,0.301-3.935-2.019-4.889c1.015-1.015,1.837-1.837,2.737-2.737
			c1.167,1.939,2.913,2.508,5.023,1.956C34.926,8.329,35.508,6.347,35.599,3.732z M43.585,17.419
			c-0.464-3.342-2.692-5.906-6.214-5.721c-3.357,0.177-5.91,2.63-5.724,6.152c0.177,3.357,2.63,5.91,6.152,5.724
			C41.156,23.397,43.494,20.955,43.585,17.419z"/>
		<path class="st4" d="M15.411,47.636c-1.323,0-2.319,0-3.556,0c-0.856-1.636,0.866-4.878-2.901-5.075
			c-1.833-0.096-2.692,0.888-3.912,2.142c-0.661-0.905-1.314-1.798-2.092-2.861c1.3-0.901,2.209-2.612,1.585-4.581
			c-0.724-2.289-2.994-1.4-4.788-1.737c0-1.178,0-2.293,0-3.71c1.406-0.678,4.123,0.756,4.791-1.869
			c0.469-1.845,0.045-3.623-2.19-4.736c1.06-0.813,1.945-1.492,2.827-2.168c0.704,0.793,1.647,1.855,2.353,2.65
			c2.731-1.247,5.118-2.278,3.778-5.851c1.48-0.086,2.702-0.156,4.019-0.232c0.228,1.419,0.098,2.868,0.719,3.835
			c0.62,0.966,1.992,1.451,3.082,2.179c0.882-0.925,1.792-1.878,2.751-2.883c0.711,0.889,1.384,1.731,2.229,2.788
			c-1.24,0.917-2.22,2.669-1.276,4.817c0.876,1.993,2.891,1,4.566,1.461c0,1.059,0,2.17,0,3.424
			c-0.055,0.041-0.307,0.39-0.546,0.382c-1.663-0.058-3.606-0.264-4.178,1.65c-0.519,1.734-0.268,3.664,2.168,4.747
			c-1.115,0.788-2.011,1.42-3.113,2.199c0.325,0.151,0.052,0.092-0.126-0.07c-0.828-0.755-1.456-1.636-2.873-1.548
			c-2.153,0.135-2.806,0.538-3.132,2.766C15.482,46.115,15.468,46.891,15.411,47.636z M19.585,33.633
			c-0.04-3.107-2.762-5.982-6.003-5.988c-3.107-0.006-5.982,2.752-5.988,5.993c-0.006,3.107,2.752,5.982,5.993,5.988
			C16.695,39.632,19.534,36.874,19.585,33.633z"/>
		<path class="st5" d="M43.585,17.419c-0.091,3.537-2.429,5.978-5.786,6.155c-3.522,0.185-5.975-2.367-6.152-5.724
			c-0.185-3.522,2.367-5.975,5.724-6.152C40.893,11.512,43.121,14.076,43.585,17.419z"/>
		<path class="st5" d="M19.585,33.633c-0.051,3.241-2.891,5.998-5.997,5.993c-3.241-0.006-5.998-2.88-5.993-5.988
			c0.006-3.241,2.88-5.998,5.988-5.993C16.823,27.652,19.545,30.526,19.585,33.633z"/>
	</g>
</g>
<rect x="-2.415" y="16.636" class="st6" width="30" height="33"/>
<rect x="22.585" y="2.636" class="st6" width="30" height="31"/>
<g>
	<path class="st3" d="M2.807,26.821l1,0.754c0.789,0.595,0.938,1.775,0.328,2.584c-0.307,0.408-0.757,0.647-1.269,0.691
		l-1.084,0.141c-1.078,0.146-1.831,1.146-1.675,2.222l0.359,2.477c0.069,0.491,0.358,0.969,0.778,1.285s0.952,0.458,1.45,0.394
		l1.049-0.148c0.526-0.103,1.038,0.013,1.452,0.325c0.815,0.614,0.997,1.789,0.406,2.573l-0.734,0.974
		c-0.648,0.86-0.511,2.121,0.355,2.773l1.929,1.454c0.861,0.649,2.085,0.477,2.734-0.384l0.741-0.984
		c0.592-0.786,1.775-0.936,2.591-0.321c0.408,0.308,0.654,0.764,0.702,1.27l0.156,1.079c0.064,0.499,0.358,0.971,0.779,1.288
		c0.421,0.317,0.954,0.459,1.453,0.394l2.494-0.324c1.074-0.152,1.83-1.155,1.675-2.223l-0.147-1.052
		c-0.102-0.528,0.008-1.046,0.316-1.455c0.616-0.818,1.79-0.995,2.58-0.399l0.969,0.73c0.874,0.658,2.122,0.527,2.777-0.342
		l0.732-0.971l0.732-0.971c0.65-0.863,0.437-2.105-0.437-2.763l-0.995-0.75c-0.789-0.595-0.935-1.779-0.322-2.593
		c0.309-0.41,0.777-0.66,1.312-0.708l1.047-0.145c1.074-0.155,1.832-1.16,1.68-2.229l-0.348-2.492
		c-0.063-0.499-0.356-0.971-0.776-1.288s-0.953-0.457-1.452-0.391l-1.081,0.15c-0.494,0.1-1.006-0.015-1.414-0.322
		c-0.815-0.614-0.994-1.793-0.4-2.581l0.734-0.974c0.652-0.865,0.524-2.126-0.348-2.783l-1.929-1.454
		c-0.861-0.649-2.085-0.477-2.734,0.384l-0.796,1.057c-0.591,0.785-1.774,0.934-2.591,0.319c-0.408-0.308-0.657-0.775-0.714-1.309
		l-0.148-1.052c-0.076-0.497-0.359-0.971-0.78-1.288c-0.421-0.317-0.955-0.459-1.453-0.395l-2.49,0.344
		c-1.074,0.151-1.829,1.153-1.678,2.227l0.164,1.084c0.1,0.505-0.012,1.011-0.315,1.413c-0.615,0.817-1.789,0.993-2.58,0.397
		l-0.968-0.729c-0.822-0.62-1.991-0.455-2.61,0.367L3.232,23.19l-0.731,0.97C1.834,25.018,1.939,26.167,2.807,26.821z
		 M10.308,28.524L10.308,28.524c2.123-2.818,6.133-3.392,8.963-1.26s3.383,6.145,1.26,8.963l0,0l0,0
		c-2.123,2.818-6.133,3.392-8.963,1.26S8.185,31.342,10.308,28.524L10.308,28.524z"/>
	<path class="st3" d="M32.324,26.251l1-0.754c0.789-0.595,1.965-0.412,2.574,0.397c0.307,0.408,0.414,0.906,0.314,1.41l-0.163,1.081
		c-0.157,1.077,0.597,2.076,1.675,2.222l2.48,0.338c0.491,0.069,1.03-0.077,1.45-0.394c0.42-0.317,0.703-0.789,0.778-1.285
		l0.147-1.049c0.046-0.534,0.299-0.994,0.713-1.306c0.815-0.614,1.995-0.465,2.585,0.318l0.734,0.974
		c0.648,0.86,1.898,1.076,2.764,0.423l1.929-1.454c0.861-0.649,1.033-1.873,0.384-2.734l-0.741-0.984
		c-0.592-0.786-0.411-1.964,0.406-2.58c0.408-0.308,0.914-0.419,1.415-0.325l1.081,0.147c0.497,0.076,1.032-0.077,1.453-0.394
		c0.421-0.317,0.704-0.791,0.779-1.288l0.376-2.487c0.15-1.075-0.606-2.078-1.675-2.223l-1.052-0.149
		c-0.535-0.047-1.003-0.296-1.311-0.705c-0.616-0.818-0.463-1.995,0.327-2.591l0.969-0.73c0.874-0.658,1.092-1.895,0.437-2.763
		l-0.732-0.971l-0.732-0.971c-0.65-0.863-1.903-1-2.777-0.342l-0.995,0.75c-0.789,0.595-1.968,0.408-2.581-0.405
		c-0.309-0.41-0.42-0.929-0.319-1.457l0.149-1.047c0.148-1.075-0.61-2.081-1.68-2.229l-2.491-0.353
		c-0.497-0.077-1.032,0.074-1.452,0.391c-0.42,0.317-0.702,0.79-0.776,1.288l-0.154,1.08c-0.04,0.503-0.292,0.963-0.699,1.27
		c-0.815,0.614-1.998,0.461-2.592-0.327l-0.734-0.974c-0.652-0.865-1.899-1.09-2.771-0.433l-1.929,1.454
		c-0.861,0.649-1.033,1.873-0.384,2.734l0.796,1.057c0.591,0.785,0.409,1.963-0.408,2.578c-0.408,0.308-0.926,0.418-1.455,0.326
		l-1.052-0.148c-0.499-0.064-1.032,0.077-1.453,0.395c-0.421,0.317-0.704,0.791-0.78,1.288l-0.355,2.489
		c-0.151,1.074,0.604,2.076,1.678,2.227l1.087,0.141c0.513,0.044,0.969,0.29,1.272,0.692c0.615,0.817,0.462,1.993-0.33,2.589
		l-0.968,0.729c-0.822,0.62-0.986,1.788-0.367,2.61l0.782,1.038l0.731,0.97C30.323,26.688,31.456,26.905,32.324,26.251z
		 M36.029,19.509L36.029,19.509c-2.123-2.818-1.571-6.83,1.26-8.963c2.83-2.133,6.84-1.558,8.963,1.26l0,0l0,0
		c2.123,2.818,1.571,6.83-1.26,8.963S38.152,22.327,36.029,19.509L36.029,19.509z"/>
</g>
<g>
</g>
<g>
</g>
<g>
</g>
<g>
</g>
<g>
</g>
<g>
</g>
<g>
</g>
<g>
</g>
<g>
</g>
<g>
</g>
<g>
</g>
<g>
</g>
<g>
</g>
<g>
</g>
<g>
</g>
</svg>
