<?xml version="1.0" encoding="utf-8"?>
<!-- Generator: Adobe Illustrator 26.0.1, SVG Export Plug-In . SVG Version: 6.00 Build 0)  -->
<svg version="1.1" id="Calque_1" xmlns="http://www.w3.org/2000/svg" xmlns:xlink="http://www.w3.org/1999/xlink" x="0px" y="0px"
	 viewBox="0 0 400 400" style="enable-background:new 0 0 400 400;" xml:space="preserve">
<style type="text/css">
	.st0{fill:#E07E64;}
	.st1{fill:#FDF8F7;}
	.st2{fill:#FCF6F4;}
	.st3{fill:#DF7A5F;}
</style>
<g>
	<g>
		<g>
			<path class="st0" d="M285.756,81.535c7.865-5.092,15.11-10.57,24.538-1.28c9.622,9.481,6.614,18.212,1.76,28.093
				c-9.907,20.199-0.615,29.488,19.163,30.939c10.527,0.776,20.829-0.826,24.299,13.192c3.243,13.104-5.185,18.065-13.6,24.779
				c-16.013,12.78-16.074,25.577,2.773,36.431c8.061,4.646,17.063,8.712,13.932,21.046c-3.085,12.174-11.253,15.319-22.983,16.218
				c-24.249,1.85-26.594,16.068-16.574,34.65c4.637,8.6,9.465,15.772,0.087,24.568c-8.368,7.86-16.306,6.93-25.445,2.247
				c-23.911-12.265-32.474-1.01-33.012,21.993c-0.201,8.51-0.595,16.421-10.943,19.753c-10.556,3.405-17.992,0.46-23.978-8.449
				c-14.623-21.766-28.591-22.169-41.424,1.664c-4.309,8-9.812,13.363-19.85,10.356c-10.22-3.056-14.71-9.431-15.221-20.474
				c-1.174-25.627-15.007-29.522-35.645-18.633c-7.312,3.856-13.373,9.275-22.071,1.415c-9.722-8.781-8.977-17.458-3.673-27.748
				c11.126-21.617,1.761-31.146-20.014-32.321c-9.433-0.515-18.644,0.482-22.299-11.681c-3.796-12.622,2.831-18.684,11.905-25.432
				c18.225-13.55,17.387-26.857-2.9-38.045c-8.618-4.758-15.982-9.931-12.12-21.789c3.383-10.414,10.394-13.854,21.042-14.527
				c26.351-1.678,28.284-16.459,17.376-36.233c-4.218-7.641-8.193-13.902-0.388-21.998c7.788-8.08,15.553-8.917,25.046-3.997
				c25.197,13.053,34.531,1.991,34.423-22.989c-0.043-9.032,2.325-15.926,12.471-18.62c9.388-2.504,16.376-0.134,21.501,7.7
				c15.486,23.666,29.857,23.299,43.304-1.737c3.746-6.97,8.729-11.536,17.427-9.354c10.069,2.527,16.284,7.737,16.572,19.214
				C251.845,84.751,263.421,92.107,285.756,81.535z"/>
			<path class="st1" d="M300.076,198.691c0.49,55.42-44.98,101.05-100.37,100.74c-54.01-0.3-98.69-44.85-99.16-98.84
				c-0.48-55.59,44.71-100.95,100.3-100.67C254.876,100.181,299.596,144.711,300.076,198.691z"/>
			<path class="st2" d="M201.566,174.821c13.89,2.81,23.26,10.52,22.99,24.77c-0.29,15.63-10.01,25.07-25.68,24.3
				c-13.94-0.68-23.04-9.88-22.84-24.11C176.256,184.041,186.426,176.281,201.566,174.821z"/>
			<g>
				<g>
					<g>
						<path class="st3" d="M219.515,154.478c-3.03,10.753-6.037,21.41-9.032,32.067c-5.466,19.455-10.952,38.902-16.366,58.373
							c-1.279,4.603-3.106,9.073-8.823,7.536c-5.452-1.467-5.505-5.764-4.08-10.748c8.373-29.276,16.537-58.614,24.701-87.949
							c1.216-4.371,2.982-8.18,8.312-7.261C218.417,147.217,220.012,150.383,219.515,154.478z"/>
						<path class="st3" d="M173.4,229.604c0.101,2.816-1.326,4.808-3.665,6.039c-2.407,1.268-4.913,1.035-6.974-0.799
							c-11.387-10.113-22.793-20.207-34.033-30.481c-2.869-2.623-2.942-6.2-0.09-8.862c11.13-10.391,22.397-20.643,33.749-30.795
							c2.885-2.578,6.227-2.278,8.885,0.61c3.04,3.303,2.304,6.699-0.699,9.526c-7.461,7.025-14.922,14.058-22.661,20.768
							c-3.682,3.194-3.624,5.315,0.068,8.422c7.199,6.064,14.091,12.493,21.066,18.818
							C171.076,224.693,173.349,226.451,173.4,229.604z"/>
						<path class="st3" d="M233.091,236.017c-2.805-0.071-4.721-1.598-5.793-4.022c-1.448-3.274-0.052-5.873,2.395-8.11
							c6.948-6.358,13.598-13.084,20.909-18.988c5.505-4.447,4.639-7.304-0.309-11.334c-7.077-5.768-13.661-12.143-20.456-18.253
							c-3.243-2.918-4.975-6.314-1.692-10.079c3.57-4.09,7.229-2.703,10.785,0.501c9.885,8.892,19.777,17.776,29.821,26.487
							c5.327,4.62,5.887,8.863,0.369,13.758c-10.153,9.006-20.14,18.2-30.196,27.318
							C237.258,234.805,235.548,236.206,233.091,236.017z"/>
					</g>
				</g>
			</g>
		</g>
	</g>
</g>
<g>
</g>
<g>
</g>
<g>
</g>
<g>
</g>
<g>
</g>
<g>
</g>
<g>
</g>
<g>
</g>
<g>
</g>
<g>
</g>
<g>
</g>
<g>
</g>
<g>
</g>
<g>
</g>
<g>
</g>
</svg>
