<?xml version="1.0" encoding="utf-8"?>
<!-- Generator: Adobe Illustrator 26.0.1, SVG Export Plug-In . SVG Version: 6.00 Build 0)  -->
<svg version="1.1" id="Calque_1" xmlns="http://www.w3.org/2000/svg" xmlns:xlink="http://www.w3.org/1999/xlink" x="0px" y="0px"
	 viewBox="0 0 400 400" style="enable-background:new 0 0 400 400;" xml:space="preserve">
<style type="text/css">
	.st0{fill:#E07E64;}
	.st1{fill:#FDF8F7;}
	.st2{fill:#FCF6F4;}
	.st3{fill:#DF7A5F;}
</style>
<g>
	<g>
		<g>
			<path class="st0" d="M90.117,104.271c-4.387-8.279-9.212-15.974,0.863-24.556c10.284-8.759,18.719-5.001,28.139,0.695
				c19.259,11.63,29.323,3.183,32.492-16.394c1.691-10.419,0.993-20.821,15.26-23.057c13.337-2.089,17.545,6.74,23.499,15.707
				c11.336,17.066,24.079,18.242,36.534,0.413c5.331-7.625,10.166-16.238,22.18-12.045c11.859,4.135,14.28,12.545,14.153,24.309
				c-0.27,24.318,13.689,27.894,33.073,19.53c8.971-3.87,16.537-8.054,24.482,2.055c7.101,9.021,5.483,16.848,0.021,25.544
				c-14.302,22.751-3.836,32.263,19.032,34.804c8.461,0.942,16.307,2.024,18.724,12.623c2.472,10.812-1.109,17.963-10.506,23.15
				c-22.957,12.67-24.577,26.55-1.953,41.411c7.593,4.99,12.457,10.939,8.587,20.677c-3.935,9.915-10.677,13.832-21.723,13.379
				c-25.631-1.064-30.718,12.377-21.668,33.886c3.204,7.62,8.074,14.13-0.514,22.11c-9.595,8.92-18.174,7.421-27.963,1.241
				c-20.566-12.968-30.874-4.469-33.942,17.121c-1.335,9.352-1.145,18.615-13.58,21.197c-12.904,2.682-18.366-4.449-24.298-14.076
				c-11.91-19.336-25.24-19.662-38.152-0.427c-5.491,8.17-11.286,15.056-22.762,10.175c-10.08-4.278-12.896-11.561-12.638-22.228
				c0.625-26.397-13.931-29.611-34.581-20.467c-7.979,3.536-14.563,6.95-21.948-1.53c-7.371-8.462-7.527-16.271-1.799-25.299
				c15.2-23.964,4.993-34.226-19.901-36.295c-9.002-0.745-15.662-3.705-17.462-14.046c-1.676-9.571,1.294-16.326,9.545-20.748
				c24.926-13.364,25.812-27.712,2.044-43.291c-6.617-4.339-10.731-9.701-7.799-18.176c3.395-9.81,9.127-15.547,20.586-14.834
				C90.365,138.334,98.702,127.442,90.117,104.271z"/>
			<path class="st1" d="M300.076,198.691c0.49,55.42-44.98,101.05-100.37,100.74c-54.01-0.3-98.69-44.85-99.16-98.84
				c-0.48-55.59,44.71-100.95,100.3-100.67C254.876,100.181,299.596,144.711,300.076,198.691z"/>
			<path class="st2" d="M201.566,174.821c13.89,2.81,23.26,10.52,22.99,24.77c-0.29,15.63-10.01,25.07-25.68,24.3
				c-13.94-0.68-23.04-9.88-22.84-24.11C176.256,184.041,186.426,176.281,201.566,174.821z"/>
			<g>
				<g>
					<g>
						<path class="st3" d="M219.515,154.478c-3.03,10.753-6.037,21.41-9.032,32.067c-5.466,19.455-10.952,38.902-16.366,58.373
							c-1.279,4.603-3.106,9.073-8.823,7.536c-5.452-1.467-5.505-5.764-4.08-10.748c8.373-29.276,16.537-58.614,24.701-87.949
							c1.216-4.371,2.982-8.18,8.312-7.261C218.417,147.217,220.012,150.383,219.515,154.478z"/>
						<path class="st3" d="M173.4,229.604c0.101,2.816-1.326,4.808-3.665,6.039c-2.407,1.268-4.913,1.035-6.974-0.799
							c-11.387-10.113-22.793-20.207-34.033-30.481c-2.869-2.623-2.942-6.2-0.09-8.862c11.13-10.391,22.397-20.643,33.749-30.795
							c2.885-2.578,6.227-2.278,8.885,0.61c3.04,3.303,2.304,6.699-0.699,9.526c-7.461,7.025-14.922,14.058-22.661,20.768
							c-3.682,3.194-3.624,5.315,0.068,8.422c7.199,6.064,14.091,12.493,21.066,18.818
							C171.076,224.693,173.349,226.451,173.4,229.604z"/>
						<path class="st3" d="M233.091,236.017c-2.805-0.071-4.721-1.598-5.793-4.022c-1.448-3.274-0.052-5.873,2.395-8.11
							c6.948-6.358,13.598-13.084,20.909-18.988c5.505-4.447,4.639-7.304-0.309-11.334c-7.077-5.768-13.661-12.143-20.456-18.253
							c-3.243-2.918-4.975-6.314-1.692-10.079c3.57-4.09,7.229-2.703,10.785,0.501c9.885,8.892,19.777,17.776,29.821,26.487
							c5.327,4.62,5.887,8.863,0.369,13.758c-10.153,9.006-20.14,18.2-30.196,27.318
							C237.258,234.805,235.548,236.206,233.091,236.017z"/>
					</g>
				</g>
			</g>
		</g>
	</g>
</g>
<g>
</g>
<g>
</g>
<g>
</g>
<g>
</g>
<g>
</g>
<g>
</g>
<g>
</g>
<g>
</g>
<g>
</g>
<g>
</g>
<g>
</g>
<g>
</g>
<g>
</g>
<g>
</g>
<g>
</g>
</svg>
