<?xml version="1.0" encoding="utf-8"?>
<!-- Generator: Adobe Illustrator 26.0.1, SVG Export Plug-In . SVG Version: 6.00 Build 0)  -->
<svg version="1.1" id="Calque_1" xmlns="http://www.w3.org/2000/svg" xmlns:xlink="http://www.w3.org/1999/xlink" x="0px" y="0px"
	 viewBox="0 0 400 400" style="enable-background:new 0 0 400 400;" xml:space="preserve">
<style type="text/css">
	.st0{fill:#E07E64;}
	.st1{fill:#FDF8F7;}
	.st2{fill:#FCF6F4;}
	.st3{fill:#DF7A5F;}
</style>
<g>
	<g>
		<g>
			<path class="st0" d="M294.289,311.103c3.038,8.863,6.6,17.218-4.694,24.119c-11.527,7.043-19.271,2.011-27.684-5.088
				c-17.202-14.5-28.464-7.731-34.656,11.109c-3.3,10.026-4.238,20.41-18.679,20.385c-13.5-0.023-16.274-9.401-20.753-19.19
				c-8.527-18.629-20.929-21.785-36.02-6.123c-6.458,6.697-12.581,14.448-23.792,8.427c-11.066-5.939-12.142-14.625-10.176-26.223
				c4.071-23.976-9.156-29.691-29.611-24.464c-9.466,2.419-17.593,5.368-23.859-5.859c-5.602-10.021-2.78-17.499,3.975-25.233
				c17.685-20.233,8.836-31.265-13.353-37.352c-8.209-2.253-15.79-4.55-16.518-15.397c-0.75-11.066,3.906-17.568,13.999-21.222
				c24.657-8.923,28.428-22.378,8.407-40.596c-6.719-6.117-10.592-12.753-5.246-21.765c5.437-9.177,12.71-11.992,23.549-9.816
				c25.149,5.061,32.276-7.419,26.702-30.079c-1.973-8.028-5.764-15.219,3.967-21.757c10.872-7.309,19.111-4.486,27.813,3.149
				c18.284,16.025,29.795,9.243,36.202-11.601c2.781-9.028,4.043-18.207,16.728-18.811c13.165-0.63,17.444,7.267,21.796,17.704
				c8.739,20.961,21.853,23.368,37.616,6.39c6.702-7.211,13.503-13.105,24.073-6.489c9.286,5.802,10.928,13.436,9.005,23.932
				c-4.747,25.974,9.127,31.425,30.954,25.625c8.434-2.244,15.471-4.586,21.438,4.945c5.956,9.511,4.889,17.248-2.181,25.269
				c-18.761,21.291-10.286,33.024,13.978,38.962c8.774,2.144,14.89,6.109,15.05,16.605c0.159,9.715-3.832,15.922-12.673,18.999
				c-26.71,9.301-29.83,23.333-8.791,42.438c5.856,5.321,9.082,11.26,4.86,19.172c-4.887,9.158-11.447,13.928-22.653,11.431
				C299.374,277.42,289.435,286.874,294.289,311.103z"/>
			<path class="st1" d="M300.076,198.691c0.49,55.42-44.98,101.05-100.37,100.74c-54.01-0.3-98.69-44.85-99.16-98.84
				c-0.48-55.59,44.71-100.95,100.3-100.67C254.876,100.181,299.596,144.711,300.076,198.691z"/>
			<path class="st2" d="M201.566,174.821c13.89,2.81,23.26,10.52,22.99,24.77c-0.29,15.63-10.01,25.07-25.68,24.3
				c-13.94-0.68-23.04-9.88-22.84-24.11C176.256,184.041,186.426,176.281,201.566,174.821z"/>
			<g>
				<g>
					<g>
						<path class="st3" d="M219.515,154.478c-3.03,10.753-6.037,21.41-9.032,32.067c-5.466,19.455-10.952,38.902-16.366,58.373
							c-1.279,4.603-3.106,9.073-8.823,7.536c-5.452-1.467-5.505-5.764-4.08-10.748c8.373-29.276,16.537-58.614,24.701-87.949
							c1.216-4.371,2.982-8.18,8.312-7.261C218.417,147.217,220.012,150.383,219.515,154.478z"/>
						<path class="st3" d="M173.4,229.604c0.101,2.816-1.326,4.808-3.665,6.039c-2.407,1.268-4.913,1.035-6.974-0.799
							c-11.387-10.113-22.793-20.207-34.033-30.481c-2.869-2.623-2.942-6.2-0.09-8.862c11.13-10.391,22.397-20.643,33.749-30.795
							c2.885-2.578,6.227-2.278,8.885,0.61c3.04,3.303,2.304,6.699-0.699,9.526c-7.461,7.025-14.922,14.058-22.661,20.768
							c-3.682,3.194-3.624,5.315,0.068,8.422c7.199,6.064,14.091,12.493,21.066,18.818
							C171.076,224.693,173.349,226.451,173.4,229.604z"/>
						<path class="st3" d="M233.091,236.017c-2.805-0.071-4.721-1.598-5.793-4.022c-1.448-3.274-0.052-5.873,2.395-8.11
							c6.948-6.358,13.598-13.084,20.909-18.988c5.505-4.447,4.639-7.304-0.309-11.334c-7.077-5.768-13.661-12.143-20.456-18.253
							c-3.243-2.918-4.975-6.314-1.692-10.079c3.57-4.09,7.229-2.703,10.785,0.501c9.885,8.892,19.777,17.776,29.821,26.487
							c5.327,4.62,5.887,8.863,0.369,13.758c-10.153,9.006-20.14,18.2-30.196,27.318
							C237.258,234.805,235.548,236.206,233.091,236.017z"/>
					</g>
				</g>
			</g>
		</g>
	</g>
</g>
<g>
</g>
<g>
</g>
<g>
</g>
<g>
</g>
<g>
</g>
<g>
</g>
<g>
</g>
<g>
</g>
<g>
</g>
<g>
</g>
<g>
</g>
<g>
</g>
<g>
</g>
<g>
</g>
<g>
</g>
</svg>
