<?xml version="1.0" encoding="utf-8"?>
<!-- Generator: Adobe Illustrator 26.0.1, SVG Export Plug-In . SVG Version: 6.00 Build 0)  -->
<svg version="1.1" id="Calque_1" xmlns="http://www.w3.org/2000/svg" xmlns:xlink="http://www.w3.org/1999/xlink" x="0px" y="0px"
	 viewBox="0 0 400 400" style="enable-background:new 0 0 400 400;" xml:space="preserve">
<style type="text/css">
	.st0{fill:#E07E64;}
	.st1{fill:#FDF8F7;}
	.st2{fill:#FCF6F4;}
	.st3{fill:#DF7A5F;}
</style>
<g>
	<g>
		<g>
			<path class="st0" d="M195.595,345.348c-3.673,8.619-6.616,17.212-19.627,14.783c-13.279-2.479-15.667-11.4-17.169-22.306
				c-3.082-22.286-15.98-24.791-33.188-14.934c-9.161,5.243-16.806,12.332-27.522,2.651c-10.017-9.051-5.804-17.876-2.582-28.147
				c6.129-19.55-0.976-30.193-22.671-28.652c-9.281,0.656-19.017,2.319-23.319-9.657c-4.25-11.818,0.762-18.993,9.984-26.297
				c19.068-15.094,13.063-28.192-5.636-37.994c-8.653-4.537-16.666-7.783-13.81-20.319c2.542-11.195,9.643-14.864,19.838-16.092
				c26.681-3.202,27.487-17.322,15.07-36.693c-4.593-7.168-8.69-13.947-1.973-22.495c6.847-8.726,14.658-10.442,24.603-6.404
				c24.294,9.868,36.1,2.391,33.411-24.543c-0.901-9.042,0.662-16.565,10.665-19.685c10.181-3.182,17.469-0.407,24.068,8.462
				c15.303,20.589,28.95,16.083,39.97-4.485c3.906-7.286,5.9-15.167,17.506-13.515c12.97,1.843,17.205,9.454,18.562,20.95
				c2.865,24.143,15.957,26.806,34.666,15.603c8.108-4.848,15.187-10.825,25.019-2.786c10.205,8.341,8.101,17.073,4.352,27.741
				c-7.532,21.425,0.603,31.989,23.678,29.919c9.805-0.874,18.803-0.704,22.232,11.286c3.019,10.525-0.87,17.298-9.321,23.81
				c-20.908,16.126-14.245,29.461,5.856,39.755c7.77,3.976,14.566,6.944,12.623,18.02c-1.938,11.054-7.907,16.089-18.529,17.319
				c-28.189,3.269-29.741,17.659-15.683,38.308c5.086,7.464,6.978,14.503,0.073,22.41c-6.383,7.326-13.502,9.269-22.131,5.639
				c-26.073-10.961-37.781-2.62-34.93,25.655c0.792,7.873-0.785,14.445-9.217,17.5c-9.76,3.536-17.826,2.691-24.483-6.663
				C221.911,323.719,208.2,324.094,195.595,345.348z"/>
			<path class="st1" d="M300.076,198.691c0.49,55.42-44.98,101.05-100.37,100.74c-54.01-0.3-98.69-44.85-99.16-98.84
				c-0.48-55.59,44.71-100.95,100.3-100.67C254.876,100.181,299.596,144.711,300.076,198.691z"/>
			<path class="st2" d="M201.566,174.821c13.89,2.81,23.26,10.52,22.99,24.77c-0.29,15.63-10.01,25.07-25.68,24.3
				c-13.94-0.68-23.04-9.88-22.84-24.11C176.256,184.041,186.426,176.281,201.566,174.821z"/>
			<g>
				<g>
					<g>
						<path class="st3" d="M219.515,154.478c-3.03,10.753-6.037,21.41-9.032,32.067c-5.466,19.455-10.952,38.902-16.366,58.373
							c-1.279,4.603-3.106,9.073-8.823,7.536c-5.452-1.467-5.505-5.764-4.08-10.748c8.373-29.276,16.537-58.614,24.701-87.949
							c1.216-4.371,2.982-8.18,8.312-7.261C218.417,147.217,220.012,150.383,219.515,154.478z"/>
						<path class="st3" d="M173.4,229.604c0.101,2.816-1.326,4.808-3.665,6.039c-2.407,1.268-4.913,1.035-6.974-0.799
							c-11.387-10.113-22.793-20.207-34.033-30.481c-2.869-2.623-2.942-6.2-0.09-8.862c11.13-10.391,22.397-20.643,33.749-30.795
							c2.885-2.578,6.227-2.278,8.885,0.61c3.04,3.303,2.304,6.699-0.699,9.526c-7.461,7.025-14.922,14.058-22.661,20.768
							c-3.682,3.194-3.624,5.315,0.068,8.422c7.199,6.064,14.091,12.493,21.066,18.818
							C171.076,224.693,173.349,226.451,173.4,229.604z"/>
						<path class="st3" d="M233.091,236.017c-2.805-0.071-4.721-1.598-5.793-4.022c-1.448-3.274-0.052-5.873,2.395-8.11
							c6.948-6.358,13.598-13.084,20.909-18.988c5.505-4.447,4.639-7.304-0.309-11.334c-7.077-5.768-13.661-12.143-20.456-18.253
							c-3.243-2.918-4.975-6.314-1.692-10.079c3.57-4.09,7.229-2.703,10.785,0.501c9.885,8.892,19.777,17.776,29.821,26.487
							c5.327,4.62,5.887,8.863,0.369,13.758c-10.153,9.006-20.14,18.2-30.196,27.318
							C237.258,234.805,235.548,236.206,233.091,236.017z"/>
					</g>
				</g>
			</g>
		</g>
	</g>
</g>
<g>
</g>
<g>
</g>
<g>
</g>
<g>
</g>
<g>
</g>
<g>
</g>
<g>
</g>
<g>
</g>
<g>
</g>
<g>
</g>
<g>
</g>
<g>
</g>
<g>
</g>
<g>
</g>
<g>
</g>
</svg>
