<?xml version="1.0" encoding="utf-8"?>
<!-- Generator: Adobe Illustrator 26.0.1, SVG Export Plug-In . SVG Version: 6.00 Build 0)  -->
<svg version="1.1" id="Calque_1" xmlns="http://www.w3.org/2000/svg" xmlns:xlink="http://www.w3.org/1999/xlink" x="0px" y="0px"
	 viewBox="0 0 400 400" style="enable-background:new 0 0 400 400;" xml:space="preserve">
<style type="text/css">
	.st0{fill:#E07E64;}
	.st1{fill:#FDF8F7;}
	.st2{fill:#FCF6F4;}
	.st3{fill:#DF7A5F;}
</style>
<g>
	<g>
		<g>
			<path class="st0" d="M160.489,339.868c-5.649,7.475-10.584,15.1-22.62,9.595c-12.285-5.618-12.444-14.852-11.263-25.796
				c2.401-22.37-9.507-27.92-28.589-22.519c-10.158,2.871-19.29,7.9-27.345-4.086c-7.529-11.205-1.307-18.749,4.305-27.936
				c10.676-17.486,6.357-29.533-15.066-33.286c-9.164-1.609-19.013-2.351-20.29-15.012c-1.264-12.495,5.335-18.244,16.05-23.101
				c22.153-10.032,19.495-24.194,3.723-38.229c-7.299-6.495-14.288-11.584-8.484-23.057c5.175-10.248,12.953-12.089,23.142-10.815
				c26.664,3.347,30.861-10.158,23.499-31.957c-2.722-8.066-5.058-15.635,3.527-22.304c8.755-6.81,16.749-6.586,25.421-0.262
				c21.185,15.452,34.449,11.054,38.356-15.731c1.314-8.991,4.65-15.913,15.111-16.52c10.649-0.624,17.049,3.831,21.306,14.034
				c9.868,23.68,24.199,22.609,39.868,5.317c5.552-6.125,9.394-13.289,20.256-8.878c12.139,4.926,14.406,13.335,12.942,24.819
				c-3.061,24.119,8.998,29.87,29.861,23.526c9.04-2.743,17.355-6.829,24.95,3.349c7.884,10.562,3.73,18.526-2.488,27.97
				c-12.491,18.966-7.153,31.184,15.737,34.758c9.725,1.524,18.415,3.866,18.841,16.329c0.383,10.943-5.028,16.573-14.805,20.848
				c-24.188,10.589-20.949,25.14-3.935,39.991c6.577,5.737,12.453,10.262,7.889,20.538c-4.555,10.256-11.565,13.698-22.168,12.322
				c-28.142-3.648-33.13,9.939-24.484,33.376c3.129,8.473,3.262,15.761-5.351,21.762c-7.965,5.564-15.343,5.727-22.838,0.118
				c-22.647-16.943-36.025-11.682-40.099,16.443c-1.136,7.831-4.257,13.826-13.177,14.75c-10.326,1.069-17.948-1.701-22.144-12.388
				C191.256,325.248,177.861,322.295,160.489,339.868z"/>
			<path class="st1" d="M300.076,198.691c0.49,55.42-44.98,101.05-100.37,100.74c-54.01-0.3-98.69-44.85-99.16-98.84
				c-0.48-55.59,44.71-100.95,100.3-100.67C254.876,100.181,299.596,144.711,300.076,198.691z"/>
			<path class="st2" d="M201.566,174.821c13.89,2.81,23.26,10.52,22.99,24.77c-0.29,15.63-10.01,25.07-25.68,24.3
				c-13.94-0.68-23.04-9.88-22.84-24.11C176.256,184.041,186.426,176.281,201.566,174.821z"/>
			<g>
				<g>
					<g>
						<path class="st3" d="M219.515,154.478c-3.03,10.753-6.037,21.41-9.032,32.067c-5.466,19.455-10.952,38.902-16.366,58.373
							c-1.279,4.603-3.106,9.073-8.823,7.536c-5.452-1.467-5.505-5.764-4.08-10.748c8.373-29.276,16.537-58.614,24.701-87.949
							c1.216-4.371,2.982-8.18,8.312-7.261C218.417,147.217,220.012,150.383,219.515,154.478z"/>
						<path class="st3" d="M173.4,229.604c0.101,2.816-1.326,4.808-3.665,6.039c-2.407,1.268-4.913,1.035-6.974-0.799
							c-11.387-10.113-22.793-20.207-34.033-30.481c-2.869-2.623-2.942-6.2-0.09-8.862c11.13-10.391,22.397-20.643,33.749-30.795
							c2.885-2.578,6.227-2.278,8.885,0.61c3.04,3.303,2.304,6.699-0.699,9.526c-7.461,7.025-14.922,14.058-22.661,20.768
							c-3.682,3.194-3.624,5.315,0.068,8.422c7.199,6.064,14.091,12.493,21.066,18.818
							C171.076,224.693,173.349,226.451,173.4,229.604z"/>
						<path class="st3" d="M233.091,236.017c-2.805-0.071-4.721-1.598-5.793-4.022c-1.448-3.274-0.052-5.873,2.395-8.11
							c6.948-6.358,13.598-13.084,20.909-18.988c5.505-4.447,4.639-7.304-0.309-11.334c-7.077-5.768-13.661-12.143-20.456-18.253
							c-3.243-2.918-4.975-6.314-1.692-10.079c3.57-4.09,7.229-2.703,10.785,0.501c9.885,8.892,19.777,17.776,29.821,26.487
							c5.327,4.62,5.887,8.863,0.369,13.758c-10.153,9.006-20.14,18.2-30.196,27.318
							C237.258,234.805,235.548,236.206,233.091,236.017z"/>
					</g>
				</g>
			</g>
		</g>
	</g>
</g>
<g>
</g>
<g>
</g>
<g>
</g>
<g>
</g>
<g>
</g>
<g>
</g>
<g>
</g>
<g>
</g>
<g>
</g>
<g>
</g>
<g>
</g>
<g>
</g>
<g>
</g>
<g>
</g>
<g>
</g>
</svg>
