<?xml version="1.0" encoding="utf-8"?>
<!-- Generator: Adobe Illustrator 26.0.1, SVG Export Plug-In . SVG Version: 6.00 Build 0)  -->
<svg version="1.1" id="Calque_1" xmlns="http://www.w3.org/2000/svg" xmlns:xlink="http://www.w3.org/1999/xlink" x="0px" y="0px"
	 viewBox="0 0 400 400" style="enable-background:new 0 0 400 400;" xml:space="preserve">
<style type="text/css">
	.st0{fill:#E07E64;}
	.st1{fill:#FDF8F7;}
	.st2{fill:#FCF6F4;}
	.st3{fill:#DF7A5F;}
</style>
<g>
	<g>
		<g>
			<path class="st0" d="M75.228,124.86c-5.758-7.391-11.846-14.131-3.414-24.333c8.606-10.412,17.566-8.176,27.832-4.202
				c20.986,8.109,29.43-1.957,29.151-21.787c-0.144-10.554-2.638-20.677,11.024-25.356c12.772-4.373,18.448,3.591,25.87,11.388
				c14.127,14.838,26.881,13.784,36.051-5.937c3.926-8.435,7.192-17.757,19.752-15.713c12.397,2.013,16.242,9.875,18.159,21.482
				c3.957,23.995,18.324,25.093,35.962,13.491c8.163-5.369,14.887-10.803,24.467-2.228c8.559,7.651,8.325,15.64,4.457,25.152
				c-10.134,24.889,1.825,32.439,24.786,30.97c8.496-0.542,16.411-0.839,20.631,9.18c4.312,10.219,2.027,17.883-6.327,24.623
				c-20.409,16.464-19.593,30.414,5.268,41.121c8.345,3.596,14.167,8.61,12.047,18.871c-2.153,10.447-8.113,15.476-19.07,16.948
				c-25.427,3.403-28.102,17.523-15.455,37.133c4.479,6.948,10.405,12.513,3.333,21.863c-7.9,10.451-16.61,10.464-27.323,6.078
				c-22.505-9.199-31.181,0.96-30.453,22.755c0.309,9.442,2.105,18.531-9.693,23.233c-12.243,4.882-18.86-1.192-26.373-9.643
				c-15.087-16.974-28.27-14.981-37.647,6.205c-3.989,9-8.501,16.787-20.649,13.973c-10.669-2.462-14.707-9.147-16.306-19.696
				c-3.968-26.104-18.861-26.742-37.61-14.152c-7.244,4.868-13.135,9.373-21.88,2.304c-8.728-7.054-10.238-14.716-6.165-24.602
				c10.808-26.239-1.026-34.573-25.901-32.288c-8.994,0.83-16.068-0.928-19.636-10.801c-3.313-9.134-1.561-16.302,5.797-22.09
				c22.227-17.49,20.608-31.774-5.504-42.988c-7.27-3.124-12.253-7.69-10.837-16.545c1.639-10.251,6.289-16.896,17.697-18.183
				C81.386,158.362,87.706,146.188,75.228,124.86z"/>
			<path class="st1" d="M300.076,198.691c0.49,55.42-44.98,101.05-100.37,100.74c-54.01-0.3-98.69-44.85-99.16-98.84
				c-0.48-55.59,44.71-100.95,100.3-100.67C254.876,100.181,299.596,144.711,300.076,198.691z"/>
			<path class="st2" d="M201.566,174.821c13.89,2.81,23.26,10.52,22.99,24.77c-0.29,15.63-10.01,25.07-25.68,24.3
				c-13.94-0.68-23.04-9.88-22.84-24.11C176.256,184.041,186.426,176.281,201.566,174.821z"/>
			<g>
				<g>
					<g>
						<path class="st3" d="M219.515,154.478c-3.03,10.753-6.037,21.41-9.032,32.067c-5.466,19.455-10.952,38.902-16.366,58.373
							c-1.279,4.603-3.106,9.073-8.823,7.536c-5.452-1.467-5.505-5.764-4.08-10.748c8.373-29.276,16.537-58.614,24.701-87.949
							c1.216-4.371,2.982-8.18,8.312-7.261C218.417,147.217,220.012,150.383,219.515,154.478z"/>
						<path class="st3" d="M173.4,229.604c0.101,2.816-1.326,4.808-3.665,6.039c-2.407,1.268-4.913,1.035-6.974-0.799
							c-11.387-10.113-22.793-20.207-34.033-30.481c-2.869-2.623-2.942-6.2-0.09-8.862c11.13-10.391,22.397-20.643,33.749-30.795
							c2.885-2.578,6.227-2.278,8.885,0.61c3.04,3.303,2.304,6.699-0.699,9.526c-7.461,7.025-14.922,14.058-22.661,20.768
							c-3.682,3.194-3.624,5.315,0.068,8.422c7.199,6.064,14.091,12.493,21.066,18.818
							C171.076,224.693,173.349,226.451,173.4,229.604z"/>
						<path class="st3" d="M233.091,236.017c-2.805-0.071-4.721-1.598-5.793-4.022c-1.448-3.274-0.052-5.873,2.395-8.11
							c6.948-6.358,13.598-13.084,20.909-18.988c5.505-4.447,4.639-7.304-0.309-11.334c-7.077-5.768-13.661-12.143-20.456-18.253
							c-3.243-2.918-4.975-6.314-1.692-10.079c3.57-4.09,7.229-2.703,10.785,0.501c9.885,8.892,19.777,17.776,29.821,26.487
							c5.327,4.62,5.887,8.863,0.369,13.758c-10.153,9.006-20.14,18.2-30.196,27.318
							C237.258,234.805,235.548,236.206,233.091,236.017z"/>
					</g>
				</g>
			</g>
		</g>
	</g>
</g>
<g>
</g>
<g>
</g>
<g>
</g>
<g>
</g>
<g>
</g>
<g>
</g>
<g>
</g>
<g>
</g>
<g>
</g>
<g>
</g>
<g>
</g>
<g>
</g>
<g>
</g>
<g>
</g>
<g>
</g>
</svg>
