<?xml version="1.0" encoding="utf-8"?>
<!-- Generator: Adobe Illustrator 26.0.1, SVG Export Plug-In . SVG Version: 6.00 Build 0)  -->
<svg version="1.1" id="Calque_1" xmlns="http://www.w3.org/2000/svg" xmlns:xlink="http://www.w3.org/1999/xlink" x="0px" y="0px"
	 viewBox="0 0 400 400" style="enable-background:new 0 0 400 400;" xml:space="preserve">
<style type="text/css">
	.st0{fill:#E07E64;}
	.st1{fill:#FDF8F7;}
	.st2{fill:#FCF6F4;}
	.st3{fill:#DF7A5F;}
</style>
<g>
	<g>
		<g>
			<path class="st0" d="M299.513,92.824c8.427-4.096,16.285-8.649,24.511,1.72c8.395,10.583,4.345,18.882-1.676,28.098
				c-12.295,18.841-4.204,29.194,15.25,33.044c10.354,2.053,20.774,1.719,22.51,16.055c1.622,13.402-7.348,17.299-16.518,22.937
				c-17.451,10.733-19.072,23.428-1.688,36.498c7.434,5.594,15.874,10.727,11.263,22.587c-4.546,11.707-13.036,13.834-24.788,13.296
				c-24.293-1.118-28.354,12.707-20.673,32.372c3.554,9.101,7.472,16.808-2.908,24.396c-9.263,6.782-17.029,4.891-25.529-0.87
				c-22.238-15.088-32.109-4.96-35.447,17.806c-1.236,8.423-2.592,16.227-13.269,18.272c-10.892,2.093-17.914-1.736-22.77-11.308
				c-11.861-23.386-25.676-25.489-41.318-3.397c-5.252,7.415-11.367,12.067-20.964,7.86c-9.771-4.278-13.451-11.154-12.613-22.177
				c1.958-25.579-11.298-31.131-33.109-22.838c-7.727,2.936-14.403,7.576-22.079-1.286c-8.58-9.901-6.782-18.422-0.264-27.989
				c13.677-20.1,5.543-30.699-15.926-34.519c-9.3-1.66-18.563-1.794-20.71-14.311c-2.23-12.99,5.087-18.2,14.915-23.791
				c19.74-11.228,20.531-24.538,1.758-38.114c-7.974-5.773-14.653-11.805-9.374-23.103c4.627-9.924,12.004-12.484,22.656-11.854
				c26.359,1.546,30.079-12.889,21.662-33.846c-3.256-8.098-6.437-14.797,2.295-21.881c8.715-7.071,16.523-6.955,25.346-0.915
				c23.419,16.027,34.031,6.185,36.968-18.622c1.058-8.97,4.249-15.524,14.647-16.961c9.623-1.341,16.271,1.863,20.402,10.263
				c12.486,25.377,26.795,26.764,43.193,3.554c4.567-6.461,10.069-10.386,18.437-7.16c9.686,3.735,15.219,9.664,14.107,21.091
				C265.462,91.883,276.056,100.596,299.513,92.824z"/>
			<path class="st1" d="M300.076,198.691c0.49,55.42-44.98,101.05-100.37,100.74c-54.01-0.3-98.69-44.85-99.16-98.84
				c-0.48-55.59,44.71-100.95,100.3-100.67C254.876,100.181,299.596,144.711,300.076,198.691z"/>
			<path class="st2" d="M201.566,174.821c13.89,2.81,23.26,10.52,22.99,24.77c-0.29,15.63-10.01,25.07-25.68,24.3
				c-13.94-0.68-23.04-9.88-22.84-24.11C176.256,184.041,186.426,176.281,201.566,174.821z"/>
			<g>
				<g>
					<g>
						<path class="st3" d="M219.515,154.478c-3.03,10.753-6.037,21.41-9.032,32.067c-5.466,19.455-10.952,38.902-16.366,58.373
							c-1.279,4.603-3.106,9.073-8.823,7.536c-5.452-1.467-5.505-5.764-4.08-10.748c8.373-29.276,16.537-58.614,24.701-87.949
							c1.216-4.371,2.982-8.18,8.312-7.261C218.417,147.217,220.012,150.383,219.515,154.478z"/>
						<path class="st3" d="M173.4,229.604c0.101,2.816-1.326,4.808-3.665,6.039c-2.407,1.268-4.913,1.035-6.974-0.799
							c-11.387-10.113-22.793-20.207-34.033-30.481c-2.869-2.623-2.942-6.2-0.09-8.862c11.13-10.391,22.397-20.643,33.749-30.795
							c2.885-2.578,6.227-2.278,8.885,0.61c3.04,3.303,2.304,6.699-0.699,9.526c-7.461,7.025-14.922,14.058-22.661,20.768
							c-3.682,3.194-3.624,5.315,0.068,8.422c7.199,6.064,14.091,12.493,21.066,18.818
							C171.076,224.693,173.349,226.451,173.4,229.604z"/>
						<path class="st3" d="M233.091,236.017c-2.805-0.071-4.721-1.598-5.793-4.022c-1.448-3.274-0.052-5.873,2.395-8.11
							c6.948-6.358,13.598-13.084,20.909-18.988c5.505-4.447,4.639-7.304-0.309-11.334c-7.077-5.768-13.661-12.143-20.456-18.253
							c-3.243-2.918-4.975-6.314-1.692-10.079c3.57-4.09,7.229-2.703,10.785,0.501c9.885,8.892,19.777,17.776,29.821,26.487
							c5.327,4.62,5.887,8.863,0.369,13.758c-10.153,9.006-20.14,18.2-30.196,27.318
							C237.258,234.805,235.548,236.206,233.091,236.017z"/>
					</g>
				</g>
			</g>
		</g>
	</g>
</g>
<g>
</g>
<g>
</g>
<g>
</g>
<g>
</g>
<g>
</g>
<g>
</g>
<g>
</g>
<g>
</g>
<g>
</g>
<g>
</g>
<g>
</g>
<g>
</g>
<g>
</g>
<g>
</g>
<g>
</g>
</svg>
