<?xml version="1.0" encoding="utf-8"?>
<!-- Generator: Adobe Illustrator 26.0.1, SVG Export Plug-In . SVG Version: 6.00 Build 0)  -->
<svg version="1.1" id="Calque_1" xmlns="http://www.w3.org/2000/svg" xmlns:xlink="http://www.w3.org/1999/xlink" x="0px" y="0px"
	 viewBox="0 0 400 400" style="enable-background:new 0 0 400 400;" xml:space="preserve">
<style type="text/css">
	.st0{fill:#E07E64;}
	.st1{fill:#FDF8F7;}
	.st2{fill:#FCF6F4;}
	.st3{fill:#DF7A5F;}
</style>
<g>
	<g>
		<g>
			<path class="st0" d="M100.691,93.273c-3.498-8.692-7.492-16.849,3.425-24.331c11.143-7.637,19.139-3.017,27.913,3.632
				c17.938,13.579,28.829,6.231,34.027-12.908c2.771-10.185,3.164-20.604,17.586-21.335c13.482-0.683,16.744,8.537,21.729,18.078
				c9.49,18.157,22.04,20.659,36.291,4.23c6.099-7.026,11.808-15.087,23.318-9.66c11.362,5.352,12.891,13.969,11.535,25.655
				c-2.81,24.156,10.698,29.172,30.851,22.881c9.327-2.911,17.288-6.282,24.133,4.603c6.119,9.714,3.692,17.329-2.649,25.406
				c-16.602,21.131-7.187,31.685,15.29,36.602c8.316,1.821,16.006,3.717,17.302,14.511c1.328,11.011-2.981,17.749-12.869,21.925
				c-24.156,10.201-27.218,23.836-6.271,40.98c7.03,5.757,11.245,12.181,6.378,21.461c-4.949,9.449-12.065,12.64-23.003,11.035
				c-25.38-3.738-31.843,9.098-25.092,31.435c2.39,7.913,6.553,14.897-2.823,21.935c-10.475,7.868-18.85,5.48-27.94-1.689
				c-19.097-15.046-30.238-7.671-35.546,13.479c-2.305,9.161-3.084,18.393-15.721,19.661c-13.114,1.318-17.801-6.344-22.693-16.539
				c-9.824-20.475-23.046-22.193-37.899-4.413c-6.315,7.552-12.798,13.793-23.701,7.74c-9.577-5.308-11.616-12.846-10.245-23.427
				c3.381-26.187-10.759-30.905-32.252-23.97c-8.305,2.683-15.21,5.389-21.668-3.816c-6.446-9.187-5.785-16.968,0.855-25.348
				c17.621-22.244,8.543-33.517-15.998-38.177c-8.874-1.682-15.189-5.321-15.898-15.795c-0.667-9.693,2.993-16.101,11.661-19.637
				c26.186-10.686,28.568-24.862,6.558-42.84c-6.127-5.007-9.659-10.769-5.857-18.891c4.401-9.402,10.702-14.508,22.023-12.601
				C97.376,127.175,106.807,117.215,100.691,93.273z"/>
			<path class="st1" d="M300.076,198.691c0.49,55.42-44.98,101.05-100.37,100.74c-54.01-0.3-98.69-44.85-99.16-98.84
				c-0.48-55.59,44.71-100.95,100.3-100.67C254.876,100.181,299.596,144.711,300.076,198.691z"/>
			<path class="st2" d="M201.566,174.821c13.89,2.81,23.26,10.52,22.99,24.77c-0.29,15.63-10.01,25.07-25.68,24.3
				c-13.94-0.68-23.04-9.88-22.84-24.11C176.256,184.041,186.426,176.281,201.566,174.821z"/>
			<g>
				<g>
					<g>
						<path class="st3" d="M219.515,154.478c-3.03,10.753-6.037,21.41-9.032,32.067c-5.466,19.455-10.952,38.902-16.366,58.373
							c-1.279,4.603-3.106,9.073-8.823,7.536c-5.452-1.467-5.505-5.764-4.08-10.748c8.373-29.276,16.537-58.614,24.701-87.949
							c1.216-4.371,2.982-8.18,8.312-7.261C218.417,147.217,220.012,150.383,219.515,154.478z"/>
						<path class="st3" d="M173.4,229.604c0.101,2.816-1.326,4.808-3.665,6.039c-2.407,1.268-4.913,1.035-6.974-0.799
							c-11.387-10.113-22.793-20.207-34.033-30.481c-2.869-2.623-2.942-6.2-0.09-8.862c11.13-10.391,22.397-20.643,33.749-30.795
							c2.885-2.578,6.227-2.278,8.885,0.61c3.04,3.303,2.304,6.699-0.699,9.526c-7.461,7.025-14.922,14.058-22.661,20.768
							c-3.682,3.194-3.624,5.315,0.068,8.422c7.199,6.064,14.091,12.493,21.066,18.818
							C171.076,224.693,173.349,226.451,173.4,229.604z"/>
						<path class="st3" d="M233.091,236.017c-2.805-0.071-4.721-1.598-5.793-4.022c-1.448-3.274-0.052-5.873,2.395-8.11
							c6.948-6.358,13.598-13.084,20.909-18.988c5.505-4.447,4.639-7.304-0.309-11.334c-7.077-5.768-13.661-12.143-20.456-18.253
							c-3.243-2.918-4.975-6.314-1.692-10.079c3.57-4.09,7.229-2.703,10.785,0.501c9.885,8.892,19.777,17.776,29.821,26.487
							c5.327,4.62,5.887,8.863,0.369,13.758c-10.153,9.006-20.14,18.2-30.196,27.318
							C237.258,234.805,235.548,236.206,233.091,236.017z"/>
					</g>
				</g>
			</g>
		</g>
	</g>
</g>
<g>
</g>
<g>
</g>
<g>
</g>
<g>
</g>
<g>
</g>
<g>
</g>
<g>
</g>
<g>
</g>
<g>
</g>
<g>
</g>
<g>
</g>
<g>
</g>
<g>
</g>
<g>
</g>
<g>
</g>
</svg>
