<?xml version="1.0" encoding="utf-8"?>
<!-- Generator: Adobe Illustrator 26.0.1, SVG Export Plug-In . SVG Version: 6.00 Build 0)  -->
<svg version="1.1" id="Calque_1" xmlns="http://www.w3.org/2000/svg" xmlns:xlink="http://www.w3.org/1999/xlink" x="0px" y="0px"
	 viewBox="0 0 400 400" style="enable-background:new 0 0 400 400;" xml:space="preserve">
<style type="text/css">
	.st0{fill:#E07E64;}
	.st1{fill:#FDF8F7;}
	.st2{fill:#FCF6F4;}
	.st3{fill:#DF7A5F;}
</style>
<g>
	<g>
		<g>
			<path class="st0" d="M259.928,332.679c0.477,9.357,1.599,18.37-11.16,21.891c-13.022,3.593-19.079-3.378-25.209-12.522
				c-12.539-18.68-25.23-15.277-36.376,1.126c-5.936,8.728-9.699,18.451-23.574,14.447c-12.97-3.744-13.053-13.523-14.659-24.167
				c-3.061-20.258-14.113-26.709-32.937-15.814c-8.054,4.658-16.076,10.421-25.193,1.542c-9-8.759-7.641-17.405-2.554-28.013
				c10.522-21.925-0.618-31.065-21.721-31.678c-9.766-0.284-18.391,0.311-21.32-12.209c-2.623-11.177,2.151-17.587,10.776-23.16
				c22.577-14.575,17.111-27.619-2.54-39.586c-7.27-4.429-13.924-8.726-11.635-19.353c2.329-10.844,8.597-15.811,19.306-16.541
				c26.161-1.781,33.495-13.676,19.271-36.706c-4.773-7.732-6.666-15.179,0.956-22.368c7.756-7.323,15.523-8.024,25.342-2.945
				c22.78,11.797,33.071,1.765,33.959-21.553c0.316-8.261-1.346-16.218,9.81-19.821c12.466-4.029,19.608,0.955,25.868,10.693
				c13.158,20.444,26.093,17.098,37.998-1.172c5.162-7.912,8.904-16.387,21.265-13.472c12.829,3.023,14.765,11.794,16.072,23.026
				c2.623,22.558,14.565,28.487,34.397,16.511c8.43-5.084,16.592-8.875,24.929,0.398c7.327,8.137,6.801,15.928,2.06,25.487
				c-11.723,23.659,0.112,32.724,22.691,33.164c8.726,0.167,16.136-0.144,19.245,10.662c3.104,10.785-0.054,17.927-9.061,23.689
				c-23.903,15.295-18.99,28.909,2.697,41.305c7.843,4.479,12.629,9.977,9.89,20.11c-2.525,9.382-8.072,14.249-17.419,14.77
				c-28.239,1.578-35.106,14.207-20.148,38.371c4.163,6.729,5.626,13.327-0.613,19.769c-7.222,7.456-14.842,10.233-24.926,4.744
				C274.099,301.703,261.94,308.05,259.928,332.679z"/>
			<path class="st1" d="M300.076,198.691c0.49,55.42-44.98,101.05-100.37,100.74c-54.01-0.3-98.69-44.85-99.16-98.84
				c-0.48-55.59,44.71-100.95,100.3-100.67C254.876,100.181,299.596,144.711,300.076,198.691z"/>
			<path class="st2" d="M201.566,174.821c13.89,2.81,23.26,10.52,22.99,24.77c-0.29,15.63-10.01,25.07-25.68,24.3
				c-13.94-0.68-23.04-9.88-22.84-24.11C176.256,184.041,186.426,176.281,201.566,174.821z"/>
			<g>
				<g>
					<g>
						<path class="st3" d="M219.515,154.478c-3.03,10.753-6.037,21.41-9.032,32.067c-5.466,19.455-10.952,38.902-16.366,58.373
							c-1.279,4.603-3.106,9.073-8.823,7.536c-5.452-1.467-5.505-5.764-4.08-10.748c8.373-29.276,16.537-58.614,24.701-87.949
							c1.216-4.371,2.982-8.18,8.312-7.261C218.417,147.217,220.012,150.383,219.515,154.478z"/>
						<path class="st3" d="M173.4,229.604c0.101,2.816-1.326,4.808-3.665,6.039c-2.407,1.268-4.913,1.035-6.974-0.799
							c-11.387-10.113-22.793-20.207-34.033-30.481c-2.869-2.623-2.942-6.2-0.09-8.862c11.13-10.391,22.397-20.643,33.749-30.795
							c2.885-2.578,6.227-2.278,8.885,0.61c3.04,3.303,2.304,6.699-0.699,9.526c-7.461,7.025-14.922,14.058-22.661,20.768
							c-3.682,3.194-3.624,5.315,0.068,8.422c7.199,6.064,14.091,12.493,21.066,18.818
							C171.076,224.693,173.349,226.451,173.4,229.604z"/>
						<path class="st3" d="M233.091,236.017c-2.805-0.071-4.721-1.598-5.793-4.022c-1.448-3.274-0.052-5.873,2.395-8.11
							c6.948-6.358,13.598-13.084,20.909-18.988c5.505-4.447,4.639-7.304-0.309-11.334c-7.077-5.768-13.661-12.143-20.456-18.253
							c-3.243-2.918-4.975-6.314-1.692-10.079c3.57-4.09,7.229-2.703,10.785,0.501c9.885,8.892,19.777,17.776,29.821,26.487
							c5.327,4.62,5.887,8.863,0.369,13.758c-10.153,9.006-20.14,18.2-30.196,27.318
							C237.258,234.805,235.548,236.206,233.091,236.017z"/>
					</g>
				</g>
			</g>
		</g>
	</g>
</g>
<g>
</g>
<g>
</g>
<g>
</g>
<g>
</g>
<g>
</g>
<g>
</g>
<g>
</g>
<g>
</g>
<g>
</g>
<g>
</g>
<g>
</g>
<g>
</g>
<g>
</g>
<g>
</g>
<g>
</g>
</svg>
