<?xml version="1.0" encoding="utf-8"?>
<!-- Generator: Adobe Illustrator 26.0.1, SVG Export Plug-In . SVG Version: 6.00 Build 0)  -->
<svg version="1.1" id="Calque_1" xmlns="http://www.w3.org/2000/svg" xmlns:xlink="http://www.w3.org/1999/xlink" x="0px" y="0px"
	 viewBox="0 0 400 400" style="enable-background:new 0 0 400 400;" xml:space="preserve">
<style type="text/css">
	.st0{fill:#E07E64;}
	.st1{fill:#FDF8F7;}
	.st2{fill:#FCF6F4;}
	.st3{fill:#DF7A5F;}
</style>
<g>
	<g>
		<g>
			<path class="st0" d="M197.458,53.911c3.217-8.8,5.706-17.535,18.826-15.79c13.391,1.781,16.242,10.565,18.313,21.376
				c4.244,22.094,17.255,23.921,33.924,13.176c8.874-5.715,16.138-13.195,27.345-4.088c10.476,8.514,6.731,17.548,4.051,27.974
				c-5.097,19.844,2.555,30.101,24.139,27.427c9.234-1.14,18.87-3.311,23.793,8.424c4.862,11.58,0.233,19.007-8.594,26.784
				c-18.252,16.071-11.57,28.837,7.616,37.647c8.879,4.078,17.051,6.9,14.855,19.569c-1.952,11.313-8.852,15.348-18.968,17.108
				c-26.477,4.595-26.543,18.737-13.129,37.432c4.962,6.917,9.408,13.473,3.148,22.361c-6.381,9.072-14.092,11.195-24.234,7.683
				c-24.777-8.583-36.176-0.499-32.081,26.258c1.373,8.982,0.206,16.577-9.62,20.216c-10.001,3.71-17.424,1.321-24.478-7.191
				c-16.36-19.76-29.752-14.546-39.681,6.571c-3.519,7.48-5.098,15.455-16.775,14.412c-13.049-1.162-17.676-8.541-19.633-19.95
				c-4.124-23.96-17.338-25.934-35.435-13.768c-7.843,5.266-14.599,11.605-24.839,4.092c-10.628-7.796-8.983-16.626-5.798-27.475
				c6.4-21.79-2.277-31.913-25.212-28.639c-9.746,1.386-18.741,1.687-22.792-10.107c-3.566-10.353-0.037-17.319,8.063-24.265
				c20.035-17.198,12.683-30.166-7.929-39.394c-7.967-3.563-14.909-6.172-13.549-17.334c1.357-11.14,7.055-16.481,17.597-18.265
				c27.979-4.739,28.776-19.191,13.656-39.076c-5.47-7.188-7.727-14.118-1.246-22.376c5.991-7.65,12.998-9.962,21.805-6.79
				c26.611,9.581,37.866,0.639,33.539-27.448c-1.203-7.821,0.028-14.466,8.288-17.958c9.562-4.042,17.661-3.621,24.798,5.372
				C172.31,76.887,185.983,75.795,197.458,53.911z"/>
			<path class="st1" d="M300.076,198.691c0.49,55.42-44.98,101.05-100.37,100.74c-54.01-0.3-98.69-44.85-99.16-98.84
				c-0.48-55.59,44.71-100.95,100.3-100.67C254.876,100.181,299.596,144.711,300.076,198.691z"/>
			<path class="st2" d="M201.566,174.821c13.89,2.81,23.26,10.52,22.99,24.77c-0.29,15.63-10.01,25.07-25.68,24.3
				c-13.94-0.68-23.04-9.88-22.84-24.11C176.256,184.041,186.426,176.281,201.566,174.821z"/>
			<g>
				<g>
					<g>
						<path class="st3" d="M219.515,154.478c-3.03,10.753-6.037,21.41-9.032,32.067c-5.466,19.455-10.952,38.902-16.366,58.373
							c-1.279,4.603-3.106,9.073-8.823,7.536c-5.452-1.467-5.505-5.764-4.08-10.748c8.373-29.276,16.537-58.614,24.701-87.949
							c1.216-4.371,2.982-8.18,8.312-7.261C218.417,147.217,220.012,150.383,219.515,154.478z"/>
						<path class="st3" d="M173.4,229.604c0.101,2.816-1.326,4.808-3.665,6.039c-2.407,1.268-4.913,1.035-6.974-0.799
							c-11.387-10.113-22.793-20.207-34.033-30.481c-2.869-2.623-2.942-6.2-0.09-8.862c11.13-10.391,22.397-20.643,33.749-30.795
							c2.885-2.578,6.227-2.278,8.885,0.61c3.04,3.303,2.304,6.699-0.699,9.526c-7.461,7.025-14.922,14.058-22.661,20.768
							c-3.682,3.194-3.624,5.315,0.068,8.422c7.199,6.064,14.091,12.493,21.066,18.818
							C171.076,224.693,173.349,226.451,173.4,229.604z"/>
						<path class="st3" d="M233.091,236.017c-2.805-0.071-4.721-1.598-5.793-4.022c-1.448-3.274-0.052-5.873,2.395-8.11
							c6.948-6.358,13.598-13.084,20.909-18.988c5.505-4.447,4.639-7.304-0.309-11.334c-7.077-5.768-13.661-12.143-20.456-18.253
							c-3.243-2.918-4.975-6.314-1.692-10.079c3.57-4.09,7.229-2.703,10.785,0.501c9.885,8.892,19.777,17.776,29.821,26.487
							c5.327,4.62,5.887,8.863,0.369,13.758c-10.153,9.006-20.14,18.2-30.196,27.318
							C237.258,234.805,235.548,236.206,233.091,236.017z"/>
					</g>
				</g>
			</g>
		</g>
	</g>
</g>
<g>
</g>
<g>
</g>
<g>
</g>
<g>
</g>
<g>
</g>
<g>
</g>
<g>
</g>
<g>
</g>
<g>
</g>
<g>
</g>
<g>
</g>
<g>
</g>
<g>
</g>
<g>
</g>
<g>
</g>
</svg>
