<?xml version="1.0" encoding="utf-8"?>
<!-- Generator: Adobe Illustrator 26.0.1, SVG Export Plug-In . SVG Version: 6.00 Build 0)  -->
<svg version="1.1" id="Calque_1" xmlns="http://www.w3.org/2000/svg" xmlns:xlink="http://www.w3.org/1999/xlink" x="0px" y="0px"
	 viewBox="0 0 400 400" style="enable-background:new 0 0 400 400;" xml:space="preserve">
<style type="text/css">
	.st0{fill:#E07E64;}
	.st1{fill:#FDF8F7;}
	.st2{fill:#FCF6F4;}
	.st3{fill:#DF7A5F;}
</style>
<g>
	<g>
		<g>
			<path class="st0" d="M73.941,127.055c-5.886-7.29-12.091-13.922-3.838-24.27c8.423-10.561,17.421-8.481,27.755-4.687
				c21.124,7.742,29.391-2.47,28.767-22.292c-0.328-10.55-2.998-20.628,10.58-25.545c12.694-4.595,18.508,3.268,26.065,10.935
				c14.384,14.59,27.117,13.313,35.942-6.566c3.778-8.502,6.881-17.88,19.475-16.056c12.43,1.796,16.412,9.59,18.532,21.161
				c4.375,23.922,18.759,24.769,36.192,12.861c8.068-5.511,14.696-11.062,24.424-2.654c8.691,7.5,8.597,15.493,4.895,25.07
				c-9.699,25.062,2.39,32.402,25.323,30.533c8.485-0.69,16.394-1.125,20.788,8.818c4.49,10.142,2.338,17.845-5.896,24.73
				c-20.118,16.818-19.059,30.752,5.985,41.023c8.406,3.45,14.315,8.361,12.374,18.658c-1.97,10.483-7.842,15.615-18.771,17.278
				c-25.363,3.846-27.792,18.011-14.805,37.397c4.599,6.869,10.622,12.33,3.714,21.802c-7.717,10.587-16.424,10.752-27.213,6.554
				c-22.662-8.805-31.159,1.504-30.052,23.283c0.474,9.435,2.428,18.491-9.286,23.398c-12.156,5.095-18.878-0.862-26.537-9.181
				c-15.381-16.708-28.528-14.485-37.533,6.861c-3.831,9.068-8.206,16.933-20.402,14.331c-10.711-2.276-14.865-8.888-16.647-19.408
				c-4.423-26.031-19.325-26.409-37.851-13.493c-7.158,4.994-12.97,9.601-21.837,2.686c-8.85-6.901-10.494-14.535-6.593-24.491
				c10.348-26.424-1.629-34.55-26.461-31.831c-8.978,0.987-16.082-0.648-19.821-10.456c-3.472-9.075-1.845-16.273,5.411-22.188
				c21.918-17.875,20.05-32.128-6.254-42.886c-7.323-2.997-12.385-7.475-11.124-16.353c1.46-10.278,5.993-17.003,17.377-18.49
				C80.684,160.445,86.79,148.162,73.941,127.055z"/>
			<path class="st1" d="M300.076,198.691c0.49,55.42-44.98,101.05-100.37,100.74c-54.01-0.3-98.69-44.85-99.16-98.84
				c-0.48-55.59,44.71-100.95,100.3-100.67C254.876,100.181,299.596,144.711,300.076,198.691z"/>
			<path class="st2" d="M201.566,174.821c13.89,2.81,23.26,10.52,22.99,24.77c-0.29,15.63-10.01,25.07-25.68,24.3
				c-13.94-0.68-23.04-9.88-22.84-24.11C176.256,184.041,186.426,176.281,201.566,174.821z"/>
			<g>
				<g>
					<g>
						<path class="st3" d="M219.515,154.478c-3.03,10.753-6.037,21.41-9.032,32.067c-5.466,19.455-10.952,38.902-16.366,58.373
							c-1.279,4.603-3.106,9.073-8.823,7.536c-5.452-1.467-5.505-5.764-4.08-10.748c8.373-29.276,16.537-58.614,24.701-87.949
							c1.216-4.371,2.982-8.18,8.312-7.261C218.417,147.217,220.012,150.383,219.515,154.478z"/>
						<path class="st3" d="M173.4,229.604c0.101,2.816-1.326,4.808-3.665,6.039c-2.407,1.268-4.913,1.035-6.974-0.799
							c-11.387-10.113-22.793-20.207-34.033-30.481c-2.869-2.623-2.942-6.2-0.09-8.862c11.13-10.391,22.397-20.643,33.749-30.795
							c2.885-2.578,6.227-2.278,8.885,0.61c3.04,3.303,2.304,6.699-0.699,9.526c-7.461,7.025-14.922,14.058-22.661,20.768
							c-3.682,3.194-3.624,5.315,0.068,8.422c7.199,6.064,14.091,12.493,21.066,18.818
							C171.076,224.693,173.349,226.451,173.4,229.604z"/>
						<path class="st3" d="M233.091,236.017c-2.805-0.071-4.721-1.598-5.793-4.022c-1.448-3.274-0.052-5.873,2.395-8.11
							c6.948-6.358,13.598-13.084,20.909-18.988c5.505-4.447,4.639-7.304-0.309-11.334c-7.077-5.768-13.661-12.143-20.456-18.253
							c-3.243-2.918-4.975-6.314-1.692-10.079c3.57-4.09,7.229-2.703,10.785,0.501c9.885,8.892,19.777,17.776,29.821,26.487
							c5.327,4.62,5.887,8.863,0.369,13.758c-10.153,9.006-20.14,18.2-30.196,27.318
							C237.258,234.805,235.548,236.206,233.091,236.017z"/>
					</g>
				</g>
			</g>
		</g>
	</g>
</g>
<g>
</g>
<g>
</g>
<g>
</g>
<g>
</g>
<g>
</g>
<g>
</g>
<g>
</g>
<g>
</g>
<g>
</g>
<g>
</g>
<g>
</g>
<g>
</g>
<g>
</g>
<g>
</g>
<g>
</g>
</svg>
