<?xml version="1.0" encoding="utf-8"?>
<!-- Generator: Adobe Illustrator 26.0.1, SVG Export Plug-In . SVG Version: 6.00 Build 0)  -->
<svg version="1.1" id="Calque_1" xmlns="http://www.w3.org/2000/svg" xmlns:xlink="http://www.w3.org/1999/xlink" x="0px" y="0px"
	 viewBox="0 0 400 400" style="enable-background:new 0 0 400 400;" xml:space="preserve">
<style type="text/css">
	.st0{fill:#E07E64;}
	.st1{fill:#FDF8F7;}
	.st2{fill:#FCF6F4;}
	.st3{fill:#DF7A5F;}
</style>
<g>
	<g>
		<g>
			<path class="st0" d="M165.408,341.174c-5.385,7.667-10.05,15.46-22.272,10.379c-12.473-5.186-12.954-14.408-12.156-25.388
				c1.619-22.44-10.476-27.572-29.358-21.508c-10.051,3.224-19.003,8.568-27.471-3.129c-7.916-10.935-1.96-18.692,3.327-28.069
				c10.06-17.848,5.322-29.736-16.218-32.74c-9.214-1.288-19.084-1.686-20.802-14.295c-1.7-12.443,4.695-18.419,15.234-23.647
				c21.79-10.799,18.639-24.86,2.387-38.335c-7.521-6.237-14.684-11.078-9.284-22.747c4.814-10.422,12.523-12.534,22.75-11.616
				c26.764,2.415,30.488-11.229,22.37-32.758c-3.002-7.966-5.6-15.449,2.747-22.414c8.512-7.111,16.509-7.167,25.397-1.149
				c21.712,14.703,34.814,9.845,37.784-17.06c0.999-9.031,4.092-16.065,14.525-17.038c10.62-0.995,17.172,3.234,21.783,13.282
				c10.688,23.321,24.974,21.751,40.029,3.923c5.335-6.315,8.924-13.609,19.934-9.58c12.304,4.5,14.863,12.824,13.801,24.352
				c-2.218,24.211,10.035,29.537,30.664,22.47c8.939-3.056,17.106-7.431,25.051,2.477c8.248,10.281,4.374,18.384-1.511,28.04
				c-11.821,19.391-6.061,31.415,16.94,34.188c9.773,1.184,18.539,3.221,19.4,15.662c0.765,10.923-4.447,16.739-14.068,21.352
				c-23.804,11.427-20.059,25.855-2.537,40.104c6.773,5.504,12.804,9.821,8.601,20.25c-4.194,10.409-11.08,14.094-21.725,13.089
				c-28.253-2.664-32.762,11.089-23.305,34.21c3.423,8.359,3.81,15.637-4.588,21.936c-7.766,5.839-15.134,6.259-22.82,0.915
				c-23.224-16.142-36.41-10.418-39.5,17.832c-0.862,7.865-3.772,13.966-12.654,15.201c-10.282,1.429-17.996-1.074-22.563-11.607
				C195.646,325.49,182.156,323.005,165.408,341.174z"/>
			<path class="st1" d="M300.076,198.691c0.49,55.42-44.98,101.05-100.37,100.74c-54.01-0.3-98.69-44.85-99.16-98.84
				c-0.48-55.59,44.71-100.95,100.3-100.67C254.876,100.181,299.596,144.711,300.076,198.691z"/>
			<path class="st2" d="M201.566,174.821c13.89,2.81,23.26,10.52,22.99,24.77c-0.29,15.63-10.01,25.07-25.68,24.3
				c-13.94-0.68-23.04-9.88-22.84-24.11C176.256,184.041,186.426,176.281,201.566,174.821z"/>
			<g>
				<g>
					<g>
						<path class="st3" d="M219.515,154.478c-3.03,10.753-6.037,21.41-9.032,32.067c-5.466,19.455-10.952,38.902-16.366,58.373
							c-1.279,4.603-3.106,9.073-8.823,7.536c-5.452-1.467-5.505-5.764-4.08-10.748c8.373-29.276,16.537-58.614,24.701-87.949
							c1.216-4.371,2.982-8.18,8.312-7.261C218.417,147.217,220.012,150.383,219.515,154.478z"/>
						<path class="st3" d="M173.4,229.604c0.101,2.816-1.326,4.808-3.665,6.039c-2.407,1.268-4.913,1.035-6.974-0.799
							c-11.387-10.113-22.793-20.207-34.033-30.481c-2.869-2.623-2.942-6.2-0.09-8.862c11.13-10.391,22.397-20.643,33.749-30.795
							c2.885-2.578,6.227-2.278,8.885,0.61c3.04,3.303,2.304,6.699-0.699,9.526c-7.461,7.025-14.922,14.058-22.661,20.768
							c-3.682,3.194-3.624,5.315,0.068,8.422c7.199,6.064,14.091,12.493,21.066,18.818
							C171.076,224.693,173.349,226.451,173.4,229.604z"/>
						<path class="st3" d="M233.091,236.017c-2.805-0.071-4.721-1.598-5.793-4.022c-1.448-3.274-0.052-5.873,2.395-8.11
							c6.948-6.358,13.598-13.084,20.909-18.988c5.505-4.447,4.639-7.304-0.309-11.334c-7.077-5.768-13.661-12.143-20.456-18.253
							c-3.243-2.918-4.975-6.314-1.692-10.079c3.57-4.09,7.229-2.703,10.785,0.501c9.885,8.892,19.777,17.776,29.821,26.487
							c5.327,4.62,5.887,8.863,0.369,13.758c-10.153,9.006-20.14,18.2-30.196,27.318
							C237.258,234.805,235.548,236.206,233.091,236.017z"/>
					</g>
				</g>
			</g>
		</g>
	</g>
</g>
<g>
</g>
<g>
</g>
<g>
</g>
<g>
</g>
<g>
</g>
<g>
</g>
<g>
</g>
<g>
</g>
<g>
</g>
<g>
</g>
<g>
</g>
<g>
</g>
<g>
</g>
<g>
</g>
<g>
</g>
</svg>
