<?xml version="1.0" encoding="utf-8"?>
<!-- Generator: Adobe Illustrator 26.0.1, SVG Export Plug-In . SVG Version: 6.00 Build 0)  -->
<svg version="1.1" id="Calque_1" xmlns="http://www.w3.org/2000/svg" xmlns:xlink="http://www.w3.org/1999/xlink" x="0px" y="0px"
	 viewBox="0 0 400 400" style="enable-background:new 0 0 400 400;" xml:space="preserve">
<style type="text/css">
	.st0{fill:#E07E64;}
	.st1{fill:#FDF8F7;}
	.st2{fill:#FCF6F4;}
	.st3{fill:#DF7A5F;}
</style>
<g>
	<g>
		<g>
			<path class="st0" d="M129.961,327.302c-7.186,6.013-13.709,12.332-24.199,4.261c-10.706-8.238-8.784-17.27-5.171-27.669
				c7.372-21.256-2.983-29.344-22.791-28.373c-10.543,0.513-20.573,3.358-25.725-10.133c-4.816-12.611,2.945-18.562,10.478-26.252
				c14.336-14.636,12.837-27.346-7.192-35.822c-8.567-3.629-17.997-6.568-16.393-19.191c1.579-12.459,9.302-16.577,20.835-18.898
				c23.842-4.792,24.438-19.189,12.227-36.411c-5.651-7.971-11.316-14.501-3.08-24.374c7.347-8.821,15.34-8.866,24.981-5.332
				c25.227,9.26,32.355-2.956,30.086-25.852c-0.838-8.471-1.411-16.372,8.454-20.939c10.062-4.666,17.801-2.65,24.829,5.464
				c17.166,19.822,31.08,18.52,40.912-6.7c3.302-8.465,8.11-14.459,18.44-12.698c10.516,1.787,15.75,7.568,17.603,18.467
				c4.288,25.293,18.493,27.473,37.65,14.15c6.788-4.719,12.143-10.836,21.734-4.094c10.72,7.531,11.037,16.234,7.028,27.094
				c-8.408,22.812,2.048,31.128,23.804,29.641c9.425-0.639,18.446-2.75,23.557,8.876c5.306,12.065-0.533,18.89-8.717,26.693
				c-16.437,15.67-13.985,28.776,7.515,37.408c9.133,3.673,17.073,7.91,14.685,20.149c-2.089,10.749-8.628,15.018-19.115,16.983
				c-25.95,4.876-26.067,19.783-12.83,38.081c5.118,7.07,9.826,12.8,3.066,21.786c-6.745,8.969-14.35,10.746-24.372,7.02
				c-26.6-9.885-34.516,2.232-31.365,27.013c1.143,8.96-0.367,16.09-10.109,20.001c-9.013,3.63-16.238,2.129-22.279-5.023
				c-18.255-21.603-32.473-19.487-42.77,7.001c-2.869,7.374-7.258,12.514-16.157,11.408c-10.302-1.281-17.105-5.695-18.79-17.052
				C163.228,319.978,150.841,314.087,129.961,327.302z"/>
			<path class="st1" d="M300.076,198.691c0.49,55.42-44.98,101.05-100.37,100.74c-54.01-0.3-98.69-44.85-99.16-98.84
				c-0.48-55.59,44.71-100.95,100.3-100.67C254.876,100.181,299.596,144.711,300.076,198.691z"/>
			<path class="st2" d="M201.566,174.821c13.89,2.81,23.26,10.52,22.99,24.77c-0.29,15.63-10.01,25.07-25.68,24.3
				c-13.94-0.68-23.04-9.88-22.84-24.11C176.256,184.041,186.426,176.281,201.566,174.821z"/>
			<g>
				<g>
					<g>
						<path class="st3" d="M219.515,154.478c-3.03,10.753-6.037,21.41-9.032,32.067c-5.466,19.455-10.952,38.902-16.366,58.373
							c-1.279,4.603-3.106,9.073-8.823,7.536c-5.452-1.467-5.505-5.764-4.08-10.748c8.373-29.276,16.537-58.614,24.701-87.949
							c1.216-4.371,2.982-8.18,8.312-7.261C218.417,147.217,220.012,150.383,219.515,154.478z"/>
						<path class="st3" d="M173.4,229.604c0.101,2.816-1.326,4.808-3.665,6.039c-2.407,1.268-4.913,1.035-6.974-0.799
							c-11.387-10.113-22.793-20.207-34.033-30.481c-2.869-2.623-2.942-6.2-0.09-8.862c11.13-10.391,22.397-20.643,33.749-30.795
							c2.885-2.578,6.227-2.278,8.885,0.61c3.04,3.303,2.304,6.699-0.699,9.526c-7.461,7.025-14.922,14.058-22.661,20.768
							c-3.682,3.194-3.624,5.315,0.068,8.422c7.199,6.064,14.091,12.493,21.066,18.818
							C171.076,224.693,173.349,226.451,173.4,229.604z"/>
						<path class="st3" d="M233.091,236.017c-2.805-0.071-4.721-1.598-5.793-4.022c-1.448-3.274-0.052-5.873,2.395-8.11
							c6.948-6.358,13.598-13.084,20.909-18.988c5.505-4.447,4.639-7.304-0.309-11.334c-7.077-5.768-13.661-12.143-20.456-18.253
							c-3.243-2.918-4.975-6.314-1.692-10.079c3.57-4.09,7.229-2.703,10.785,0.501c9.885,8.892,19.777,17.776,29.821,26.487
							c5.327,4.62,5.887,8.863,0.369,13.758c-10.153,9.006-20.14,18.2-30.196,27.318
							C237.258,234.805,235.548,236.206,233.091,236.017z"/>
					</g>
				</g>
			</g>
		</g>
	</g>
</g>
<g>
</g>
<g>
</g>
<g>
</g>
<g>
</g>
<g>
</g>
<g>
</g>
<g>
</g>
<g>
</g>
<g>
</g>
<g>
</g>
<g>
</g>
<g>
</g>
<g>
</g>
<g>
</g>
<g>
</g>
</svg>
