<?xml version="1.0" encoding="utf-8"?>
<!-- Generator: Adobe Illustrator 26.0.1, SVG Export Plug-In . SVG Version: 6.00 Build 0)  -->
<svg version="1.1" id="Calque_1" xmlns="http://www.w3.org/2000/svg" xmlns:xlink="http://www.w3.org/1999/xlink" x="0px" y="0px"
	 viewBox="0 0 400 400" style="enable-background:new 0 0 400 400;" xml:space="preserve">
<style type="text/css">
	.st0{fill:#E07E64;}
	.st1{fill:#FDF8F7;}
	.st2{fill:#FCF6F4;}
	.st3{fill:#DF7A5F;}
</style>
<g>
	<g>
		<g>
			<path class="st0" d="M74.274,272.82c-9.256,1.453-18.103,3.51-22.937-8.811c-4.934-12.575,1.366-19.328,9.818-26.38
				c17.266-14.423,12.556-26.689-4.922-36.059c-9.301-4.991-19.364-7.717-16.832-21.935c2.367-13.291,12.084-14.395,22.502-17.105
				c19.827-5.162,25.088-16.828,12.285-34.409c-5.474-7.523-12.044-14.899-4.167-24.893c7.77-9.867,16.511-9.418,27.592-5.468
				c22.905,8.172,30.83-3.862,29.234-24.913c-0.738-9.743-2.232-18.258,9.913-22.479c10.841-3.777,17.715,0.301,24.159,8.296
				c16.855,20.93,29.256,14.131,39.104-6.664c3.645-7.693,7.223-14.76,18.031-13.594c11.028,1.183,16.623,6.897,18.468,17.471
				c4.506,25.832,17.102,31.882,38.519,15.329c7.191-5.555,14.399-8.216,22.346-1.387c8.094,6.948,9.602,14.599,5.578,24.895
				c-9.351,23.888,1.702,33.074,24.985,31.52c8.248-0.549,15.989-3.034,20.738,7.685c5.31,11.976,1.1,19.6-7.931,26.844
				c-18.957,15.223-14.277,27.737,5.138,37.667c8.408,4.307,17.228,7.143,15.621,19.741c-1.666,13.074-10.186,15.917-21.219,18.391
				c-22.16,4.966-26.808,17.463-12.825,35.935c5.937,7.852,10.561,15.573,2.21,24.834c-7.326,8.138-15.13,8.429-25.132,4.712
				c-24.755-9.185-32.533,3.532-30.611,26.034c0.746,8.696,1.83,16.033-8.592,20.254c-10.401,4.214-17.835,1.82-24.506-6.535
				c-17.71-22.174-30.736-15.864-40.797,7c-3.635,8.269-8.602,13.603-18.966,11.938c-9.595-1.531-15.015-6.539-16.51-15.78
				c-4.521-27.919-17.799-33.428-40.267-16.027c-6.257,4.844-12.666,6.988-19.725,1.457c-8.171-6.403-11.729-13.691-7.324-24.294
				C106.562,283.676,98.978,272.246,74.274,272.82z"/>
			<path class="st1" d="M300.076,198.691c0.49,55.42-44.98,101.05-100.37,100.74c-54.01-0.3-98.69-44.85-99.16-98.84
				c-0.48-55.59,44.71-100.95,100.3-100.67C254.876,100.181,299.596,144.711,300.076,198.691z"/>
			<path class="st2" d="M201.566,174.821c13.89,2.81,23.26,10.52,22.99,24.77c-0.29,15.63-10.01,25.07-25.68,24.3
				c-13.94-0.68-23.04-9.88-22.84-24.11C176.256,184.041,186.426,176.281,201.566,174.821z"/>
			<g>
				<g>
					<g>
						<path class="st3" d="M219.515,154.478c-3.03,10.753-6.037,21.41-9.032,32.067c-5.466,19.455-10.952,38.902-16.366,58.373
							c-1.279,4.603-3.106,9.073-8.823,7.536c-5.452-1.467-5.505-5.764-4.08-10.748c8.373-29.276,16.537-58.614,24.701-87.949
							c1.216-4.371,2.982-8.18,8.312-7.261C218.417,147.217,220.012,150.383,219.515,154.478z"/>
						<path class="st3" d="M173.4,229.604c0.101,2.816-1.326,4.808-3.665,6.039c-2.407,1.268-4.913,1.035-6.974-0.799
							c-11.387-10.113-22.793-20.207-34.033-30.481c-2.869-2.623-2.942-6.2-0.09-8.862c11.13-10.391,22.397-20.643,33.749-30.795
							c2.885-2.578,6.227-2.278,8.885,0.61c3.04,3.303,2.304,6.699-0.699,9.526c-7.461,7.025-14.922,14.058-22.661,20.768
							c-3.682,3.194-3.624,5.315,0.068,8.422c7.199,6.064,14.091,12.493,21.066,18.818
							C171.076,224.693,173.349,226.451,173.4,229.604z"/>
						<path class="st3" d="M233.091,236.017c-2.805-0.071-4.721-1.598-5.793-4.022c-1.448-3.274-0.052-5.873,2.395-8.11
							c6.948-6.358,13.598-13.084,20.909-18.988c5.505-4.447,4.639-7.304-0.309-11.334c-7.077-5.768-13.661-12.143-20.456-18.253
							c-3.243-2.918-4.975-6.314-1.692-10.079c3.57-4.09,7.229-2.703,10.785,0.501c9.885,8.892,19.777,17.776,29.821,26.487
							c5.327,4.62,5.887,8.863,0.369,13.758c-10.153,9.006-20.14,18.2-30.196,27.318
							C237.258,234.805,235.548,236.206,233.091,236.017z"/>
					</g>
				</g>
			</g>
		</g>
	</g>
</g>
<g>
</g>
<g>
</g>
<g>
</g>
<g>
</g>
<g>
</g>
<g>
</g>
<g>
</g>
<g>
</g>
<g>
</g>
<g>
</g>
<g>
</g>
<g>
</g>
<g>
</g>
<g>
</g>
<g>
</g>
</svg>
